<?xml version="1.0" encoding="UTF-8"?>
<svg width="24px" height="24px" viewBox="0 0 24 24" version="1.1" xmlns="http://www.w3.org/2000/svg" xmlns:xlink="http://www.w3.org/1999/xlink">
    <title>icon_右箭头</title>
    <defs>
        <linearGradient x1="16.2014779%" y1="0%" x2="100%" y2="0%" id="linearGradient-1">
            <stop stop-color="#4DD6F0" stop-opacity="0" offset="0%"></stop>
            <stop stop-color="#09E6FF" offset="100%"></stop>
            <stop stop-color="#67FFFF" offset="100%"></stop>
        </linearGradient>
    </defs>
    <g id="能源云系统V1.0" stroke="none" stroke-width="1" fill="none" fill-rule="evenodd">
        <g id="1_1.站控系统（站点）首页全屏展示" transform="translate(-160.000000, -527.000000)">
            <g id="左边G1" transform="translate(24.000000, 80.000000)">
                <g id="2" transform="translate(0.000000, 387.000000)">
                    <g id="负载关系图2" transform="translate(16.000000, 52.000000)">
                        <g id="icon_右箭头" transform="translate(132.000000, 20.000000) scale(1, -1) translate(-132.000000, -20.000000) translate(120.000000, 8.000000)">
                            <rect id="矩形" fill-opacity="0.01" fill="#040F31" x="0" y="0" width="24" height="24"></rect>
                            <g id="双箭头（右）" transform="translate(5.418750, 4.293750)" fill="url(#linearGradient-1)" fill-rule="nonzero">
                                <path d="M8.15625,8.15625 C8.38125,7.93125 8.38125,7.59375 8.15625,7.36875 L1.06875,0.16875 C0.84375,-0.05625 0.50625,-0.05625 0.28125,0.16875 C-0.05625,0.39375 -0.05625,0.73125 0.16875,0.95625 L6.91875,7.70625 L0.16875,14.45625 C-0.05625,14.68125 -0.05625,15.01875 0.16875,15.24375 C0.39375,15.46875 0.73125,15.46875 0.95625,15.24375 L8.15625,8.15625 L8.15625,8.15625 Z M5.00625,0.95625 L11.75625,7.70625 L5.00625,14.45625 C4.78125,14.68125 4.78125,15.01875 5.00625,15.24375 C5.23125,15.46875 5.56875,15.46875 5.79375,15.24375 L12.99375,8.04375 C13.21875,7.81875 13.21875,7.48125 12.99375,7.25625 L5.79375,0.16875 C5.56875,-0.05625 5.23125,-0.05625 5.00625,0.16875 C4.78125,0.39375 4.78125,0.73125 5.00625,0.95625 Z" id="形状"></path>
                            </g>
                        </g>
                    </g>
                </g>
            </g>
        </g>
    </g>
</svg>