<?xml version="1.0" encoding="UTF-8"?>
<svg width="47px" height="46px" viewBox="0 0 47 46" version="1.1" xmlns="http://www.w3.org/2000/svg" xmlns:xlink="http://www.w3.org/1999/xlink">
    <title>icon_首页_充电桩</title>
    <defs>
        <linearGradient x1="86.0293596%" y1="66.7889585%" x2="0%" y2="32.9081524%" id="linearGradient-1">
            <stop stop-color="#4DD6F0" offset="0%"></stop>
            <stop stop-color="#4DD6F0" stop-opacity="0" offset="100%"></stop>
        </linearGradient>
        <linearGradient x1="50%" y1="0%" x2="50%" y2="100%" id="linearGradient-2">
            <stop stop-color="#09E6FF" offset="0%"></stop>
            <stop stop-color="#00C1FF" offset="100%"></stop>
        </linearGradient>
    </defs>
    <g id="能源云系统V1.0" stroke="none" stroke-width="1" fill="none" fill-rule="evenodd">
        <g id="1_1.站控系统（站点）首页全屏展示" transform="translate(-298.000000, -519.000000)">
            <g id="左边G1" transform="translate(24.000000, 80.000000)">
                <g id="2" transform="translate(0.000000, 387.000000)">
                    <g id="负载关系图2" transform="translate(16.000000, 52.000000)">
                        <g id="编组-2" transform="translate(224.000000, 0.000000)">
                            <g id="icon_首页_充电桩" transform="translate(40.000000, 0.000000)">
                                <g id="BG">
                                    <g>
                                        <circle id="椭圆形" stroke="#18DBFD" stroke-width="0.6" opacity="0.600000024" cx="20" cy="20" r="19.7"></circle>
                                        <g id="1" transform="translate(-3.222432, 3.000000)" stroke="url(#linearGradient-1)" stroke-width="3.4">
                                            <path d="M40.2224319,17 C40.2224319,7.61115925 32.6112726,0 23.2224319,0 C20.1422271,0 17.253355,0.81919265 14.7617981,2.25159541" id="路径"></path>
                                            <path d="M26.4566912,26.0523459 C26.4566912,16.6635052 18.845532,9.05234594 9.45669124,9.05234594 C6.37648645,9.05234594 3.48761436,9.87153859 0.996057496,11.3039414" id="路径备份-6" transform="translate(13.726374, 17.552346) rotate(240.000000) translate(-13.726374, -17.552346) "></path>
                                            <path d="M41.1791231,33.4476541 C41.1791231,24.0588133 33.5679639,16.4476541 24.1791231,16.4476541 C21.0989183,16.4476541 18.2100462,17.2668467 15.7184894,18.6992495" id="路径备份-5" transform="translate(28.448806, 24.947654) rotate(120.000000) translate(-28.448806, -24.947654) "></path>
                                        </g>
                                    </g>
                                    <circle id="椭圆形" fill="#030C31" cx="20" cy="20" r="14"></circle>
                                </g>
                                <g id="充电桩备份" transform="translate(12.000000, 12.000000)" fill="url(#linearGradient-2)" fill-rule="nonzero">
                                    <path d="M5.45173425,13.635796 L6.49451664,11.1154835 L4.26719527,11.1154835 L7.93894642,7.54340213 L6.92316106,10.0236893 L8.96818589,10.0236893 L5.45173425,13.635796 Z M4.54542451,2.92817194 C4.54542451,2.60352502 4.82209963,2.34040882 5.16344774,2.34040882 L8.10794426,2.34040882 C8.44955878,2.34040882 8.72645593,2.60352502 8.72645593,2.92817194 L8.72645593,6.04060251 C8.72645593,6.36518209 8.44955878,6.62829829 8.10794426,6.62829829 L5.16344774,6.62829829 C4.82212184,6.62829829 4.54542451,6.36518209 4.54542451,6.04060251 L4.54542451,2.92817194 Z M13.7722359,3.64719012 C13.3085353,3.25135972 12.5222025,2.59241313 12.2820266,2.36395705 C12.1470637,2.23579986 11.8364647,2.16039612 11.6297909,2.3666284 C11.4324195,2.56329772 11.5185835,2.82174468 11.6640034,2.95378542 C11.8715874,3.14163257 12.3384406,3.51220865 12.6047699,3.79016317 C12.3831989,4.05009172 12.0166298,4.32250151 11.7881098,4.56283272 C11.7587816,4.59289095 11.7601137,4.62721436 11.7603801,4.64411791 C11.761357,4.78154624 11.7670183,4.87618816 11.7660859,4.93408225 C11.7650202,4.98450107 11.8274286,5.00284131 11.8550029,5.00284131 L13.012234,5.00284131 C13.0898727,5.00284131 13.1099873,5.0770553 13.1099873,5.0770553 L13.1099873,12.1620445 C13.1099873,12.5576055 12.8837983,12.6821485 12.6515928,12.6821485 C12.4194539,12.6821485 12.172329,12.5567524 12.172329,12.1620445 L12.172329,6.36940236 C12.172329,5.84429237 12.1114081,5.6066325 11.4882119,5.57495799 C11.3356876,5.56721334 10.7221712,5.5728254 10.3895039,5.57495799 L10.3895039,1.88152122 C10.3895039,1.39457329 9.97418039,1 9.46212493,1 L3.83901709,1 C3.32638439,1 2.9115049,1.39455084 2.9115049,1.88152122 L2.9115049,13.7220647 L2.38168824,13.7220647 C2.17055195,13.7220647 2,13.8844106 2,14.0847615 L2,14.6196814 C2,14.8202342 2.17055195,15 2.38168824,15 L10.9040903,15 C11.1148492,15 11.2857564,14.8202342 11.2857564,14.6196814 L11.2857564,14.0847615 C11.2857564,13.8844106 11.1148492,13.7220647 10.9040903,13.7220647 L10.3895705,13.7220647 L10.3895705,6.42579242 C10.5767736,6.42639853 10.8392175,6.42579242 11.0287518,6.42579242 C11.2567168,6.42579242 11.2761209,6.64095912 11.2761209,6.64095912 L11.2761209,12.2174468 C11.2761209,13.6407795 12.5142987,13.6544056 12.651615,13.6544056 C12.8364203,13.6544056 13.9999656,13.6544056 13.9999656,12.2352932 L13.9999656,4.04151648 C13.9999656,4.04151648 14.0081491,3.84873071 13.7722359,3.64719012 L13.7722359,3.64719012 Z" id="形状"></path>
                                </g>
                            </g>
                        </g>
                    </g>
                </g>
            </g>
        </g>
    </g>
</svg>