<?xml version="1.0" encoding="UTF-8"?>
<svg width="47px" height="46px" viewBox="0 0 47 46" version="1.1" xmlns="http://www.w3.org/2000/svg" xmlns:xlink="http://www.w3.org/1999/xlink">
    <title>icon_首页_储能充电</title>
    <defs>
        <linearGradient x1="86.0293596%" y1="66.7889585%" x2="0%" y2="32.9081524%" id="linearGradient-1">
            <stop stop-color="#4DD6F0" offset="0%"></stop>
            <stop stop-color="#4DD6F0" stop-opacity="0" offset="100%"></stop>
        </linearGradient>
        <linearGradient x1="50%" y1="0%" x2="50%" y2="100%" id="linearGradient-2">
            <stop stop-color="#09E6FF" offset="0%"></stop>
            <stop stop-color="#00C1FF" offset="100%"></stop>
        </linearGradient>
    </defs>
    <g id="能源云系统V1.0" stroke="none" stroke-width="1" fill="none" fill-rule="evenodd">
        <g id="1_1.站控系统（站点）首页全屏展示" transform="translate(-298.000000, -591.000000)">
            <g id="左边G1" transform="translate(24.000000, 80.000000)">
                <g id="2" transform="translate(0.000000, 387.000000)">
                    <g id="负载关系图2" transform="translate(16.000000, 52.000000)">
                        <g id="编组-2" transform="translate(224.000000, 0.000000)">
                            <g id="4" transform="translate(0.000000, 72.000000)">
                                <g id="icon_首页_储能充电" transform="translate(40.000000, 0.000000)">
                                    <g id="BG">
                                        <g transform="translate(-3.222432, 0.000000)">
                                            <circle id="椭圆形" stroke="#18DBFD" stroke-width="0.6" opacity="0.600000024" cx="23.2224319" cy="20" r="19.7"></circle>
                                            <g id="1" transform="translate(0.000000, 3.000000)" stroke="url(#linearGradient-1)" stroke-width="3.4">
                                                <path d="M40.2224319,17 C40.2224319,7.61115925 32.6112726,0 23.2224319,0 C20.1422271,0 17.253355,0.81919265 14.7617981,2.25159541" id="路径"></path>
                                                <path d="M26.4566912,26.0523459 C26.4566912,16.6635052 18.845532,9.05234594 9.45669124,9.05234594 C6.37648645,9.05234594 3.48761436,9.87153859 0.996057496,11.3039414" id="路径备份-6" transform="translate(13.726374, 17.552346) rotate(240.000000) translate(-13.726374, -17.552346) "></path>
                                                <path d="M41.1791231,33.4476541 C41.1791231,24.0588133 33.5679639,16.4476541 24.1791231,16.4476541 C21.0989183,16.4476541 18.2100462,17.2668467 15.7184894,18.6992495" id="路径备份-5" transform="translate(28.448806, 24.947654) rotate(120.000000) translate(-28.448806, -24.947654) "></path>
                                            </g>
                                        </g>
                                        <circle id="椭圆形" fill="#030C31" cx="20" cy="20" r="14"></circle>
                                    </g>
                                    <g id="光伏备份-2" transform="translate(12.000000, 12.000000)" fill="url(#linearGradient-2)" fill-rule="nonzero">
                                        <path d="M13.3776649,2 L16,4.93046076 L16,15 L0,15 L0,4.93046076 L2.49505138,2 L13.3776649,2 Z M14.476,6.37477083 L1.52371429,6.37477083 L1.52371429,13.555375 L14.476,13.555375 L14.476,6.37477083 Z M4.95238095,7.80747197 L4.95238095,12.1229888 L3.42857143,12.1229888 L3.42857143,7.80747197 L4.95238095,7.80747197 Z M12.5714286,7.80747197 L12.5714286,12.1229888 L11.047619,12.1229888 L11.047619,7.80747197 L12.5714286,7.80747197 Z M8.20741807,7.80747197 L7.91272264,9.26047676 L9.50921884,9.26047676 L7.18042531,12.1229888 L7.99270466,9.96523038 L6.47619048,9.96523038 L8.20741807,7.80747197 Z M12.7359534,3.16713189 L3.07420725,3.16713189 L1.76952177,4.93046076 L14.2679109,4.93046076 L12.7359534,3.16713189 Z" id="储能系统"></path>
                                    </g>
                                </g>
                            </g>
                        </g>
                    </g>
                </g>
            </g>
        </g>
    </g>
</svg>