<?xml version="1.0" encoding="UTF-8"?>
<svg width="47px" height="46px" viewBox="0 0 47 46" version="1.1" xmlns="http://www.w3.org/2000/svg" xmlns:xlink="http://www.w3.org/1999/xlink">
    <title>icon_首页_储能放电</title>
    <defs>
        <linearGradient x1="86.0293596%" y1="66.7889585%" x2="0%" y2="32.9081524%" id="linearGradient-1">
            <stop stop-color="#4DD6F0" offset="0%"></stop>
            <stop stop-color="#4DD6F0" stop-opacity="0" offset="100%"></stop>
        </linearGradient>
        <linearGradient x1="50%" y1="0%" x2="50%" y2="100%" id="linearGradient-2">
            <stop stop-color="#09E6FF" offset="0%"></stop>
            <stop stop-color="#00C1FF" offset="100%"></stop>
        </linearGradient>
    </defs>
    <g id="能源云系统V1.0" stroke="none" stroke-width="1" fill="none" fill-rule="evenodd">
        <g id="1_1.站控系统（站点）首页全屏展示" transform="translate(-34.000000, -663.000000)">
            <g id="左边G1" transform="translate(24.000000, 80.000000)">
                <g id="2" transform="translate(0.000000, 387.000000)">
                    <g id="负载关系图2" transform="translate(16.000000, 52.000000)">
                        <g id="icon_首页_储能放电" transform="translate(0.000000, 144.000000)">
                            <g id="BG" transform="translate(-3.222432, 0.000000)">
                                <g id="BG-">
                                    <circle id="椭圆形" stroke="#18DBFD" stroke-width="0.6" opacity="0.600000024" cx="23.2224319" cy="20" r="19.7"></circle>
                                    <g id="1" transform="translate(0.000000, 3.000000)" stroke="url(#linearGradient-1)" stroke-width="3.4">
                                        <path d="M40.2224319,17 C40.2224319,7.61115925 32.6112726,0 23.2224319,0 C20.1422271,0 17.253355,0.81919265 14.7617981,2.25159541" id="路径"></path>
                                        <path d="M26.4566912,26.0523459 C26.4566912,16.6635052 18.845532,9.05234594 9.45669124,9.05234594 C6.37648645,9.05234594 3.48761436,9.87153859 0.996057496,11.3039414" id="路径备份-6" transform="translate(13.726374, 17.552346) rotate(240.000000) translate(-13.726374, -17.552346) "></path>
                                        <path d="M41.1791231,33.4476541 C41.1791231,24.0588133 33.5679639,16.4476541 24.1791231,16.4476541 C21.0989183,16.4476541 18.2100462,17.2668467 15.7184894,18.6992495" id="路径备份-5" transform="translate(28.448806, 24.947654) rotate(120.000000) translate(-28.448806, -24.947654) "></path>
                                    </g>
                                </g>
                                <circle id="椭圆形" fill="#030C31" cx="23.2224319" cy="20" r="14"></circle>
                            </g>
                            <g id="储能放电备份" transform="translate(12.000000, 12.000000)" fill="url(#linearGradient-2)" fill-rule="nonzero">
                                <path d="M11.9925404,0 L6,0 L3,7.23200111 L5.58955368,7.23200111 L3.75372731,14.3760064 L11.2462622,5.76001319 L8.4999863,5.76001319 L11.9925404,0 L11.9925404,0 Z M8.87313999,10.3680019 C8.87313999,10.0640015 9.10448274,9.80800262 9.38806526,9.80800262 L12.4850747,9.80800262 C12.7686572,9.80800262 13,10.064003 13,10.3680019 L13,10.9760011 C13,11.3840009 12.8358214,11.7760002 12.5522389,12.0480012 L11.6343286,12.9040013 L12.5522389,13.7600015 C12.8358214,14.0320008 13,14.4240017 13,14.8320015 L13,15.4400008 C13,15.7440012 12.7686572,16 12.4850747,16 L9.38806526,16 C9.25373693,16 9.1194086,15.9440001 9.02239418,15.8320001 C8.92537932,15.7280002 8.87313999,15.5840007 8.87313999,15.4319997 L8.87313999,14.8240005 C8.87313999,14.4160007 9.03731858,14.0240014 9.3209011,13.7520004 L10.2388114,12.8960003 L9.3209011,12.0400001 C9.03731858,11.7680007 8.87313999,11.3759999 8.87313999,10.968 L8.87313999,10.3680003 L8.87313999,10.3680019 Z M10.6641844,13.6160015 L10.1119452,14.2400013 C10.0298556,14.3280013 10.0074676,14.4640007 10.0522437,14.5760011 C10.0895572,14.6880011 10.1940348,14.768001 10.3059745,14.768001 L11.4104529,14.768001 C11.5223932,14.768001 11.6268712,14.6880011 11.6641837,14.5760011 C11.7089598,14.4640011 11.6865717,14.3280017 11.6044822,14.2400013 L11.052243,13.6160015 C10.9552281,13.5040015 10.7835863,13.4960016 10.6791082,13.6000015 C10.6716456,13.6000015 10.6716456,13.6080015 10.6641828,13.6160015 L10.6641844,13.6160015 Z" id="形状"></path>
                            </g>
                        </g>
                    </g>
                </g>
            </g>
        </g>
    </g>
</svg>