<?xml version="1.0" encoding="UTF-8"?>
<svg width="47px" height="46px" viewBox="0 0 47 46" version="1.1" xmlns="http://www.w3.org/2000/svg" xmlns:xlink="http://www.w3.org/1999/xlink">
    <title>icon_负载</title>
    <defs>
        <linearGradient x1="86.0293596%" y1="66.7889585%" x2="0%" y2="32.9081524%" id="linearGradient-1">
            <stop stop-color="#4DD6F0" offset="0%"></stop>
            <stop stop-color="#4DD6F0" stop-opacity="0" offset="100%"></stop>
        </linearGradient>
        <linearGradient x1="50%" y1="0%" x2="50%" y2="100%" id="linearGradient-2">
            <stop stop-color="#09E6FF" offset="0%"></stop>
            <stop stop-color="#00C1FF" offset="100%"></stop>
        </linearGradient>
    </defs>
    <g id="能源云系统V1.0" stroke="none" stroke-width="1" fill="none" fill-rule="evenodd">
        <g id="1_1.站控系统（站点）首页全屏展示" transform="translate(-298.000000, -663.000000)">
            <g id="左边G1" transform="translate(24.000000, 80.000000)">
                <g id="2" transform="translate(0.000000, 387.000000)">
                    <g id="负载关系图2" transform="translate(16.000000, 52.000000)">
                        <g id="编组-2" transform="translate(224.000000, 0.000000)">
                            <g id="5" transform="translate(0.000000, 144.000000)">
                                <g id="icon_负载" transform="translate(40.000000, 0.000000)">
                                    <g id="BG">
                                        <g id="编组-35">
                                            <circle id="椭圆形" stroke="#18DBFD" stroke-width="0.6" opacity="0.600000024" cx="20" cy="20" r="19.7"></circle>
                                            <g id="1" transform="translate(-3.222432, 3.000000)" stroke="url(#linearGradient-1)" stroke-width="3.4">
                                                <path d="M40.2224319,17 C40.2224319,7.61115925 32.6112726,0 23.2224319,0 C20.1422271,0 17.253355,0.81919265 14.7617981,2.25159541" id="路径"></path>
                                                <path d="M26.4566912,26.0523459 C26.4566912,16.6635052 18.845532,9.05234594 9.45669124,9.05234594 C6.37648645,9.05234594 3.48761436,9.87153859 0.996057496,11.3039414" id="路径备份-6" transform="translate(13.726374, 17.552346) rotate(240.000000) translate(-13.726374, -17.552346) "></path>
                                                <path d="M41.1791231,33.4476541 C41.1791231,24.0588133 33.5679639,16.4476541 24.1791231,16.4476541 C21.0989183,16.4476541 18.2100462,17.2668467 15.7184894,18.6992495" id="路径备份-5" transform="translate(28.448806, 24.947654) rotate(120.000000) translate(-28.448806, -24.947654) "></path>
                                            </g>
                                        </g>
                                        <circle id="椭圆形" fill="#030C31" cx="20" cy="20" r="14"></circle>
                                    </g>
                                    <g id="负载备份" transform="translate(12.000000, 12.000000)" fill="url(#linearGradient-2)" fill-rule="nonzero">
                                        <path d="M12.9478297,8.71185351 C12.4871247,8.71185351 12.0456158,8.83049582 11.652097,9.028233 L9.97244355,6.44776273 C10.5963148,5.87432489 10.9994317,5.04382871 10.9898336,4.11446394 C10.9802356,2.39415042 9.61731681,0.990216401 7.94726136,1.00005136 C6.26760789,1.00005136 4.92388512,2.41392414 4.92388512,4.13423766 C4.92388512,5.06360243 5.33659997,5.88421175 5.96047126,6.45764959 L4.30961185,9.05789358 C3.91609304,8.87004326 3.47458412,8.75140094 3.01387917,8.75140094 C1.34382372,8.7612878 -0.00949707418,10.1652218 5.02061155e-05,11.8954222 C0.00969896548,13.6157357 1.37261778,15.0097829 3.04267323,14.9999483 C4.56875838,14.9900092 5.81650096,13.8134729 6.01805938,12.3007834 L9.97244355,12.2810097 C10.1836,13.7936992 11.4409406,14.9603486 12.9766238,14.9603486 C14.6466792,14.9504617 16,13.5465277 16,11.8163273 C15.980804,10.0960138 14.6178851,8.70196665 12.9478297,8.71185351 Z M9.96284553,11.4109661 L6.00846136,11.4307398 C5.90288314,10.6991122 5.55735443,10.0366927 5.01986532,9.54234969 L6.67072473,6.94210569 C7.06424354,7.12995602 7.50575245,7.24859833 7.9664574,7.24859833 C8.41756434,7.24859833 8.85907325,7.13984288 9.26219008,6.93221884 L10.9418436,9.51268911 C10.4139525,10.0070321 10.0684237,10.6793385 9.96284553,11.4109661 L9.96284553,11.4109661 Z" id="形状"></path>
                                    </g>
                                </g>
                            </g>
                        </g>
                    </g>
                </g>
            </g>
        </g>
    </g>
</svg>