<?xml version="1.0" encoding="UTF-8"?>
<svg width="47px" height="46px" viewBox="0 0 47 46" version="1.1" xmlns="http://www.w3.org/2000/svg" xmlns:xlink="http://www.w3.org/1999/xlink">
    <title>icon_首页_光伏发电</title>
    <defs>
        <linearGradient x1="86.0293596%" y1="66.7889585%" x2="0%" y2="32.9081524%" id="linearGradient-1">
            <stop stop-color="#4DD6F0" offset="0%"></stop>
            <stop stop-color="#4DD6F0" stop-opacity="0" offset="100%"></stop>
        </linearGradient>
        <linearGradient x1="50%" y1="0%" x2="50%" y2="100%" id="linearGradient-2">
            <stop stop-color="#09E6FF" offset="0%"></stop>
            <stop stop-color="#00C1FF" offset="100%"></stop>
        </linearGradient>
        <linearGradient x1="50%" y1="0%" x2="50%" y2="100%" id="linearGradient-3">
            <stop stop-color="#09E6FF" offset="0%"></stop>
            <stop stop-color="#00C1FF" offset="100%"></stop>
        </linearGradient>
    </defs>
    <g id="能源云系统V1.0" stroke="none" stroke-width="1" fill="none" fill-rule="evenodd">
        <g id="1_1.站控系统（站点）首页全屏展示" transform="translate(-34.000000, -519.000000)">
            <g id="左边G1" transform="translate(24.000000, 80.000000)">
                <g id="2" transform="translate(0.000000, 387.000000)">
                    <g id="icon_首页_光伏发电" transform="translate(16.000000, 52.000000)">
                        <g id="BG" transform="translate(-3.222432, 0.000000)">
                            <g id="编组-35">
                                <circle id="椭圆形" stroke="#18DBFD" stroke-width="0.6" opacity="0.600000024" cx="23.2224319" cy="20" r="19.7"></circle>
                                <g id="1" transform="translate(0.000000, 3.000000)" stroke="url(#linearGradient-1)" stroke-width="3.4">
                                    <path d="M40.2224319,17 C40.2224319,7.61115925 32.6112726,0 23.2224319,0 C20.1422271,0 17.253355,0.81919265 14.7617981,2.25159541" id="路径"></path>
                                    <path d="M26.4566912,26.0523459 C26.4566912,16.6635052 18.845532,9.05234594 9.45669124,9.05234594 C6.37648645,9.05234594 3.48761436,9.87153859 0.996057496,11.3039414" id="路径备份-6" transform="translate(13.726374, 17.552346) rotate(240.000000) translate(-13.726374, -17.552346) "></path>
                                    <path d="M41.1791231,33.4476541 C41.1791231,24.0588133 33.5679639,16.4476541 24.1791231,16.4476541 C21.0989183,16.4476541 18.2100462,17.2668467 15.7184894,18.6992495" id="路径备份-5" transform="translate(28.448806, 24.947654) rotate(120.000000) translate(-28.448806, -24.947654) "></path>
                                </g>
                            </g>
                            <circle id="椭圆形" fill="#030C31" cx="23.2224319" cy="20" r="14"></circle>
                        </g>
                        <g id="光伏备份-3" transform="translate(12.000000, 12.000000)" fill-rule="nonzero">
                            <rect id="矩形" fill="#66FFFF" opacity="0" x="0" y="0" width="16" height="16"></rect>
                            <g id="光伏" transform="translate(0.000000, 1.777778)">
                                <path d="M9.92951433,11.0074126 L6.26295427,11.0074126 C6.06135431,11.0074126 5.67031468,11.1450855 5.67031468,11.3165934 L5.2063145,12 L10.988073,12 L10.5250335,11.3174691 C10.5231135,11.1474196 10.1298333,11.0074126 9.92951301,11.0074126 L9.92951433,11.0074126 Z M15.9717515,6.81451456 L14.5509574,0.959918792 C14.3986378,0.36343371 13.7023173,0 13.0088751,0 C10.5109517,0.0078753641 5.22231256,0.00291680595 2.72440233,0 C2.030002,0 1.60472188,0.365474673 1.44952272,0.9602107 L0.028085438,6.81451935 C-0.14343466,7.56005332 0.488885741,8.20349849 1.42713147,8.20349849 L7.02969434,8.20349849 L7.02969434,11.6129469 L9.11832776,11.6129469 L9.11832776,8.20321137 L14.5736807,8.20321137 C15.5106401,8.20583649 16.143916,7.56151525 15.9717554,6.81481843 L15.9717515,6.81451456 Z M14.2687174,7.46758671 L1.73175873,7.46758671 C1.33495855,7.46583662 1.02903847,7.11902953 1.09495877,6.7920556 L2.2898389,1.04303717 C2.35575894,0.727439273 2.60503835,0.682229439 2.81943913,0.682229439 L13.1829638,0.682229439 C13.3973632,0.682229439 13.6533637,0.725981408 13.719284,1.04303717 L14.9141641,6.79029697 C14.9800841,7.11901996 14.6677646,7.46582808 14.2706441,7.46758671 L14.2687242,7.46758671 L14.2687174,7.46758671 Z" id="形状" fill="url(#linearGradient-2)"></path>
                                <path d="M10.559908,3.4642852 L13.0875857,3.4642852 C13.2194263,3.4642852 13.3039054,3.38961516 13.2859858,3.29627785 L12.9413457,1.66753943 C12.9215057,1.57420176 12.8011851,1.49953208 12.6703053,1.49953208 L10.3493463,1.49953208 C10.2181463,1.49953208 10.1445464,1.57507725 10.1509462,1.66753943 L10.2895068,3.29627785 C10.2981468,3.3896154 10.4290268,3.4642852 10.5599067,3.4642852 L10.559908,3.4642852 Z M9.4709479,4.12873218 L6.79670332,4.12873218 C6.65718328,4.12873218 6.54166361,4.21273598 6.53494361,4.32094875 L6.41718363,6.30320677 C6.41078363,6.41054501 6.52342366,6.49979956 6.66582359,6.49979956 L9.61174251,6.49979956 C9.75126255,6.49979956 9.86006222,6.40821202 9.85174228,6.30320677 L9.73398231,4.32094875 C9.72758231,4.21302717 9.6136623,4.12873218 9.4715821,4.12873218 L9.4709479,4.12873218 Z M13.1682336,4.14739969 L10.6043965,4.14739969 C10.4603969,4.14739969 10.3675966,4.23461196 10.3778367,4.3442832 L10.5762368,6.28453758 C10.5874368,6.39566764 10.7314373,6.48113038 10.8757571,6.48113038 L13.6232786,6.48113038 C13.7672782,6.48113038 13.8632783,6.39420978 13.8434386,6.28453758 L13.469678,4.3442832 C13.436718,4.22936133 13.3122384,4.14798231 13.1682375,4.14739969 L13.1682336,4.14739969 Z M6.84758893,3.44007574 L9.44918665,3.44007574 C9.58870669,3.44007574 9.69782661,3.35140501 9.68918643,3.2487337 L9.58038649,1.68007568 C9.57334649,1.57886272 9.45110644,1.49952586 9.30870691,1.49952586 L6.9880629,1.49952586 C6.84726317,1.49952586 6.73206244,1.5782795 6.72630319,1.68007568 L6.60790324,3.2487337 C6.60086324,3.35140501 6.70806325,3.44095027 6.84758276,3.44095027 L6.84758276,3.44007523 L6.84758893,3.44007574 Z M5.95030895,1.49923515 L3.63351056,1.49923515 C3.50231059,1.49923515 3.37527098,1.57478031 3.35511098,1.6672425 L3.01943128,3.29598091 C3.00055124,3.38931846 3.0859913,3.46398827 3.21879081,3.46398827 L5.73879042,3.46398827 C5.86999039,3.46398827 6.00055013,3.38931822 6.01014975,3.29598091 L6.15606954,1.6672425 C6.16374954,1.57390483 6.0802295,1.49923515 5.95030895,1.49923515 Z M5.70070955,4.14768921 L3.1384737,4.14768921 C2.9931931,4.14768921 2.86039437,4.23519327 2.83767369,4.34457271 L2.46519412,6.28424089 C2.4421541,6.3930376 2.54103416,6.48083368 2.6850339,6.48083368 L5.43191222,6.48083368 C5.57687257,6.48083368 5.72119242,6.39391308 5.73271223,6.28424089 L5.92215189,4.3439865 C5.93175189,4.23256478 5.84631185,4.147103 5.70135136,4.147103 L5.70135136,4.14797804 L5.70070955,4.14768921 Z" id="形状" fill="url(#linearGradient-3)"></path>
                            </g>
                        </g>
                    </g>
                </g>
            </g>
        </g>
    </g>
</svg>