<?xml version="1.0" encoding="UTF-8"?>
<svg width="47px" height="46px" viewBox="0 0 47 46" version="1.1" xmlns="http://www.w3.org/2000/svg" xmlns:xlink="http://www.w3.org/1999/xlink">
    <title>icon_首页_电网输电</title>
    <defs>
        <linearGradient x1="86.0293596%" y1="66.7889585%" x2="0%" y2="32.9081524%" id="linearGradient-1">
            <stop stop-color="#4DD6F0" offset="0%"></stop>
            <stop stop-color="#4DD6F0" stop-opacity="0" offset="100%"></stop>
        </linearGradient>
        <linearGradient x1="50%" y1="0%" x2="50%" y2="100%" id="linearGradient-2">
            <stop stop-color="#09E6FF" offset="0%"></stop>
            <stop stop-color="#00C1FF" offset="100%"></stop>
        </linearGradient>
    </defs>
    <g id="能源云系统V1.0" stroke="none" stroke-width="1" fill="none" fill-rule="evenodd">
        <g id="1_1.站控系统（站点）首页全屏展示" transform="translate(-34.000000, -591.000000)">
            <g id="左边G1" transform="translate(24.000000, 80.000000)">
                <g id="2" transform="translate(0.000000, 387.000000)">
                    <g id="负载关系图2" transform="translate(16.000000, 52.000000)">
                        <g id="icon_首页_电网输电" transform="translate(0.000000, 72.000000)">
                            <g id="BG">
                                <g transform="translate(-3.222432, 0.000000)">
                                    <g id="1" transform="translate(0.000000, 3.000000)" stroke="url(#linearGradient-1)" stroke-width="3.4">
                                        <path d="M40.2224319,17 C40.2224319,7.61115925 32.6112726,0 23.2224319,0 C20.1422271,0 17.253355,0.81919265 14.7617981,2.25159541" id="路径"></path>
                                        <path d="M26.4566912,26.0523459 C26.4566912,16.6635052 18.845532,9.05234594 9.45669124,9.05234594 C6.37648645,9.05234594 3.48761436,9.87153859 0.996057496,11.3039414" id="路径备份-6" transform="translate(13.726374, 17.552346) rotate(240.000000) translate(-13.726374, -17.552346) "></path>
                                        <path d="M41.1791231,33.4476541 C41.1791231,24.0588133 33.5679639,16.4476541 24.1791231,16.4476541 C21.0989183,16.4476541 18.2100462,17.2668467 15.7184894,18.6992495" id="路径备份-5" transform="translate(28.448806, 24.947654) rotate(120.000000) translate(-28.448806, -24.947654) "></path>
                                    </g>
                                    <circle id="椭圆形" stroke="#18DBFD" stroke-width="0.6" opacity="0.600000024" cx="23.2224319" cy="20" r="19.7"></circle>
                                </g>
                                <circle id="椭圆形" fill="#030C31" cx="20" cy="20" r="14"></circle>
                            </g>
                            <g id="光伏备份" transform="translate(12.000000, 12.000000)" fill="url(#linearGradient-2)" fill-rule="nonzero">
                                <path d="M8.17278607,7.13603552 L10.0138738,7.13603552 L5.87090137,11.5104309 L7.0218403,7.48162473 L5.1807526,7.48162473 L7.13704809,3.22346161 L10.7050573,3.22346161 L8.17279119,7.13501099 L8.17278607,7.13603552 Z M13.6981153,2.41707541 C15.1936155,3.91360526 16,5.98610915 16,8.05759536 C16,10.1290816 15.1936223,12.2015923 13.6981153,13.6970908 C12.2015855,15.1936206 10.1290816,16 8.05759536,16 C5.98610915,16 3.91359843,15.1936223 2.41707541,13.6970908 C0.921575207,12.2015906 0,10.1290816 0,8.05759536 C0,5.98508463 0.806377665,3.91359843 2.3018847,2.41707541 C3.79841455,0.920545559 5.87091844,0 8.05761243,0 C10.2442893,0 12.2016094,0.805348018 13.6981324,2.41707541 L13.6981153,2.41707541 Z M15.1936189,7.59681885 C15.0784188,6.10028559 14.5034633,4.60375232 13.5829178,3.45281851 C13.122131,3.79840943 12.5461467,4.14399863 11.9711921,4.48958955 C12.2015855,5.41013511 12.316783,6.44588504 12.4319788,7.59681885 L15.1936189,7.59681885 L15.1936189,7.59681885 Z M5.64052678,1.2661416 C4.60478026,1.61173251 3.79943395,2.18668716 3.10825553,2.87786728 C3.45384645,3.22242855 3.91360355,3.45385157 4.37336236,3.6832153 C4.48958767,3.22242855 4.60478368,2.87786728 4.83414911,2.41810847 C5.06454249,1.95629378 5.29493586,1.61173081 5.64052678,1.2661416 L5.64052678,1.2661416 Z M2.53226783,3.5680263 C1.49652643,4.60376769 0.921570084,6.10029242 0.921570084,7.59683251 L3.68321018,7.59683251 C3.68321018,6.56109112 3.91360355,5.4101556 4.14399693,4.48960321 C3.45384474,4.25920984 2.99203005,3.91361892 2.53227124,3.5680263 L2.53226783,3.5680263 Z M0.921568182,8.51736783 L0.921568182,8.51736783 C1.03111925,9.93907499 1.55059743,11.2985081 2.41707029,12.4309667 L2.41706989,12.4309667 C2.88012425,11.9817759 3.42850785,11.6299422 4.02982372,11.3962532 L4.02982372,11.3962541 C3.79471411,10.4551975 3.67861158,9.48835029 3.6842328,8.51839874 L0.921568182,8.51839874 L0.921568182,8.51736783 Z M6.791464,11.3952232 L8.40318969,9.66830164 L8.40318969,10.4746793 C9.32373525,10.4746793 10.2442774,10.7050727 11.1658543,11.0506636 L11.1658541,11.0506644 C11.3932917,10.2254014 11.5091757,9.3733948 11.5104153,8.51737379 L9.66932764,8.51737379 L10.4746757,7.59682823 L11.6266425,7.59682823 C11.6266425,6.67628267 11.5104172,5.64053274 11.2800237,4.83416362 L10.2442823,5.17975453 L10.9354624,4.02778766 L11.5114467,3.10827004 L11.5114467,3.22243827 C11.6256149,3.33763496 11.6256149,3.56802919 11.7408121,3.68322502 C12.2015989,3.45283165 12.6613577,3.22243827 13.0069471,2.87787701 L13.0069471,2.87787718 C12.2833254,2.17138895 11.4210906,1.62259725 10.474681,1.2661515 C10.7050743,1.61174241 11.0506652,1.95630368 11.280029,2.41811837 C11.280029,2.41811837 11.280029,2.53228661 11.3952257,2.53228661 L10.3594843,2.53228661 C9.78349998,1.72693859 9.09437744,1.1509543 8.40318878,0.920560924 L8.40318878,2.64748244 L7.59681112,2.64748244 L7.59681112,0.920560924 C6.90665893,1.1509543 6.21547881,1.84213442 5.64051563,2.87788094 C5.41012225,3.22244221 5.29492471,3.56803312 5.17972888,4.02881987 C5.41012225,4.14401656 5.75571317,4.25921325 5.98610654,4.25921325 L5.64051563,5.06456127 C5.41012225,5.06456127 5.06453133,4.94936458 4.83413796,4.83416789 C4.71996972,5.64054556 4.60477252,6.56108941 4.48957669,7.4816418 L4.25918332,8.17282192 L6.21547881,8.17282192 L6.10028212,8.51738319 L4.48958438,8.51738319 C4.60478106,9.32376086 4.60478106,10.2443047 4.83414564,11.0496493 C5.06453902,10.9344526 5.17973656,10.9344526 5.41012993,10.8202839 L5.17973656,11.8560253 L5.06453987,11.8560253 L5.06453987,11.971222 L4.7199786,13.3525543 C4.48958523,13.0069633 4.37438769,12.6613741 4.25919185,12.2005874 C3.7984051,12.4309808 3.33864629,12.7765717 2.99305709,13.0069651 C3.68320927,13.8123131 4.60478277,14.3882974 5.64053099,14.7338866 C5.41013762,14.3882957 5.0645467,14.0427064 4.83415333,13.5819197 L5.41013762,12.8917675 C5.41013762,13.0069642 5.52533431,13.1221609 5.52533431,13.1221609 C6.21548649,14.2730998 6.90666661,14.9632486 7.59682051,15.0784564 L7.59682051,11.2800487 C7.36642713,11.3952453 7.1370617,11.3952453 6.79147249,11.3952453 L6.791464,11.3952232 Z M8.51838552,15.0784402 C9.2085377,14.8480468 9.89971783,14.2730921 10.474681,13.1221447 C10.7050744,12.7765538 10.8202719,12.315767 11.0506653,11.8560099 C10.2442876,11.510419 9.43893962,11.3952232 8.51838552,11.3952232 L8.51838552,15.0784402 L8.51838552,15.0784402 Z M10.474681,14.733884 C11.5104224,14.388288 12.432001,13.8123054 13.1221549,13.0059329 C12.776564,12.6613716 12.3168069,12.4309782 11.8560201,12.2016128 C11.7408235,12.6613716 11.5104292,13.1221583 11.2800359,13.5819171 C10.9354746,14.0427039 10.7040516,14.3882948 10.474681,14.733884 L10.474681,14.733884 Z M13.6981255,12.4309697 C14.6186711,11.2800307 15.0784299,9.89870355 15.1936257,8.51737124 L12.4330102,8.51737124 C12.4330102,9.55414228 12.3178135,10.4746913 12.0874193,11.3952266 C12.6634036,11.6256199 13.1231607,12.0864067 13.6991449,12.4309697 L13.6981255,12.4309697 Z" id="形状"></path>
                            </g>
                        </g>
                    </g>
                </g>
            </g>
        </g>
    </g>
</svg>