<?xml version="1.0" encoding="UTF-8"?>
<svg width="64px" height="80px" viewBox="0 0 64 80" version="1.1" xmlns="http://www.w3.org/2000/svg" xmlns:xlink="http://www.w3.org/1999/xlink">
    <title>变流器</title>
    <defs>
        <linearGradient x1="60.1380528%" y1="3.27586506%" x2="74.0367633%" y2="93.9885516%" id="linearGradient-1">
            <stop stop-color="#F6F6F6" offset="0%"></stop>
            <stop stop-color="#D5D5D5" offset="100%"></stop>
        </linearGradient>
        <path d="M17.119071,2.62655377 L61.9376603,28.7292334 C63.1678792,29.445722 63.9245645,30.7620857 63.9245645,32.1857411 L63.9245645,68.3824422 C63.9245645,69.4870117 63.029134,70.3824422 61.9245645,70.3824422 C61.5709241,70.3824422 61.2236068,70.288674 60.9180166,70.110696 L14.5961534,43.1324985 C13.3659345,42.4160098 12.6092492,41.0996461 12.6092492,39.6759908 L12.6092492,5.21893453 C12.6092492,3.56208028 13.9523949,2.21893453 15.6092492,2.21893453 C16.1397098,2.21893453 16.6606857,2.35958675 17.119071,2.62655377 Z" id="path-2"></path>
        <linearGradient x1="89.6794534%" y1="28.8%" x2="-72.4624753%" y2="105%" id="linearGradient-3">
            <stop stop-color="#F2F2F2" offset="0%"></stop>
            <stop stop-color="#B4B4B4" offset="100%"></stop>
        </linearGradient>
        <linearGradient x1="74.6231838%" y1="43.6939751%" x2="48.5561214%" y2="70.399219%" id="linearGradient-4">
            <stop stop-color="#FFFFFF" offset="0%"></stop>
            <stop stop-color="#FFFFFF" stop-opacity="0" offset="100%"></stop>
        </linearGradient>
        <linearGradient x1="60.5532791%" y1="1.70370869%" x2="39.4467209%" y2="98.2962913%" id="linearGradient-5">
            <stop stop-color="#EC4043" offset="0%"></stop>
            <stop stop-color="#AC0003" offset="100%"></stop>
        </linearGradient>
        <path d="M1.42367335,0.00690638941 C1.50018749,0.0194305388 1.58015317,0.0461102614 1.66135482,0.0862063482 C1.71684394,0.212514245 1.74764795,0.337594816 1.77492552,0.462305333 L1.81584188,0.649200726 L1.81584188,0.649200726 C1.84557661,0.843900942 1.86934083,1.03512389 1.87330808,1.21711708 C1.88312801,1.28536891 1.88509199,1.34904537 1.88509199,1.41186552 L1.88421911,1.53746598 L1.88644469,1.68758097 L1.88096026,1.85588359 L1.88116402,1.94258786 L1.880395,2.06158027 L1.880395,2.06158027 L1.86923834,2.2948088 C1.86771809,2.33404221 1.86683675,2.37375342 1.86729829,2.41438767 C1.8616869,2.44035794 1.85896137,2.4683808 1.85728391,2.49712083 L1.85355795,2.58415703 C1.85142929,2.62741546 1.84752376,2.66928283 1.83563885,2.70525208 C1.81541766,2.68118958 1.80163048,2.65350298 1.78912728,2.62509641 L1.76430691,2.56818378 C1.60785586,2.21096924 1.46326729,1.85385324 1.32857719,1.49569193 L1.28018161,1.35607173 C1.16760407,1.02907962 1.06167654,0.695493458 1.05126251,0.394952124 C1.04190711,0.134976593 1.19186631,-0.0218142769 1.39557207,0.0024658128 L1.42367335,0.00690638941 Z M2.23774514,0.435520881 C2.24756507,0.434474919 2.25796437,0.441095312 2.26862881,0.449843296 L2.29021809,0.468534933 C2.29384419,0.471575965 2.29747647,0.474443117 2.3011033,0.476931249 L2.37323667,0.536557413 C2.45795199,0.606678805 2.54320592,0.681085126 2.61408395,0.784278761 C2.69924234,0.915779174 2.7784695,1.05970077 2.81016822,1.20322759 C2.85569339,1.37983813 2.83789969,1.53323691 2.81016822,1.66943729 C2.770535,1.83965777 2.69527509,1.97776354 2.62001519,2.11343384 C2.59644737,2.15428006 2.56258827,2.18462245 2.54078803,2.22875317 C2.49722684,2.31482754 2.43976064,2.38594817 2.38429771,2.45602556 C2.34073652,2.51706884 2.29469089,2.57438755 2.24764854,2.63028013 L2.10501903,2.79597784 L2.10024884,2.80009287 L2.08976833,2.8105182 C2.07862744,2.82069702 2.06543819,2.8267162 2.04959538,2.7977951 C2.0338835,2.60440653 2.02186391,2.41546854 2.01589339,2.22793383 C2.00345856,2.08683173 2.00200281,1.95138758 2.00268717,1.81687428 L2.00421392,1.61521157 C2.00436761,1.58152051 2.00437883,1.54773991 2.00410948,1.5137959 L2.01266387,1.40112627 L2.0260607,1.17445389 C2.02869858,1.13707644 2.03181149,1.10008278 2.0358082,1.06374761 C2.06746764,0.897993554 2.08926787,0.72419727 2.13879958,0.573497564 C2.14671662,0.56445792 2.15316916,0.553106513 2.15904732,0.540810081 L2.17584879,0.502452442 C2.18708785,0.476812945 2.1995899,0.452860288 2.22047592,0.441528356 L2.23774514,0.435520881 Z M0.58406975,0.0637280924 C0.596527026,0.0644629775 0.605098017,0.0770575372 0.612743702,0.0917745491 L0.623888372,0.114224753 C0.625753528,0.117826043 0.627653383,0.121255698 0.629634202,0.124361573 C0.984516104,0.855139083 1.29480819,1.59767149 1.55631144,2.34178584 L1.63846784,2.57929496 C1.65343777,2.62338616 1.66664448,2.66745937 1.66928932,2.70844814 C1.63957029,2.68302137 1.61270769,2.65342934 1.58613922,2.62269995 L1.53263524,2.56062188 C1.27861289,2.26512445 1.03136161,1.95868077 0.791859366,1.64250291 C0.702733725,1.51780236 0.61160482,1.39423525 0.532377664,1.26167912 C0.373923352,1.04202875 0.265000742,0.762557309 0.278866476,0.545488302 C0.293654128,0.31006684 0.419192595,0.17546304 0.557762616,0.0808915703 L0.58406975,0.0637280924 Z M3.28572755,1.63489353 L3.31738699,1.65333222 L3.41220693,1.84455825 C3.44370639,1.90853724 3.47395565,1.97286264 3.4995257,2.03786277 L3.52340902,2.10309997 C3.57867556,2.24673234 3.60644631,2.39027164 3.61430225,2.5221673 C3.60837101,2.65969883 3.5687378,2.78220239 3.48754665,2.84406064 L3.45668852,2.85996386 L3.39857342,2.89638538 C3.37917867,2.9081223 3.35921202,2.91850289 3.33702684,2.92466885 C3.04187917,3.02116909 2.70914083,3.03660364 2.37439922,3.04176107 L2.31105366,3.04557389 C2.28268433,3.04674046 2.25356925,3.04481977 2.22187614,3.03027882 C2.22755487,2.9880985 2.24357136,2.95713757 2.26142382,2.92777398 L2.28851673,2.88372384 C2.29290747,2.8761809 2.29714727,2.8684371 2.3011033,2.8603421 C2.50595962,2.50389333 2.74311642,2.18560566 3.01034303,1.90839719 L3.13900376,1.77811347 L3.23791618,1.68441659 L3.28572755,1.63489353 Z M0.0133357008,0.925288818 L0.0137284978,0.925517586 L0.0165941982,0.918719819 L0.0210771228,0.902161309 C0.0242923324,0.891227273 0.0290026899,0.882398975 0.0414599664,0.88705121 C0.0652163293,0.90629922 0.0868374476,0.931739912 0.108037173,0.958409444 L0.150382576,1.0119162 C0.564606658,1.51184618 0.977296991,2.01613152 1.3778489,2.53530445 L1.54873992,2.75874932 C1.5644518,2.77692024 1.57250413,2.79987592 1.57843537,2.8238062 C1.27935973,2.65413243 0.980284089,2.47994855 0.683172434,2.30465346 C0.502957168,2.2019949 0.330637122,2.00611037 0.203960088,1.78904664 C0.0948410794,1.5890642 0.0114502752,1.3676244 0.00155179064,1.17311149 L0.000242467287,1.08760737 C-0.000630414947,1.03032845 0.000242467287,0.973738878 0.0133357008,0.925288818 Z M3.77503478,3.10020966 C3.80473024,3.09702863 3.83442569,3.0938476 3.87009166,3.11917493 L3.88659786,3.28798166 C3.8891685,3.3160066 3.89117176,3.34369775 3.89189189,3.37063658 L3.88800972,3.40524006 L3.88159501,3.47575735 C3.87595968,3.53433422 3.86786745,3.59091641 3.84432417,3.63406016 L3.81662454,3.68618125 C3.79261125,3.72865029 3.76511946,3.76693043 3.72550308,3.78770223 L3.70361278,3.79937688 L3.66095165,3.82487285 C3.6253245,3.84592682 3.58834328,3.86419037 3.54128128,3.86234778 C3.45812616,3.88671074 3.35116753,3.84714818 3.24817616,3.79402059 C2.93519551,3.61399339 2.62029015,3.43059017 2.30734877,3.24607573 C2.31520471,3.23261066 2.32306065,3.22108494 2.33904749,3.22128538 C2.74629452,3.15799451 3.16863845,3.12963578 3.59305369,3.10877226 L3.77503478,3.10020966 Z M0.682897476,2.45007956 C0.851289553,2.52767647 1.02160633,2.64504596 1.18995913,2.72036495 L1.33482015,2.79951146 C1.40712245,2.83976342 1.47913629,2.88196459 1.55042894,2.93030524 C1.53233783,2.95355599 1.50582003,2.96150179 1.47791884,2.96630663 L1.43590995,2.97267868 L1.41577813,2.97694886 C1.2885809,3.0071513 1.15408661,3.02084027 1.01367183,3.01787566 C0.883207775,3.01681325 0.721115538,2.9006087 0.603435378,2.73633466 L0.581909366,2.70498634 C0.484849226,2.57115456 0.41748454,2.42047614 0.354087103,2.27210827 C0.397656147,2.29111494 0.441564567,2.31469226 0.485533321,2.33962094 L0.617341541,2.41524182 L0.682897476,2.45007956 Z M2.33676927,3.3882757 C2.45562964,3.44848065 2.57637544,3.52331401 2.69723908,3.60047105 C2.85966064,3.71554246 3.02604945,3.79427281 3.18847101,3.90911871 C3.30332486,3.98737591 3.41821798,4.04292505 3.53311111,4.12576034 C3.49913978,4.18781429 3.44918081,4.23058314 3.39320908,4.26266706 L3.36475831,4.27784092 C3.26176694,4.34084858 3.10331262,4.31003636 2.95872405,4.18943034 C2.87947725,4.11483456 2.80644463,4.02609941 2.73524365,3.93565846 L2.65040118,3.82710628 C2.63631381,3.80914303 2.62222958,3.79131049 2.60811344,3.77370813 C2.54671927,3.69474488 2.48929234,3.61353699 2.42789817,3.5323187 L2.38754001,3.47623423 C2.37445138,3.45739162 2.36206288,3.43827267 2.35138257,3.41849175 L2.33676927,3.3882757 Z" id="path-6"></path>
        <linearGradient x1="50%" y1="100%" x2="50%" y2="5.1%" id="linearGradient-7">
            <stop stop-color="#D2D2D2" offset="0%"></stop>
            <stop stop-color="#7A7A7A" offset="100%"></stop>
        </linearGradient>
        <linearGradient x1="50%" y1="0%" x2="50%" y2="100%" id="linearGradient-8">
            <stop stop-color="#FFFFFF" offset="0%"></stop>
            <stop stop-color="#B4B4B4" offset="100%"></stop>
        </linearGradient>
        <linearGradient x1="50%" y1="0%" x2="57.0387637%" y2="116.6%" id="linearGradient-9">
            <stop stop-color="#C5C5C5" offset="0%"></stop>
            <stop stop-color="#D4D4D4" offset="28.1%"></stop>
            <stop stop-color="#A7A7A7" offset="69.6%"></stop>
            <stop stop-color="#636363" offset="100%"></stop>
        </linearGradient>
    </defs>
    <g id="光储充及工商储管理系统V1.3" stroke="none" stroke-width="1" fill="none" fill-rule="evenodd">
        <g id="7_1_1.设备管理_设备列表_光储一体机_设备详情" transform="translate(-607.000000, -557.000000)">
            <g id="main" transform="translate(212.000000, 102.000000)">
                <g id="2" transform="translate(0.000000, 214.000000)">
                    <g id="能流图" transform="translate(120.000000, 120.000000)">
                        <g id="变流器" transform="translate(275.000000, 121.000000)">
                            <g id="华为逆变器1" transform="translate(32.000000, 40.000000) scale(-1, 1) translate(-32.000000, -40.000000) ">
                                <polygon id="矩形备份-72" fill="#B8BBBC" points="7.78378378 53.9257264 20.4310076 46.6992142 20.4310076 49.0893853 7.78378378 56.319038"></polygon>
                                <polygon id="矩形备份-73" fill="#B8BBBC" points="48.4324324 77.6066884 61.0796563 70.3801762 61.0796563 72.7703473 48.4324324 80"></polygon>
                                <g id="逆变器1备份-2" transform="translate(0.000000, 0.422041)">
                                    <g id="矩形备份">
                                        <use fill="url(#linearGradient-1)" xlink:href="#path-2"></use>
                                        <use fill="#D2D2D2" xlink:href="#path-2"></use>
                                    </g>
                                    <path d="M2,8.97928969 C2.26523032,8.97928969 2.52571826,9.0496158 2.75491092,9.18309931 L2.75491092,9.18309931 L49.0767741,36.1612969 C50.1532157,36.7882244 50.8153153,37.9400427 50.8153153,39.1857411 L50.8153153,39.1857411 L50.8153153,75.3824422 C50.8153153,75.7966557 50.6474221,76.1716557 50.3759755,76.4431023 C50.1045289,76.714549 49.7295289,76.8824422 49.3153153,76.8824422 C49.050085,76.8824422 48.7895971,76.8121161 48.5604044,76.6786326 L48.5604044,76.6786326 L2.23854119,49.700435 C1.16209965,49.0735074 0.5,47.9216892 0.5,46.6759908 L0.5,46.6759908 L0.5,10.4792897 C0.5,10.0650761 0.667893219,9.69007613 0.939339828,9.41862952 C1.21078644,9.14718291 1.58578644,8.97928969 2,8.97928969 Z" id="矩形" stroke="url(#linearGradient-4)" fill="url(#linearGradient-3)" fill-rule="nonzero"></path>
                                    <polygon id="矩形" fill="#DADCDE" points="2.88288288 50.6493639 7.78378378 53.503685 7.78378378 55.8969966 2.88288288 53.0426754"></polygon>
                                    <polygon id="矩形备份-66" fill="#DADCDE" points="43.5315315 74.3303259 48.4324324 77.184647 48.4324324 79.5710718 43.5315315 76.7167507"></polygon>
                                    <g id="编组-70" transform="translate(21.045045, 39.254374)">
                                        <path d="M2.21981982,0.305831288 L7.29369369,3.26089316 C8.49888713,3.96280678 9.47975709,5.65281098 9.5126607,7.06654077 L9.51351351,7.17299211 C9.51351351,8.60102327 8.51966633,9.17984726 7.29369369,8.46583168 L2.21981982,5.51076981 C1.01462638,4.80885619 0.0337564187,3.11885199 0.00085280983,1.7051222 L0,1.59867086 C0,0.170639701 0.993847186,-0.40818429 2.21981982,0.305831288 Z" id="矩形" fill="#3A3A3E"></path>
                                        <g id="LOGO" transform="translate(3.963964, 4.097856)" fill="#FFFFFF" fill-rule="nonzero">
                                            <path d="M0.593682842,0.0025316673 C0.627734656,0.00738458192 0.663322545,0.0182138307 0.699460484,0.0347193701 C0.717981623,0.0746041986 0.730323222,0.114278721 0.740457843,0.153843333 L0.768213329,0.272307835 C0.78144646,0.354613176 0.792022476,0.43548076 0.793788059,0.51255546 C0.798158314,0.541411026 0.799032365,0.568374805 0.799032365,0.59498744 L0.799032365,0.675312553 L0.79968192,0.707788178 L0.79968192,0.707788178 L0.79755101,0.771141977 L0.79755101,0.771141977 L0.797284263,0.819841738 C0.799032365,0.888232736 0.790291856,0.950948374 0.791113463,1.01979336 C0.782372954,1.058416 0.789365362,1.10748142 0.777023763,1.14320021 C0.769524406,1.1348052 0.764013515,1.12531759 0.759164717,1.11546697 L0.745278233,1.08555572 C0.675651337,0.935153836 0.611303709,0.784723507 0.551361297,0.633791784 L0.513286727,0.528895158 C0.469770694,0.405973406 0.432065,0.282241456 0.427945307,0.169123802 C0.423927362,0.0628940599 0.485939258,-0.00350457095 0.571756911,0.000142994575 L0.593682842,0.0025316673 Z M0.919709701,0.179289865 C0.922623966,0.178955728 0.925652858,0.180063496 0.928754931,0.181918491 L0.996181952,0.233948164 C1.02844869,0.259607421 1.06019475,0.287696686 1.08723913,0.324808206 C1.12514788,0.380012148 1.16041631,0.440513195 1.17452719,0.501128219 C1.19479298,0.575676764 1.18687201,0.640766704 1.17452719,0.698629649 C1.15688423,0.770975023 1.12338184,0.829926366 1.08987945,0.88784597 C1.0793881,0.905289186 1.06431552,0.918343535 1.05461102,0.937167717 C1.04168334,0.961648794 1.02600459,0.98335093 1.00967305,1.00399229 L0.984948432,1.03437353 C0.946165397,1.08660881 0.902958507,1.13259151 0.860625897,1.18004069 L0.853836955,1.18629069 C0.848877524,1.19066868 0.843006252,1.19329664 0.835953731,1.18113847 C0.828959496,1.09930581 0.823608905,1.01933672 0.820951096,0.939926307 C0.816107588,0.88768722 0.815010354,0.837233516 0.815010354,0.787258676 L0.815705419,0.637464227 C0.821877832,0.574332545 0.822699655,0.508287323 0.829816289,0.446621737 L0.849756418,0.340122292 C0.856700382,0.304866073 0.864638839,0.270393824 0.875663503,0.238326667 L0.883883828,0.225920097 L0.897751998,0.196992487 C0.900355253,0.192550548 0.903297028,0.188577106 0.906866186,0.185490407 L0.919709701,0.179289865 Z M0.2378274,0.0315709262 C0.242262689,0.0317788383 0.245487265,0.0358509625 0.248308268,0.0410121338 L0.256367708,0.0569876242 L0.256367708,0.0569876242 C0.392439272,0.346729433 0.512400227,0.641127249 0.614820969,0.936595951 L0.657637514,1.06328051 C0.666508092,1.09069348 0.677792108,1.11951565 0.679406393,1.14553841 L0.660149217,1.12645188 L0.660149217,1.12645188 L0.623801452,1.08372301 L0.623801452,1.08372301 C0.520439019,0.960043783 0.419831757,0.831687314 0.322377598,0.699161289 L0.268075274,0.620534247 C0.250242214,0.594084031 0.23291262,0.56721051 0.21679374,0.539367376 C0.152318221,0.44725395 0.107997295,0.32950533 0.113639302,0.237465874 C0.119393191,0.142013381 0.166354992,0.0850159452 0.219756258,0.0444625754 L0.2378274,0.0315709262 Z M1.33713981,0.681182017 L1.35002212,0.688805918 L1.38603482,0.76387296 C1.4040652,0.80152923 1.42128084,0.839466808 1.43385308,0.878123017 C1.4563412,0.938643311 1.4676412,0.999286861 1.4708378,1.05511563 C1.46842437,1.1134135 1.45229749,1.16554445 1.41926058,1.19222999 C1.39750769,1.20247495 1.38058166,1.2204104 1.35801363,1.22726881 C1.23791719,1.26989575 1.10252499,1.27840306 0.966317661,1.28256851 L0.936197651,1.28473785 C0.926020461,1.28497695 0.915539593,1.28383263 0.904255578,1.2786067 C0.90627743,1.26294198 0.911519862,1.25086936 0.917665335,1.23969181 L0.936493337,1.20614727 C1.02818563,1.03871049 1.13578115,0.890603637 1.25807178,0.76348968 C1.2747261,0.744444485 1.29317051,0.727316348 1.31102295,0.709263278 L1.33713981,0.681182017 Z M0.00559405847,0.399932682 L0.00926815616,0.388395923 C0.010580762,0.384584847 0.0126026146,0.381907608 0.0170379038,0.383567596 L0.03246389,0.399001935 L0.0613588299,0.43581995 C0.253986238,0.675060575 0.445798511,0.916722946 0.630354492,1.16756088 C0.636747701,1.1751657 0.640024221,1.18484282 0.642437658,1.19494536 C0.520742912,1.12483566 0.399048165,1.05281533 0.27815257,0.980312641 C0.204822455,0.937889469 0.134704928,0.855926061 0.0831596749,0.764720403 C0.0387588337,0.680647041 0.00482687331,0.587331421 0.000799151207,0.504988063 L0.000199787799,0.450679657 C0.000399575602,0.432735312 0.00159830242,0.415384538 0.00559405847,0.399932682 Z M1.41780613,1.30801782 L1.53624034,1.2991994 C1.5483235,1.29745476 1.56040667,1.29571013 1.57491926,1.307757 L1.58163568,1.38954847 C1.58268168,1.40312846 1.58349681,1.41655036 1.58378983,1.42961593 L1.5793197,1.48409942 C1.57703349,1.51133871 1.57363102,1.53749998 1.56443439,1.55774874 C1.55155207,1.58763977 1.53865377,1.61861409 1.51608574,1.63309952 C1.49190343,1.64760678 1.47176482,1.67148531 1.44112536,1.67056517 C1.4072893,1.68294934 1.36376752,1.66447879 1.32186003,1.63939975 C1.1945073,1.5541733 1.06637139,1.46732188 0.939034638,1.379918 C0.942231243,1.37333165 0.945427848,1.36768625 0.951932939,1.36767516 C1.10343922,1.33707601 1.26008053,1.32055909 1.41780613,1.30801782 Z M0.23351376,1.02734056 L0.278040689,1.05710577 L0.329552228,1.0891119 L0.432863,1.16030699 C0.450063981,1.17166465 0.467239738,1.18233278 0.484365549,1.19165825 C0.533529331,1.22446336 0.582693114,1.25606956 0.631041762,1.29640831 C0.625888835,1.30481895 0.619055772,1.30942529 0.611525594,1.31234298 L0.576251955,1.32121445 C0.524495035,1.33756245 0.469768918,1.34552069 0.412633736,1.34500771 C0.356229644,1.34542038 0.285296982,1.27963838 0.236948334,1.188138 C0.197454281,1.12041472 0.170043395,1.04386722 0.144246793,0.96847258 C0.173794078,0.984148139 0.203724954,1.00630744 0.23351376,1.02734056 Z M0.951005923,1.4295859 C0.999370555,1.45438738 1.04850237,1.48537477 1.09768214,1.51734586 L1.14750172,1.55077539 L1.24774625,1.61181662 C1.26442004,1.62230442 1.28104339,1.63326957 1.29756584,1.64519242 C1.3443002,1.67766512 1.39105055,1.70051773 1.43780089,1.73492962 C1.42167402,1.76583351 1.39669255,1.78574617 1.36929765,1.80035196 C1.32739016,1.82765341 1.26291464,1.8155379 1.20408113,1.76530081 C1.17312521,1.73541381 1.14449961,1.69997265 1.11662662,1.66366039 L1.06141665,1.59126199 L0.988086539,1.49006796 C0.977801463,1.47538332 0.967075855,1.46086785 0.958613593,1.44540538 L0.951005923,1.4295859 Z" id="形状"></path>
                                            <path d="M0,1.19905991 C0.0292622824,1.21146054 0.0573153795,1.2224329 0.0865776618,1.2329229 L0.0858611076,1.31456746 L0.0877868471,1.35670766 L0.0877868471,1.35670766 C0.152429889,1.38390202 0.218378851,1.40969653 0.284134343,1.43350475 L0.286070831,1.39355026 L0.285343528,1.31169762 C0.314605811,1.32411735 0.342658908,1.33508971 0.37192119,1.34556061 C0.370712005,1.44530637 0.370712005,1.54550598 0.37192119,1.64615942 L0.285343528,1.61229644 L0.286060083,1.53043959 L0.284134343,1.48851168 L0.284134343,1.48851168 C0.219491301,1.46131732 0.153542339,1.43552281 0.0877868471,1.41171459 C0.0853684766,1.45219107 0.0865776618,1.49313108 0.0865776618,1.53455346 L0,1.50069047 L0.000906888916,1.34986688 L0,1.19905991 Z M0.291754124,1.3717233 C0.321602545,1.38412393 0.35021756,1.39509629 0.38006598,1.40558629 L0.381299386,1.60067562 L0.381299386,1.60067562 C0.381299386,1.62849434 0.406059623,1.66653872 0.441417561,1.68679951 L0.457178512,1.69431225 C0.500717738,1.71673915 0.562906059,1.731032 0.572871978,1.69532255 L0.574847254,1.62450225 L0.574105384,1.47989474 C0.603953804,1.49229536 0.632568819,1.50326772 0.66241724,1.51375772 L0.663675314,1.70788209 L0.663675314,1.70788209 L0.66145992,1.73836045 C0.659042642,1.75320722 0.6532259,1.76612731 0.637551779,1.77109938 C0.590287668,1.78860924 0.520624907,1.7667311 0.458436586,1.73998097 L0.410881194,1.71785837 C0.387029296,1.70587536 0.363898497,1.69180824 0.3452346,1.67250003 C0.311870329,1.64143859 0.29267987,1.60399341 0.294220936,1.57296014 L0.291754124,1.3717233 Z M0.696158174,1.59117058 L0.776833554,1.62789962 C0.786266112,1.66494211 0.808268488,1.70193717 0.819778702,1.73897024 L0.839015199,1.78143327 L0.871200687,1.86603317 C0.877011631,1.88010605 0.883427692,1.89416843 0.891021525,1.90822486 C0.903591343,1.9370661 0.915122334,1.96543438 0.922456459,1.99479612 L0.872161795,1.97245894 L0.847016772,1.95947631 L0.847016772,1.95947631 C0.830250088,1.93160941 0.826074,1.90273013 0.811405749,1.87486327 C0.759842229,1.84641326 0.707836694,1.82305714 0.656350286,1.80522656 L0.633374489,1.84094692 C0.62933845,1.84678308 0.624915352,1.8522654 0.619679659,1.85695106 C0.596638454,1.84837173 0.573576473,1.836917 0.550535269,1.82642704 C0.552612925,1.79846516 0.56834078,1.78155169 0.584068636,1.76557442 C0.599775715,1.73611777 0.619679659,1.71050157 0.63434791,1.68057198 C0.644951746,1.67202997 0.652759512,1.66099788 0.659702819,1.64916617 L0.679870974,1.61296272 L0.679870974,1.61296272 L0.696158174,1.59117058 Z M0.700955472,1.85563458 C0.749759691,1.89807358 0.800666676,1.9278312 0.849470895,1.9424491 L0.802593457,1.78337182 C0.794266458,1.75702941 0.78512296,1.7306586 0.774323782,1.70408893 C0.748953977,1.73352035 0.734344469,1.7760978 0.718082369,1.81647456 L0.700955472,1.85563458 Z M0.807542298,1.67697258 L0.870403532,1.71417457 C0.87519844,1.74592002 0.880872413,1.77816661 0.890542143,1.81086731 C0.90585388,1.86714054 0.911495887,1.92057616 0.92842191,1.97684943 L0.935678203,1.97823964 L0.943388264,1.93661644 L0.965820938,1.85967676 C0.969174626,1.84658995 0.971947681,1.83304996 0.97355797,1.81857464 C0.976190024,1.80571535 0.979694189,1.79361965 0.984042834,1.7823829 L1.05256206,1.82293335 L1.08462045,1.96023591 L1.10375095,2.05430014 C1.10664478,2.06736736 1.11071469,2.08029971 1.11945102,2.09183235 L1.13131516,2.04166297 L1.13131516,2.04166297 L1.16138473,1.94688259 C1.16634521,1.93104666 1.17102823,1.91497219 1.17505596,1.89833078 L1.19487431,1.90718791 L1.23631889,1.93168272 C1.20729372,2.01471764 1.17748538,2.09629555 1.15001056,2.1812033 L1.1048745,2.15534043 C1.09735182,2.15088843 1.08982914,2.14622413 1.08230647,2.14113525 C1.07868631,2.13658541 1.07687623,2.13142067 1.07566752,2.1262488 L1.03993073,1.96351029 C1.03414074,1.93888849 1.02778304,1.91425129 1.02026037,1.88956575 L1.01384111,1.90364598 L1.00574778,1.93588844 L0.969482299,2.07340932 L0.969482299,2.07340932 C0.946115118,2.06053567 0.923547088,2.04717966 0.900163923,2.03238592 L0.888189392,1.99519018 L0.870587587,1.92166047 C0.867377746,1.90940287 0.863702649,1.89711114 0.859071568,1.88473608 C0.842145545,1.82366714 0.832475816,1.76200135 0.810706937,1.70100871 L0.808230935,1.68864265 L0.807542298,1.67697258 Z M1.29794436,1.9950978 C1.32133656,1.97914437 1.35986045,1.97846424 1.40090455,1.99328006 L1.6202453,2.07055013 L1.6202453,2.12450622 C1.55738707,2.10111412 1.49452884,2.07776024 1.43167061,2.05725319 C1.38485847,2.04437943 1.35544506,2.06570139 1.35276629,2.09751328 L1.44143284,2.13108121 L1.6202453,2.19386195 L1.6202453,2.24781803 C1.53330467,2.21585633 1.44503793,2.18342168 1.35812383,2.15433538 C1.34751484,2.18138932 1.37138506,2.22265049 1.41562452,2.24614692 C1.48384029,2.27913044 1.55202953,2.29670485 1.6202453,2.32393738 L1.6202453,2.37114895 C1.54669852,2.34491933 1.47437177,2.32008013 1.40090455,2.29292356 C1.3293618,2.26147111 1.27085076,2.20272993 1.25503102,2.14647628 C1.24342745,2.09260201 1.24400763,2.03716313 1.28011868,2.00657211 L1.29794436,1.9950978 Z M1.58390317,2.10734572 C1.619284,2.11511254 1.65567905,2.12820307 1.69124369,2.14595385 L1.69426776,2.21082008 L1.69447296,2.4369723 C1.69398155,2.45311394 1.69267256,2.46887232 1.68972733,2.48390415 L1.58387401,2.44473474 L1.58499305,2.27595579 L1.58390317,2.10734572 Z" id="形状"></path>
                                        </g>
                                        <g id="编组-65" transform="translate(5.189336, 3.841557) rotate(-8.000000) translate(-5.189336, -3.841557) translate(3.329730, 1.963174)" fill="#22FFFF">
                                            <path d="M0.222598752,0.821087585 C0.345536647,0.927507556 0.445197503,0.840116729 0.445197503,0.625894708 C0.445197503,0.411672688 0.345536647,0.151740996 0.222598752,0.0453210251 C0.0996608557,-0.0610989462 0,0.0262918813 0,0.240513901 C0,0.454735922 0.0996608557,0.714667613 0.222598752,0.821087585 Z" id="椭圆形"></path>
                                            <path d="M1.31393688,1.7845396 C1.43687478,1.89095957 1.53653564,1.80356875 1.53653564,1.58934673 C1.53653564,1.37512471 1.43687478,1.11519301 1.31393688,1.00877304 C1.19099899,0.902353071 1.09133813,0.989743899 1.09133813,1.20396592 C1.09133813,1.41818794 1.19099899,1.67811963 1.31393688,1.7845396 Z" id="椭圆形备份-62"></path>
                                            <path d="M2.40527502,2.74799162 C2.52821291,2.85441159 2.62787377,2.76702076 2.62787377,2.55279874 C2.62787377,2.33857672 2.52821291,2.07864503 2.40527502,1.97222506 C2.28233712,1.86580509 2.18267627,1.95319592 2.18267627,2.16741794 C2.18267627,2.38163996 2.28233712,2.64157165 2.40527502,2.74799162 Z" id="椭圆形备份-63"></path>
                                            <path d="M3.49661315,3.71144364 C3.61955105,3.81786361 3.7192119,3.73047278 3.7192119,3.51625076 C3.7192119,3.30202874 3.61955105,3.04209705 3.49661315,2.93567708 C3.37367526,2.82925711 3.2740144,2.91664793 3.2740144,3.13086995 C3.2740144,3.34509197 3.37367526,3.60502367 3.49661315,3.71144364 Z" id="椭圆形备份-64"></path>
                                        </g>
                                    </g>
                                    <g id="LOGO3" transform="translate(3.333064, 13.921939)" fill-rule="nonzero">
                                        <g id="形状">
                                            <use fill="#C71F1E" xlink:href="#path-6"></use>
                                            <use fill="url(#linearGradient-5)" xlink:href="#path-6"></use>
                                        </g>
                                    </g>
                                    <g id="1" transform="translate(1.762888, 10.577959)" fill-rule="nonzero">
                                        <g id="组_1" transform="translate(45.163481, 26.000000)">
                                            <ellipse id="椭圆_8-10" fill="url(#linearGradient-7)" cx="0.535270883" cy="0.647207207" rx="1" ry="1"></ellipse>
                                            <ellipse id="椭圆_7-10" fill="url(#linearGradient-8)" cx="0.535270883" cy="0.647207207" rx="1" ry="1"></ellipse>
                                        </g>
                                        <g id="组_2" transform="translate(23.327935, 13.422041)">
                                            <ellipse id="椭圆_8-10" fill="url(#linearGradient-7)" cx="0.535270883" cy="0.647207207" rx="1" ry="1"></ellipse>
                                            <ellipse id="椭圆_7-10" fill="url(#linearGradient-8)" cx="0.535270883" cy="0.647207207" rx="1" ry="1"></ellipse>
                                        </g>
                                        <g id="组_3" transform="translate(0.000000, 0.000000)">
                                            <ellipse id="椭圆_8-10" fill="url(#linearGradient-7)" cx="0.535270883" cy="0.647207207" rx="1" ry="1"></ellipse>
                                            <ellipse id="椭圆_7-10" fill="url(#linearGradient-8)" cx="0.535270883" cy="0.647207207" rx="1" ry="1"></ellipse>
                                        </g>
                                    </g>
                                    <g id="1备份" transform="translate(1.762888, 47.577959)" fill-rule="nonzero">
                                        <g id="组_1" transform="translate(45.163481, 26.000000)">
                                            <ellipse id="椭圆_8-10" fill="url(#linearGradient-7)" cx="0.535270883" cy="0.647207207" rx="1" ry="1"></ellipse>
                                            <ellipse id="椭圆_7-10" fill="url(#linearGradient-8)" cx="0.535270883" cy="0.647207207" rx="1" ry="1"></ellipse>
                                        </g>
                                        <g id="组_2" transform="translate(23.327935, 13.422041)">
                                            <ellipse id="椭圆_8-10" fill="url(#linearGradient-7)" cx="0.535270883" cy="0.647207207" rx="1" ry="1"></ellipse>
                                            <ellipse id="椭圆_7-10" fill="url(#linearGradient-8)" cx="0.535270883" cy="0.647207207" rx="1" ry="1"></ellipse>
                                        </g>
                                        <g id="组_3" transform="translate(0.000000, 0.000000)">
                                            <ellipse id="椭圆_8-10" fill="url(#linearGradient-7)" cx="0.535270883" cy="0.647207207" rx="1" ry="1"></ellipse>
                                            <ellipse id="椭圆_7-10" fill="url(#linearGradient-8)" cx="0.535270883" cy="0.647207207" rx="1" ry="1"></ellipse>
                                        </g>
                                    </g>
                                </g>
                                <path d="M49.3938724,36.2018149 L48.7477051,35.8088145 L48.7477051,35.8088145 L2.97589772,9.16038513 C2.61649333,8.96583557 2.25681839,8.88352966 1.8968729,8.91346741 C1.53692741,8.94340515 1.2628947,9.01745097 1.07477479,9.13560486 L10.8098121,2.61050726 C12.3992566,1.54515122 14.4573259,1.48033657 16.1106566,2.44356809 L61.6202548,28.9574887 L61.6202548,28.9574887 L61.8821757,29.1093021 C63.1164672,29.8247166 63.8762991,31.143367 63.8762991,32.5700042 L63.8762991,32.8369788 L63.8762991,32.8369788 L63.9235119,68.8787088 C63.8920367,69.3060255 63.7782797,69.6529694 63.5822408,69.9195404 C63.3862019,70.1861115 63.1515523,70.397995 62.8782919,70.555191 L50.2332003,77.5738983 C50.586867,77.3417104 50.8287245,77.1316172 50.9587729,76.9436188 C51.1538454,76.6616211 51.3153153,76.1586914 51.3153153,75.9619038 C51.3153153,64.0680446 51.3153153,52.0430331 51.3153153,39.8868692 L51.3153153,39.6193579 C51.3153153,38.2228715 50.5870105,36.9274841 49.3938724,36.2018149 Z" id="矩形备份-74" fill="url(#linearGradient-9)" fill-rule="nonzero"></path>
                            </g>
                        </g>
                    </g>
                </g>
            </g>
        </g>
    </g>
</svg>