<?xml version="1.0" encoding="UTF-8"?>
<svg width="101px" height="80px" viewBox="0 0 101 80" version="1.1" xmlns="http://www.w3.org/2000/svg" xmlns:xlink="http://www.w3.org/1999/xlink">
    <title>光伏@2x</title>
    <defs>
        <linearGradient x1="74.1912994%" y1="13.3125477%" x2="25.8979096%" y2="89.6704124%" id="linearGradient-1">
            <stop stop-color="#C5C5C5" offset="0%"></stop>
            <stop stop-color="#666666" offset="100%"></stop>
        </linearGradient>
        <linearGradient x1="28.1371222%" y1="88.3466961%" x2="73.9699097%" y2="14.641145%" id="linearGradient-2">
            <stop stop-color="#B6B6B6" offset="0%"></stop>
            <stop stop-color="#FBFBFB" offset="100%"></stop>
        </linearGradient>
        <linearGradient x1="74.1912994%" y1="13.30122%" x2="25.8979096%" y2="89.6826611%" id="linearGradient-3">
            <stop stop-color="#C5C5C5" offset="0%"></stop>
            <stop stop-color="#666666" offset="100%"></stop>
        </linearGradient>
        <linearGradient x1="28.1371222%" y1="88.340244%" x2="73.9699097%" y2="14.6470944%" id="linearGradient-4">
            <stop stop-color="#B6B6B6" offset="0%"></stop>
            <stop stop-color="#FBFBFB" offset="100%"></stop>
        </linearGradient>
        <linearGradient x1="28.1371222%" y1="88.3381138%" x2="73.9699097%" y2="14.6490587%" id="linearGradient-5">
            <stop stop-color="#B6B6B6" offset="0%"></stop>
            <stop stop-color="#FBFBFB" offset="100%"></stop>
        </linearGradient>
        <linearGradient x1="28.1371222%" y1="88.3416811%" x2="73.9699097%" y2="14.6457693%" id="linearGradient-6">
            <stop stop-color="#B6B6B6" offset="0%"></stop>
            <stop stop-color="#FBFBFB" offset="100%"></stop>
        </linearGradient>
        <linearGradient x1="28.1371222%" y1="88.3325612%" x2="73.9699097%" y2="14.6541786%" id="linearGradient-7">
            <stop stop-color="#B6B6B6" offset="0%"></stop>
            <stop stop-color="#FBFBFB" offset="100%"></stop>
        </linearGradient>
        <linearGradient x1="74.1912994%" y1="13.3068845%" x2="25.8979096%" y2="89.676536%" id="linearGradient-8">
            <stop stop-color="#C5C5C5" offset="0%"></stop>
            <stop stop-color="#666666" offset="100%"></stop>
        </linearGradient>
        <linearGradient x1="28.1371222%" y1="88.3321942%" x2="73.9699097%" y2="14.654517%" id="linearGradient-9">
            <stop stop-color="#B6B6B6" offset="0%"></stop>
            <stop stop-color="#FBFBFB" offset="100%"></stop>
        </linearGradient>
    </defs>
    <g id="光储充及工商储管理系统V1.3" stroke="none" stroke-width="1" fill="none" fill-rule="evenodd">
        <g id="3_1_1.站点概览" transform="translate(-316.000000, -514.000000)">
            <g id="main" transform="translate(212.000000, 102.000000)">
                <g id="2" transform="translate(20.000000, 182.000000)">
                    <g id="能流图4" transform="translate(68.000000, 32.000000)">
                        <g id="编组" transform="translate(16.000000, 198.000000)">
                            <polygon id="Fill-306" fill="#0C1218" opacity="0.300000012" points="37.1411356 49.3021859 15.6616039 61.7037081 5.30684602 55.7274798 26.7863777 43.3311794"></polygon>
                            <path d="M25.8667959,52.305704 L16.2376803,52.305704 L16.2376803,52.8722578 C16.2376803,53.585019 16.7075205,54.2951693 17.6445909,54.8408363 C19.5291725,55.9243377 22.5779139,55.9243377 24.4598853,54.8408363 C25.3995658,54.2951693 25.8667959,53.585019 25.8667959,52.8722578 L25.8667959,52.305704 Z" id="Fill-308" fill="#939598"></path>
                            <path d="M24.4596242,54.2714106 C22.5776529,55.3575228 19.5289115,55.3575228 17.6443299,54.2714106 C15.767579,53.1879092 15.767579,51.4229768 17.6443299,50.3368645 C19.5289115,49.2507523 22.5776529,49.2507523 24.4596242,50.3368645 C26.3389854,51.4229768 26.3389854,53.1879092 24.4596242,54.2714106" id="Fill-310" fill="#E6E7E8"></path>
                            <path d="M24.4139453,51.0613745 L17.6952292,51.0613745 L17.6952292,52.0273878 C17.6952292,52.5260595 18.0241174,53.0247312 18.6792836,53.4006932 C19.989616,54.1578387 22.1143381,54.1578387 23.4272807,53.4006932 C24.0824469,53.0247312 24.4139453,52.5260595 24.4139453,52.0273878 L24.4139453,51.0613745 Z" id="Fill-312" fill="#939598"></path>
                            <path d="M23.4272807,52.4331134 C22.1143381,53.1928698 19.989616,53.1928698 18.6792836,52.4331134 C17.3689513,51.6785787 17.3689513,50.4488698 18.6792836,49.6891134 C19.989616,48.929357 22.1143381,48.929357 23.4272807,49.6891134 C24.7376131,50.4488698 24.7376131,51.673357 23.4272807,52.4331134" id="Fill-314" fill="#E6E7E8"></path>
                            <path d="M23.0399235,47.7393331 L19.0697731,47.7393331 L19.0697731,50.8984576 C19.0697731,51.1882616 19.2629297,51.4832873 19.6466326,51.7025984 C20.4244792,52.1516641 21.6826071,52.1516641 22.4604538,51.7025984 C22.8467669,51.4832873 23.0399235,51.1882616 23.0399235,50.8984576 L23.0399235,47.7393331 Z" id="Fill-316" fill="#BCBEC0"></path>
                            <path d="M22.4612369,48.5526118 C21.6833902,48.9964558 20.4252623,48.9964558 19.6474156,48.5526118 C18.8721791,48.1035462 18.8721791,47.3777308 19.6474156,46.9260543 C20.4252623,46.4822103 21.6833902,46.4822103 22.4612369,46.9260543 C23.2312529,47.3777308 23.2312529,48.1035462 22.4612369,48.5526118" id="Fill-318" fill="#E6E7E8"></path>
                            <path d="M21.9081305,39.0475631 L20.2062645,39.0475631 L20.2062645,47.6555249 C20.2062645,47.7834564 20.2845713,47.9061662 20.4516256,48.0027675 C20.783124,48.1959702 21.3208301,48.1959702 21.6549388,48.0027675 C21.8219931,47.9061662 21.9081305,47.7834564 21.9081305,47.6555249 L21.9081305,39.0475631 Z" id="Fill-320" fill="#939598"></path>
                            <path d="M21.6557218,39.3942836 C21.3216132,39.5874862 20.7839071,39.5874862 20.4524086,39.3942836 C20.1183,39.2036917 20.1183,38.8956118 20.4524086,38.6997983 C20.7839071,38.5065957 21.3216132,38.5065957 21.6557218,38.6997983 C21.9924407,38.8956118 21.9924407,39.2036917 21.6557218,39.3942836" id="Fill-322" fill="#808285"></path>
                            <polygon id="Fill-324" fill="#C6C7C9" points="10.3354422 50.7452009 7.85572957 47.1135131 2.41863338 37.6021983 0.583646043 33.8556332 27.0513154 18.5717363 36.8031116 35.461304"></polygon>
                            <polygon id="Fill-326" fill="url(#linearGradient-1)" points="10.6311805 49.53664 1.77730139 34.2005261 26.7519228 19.7834303 35.6005815 35.122155"></polygon>
                            <path d="M13.3847056,38.1959049 C14.0972967,37.7833911 15.0160955,38.0288107 15.4259007,38.7415719 L15.4259007,38.7415719 L18.1561948,43.4645937 C18.5659999,44.1773548 18.3180286,45.0963729 17.6080478,45.5088867 L17.6080478,45.5088867 L11.9282008,48.7881102 C11.2156097,49.200624 10.2968109,48.9525935 9.88700574,48.2424432 L9.88700574,48.2424432 L7.15932186,43.5194214 C6.75212694,42.8066603 6.99487776,41.8850314 7.70485863,41.4751284 L7.70485863,41.4751284 Z M24.0584738,33.5904831 L24.1359565,33.7109923 L26.8662506,38.436625 C27.2519495,39.107459 27.0572937,39.9609981 26.4389666,40.4030087 L26.3181036,40.480918 L20.351132,43.9272357 C19.680458,44.3105694 18.8294347,44.1157226 18.3878016,43.4972394 L18.3099369,43.376347 L15.5822531,38.6559361 C15.1940974,37.9826448 15.3886088,37.1312738 16.0091036,36.6895269 L16.1304001,36.6116431 L22.0921512,33.1627145 C22.7628252,32.7744662 23.6184728,32.9736494 24.0584738,33.5904831 Z M10.7194731,30.6038145 L10.7969298,30.7247058 L13.8430609,35.9986163 C14.2312166,36.6694503 14.0343931,37.5229894 13.4158024,37.965 L13.2949139,38.0429093 L7.61506694,41.3221328 C6.94684964,41.7054665 6.0936587,41.5106197 5.65393826,40.8943132 L5.57648214,40.773855 L2.53035096,35.492112 C2.14465201,34.8237352 2.33699569,33.9726534 2.95287463,33.5309234 L3.07327751,33.4530407 L8.75573474,30.1790388 C9.42640872,29.7907905 10.2797442,29.9853483 10.7194731,30.6038145 Z M32.0473508,28.9728185 L32.1248075,29.0937098 L34.8577118,33.8219533 C35.2409541,34.4952446 35.0461537,35.3466155 34.4278181,35.7883625 L34.3069546,35.8662463 L29.0604047,38.9000503 C28.3504238,39.3073424 27.7657337,39.6441416 27.7657337,39.6441416 C27.7657337,39.6441416 27.6160809,39.3842173 27.395662,38.9997459 L27.2555498,38.7552005 L27.1415979,38.5560843 L27.1415979,38.5560843 L27.0218199,38.3465507 L24.2889156,33.6209181 C23.9056733,32.9549986 24.1004737,32.0971231 24.7166331,31.6589388 L24.8370626,31.5818468 L30.0836124,28.5480428 C30.7542864,28.1597946 31.6076219,28.3543523 32.0473508,28.9728185 Z M19.4280763,25.5712603 L19.5059415,25.6925597 L22.5520727,30.969081 C22.942685,31.6374578 22.746006,32.4908524 22.1252477,32.9328544 L22.0039257,33.0107632 L16.0395643,36.4570809 C15.3688903,36.8428719 14.5155548,36.6481696 14.0758259,36.0296949 L13.9983693,35.9088031 L10.9522381,30.6322818 C10.5616258,29.9614478 10.7606169,29.1079087 11.3772949,28.6658981 L11.4977748,28.5879888 L17.4621362,25.1468928 C18.1352669,24.7586445 18.9864347,24.9508895 19.4280763,25.5712603 Z M27.4209646,20.9564741 L27.4984468,21.0773659 L30.5419677,26.3538872 C30.9276667,27.022264 30.7330108,27.8756586 30.1146837,28.3176606 L29.9938207,28.3955694 L24.7472709,31.4241516 C24.0765969,31.8123999 23.2255736,31.6178421 22.7839406,30.999376 L22.7060759,30.8784847 L19.6599447,25.6045742 C19.2742457,24.9337402 19.4712138,24.0802011 20.0876367,23.6381905 L20.2080917,23.5602812 L25.4572518,20.5290881 C26.1254691,20.1432971 26.9809722,20.3379994 27.4209646,20.9564741 Z" id="形状结合" fill="url(#linearGradient-2)"></path>
                            <polygon id="Fill-340" fill="#E6E7E8" points="9.74918592 51.0817391 0 34.1947822 0.582079909 33.8553721 10.3364863 50.7449399"></polygon>
                            <polygon id="Fill-342" fill="#0C1218" opacity="0.300000012" points="69.3152763 30.7304497 47.8357446 43.1319718 37.4783765 37.1557435 58.9579082 24.7594431"></polygon>
                            <path d="M58.0432858,33.7339678 L48.4115599,33.7339678 L48.4115599,34.2979107 C48.4115599,35.008061 48.8814002,35.723433 49.823691,36.2664891 C51.7056624,37.3526014 54.7517936,37.3526014 56.6311547,36.2664891 C57.5734455,35.723433 58.0432858,35.008061 58.0432858,34.2979107 L58.0432858,33.7339678 Z" id="Fill-344" fill="#939598"></path>
                            <path d="M56.6311547,35.6973245 C54.7517936,36.7834368 51.7056624,36.7834368 49.823691,35.6973245 C47.9443299,34.6138231 47.9443299,32.8515016 49.823691,31.7653893 C51.7056624,30.6792771 54.7517936,30.6792771 56.6311547,31.7653893 C58.5157363,32.8515016 58.5157363,34.6138231 56.6311547,35.6973245" id="Fill-346" fill="#E6E7E8"></path>
                            <path d="M56.5852148,32.4872884 L49.8691089,32.4872884 L49.8691089,33.4559126 C49.8691089,33.9519735 50.1979971,34.4506452 50.8531633,34.829218 C52.1661059,35.5837527 54.290828,35.5837527 55.6037706,34.829218 C56.2589368,34.4506452 56.5852148,33.9519735 56.5852148,33.4559126 L56.5852148,32.4872884 Z" id="Fill-348" fill="#939598"></path>
                            <path d="M55.6040316,33.8564165 C54.2910891,34.6213946 52.1663669,34.6213946 50.8534243,33.8564165 C49.543092,33.1018818 49.543092,31.8721729 50.8534243,31.1176382 C52.1663669,30.3578818 54.2910891,30.3578818 55.6040316,31.1176382 C56.914364,31.8721729 56.914364,33.1018818 55.6040316,33.8564165" id="Fill-350" fill="#E6E7E8"></path>
                            <path d="M55.211454,29.1675968 L51.2413036,29.1675968 L51.2413036,32.3267214 C51.2413036,32.6165254 51.4396806,32.911551 51.8207732,33.1308622 C52.5986199,33.5799278 53.8515274,33.5799278 54.6319843,33.1308622 C55.0209076,32.911551 55.211454,32.6165254 55.211454,32.3267214 L55.211454,29.1675968 Z" id="Fill-352" fill="#BCBEC0"></path>
                            <path d="M54.6327674,29.9808755 C53.8523104,30.4247195 52.599403,30.4247195 51.8215563,29.9808755 C51.0463198,29.5291991 51.0463198,28.8033837 51.8215563,28.354318 C52.599403,27.9104741 53.8523104,27.9104741 54.6327674,28.354318 C55.4080038,28.8033837 55.4080038,29.5291991 54.6327674,29.9808755" id="Fill-354" fill="#E6E7E8"></path>
                            <path d="M54.0770507,20.4758268 L52.3751848,20.4758268 L52.3751848,29.0837886 C52.3751848,29.2064984 52.4587119,29.3344299 52.623156,29.4310312 C52.9546545,29.6242339 53.497581,29.6242339 53.8264692,29.4310312 C53.9961338,29.3344299 54.0770507,29.2064984 54.0770507,29.0837886 L54.0770507,20.4758268 Z" id="Fill-356" fill="#939598"></path>
                            <path d="M53.8272523,20.8225473 C53.4983641,21.0157499 52.9554375,21.0157499 52.6239391,20.8225473 C52.2898305,20.6319555 52.2898305,20.3238755 52.6239391,20.128062 C52.9554375,19.9348594 53.4983641,19.9348594 53.8272523,20.128062 C54.1639712,20.3238755 54.1639712,20.6319555 53.8272523,20.8225473" id="Fill-358" fill="#808285"></path>
                            <polygon id="Fill-360" fill="#C6C7C9" points="42.5069727 32.1734647 40.02726 28.5365551 34.5927741 19.0304621 32.760397 15.2838969 59.2228459 0 68.9746421 16.8869569"></polygon>
                            <polygon id="Fill-362" fill="url(#linearGradient-3)" points="42.8076704 30.9651648 33.9537913 15.62644 58.9258024 1.21195507 67.7718509 16.5454581"></polygon>
                            <path d="M45.5588463,19.6241686 C46.2688272,19.2116548 47.187626,19.4570744 47.6000414,20.1698356 L47.6000414,20.1698356 L50.3277252,24.8954682 C50.7401406,25.6056185 50.4921693,26.5246366 49.7795782,26.9371504 L49.7795782,26.9371504 L44.1023414,30.2163739 C43.3923606,30.623666 42.4683413,30.3782464 42.0585362,29.6680961 L42.0585362,29.6680961 L39.3360728,24.9424635 C38.9210472,24.234924 39.1690185,23.3132951 39.8816096,22.9033921 L39.8816096,22.9033921 Z M56.2300308,15.0164231 L56.3074869,15.1369063 L59.0377811,19.8651498 C59.4259367,20.5359838 59.226801,21.3848975 58.6101145,21.8263639 L58.4896341,21.9042211 L52.5252727,25.3505388 C51.852142,25.7387871 51.0009742,25.5419166 50.5615088,24.9231783 L50.4840776,24.802261 L47.7537835,20.0792392 C47.3656279,19.4108624 47.5624514,18.5574679 48.1810421,18.1154658 L48.3019305,18.037557 L54.2689022,14.5912393 C54.9371195,14.202991 55.7903104,14.3998615 56.2300308,15.0164231 Z M42.8957655,12.0323382 L42.9736807,12.1532306 L46.0172016,17.4271411 C46.4029006,18.0979751 46.2082447,18.9492015 45.5899176,19.3887633 L45.4690546,19.4662124 L39.7892076,22.7506576 C39.123447,23.1339913 38.2657762,22.9391445 37.8276964,22.322838 L37.7506228,22.2023798 L34.7018814,16.9206368 C34.3161825,16.2498027 34.5108383,15.3962636 35.1291654,14.9586064 L35.2500284,14.8815655 L40.9350959,11.6023419 C41.5983998,11.2190082 42.4536139,11.4138551 42.8957655,12.0323382 Z M64.221639,10.4010822 L64.2986871,10.5219735 L67.026371,15.250217 C67.4145266,15.9210511 67.2177031,16.7745902 66.5991125,17.2166007 L66.478224,17.29451 L61.2342844,20.3230923 C60.5216933,20.7303844 59.9396134,21.0671836 59.9396134,21.0671836 C59.9396134,21.0671836 59.6462938,20.5600063 59.2718756,19.9150042 L59.1904791,19.7748145 L56.460185,15.0491818 C56.0744861,14.3783478 56.2691419,13.5248087 56.8874691,13.0827981 L57.008332,13.0048888 L62.2601023,9.97630657 C62.9283196,9.58805829 63.7838227,9.78261607 64.221639,10.4010822 Z M51.6048017,6.99993164 L51.6826924,7.12082346 L54.7262134,12.3947339 C55.114369,13.065568 54.9198577,13.9191071 54.2993629,14.3611176 L54.1780664,14.4390269 L48.2110947,17.880123 C47.5428774,18.2708285 46.6896865,18.0764153 46.2499661,17.4579576 L46.1725099,17.3370668 L43.1237685,12.0631564 C42.7380696,11.3898651 42.9304133,10.5338687 43.5506445,10.0937542 L43.6719155,10.0162525 L49.6388872,6.57254564 C50.3095611,6.18675464 51.1628966,6.38145695 51.6048017,6.99993164 Z M59.597072,2.38473781 L59.6749367,2.50562964 L62.7158474,7.7795401 C63.1015464,8.45037414 62.9068905,9.30160052 62.2907396,9.74116232 L62.1703106,9.81861142 L56.9211506,12.8524154 C56.2529333,13.2406636 55.3974302,13.0461059 54.9596139,12.4276397 L54.8825658,12.3067484 L51.8338244,7.03022708 C51.4481254,6.36185031 51.6427813,5.50614302 52.2589322,5.06604556 L52.3793611,4.98854491 L57.6337417,1.95735182 C58.3044156,1.57156081 59.1554389,1.76626313 59.597072,2.38473781 Z" id="形状结合" fill="url(#linearGradient-4)"></path>
                            <polygon id="Fill-376" fill="#E6E7E8" points="41.9233266 32.5102639 32.1741407 15.6206962 32.7588308 15.2838969 42.5080167 32.1734647"></polygon>
                            <polygon id="Fill-378" fill="#0C1218" opacity="0.300000012" points="52.8228382 58.3610409 31.3433065 70.7573414 20.9859384 64.7811131 42.4654701 52.3874236"></polygon>
                            <path d="M41.5484985,61.3595985 L31.9193829,61.3595985 L31.9193829,61.928763 C31.9193829,62.6415242 32.3918334,63.3516745 33.3289037,63.8947307 C35.2108751,64.9782321 38.2622267,64.9782321 40.1389776,63.8947307 C41.0786582,63.3516745 41.5484985,62.6415242 41.5484985,61.928763 L41.5484985,61.3595985 Z" id="Fill-380" fill="#939598"></path>
                            <path d="M40.1389776,63.3279158 C38.2622267,64.4140281 35.2108751,64.4140281 33.3289037,63.3279158 C31.4521528,62.2418036 31.4521528,60.4820929 33.3289037,59.3959806 C35.2108751,58.3072575 38.2622267,58.3072575 40.1389776,59.3959806 C42.020949,60.4820929 42.020949,62.2418036 40.1389776,63.3279158" id="Fill-382" fill="#E6E7E8"></path>
                            <path d="M40.0904275,60.1178797 L33.379542,60.1178797 L33.379542,61.083893 C33.379542,61.5851756 33.7084302,62.0786257 34.3635964,62.4571984 C35.6713186,63.2169548 37.798651,63.2169548 39.1089833,62.4571984 C39.7641495,62.0786257 40.0904275,61.5851756 40.0904275,61.083893 L40.0904275,60.1178797 Z" id="Fill-384" fill="#939598"></path>
                            <path d="M39.1089833,61.4870078 C37.798651,62.2467642 35.6713186,62.2467642 34.3635964,61.4870078 C33.0506538,60.7298622 33.0506538,59.5027642 34.3635964,58.7456187 C35.6713186,57.9858623 37.798651,57.9858623 39.1089833,58.7456187 C40.4193157,59.5027642 40.4193157,60.7298622 39.1089833,61.4870078" id="Fill-386" fill="#E6E7E8"></path>
                            <path d="M38.7164056,56.7981881 L34.7488655,56.7981881 L34.7488655,59.9547018 C34.7488655,60.2471166 34.942022,60.5421423 35.3309454,60.7666752 C36.1061818,61.2105191 37.3643097,61.2105191 38.136936,60.7666752 C38.5284695,60.5421423 38.7164056,60.2471166 38.7164056,59.9547018 L38.7164056,56.7981881 Z" id="Fill-388" fill="#BCBEC0"></path>
                            <path d="M38.13798,57.608856 C37.3627436,58.0553108 36.1072259,58.0553108 35.3319895,57.608856 C34.5515325,57.1571795 34.5515325,56.4313641 35.3319895,55.9849093 C36.1072259,55.5358437 37.3627436,55.5358437 38.13798,55.9849093 C38.9158267,56.4313641 38.9158267,57.1571795 38.13798,57.608856" id="Fill-390" fill="#E6E7E8"></path>
                            <path d="M37.5846126,48.1038073 L35.8827467,48.1038073 L35.8827467,56.711769 C35.8827467,56.8370897 35.9662738,56.9650212 36.1333282,57.0616225 C36.4622164,57.2496035 37.0025327,57.2496035 37.3340311,57.0616225 C37.5010854,56.9650212 37.5846126,56.8370897 37.5846126,56.711769 L37.5846126,48.1038073 Z" id="Fill-392" fill="#939598"></path>
                            <path d="M37.3348142,48.4505277 C37.0033158,48.6437304 36.4629994,48.6437304 36.1341112,48.4505277 C35.7973924,48.2573251 35.7973924,47.951856 36.1341112,47.7560425 C36.4629994,47.5680615 37.0033158,47.5680615 37.3348142,47.7560425 C37.6689228,47.951856 37.6689228,48.2573251 37.3348142,48.4505277" id="Fill-394" fill="#808285"></path>
                            <polygon id="Fill-396" fill="#C6C7C9" points="26.0121854 59.804317 23.535083 56.1674075 18.0979868 46.6560927 16.2682199 42.9121385 42.7332791 27.6308524 52.482465 44.5204201"></polygon>
                            <polygon id="Fill-398" fill="url(#linearGradient-1)" points="26.3154934 58.5905344 17.459004 43.2544205 42.4336254 28.8373247 51.2822841 44.1708277"></polygon>
                            <path d="M29.0690185,47.2521491 C29.7763891,46.8396353 30.6977981,47.0850549 31.1076032,47.797816 L31.1076032,47.797816 L33.8326769,52.5208378 C34.2450923,53.233599 33.997121,54.152617 33.2871401,54.56252 L33.2871401,54.56252 L27.6099033,57.8469652 C26.8973122,58.2568682 25.9759032,58.0088377 25.5687083,57.2986874 L25.5687083,57.2986874 L22.8410244,52.5756656 C22.4286091,51.8629044 22.6765803,50.9438864 23.3891714,50.5313726 L23.3891714,50.5313726 Z M39.7397439,42.6439954 L39.8176591,42.7648867 L42.5427327,47.4931302 C42.933345,48.1639642 42.7343539,49.0175034 42.1176759,49.4595139 L41.9971959,49.5374232 L36.0302243,52.9811301 C35.362007,53.3669211 34.5088161,53.1745315 34.0669195,52.5541522 L33.9890293,52.4328523 L31.2639557,47.7072196 C30.8733433,47.0388429 31.0700223,46.1831356 31.6864283,45.7430381 L31.8068822,45.6655375 L37.7790743,42.2192197 C38.4423782,41.8309715 39.2975923,42.0255292 39.7397439,42.6439954 Z M26.3990001,39.6600576 L26.4760221,39.78095 L29.5247635,45.0548604 C29.9080058,45.7256945 29.7132054,46.5792336 29.0992221,47.0212441 L28.9792268,47.0991534 L23.2967695,50.378377 C22.6285522,50.764168 21.7753613,50.5671529 21.3356409,49.9505828 L21.2581847,49.8300991 L18.2068331,44.5535778 C17.8235908,43.8802865 18.0183912,43.0289156 18.6367268,42.5849919 L18.7575903,42.506674 L24.4400476,39.2300613 C25.1082648,38.8467276 25.9614558,39.0415744 26.3990001,39.6600576 Z M47.7290534,38.0298789 L47.8065101,38.149954 L50.5368042,42.8808083 C50.9249598,43.5491851 50.7281363,44.4025797 50.1095456,44.8445817 L49.9886572,44.9224905 L44.7394971,47.9510727 C44.0295162,48.3609757 43.4474363,48.6977749 43.4474363,48.6977749 C43.4474363,48.6977749 43.151843,48.1905976 42.7792437,47.5455955 L42.6983021,47.4054058 L39.9706182,42.6771623 C39.5849192,42.0063282 39.7772629,41.1504764 40.395318,40.7103704 L40.516155,40.6328693 L45.765315,37.604287 C46.435989,37.2160387 47.2893245,37.415222 47.7290534,38.0298789 Z M35.1100659,34.6279121 L35.1879051,34.7488039 L38.2314261,40.0201035 C38.6195817,40.6933948 38.4250703,41.5447658 37.8067517,41.9886894 L37.6858893,42.0670074 L31.7189177,45.5133251 C31.053157,45.8991161 30.1954863,45.7021011 29.7552303,45.0877077 L29.6777226,44.9676581 L26.6315915,39.688526 C26.2458925,39.0176919 26.4405484,38.1664656 27.0588755,37.7225504 L27.1797385,37.644233 L33.1467101,34.2005261 C33.8198407,33.8147351 34.6686964,34.0094374 35.1100659,34.6279121 Z M43.1044609,30.0131269 L43.1827596,30.1336101 L46.2236703,35.4075205 C46.611826,36.0783546 46.4150025,36.9318937 45.798588,37.3739043 L45.6781336,37.4518136 L40.4263633,40.4803958 C39.7630593,40.8686441 38.9055331,40.6740863 38.4652856,40.0556201 L38.3877785,39.9347288 L35.3416473,34.6608184 C34.9559483,33.9875271 35.1529164,33.1361561 35.7693393,32.6944092 L35.8897943,32.6165254 L41.1389544,29.5879431 C41.8096283,29.1996948 42.6606516,29.3965653 43.1044609,30.0131269 Z" id="形状结合" fill="url(#linearGradient-5)"></path>
                            <polygon id="Fill-412" fill="#E6E7E8" points="25.4282783 60.1356335 15.6790924 43.2486766 16.2663927 42.9118774 26.0129684 59.804056"></polygon>
                            <polygon id="Fill-414" fill="#0C1218" opacity="0.300000012" points="84.9969789 39.7893047 63.5148369 52.1829942 53.1626893 46.206766 74.642221 33.8130764"></polygon>
                            <path d="M73.7226392,42.7852513 L64.0883031,42.7852513 L64.0883031,43.3544159 C64.0883031,44.0671771 64.5633638,44.7799383 65.5004342,45.3203835 C67.3850158,46.4064958 70.4311469,46.4064958 72.3157285,45.3203835 C73.2554091,44.7799383 73.7226392,44.0671771 73.7226392,43.3544159 L73.7226392,42.7852513 Z" id="Fill-416" fill="#939598"></path>
                            <path d="M72.3154675,44.7587904 C70.4308859,45.839681 67.3847547,45.839681 65.5001732,44.7587904 C63.620812,43.6674564 63.620812,41.9077457 65.5001732,40.8216335 C67.3847547,39.7355212 70.4308859,39.7355212 72.3154675,40.8216335 C74.1948287,41.9077457 74.1948287,43.6674564 72.3154675,44.7587904" id="Fill-418" fill="#E6E7E8"></path>
                            <path d="M72.2695276,41.5461435 L65.5482013,41.5461435 L65.5482013,42.5147676 C65.5482013,43.0108285 65.8796997,43.5042785 66.5322556,43.8854622 C67.8451982,44.6426077 69.9699204,44.6426077 71.282863,43.8854622 C71.9380292,43.5042785 72.2695276,43.0108285 72.2695276,42.5147676 L72.2695276,41.5461435 Z" id="Fill-420" fill="#939598"></path>
                            <path d="M71.283124,42.9126606 C69.9701814,43.6724171 67.8454592,43.6724171 66.5325167,42.9126606 C65.2247945,42.1581259 65.2247945,40.9284171 66.5325167,40.1712715 C67.8454592,39.414126 69.9701814,39.414126 71.283124,40.1712715 C72.5934563,40.9284171 72.5934563,42.1581259 71.283124,42.9126606" id="Fill-422" fill="#E6E7E8"></path>
                            <path d="M70.8957668,38.2214912 L66.9230062,38.2214912 L66.9230062,41.3806158 C66.9230062,41.6730306 67.1187729,41.9654454 67.5024758,42.1925891 C68.2803225,42.6364331 69.5384504,42.6364331 70.3136869,42.1925891 C70.7,41.9654454 70.8957668,41.6730306 70.8957668,41.3806158 L70.8957668,38.2214912 Z" id="Fill-424" fill="#BCBEC0"></path>
                            <path d="M70.3144699,39.0373808 C69.5392335,39.4812247 68.2811056,39.4812247 67.5032589,39.0373808 C66.7280224,38.5830935 66.7280224,37.8572781 67.5032589,37.4108233 C68.2811056,36.9617576 69.5392335,36.9617576 70.3144699,37.4108233 C71.0870962,37.8572781 71.0870962,38.5830935 70.3144699,39.0373808" id="Fill-426" fill="#E6E7E8"></path>
                            <path d="M69.7639737,29.532071 L68.0594976,29.532071 L68.0594976,38.1400328 C68.0594976,38.2627426 68.1404145,38.3906741 68.3048586,38.4872754 C68.6389673,38.6752564 69.1766734,38.6752564 69.510782,38.4872754 C69.6778364,38.3906741 69.7639737,38.2627426 69.7639737,38.1400328 L69.7639737,29.532071 Z" id="Fill-428" fill="#939598"></path>
                            <path d="M69.5115651,29.8787914 C69.1774565,30.0719941 68.6397503,30.0719941 68.3056417,29.8787914 C67.9741433,29.6855888 67.9741433,29.3801197 68.3056417,29.1816954 C68.6397503,28.9911035 69.1774565,28.9911035 69.5115651,29.1816954 C69.8456737,29.3801197 69.8456737,29.6855888 69.5115651,29.8787914" id="Fill-430" fill="#808285"></path>
                            <polygon id="Fill-432" fill="#C6C7C9" points="58.1912855 41.2299699 55.7089626 37.5956712 50.2718664 28.0843565 48.4394893 24.3351805 74.9071587 9.0591161 84.6589549 25.9434621"></polygon>
                            <polygon id="Fill-434" fill="url(#linearGradient-1)" points="58.4870238 40.0164483 49.6331447 24.6829453 74.6051558 10.2632386 83.4564248 25.6019634"></polygon>
                            <path d="M61.2405489,28.6778019 C61.95314,28.267899 62.8693286,28.5133186 63.2817439,29.2260797 L63.2817439,29.2260797 L66.012038,33.9491015 C66.4218432,34.6618627 66.1738719,35.5808808 65.463891,35.9881729 L65.463891,35.9881729 L59.7814338,39.2726181 C59.0714529,39.6799102 58.1526542,39.4344906 57.7402388,38.7217294 L57.7402388,38.7217294 L55.0151651,33.9987076 C54.6079702,33.2911682 54.850721,32.3695393 55.5607019,31.9596363 L55.5607019,31.9596363 Z M71.913909,24.0722592 L71.9917998,24.1931504 L74.7220939,28.9213939 C75.1077928,29.5873134 74.913137,30.4451889 74.2948098,30.8833733 L74.1739469,30.9604653 L68.204365,34.406783 C67.533691,34.7950313 66.6849799,34.5981608 66.2436189,33.9815992 L66.1657802,33.861116 L63.4380963,29.1354834 C63.0499407,28.4671066 63.2444521,27.6113993 63.8627707,27.1713018 L63.9836331,27.0938012 L69.9479945,23.6474835 C70.6186685,23.2592352 71.4720039,23.453793 71.913909,24.0722592 Z M58.5753164,21.0885569 L58.652773,21.2094748 L61.6989042,26.4833852 C62.0846032,27.1493047 61.8876351,28.0071802 61.2712122,28.4453646 L61.1507572,28.5224565 L55.4709102,31.8016801 C54.8002362,32.1923856 53.949213,31.9956597 53.509756,31.3791066 L53.4323254,31.258624 L50.3861942,25.976881 C49.9980386,25.3085042 50.19255,24.4527969 50.8086924,24.0126994 L50.9291208,23.9351988 L56.611578,20.6585861 C57.282252,20.2727951 58.1355874,20.4698101 58.5753164,21.0885569 Z M79.9029331,19.4573259 L79.9803897,19.5782177 L82.7106838,24.3064612 C83.0963828,24.974838 82.8994147,25.8305452 82.2829918,26.2728194 L82.1625368,26.3507542 L76.915987,29.3793365 C76.2033959,29.7892394 75.621316,30.1234278 75.621316,30.1234278 C75.621316,30.1234278 75.3279964,29.6162505 74.9578226,28.9691256 L74.8774022,28.8284478 L72.1444979,24.1002043 C71.7587989,23.4342848 71.9557669,22.5787221 72.5721899,22.1386331 L72.6926449,22.061133 L77.9391947,19.0299399 C78.6098687,18.6441489 79.4632041,18.8388512 79.9029331,19.4573259 Z M67.2839196,16.052083 L67.3617848,16.172107 L70.4053057,21.4486283 C70.795918,22.1219196 70.599239,22.9732906 69.9784807,23.4172142 L69.8571587,23.4955322 L63.8954076,26.9418499 C63.2247336,27.3251837 62.369086,27.1303368 61.929085,26.516207 L61.8516023,26.3961829 L58.8054711,21.1170508 C58.4173155,20.4437595 58.6164512,19.5947013 59.2309615,19.1510497 L59.3510079,19.0727578 L65.3179795,15.62644 C65.9911102,15.2431063 66.842278,15.4379532 67.2839196,16.052083 Z M75.2765464,11.4409814 L75.354029,11.5618738 L78.39755,16.8357843 C78.783249,17.5066183 78.5885931,18.3601574 77.970266,18.802168 L77.849403,18.8800773 L72.6028532,21.9086595 C71.9321792,22.2919933 71.0788437,22.0994591 70.6391148,21.481248 L70.5616581,21.3603817 L67.515527,16.0864712 C67.129828,15.4156372 67.3244839,14.5620981 67.942811,14.1222642 L68.063674,14.0447891 L73.3102238,11.0109851 C73.9808978,10.6276514 74.8365454,10.8224983 75.2765464,11.4409814 Z" id="形状结合" fill="url(#linearGradient-6)"></path>
                            <polygon id="Fill-448" fill="#E6E7E8" points="57.6050292 41.5612864 47.8558433 24.6743295 48.4379232 24.3349194 58.1923296 41.2297088"></polygon>
                            <polygon id="Fill-450" fill="#0C1218" opacity="0.300000012" points="68.8258593 67.6036996 47.3463276 80 36.9889595 74.0237718 58.4684912 61.6274713"></polygon>
                            <path d="M57.5538688,70.601996 L47.922143,70.601996 L47.922143,71.1685497 C47.922143,71.8813109 48.3919833,72.5940721 49.334274,73.1345174 C51.2162454,74.2232405 54.2623766,74.2232405 56.1417377,73.1345174 C57.0840285,72.5940721 57.5538688,71.8813109 57.5538688,71.1685497 L57.5538688,70.601996 Z" id="Fill-452" fill="#939598"></path>
                            <path d="M56.1417377,72.5729242 C54.2623766,73.6564256 51.2162454,73.6564256 49.334274,72.5729242 C47.4549129,71.4842011 47.4549129,69.7244904 49.334274,68.6357673 C51.2162454,67.5522659 54.2623766,67.5522659 56.1417377,68.6357673 C58.0263193,69.7244904 58.0263193,71.4842011 56.1417377,72.5729242" id="Fill-454" fill="#E6E7E8"></path>
                            <path d="M56.0957978,69.3602773 L49.3796919,69.3602773 L49.3796919,70.3289014 C49.3796919,70.8249623 49.7059699,71.3184123 50.3637463,71.699596 C51.6766889,72.4567415 53.8014111,72.4567415 55.1117434,71.699596 C55.7669096,71.3184123 56.0957978,70.8249623 56.0957978,70.3289014 L56.0957978,69.3602773 Z" id="Fill-456" fill="#939598"></path>
                            <path d="M55.1120044,70.7320162 C53.8016721,71.4891617 51.6769499,71.4891617 50.3640073,70.7320162 C49.053675,69.9748706 49.053675,68.7477726 50.3640073,67.9854054 C51.6769499,67.2282598 53.8016721,67.2282598 55.1120044,67.9854054 C56.4223368,68.7477726 56.4223368,69.9748706 55.1120044,70.7320162" id="Fill-458" fill="#E6E7E8"></path>
                            <path d="M54.722037,66.035625 L50.7518866,66.035625 L50.7518866,69.1947496 C50.7518866,69.4897753 50.9476534,69.7795793 51.3313563,70.0067229 C52.109203,70.4531777 53.3621104,70.4531777 54.1425673,70.0067229 C54.5314907,69.7795793 54.722037,69.4897753 54.722037,69.1947496 L54.722037,66.035625 Z" id="Fill-460" fill="#BCBEC0"></path>
                            <path d="M54.1433504,66.8489038 C53.3628935,67.2979694 52.109986,67.2979694 51.3321393,66.8489038 C50.5569029,66.3998381 50.5569029,65.6740227 51.3321393,65.2249571 C52.109986,64.7785023 53.3628935,64.7785023 54.1433504,65.2249571 C54.9185869,65.6740227 54.9185869,66.3998381 54.1433504,66.8489038" id="Fill-462" fill="#E6E7E8"></path>
                            <path d="M53.5876337,57.3488157 L51.8857678,57.3488157 L51.8857678,65.9541666 C51.8857678,66.0820981 51.969295,66.2048079 52.1337391,66.3066309 C52.4652375,66.492001 53.0055538,66.492001 53.3370523,66.3066309 C53.5067168,66.2048079 53.5876337,66.0820981 53.5876337,65.9541666 L53.5876337,57.3488157 Z" id="Fill-464" fill="#939598"></path>
                            <path d="M53.3378353,57.6955361 C53.0063369,57.8861279 52.4660206,57.8861279 52.1345221,57.6955361 C51.8004135,57.4997226 51.8004135,57.1942535 52.1345221,56.9958292 C52.4660206,56.8078482 53.0063369,56.8078482 53.3378353,56.9958292 C53.6745542,57.1942535 53.6745542,57.4997226 53.3378353,57.6955361" id="Fill-466" fill="#808285"></path>
                            <polygon id="Fill-468" fill="#C6C7C9" points="42.0175557 69.0441037 39.5378431 65.4124159 34.1033571 55.9011011 32.27098 52.1519252 58.733429 36.8706391 68.4852251 53.7602068"></polygon>
                            <polygon id="Fill-470" fill="url(#linearGradient-3)" points="42.3182535 67.8329319 33.4643743 52.496818 58.4363855 38.0797222 67.282434 53.4184469"></polygon>
                            <path d="M45.0694294,56.4919357 C45.7794102,56.0820328 46.698209,56.3300632 47.1106244,57.0428244 L47.1106244,57.0428244 L49.8383083,61.7658462 C50.2507236,62.4786074 50.0027524,63.3976254 49.2901613,63.8049175 L49.2901613,63.8049175 L43.6129245,67.0867519 C42.9029436,67.494044 41.9789244,67.2486244 41.5691192,66.5358632 L41.5691192,66.5358632 L38.8466558,61.8128414 C38.4316302,61.105302 38.6796015,60.1836731 39.3921926,59.7737701 L39.3921926,59.7737701 Z M55.7405884,51.8868261 L55.81807,52.0072843 L58.5483641,56.7355278 C58.934063,57.4063618 58.737095,58.2599009 58.1184959,58.6997348 L57.9976069,58.7772099 L52.0358557,62.2235276 C51.362725,62.6068614 50.5092451,62.4120145 50.0716838,61.7978847 L49.9946607,61.6778607 L47.2643666,56.952228 C46.8762109,56.281394 47.0730345,55.4301676 47.6916251,54.9862524 L47.8125136,54.907935 L53.7794852,51.4590064 C54.4452458,51.0756727 55.3006044,51.2705196 55.7405884,51.8868261 Z M42.4041724,48.9052761 L42.4816535,49.0262194 L45.5277847,54.297519 C45.9134836,54.9658958 45.7188278,55.8216031 45.1005006,56.2617006 L44.9796377,56.3392012 L39.2997907,59.6184247 C38.6340301,60.0091303 37.7763593,59.8100916 37.3382795,59.1932664 L37.2612059,59.0727578 L34.2124645,53.7936256 C33.8267655,53.1227916 34.0214214,52.2692525 34.6397485,51.8294186 L34.7606115,51.7519434 L40.4456789,48.4753308 C41.1089828,48.0870825 41.9641969,48.2862657 42.4041724,48.9052761 Z M63.7322221,47.2718933 L63.8092702,47.3923515 L66.536954,52.1232059 C66.9251097,52.7940399 66.7282862,53.647579 66.1096955,54.0852362 L65.9888071,54.1622772 L60.7448674,57.1934703 C60.0741934,57.5817185 59.220858,57.3848481 58.7789529,56.7661098 L58.7010622,56.6451925 L55.9707681,51.916949 C55.5850691,51.2510295 55.779725,50.3954667 56.3980521,49.9510244 L56.5189151,49.8726559 L61.7706854,46.8440737 C62.4389027,46.46074 63.2944058,46.6555868 63.7322221,47.2718933 Z M51.1132086,43.8679604 L51.1906652,43.9888517 L54.2367964,49.265373 C54.624952,49.9337498 54.4304407,50.789457 53.8099459,51.2295545 L53.6886494,51.3070552 L47.7216778,54.7533729 C47.0534605,55.1416212 46.2002695,54.9470634 45.7605491,54.3285972 L45.683093,54.2077059 L42.6343516,48.9311846 C42.2486526,48.2603506 42.4409963,47.4068115 43.0612276,46.9648009 L43.1824986,46.8868916 L49.1494702,43.4431847 C49.8201442,43.0549364 50.6734796,43.2494942 51.1132086,43.8679604 Z M59.1054534,39.2558111 L59.1829095,39.3762687 L62.2264305,44.65279 C62.6121294,45.3236241 62.4151614,46.1748504 61.8009146,46.6144122 L61.6808937,46.6918613 L56.4317336,49.7204436 C55.7610596,50.1086919 54.9077242,49.9141341 54.4701714,49.2956679 L54.3931488,49.1747766 L51.3417972,43.9008661 C50.9585549,43.2300321 51.1533553,42.376493 51.7695147,41.9344824 L51.8899442,41.8565731 L57.1443247,38.8306017 C57.812542,38.4448107 58.6657329,38.639513 59.1054534,39.2558111 Z" id="形状结合" fill="url(#linearGradient-7)"></path>
                            <polygon id="Fill-484" fill="#E6E7E8" points="41.4339097 69.378031 31.6847237 52.4910742 32.2694139 52.1516641 42.0185998 69.0438426"></polygon>
                            <polygon id="Fill-486" fill="#0C1218" opacity="0.300000012" points="101 49.0319633 79.5204683 61.4282637 69.16049 55.4520355 90.6426319 43.0557351"></polygon>
                            <path d="M89.7253993,52.0276489 L80.0962837,52.0276489 L80.0962837,52.5968135 C80.0962837,53.3095746 80.5687342,54.0223358 81.5058045,54.5627811 C83.3851657,55.6488933 86.4365173,55.6488933 88.3210989,54.5627811 C89.255559,54.0223358 89.7253993,53.3095746 89.7253993,52.5968135 L89.7253993,52.0276489 Z" id="Fill-488" fill="#939598"></path>
                            <path d="M88.3208379,53.9959662 C86.4362563,55.0846893 83.3849046,55.0846893 81.5055435,53.9959662 C79.6261824,52.9072431 79.6261824,51.1501433 81.5055435,50.064031 C83.3849046,48.9779188 86.4362563,48.9779188 88.3208379,50.064031 C90.1975888,51.1501433 90.1975888,52.9072431 88.3208379,53.9959662" id="Fill-490" fill="#E6E7E8"></path>
                            <path d="M88.2699385,50.788541 L81.5538326,50.788541 L81.5538326,51.7545543 C81.5538326,52.253226 81.8827208,52.7466761 82.537887,53.1278597 C83.8482194,53.8823944 85.9729415,53.8823944 87.2858841,53.1278597 C87.9410503,52.7466761 88.2699385,52.253226 88.2699385,51.7545543 L88.2699385,50.788541 Z" id="Fill-492" fill="#939598"></path>
                            <path d="M87.2861451,52.157669 C85.9732026,52.9122038 83.8484804,52.9122038 82.538148,52.157669 C81.2304259,51.4005235 81.2304259,50.1708146 82.538148,49.4136691 C83.8484804,48.6565235 85.9732026,48.6565235 87.2861451,49.4136691 C88.5964775,50.1708146 88.5964775,51.3979126 87.2861451,52.157669" id="Fill-494" fill="#E6E7E8"></path>
                            <path d="M86.8985269,47.4664996 L82.9283765,47.4664996 L82.9283765,50.6230133 C82.9283765,50.9154281 83.1215331,51.2104538 83.5078462,51.4349867 C84.2804724,51.8788306 85.5412105,51.8788306 86.3138368,51.4349867 C86.7053703,51.2104538 86.8985269,50.9154281 86.8985269,50.6230133 L86.8985269,47.4664996 Z" id="Fill-496" fill="#BCBEC0"></path>
                            <path d="M86.3148809,48.2771675 C85.5422546,48.7236223 84.2815165,48.7236223 83.5088903,48.2771675 C82.7310436,47.8281018 82.7310436,47.0996756 83.5088903,46.6532208 C84.2815165,46.206766 85.5422546,46.206766 86.3148809,46.6532208 C87.0927276,47.0996756 87.0927276,47.8281018 86.3148809,48.2771675" id="Fill-498" fill="#E6E7E8"></path>
                            <path d="M85.7643847,38.7721188 L84.0599085,38.7721188 L84.0599085,47.3826914 C84.0599085,47.5054012 84.1434357,47.6307218 84.3052696,47.729934 C84.6445986,47.9205258 85.1796945,47.9205258 85.5111929,47.729934 C85.6808575,47.6307218 85.7643847,47.5054012 85.7643847,47.3826914 L85.7643847,38.7721188 Z" id="Fill-500" fill="#939598"></path>
                            <path d="M85.511976,39.1188392 C85.1804776,39.3146527 84.6453817,39.3146527 84.3060526,39.1188392 C83.9745542,38.9308583 83.9745542,38.6201675 84.3060526,38.424354 C84.6453817,38.2337622 85.1804776,38.2337622 85.511976,38.424354 C85.8460847,38.6201675 85.8460847,38.9308583 85.511976,39.1188392" id="Fill-502" fill="#808285"></path>
                            <polygon id="Fill-504" fill="#C6C7C9" points="74.1940456 50.4700177 71.714333 46.8383298 66.2746266 37.3296259 64.4422494 33.58045 90.9099189 18.2991639 100.656495 35.1861207"></polygon>
                            <polygon id="Fill-506" fill="url(#linearGradient-8)" points="74.4923942 49.2614567 65.638515 33.9253428 90.6105262 19.508247 99.4591849 34.8417501"></polygon>
                            <path d="M77.243309,37.9204606 C77.9532899,37.5079468 78.8746989,37.7533664 79.2871143,38.4661275 L79.2871143,38.4661275 L82.0147982,43.194371 C82.4219931,43.9019105 82.1740218,44.8235394 81.4692614,45.2334423 L81.4692614,45.2334423 L75.7841939,48.5126659 C75.0742131,48.9251797 74.1580245,48.6797601 73.7456091,47.9669989 L73.7456091,47.9669989 L71.0179253,43.2413663 C70.6081201,42.5312159 70.8534812,41.6121979 71.5660723,41.1996841 L71.5660723,41.1996841 Z M87.9170777,33.3146562 L87.9945599,33.435548 L90.7222438,38.1664023 C91.1079427,38.8323218 90.9132869,39.6855718 90.2971359,40.1275654 L90.176707,40.2054736 L84.2071251,43.6491805 C83.5389078,44.0349715 82.6857169,43.8425819 82.2438203,43.2222027 L82.1659301,43.1009027 L79.4408565,38.3752701 C79.0551575,37.7068933 79.2498134,36.8558114 79.8637882,36.4119048 L79.983783,36.3335879 L85.9533649,32.8872702 C86.6215822,32.5014792 87.4770853,32.6961815 87.9170777,33.3146562 Z M74.5806607,30.3283702 L74.6581434,30.4492615 L77.6990541,35.7231719 C78.0872098,36.394006 77.8903862,37.2475451 77.2761479,37.6895556 L77.1561276,37.7674649 L71.4762806,41.0466885 C70.8056066,41.4349367 69.9545833,41.240379 69.5107741,40.6219128 L69.4324753,40.5010215 L66.3889544,35.2166676 C65.998342,34.5507481 66.1950211,33.6951854 66.811427,33.2550964 L66.9318809,33.1775963 L72.6143381,29.9035945 C73.2850121,29.5153462 74.1406597,29.709904 74.5806607,30.3283702 Z M95.9059802,28.6981904 L95.9834109,28.8182655 L98.7110947,33.5491198 C99.1017071,34.2174966 98.905028,35.0708912 98.2886221,35.5128932 L98.1681682,35.590802 L92.9163979,38.6193842 C92.2090272,39.031898 91.6217269,39.3634756 91.6217269,39.3634756 C91.6217269,39.3634756 91.3306811,38.8608469 90.9586883,38.2143286 L90.8778131,38.0737173 L88.1501292,33.3454738 C87.7619736,32.6746397 87.9587971,31.8211006 88.5730354,31.3790901 L88.6930558,31.3011808 L93.9448261,28.2725985 C94.6155,27.8843502 95.4665233,28.0835335 95.9059802,28.6981904 Z M83.2873748,25.2962241 L83.3648059,25.4171154 L86.4083269,30.6936367 C86.7964825,31.3620135 86.599659,32.2130953 85.9832445,32.657002 L85.8627901,32.7353189 L79.8958185,36.1816366 C79.2276012,36.5698849 78.3697859,36.3753271 77.9316976,35.7568609 L77.8546235,35.6359696 L74.8084923,30.3594483 C74.4227933,29.686157 74.6197613,28.8347861 75.2340082,28.3930391 L75.354029,28.3151553 L81.3236109,24.8714484 C81.9967416,24.4832002 82.8479093,24.6777579 83.2873748,25.2962241 Z M91.2795935,20.6818976 L91.3570502,20.8019216 L94.4031814,26.0810537 C94.7864236,26.7469732 94.5916233,27.602536 93.9732877,28.0426249 L93.8524241,28.1201251 L88.6058743,31.1487073 C87.937657,31.5369556 87.0798417,31.3423978 86.6395772,30.7239316 L86.5620691,30.6030403 L83.5211583,25.326519 C83.1330027,24.6581423 83.327514,23.8047477 83.9458326,23.3627456 L84.0666951,23.2848369 L89.3158552,20.2562546 C89.9865291,19.8729209 90.8398646,20.0677677 91.2795935,20.6818976 Z" id="形状结合" fill="url(#linearGradient-9)"></path>
                            <polygon id="Fill-520" fill="#E6E7E8" points="73.6077893 50.8065558 63.8559932 33.9169881 64.4406833 33.5801889 74.1950897 50.4697566"></polygon>
                        </g>
                    </g>
                </g>
            </g>
        </g>
    </g>
</svg>