<?xml version="1.0" encoding="UTF-8"?>
<svg width="16px" height="16px" viewBox="0 0 16 16" version="1.1" xmlns="http://www.w3.org/2000/svg" xmlns:xlink="http://www.w3.org/1999/xlink">
    <title>icon_充电桩</title>
    <defs>
        <linearGradient x1="50%" y1="0%" x2="50%" y2="100%" id="linearGradient-1">
            <stop stop-color="#FFFFFF" offset="0%"></stop>
            <stop stop-color="#7EC2FF" offset="100%"></stop>
        </linearGradient>
    </defs>
    <g id="能源云系统V1.0" stroke="none" stroke-width="1" fill="none" fill-rule="evenodd">
        <g id="1.站控系统（站点）首页" transform="translate(-40.000000, -391.000000)" fill-rule="nonzero">
            <g id="左边" transform="translate(24.000000, 114.000000)">
                <g id="内容" transform="translate(16.000000, 56.000000)">
                    <g id="编组7" transform="translate(0.000000, 218.000000)">
                        <g id="光伏信息" transform="translate(0.000000, 3.000000)">
                            <rect id="矩形" fill="#000000" opacity="0" x="0" y="0" width="16" height="16"></rect>
                            <g id="储能信息" transform="translate(0.000000, 1.000000)" fill="url(#linearGradient-1)">
                                <path d="M13.7144223,6.22211377 L12.9524037,6.22211377 L12.9524037,3.11105689 L13.7139442,3.11105689 L13.7139442,0.777886219 L15.2379814,0.777886219 L15.2379814,3.11105689 L16,3.11105689 L16,6.22211377 L15.2379814,6.22211377 L15.2379814,11.6663413 C15.2379814,12.9550507 14.2145864,13.999756 12.9521647,13.999756 C11.689743,13.999756 10.666348,12.9550507 10.666348,11.6663413 L10.666348,8.55528444 L9.14278885,8.55528444 L9.14278885,12.4447156 L9.90480743,12.4447156 L9.90480743,14 L0,14 L0,12.4437395 L0.76201858,12.4437395 L0.76201858,0.777886219 C0.76201858,0.348438371 1.10287131,0 1.52355911,0 L8.38077027,0 C8.80145807,0 9.14278885,0.348438371 9.14278885,0.777886219 L9.14278885,7 L10.666826,7 C11.5083418,7.00026946 12.1903852,7.69673359 12.1903851,8.55577245 L12.1903851,11.6668293 C12.1903851,12.096444 12.5315525,12.4447156 12.9524037,12.4447156 C13.373255,12.4447156 13.7144223,12.096444 13.7144223,11.6668293 L13.7144223,6.22162577 L13.7144223,6.22211377 Z M5.33317399,6.22211377 L5.33317399,3.11105689 L2.2855777,7.77837423 L4.57163346,7.77837423 L4.57163346,10.8894311 L7.61875168,6.22260178 L5.33365204,6.22260178 L5.33317399,6.22211377 Z" id="形状"></path>
                            </g>
                        </g>
                    </g>
                </g>
            </g>
        </g>
    </g>
</svg>