<?xml version="1.0" encoding="UTF-8"?>
<svg width="16px" height="16px" viewBox="0 0 16 16" version="1.1" xmlns="http://www.w3.org/2000/svg" xmlns:xlink="http://www.w3.org/1999/xlink">
    <title>icon3</title>
    <defs>
        <linearGradient x1="50%" y1="0%" x2="50%" y2="100%" id="linearGradient-1">
            <stop stop-color="#FFFFFF" offset="0%"></stop>
            <stop stop-color="#7EC2FF" offset="100%"></stop>
        </linearGradient>
    </defs>
    <g id="能源云系统V1.0" stroke="none" stroke-width="1" fill="none" fill-rule="evenodd">
        <g id="1.站控系统（站点）首页" transform="translate(-40.000000, -354.000000)" fill-rule="nonzero">
            <g id="左边" transform="translate(24.000000, 114.000000)">
                <g id="内容" transform="translate(16.000000, 56.000000)">
                    <g id="编组6" transform="translate(0.000000, 181.000000)">
                        <g id="光伏信息" transform="translate(0.000000, 3.000000)">
                            <rect id="矩形" fill="#000000" opacity="0" x="0" y="0" width="16" height="16"></rect>
                            <g id="储能信息" transform="translate(1.000000, 1.000000)" fill="url(#linearGradient-1)">
                                <path d="M7.95433209,9.45787051e-07 C8.03896999,-0.000205292545 8.12020103,0.0333252811 8.18004925,0.0931734975 C8.23989747,0.153021714 8.27342804,0.234252757 8.27322085,0.318890663 L8.27322085,1.27244584 L13.6818854,1.27244584 C13.8354325,1.27292035 13.9668391,1.38275281 13.9945519,1.53377907 L14.0000009,1.59055683 L14.0000009,2.22755657 C14.0000009,2.31205978 13.9663747,2.39309065 13.906549,2.45277044 C13.8467233,2.51245023 13.7656106,2.54587417 13.6811076,2.54566756 L12.7275524,2.54566756 L12.7275524,12.7267746 L13.6818854,12.7267746 C13.7663886,12.7267744 13.8474195,12.7603963 13.9070992,12.820222 C13.966779,12.8800477 14.000203,12.9611604 14.0000009,13.0456634 L14.0000009,13.6818854 C14.0000009,13.7663886 13.9663747,13.8474194 13.906549,13.9070992 C13.8467233,13.966779 13.7656106,14.000203 13.6811076,14.0000009 L0.318890663,14.0000009 C0.234252757,14.0002035 0.153021714,13.966673 0.0931734976,13.9068248 C0.0333252811,13.8469765 -0.000205292545,13.7657455 9.45787052e-07,13.6811076 L9.45787052e-07,13.0456634 C9.45787052e-07,12.869546 0.142773262,12.7267746 0.318890663,12.7267746 L1.27244584,12.7267746 L1.27244584,2.54644534 L0.318890663,2.54644534 C0.234181174,2.54644559 0.152952476,2.51274173 0.0931268245,2.45277016 C0.0333011726,2.39279859 -0.000204708188,2.31148803 9.45787052e-07,2.2267788 L9.45787052e-07,1.59055683 C9.45787052e-07,1.50605362 0.0336235615,1.42502275 0.0934492683,1.36534296 C0.153274975,1.30566317 0.234387705,1.27223923 0.318890663,1.27244584 L5.72755519,1.27244584 L5.72755519,0.318890663 C5.72795982,0.165587349 5.83739346,0.034266973 5.98811064,0.00622412008 L6.04566617,9.45787051e-07 L7.95433209,9.45787051e-07 Z M7.01322135,3.90911146 L6.98444358,3.93788923 L3.91611146,8.09355425 C3.89025248,8.12896799 3.88247992,8.17445186 3.89511147,8.21644309 C3.90622497,8.2573112 3.93724301,8.28979236 3.97755588,8.30277639 L4.01022254,8.30744306 L6.32644384,8.30744306 C6.39022159,8.30744306 6.44311046,8.3611097 6.44699935,8.42955412 L6.44466602,8.4645541 L6.02622174,10.7325532 C6.01640194,10.7831196 6.03596906,10.8348972 6.07677727,10.8663309 C6.11644392,10.8958865 6.16855501,10.8966643 6.20899944,10.8678865 L6.23855499,10.8398865 L9.30688711,6.6834437 C9.33247982,6.6478993 9.33996279,6.60242585 9.32710932,6.56055486 C9.31564295,6.52005604 9.28471143,6.48795729 9.24466491,6.47499934 L9.21277603,6.47033267 L6.89655473,6.47033267 C6.83277697,6.47033267 6.77988811,6.41666603 6.77522144,6.34822161 L6.77833255,6.31244385 L7.19677683,4.04522252 C7.20640981,3.99467216 7.18687878,3.94299004 7.14622129,3.9114448 C7.10711461,3.88182134 7.05334306,3.88087798 7.01322135,3.90911146 Z" id="形状"></path>
                            </g>
                        </g>
                    </g>
                </g>
            </g>
        </g>
    </g>
</svg>