<?xml version="1.0" encoding="UTF-8"?>
<svg width="16px" height="16px" viewBox="0 0 16 16" version="1.1" xmlns="http://www.w3.org/2000/svg" xmlns:xlink="http://www.w3.org/1999/xlink">
    <title>icon8</title>
    <defs>
        <linearGradient x1="50%" y1="0%" x2="50%" y2="100%" id="linearGradient-1">
            <stop stop-color="#FFFFFF" offset="0%"></stop>
            <stop stop-color="#7EC2FF" offset="100%"></stop>
        </linearGradient>
    </defs>
    <g id="能源云系统V1.0" stroke="none" stroke-width="1" fill="none" fill-rule="evenodd">
        <g id="1.站控系统（站点）首页" transform="translate(-40.000000, -427.000000)" fill-rule="nonzero">
            <g id="左边" transform="translate(24.000000, 114.000000)">
                <g id="内容" transform="translate(16.000000, 56.000000)">
                    <g id="编组-8" transform="translate(0.000000, 254.000000)">
                        <g id="地址" transform="translate(0.000000, 3.000000)">
                            <rect id="矩形" fill="#000000" opacity="0" x="0" y="0" width="16" height="16"></rect>
                            <path d="M8,1 C4.9238418,1 2.40698633,3.51685424 2.40698633,6.59301094 C2.40698633,9.66916764 6.81150391,14.4232181 6.81150391,14.4232181 C7.51062891,15.1922606 8.55931641,15.1922606 9.25844141,14.4232181 C9.25844141,14.4232181 13.6629316,9.7390719 13.6629316,6.59301094 C13.6629316,5.12484369 13.1036289,3.65667644 12.0549414,2.60798945 C10.866418,1.55930246 9.46816797,1 8,1 Z M8,8.97002931 C6.9513125,8.97002931 6.04244727,8.34082259 5.6229668,7.36203986 C5.2035,6.38327081 5.41324023,5.26466589 6.1822832,4.56554123 C6.9513125,3.79649863 8.06991797,3.58677217 8.9787832,4.00623877 C9.95755273,4.42571903 10.5867598,5.33458382 10.5867598,6.38327081 C10.5867598,7.85143806 9.39826367,8.97002931 8,8.97002931 Z" id="形状" fill="url(#linearGradient-1)"></path>
                        </g>
                    </g>
                </g>
            </g>
        </g>
    </g>
</svg>