<?xml version="1.0" encoding="UTF-8"?>
<svg width="16px" height="16px" viewBox="0 0 16 16" version="1.1" xmlns="http://www.w3.org/2000/svg" xmlns:xlink="http://www.w3.org/1999/xlink">
    <title>icon5</title>
    <defs>
        <linearGradient x1="50%" y1="0%" x2="50%" y2="100%" id="linearGradient-1">
            <stop stop-color="#FFFFFF" offset="0%"></stop>
            <stop stop-color="#7EC2FF" offset="100%"></stop>
        </linearGradient>
    </defs>
    <g id="能源云系统V1.0" stroke="none" stroke-width="1" fill="none" fill-rule="evenodd">
        <g id="1.站控系统（站点）首页" transform="translate(-40.000000, -318.000000)" fill-rule="nonzero">
            <g id="左边" transform="translate(24.000000, 114.000000)">
                <g id="内容" transform="translate(16.000000, 56.000000)">
                    <g id="编组5" transform="translate(0.000000, 145.000000)">
                        <g id="光伏信息" transform="translate(0.000000, 3.000000)">
                            <rect id="矩形" fill="#000000" opacity="0" x="0" y="0" width="16" height="16"></rect>
                            <path d="M14.9405,8.86730273 L13.7666055,3.6705 C13.5524598,2.94721053 12.90507,2.43788826 12.1516973,2.4 L3.97219727,2.4 C3.21848567,2.44211953 2.56109014,2.92616945 2.29710547,3.63339453 L2.29710547,3.66560547 C2.29710547,3.70339453 1.3605,7.47780273 1.08610547,8.86660547 C0.920315051,9.41049045 0.996834824,9.99943365 1.29610547,10.4828945 C1.59538948,10.8794426 2.04533788,11.1345717 2.53928906,11.1878027 L13.4705,11.1878027 C13.9738055,11.1380418 14.4283927,10.8655472 14.7095,10.4451055 C14.9869257,9.9547803 15.0694051,9.37792252 14.9405,8.8295 L14.9405,8.86730273 L14.9405,8.86730273 Z M2.55539453,10.4073027 C2.28958107,10.3688489 2.04769561,10.2325531 1.87710547,10.0251055 C1.71254414,9.72664499 1.68128769,9.37267987 1.791,9.05 C2.07660547,7.75219727 2.92221094,4.269 3.01319727,3.891 C3.15590034,3.47463172 3.53753968,3.18694744 3.97710547,3.16439453 L12.1516973,3.16439453 C12.5646973,3.19239453 12.9160918,3.47378906 13.0343945,3.87 L14.2083027,9.04510547 C14.2825,9.37619727 14.2391055,9.72269727 14.0843945,10.0251055 C13.9251522,10.2537716 13.6683835,10.395098 13.39,10.4073027 L2.55539453,10.4073027 L2.55539453,10.4073027 Z M8.53830273,12.6311973 L10.8748945,13.1106973 L10.8748945,13.649 L5.20489453,13.649 L5.20489453,13.1373027 L7.461,12.6311973 L7.461,11.619 L8.53830273,11.619 L8.53830273,12.6311973 Z M3.50878906,3.83780273 L4.11778906,3.44439453 L7.28878906,3.44439453 L7.7465918,3.85389453 L7.7465918,5.64730273 L7.2565918,6.13730273 L3.51439453,6.13730273 L3.1105,5.59830273 L3.51439453,3.84339453 L3.50878906,3.83778906 L3.50878906,3.83780273 Z M2.79898633,7.06830273 L3.50948633,6.4495 L7.20898633,6.4495 L7.74798633,7.06339453 L7.74798633,9.31389453 L7.17677539,9.85289453 L2.79831641,9.85289453 L2.32931641,9.239 L2.79831641,7.05219727 L2.79831641,7.06830273 L2.79898633,7.06830273 Z M12.5709863,3.83780273 L12.8887891,5.59830273 L12.4848809,6.13730273 L8.71539453,6.13730273 L8.22539453,5.66830273 L8.22539453,3.83780273 L8.70419727,3.44439453 L11.9676055,3.44439453 L12.571,3.83780273 L12.5709863,3.83780273 Z M13.1953809,7.06830273 L13.6643809,9.25510547 L13.1953809,9.869 L8.81760547,9.869 L8.24710547,9.33 L8.24710547,7.06339453 L8.78539453,6.4495 L12.4848945,6.4495 L13.1953945,7.06339453 L13.1953945,7.06830273 L13.1953809,7.06830273 Z" id="形状" fill="url(#linearGradient-1)"></path>
                        </g>
                    </g>
                </g>
            </g>
        </g>
    </g>
</svg>