<?xml version="1.0" encoding="UTF-8"?>
<svg width="16px" height="16px" viewBox="0 0 16 16" version="1.1" xmlns="http://www.w3.org/2000/svg" xmlns:xlink="http://www.w3.org/1999/xlink">
    <title>icon2</title>
    <defs>
        <linearGradient x1="50%" y1="0%" x2="50%" y2="100%" id="linearGradient-1">
            <stop stop-color="#FFFFFF" offset="0%"></stop>
            <stop stop-color="#7EC2FF" offset="100%"></stop>
        </linearGradient>
    </defs>
    <g id="能源云系统V1.0" stroke="none" stroke-width="1" fill="none" fill-rule="evenodd">
        <g id="1.站控系统（站点）首页" transform="translate(-40.000000, -208.000000)" fill-rule="nonzero">
            <g id="左边" transform="translate(24.000000, 114.000000)">
                <g id="内容" transform="translate(16.000000, 56.000000)">
                    <g id="编组-2" transform="translate(0.000000, 36.000000)">
                        <g id="站点" transform="translate(0.000000, 2.000000)">
                            <rect id="矩形" opacity="0.284784226" x="0" y="0" width="16" height="16"></rect>
                            <path d="M13.8200488,13.4595215 L11.1338672,13.4595215 C10.6396152,13.4595215 10.2384687,13.0583887 10.2384687,12.564123 L10.2384687,10.7939297 C10.2384687,10.2996777 10.6396016,9.89854492 11.1338672,9.89854492 L12.0292656,9.89854492 L12.0292656,8.11848047 L3.9707207,8.11848047 L3.9707207,9.89854492 L4.86611914,9.89854492 C5.36037109,9.89854492 5.76150391,10.2996777 5.76150391,10.7939297 L5.76150391,12.5641094 C5.76150391,13.058375 5.36037109,13.4595215 4.86611914,13.4595215 L2.1799375,13.4595215 C1.68568555,13.4595215 1.28455273,13.058375 1.28455273,12.5641094 L1.28455273,10.7939297 C1.28455273,10.2996777 1.68568555,9.89854492 2.1799375,9.89854492 L3.07533594,9.89854492 L3.07533594,7.67348828 C3.07533594,7.42725781 3.275,7.22846875 3.5203418,7.22846875 L7.55230078,7.22846875 L7.55230078,5.44755664 L6.65690234,5.44755664 C6.16265039,5.44755664 5.76150391,5.0473125 5.76150391,4.5521582 L5.76150391,2.78285352 C5.76150391,2.28769922 6.16263672,1.88745508 6.65690234,1.88745508 L9.34308398,1.88745508 C9.83733594,1.88745508 10.2384687,2.28769922 10.2384687,2.78285352 L10.2384687,4.55214453 C10.2384687,5.04729883 9.83733594,5.44754297 9.34308398,5.44754297 L8.44768555,5.44754297 L8.44768555,7.22848242 L12.4796445,7.22848242 C12.7249863,7.22848242 12.9246641,7.42725781 12.9246641,7.67350195 L12.9246641,9.89853125 L13.8200352,9.89853125 C14.3143008,9.89853125 14.7154336,10.2996641 14.7154336,10.7939297 L14.7154336,12.5641094 C14.7154336,13.0583887 14.3143008,13.4595215 13.8200488,13.4595215 Z" id="路径" fill="url(#linearGradient-1)"></path>
                        </g>
                    </g>
                </g>
            </g>
        </g>
    </g>
</svg>