<?xml version="1.0" encoding="UTF-8"?>
<svg width="16px" height="16px" viewBox="0 0 16 16" version="1.1" xmlns="http://www.w3.org/2000/svg" xmlns:xlink="http://www.w3.org/1999/xlink">
    <title>icon1</title>
    <defs>
        <linearGradient x1="50%" y1="0%" x2="50%" y2="100%" id="linearGradient-1">
            <stop stop-color="#FFFFFF" offset="0%"></stop>
            <stop stop-color="#7EC2FF" offset="100%"></stop>
        </linearGradient>
    </defs>
    <g id="能源云系统V1.0" stroke="none" stroke-width="1" fill="none" fill-rule="evenodd">
        <g id="1.站控系统（站点）首页" transform="translate(-40.000000, -172.000000)" fill-rule="nonzero">
            <g id="左边" transform="translate(24.000000, 114.000000)">
                <g id="内容" transform="translate(16.000000, 56.000000)">
                    <g id="icon1" transform="translate(0.000000, 2.000000)">
                        <rect id="矩形" opacity="0.284784226" x="0" y="0" width="16" height="16"></rect>
                        <path d="M1,2.32149365 L1,14.2132147 L9.58979912,14.2132147 L9.58979912,2.32149365 L7.60767025,1 L1,2.32149365 Z M5.95532217,12.7600021 L1.99450862,12.7600021 L1.99450862,11.5702274 L5.95532217,11.5039375 L5.95532217,12.7600021 Z M5.95532217,10.1170148 L1.99450862,10.1833048 L1.99450862,8.99439092 L5.95532217,8.73009219 L5.95532217,10.1170148 Z M5.95532217,7.27601872 L1.99450862,7.54031745 L1.99450862,6.35140361 L5.95532217,5.88909606 L5.95532217,7.27601872 Z M5.95532217,4.36873268 L1.99450862,4.89733014 L1.99450862,3.64298731 L5.95532217,2.85009111 L5.95532217,4.36873268 Z M12.8936342,12.8917211 L12.8936342,2.32149365 L10.9115054,1 L9.92044095,1 L10.9115054,1.66031637 L10.9115054,14.2132147 L14.2153405,14.2132147 L14.2153405,12.8917211 L12.8936342,12.8917211 Z" id="形状" fill="url(#linearGradient-1)"></path>
                    </g>
                </g>
            </g>
        </g>
    </g>
</svg>