<?xml version="1.0" encoding="UTF-8"?>
<svg width="16px" height="16px" viewBox="0 0 16 16" version="1.1" xmlns="http://www.w3.org/2000/svg" xmlns:xlink="http://www.w3.org/1999/xlink">
    <title>icon3</title>
    <defs>
        <linearGradient x1="50%" y1="0%" x2="50%" y2="100%" id="linearGradient-1">
            <stop stop-color="#FFFFFF" offset="0%"></stop>
            <stop stop-color="#7EC2FF" offset="100%"></stop>
        </linearGradient>
    </defs>
    <g id="能源云系统V1.0" stroke="none" stroke-width="1" fill="none" fill-rule="evenodd">
        <g id="1.站控系统（站点）首页" transform="translate(-40.000000, -282.000000)" fill-rule="nonzero">
            <g id="左边" transform="translate(24.000000, 114.000000)">
                <g id="内容" transform="translate(16.000000, 56.000000)">
                    <g id="编组4" transform="translate(0.000000, 109.000000)">
                        <g id="变压器" transform="translate(0.000000, 3.000000)">
                            <rect id="矩形" fill="#000000" opacity="0" x="0" y="0" width="16" height="16"></rect>
                            <path d="M14.536,4.592 L1.464,4.592 C1.24,4.592 1.064,4.768 1.064,4.992 L1.064,6.224 C1.064,6.352 1.128,6.48 1.24,6.544 L2.296,7.232 L2.296,13.936 C2.296,14.216 2.52,14.432 2.792,14.432 L13.2,14.432 C13.48,14.432 13.696,14.208 13.696,13.936 L13.696,7.232 L14.752,6.544 C14.864,6.472 14.928,6.352 14.928,6.224 L14.928,4.992 C14.936,4.768 14.752,4.592 14.536,4.592 Z M7.328,12.28 L7.92,10.096 L6.136,10.096 L7.416,6.744 L8.776,6.744 L7.832,8.896 L9.88,8.896 L7.328,12.28 Z M5.008,4.016 C4.8,4.016 4.608,3.888 4.536,3.68 L3.92,1.856 C3.832,1.592 3.968,1.312 4.232,1.224 C4.496,1.136 4.776,1.272 4.864,1.536 L5.48,3.36 C5.568,3.624 5.432,3.904 5.168,3.992 C5.12,4.008 5.064,4.016 5.008,4.016 L5.008,4.016 Z M8,4.016 C7.72,4.016 7.496,3.792 7.496,3.512 L7.496,1.584 C7.496,1.304 7.72,1.08 8,1.08 C8.28,1.08 8.496,1.304 8.496,1.584 L8.496,3.52 C8.496,3.792 8.28,4.016 8,4.016 Z M11.008,4.016 C10.952,4.016 10.904,4.008 10.848,3.992 C10.584,3.904 10.448,3.624 10.536,3.36 L11.152,1.528 C11.24,1.264 11.52,1.128 11.784,1.216 C12.048,1.304 12.184,1.584 12.096,1.848 L11.48,3.68 C11.408,3.888 11.216,4.016 11.008,4.016 L11.008,4.016 Z" id="形状" fill="url(#linearGradient-1)"></path>
                        </g>
                    </g>
                </g>
            </g>
        </g>
    </g>
</svg>