<?xml version="1.0" encoding="UTF-8"?>
<svg width="48px" height="48px" viewBox="0 0 48 48" version="1.1" xmlns="http://www.w3.org/2000/svg" xmlns:xlink="http://www.w3.org/1999/xlink">
    <title>icon_直流充电桩</title>
    <defs>
        <path d="M0.181297466,2.16490854 C0.281425292,2.10582507 0.362594932,1.96213523 0.362594932,1.8439683 C0.362594932,1.72580137 0.281425292,1.67790476 0.181297466,1.73698822 C0.0811696404,1.79607169 0,1.93976153 0,2.05792846 C0,2.17609539 0.0811696404,2.223992 0.181297466,2.16490854 Z" id="path-1"></path>
        <path d="M1.17843353,1.57651811 C1.27856136,1.51743464 1.359731,1.3737448 1.359731,1.25557787 C1.359731,1.13741094 1.27856136,1.08951433 1.17843353,1.14859779 C1.0783057,1.20768126 0.997136064,1.3513711 0.997136064,1.46953803 C0.997136064,1.58770496 1.0783057,1.63560157 1.17843353,1.57651811 Z" id="path-2"></path>
        <path d="M2.08492086,1.04161771 C2.18504869,0.982534249 2.26621833,0.838844412 2.26621833,0.72067748 C2.26621833,0.602510549 2.18504869,0.554613937 2.08492086,0.613697402 C1.98479303,0.672780868 1.90362339,0.816470705 1.90362339,0.934637637 C1.90362339,1.05280457 1.98479303,1.10070118 2.08492086,1.04161771 Z" id="path-3"></path>
        <path d="M3.08205692,0.453227285 C3.18218475,0.394143819 3.26335439,0.250453982 3.26335439,0.13228705 C3.26335439,0.014120119 3.18218475,-0.0337764935 3.08205692,0.0253069722 C2.9819291,0.084390438 2.90075946,0.228080275 2.90075946,0.346247207 C2.90075946,0.464414138 2.9819291,0.512310751 3.08205692,0.453227285 Z" id="path-4"></path>
        <polygon id="path-5" points="4.15478631e-13 0 7.30917737 4.3521281 7.30917737 40.5113945 4.15478631e-13 36.1592664"></polygon>
        <polygon id="path-6" points="0 0 3.07672003 1.80456505 3.07672003 2.41704045 0 0.612475392"></polygon>
        <linearGradient x1="54.2390154%" y1="44.1336283%" x2="45.7497919%" y2="55.8645311%" id="linearGradient-8">
            <stop stop-color="#424242" offset="0%"></stop>
            <stop stop-color="#696969" offset="100%"></stop>
        </linearGradient>
        <polygon id="path-9" points="0 0 3.07672003 1.80456505 3.07672003 2.41704045 0 0.612475392"></polygon>
        <linearGradient x1="54.2390154%" y1="44.1372488%" x2="45.7497919%" y2="55.8681515%" id="linearGradient-11">
            <stop stop-color="#424242" offset="0%"></stop>
            <stop stop-color="#696969" offset="100%"></stop>
        </linearGradient>
        <polygon id="path-12" points="0 0 3.07672003 1.80386588 3.07672003 2.41634127 0 0.612475392"></polygon>
        <linearGradient x1="54.2390154%" y1="44.1353431%" x2="45.7497919%" y2="55.8628525%" id="linearGradient-14">
            <stop stop-color="#424242" offset="0%"></stop>
            <stop stop-color="#696969" offset="100%"></stop>
        </linearGradient>
        <polygon id="path-15" points="0 0 3.07672003 1.80386588 3.07672003 2.41634127 0 0.612475392"></polygon>
        <linearGradient x1="54.2390154%" y1="44.1388947%" x2="45.7497919%" y2="55.8664041%" id="linearGradient-17">
            <stop stop-color="#424242" offset="0%"></stop>
            <stop stop-color="#696969" offset="100%"></stop>
        </linearGradient>
        <polygon id="path-18" points="0 0 3.07672003 1.80456505 3.07672003 2.41704045 0 0.612475392"></polygon>
        <linearGradient x1="54.2390154%" y1="44.133664%" x2="45.7497919%" y2="55.8645668%" id="linearGradient-20">
            <stop stop-color="#424242" offset="0%"></stop>
            <stop stop-color="#696969" offset="100%"></stop>
        </linearGradient>
        <polygon id="path-21" points="0 0 3.07672003 1.80456505 3.07672003 2.41704045 0 0.612475392"></polygon>
        <linearGradient x1="54.2395077%" y1="44.1374219%" x2="45.7493153%" y2="55.8696636%" id="linearGradient-23">
            <stop stop-color="#424242" offset="0%"></stop>
            <stop stop-color="#696969" offset="100%"></stop>
        </linearGradient>
        <polygon id="path-24" points="0 0 3.07672003 1.80386588 3.07672003 2.41634127 0 0.612475392"></polygon>
        <linearGradient x1="54.2395077%" y1="44.1355841%" x2="45.7493153%" y2="55.864432%" id="linearGradient-26">
            <stop stop-color="#424242" offset="0%"></stop>
            <stop stop-color="#696969" offset="100%"></stop>
        </linearGradient>
        <polygon id="path-27" points="0 0 3.07672003 1.80386588 3.07672003 2.41634127 0 0.612475392"></polygon>
        <linearGradient x1="54.2390154%" y1="44.1407008%" x2="45.7497919%" y2="55.8682102%" id="linearGradient-29">
            <stop stop-color="#424242" offset="0%"></stop>
            <stop stop-color="#696969" offset="100%"></stop>
        </linearGradient>
        <polygon id="path-30" points="0 0 3.07672003 1.80456505 3.07672003 2.41704045 0 0.612475392"></polygon>
        <polygon id="path-32" points="0 0 3.07672003 1.80456505 3.07672003 2.41704045 0 0.612475392"></polygon>
        <polygon id="path-34" points="0 0 3.07672003 1.80386588 3.07672003 2.41634127 0 0.612475392"></polygon>
        <polygon id="path-36" points="0 0 3.07672003 1.80386588 3.07672003 2.41634127 0 0.612475392"></polygon>
        <polygon id="path-38" points="0 0 3.07672003 1.80456505 3.07672003 2.41704045 0 0.612475392"></polygon>
        <polygon id="path-40" points="0 0 3.07672003 1.80456505 3.07672003 2.41704045 0 0.612475392"></polygon>
        <polygon id="path-42" points="0 0 3.07672003 1.80386588 3.07672003 2.41634127 0 0.612475392"></polygon>
        <polygon id="path-44" points="0 0 3.07672003 1.80386588 3.07672003 2.41634127 0 0.612475392"></polygon>
    </defs>
    <g id="光储充及工商储管理系统V1.3" stroke="none" stroke-width="1" fill="none" fill-rule="evenodd">
        <g id="3_2_8.设备监视_示范站站点拓扑_通信拓扑" transform="translate(-673.000000, -913.000000)">
            <g id="main" transform="translate(212.000000, 102.000000)">
                <g transform="translate(60.000000, 40.000000)" id="3">
                    <g transform="translate(0.000000, 245.000000)">
                        <g id="2" transform="translate(359.000000, 275.000000)">
                            <g id="3" transform="translate(17.000000, 251.000000)">
                                <g id="icon_直流充电桩" transform="translate(25.000000, 0.000000)">
                                    <rect id="BG" x="0" y="0" width="48" height="48"></rect>
                                    <g id="充电桩" transform="translate(14.000000, 0.000000)">
                                        <g id="正视图备份" transform="translate(7.309177, 4.352128)">
                                            <polygon id="矩形" fill="#DEDEDE" points="3.64356844e-15 7.48860547 12.6908226 0 12.6908226 36.1592664 0 43.6478719"></polygon>
                                            <polygon id="矩形备份-78" fill="#3F3F3F" points="1.82178422e-15 41.4012903 12.6908226 33.9126848 12.6908226 36.1592664 0 43.6478719"></polygon>
                                            <path d="M6.34541131,6.52578477 C7.59700914,5.78724145 8.61162964,6.3859491 8.61162964,7.86303575 L8.61162964,18.2401033 C8.61162964,19.71719 7.59700914,21.5133129 6.34541131,22.2518563 C6.22025153,22.3257106 6.09746152,22.3861924 5.97781893,22.4337606 L5.90641729,22.4607555 C4.86491511,22.8340611 4.07919299,22.2144415 4.07919299,20.9146053 L4.07919299,10.5375377 C4.07919299,9.06045106 5.09381349,7.26432809 6.34541131,6.52578477 Z" id="矩形" fill="#272727"></path>
                                            <polygon id="矩形" fill="#777777" points="4.98568032 11.3933783 7.70514231 9.78867715 7.70514231 11.7143186 4.98568032 13.3190197"></polygon>
                                            <g id="编组-54" transform="translate(4.713734, 7.570279)">
                                                <g id="椭圆形">
                                                    <use fill="#35E139" xlink:href="#path-1"></use>
                                                    <use fill="#22FFFF" xlink:href="#path-1"></use>
                                                </g>
                                                <g id="椭圆形备份-68">
                                                    <use fill="#35E139" xlink:href="#path-2"></use>
                                                    <use fill="#22FFFF" xlink:href="#path-2"></use>
                                                </g>
                                                <g id="椭圆形备份-69">
                                                    <use fill="#35E139" xlink:href="#path-3"></use>
                                                    <use fill="#22FFFF" xlink:href="#path-3"></use>
                                                </g>
                                                <g id="椭圆形备份-70">
                                                    <use fill="#35E139" xlink:href="#path-4"></use>
                                                    <use fill="#22FFFF" xlink:href="#path-4"></use>
                                                </g>
                                            </g>
                                            <g id="刷卡" transform="translate(5.620221, 13.571534)" fill-rule="nonzero">
                                                <path d="M1.02186676,1.54223676 L0.874626032,1.52285725 C0.812421947,1.50286567 0.803786556,1.41804608 0.849598035,1.31692492 C0.872576956,1.26614724 0.921169324,1.19399455 1.00035147,1.17631489 L1.01162138,1.17783884 L0.917802986,0.817189423 C0.912680296,0.796733407 0.893067714,0.794566953 0.874040582,0.812055507 L0.494229754,1.16122085 C0.475202622,1.17870941 0.463932706,1.20936013 0.469055395,1.22981615 L0.629761479,1.85743845 C0.634884169,1.87789447 0.654496751,1.88006092 0.673523883,1.86257237 L1.02186676,1.54223676 Z M1.22238346,0.997123113 L1.02113495,1.00126451 L1.0823145,1.24917036 L0.994789689,1.23751119 C0.956149975,1.23231107 0.906825794,1.27759059 0.884725048,1.33863294 C0.86432436,1.39497973 0.874228515,1.44500302 0.906264127,1.45645553 L0.915665836,1.4586165 L1.10661068,1.48231775 C1.12915051,1.48501782 1.14554312,1.50125852 1.15212943,1.52745973 L1.15754485,1.54948218 L1.37313689,1.35130735 L1.30229742,1.06527452 C1.29253991,1.02620026 1.26832685,1.00211449 1.23520916,0.997803461 L1.22238346,0.997123113 Z M0.396605931,1.14004229 C0.321375578,1.09504083 0.321375578,0.9496461 0.396605931,0.81603465 L0.42865933,0.835208423 C0.371138846,0.937499569 0.371138846,1.04880654 0.42865933,1.08321427 L0.396605931,1.14004229 Z M0.276295911,1.35399476 C0.134763322,1.26933249 0.134763322,0.995586906 0.276295911,0.743893423 L0.308349311,0.763067195 C0.184380227,0.98352674 0.184380227,1.22301065 0.308349311,1.29699283 L0.276295911,1.35399476 Z M0.155985892,1.56794724 C-0.0519952973,1.44371051 -0.0519952973,1.04178799 0.155985892,0.671926113 L0.188039291,0.691099885 C-0.00223202895,1.02946755 -0.00223202895,1.39730231 0.188039291,1.51111922 L0.155985892,1.56794724 Z M1.0537738,0.752260423 L1.0217204,0.73308665 C1.07924088,0.630795504 1.07924088,0.519488531 1.0217204,0.485080803 L1.0537738,0.428078866 C1.12900415,0.473080323 1.12900415,0.618475055 1.0537738,0.752260423 Z M1.17408382,0.824227733 L1.14203042,0.80505396 C1.20203907,0.698338006 1.235117,0.58403452 1.235117,0.483162577 C1.235117,0.382290633 1.20203907,0.307024432 1.14203042,0.271128328 L1.17408382,0.214126392 C1.24258149,0.255100481 1.28048939,0.341082152 1.28048939,0.456389219 C1.28048939,0.571696285 1.24272786,0.702329009 1.17408382,0.824227733 Z M1.29439384,0.896195043 L1.26234044,0.87702127 C1.45261176,0.53865361 1.45261176,0.17081885 1.26234044,0.0570019367 L1.29439384,0 C1.50237503,0.124584559 1.50237503,0.526507078 1.29439384,0.896195043 Z" id="形状" fill="#FFFFFF"></path>
                                                <g id="按钮" transform="translate(0.000000, 5.583750)">
                                                    <path d="M0.725189865,0.101130306 C0.324884249,0.337342797 0,0.912467946 0,1.38489293 C0,1.85731791 0.324884249,2.04902405 0.725188438,1.8128124 C1.12549405,1.57659991 1.45037973,1.00147392 1.45037973,0.529052302 C1.45037973,0.0566273206 1.12549405,-0.135081343 0.725189865,0.101130306 Z M0.725189865,1.64335565 C0.403205285,1.83335243 0.142136592,1.6810128 0.142136592,1.30101923 C0.142136592,0.921025662 0.403206711,0.45887196 0.725189865,0.268876018 C1.04717444,0.0788792341 1.30824171,0.232929907 1.30824171,0.612923475 C1.30682654,0.98448397 1.0596851,1.43098688 0.748635566,1.62897738 L0.725189865,1.64335565 Z" id="形状" fill="#CCCFD8"></path>
                                                    <path d="M0.335038085,1.18890211 C0.335038085,1.44887051 0.51361096,1.55424286 0.733893153,1.42425866 C0.947068088,1.29846831 1.12118256,0.998359212 1.13219393,0.743515232 L1.13274679,0.71818985 C1.13274679,0.458223133 0.954173919,0.352850782 0.733893153,0.482834141 C0.513612387,0.6128175 0.335038085,0.928935393 0.335038085,1.18890211 Z" id="路径" fill="#DA4648"></path>
                                                </g>
                                            </g>
                                            <g id="LOGO" transform="translate(4.787051, 4.244521)" fill="#C92128" fill-rule="nonzero">
                                                <path d="M0.789217127,1.3118696 C0.791676755,1.31525 0.790667657,1.31948301 0.789712943,1.32193437 L0.788762053,1.32394588 L0.502575225,1.79832705 L0.497935514,1.80891568 L0.497935514,1.80891568 L0.496006555,1.81913374 L0.496006555,2.07624124 C0.49599582,2.07991851 0.49412336,2.08419114 0.491337857,2.08751246 L0.486593414,2.09158763 L0.303648109,2.19581285 C0.300182287,2.19778736 0.297153943,2.19752604 0.295520139,2.19549871 L0.294234969,2.19119194 L0.294234969,1.93408444 L0.292279407,1.92607599 L0.292279407,1.92607599 L0.287617424,1.92079002 L0.00284794469,1.77168668 C0.000142766594,1.76862738 -0.000485264815,1.76670697 0.000335819051,1.76400506 L0.00238309406,1.76013449 L0.00238309406,1.76013449 L0.00547736801,1.75725037 L0.155139452,1.67169654 L0.163730687,1.66887584 L0.163730687,1.66887584 L0.171170137,1.66964457 L0.389949888,1.77759319 C0.39133923,1.77818288 0.393097809,1.77807193 0.394983913,1.77727561 L0.398597179,1.77468567 L0.398597179,1.77468567 L0.401708983,1.77089395 L0.62045941,1.41368131 L0.62790184,1.40444186 L0.62790184,1.40444186 L0.636490095,1.39746769 L0.76730635,1.32294075 L0.786122852,1.31251114 L0.789217127,1.3118696 Z M1.24668792,1.27369859 L1.24738461,1.2744837 L1.24685357,1.27701462 L1.23582777,1.30728963 L1.21584012,1.35253592 L1.21584012,1.35253592 L1.19193654,1.39709555 L1.17935873,1.41977978 C1.1153973,1.53879109 1.10120469,1.62711275 1.12933152,1.72558073 C1.09985491,1.73824379 1.07112481,1.74583725 1.04409125,1.74811002 C1.03536065,1.72057147 1.02735111,1.6850469 1.03678327,1.64733658 C1.04900221,1.59808645 1.04861245,1.56788364 1.03536065,1.55240794 C1.02677378,1.54249573 1.01367605,1.5394028 0.995561854,1.54309896 L0.975756774,1.54905703 L0.957027568,1.55532915 C0.936442487,1.56132683 0.916656487,1.56408146 0.898155365,1.56354093 L0.871428064,1.56025222 L0.867588843,1.55935977 L0.868373649,1.53355741 L0.872540275,1.49656778 L0.872540275,1.49656778 L0.880256102,1.45821257 L0.897425339,1.46290245 C0.949381026,1.47399363 1.01239733,1.46028056 1.07735717,1.42338003 C1.1245798,1.39667994 1.17100728,1.35860301 1.21293152,1.31243159 L1.24347241,1.27633659 L1.24499042,1.27466603 L1.24668792,1.27369859 Z M0.98495739,1.60258351 L0.992302039,1.60488331 C0.994570436,1.60752638 0.997119459,1.61534054 0.992994563,1.63859505 L0.988540866,1.65909146 L0.98498756,1.67736958 C0.981170272,1.70138585 0.981038936,1.7238938 0.984643276,1.74381252 C0.929387499,1.72993649 0.890682042,1.68770191 0.875130775,1.62431478 C0.903699578,1.62498128 0.934740809,1.6190477 0.966967712,1.60676 L0.976369231,1.60321969 L0.976369231,1.60321969 L0.98495739,1.60258351 Z M1.36797114,1.03077584 C1.39017901,1.0386546 1.4094501,1.05152653 1.425178,1.06898658 C1.41522245,1.09323796 1.40713592,1.11745011 1.40103382,1.14123258 L1.39338342,1.17653522 L1.38730512,1.21895268 C1.38200719,1.24936734 1.37237507,1.28115674 1.35877283,1.31298167 L1.34155202,1.34751812 L1.34155202,1.34751812 L1.32190164,1.38130928 L1.30017024,1.41882653 C1.2897707,1.43763359 1.28052873,1.45635189 1.27450696,1.47425502 C1.2529551,1.53460405 1.25227884,1.59064704 1.2726556,1.6276821 C1.24344048,1.6555878 1.21274888,1.67943623 1.18168588,1.69836872 C1.15448802,1.61464685 1.16089849,1.54557975 1.20687707,1.45265696 L1.2290221,1.41126007 L1.24267462,1.38656084 C1.29144631,1.29525071 1.30681059,1.23054931 1.31097459,1.1917174 L1.31213818,1.17665685 L1.3125182,1.17209985 L1.32562438,1.14600208 L1.33510318,1.1256082 L1.33510318,1.1256082 L1.34376711,1.10512541 L1.35312521,1.08020102 C1.35894013,1.06361272 1.36390122,1.04709943 1.36797114,1.03077584 Z M1.45344526,1.11395961 L1.45894022,1.12855235 C1.49911669,1.24808159 1.44145952,1.43524924 1.31810149,1.57949967 C1.30378769,1.55283698 1.30464658,1.51261347 1.32044979,1.46952522 L1.33757555,1.43281415 L1.33757555,1.43281415 L1.35835384,1.39708511 L1.37437399,1.37006657 C1.38460716,1.35188412 1.39393183,1.33338893 1.40226018,1.3147457 C1.41562666,1.28336854 1.42579365,1.25202378 1.43251991,1.22159364 L1.43999858,1.17674468 L1.4427269,1.15801435 C1.44519258,1.1436377 1.44878055,1.12889038 1.45344526,1.11395961 Z M1.32419148,1.02200618 C1.3036669,1.12785622 1.23694852,1.24101874 1.14956668,1.31819115 C1.07310757,1.38571701 0.991184623,1.41654137 0.92802771,1.40316959 L0.902180041,1.39471109 C0.911573499,1.36376468 0.925646415,1.33367434 0.942110837,1.30430204 C0.990375794,1.32308068 1.05779584,1.30113093 1.12027937,1.24629623 C1.16825063,1.20439882 1.20874005,1.14702834 1.23273455,1.08695566 C1.2402808,1.06799318 1.24607129,1.04908902 1.24997164,1.03068184 C1.27602199,1.02345857 1.30098632,1.02054045 1.32419148,1.02200618 Z M2.18203738,0.521960764 L2.18333773,0.526315393 L2.18333773,0.604422163 L2.18259022,0.608774187 L2.17914418,0.615177709 L2.17914418,0.615177709 L2.17382684,0.61993827 L1.97949388,0.730651127 L1.97949388,1.2311088 C1.97947239,1.23507958 1.97744533,1.23968843 1.97443751,1.24326486 L1.96931831,1.24764635 L1.786373,1.35187158 C1.78264062,1.35399795 1.77937659,1.35372297 1.77760574,1.35154948 L1.77619742,1.34692822 L1.77619742,0.846470548 L1.58186447,0.957183402 C1.57836055,0.959175803 1.57529712,0.958911992 1.57364415,0.956863061 L1.5723438,0.952509701 L1.5723438,0.87440293 C1.5723438,0.870686644 1.57423926,0.86635769 1.5770602,0.862997435 L1.58186447,0.858881252 L2.17381706,0.521641692 C2.17732098,0.51964548 2.18038441,0.519910559 2.18203738,0.521960764 Z M1.20279133,1.04797035 C1.19133582,1.09823481 1.16160592,1.15092578 1.12212251,1.1909415 C1.09053577,1.22295408 1.05549641,1.24402727 1.02359002,1.25079728 L1.00035056,1.25314038 L0.988004071,1.25197335 L0.976516803,1.24901558 C1.03953293,1.15739245 1.12125177,1.08478515 1.20279133,1.04797035 Z M2.56633478,0.299654044 L2.56942309,0.301829358 L2.78027547,0.75716991 L2.78366733,0.766641505 C2.78411706,0.769901767 2.78325424,0.773957051 2.78126272,0.777943238 L2.77766546,0.783829619 L2.77766546,0.783829619 L2.77300301,0.788682587 L2.76179131,0.796106698 L2.62178673,0.875868291 L2.61051638,0.881936604 C2.60866201,0.882786414 2.60689018,0.883081305 2.60537483,0.882792334 L2.60216839,0.882148995 L2.60216839,0.882148995 L2.60006711,0.879782448 L2.47523088,0.610652291 L2.47140541,0.603337131 L2.46865459,0.59967486 C2.46622217,0.597167228 2.46221777,0.596980032 2.45782411,0.599168565 L2.45088311,0.603984363 L2.45088311,0.603984363 L2.44511686,0.611456818 L2.44008283,0.625002994 L2.39724962,0.764886037 L2.39680975,0.765312874 L2.37139826,0.846664228 L2.3410429,0.945312905 L2.32740389,0.991181665 L2.32284378,1.00800603 L2.31475024,1.03449185 L2.30986284,1.04801669 L2.30854081,1.05040817 L2.3069304,1.05264199 L2.30479904,1.055128 L2.30244376,1.05716783 L2.29123206,1.06419799 L2.14662355,1.14658247 C2.1428747,1.14864043 2.13914758,1.15021747 2.13551937,1.15128095 C2.1330379,1.1517287 2.13093681,1.15109912 2.12955673,1.14949428 C2.12810158,1.14787917 2.12736021,1.14545568 2.1274151,1.14253081 L2.12823307,1.13620901 L2.12823307,1.13620901 L2.12978155,1.12963735 L2.34128885,0.431799042 L2.34440641,0.426088373 L2.34440641,0.426088373 L2.34900117,0.421838072 L2.56175964,0.300628072 L2.56633478,0.299654044 Z M3.09090909,0.0013477606 L3.09090909,0.606488323 C3.09090909,0.607692228 3.09005255,0.609156161 3.08899595,0.609758112 L2.88957465,0.723369831 C2.88851805,0.723971785 2.88766151,0.723483805 2.88766151,0.722279903 L2.88766151,0.117139339 C2.88766151,0.115935437 2.88851805,0.114471503 2.88957465,0.113869551 L3.08899595,0.000257831284 C3.09005255,-0.000344120055 3.09090909,0.000143857921 3.09090909,0.0013477606 Z" id="形状结合"></path>
                                            </g>
                                            <g id="LOGO备份-18" transform="translate(5.127867, 26.837858)" fill="#C92128" fill-rule="nonzero">
                                                <g id="组_4">
                                                    <path d="M0.507191101,0.907996838 C0.65011038,0.912695246 0.821558902,0.823446382 0.972397841,0.665829846 C1.12323678,0.508213311 1.23681426,0.299629194 1.28057786,0.0998597478 C0.969071372,0.242752798 0.656879961,0.528271684 0.416138732,0.890444265 C0.43720026,0.898368772 0.45962844,0.903658449 0.483219694,0.906274049 L0.507191101,0.907996838 Z" id="路径_10"></path>
                                                    <path d="M0.124629698,1.46420131 L0.13214915,1.46756729 C0.382328042,1.58973676 0.743417308,1.47765373 1.07724315,1.1742077 C1.41106899,0.870761665 1.66595396,0.422927167 1.74436423,0.00207178537 C1.65571332,-0.00485489539 1.56034179,0.00560585901 1.46082134,0.0331719719 C1.4459208,0.10634266 1.42379934,0.181405403 1.39497031,0.256618375 C1.30330385,0.494887225 1.14862165,0.72161593 0.965356493,0.88633391 C0.726649953,1.10192842 0.469084384,1.18624441 0.284697231,1.10915274 C0.22179801,1.22543193 0.168035084,1.3446844 0.124629698,1.46420131 Z" id="路径_11"></path>
                                                    <path d="M1.81914927,0.334220385 C1.78763613,0.415570445 1.75132176,0.496625786 1.71060114,0.576504725 C1.70627746,0.584030821 1.70262911,0.591827264 1.69976867,0.599653509 L1.69847083,0.608998645 L1.69847083,0.608998645 L1.697418,0.634909803 L1.69438067,0.672699893 L1.6891366,0.717202936 C1.68806464,0.725052071 1.68688826,0.733117311 1.68559925,0.741398837 L1.67644835,0.79368492 C1.67290392,0.811979746 1.66884353,0.831141194 1.66420169,0.851170736 L1.64846634,0.913865118 C1.60737475,1.06623554 1.53458301,1.2612147 1.40762741,1.49930749 L1.38078758,1.54880776 C1.1301516,2.00355961 1.08120072,2.30797919 1.19994849,2.69072978 C1.31861882,2.61673662 1.4358703,2.52313587 1.54748116,2.41329773 C1.46963558,2.26475848 1.47221908,2.04145707 1.55455391,1.80197269 C1.58437528,1.70985428 1.63486893,1.6125304 1.68887052,1.51609629 L1.73561635,1.43379855 C1.78861806,1.34593426 1.83584965,1.25521194 1.87647578,1.16323607 C1.94143175,1.00550243 1.98268916,0.847699758 1.9975315,0.700218276 L2.008699,0.621112132 C2.03212979,0.482390134 2.07311427,0.338280119 2.1301642,0.194015066 C2.07007874,0.123700347 1.99645717,0.0715036669 1.91161618,0.03906752 C1.89295815,0.11689901 1.86939757,0.195759051 1.84118092,0.274860926 L1.81914927,0.334220385 Z" id="路径_12"></path>
                                                    <path d="M2.23815395,0.374556549 C2.2203333,0.433837888 2.20662613,0.49243852 2.19720644,0.549614539 L2.18678344,0.62412784 L2.18678344,0.62412784 C2.16830152,0.799013453 2.11920715,0.985680107 2.04261099,1.17230048 C1.99488567,1.28315669 1.93859624,1.39258074 1.8748751,1.49837126 C1.81758434,1.59072745 1.76875554,1.68747193 1.73006982,1.78527387 C1.66969666,1.95624246 1.66641541,2.11649422 1.7210986,2.22341558 C2.20237525,1.64225672 2.42187757,0.879522433 2.24885828,0.402855051 L2.23815395,0.374556549 Z" id="路径_13"></path>
                                                    <path d="M0.462074392,2.52517184 C0.471501625,2.48591456 0.477790324,2.45362675 0.481751298,2.42706947 L0.486048314,2.39137659 L0.486048314,2.39137659 L0.487461847,2.36335029 C0.487490929,2.3592665 0.487425203,2.35546344 0.487277339,2.35192174 L0.485505843,2.33365304 C0.484228615,2.32593202 0.482440179,2.32021482 0.480482594,2.31597878 L0.476443245,2.3093267 C0.451307473,2.29396172 0.41658083,2.29621977 0.379658225,2.31562001 C0.256541424,2.36307903 0.137954254,2.38527219 0.0288125291,2.38127949 C0.0882232159,2.63460678 0.236090115,2.80472383 0.447184389,2.86260552 C0.431884716,2.77422181 0.434204123,2.67331539 0.453882013,2.56579182 L0.462074392,2.52517184 Z" id="路径_14"></path>
                                                    <path d="M0.0146670262,2.12581499 C0.121533751,2.15222131 0.244028991,2.14337922 0.374020856,2.10009937 L0.413235182,2.0860831 C0.522825604,2.04375543 0.597201169,2.04902235 0.640940553,2.10222534 C0.691566563,2.16451649 0.693055563,2.28489388 0.646375404,2.48058545 C0.610341597,2.63042095 0.640940553,2.77236216 0.67429416,2.88251265 C0.777570771,2.87472043 0.88732869,2.84580447 0.999938525,2.79672094 C0.889846895,2.39333992 0.949465546,2.03448071 1.20940152,1.54550186 L1.2391092,1.49062653 C1.32664693,1.33572062 1.39758913,1.17477974 1.44890934,1.01466979 C1.45181289,1.00536092 1.45162677,1.00155683 1.44827652,1.00144758 C1.44539417,1.00237281 1.44241052,1.00438755 1.43973153,1.00714938 L1.43599226,1.01180962 C1.24764673,1.25863471 1.02688678,1.45977102 0.801380335,1.59001006 C0.539426467,1.74202107 0.285745429,1.79117845 0.0813007786,1.73040641 L0.0483928831,1.71959686 C0.0208105337,1.83744736 0.00489216768,1.95186602 0.000963616105,2.06019657 L0,2.12207889 L0.0146670262,2.12581499 Z" id="路径_15"></path>
                                                </g>
                                            </g>
                                            <g id="闪电" transform="translate(6.726964, 34.342486) scale(-1, 1) rotate(-4.000000) translate(-6.726964, -34.342486) translate(5.539853, 32.322340)">
                                                <polygon id="三角形" fill="#FBC70E" points="1.18711136 0 2.37422272 4.04029249 0 2.24460694"></polygon>
                                                <path d="M1.18711136,0 L2.37422272,4.04029249 L0,2.24460694 L1.18711136,0 Z M1.15624647,0.319183107 L0.159072923,2.20330617 L2.1522329,3.71033527 L1.15624647,0.319183107 Z" id="三角形备份-2" fill="#04010F" fill-rule="nonzero"></path>
                                                <g id="lightning-b-闪电" transform="translate(0.593556, 0.598562)" fill-rule="nonzero">
                                                    <polygon id="矩形" fill="#000000" opacity="0" points="-5.11439149e-13 7.59030425e-13 1.18711136 0.897842777 1.18711136 2.69352833 -5.10817857e-13 1.79568555"></polygon>
                                                    <path d="M0.504172224,2.06865781 L0.500385843,2.06494906 L0.500385843,2.06494906 L0.497680209,2.060465 C0.490103679,2.0514138 0.486184125,2.04274729 0.485913232,2.0343719 L0.553954388,1.47774049 L0.261773126,1.2567563 C0.254562352,1.25130261 0.249510173,1.24310979 0.246618908,1.23219364 C0.24229708,1.2202639 0.243016998,1.21099 0.248789096,1.20437454 L0.698958186,0.654376575 C0.704729124,0.645640143 0.711221139,0.648438888 0.718434232,0.662555361 C0.725645006,0.670187025 0.729256189,0.681717816 0.729256189,0.696930289 L0.662160052,1.2452939 L0.919712209,1.44008721 C0.926922983,1.4455409 0.931975163,1.45379158 0.934865269,1.46463672 C0.936306264,1.47445775 0.936306264,1.48427615 0.934865269,1.49410946 L0.519326442,2.07029918 C0.514995341,2.07356088 0.509943162,2.07302252 0.504172224,2.06865781 Z" id="路径" fill="#231815"></path>
                                                </g>
                                            </g>
                                        </g>
                                        <g id="侧视图" transform="translate(0.000000, 7.488605)">
                                            <g id="矩形备份-80">
                                                <use fill="#CCCCCD" xlink:href="#path-5"></use>
                                                <use fill="#BCBEC0" xlink:href="#path-5"></use>
                                            </g>
                                            <path d="M3.04503354,27.2236776 L3.06391126,27.2247732 C3.10414956,27.228946 3.14812892,27.244847 3.19433911,27.2727774 C3.39337818,27.3930806 3.55448121,27.6857364 3.55448121,27.9262621 C3.55448121,28.036046 3.52072087,28.1161797 3.46025265,28.1527279 C3.43125404,28.1702552 3.39656481,28.1771374 3.35817405,28.1731562 C3.31793575,28.1689834 3.27395638,28.1530824 3.22774619,28.1251521 C3.02870713,28.0048489 2.86760409,27.712193 2.86760409,27.4716674 C2.86760409,27.3618834 2.90136443,27.2817498 2.96183265,27.2452016 C2.99083126,27.2276743 3.02552049,27.220792 3.06391126,27.2247732 L3.04503354,27.2236776 Z" id="椭圆形备份-171" stroke="#86878D" stroke-width="0.519230769" fill="#6C727C" fill-rule="nonzero"></path>
                                            <g id="通风口" transform="translate(1.281967, 3.013536)">
                                                <g id="编组">
                                                    <g>
                                                        <mask id="mask-7" fill="white">
                                                            <use xlink:href="#path-6"></use>
                                                        </mask>
                                                        <g id="Clip-1297"></g>
                                                        <polygon id="Fill-1296" fill="url(#linearGradient-8)" mask="url(#mask-7)" points="0 0.612475392 3.07672003 2.41704045 3.07672003 1.80456505 0 0"></polygon>
                                                    </g>
                                                    <g transform="translate(0.000000, 1.208171)">
                                                        <mask id="mask-10" fill="white">
                                                            <use xlink:href="#path-9"></use>
                                                        </mask>
                                                        <g id="Clip-1299"></g>
                                                        <polygon id="Fill-1298" fill="url(#linearGradient-11)" mask="url(#mask-10)" points="0 0.612475392 3.07672003 2.41704045 3.07672003 1.80456505 0 0"></polygon>
                                                    </g>
                                                    <g transform="translate(0.000000, 2.417040)">
                                                        <mask id="mask-13" fill="white">
                                                            <use xlink:href="#path-12"></use>
                                                        </mask>
                                                        <g id="Clip-1301"></g>
                                                        <polygon id="Fill-1300" fill="url(#linearGradient-14)" mask="url(#mask-13)" points="0 0.612475392 3.07672003 2.41634127 3.07672003 1.80386588 0 0"></polygon>
                                                    </g>
                                                    <g transform="translate(0.000000, 3.625211)">
                                                        <mask id="mask-16" fill="white">
                                                            <use xlink:href="#path-15"></use>
                                                        </mask>
                                                        <g id="Clip-1303"></g>
                                                        <polygon id="Fill-1302" fill="url(#linearGradient-17)" mask="url(#mask-16)" points="0 0.612475392 3.07672003 2.41634127 3.07672003 1.80386588 0 0"></polygon>
                                                    </g>
                                                    <g transform="translate(0.000000, 4.833382)">
                                                        <mask id="mask-19" fill="white">
                                                            <use xlink:href="#path-18"></use>
                                                        </mask>
                                                        <g id="Clip-1305"></g>
                                                        <polygon id="Fill-1304" fill="url(#linearGradient-20)" mask="url(#mask-19)" points="0 0.612475392 3.07672003 2.41704045 3.07672003 1.80456505 0 0"></polygon>
                                                    </g>
                                                    <g transform="translate(0.000000, 6.041552)">
                                                        <mask id="mask-22" fill="white">
                                                            <use xlink:href="#path-21"></use>
                                                        </mask>
                                                        <g id="Clip-1307"></g>
                                                        <polygon id="Fill-1306" fill="url(#linearGradient-23)" mask="url(#mask-22)" points="0 0.612475392 3.07672003 2.41704045 3.07672003 1.80456505 0 0"></polygon>
                                                    </g>
                                                    <g transform="translate(0.000000, 7.250422)">
                                                        <mask id="mask-25" fill="white">
                                                            <use xlink:href="#path-24"></use>
                                                        </mask>
                                                        <g id="Clip-1309"></g>
                                                        <polygon id="Fill-1308" fill="url(#linearGradient-26)" mask="url(#mask-25)" points="0 0.612475392 3.07672003 2.41634127 3.07672003 1.80386588 0 0"></polygon>
                                                    </g>
                                                    <g transform="translate(0.000000, 8.458593)">
                                                        <mask id="mask-28" fill="white">
                                                            <use xlink:href="#path-27"></use>
                                                        </mask>
                                                        <g id="Clip-1311"></g>
                                                        <polygon id="Fill-1310" fill="url(#linearGradient-29)" mask="url(#mask-28)" points="0 0.612475392 3.07672003 2.41634127 3.07672003 1.80386588 0 0"></polygon>
                                                    </g>
                                                </g>
                                                <g id="编组备份-6" transform="translate(0.000000, 9.695724)">
                                                    <g id="编组">
                                                        <mask id="mask-31" fill="white">
                                                            <use xlink:href="#path-30"></use>
                                                        </mask>
                                                        <g id="Clip-1297"></g>
                                                        <polygon id="Fill-1296" fill="url(#linearGradient-8)" mask="url(#mask-31)" points="0 0.612475392 3.07672003 2.41704045 3.07672003 1.80456505 0 0"></polygon>
                                                    </g>
                                                    <g id="编组" transform="translate(0.000000, 1.208171)">
                                                        <mask id="mask-33" fill="white">
                                                            <use xlink:href="#path-32"></use>
                                                        </mask>
                                                        <g id="Clip-1299"></g>
                                                        <polygon id="Fill-1298" fill="url(#linearGradient-11)" mask="url(#mask-33)" points="0 0.612475392 3.07672003 2.41704045 3.07672003 1.80456505 0 0"></polygon>
                                                    </g>
                                                    <g id="编组" transform="translate(0.000000, 2.417040)">
                                                        <mask id="mask-35" fill="white">
                                                            <use xlink:href="#path-34"></use>
                                                        </mask>
                                                        <g id="Clip-1301"></g>
                                                    </g>
                                                    <g id="编组" transform="translate(0.000000, 3.625211)">
                                                        <mask id="mask-37" fill="white">
                                                            <use xlink:href="#path-36"></use>
                                                        </mask>
                                                        <g id="Clip-1303"></g>
                                                    </g>
                                                    <g id="编组" transform="translate(0.000000, 4.833382)">
                                                        <mask id="mask-39" fill="white">
                                                            <use xlink:href="#path-38"></use>
                                                        </mask>
                                                        <g id="Clip-1305"></g>
                                                    </g>
                                                    <g id="编组" transform="translate(0.000000, 6.041552)">
                                                        <mask id="mask-41" fill="white">
                                                            <use xlink:href="#path-40"></use>
                                                        </mask>
                                                        <g id="Clip-1307"></g>
                                                    </g>
                                                    <g id="编组" transform="translate(0.000000, 7.250422)">
                                                        <mask id="mask-43" fill="white">
                                                            <use xlink:href="#path-42"></use>
                                                        </mask>
                                                        <g id="Clip-1309"></g>
                                                    </g>
                                                    <g id="编组" transform="translate(0.000000, 8.458593)">
                                                        <mask id="mask-45" fill="white">
                                                            <use xlink:href="#path-44"></use>
                                                        </mask>
                                                        <g id="Clip-1311"></g>
                                                    </g>
                                                </g>
                                            </g>
                                            <g id="左边枪把" transform="translate(1.582815, 16.161170)" fill-rule="nonzero">
                                                <polygon id="矩形备份-262" fill="#CCCFD1" points="0.0713641179 0.516278414 0.98375902 0 0.98375902 2.91420683 0.0713641179 3.49357982"></polygon>
                                                <polygon id="矩形" fill="#DBDDDF" transform="translate(1.946238, 1.034175) scale(-1, 1) translate(-1.946238, -1.034175) " points="0.0713639806 1.55207138 2.9087177 0 3.82111261 0.516278414 0.983758883 2.06834979"></polygon>
                                                <g id="编组-106" transform="translate(0.000000, 0.423879)">
                                                    <g id="枪芯" transform="translate(1.639718, 3.042386) scale(-1, 1) translate(-1.639718, -3.042386) translate(0.855505, 2.074354)">
                                                        <path d="M0.974423827,1.80091991 C0.616595784,2.03337249 0.250865145,1.95722034 0.088318195,1.63956782 C0.268374105,1.73792474 0.509584499,1.71575768 0.742602296,1.56383035 C1.16495611,1.29100205 1.41994167,0.696110436 1.31198788,0.235427579 C1.2974877,0.172733995 1.27914498,0.114602001 1.24840461,0.0608807999 C1.39141258,0.128211371 1.49893137,0.27131711 1.54370066,0.472517144 C1.65154571,0.933426197 1.39656014,1.52828011 0.974423827,1.80091991" id="Fill-31" fill="#86878D"></path>
                                                        <path d="M0.088332695,1.63957158 C0.0622686324,1.59018578 0.0396483609,1.53209149 0.0247131817,1.4650248 C-0.0830956119,1.00430425 0.171853697,0.409450339 0.594098763,0.136584339 C0.830995357,-0.0196783818 1.0683632,-0.0375100505 1.24838287,0.0608845698 C1.27915948,0.11460577 1.2975022,0.172737765 1.31200238,0.235431349 C1.41991992,0.696114206 1.16493436,1.29096812 0.742616795,1.56383413 C0.509599,1.71576144 0.268352355,1.73792852 0.088332695,1.63957158 Z" id="Fill-33" fill="#5B5B5B"></path>
                                                        <path d="M0.782901904,1.22601259 C0.776159324,1.19566482 0.759919128,1.17406325 0.73835012,1.16392219 C0.711198543,1.14906875 0.675419365,1.15178309 0.639676435,1.17534502 C0.575984422,1.21651242 0.53752271,1.30623625 0.553799155,1.37571567 C0.556046683,1.38581903 0.559454223,1.39460292 0.56336927,1.40202963 C0.587910814,1.44998287 0.643047726,1.4614811 0.697024624,1.42638324 C0.760716639,1.38525354 0.799178349,1.29552971 0.782901904,1.22601259" id="Fill-37" fill="#86878D"></path>
                                                        <path d="M1.27847798,0.520896384 C1.2717354,0.490548618 1.2554952,0.468947041 1.23392619,0.458805986 C1.20677461,0.443952545 1.17099544,0.446666879 1.13525251,0.470228809 C1.07156049,0.511396215 1.03309878,0.601120044 1.04933898,0.670637163 C1.05162275,0.680702819 1.05503029,0.689486707 1.05894534,0.696951126 C1.08348689,0.744866668 1.1386238,0.75636489 1.19260069,0.721267038 C1.25629271,0.680137332 1.29475442,0.590413503 1.27847798,0.520896384" id="Fill-39" fill="#86878D"></path>
                                                        <path d="M0.321209115,0.881755827 C0.314466533,0.85140806 0.298226339,0.829806483 0.27665733,0.819665428 C0.249505754,0.804811987 0.213726574,0.807526322 0.177983646,0.831088253 C0.114291632,0.872255656 0.07582992,0.961979486 0.0921063653,1.03145891 C0.0943538923,1.04156226 0.0977614332,1.05034615 0.10167648,1.05777287 C0.126218025,1.10572611 0.181354936,1.11722433 0.235331834,1.08212648 C0.299023848,1.04099678 0.33748556,0.951272945 0.321209115,0.881755827" id="Fill-41" fill="#86878D"></path>
                                                        <path d="M0.822016123,0.727332822 C0.815273543,0.696985056 0.799033348,0.675383477 0.777464339,0.665242422 C0.750312764,0.650388982 0.714533584,0.653103317 0.678790654,0.676665247 C0.615098641,0.717832651 0.576636929,0.807556481 0.592913375,0.8770359 C0.595160901,0.887139257 0.598568443,0.895923144 0.602483489,0.903349865 C0.627025034,0.951303104 0.682161945,0.962801326 0.736138843,0.927703475 C0.799830857,0.88657377 0.838292568,0.79684994 0.822016123,0.727332822" id="Fill-43" fill="#86878D"></path>
                                                        <path d="M0.782974406,0.228615353 C0.776231824,0.198267587 0.759991629,0.176666009 0.738422621,0.166524954 C0.711271045,0.151671515 0.675491866,0.154385848 0.639748937,0.177947779 C0.576056922,0.219115183 0.537595211,0.308839012 0.553871656,0.378318432 C0.556119182,0.388421789 0.559526724,0.397205675 0.563441771,0.404632396 C0.587983315,0.452585636 0.643120228,0.464083858 0.697097125,0.428986007 C0.760789138,0.387856302 0.799250851,0.298132472 0.782974406,0.228615353" id="Fill-35" fill="#86878D"></path>
                                                    </g>
                                                    <polygon id="路径-34" fill="#92979C" points="2.78687648 4.71569808 2.86445095 4.69878741 2.90871784 4.60702591 2.81842539 4.60702591"></polygon>
                                                    <path d="M0.295058146,0.0306456714 L2.67069338,1.32362037 C2.80215066,1.39516795 2.90871784,1.56917025 2.90871784,1.7122654 L2.90871784,4.62177205 C2.90871784,4.69331962 2.85543425,4.72232 2.78970561,4.68654622 L2.43343715,4.49264183 L2.43343715,2.3770693 C2.43343715,2.23397415 2.32686997,2.05997185 2.19541268,1.98842427 L2.19541268,1.98842427 L0.77033884,1.21280671 C0.638881558,1.14125913 0.532314375,1.1992599 0.532314375,1.34235505 L0.532314375,1.34235505 L0.532314375,3.45792758 L1.48287576,3.975292 L0.176045915,3.26402319 C0.110317274,3.2282494 0.0570336831,3.14124824 0.0570336831,3.06970066 L0.0570336831,0.160194015 C0.0570336831,0.017098866 0.163600865,-0.0409019028 0.295058146,0.0306456714 Z" id="形状结合备份-56" fill="#82878D"></path>
                                                    <path d="M0.238024463,0.044474698 L2.6136597,1.33744939 C2.74511698,1.40899697 2.85168416,1.58299928 2.85168416,1.72609442 L2.85168416,4.63560108 C2.85168416,4.67641308 2.83434693,4.70338125 2.80725214,4.71238021 C2.78684701,4.71915733 2.76090778,4.71569809 2.73267193,4.70037525 L2.37640347,4.50647086 L2.37640347,2.39089833 C2.37640347,2.24780318 2.26983629,2.07380088 2.138379,2.0022533 L2.138379,2.0022533 L0.713305157,1.22663573 C0.581847875,1.15508816 0.475280692,1.21308893 0.475280692,1.35618408 L0.475280692,1.35618408 L0.475280692,3.4717566 L1.42584208,3.98912102 L0.119012232,3.27785221 C0.0532835911,3.24207843 0,3.15507727 0,3.08352969 L0,0.174023041 C0,0.0309278926 0.106567182,-0.0270728762 0.238024463,0.044474698 Z" id="形状结合备份-57" fill="#979B9E"></path>
                                                    <g id="右" transform="translate(2.908718, 1.128192)" fill="#C8CBCC">
                                                        <polygon id="矩形" points="1.45926839e-17 0.516278414 1.04832004 4.60990168e-17 1.04832004 2.91420683 5.96009609e-13 3.49357982"></polygon>
                                                    </g>
                                                    <polygon id="路径-33" fill="#92979C" points="0.475280692 3.4717566 0.532314375 3.45792758 0.532314375 3.30220596 0.475280692 3.30220596"></polygon>
                                                </g>
                                            </g>
                                            <polygon id="矩形备份-79" fill="#1E1E1E" points="2.07739315e-13 33.9126848 7.30917737 38.2648129 7.30917737 40.5113945 2.07739315e-13 36.1592664"></polygon>
                                        </g>
                                        <polygon id="矩形备份-82" fill="#F1F1F1" points="0 7.48860547 12.6908226 0 20 4.3521281 7.30917737 11.8407336"></polygon>
                                    </g>
                                </g>
                            </g>
                        </g>
                    </g>
                </g>
            </g>
        </g>
    </g>
</svg>