<?xml version="1.0" encoding="UTF-8"?>
<svg width="49px" height="48px" viewBox="0 0 49 48" version="1.1" xmlns="http://www.w3.org/2000/svg" xmlns:xlink="http://www.w3.org/1999/xlink">
    <title>icon_交流充电桩</title>
    <defs>
        <linearGradient x1="49.0258745%" y1="12.9250487%" x2="36.2830622%" y2="100%" id="linearGradient-1">
            <stop stop-color="#E5E5E5" offset="0%"></stop>
            <stop stop-color="#F1F1F1" offset="28.653878%"></stop>
            <stop stop-color="#DFDFDF" offset="54.1937158%"></stop>
            <stop stop-color="#D3D3D3" offset="100%"></stop>
        </linearGradient>
        <path d="M1.16767052,0.146345557 C1.03522885,0.249648302 0.916955353,0.368016032 0.815006065,0.49806681 L0.815006065,0.49806681 C0.613879525,0.753556637 0.474969771,1.05424142 0.412136977,1.37798484 L0.412136977,1.37798484 C0.412136977,1.37798484 0.103825084,2.81961155 0.0203560294,3.35672434 L0.0203560294,3.35672434 C0.0089598855,3.43020457 0.00187579603,3.48677512 0.000335776583,3.52059447 L0.000335776583,3.52059447 C-0.000280231197,3.53074028 2.77726934e-05,3.53842649 0.000643780473,3.54211588 L0.000643780473,3.54211588 C0.0255920956,3.64326648 0.211318441,3.7647087 0.356080269,3.80283233 L0.356080269,3.80283233 C0.399508818,3.81420793 0.438625312,3.81820476 0.468809693,3.81205579 L0.468809693,3.81205579 C0.476201787,3.81051855 0.483285876,3.80775151 0.490677969,3.80467702 L0.490677969,3.80467702 L0.760181373,3.71336477 C0.852274536,3.68261991 0.924347446,3.61036948 0.955455839,3.51813488 L0.955455839,3.51813488 L1.48922658,2.18718968 C1.56591955,1.95998513 1.68511705,1.7506126 1.84035102,1.57075514 L1.84035102,1.57075514 L1.84065902,1.57075514 C1.90164379,1.49973451 1.96817263,1.4333256 2.04055354,1.37245077 L2.04055354,1.37245077 C2.06673387,1.30788655 2.08121006,1.22948714 2.08121006,1.13909724 L2.08121006,1.13909724 C2.08121006,1.01857737 2.05564573,0.890986183 2.01067717,0.764624788 L2.01067717,0.764624788 C1.94661236,0.586612021 1.84373906,0.412288637 1.71745746,0.271477156 L1.71745746,0.271477156 C1.63830046,0.182624497 1.54990335,0.106377232 1.45627016,0.050729027 L1.45627016,0.050729027 C1.45288212,0.0488843351 1.44918607,0.0467321945 1.44549003,0.044580054 L1.44549003,0.044580054 C1.41499764,0.0270554811 1.38481326,0.0119904973 1.35555289,0 L1.35555289,0 L1.16767052,0.146345557 Z" id="path-2"></path>
    </defs>
    <g id="光储充及工商储管理系统V1.3" stroke="none" stroke-width="1" fill="none" fill-rule="evenodd">
        <g id="3_2_8.设备监视_示范站站点拓扑_通信拓扑" transform="translate(-917.000000, -913.000000)">
            <g id="main" transform="translate(212.000000, 102.000000)">
                <g transform="translate(60.000000, 40.000000)" id="3">
                    <g transform="translate(0.000000, 245.000000)">
                        <g id="2" transform="translate(359.000000, 275.000000)">
                            <g id="3" transform="translate(17.000000, 251.000000)">
                                <g id="编组3" transform="translate(251.000000, 0.000000)">
                                    <g id="icon_交流充电桩" transform="translate(18.500000, 0.000000)">
                                        <rect id="BG" x="0" y="0" width="48" height="48"></rect>
                                        <g id="交流桩-单枪" transform="translate(24.500000, 24.000000) scale(-1, 1) translate(-24.500000, -24.000000) translate(17.000000, 0.000000)">
                                            <g id="底座" transform="translate(0.000000, 40.403937)">
                                                <polygon id="矩形备份-269" fill="#E6E7E8" transform="translate(5.998969, 3.498187) scale(-1, 1) translate(-5.998969, -3.498187) " points="0 4.99741002 8.56995597 0 11.9979384 1.99896401 3.42798239 6.99637403"></polygon>
                                                <polygon id="矩形备份-274" fill="#A7A9AC" points="-8.39066162e-13 1.99896401 8.56995597 6.99637403 8.56995597 7.59606324 -8.39066162e-13 2.59865321"></polygon>
                                                <polygon id="矩形备份-273" fill="#BCBEC0" points="8.56995597 6.99637403 11.9979384 4.99741002 11.9979384 5.59709923 8.56995597 7.59606324"></polygon>
                                            </g>
                                            <polygon id="矩形备份-276" fill="#DEDEDE" points="3.88361424 14.2579252 7.31159662 16.2568892 7.31159662 45.2418673 3.88361424 43.2429033"></polygon>
                                            <polygon id="矩形备份-275" fill="#BCBEC0" points="7.28726533 16.2344829 8.31566004 15.6347937 8.31566004 44.6197719 7.28726533 45.2194611"></polygon>
                                            <polygon id="矩形备份-271" fill="#BCBEC0" points="8.85393933 5.91825311 12.2819217 3.9192891 12.2538173 14.6620419 8.82583489 16.6610059"></polygon>
                                            <polygon id="矩形备份-270" fill="#D2D6D9" transform="translate(7.096488, 2.959127) scale(-1, 1) translate(-7.096488, -2.959127) " points="1.91105523 3.9192891 8.85393933 -8.01608259e-14 12.2819217 1.99896401 5.33903762 5.91825311"></polygon>
                                            <path d="M2.4018657,4.2598743 L8.63038761,0.679422227 C8.78190396,0.592323389 8.96843044,0.592901982 9.11940353,0.680939122 L9.56093117,0.938407737 L9.56093117,0.938407737 L9.79541473,6.37790905 L9.10981825,13.5081341 L2.85372514,17.071981 L2.26939339,16.8753598 C2.0711731,16.8086608 1.93749468,16.623065 1.93703697,16.4139243 L1.9122942,5.10814024 C1.91152801,4.75804204 2.09834267,4.43435384 2.4018657,4.2598743 Z" id="矩形备份-277" fill="url(#linearGradient-1)" transform="translate(5.853235, 8.805298) scale(-1, 1) translate(-5.853235, -8.805298) "></path>
                                            <g id="按钮" transform="translate(10.422983, 9.303239)" fill-rule="nonzero">
                                                <path d="M0.438462864,0.0590518604 C0.196430873,0.196980656 0,0.532806755 0,0.808663364 C0,1.08452194 0.196430873,1.19646266 0.438462864,1.05853387 C0.680493992,0.920605561 0.876925727,0.58477897 0.876925727,0.308922362 C0.876925727,0.0330657528 0.680493992,-0.078876444 0.438462864,0.0590518604 Z M0.438462864,0.959585459 C0.243785183,1.07052806 0.0859383453,0.981574158 0.0859383453,0.75968896 C0.0859383453,0.537803762 0.243786046,0.267943759 0.438462864,0.157001651 C0.633140544,0.0460590523 0.79098652,0.136012059 0.79098652,0.357897257 C0.790155652,0.56857778 0.649231204,0.820521732 0.468870816,0.940789677 L0.438462864,0.959585459 Z" id="形状" fill="#3F3F3F"></path>
                                                <path d="M0.163254599,0.716793199 C0.163254599,0.893893556 0.289217708,0.965677207 0.444602056,0.877127028 C0.590845202,0.793786223 0.711027518,0.598123118 0.724660582,0.427742587 L0.725948507,0.396126113 C0.725948507,0.219026902 0.599985398,0.147243251 0.444602056,0.235792857 C0.289218714,0.324342462 0.163254599,0.539693988 0.163254599,0.716793199 Z" id="路径" fill="#DA4648"></path>
                                            </g>
                                            <g id="充电枪左边" transform="translate(5.959602, 11.680000)">
                                                <path d="M5.9699687,3.97148816 C6.95858261,8.57311836 7.18937915,11.4020896 7.18937915,16.9499352 C7.18937915,22.4977808 6.03833657,28.444577 4.32434537,29.7482079 C2.61035418,31.0518388 4.68319758,32.0630644 6.95858261,32.0630644 C9.23396764,32.0630644 9.23396764,31.2728648 8.84816531,30.7229008 C8.46236298,30.1729367 7.27887461,29.7482079 5.6727091,28.7239368 C4.0665436,27.6996656 -1.11440172,19.4614578 0.21621499,3.51142304" id="充电线" stroke="#6C727C" stroke-width="0.799753042"></path>
                                                <g id="充电枪头" transform="translate(5.357143, 2.181818) scale(-1, 1) translate(-5.357143, -2.181818) translate(4.285714, 0.000000)">
                                                    <path d="M0.748523533,0.135738355 L0.748523533,2.04683915 C0.748523533,2.17658248 0.853860863,2.3422973 0.983838505,2.41731477 L1.13137237,2.5021706 L1.66606712,2.81023415 L1.90754217,2.94981583 C2.03751981,3.02452585 2.14285714,2.98025325 2.14285714,2.85050992 L2.14285714,0.939101673 C2.14285714,0.933567597 2.14285714,0.927418624 2.14224114,0.9215771 C2.13330902,0.794908257 2.03166774,0.640261586 1.90754217,0.568626051 L0.983838505,0.0364324412 C0.853860863,-0.038585029 0.748523533,0.00599502499 0.748523533,0.135738355" id="Fill-209" fill="#86878D"></path>
                                                    <path d="M0.810216712,0.955181237 C0.810216712,0.985311204 0.812064736,1.01605607 0.814836771,1.04680093 C0.816684794,1.0649404 0.819148825,1.08307987 0.82192086,1.10121934 C0.827156926,1.13565359 0.834241016,1.17039529 0.842865125,1.20513699 C0.891529739,1.39882964 0.990706992,1.59528932 1.11945262,1.75792966 C1.14409293,1.78928942 1.16996526,1.81880449 1.19645359,1.84739721 C1.26452245,1.92026254 1.33905939,1.98328952 1.41698438,2.03217385 C1.4265325,2.03801538 1.43608062,2.0438569 1.44562874,2.04939098 C1.59501062,2.13516915 1.73207235,2.15546076 1.84048972,2.11948927 L1.84048972,2.11948927 C1.92981085,2.0893593 1.99941973,2.0217206 2.04038425,1.92118489 L2.04069225,1.92118489 C2.06687258,1.85631323 2.08134877,1.77822127 2.08134877,1.68752392 C2.08134877,1.56761894 2.05578444,1.43941286 2.01081588,1.31335891 C1.94705907,1.1350387 1.84387777,0.96133021 1.71759617,0.819903832 C1.63813117,0.731051172 1.54973405,0.655111356 1.45640887,0.599463151 C1.45271283,0.59731101 1.44932478,0.595466318 1.44562874,0.593314178 C1.41513635,0.575789605 1.38495197,0.560724621 1.3556916,0.548734124 C1.04737971,0.421142935 0.810216712,0.588394999 0.810216712,0.955181237" id="Fill-215" fill="#686868"></path>
                                                    <g id="充电枪" transform="translate(0.000000, 0.548703)">
                                                        <g id="编组" transform="translate(0.000108, 0.000000)">
                                                            <mask id="mask-3" fill="white">
                                                                <use xlink:href="#path-2"></use>
                                                            </mask>
                                                            <use id="Clip-220" fill="#D8D8D8" xlink:href="#path-2"></use>
                                                            <path d="M1.16767052,0.146345557 C1.03522885,0.249648302 0.916955353,0.368016032 0.815006065,0.49806681 L0.815006065,0.49806681 C0.613879525,0.753556637 0.474969771,1.05424142 0.412136977,1.37798484 L0.412136977,1.37798484 C0.412136977,1.37798484 0.103825084,2.81961155 0.0203560294,3.35672434 L0.0203560294,3.35672434 C0.0089598855,3.43020457 0.00187579603,3.48677512 0.000335776583,3.52059447 L0.000335776583,3.52059447 C-0.000280231197,3.53074028 2.77726934e-05,3.53842649 0.000643780473,3.54211588 L0.000643780473,3.54211588 C0.0255920956,3.64326648 0.211318441,3.7647087 0.356080269,3.80283233 L0.356080269,3.80283233 C0.399508818,3.81420793 0.438625312,3.81820476 0.468809693,3.81205579 L0.468809693,3.81205579 C0.476201787,3.81051855 0.483285876,3.80775151 0.490677969,3.80467702 L0.490677969,3.80467702 L0.760181373,3.71336477 C0.852274536,3.68261991 0.924347446,3.61036948 0.955455839,3.51813488 L0.955455839,3.51813488 L1.48922658,2.18718968 C1.56591955,1.95998513 1.68511705,1.7506126 1.84035102,1.57075514 L1.84035102,1.57075514 L1.84065902,1.57075514 C1.90164379,1.49973451 1.96817263,1.4333256 2.04055354,1.37245077 L2.04055354,1.37245077 C2.06673387,1.30788655 2.08121006,1.22948714 2.08121006,1.13909724 L2.08121006,1.13909724 C2.08121006,1.01857737 2.05564573,0.890986183 2.01067717,0.764624788 L2.01067717,0.764624788 C1.94661236,0.586612021 1.84373906,0.412288637 1.71745746,0.271477156 L1.71745746,0.271477156 C1.63830046,0.182624497 1.54990335,0.106377232 1.45627016,0.050729027 L1.45627016,0.050729027 C1.45288212,0.0488843351 1.44918607,0.0467321945 1.44549003,0.044580054 L1.44549003,0.044580054 C1.41499764,0.0270554811 1.38481326,0.0119904973 1.35555289,0 L1.35555289,0 L1.16767052,0.146345557 Z" id="Fill-219" mask="url(#mask-3)"></path>
                                                        </g>
                                                        <g id="编组" transform="translate(0.000000, 0.050760)">
                                                            <path d="M1.24567261,0.46052733 C1.59987709,0.672974346 1.41723078,0.871586173 1.2050161,1.23314578 C0.992801418,1.59439795 0.606256536,2.06540927 0.481206957,2.01560259 C0.356465382,1.96579591 0.430386315,1.33737088 0.587160295,0.940147222 C0.743934275,0.543231017 0.922576531,0.359069276 0.994033434,0.359069276 C1.06549034,0.359069276 1.24567261,0.46052733 1.24567261,0.46052733" id="Fill-221" fill="#7EA82F"></path>
                                                            <path d="M0.000936491481,3.49144834 C0.0255768027,3.59259895 0.211611152,3.71404116 0.35637298,3.75216479 C0.399493525,3.76354039 0.438610019,3.76722978 0.469102404,3.7610808 C0.476186494,3.75954356 0.483578587,3.75739142 0.490662676,3.75400949 L0.76016608,3.66269724 C0.852259243,3.63164492 0.924332154,3.55939449 0.955440546,3.46746735 L1.48921129,2.13652215 C1.56590426,1.9093176 1.68510176,1.69963762 1.84033572,1.52008761 L1.84064373,1.52008761 C1.9016285,1.44906697 1.96815734,1.38265806 2.04053825,1.32178323 L2.04053825,1.32178323 C2.06671858,1.25691156 2.08119476,1.17881961 2.08119476,1.08812226 C2.08119476,0.967909835 2.05563044,0.840011197 2.01066187,0.713957251 C1.9096366,0.795738592 1.80245124,0.887973186 1.70512201,0.991890829 C1.5850005,1.12009692 1.47935516,1.26644247 1.41713838,1.43277219 C1.40512623,1.4650543 1.39465409,1.49825875 1.38602998,1.5320781 C1.24866025,2.07411007 1.27360856,2.39816095 1.12391867,2.80307082 C0.97392078,3.20798069 0.858727325,3.37000612 0.72135759,3.45424705 C0.583987855,3.53848798 0.462326319,3.56000939 0.390561412,3.54771144 C0.337892747,3.53848798 0.115821942,3.47115673 0.0206487404,3.30574936 C0.00925259651,3.37953703 0.00216850704,3.43610758 0.000320483701,3.46992693 C-0.000295524079,3.48038019 0,3.48745151 0.000936491481,3.49144834" id="Fill-223" fill="#7EA82F"></path>
                                                            <path d="M1.08957624,0.345264832 C1.2050777,0.382773567 1.36739575,0.494684875 1.36739575,0.494684875 C1.36739575,0.494684875 1.52786578,0.367093686 1.71759617,0.220440681 C1.63813117,0.131588021 1.54973405,0.0556482053 1.45640887,0 C1.29501484,0.140196584 1.13762485,0.282237859 1.08957624,0.345264832" id="Fill-225" fill="#EBECEB"></path>
                                                            <path d="M1.00225714,0.448044915 C1.18213141,0.504615466 1.34876151,0.613144839 1.34876151,0.694003834 C1.34876151,0.771173445 0.977616826,1.48476176 0.661604835,1.7485527 C0.61602026,1.78698378 0.544255353,1.76238789 0.535015237,1.70366519 C0.532551206,1.68829276 0.531935198,1.67199798 0.531011186,1.65662555 C0.527931147,1.60374438 0.579983805,1.10537013 0.734909761,0.800073618 C0.889835718,0.49477711 0.96837671,0.437284212 1.00225714,0.448044915" id="Fill-227" fill="#EBEBEB"></path>
                                                            <polygon id="Fill-229" fill="#7EA82F" points="0.362101853 2.38727726 0.407994432 2.80632977 0.276784775 2.73684638"></polygon>
                                                            <polygon id="Fill-231" fill="#7EA82F" points="0.325079785 2.76248759 0.197874179 2.69269675 0.258242941 3.15202503"></polygon>
                                                        </g>
                                                    </g>
                                                </g>
                                            </g>
                                            <g id="面板备份" transform="translate(1.911055, 0.938408)">
                                                <path d="M0.514197358,0.0709305801 L6.68456566,3.6690658 C6.96854902,3.8346654 7.19876302,4.2374004 7.19876302,4.5685996 L7.19876302,15.7627981 C7.19876302,16.0939973 6.96854902,16.2282423 6.68456566,16.0626427 L0.514197358,12.4645074 C0.230213999,12.2989078 0,11.8961728 0,11.5649736 L0,0.370775182 C0,0.0395759802 0.230213999,-0.0946690206 0.514197358,0.0709305801 Z" id="矩形" fill="#25272B"></path>
                                                <path d="M2.62170352,12.3738318 L2.62170352,12.2561193 L2.23756194,11.9706228 L2.23756194,12.0883352 L2.62170352,12.3738318 Z M2.51022714,12.8877256 L2.51022714,12.6865603 L2.64731296,12.9676646 L2.78289234,13.0467252 L2.51022714,12.477489 L2.51022714,12.3000419 L2.15470788,12.0927275 L2.15470788,12.208683 L2.39573789,12.3492351 L2.39573789,12.7058862 L2.31137738,12.656693 L2.31137738,12.7717701 L2.51022714,12.8877256 Z M2.70003828,12.6812896 L2.77987947,12.4625553 L2.66388378,12.3949146 L2.58102971,12.611892 L2.70003828,12.6812896 Z M2.21345894,12.7146708 L2.36259626,12.387887 L2.11855337,12.2455779 L2.11855337,12.3632904 L2.20592675,12.4142405 L2.09595681,12.6461516 L2.21345894,12.7146708 Z M3.03239536,12.9032079 L3.11524943,12.8794897 L3.33518932,13.0077436 L3.41201763,13.1245775 L3.5671807,13.215058 L3.49185882,13.0991025 L3.55663564,13.1368758 L3.55663564,13.0314617 L3.18002625,12.811849 L3.19358418,12.7881308 L3.53253264,12.9857823 L3.53253264,12.883882 L3.22070006,12.7020426 L3.22973869,12.6756891 L3.54458414,12.8592853 L3.54458414,12.757385 L3.25233525,12.5869655 L3.25986744,12.5544628 L3.14236531,12.4859437 L3.13483312,12.5184464 L2.88175161,12.3708666 L2.88175161,12.4727669 L3.11073012,12.6062915 L3.10018505,12.6317665 L2.89380311,12.5114188 L2.89380311,12.6133191 L3.06553699,12.7134625 L3.05047261,12.7363022 L2.86970011,12.6308881 L2.86970011,12.7363022 L2.96008636,12.7890093 L2.86970011,12.8083352 L3.03239536,12.9032079 Z M3.54006483,13.5040684 L3.54006483,13.3714223 L3.47528801,13.2985108 L3.53554551,13.222964 L3.40599188,13.1474173 L3.36682451,13.1843122 L3.26890606,13.0762627 L3.26890606,12.9954452 L3.15742968,12.9304399 L3.15742968,12.9778762 L3.04896618,12.9796331 L3.0218503,12.9234123 L2.88175161,12.8417163 L2.94502198,12.9805116 L2.88325804,12.9849038 L2.88325804,13.115793 L3.15742968,13.1096439 L3.15742968,13.1693785 L3.0700563,13.1184284 L3.0700563,13.2141795 L3.26890606,13.3301351 L3.26890606,13.2045166 L3.54006483,13.5040684 Z M4.14960643,13.8436991 L4.18576093,13.7549755 L4.23697981,13.8946492 L4.35146906,13.9614115 L4.23848624,13.646926 L4.31832743,13.4475177 L4.31832743,13.3262914 L4.33941756,13.3385897 L4.33941756,13.2191204 L4.19178668,13.1330322 L4.19630599,13.1040433 L4.09085536,13.0425518 L4.05168798,13.3851476 L4.1526193,13.4440039 L4.1767223,13.243717 L4.21438324,13.2656783 L4.21438324,13.3746062 L4.16316436,13.5063739 L4.06976524,13.4519099 L4.11947768,13.5898267 L4.03963648,13.7795721 L4.14960643,13.8436991 Z M3.89953779,13.3016948 L3.89953779,13.1716841 L4.03511717,13.2507446 L4.03511717,13.1523581 L3.89953779,13.0732976 L3.89953779,12.9309885 L3.79408716,12.8694969 L3.79408716,13.011806 L3.6434434,12.9239609 L3.6434434,13.0223474 L3.79408716,13.1101925 L3.79408716,13.2402032 L3.89953779,13.3016948 Z M3.78956785,12.9828171 L3.74136184,12.8563202 L3.63741765,12.795707 L3.68713009,12.9230824 L3.78956785,12.9828171 Z M4.00649486,13.109314 L4.05319442,13.0381595 L3.9522631,12.9793033 L3.90556354,13.0504578 L4.00649486,13.109314 Z M3.73985541,13.208579 L3.78806141,13.1330322 L3.68713009,13.074176 L3.63741765,13.1488443 L3.73985541,13.208579 Z M4.04867511,13.3886615 L4.00498842,13.2595292 L3.90556354,13.2015514 L3.94925023,13.3306837 L4.04867511,13.3886615 Z M4.03511717,13.7839644 L4.03511717,13.6794287 L3.95075667,13.5986112 L4.02758498,13.5819207 L4.02758498,13.4413685 L3.83626741,13.3298052 L3.85283822,13.3008164 L3.75040047,13.2410817 L3.73232322,13.2691921 L3.65097559,13.2217558 L3.65097559,13.3201423 L3.69014297,13.342982 L3.64796271,13.4097443 L3.75793266,13.5177937 L3.62988546,13.5406335 L3.78504853,13.6311139 L3.86037041,13.6170587 L4.03511717,13.7839644 Z M3.85283822,13.5081308 L3.78052922,13.4360978 L3.80161935,13.4079874 L3.92966654,13.4826557 L3.92966654,13.4931971 L3.85283822,13.5081308 Z M4.77119953,13.6606514 L4.72148709,13.4577293 L4.61453002,13.3953592 L4.63260727,13.4726629 L4.55427252,13.4269835 L4.59645277,13.3373815 L4.48648283,13.2732545 L4.39609657,13.4419171 L4.77119953,13.6606514 Z M5.0709806,13.9795291 L5.09508361,13.8354632 L4.99565873,13.7774854 L4.98812654,13.8205295 L4.88870166,13.7625517 L4.88870166,13.7379551 L5.0709806,13.7405905 L5.0709806,13.6158504 L4.88870166,13.6097013 L4.88870166,13.507801 L4.7862639,13.4480663 L4.7862639,13.8135019 L5.0709806,13.9795291 Z M4.51661158,14.0577113 L4.51661158,13.9145238 L4.64616521,13.9900705 L4.64616521,14.0216948 L4.58440127,13.9856783 L4.58440127,14.0972416 L4.74860296,14.1929927 L4.74860296,13.6738282 L4.41417382,13.4788121 L4.41417382,13.9979766 L4.51661158,14.0577113 Z M5.07700635,14.384495 L5.09659004,14.2316446 L4.99264585,14.1710314 L4.98511366,14.2228601 L4.88870166,14.1666392 L4.88870166,14.1244735 L5.07248704,14.1402857 L5.07248704,14.0137887 L4.88870166,14.0014904 L4.88870166,13.8995901 L4.7862639,13.8398554 L4.7862639,14.214954 L5.07700635,14.384495 Z" id="永泰数能" fill="#48A8FF" fill-rule="nonzero"></path>
                                                <g id="编组-67" transform="translate(2.570987, 9.082514)" fill="#FFFFFF" fill-rule="nonzero">
                                                    <g id="刷卡" transform="translate(0.216504, 0.634950)">
                                                        <path d="M1.14403693,1.92366702 L0.979192704,1.72303739 C0.909551755,1.62666941 0.899883953,1.53260552 0.951172463,1.48965156 C0.976898649,1.46805132 1.03130052,1.45701543 1.11994935,1.53727258 L1.13256665,1.55266887 L1.02753172,1.08229846 C1.02179658,1.05586409 0.999839197,1.0295481 0.978537259,1.02328362 L0.55331782,0.898300657 C0.532015883,0.892036173 0.519398581,0.908281778 0.525133718,0.934716153 L0.705053157,1.7501218 C0.710788294,1.77655618 0.732745676,1.80287216 0.754047613,1.80913665 L1.14403693,1.92366702 Z M1.36852657,1.63484841 L1.14321762,1.39075011 L1.21171154,1.70999499 L1.11372263,1.590597 C1.07046331,1.53783413 1.01524214,1.5215394 0.990499117,1.55431727 C0.965756097,1.58709514 0.980831314,1.65643318 1.02409063,1.70919605 L1.23891248,1.9692428 C1.26414708,1.99969332 1.28249952,2.03587976 1.28987327,2.06976908 L1.29593612,2.09810494 L1.53730346,2.16907057 L1.45799471,1.80041782 C1.44746078,1.75176017 1.42187839,1.70023332 1.38681977,1.65619536 L1.36852657,1.63484841 Z M0.444022496,0.757087225 C0.359797913,0.620060053 0.359797913,0.477072862 0.444022496,0.438444717 L0.479908067,0.496827889 C0.415510672,0.526493412 0.415510672,0.63595729 0.479908067,0.740727093 L0.444022496,0.757087225 Z M0.309328708,0.819135723 C0.150875067,0.561343359 0.150875067,0.292130632 0.309328708,0.21913684 L0.345214279,0.277520012 C0.206423965,0.34145563 0.206423965,0.576974006 0.345214279,0.802604554 L0.309328708,0.819135723 Z M0.17463492,0.881184222 C-0.05821164,0.502531111 -0.05821164,0.107263888 0.17463492,0 L0.210520491,0.0583831726 C-0.0024988811,0.156513401 -0.0024988811,0.518257312 0.210520491,0.86482409 L0.17463492,0.881184222 Z M1.17975864,1.18611804 L1.14387306,1.12773486 C1.20827046,1.09806934 1.20827046,0.988605462 1.14387306,0.88383566 L1.17975864,0.86730449 C1.26398322,1.00433166 1.26398322,1.14731885 1.17975864,1.18611804 Z M1.31445242,1.40525488 L1.27856685,1.3468717 C1.34574989,1.31592294 1.38278248,1.24430247 1.38278248,1.14510083 C1.38278248,1.04589919 1.34574989,0.931088991 1.27856685,0.821787161 L1.31445242,0.805255992 C1.3911394,0.930020032 1.43357941,1.06132438 1.43357941,1.17472212 C1.43357941,1.28811985 1.39130326,1.37002355 1.31445242,1.40525488 Z M1.44914621,1.62439172 L1.41326064,1.56600854 C1.62628001,1.46787831 1.62628001,1.1061344 1.41326064,0.759567626 L1.44914621,0.743036457 C1.68199277,1.12203164 1.68199277,1.51729887 1.44914621,1.62439172 Z" id="形状"></path>
                                                    </g>
                                                    <path d="M1.93049535,1.06950787 L0.126294088,0.017421546 C0.0565437892,-0.0232520401 0,0.00972041618 0,0.0910675884 L0,2.19524023 C0,2.2765874 0.0565437892,2.37550477 0.126294088,2.41617836 L1.93049535,3.46826468 C2.00024564,3.50893826 2.05678943,3.47596581 2.05678943,3.39461864 L2.05678943,1.29044599 C2.05678943,1.20909882 2.00024564,1.11018145 1.93049535,1.06950787 Z M1.93049535,1.11159132 C1.98031699,1.14064388 2.02070541,1.21129914 2.02070541,1.26940427 L2.02070541,3.37357691 C2.02070541,3.43168203 1.98031699,3.45523379 1.93049535,3.42618123 L0.126294088,2.3740949 C0.076472446,2.34504234 0.0360840251,2.27438708 0.0360840251,2.21628196 L0.0360840251,0.112109315 C0.0360840251,0.0540041918 0.076472446,0.0304524373 0.126294088,0.0595049988 L1.93049535,1.11159132 Z" id="矩形"></path>
                                                </g>
                                                <polygon id="矩形" fill="#777777" points="2.39958767 5.1682888 4.79917534 6.56756361 4.79917534 8.16673482 2.39958767 6.76746001"></polygon>
                                                <path d="M2.69953613,3.24428595 C2.77053197,3.28568585 2.82808547,3.2521246 2.82808547,3.16932479 C2.82808547,3.08652499 2.77053197,2.98584124 2.69953613,2.94444134 C2.62854029,2.90304144 2.57098679,2.93660269 2.57098679,3.01940249 C2.57098679,3.10220229 2.62854029,3.20288604 2.69953613,3.24428595 Z" id="椭圆形" fill="#35E139"></path>
                                                <path d="M3.55653173,3.74402695 C3.62752757,3.78542685 3.68508107,3.7518656 3.68508107,3.6690658 C3.68508107,3.586266 3.62752757,3.48558225 3.55653173,3.44418235 C3.48553589,3.40278245 3.42798239,3.4363437 3.42798239,3.5191435 C3.42798239,3.6019433 3.48553589,3.70262705 3.55653173,3.74402695 Z" id="椭圆形备份-172" fill="#35E139"></path>
                                                <path d="M4.41352733,4.24376795 C4.48452317,4.28516785 4.54207667,4.2516066 4.54207667,4.1688068 C4.54207667,4.086007 4.48452317,3.98532325 4.41352733,3.94392335 C4.34253149,3.90252345 4.28497799,3.9360847 4.28497799,4.0188845 C4.28497799,4.1016843 4.34253149,4.20236805 4.41352733,4.24376795 Z" id="椭圆形备份-173" fill="#35E139"></path>
                                            </g>
                                        </g>
                                    </g>
                                </g>
                            </g>
                        </g>
                    </g>
                </g>
            </g>
        </g>
    </g>
</svg>