<?xml version="1.0" encoding="UTF-8"?>
<svg width="48px" height="48px" viewBox="0 0 48 48" version="1.1" xmlns="http://www.w3.org/2000/svg" xmlns:xlink="http://www.w3.org/1999/xlink">
    <title>icon_储能pcs</title>
    <defs>
        <linearGradient x1="103.048256%" y1="32.3235272%" x2="-3.24240662e-13%" y2="32.3235272%" id="linearGradient-1">
            <stop stop-color="#C6C6C6" offset="0%"></stop>
            <stop stop-color="#7B7B7B" offset="78.6603184%"></stop>
            <stop stop-color="#A2A1A1" offset="100%"></stop>
        </linearGradient>
        <linearGradient x1="47.6507839%" y1="3.5%" x2="47.3033646%" y2="111.5%" id="linearGradient-2">
            <stop stop-color="#EEEEEE" offset="0%"></stop>
            <stop stop-color="#BFBFBF" offset="100%"></stop>
        </linearGradient>
        <linearGradient x1="50%" y1="0%" x2="50%" y2="100%" id="linearGradient-3">
            <stop stop-color="#F8F8F8" offset="0%"></stop>
            <stop stop-color="#D4D4D4" offset="100%"></stop>
        </linearGradient>
        <linearGradient x1="50%" y1="0%" x2="57.0098383%" y2="126%" id="linearGradient-4">
            <stop stop-color="#F8F8F8" offset="0%"></stop>
            <stop stop-color="#DBDBDB" offset="100%"></stop>
        </linearGradient>
        <linearGradient x1="-22.4%" y1="50%" x2="119.3%" y2="50%" id="linearGradient-5">
            <stop stop-color="#1B1B1B" offset="0%"></stop>
            <stop stop-color="#505050" offset="51.1%"></stop>
            <stop stop-color="#383838" offset="100%"></stop>
        </linearGradient>
        <linearGradient x1="-22.4%" y1="50%" x2="119.3%" y2="50%" id="linearGradient-6">
            <stop stop-color="#1B1B1B" offset="0%"></stop>
            <stop stop-color="#505050" offset="51.1%"></stop>
            <stop stop-color="#383838" offset="100%"></stop>
        </linearGradient>
        <linearGradient x1="50%" y1="48.6883051%" x2="52.3190437%" y2="51.3299831%" id="linearGradient-7">
            <stop stop-color="#8E8E90" offset="0%"></stop>
            <stop stop-color="#1B1B1E" offset="100%"></stop>
        </linearGradient>
        <linearGradient x1="50%" y1="48.6904097%" x2="52.3190437%" y2="51.3278492%" id="linearGradient-8">
            <stop stop-color="#8E8E90" offset="0%"></stop>
            <stop stop-color="#1B1B1E" offset="100%"></stop>
        </linearGradient>
        <linearGradient x1="50%" y1="48.689828%" x2="52.3190437%" y2="51.3284389%" id="linearGradient-9">
            <stop stop-color="#8E8E90" offset="0%"></stop>
            <stop stop-color="#1B1B1E" offset="100%"></stop>
        </linearGradient>
        <linearGradient x1="50%" y1="48.6886162%" x2="52.3190437%" y2="51.3296677%" id="linearGradient-10">
            <stop stop-color="#8E8E90" offset="0%"></stop>
            <stop stop-color="#1B1B1E" offset="100%"></stop>
        </linearGradient>
        <linearGradient x1="50%" y1="0%" x2="50%" y2="96.2631119%" id="linearGradient-11">
            <stop stop-color="#5F5F67" offset="0%"></stop>
            <stop stop-color="#1B1B1E" offset="100%"></stop>
        </linearGradient>
    </defs>
    <g id="光储充及工商储管理系统V1.3" stroke="none" stroke-width="1" fill="none" fill-rule="evenodd">
        <g id="3_2_8.设备监视_示范站站点拓扑_通信拓扑" transform="translate(-1203.000000, -704.000000)">
            <g id="main" transform="translate(212.000000, 102.000000)">
                <g transform="translate(60.000000, 40.000000)" id="3">
                    <g transform="translate(0.000000, 245.000000)">
                        <g transform="translate(907.000000, 275.000000)" id="编组-1">
                            <g transform="translate(21.000000, 42.000000)">
                                <g id="icon_储能pcs" transform="translate(3.000000, 0.000000)">
                                    <rect id="BG" x="0" y="0" width="48" height="48"></rect>
                                    <g id="icon" transform="translate(8.172369, 0.000000)">
                                        <g id="路径_11692" opacity="0.2" transform="translate(17.465808, 21.166625)">
                                            <path d="M4.19854487,2.12080823 C4.19854487,2.12080823 4.17915341,2.00131152 4.14187872,1.81937508 C4.10460402,1.63743864 4.0494461,1.39435433 3.97748224,1.14631791 C3.91169943,0.9053065 3.82317928,0.671076614 3.71311203,0.446777687 C3.60904453,0.247616496 3.48967933,0.102282655 3.35652465,0.068694389 C3.21018773,0.0482411771 3.0653163,0.114741092 2.98550142,0.239004121 C2.85595276,0.402775152 2.74637415,0.581374937 2.65907854,0.771033636 C2.5552265,0.978807202 2.45546822,1.20165243 2.35614086,1.39543088 C2.28213624,1.56024111 2.18007396,1.7109687 2.05449596,1.84090602 C1.96535776,1.92039092 1.85761455,1.97614999 1.74121617,2.00303399 C1.63900763,2.02473469 1.53337684,2.02473469 1.4311683,2.00303399 C1.33269461,1.98194267 1.23712882,1.94904948 1.14654479,1.90506822 C1.05820592,1.86351351 0.978054559,1.81679137 0.909538073,1.77588258 C0.809716237,1.69822183 0.724504588,1.60344667 0.657880036,1.49598037 C0.563077351,1.36055076 0.462672689,1.19691562 0.370670992,1.03629481 C0.278669295,0.875674002 0.194855103,0.721512475 0.133664279,0.60567602 C0.0724734548,0.489839566 0.0360606053,0.416419062 0.0360606053,0.416419062" id="路径"></path>
                                            <path d="M1.54656359,2.07885188 C1.4800971,2.07516139 1.41514325,2.06341787 1.35280443,2.04651325 C1.29041763,2.0295959 1.23065305,2.00751047 1.17461813,1.98315753 C1.11854376,1.95878714 1.06620932,1.932148 1.01872696,1.90614868 C0.971216038,1.88013376 0.928568299,1.85476235 0.891898465,1.83294838 C0.821337495,1.79098734 0.73207046,1.68723401 0.63739891,1.55430955 C0.542604483,1.42121302 0.442372509,1.25884362 0.350107301,1.10000803 C0.257722196,0.940965882 0.173343231,0.78549851 0.110474917,0.666626564 C0.0475502763,0.547648152 0.00621292949,0.465402793 -1.19604686e-17,0.452998812 L0.0721264208,0.37986884 C0.073611471,0.382836188 0.111663846,0.458596912 0.171971914,0.572954977 C0.232228252,0.687214893 0.314664513,0.839934882 0.404999526,0.996999658 C0.49521983,1.15386505 0.593300949,1.31503304 0.685065276,1.44660804 C0.776713969,1.57801754 0.862082188,1.67993764 0.927096553,1.71865664 C0.964571146,1.74098128 1.00693615,1.76621839 1.05325888,1.79173066 C1.09955429,1.81722752 1.14979819,1.84299686 1.20306027,1.86640588 C1.2562867,1.88979908 1.31252391,1.91083381 1.37084448,1.92688423 C1.42912355,1.94292336 1.48948113,1.95398476 1.55099423,1.95744979 C1.59058403,1.95967994 1.63065013,1.95876578 1.67094996,1.9540092 C1.71123027,1.94925487 1.751744,1.9406618 1.79224829,1.92753227 C1.83273325,1.9144091 1.8732098,1.8967544 1.91343586,1.87387063 C1.95364405,1.85099795 1.99360258,1.82290031 2.03307083,1.78888286 C2.07079786,1.75636724 2.10828796,1.71262266 2.14573225,1.66018092 C2.18316215,1.6077597 2.22054726,1.54664665 2.25807784,1.47937119 C2.29559466,1.41212079 2.33325717,1.33871115 2.37125624,1.26167026 C2.40924115,1.1846572 2.44756159,1.10401505 2.48640704,1.02226922 C2.51754147,0.956749062 2.54893151,0.890690624 2.58069779,0.825387613 C2.612454,0.76010452 2.64458561,0.695576649 2.67721264,0.633097354 C2.7098294,0.57063772 2.74294053,0.510226252 2.77666503,0.453154764 C2.81037822,0.396102474 2.84470436,0.342389292 2.87976138,0.293306055 C2.91660978,0.241714702 2.95311893,0.197007694 2.9893889,0.159123045 C3.02564428,0.121253284 3.06166028,0.0902009788 3.09753593,0.0659040685 C3.13339679,0.041616963 3.16911752,0.0240801442 3.20479571,0.01323137 C3.24045931,0.00238719021 3.27608079,-0.00177428371 3.31175877,0.000684500726 C3.31614473,0.000986753905 3.32053027,0.00138882558 3.32491643,0.00189069009 C3.32930198,0.00239255459 3.33368917,0.00299416059 3.33807594,0.00369550809 C3.34246375,0.00439682992 3.34685217,0.00519786758 3.35124244,0.00609864673 C3.35563333,0.00699934889 3.36002524,0.0079998182 3.36442024,0.00909990068 C3.50286581,0.0437676422 3.62603996,0.187713973 3.73308234,0.385155909 C3.83995992,0.582292126 3.93078382,0.832809243 4.00471034,1.0812668 C4.07854891,1.32942343 4.1355616,1.57562805 4.17490719,1.76469501 C4.21422483,1.95362604 4.23592303,2.08560925 4.23913878,2.10551894 L4.15767241,2.13623768 C4.15748008,2.13505125 4.152482,2.10443416 4.14289639,2.05160864 C4.13330832,1.99877326 4.11912942,1.92371201 4.10057834,1.83364036 C4.0820211,1.74353791 4.05908386,1.63840246 4.03198443,1.52545279 C4.00487267,1.41244984 3.9735905,1.2916116 3.9383545,1.17016896 C3.8927344,1.01293622 3.84578608,0.872495578 3.7978527,0.749473811 C3.74988397,0.626361184 3.70092894,0.52069567 3.6513324,0.43310662 C3.60170053,0.345454944 3.55142837,0.275908068 3.50086033,0.225096013 C3.45025818,0.174249334 3.3993622,0.142165117 3.34852005,0.129473102 C3.34501868,0.128599299 3.34152348,0.127807244 3.33803485,0.12709599 C3.33454602,0.126384709 3.33106396,0.125754202 3.32758869,0.125203545 C3.32411301,0.124652965 3.32064411,0.124182106 3.31718219,0.123790198 C3.31372007,0.12339829 3.31026432,0.123085257 3.30681597,0.1228502 C3.23646767,0.118054805 3.16885368,0.145669956 3.10340011,0.197379658 C3.03789947,0.249127297 2.97456994,0.324998902 2.91283492,0.416654715 C2.85106086,0.508368791 2.79088748,0.615880011 2.73173308,0.730833702 C2.67254436,0.845853357 2.61437831,0.968318973 2.55664829,1.08986613 C2.51643168,1.17453962 2.47675773,1.25807084 2.4372564,1.33799514 C2.39773944,1.41794943 2.3583953,1.49429453 2.31885163,1.56456439 C2.27929255,1.63486126 2.23953313,1.69907959 2.19920084,1.75475187 C2.15885169,1.81044736 2.11792741,1.85759064 2.07605361,1.89371215 C2.03263296,1.93117019 1.98864313,1.9620649 1.94438577,1.98718888 C1.90010621,2.01232517 1.85555707,2.03168518 1.81104142,2.04606172 C1.76650276,2.06044605 1.72199718,2.06984177 1.67782776,2.07504291 C1.63363492,2.08024672 1.58977866,2.08125122 1.54656359,2.07885188 Z" id="路径" fill="#666666" fill-rule="nonzero"></path>
                                        </g>
                                        <polygon id="路径_11647" fill="url(#linearGradient-1)" fill-rule="nonzero" points="0.230327433 37.2956781 0.230327433 39.734057 6.28606441 48 31.8276315 40.4951757 31.8276315 38.9449481 6.51897737 46.0318568"></polygon>
                                        <polygon id="路径_11646" fill="url(#linearGradient-2)" fill-rule="nonzero" points="-5.51245589e-18 37.8277076 6.57154977 46.2555633 6.54526357 5.50653778 1.30611167e-14 2.6674681"></polygon>
                                        <g id="编组" transform="translate(1.440000, 9.600000)">
                                            <path d="M3.5614478,15.0128316 L3.59642999,1.85154632 L3.5614478,15.0128316 Z" id="Fill-1" fill="#DEDEDE"></path>
                                            <path d="M0.594436135,0 L3.59611672,1.85126751 L0.594436135,0 Z" id="Fill-2" fill="#716969"></path>
                                            <polygon id="Fill-3备份" fill="#C4C0C0" points="0.522122209 13.273365 3.52432491 15.1240749 3.5593071 1.96223204 0.557104397 0.111522139"></polygon>
                                            <polygon id="Fill-3" fill="#CCCCCC" points="-7.98225301e-14 25.0292901 3.0022027 27.84 3.03718489 2.19815713 0.034982188 0.347447225"></polygon>
                                            <polygon id="路径-2" fill="#F6F6F6" points="0.034982188 0.347447225 0.594436135 0.111522139 3.5593071 1.96223204 3.03718489 2.19815713"></polygon>
                                            <polygon id="路径-3" fill="#EAEAEA" points="3.03718489 2.19815713 3.5593071 1.96223204 3.52432491 27.6040749 3.03718489 27.84"></polygon>
                                        </g>
                                        <path d="" id="矩形" stroke="#979797" stroke-width="0.5" fill="#979797"></path>
                                        <path d="" id="矩形备份" stroke="#979797" stroke-width="0.5" fill="#979797"></path>
                                        <path d="" id="矩形备份-3" stroke="#979797" stroke-width="0.5" fill="#979797"></path>
                                        <path d="" id="矩形备份-4" stroke="#979797" stroke-width="0.5" fill="#B1B1B1" transform="translate(3.300923, 37.934241) rotate(-1.000000) translate(-3.300923, -37.934241) "></path>
                                        <polygon id="路径_11648" fill="url(#linearGradient-3)" fill-rule="nonzero" points="0.00237006713 2.6674681 20.1102351 0 31.7153765 1.87534483 6.53190501 5.59373809"></polygon>
                                        <polygon id="路径_11655" fill="url(#linearGradient-4)" fill-rule="nonzero" points="6.54547903 5.58792473 6.56594779 46.2109942 31.7558831 38.9645412 31.7558831 1.87534483"></polygon>
                                        <polygon id="路径_11682" fill="url(#linearGradient-5)" fill-rule="nonzero" points="6.58577017 13.1265526 8.37258533 12.8897122 8.37258533 14.7228564 6.58577017 14.9599121"></polygon>
                                        <polygon id="路径_11685" fill="url(#linearGradient-6)" fill-rule="nonzero" points="30.1332489 7.02123937 31.7153765 6.78439904 31.7153765 8.61754323 30.1332489 8.85459887"></polygon>
                                        <polygon id="路径_11683" fill="url(#linearGradient-5)" fill-rule="nonzero" points="6.58577017 25.1195012 8.37258533 24.8826609 8.37258533 26.7158051 6.58577017 26.9528607"></polygon>
                                        <polygon id="路径_11686" fill="url(#linearGradient-6)" fill-rule="nonzero" points="30.1332489 19.014188 31.7153765 18.7773477 31.7153765 20.6104918 30.1332489 20.8475475"></polygon>
                                        <polygon id="路径_11684" fill="url(#linearGradient-5)" fill-rule="nonzero" points="6.58577017 37.1122345 8.37258533 36.8753942 8.37258533 38.7085384 6.58577017 38.945594"></polygon>
                                        <polygon id="路径_11687" fill="url(#linearGradient-6)" fill-rule="nonzero" points="30.1332489 31.0071366 31.7153765 30.7702963 31.7153765 32.6034405 30.1332489 32.8404961"></polygon>
                                        <g id="编组-6" transform="translate(10.570068, 16.272965)">
                                            <g id="编组-4" transform="translate(0.000001, 0.000119)">
                                                <g id="编组-5">
                                                    <polygon id="路径" points="0 1.90764124 9.7661848 0 9.7661848 11.4359432 0 13.3435845"></polygon>
                                                    <g id="PCS" transform="translate(1.071963, 2.833384)" fill="#707070" fill-rule="nonzero">
                                                        <path d="M0,0.642651886 L0,2.01353189 L0.21993197,1.9735956 L0.21993197,1.4398356 L0.593211001,1.37205383 C0.93824189,1.30940149 1.1117662,1.13773212 1.1117662,0.857412121 C1.1117662,0.579012121 0.940259614,0.471915098 0.59724645,0.534201051 L0,0.642651886 Z M0.21993197,0.781275599 L0.57908693,0.716058542 C0.686026328,0.696639981 0.764717583,0.70155085 0.815160696,0.730791151 C0.865603808,0.756191452 0.891834226,0.812868409 0.891834226,0.897348409 C0.891834226,0.981828409 0.865603808,1.04803145 0.81717842,1.09522476 C0.766735308,1.14278446 0.688044053,1.17627359 0.57908693,1.19605854 L0.21993197,1.2612756 L0.21993197,0.781275599 Z M1.94105096,0.263306671 C1.71103037,0.305074898 1.53750606,0.407624262 1.41644259,0.57552754 C1.30748547,0.723952489 1.25502464,0.898598576 1.25502464,1.10211858 C1.25502464,1.30947858 1.30546775,1.46543888 1.41038942,1.5692667 C1.52943517,1.68972981 1.70699492,1.73044767 1.94306869,1.68758028 C2.09843347,1.65936841 2.23160329,1.5929468 2.34257814,1.48831547 C2.46162388,1.37645858 2.53627969,1.23810222 2.56856328,1.07288002 L2.35468448,1.11171714 C2.32643634,1.22436657 2.27599323,1.31416627 2.20335515,1.38111624 C2.13475251,1.44349343 2.04597264,1.4845745 1.94105096,1.50362667 C1.779633,1.53293771 1.66058726,1.5065546 1.58391373,1.42447734 C1.51127565,1.34742731 1.47495661,1.22730229 1.47495661,1.06218229 C1.47495661,0.902822289 1.51127565,0.769507306 1.58593145,0.663790951 C1.66462271,0.547741821 1.78165073,0.476571319 1.93701551,0.448359447 C2.04193719,0.429307273 2.12668162,0.435038978 2.19528425,0.466741788 C2.26388688,0.498444597 2.31029455,0.559137674 2.33450724,0.646901019 L2.54838604,0.608063895 C2.52619107,0.473854163 2.46162388,0.374218577 2.35670221,0.312630751 C2.24774509,0.247935701 2.1085221,0.23289647 1.94105096,0.263306671 Z M3.2949441,0.0174603508 C3.14159704,0.0453058356 3.01448039,0.101028277 2.91359417,0.184627675 C2.80665477,0.273166237 2.75419393,0.376772324 2.75419393,0.497732324 C2.75419393,0.616772324 2.8086725,0.699039849 2.91964734,0.742248511 C2.96403728,0.757227976 3.0729944,0.773923026 3.25055416,0.795440886 C3.4099544,0.812576237 3.50478745,0.826076003 3.53707104,0.835573796 C3.62786864,0.863246338 3.6742763,0.914339415 3.6742763,0.991139415 C3.6742763,1.05257941 3.64199271,1.10644162 3.57742553,1.15272604 C3.51285834,1.19901045 3.42609619,1.23396513 3.31713907,1.25375008 C3.1960756,1.27573336 3.10729572,1.27073443 3.04878171,1.23911968 C2.98421453,1.2047641 2.94386004,1.13337186 2.92771824,1.02878296 L2.709804,1.06835286 C2.72191034,1.23895453 2.78647753,1.35395012 2.90552327,1.41297323 C3.00439177,1.46030022 3.14159704,1.46994584 3.31713907,1.43807008 C3.49873427,1.40509517 3.63997499,1.34488801 3.74086121,1.25744861 C3.84174744,1.16808921 3.89219055,1.06292952 3.89219055,0.940049515 C3.89219055,0.813329515 3.82964109,0.726767542 3.7065599,0.678077207 C3.65006361,0.65569607 3.52294697,0.634618511 3.32924542,0.612191755 C3.19405787,0.598339749 3.11133117,0.584561655 3.07904758,0.573143862 C3.0064095,0.549853829 2.97210818,0.508082424 2.97210818,0.446642424 C2.97210818,0.377522424 3.00237405,0.322106605 3.06492351,0.280028578 C3.11536662,0.243988879 3.1880047,0.217358913 3.28283775,0.200138679 C3.39179487,0.180353729 3.47250385,0.18489821 3.52900014,0.214959348 C3.58549643,0.243100485 3.62181547,0.301785502 3.64199271,0.386441622 L3.85990696,0.346871722 C3.84578289,0.199676438 3.7892866,0.100495301 3.68840038,0.0477746989 C3.59356732,-0.00412506703 3.46241523,-0.0129498498 3.2949441,0.0174603508 Z" id="形状结合"></path>
                                                    </g>
                                                </g>
                                                <polygon id="路径_11689" fill="#D2D2D2" fill-rule="nonzero" points="0.796558016 11.5147465 8.58061258 10.0158701 8.58061258 10.4012739 0.796558016 11.9003656"></polygon>
                                                <polygon id="路径_11690" fill="#D2D2D2" fill-rule="nonzero" points="0.796558016 10.4011663 2.90311677 10.0157624 2.90311677 10.4011663 0.796558016 10.7867854"></polygon>
                                                <polygon id="路径_11691" fill="#D2D2D2" fill-rule="nonzero" points="3.6290037 9.84437616 5.73556245 9.45897235 5.73556245 9.84437616 3.6290037 10.2299953"></polygon>
                                                <polygon id="路径_11689备份" fill="#D2D2D2" fill-rule="nonzero" points="0.796558016 9.11474645 8.58061258 7.6158701 8.58061258 8.00127391 0.796558016 9.50036558"></polygon>
                                            </g>
                                            <path d="M9.5506986,0.261472819 L0.215460648,2.08500075 L0.215460648,13.0822814 L9.5506986,11.2587552 L9.5506986,0.261472819 M9.76615925,0 L9.76615925,11.4360529 L0,13.3437543 L0,1.90770379 L9.76615925,0 Z" id="形状" fill-opacity="0.159999996" fill="#707070" fill-rule="nonzero"></path>
                                        </g>
                                        <g id="编组" transform="translate(11.190617, 34.080000)">
                                            <path d="M0.36256779,4.2673809 C0.0280077899,4.4622609 -0.0987122101,4.2673809 0.0832077899,3.8353809 L2.16038181,0.479631779 C2.34326181,0.0481117789 2.64230181,-0.124688221 2.82518181,0.0961117789 L4.58342181,2.22683178 C4.76630181,2.44859178 4.64054181,2.78699178 4.30310181,2.98235178 L0.36256779,4.2673809 Z" id="Fill-1" fill="#303033"></path>
                                            <path d="M0.36232779,4.0546449 L4.30286181,2.76961578 C4.40942181,2.70865578 4.46222181,2.64433578 4.47662181,2.60641578 C4.49054181,2.56897578 4.48718181,2.49985578 4.42862181,2.43121578 L2.67038181,0.300495779 C2.61710181,0.236655779 2.55278181,0.219855779 2.49278181,0.255375779 C2.43230181,0.289935779 2.36750181,0.381615779 2.31470181,0.505455779 L0.23848779,3.8612049 C0.18088779,3.9970449 0.17656779,4.0695249 0.19096779,4.0916049 C0.20440779,4.1132049 0.25816779,4.1160849 0.36232779,4.0546449 Z" id="Fill-3" fill="#FFCE30"></path>
                                            <polygon id="Fill-5" fill="#303033" points="2.88 2.00858981 2.43605302 2.05411183 2.80836524 0.96 1.92 2.31061851 2.3634757 2.26549233 1.99210604 3.36"></polygon>
                                        </g>
                                        <g id="组_6763" opacity="0.35" transform="translate(11.366626, 25.732056)"></g>
                                        <g id="_3" opacity="0.28" transform="translate(17.088202, 19.994931) scale(-1, 1) rotate(6.023993) translate(-17.088202, -19.994931) translate(16.608202, 19.034931)"></g>
                                        <polygon id="路径_11695" fill="#8C8C8C" fill-rule="nonzero" opacity="0.14" transform="translate(14.851919, 8.704085) rotate(-179.026066) translate(-14.851919, -8.704085) " points="10.7568184 8.95371335 18.9470327 7.29161728 18.9470188 8.45445624 10.7568045 10.1165523"></polygon>
                                        <g id="编组" transform="translate(11.507631, 39.840000)">
                                            <path d="M0.094224,1.53857172 C0.042384,1.56833172 0.000144,1.54433172 0.000144,1.48481172 C0.000144,1.42433172 0.042384,1.35185172 0.094224,1.32161172 L4.760304,0.0126517215 C4.811664,-0.0171082785 4.854384,0.0073717215 4.854384,0.0678517215 C4.854384,0.127851721 4.811664,0.201291721 4.760304,0.230091721 L0.094224,1.53857172 Z" id="Fill-1" fill="url(#linearGradient-7)"></path>
                                            <path d="M4.76016,0.719691721 C4.81152,0.689931721 4.85424,0.714411721 4.85424,0.773931721 C4.85424,0.833451721 4.81152,0.907371721 4.76016,0.936651721 L0.09408,2.24465172 C0.04224,2.27393172 0,2.24993172 0,2.19041172 C0,2.13041172 0.04224,2.05841172 0.09408,2.02769172 L4.76016,0.719691721 Z" id="Fill-3" fill="url(#linearGradient-8)"></path>
                                            <path d="M4.76016,1.42562772 C4.81152,1.39586772 4.85424,1.41986772 4.85424,1.47986772 C4.85424,1.53986772 4.81152,1.61330772 4.76016,1.64354772 L0.09408,2.95106772 C0.04224,2.97986772 0,2.95634772 0,2.89634772 C0,2.83586772 0.04224,2.76434772 0.09408,2.73458772 L4.76016,1.42562772 Z" id="Fill-5" fill="url(#linearGradient-9)"></path>
                                            <path d="M4.76016,2.13156372 C4.81152,2.10180372 4.85424,2.12580372 4.85424,2.18580372 C4.85424,2.24532372 4.81152,2.31924372 4.76016,2.34900372 L0.09408,3.65700372 C0.04224,3.68724372 0,3.66276372 0,3.60228372 C0,3.54228372 0.04224,3.46980372 0.09408,3.44052372 L4.76016,2.13156372 Z" id="Fill-7" fill="url(#linearGradient-10)"></path>
                                        </g>
                                        <g id="编组备份" transform="translate(23.507631, 36.480000)">
                                            <path d="M0.094224,1.53857172 C0.042384,1.56833172 0.000144,1.54433172 0.000144,1.48481172 C0.000144,1.42433172 0.042384,1.35185172 0.094224,1.32161172 L4.760304,0.0126517215 C4.811664,-0.0171082785 4.854384,0.0073717215 4.854384,0.0678517215 C4.854384,0.127851721 4.811664,0.201291721 4.760304,0.230091721 L0.094224,1.53857172 Z" id="Fill-1" fill="url(#linearGradient-7)"></path>
                                            <path d="M4.76016,0.719691721 C4.81152,0.689931721 4.85424,0.714411721 4.85424,0.773931721 C4.85424,0.833451721 4.81152,0.907371721 4.76016,0.936651721 L0.09408,2.24465172 C0.04224,2.27393172 0,2.24993172 0,2.19041172 C0,2.13041172 0.04224,2.05841172 0.09408,2.02769172 L4.76016,0.719691721 Z" id="Fill-3" fill="url(#linearGradient-8)"></path>
                                            <path d="M4.76016,1.42562772 C4.81152,1.39586772 4.85424,1.41986772 4.85424,1.47986772 C4.85424,1.53986772 4.81152,1.61330772 4.76016,1.64354772 L0.09408,2.95106772 C0.04224,2.97986772 0,2.95634772 0,2.89634772 C0,2.83586772 0.04224,2.76434772 0.09408,2.73458772 L4.76016,1.42562772 Z" id="Fill-5" fill="url(#linearGradient-9)"></path>
                                            <path d="M4.76016,2.13156372 C4.81152,2.10180372 4.85424,2.12580372 4.85424,2.18580372 C4.85424,2.24532372 4.81152,2.31924372 4.76016,2.34900372 L0.09408,3.65700372 C0.04224,3.68724372 0,3.66276372 0,3.60228372 C0,3.54228372 0.04224,3.46980372 0.09408,3.44052372 L4.76016,2.13156372 Z" id="Fill-7" fill="url(#linearGradient-10)"></path>
                                        </g>
                                        <polygon id="路径_11696" fill="#8C8C8C" fill-rule="nonzero" opacity="0.1" transform="translate(12.672580, 11.229318) rotate(-179.026066) translate(-12.672580, -11.229318) " points="10.7500734 11.0258443 14.5951014 10.2701685 14.5950875 11.4330074 10.7500595 12.188468"></polygon>
                                        <polygon id="路径_11696备份-2" fill="#8C8C8C" fill-rule="nonzero" opacity="0.08" transform="translate(12.672580, 13.629318) rotate(-179.026066) translate(-12.672580, -13.629318) " points="10.7500734 13.4258443 14.5951014 12.6701685 14.5950875 13.8330074 10.7500595 14.588468"></polygon>
                                        <polygon id="路径_11696备份" fill="#8C8C8C" fill-rule="nonzero" opacity="0.1" transform="translate(16.992580, 10.447689) rotate(-179.026066) translate(-16.992580, -10.447689) " points="15.0700734 10.2442154 18.9151014 9.48853957 18.9150875 10.6513785 15.0700595 11.406839"></polygon>
                                        <path d="M23.0008272,6.80909886 L27.9896067,5.98444231 C28.2511541,5.94120794 28.4982286,6.1181856 28.5414629,6.37973299 C28.5457401,6.40560787 28.5478895,6.43178976 28.5478895,6.45801576 L28.5478895,10.1513058 C28.5478895,10.3862025 28.3778933,10.5865921 28.1461389,10.6248848 L23.1573594,11.4491802 C22.895809,11.4923962 22.648747,11.3154011 22.605531,11.0538507 C22.6012575,11.0279866 22.59911,11.001816 22.59911,10.9756013 L22.59911,7.28267231 C22.59911,7.04778848 22.7690882,6.84740585 23.0008272,6.80909886 Z" id="路径_11697" fill="url(#linearGradient-11)"></path>
                                        <polygon id="路径_11697备份" fill="#B3B3B3" points="23.2523875 7.58304657 28.0240337 6.816 28.0240337 7.19316024 23.2523875 7.95977618"></polygon>
                                        <polygon id="路径_11697备份-2" fill="#B3B3B3" points="23.2523875 8.35104657 25.9736547 7.871192 25.9736547 8.24835224 23.2523875 8.72777618"></polygon>
                                        <circle id="椭圆_250" fill="#3EDB9C" fill-rule="nonzero" opacity="0.9" cx="27.6676315" cy="9.6" r="1"></circle>
                                        <circle id="椭圆_251" fill="#FFC021" fill-rule="nonzero" opacity="0.9" cx="25.7476315" cy="9.84" r="1"></circle>
                                        <circle id="椭圆_252" fill="#F55252" fill-rule="nonzero" opacity="0.9" cx="23.8276315" cy="10.08" r="1"></circle>
                                        <g id="路径_11693" opacity="0.2" transform="translate(17.641175, 17.988607)"></g>
                                    </g>
                                </g>
                            </g>
                        </g>
                    </g>
                </g>
            </g>
        </g>
    </g>
</svg>