<?xml version="1.0" encoding="UTF-8"?>
<svg width="56px" height="57px" viewBox="0 0 56 57" version="1.1" xmlns="http://www.w3.org/2000/svg" xmlns:xlink="http://www.w3.org/1999/xlink">
    <title>icon_华为逆变器2</title>
    <defs>
        <linearGradient x1="60.2287732%" y1="3.27586506%" x2="74.2518563%" y2="93.9885516%" id="linearGradient-1">
            <stop stop-color="#F6F6F6" offset="0%"></stop>
            <stop stop-color="#D5D5D5" offset="100%"></stop>
        </linearGradient>
        <path d="M12.0192402,1.82837899 L43.5514419,20.1113473 C44.415238,20.6121927 44.9469594,21.5351313 44.9469594,22.533625 L44.9469594,47.8731542 C44.9469594,48.6463528 44.3201581,49.2731542 43.5469594,49.2731542 C43.30033,49.2731542 43.0580771,49.2080025 42.8447182,49.084293 L10.2613958,30.191865 C9.39759979,29.6910196 8.86587834,28.7680811 8.86587834,27.7695873 L8.86587834,3.64508722 C8.86587834,2.48528924 9.80608037,1.54508722 10.9658783,1.54508722 C11.3358225,1.54508722 11.6992018,1.64281466 12.0192402,1.82837899 Z" id="path-2"></path>
        <linearGradient x1="90.034525%" y1="28.8%" x2="-73.5583309%" y2="105%" id="linearGradient-3">
            <stop stop-color="#F2F2F2" offset="0%"></stop>
            <stop stop-color="#B4B4B4" offset="100%"></stop>
        </linearGradient>
        <linearGradient x1="74.8435244%" y1="43.6939751%" x2="48.5432008%" y2="70.399219%" id="linearGradient-4">
            <stop stop-color="#FFFFFF" offset="0%"></stop>
            <stop stop-color="#FFFFFF" stop-opacity="0" offset="100%"></stop>
        </linearGradient>
        <linearGradient x1="60.6477151%" y1="1.70370869%" x2="39.3522849%" y2="98.2962913%" id="linearGradient-5">
            <stop stop-color="#EC4043" offset="0%"></stop>
            <stop stop-color="#AC0003" offset="100%"></stop>
        </linearGradient>
        <path d="M1.00102032,0.00483447259 C1.05481933,0.0136013772 1.1110452,0.032277183 1.16814011,0.0603444437 C1.2071559,0.148759971 1.22881497,0.236316371 1.24799451,0.323613733 L1.27676382,0.454440508 L1.27676382,0.454440508 C1.29767106,0.590730659 1.31438027,0.72458672 1.31716974,0.851981958 C1.32407438,0.899758234 1.32545531,0.94433176 1.32545531,0.988305862 L1.32484156,1.07622619 L1.32640642,1.18130668 L1.32255018,1.29911852 L1.32269345,1.3598115 L1.32215273,1.44310619 L1.32215273,1.44310619 L1.3143082,1.60636616 C1.31323928,1.63382954 1.31261959,1.66162739 1.31294411,1.69007137 C1.3089986,1.70825056 1.30708221,1.72786656 1.30590275,1.74798458 L1.30328293,1.80890992 C1.30178622,1.83919082 1.29904015,1.86849798 1.29068357,1.89367646 C1.27646554,1.87683271 1.26677143,1.85745209 1.25798012,1.83756748 L1.2405283,1.79772864 C1.13052365,1.54767847 1.02885981,1.29769727 0.934155839,1.04698435 L0.900127695,0.949250212 C0.820971612,0.720355732 0.746491316,0.486845421 0.739168951,0.276466487 C0.732590935,0.094483615 0.838031001,-0.0152699938 0.981261609,0.00172606896 L1.00102032,0.00483447259 Z M1.57341455,0.304864617 C1.58031919,0.304132443 1.5876312,0.308766719 1.59512963,0.314890307 L1.6103096,0.327974453 C1.6128592,0.330103175 1.61541315,0.332110182 1.61796326,0.333851875 L1.66868203,0.375590189 C1.7282475,0.424675163 1.78819166,0.476759588 1.83802778,0.548995133 C1.89790477,0.641045422 1.95361137,0.741790537 1.97589953,0.842259311 C2.00790942,0.96588669 1.99539822,1.07326584 1.97589953,1.1686061 C1.94803242,1.28776044 1.8951153,1.38443448 1.84219818,1.47940369 C1.82562706,1.50799604 1.80181987,1.52923571 1.78649159,1.56012722 C1.75586262,1.62037928 1.7154567,1.67016372 1.67645932,1.71921789 C1.64583036,1.76194818 1.61345453,1.80207129 1.58037788,1.84119609 L1.48009151,1.95718449 L1.47673747,1.96006501 L1.46936835,1.96736274 C1.46153492,1.97448791 1.45226123,1.97870134 1.44112175,1.95845657 C1.43007433,1.82308457 1.42162306,1.69082798 1.41742504,1.55955368 C1.4086818,1.46078221 1.40765823,1.36597131 1.40813942,1.271812 L1.40921292,1.1306481 C1.40932097,1.10706436 1.40932887,1.08341793 1.40913948,1.05965713 L1.41515428,0.980788388 L1.42457393,0.822117721 C1.42642869,0.795953511 1.42861746,0.770057948 1.43142764,0.744623326 C1.45368818,0.628595487 1.46901647,0.506938089 1.50384345,0.401448295 C1.50941012,0.395120544 1.51394706,0.387174559 1.51808015,0.378567057 L1.52989368,0.351716709 C1.53779615,0.333769062 1.54658665,0.317002201 1.56127213,0.309069849 L1.57341455,0.304864617 Z M0.410674043,0.0446096647 C0.419433065,0.0451240842 0.425459543,0.0539402761 0.430835416,0.0642421844 L0.438671512,0.0799573273 C0.43998295,0.08247823 0.441318785,0.0848789883 0.442711549,0.0870531012 C0.692237885,0.598597358 0.910412006,1.11837004 1.09428148,1.63925009 L1.1520477,1.80550647 C1.16257344,1.83637031 1.1718594,1.86722156 1.17371905,1.8959137 C1.15282286,1.87811496 1.1339351,1.85740054 1.11525414,1.83588997 L1.07763415,1.79243531 C0.899024686,1.58558711 0.725176133,1.37107654 0.556776116,1.14975204 C0.49410965,1.06246165 0.430034639,0.975964672 0.374328045,0.883175385 C0.262914857,0.729420122 0.186328647,0.533790116 0.196077991,0.381841812 C0.206475559,0.217046788 0.294744793,0.122824128 0.392176839,0.0566240992 L0.410674043,0.0446096647 Z M2.31027719,1.14442547 L2.33253773,1.15733256 L2.399208,1.29119078 C2.42135605,1.33597607 2.44262507,1.38100385 2.46060401,1.42650394 L2.47739697,1.47216998 C2.51625625,1.57271264 2.53578256,1.67319015 2.54130627,1.76551711 C2.53713587,1.86178918 2.50926876,1.94754167 2.45218124,1.99084245 L2.43048412,2.0019747 L2.38962194,2.02746976 C2.37598501,2.03568561 2.36194595,2.04295203 2.346347,2.0472682 C2.13882129,2.11481836 1.90486465,2.12562255 1.66949945,2.12923275 L1.62495961,2.13190172 C1.60501242,2.13271832 1.58454088,2.13137384 1.56225666,2.12119517 C1.56624952,2.09166895 1.57751112,2.0699963 1.59006362,2.04944179 L1.60911333,2.01860669 C1.61220056,2.01332663 1.61518168,2.00790597 1.61796326,2.00223947 C1.76200286,1.75272533 1.92875373,1.52992396 2.11664744,1.33587803 L2.20711202,1.24467943 L2.27665981,1.17909162 L2.31027719,1.14442547 Z M0.00937666463,0.647702172 L0.00965285002,0.64786231 L0.0116677956,0.643103874 L0.014819852,0.631512916 C0.0170805462,0.623859091 0.0203925164,0.617679283 0.0291515389,0.620935847 C0.0458552315,0.634409454 0.0610575804,0.652217938 0.0759636375,0.670886611 L0.105737749,0.708341338 C0.396989056,1.05829232 0.687161947,1.41129207 0.968800007,1.77471311 L1.08895775,1.93112452 C1.10000517,1.94384417 1.10566697,1.95991314 1.10983737,1.97666434 C0.899549809,1.8578927 0.68926225,1.73596398 0.480355618,1.61325742 C0.353641759,1.54139643 0.232479226,1.40427726 0.143409437,1.25233265 C0.066685134,1.11234494 0.00805097473,0.957337078 0.00109110279,0.821178044 L0.000170484811,0.761325161 C-0.00044326051,0.721229917 0.000170484811,0.681617215 0.00937666463,0.647702172 Z M2.65432133,2.17014676 C2.67520095,2.16792004 2.69608056,2.16569332 2.7211582,2.18342245 L2.73276412,2.30158716 C2.7345716,2.32120462 2.73598015,2.34058842 2.73648649,2.35944561 L2.73375684,2.38366804 L2.72924649,2.43303014 C2.72528415,2.47403395 2.7195943,2.51364149 2.70304044,2.54384211 L2.68356413,2.58032687 C2.66667978,2.6100552 2.64734962,2.6368513 2.61949435,2.65139156 L2.60410274,2.65956382 L2.57410663,2.67741099 C2.54905629,2.69214877 2.52305387,2.70493326 2.4899634,2.70364345 C2.43149496,2.72069752 2.35628967,2.69300372 2.28387386,2.65581442 C2.06380934,2.52979537 1.84239151,2.40141312 1.62235461,2.27225301 C1.62787831,2.26282746 1.63340202,2.25475946 1.64464277,2.25489976 C1.93098833,2.21059615 2.22794891,2.19074504 2.52636588,2.17614058 L2.65432133,2.17014676 Z M0.480162288,1.71505569 C0.598562967,1.76937353 0.718316954,1.85153217 0.836690014,1.90425546 L0.93854542,1.95965802 C0.989382976,1.98783439 1.0400177,2.01737521 1.09014535,2.05121367 C1.07742504,2.06748919 1.05877971,2.07305125 1.03916169,2.07641464 L1.00962418,2.08087508 L0.995468997,2.0838642 C0.906033448,2.10500591 0.811467151,2.11458819 0.712738009,2.11251296 C0.621005467,2.11176927 0.507034362,2.03042609 0.4242905,1.91543426 L0.409155023,1.89349044 C0.340909612,1.7998082 0.293543817,1.6943333 0.248967494,1.59047579 C0.279601978,1.60378046 0.310475086,1.62028458 0.341390617,1.63773466 L0.434068271,1.69066928 L0.480162288,1.71505569 Z M1.64304089,2.37179299 C1.72661459,2.41393645 1.81151398,2.4663198 1.89649623,2.52032973 C2.01069889,2.60087972 2.12769102,2.65599097 2.24189368,2.7363831 C2.32265029,2.79116314 2.40343452,2.83004754 2.48421875,2.88803224 C2.46033266,2.93147 2.42520526,2.9614082 2.38585013,2.98386694 L2.36584569,2.99448865 C2.29342988,3.03859401 2.18201669,3.01702546 2.08035284,2.93260124 C2.02463244,2.88038419 1.97328138,2.81826959 1.92321819,2.75496092 L1.86356333,2.6789744 C1.85365815,2.66640012 1.84375517,2.65391735 1.83382976,2.64159569 C1.79066198,2.58632142 1.75028368,2.52947589 1.7071159,2.47262309 L1.67873907,2.43336396 C1.66953613,2.42017413 1.66082546,2.40679087 1.65331587,2.39294423 L1.64304089,2.37179299 Z" id="path-6"></path>
        <linearGradient x1="50%" y1="100%" x2="50%" y2="5.1%" id="linearGradient-7">
            <stop stop-color="#D2D2D2" offset="0%"></stop>
            <stop stop-color="#7A7A7A" offset="100%"></stop>
        </linearGradient>
        <linearGradient x1="50%" y1="0%" x2="50%" y2="100%" id="linearGradient-8">
            <stop stop-color="#FFFFFF" offset="0%"></stop>
            <stop stop-color="#B4B4B4" offset="100%"></stop>
        </linearGradient>
        <linearGradient x1="50%" y1="0%" x2="57.1017501%" y2="116.6%" id="linearGradient-9">
            <stop stop-color="#C5C5C5" offset="0%"></stop>
            <stop stop-color="#D4D4D4" offset="28.1%"></stop>
            <stop stop-color="#A7A7A7" offset="69.6%"></stop>
            <stop stop-color="#636363" offset="100%"></stop>
        </linearGradient>
    </defs>
    <g id="光储充及工商储管理系统V1.3" stroke="none" stroke-width="1" fill="none" fill-rule="evenodd">
        <g id="3_2_8.设备监视_示范站站点拓扑_通信拓扑" transform="translate(-400.000000, -709.000000)">
            <g id="main" transform="translate(212.000000, 102.000000)">
                <g transform="translate(60.000000, 40.000000)" id="3">
                    <g transform="translate(0.000000, 245.000000)">
                        <g id="1" transform="translate(0.000000, 274.889413)">
                            <g id="编组-2" transform="translate(119.000000, 48.000000)">
                                <g id="icon_华为逆变器2" transform="translate(9.000000, 0.000000)">
                                    <rect id="BG" x="0" y="0" width="56" height="56"></rect>
                                    <g id="icon_华为逆变器1" transform="translate(6.000000, 0.000000)">
                                        <g id="华为逆变器1" transform="translate(22.500000, 28.000000) scale(-1, 1) translate(-22.500000, -28.000000) ">
                                            <polygon id="矩形备份-72" fill="#B8BBBC" points="5.47297297 37.7480085 14.3655522 32.6894499 14.3655522 34.3625697 5.47297297 39.4233266"></polygon>
                                            <polygon id="矩形备份-73" fill="#B8BBBC" points="34.0540541 54.3246819 42.9466333 49.2661233 42.9466333 50.9392431 34.0540541 56"></polygon>
                                            <g id="逆变器1备份-2" transform="translate(0.000000, 0.295429)">
                                                <g id="矩形备份">
                                                    <use fill="url(#linearGradient-1)" xlink:href="#path-2"></use>
                                                    <use fill="#D2D2D2" xlink:href="#path-2"></use>
                                                </g>
                                                <path d="M1.4,6.28005815 C1.58497209,6.28005815 1.76666173,6.32892187 1.92668093,6.42170403 L1.92668093,6.42170403 L34.5100033,25.314132 C35.2658248,25.7523717 35.7310811,26.559943 35.7310811,27.433625 L35.7310811,27.433625 L35.7310811,52.7731542 C35.7310811,53.0631037 35.6135558,53.3256037 35.4235432,53.5156163 C35.2335306,53.7056289 34.9710306,53.8231542 34.6810811,53.8231542 C34.496109,53.8231542 34.3144193,53.7742904 34.1544001,53.6815083 L34.1544001,53.6815083 L1.57107782,34.7890803 C0.815256264,34.3508406 0.35,33.5432693 0.35,32.6695873 L0.35,32.6695873 L0.35,7.33005815 C0.35,7.04010865 0.467525253,6.77760865 0.65753788,6.58759602 C0.847550506,6.3975834 1.11005051,6.28005815 1.4,6.28005815 Z" id="矩形" stroke="url(#linearGradient-4)" stroke-width="0.7" fill="url(#linearGradient-3)" fill-rule="nonzero"></path>
                                                <polygon id="矩形" fill="#DADCDE" points="2.02702703 35.4545547 5.47297297 37.4525795 5.47297297 39.1278976 2.02702703 37.1298728"></polygon>
                                                <polygon id="矩形备份-66" fill="#DADCDE" points="30.6081081 52.0312281 34.0540541 54.0292529 34.0540541 55.6997502 30.6081081 53.7017255"></polygon>
                                                <g id="编组-70" transform="translate(14.797297, 27.478062)">
                                                    <path d="M1.56081081,0.214081901 L5.12837838,2.28262521 C5.97578001,2.77396474 6.66545421,3.95696768 6.68858956,4.94657854 L6.68918919,5.02109448 C6.68918919,6.02071629 5.99039039,6.42589308 5.12837838,5.92608218 L1.56081081,3.85753887 C0.713409176,3.36619933 0.0237349819,2.18319639 0.000599631912,1.19358554 L0,1.1190696 C0,0.119447791 0.698798803,-0.285729003 1.56081081,0.214081901 Z" id="矩形" fill="#3A3A3E"></path>
                                                    <g id="LOGO" transform="translate(2.787162, 2.868499)" fill="#FFFFFF" fill-rule="nonzero">
                                                        <path d="M0.417433248,0.00177216711 C0.44137593,0.00516920734 0.466398665,0.0127496815 0.491808153,0.0243035591 C0.504830829,0.052222939 0.513508516,0.0799951045 0.520634421,0.107690333 L0.540149997,0.190615484 C0.549454542,0.248229223 0.556890804,0.304836532 0.558132229,0.358788822 C0.561205064,0.378987718 0.561819632,0.397862363 0.561819632,0.416491208 L0.561819632,0.472718787 L0.56227635,0.495451725 L0.56227635,0.495451725 L0.560778054,0.539799384 L0.560778054,0.539799384 L0.560590497,0.573889217 C0.561819632,0.621762916 0.555673961,0.665663862 0.556251654,0.713855353 C0.550105983,0.740891202 0.55502252,0.775236992 0.546344833,0.800240144 C0.541071848,0.794363641 0.537197003,0.787722313 0.533787692,0.780826882 L0.524023758,0.759889002 C0.475067346,0.654607685 0.42982292,0.549306455 0.387675912,0.443654249 L0.36090473,0.370226611 C0.330307519,0.284181384 0.303795703,0.197569019 0.300899044,0.118386661 C0.298073927,0.0440258419 0.341676041,-0.00245319966 0.402016578,0.000100096203 L0.417433248,0.00177216711 Z M0.646670883,0.125502906 C0.648719976,0.12526901 0.650849666,0.126044447 0.653030811,0.127342944 L0.700440435,0.163763715 C0.723127986,0.181725195 0.745449433,0.20138768 0.764465011,0.227365745 C0.791119605,0.266008504 0.815917721,0.308359236 0.825839427,0.350789753 C0.840088816,0.402973735 0.834519382,0.448536693 0.825839427,0.489040754 C0.813434221,0.539682516 0.789877855,0.580948456 0.766321488,0.621492179 C0.758944756,0.63370243 0.74834685,0.642840475 0.741523372,0.656017402 C0.732433598,0.673154156 0.721409481,0.688345651 0.709926367,0.702794606 L0.692541867,0.724061472 C0.665272545,0.760626168 0.6348927,0.79281406 0.605127584,0.826028484 L0.600354109,0.830403484 C0.596867009,0.833468078 0.592738771,0.835307648 0.587779967,0.826796928 C0.582862145,0.76951407 0.579100012,0.713535704 0.577231239,0.657948415 C0.573825648,0.621381054 0.573054155,0.586063461 0.573054155,0.551081073 L0.573542873,0.446224959 C0.577882851,0.402032782 0.578460695,0.355801126 0.583464579,0.312635216 L0.597484981,0.238085605 C0.602367456,0.213406251 0.607949184,0.189275677 0.615700901,0.166828667 L0.621480817,0.158144068 L0.631231874,0.137894741 C0.633062287,0.134785384 0.635130723,0.132003974 0.637640287,0.129843285 L0.646670883,0.125502906 Z M0.167222391,0.0220996483 C0.170340953,0.0222451868 0.172608233,0.0250956738 0.174591751,0.0287084937 L0.180258545,0.0398913369 L0.180258545,0.0398913369 C0.275933863,0.242710603 0.36028141,0.448789074 0.432295994,0.655617166 L0.462401377,0.744296355 C0.468638502,0.763485436 0.476572576,0.783660952 0.47770762,0.801876889 L0.464167418,0.788516317 L0.464167418,0.788516317 L0.438610396,0.758606104 L0.438610396,0.758606104 C0.365933686,0.672030648 0.295194204,0.58218112 0.226671749,0.489412902 L0.188490427,0.434373973 C0.175951557,0.415858822 0.163766686,0.397047357 0.152433099,0.377557163 C0.107098749,0.313077765 0.0759355977,0.230653731 0.0799026343,0.166226112 C0.0839483373,0.0994093665 0.116968354,0.0595111617 0.154516119,0.0311238028 L0.167222391,0.0220996483 Z M0.940176425,0.476827412 L0.949234305,0.482164143 L0.974555731,0.534711072 C0.987233346,0.561070461 0.999338089,0.587626766 1.00817795,0.614686112 C1.02398991,0.657050318 1.03193522,0.699500803 1.03418283,0.738580938 C1.03248588,0.779389451 1.02114668,0.815881115 0.997917598,0.834560991 C0.982622593,0.841732468 0.970721483,0.854287283 0.954853337,0.859088169 C0.870410525,0.888927022 0.775212886,0.894882143 0.679442105,0.897797954 L0.658263974,0.899316493 C0.651108136,0.899483864 0.643738776,0.898682844 0.635804703,0.895024692 C0.637226318,0.884059387 0.640912403,0.875608555 0.645233439,0.867784264 L0.658471878,0.844303091 C0.722943024,0.727097341 0.79859612,0.623422546 0.884581723,0.534442776 C0.896291786,0.521111139 0.909260512,0.509121444 0.921813013,0.496484294 L0.940176425,0.476827412 Z M0.00393332236,0.279952877 L0.0065166723,0.271877146 C0.0074395983,0.269209393 0.00886121338,0.267335325 0.0119797761,0.268497317 L0.0228261727,0.279301355 L0.0431429273,0.305073965 C0.178584073,0.472542402 0.313452078,0.641706062 0.443218002,0.817292613 C0.447713228,0.822615991 0.450017031,0.829389973 0.451713978,0.836461753 C0.36614736,0.787384962 0.280580741,0.736970734 0.195576026,0.686218849 C0.144015789,0.656522628 0.0947144025,0.599148243 0.0584716464,0.535304282 C0.0272523049,0.476452928 0.00339389529,0.411131995 0.000561903192,0.353491644 L0.000140475796,0.31547576 C0.000280951595,0.302914718 0.00112380639,0.290769176 0.00393332236,0.279952877 Z M0.996894934,0.915612477 L1.08016899,0.909439579 C1.08866496,0.908218333 1.09716094,0.906997088 1.1073651,0.9154299 L1.11208759,0.972683927 C1.11282306,0.982189925 1.1133962,0.99158525 1.11360223,1.00073115 L1.11045917,1.03886959 C1.10885167,1.05793709 1.10645931,1.07624998 1.09999293,1.09042412 C1.09093505,1.11134784 1.08186594,1.13302987 1.06599779,1.14316966 C1.0489946,1.15332475 1.03483464,1.17003972 1.01329127,1.16939562 C0.989500288,1.17806454 0.95889904,1.16513516 0.929432836,1.14757983 C0.839887943,1.08792131 0.749792385,1.02712532 0.66025873,0.965942599 C0.662506343,0.961332154 0.664753956,0.957380373 0.669327848,0.957372614 C0.775855703,0.935953207 0.885994123,0.92439136 0.996894934,0.915612477 Z M0.164189362,0.71913839 L0.19549736,0.739974042 L0.23171641,0.762378333 L0.304356797,0.812214896 C0.316451236,0.820165255 0.328527941,0.827632948 0.340569526,0.834160774 C0.375137811,0.857124354 0.409706095,0.87924869 0.443701239,0.907485815 C0.440078087,0.913373267 0.43527359,0.916597705 0.429978933,0.918640083 L0.405177156,0.924850113 C0.368785571,0.936293718 0.33030627,0.941864486 0.290133096,0.941505399 C0.250473968,0.941794268 0.200599441,0.895746865 0.166604297,0.8316966 C0.138835041,0.784290306 0.119561762,0.730707056 0.101423527,0.677930806 C0.122198961,0.688903698 0.143244108,0.704415207 0.164189362,0.71913839 Z M0.66867604,1.00071013 C0.702682421,1.01807117 0.73722823,1.03976234 0.771807752,1.0621421 L0.806837149,1.08554277 L0.877321583,1.12827163 C0.889045342,1.13561309 0.900733631,1.1432887 0.912350979,1.15163469 C0.945211078,1.17436559 0.978082415,1.19036241 1.01095375,1.21445073 C0.999614545,1.23608346 0.982049452,1.25002232 0.96278741,1.26024637 C0.933321207,1.27935739 0.887986857,1.27087653 0.846619544,1.23571057 C0.824853661,1.21478967 0.804726289,1.18998086 0.785128094,1.16456228 L0.746308585,1.11388339 L0.694748348,1.04304757 C0.687516654,1.03276832 0.679975211,1.0226075 0.674025183,1.01178377 L0.66867604,1.00071013 Z" id="形状"></path>
                                                        <path d="M0,0.83934194 C0.0205750423,0.848022377 0.0402998762,0.855703031 0.0608749185,0.86304603 L0.0603710913,0.920197219 L0.0617251268,0.949695363 L0.0617251268,0.949695363 C0.107177266,0.968731413 0.15354763,0.986787573 0.19978196,1.00345332 L0.201143553,0.975485181 L0.200632168,0.918188334 C0.221207211,0.926882145 0.240932045,0.9345628 0.261507087,0.941892424 C0.260656879,1.01171446 0.260656879,1.08185418 0.261507087,1.1523116 L0.200632168,1.12860751 L0.201135996,1.07130771 L0.19978196,1.04195817 L0.19978196,1.04195817 C0.154329821,1.02292212 0.107959457,1.00486596 0.0617251268,0.988200212 C0.0600247101,1.01653375 0.0608749185,1.04519176 0.0608749185,1.07418742 L0,1.05048333 L0.000637656269,0.944906819 L0,0.83934194 Z M0.205139618,0.960206312 C0.226126789,0.968886749 0.246246722,0.976567404 0.267233892,0.983910402 L0.268101131,1.12047293 L0.268101131,1.12047293 C0.268101131,1.13994604 0.285510672,1.16657711 0.310371723,1.18075966 L0.321453641,1.18601858 C0.352067159,1.20171741 0.395793323,1.2117224 0.402800609,1.18672578 L0.404189476,1.13715157 L0.403667848,1.03592631 C0.424655019,1.04460675 0.444774951,1.05228741 0.465762122,1.0596304 L0.466646705,1.19551746 L0.466646705,1.19551746 L0.465089006,1.21685232 C0.463389358,1.22724506 0.459299461,1.23628912 0.448278595,1.23976957 C0.415046017,1.25202647 0.366064388,1.23671177 0.322338225,1.21798668 L0.28890084,1.20250086 C0.272129974,1.19411275 0.255866131,1.18426577 0.242743078,1.17075002 C0.219283825,1.14900701 0.205790534,1.12279538 0.206874095,1.1010721 L0.205139618,0.960206312 Z M0.489486216,1.11381941 L0.546211093,1.13952974 C0.55284336,1.16545948 0.568313781,1.19135602 0.5764069,1.21727917 L0.589932562,1.24700329 L0.612562983,1.30622322 C0.616648803,1.31607423 0.621160096,1.3259179 0.62649951,1.33575741 C0.635337663,1.35594627 0.643445391,1.37580407 0.648602198,1.39635728 L0.613238762,1.38072126 L0.595558668,1.37163341 L0.595558668,1.37163341 C0.583769593,1.35212659 0.580833281,1.33191109 0.570519667,1.31240429 C0.534264068,1.29248928 0.497697676,1.27614 0.461496295,1.26365859 L0.445341438,1.28866285 C0.442503598,1.29274815 0.439393607,1.29658578 0.43571226,1.29986574 C0.419511413,1.29386021 0.403295958,1.2858419 0.387095111,1.27849893 C0.388555963,1.25892561 0.399614611,1.24708618 0.410673259,1.23590209 C0.421717299,1.21528244 0.43571226,1.1973511 0.446025874,1.17640038 C0.453481696,1.17042098 0.458971532,1.16269851 0.463853545,1.15441632 L0.478034279,1.12907391 L0.478034279,1.12907391 L0.489486216,1.11381941 Z M0.492859317,1.2989442 C0.527174783,1.32865151 0.562968757,1.34948184 0.597284223,1.35971437 L0.564323524,1.24836027 C0.558468603,1.22992059 0.552039581,1.21146102 0.54444641,1.19286225 C0.526608265,1.21346424 0.516335955,1.24326846 0.504901666,1.27153219 L0.492859317,1.2989442 Z M0.567803178,1.1738808 L0.612002484,1.1999222 C0.615373903,1.22214401 0.619363415,1.24471663 0.626162444,1.26760712 C0.636928509,1.30699838 0.640895546,1.34440331 0.652796656,1.3837946 L0.657898737,1.38476775 L0.663319873,1.3556315 L0.679092847,1.30177373 C0.681450909,1.29261296 0.683400713,1.28313497 0.684532948,1.27300225 C0.686383611,1.26400075 0.688847477,1.25553375 0.691905118,1.24766803 L0.740082698,1.27605335 L0.762623757,1.37216514 L0.77607489,1.4380101 C0.778109609,1.44715715 0.780971269,1.4562098 0.787113995,1.46428265 L0.795455975,1.42916408 L0.795455975,1.42916408 L0.816598636,1.36281782 C0.820086475,1.35173266 0.823379227,1.34048053 0.82621122,1.32883155 L0.840146003,1.33503154 L0.869286718,1.35217791 C0.848878394,1.41030235 0.827919405,1.46740688 0.808601173,1.52684231 L0.776864881,1.5087383 C0.771575499,1.5056219 0.766286117,1.50235689 0.760996735,1.49879468 C0.758451313,1.49560979 0.757178603,1.49199447 0.756328724,1.48837416 L0.731201298,1.37445721 C0.727130205,1.35722195 0.722659953,1.3399759 0.717370571,1.32269603 L0.712857031,1.33255218 L0.707166409,1.35512191 L0.681667242,1.45138652 L0.681667242,1.45138652 C0.665237192,1.44237497 0.649369046,1.43302576 0.632927759,1.42267014 L0.624508166,1.39663312 L0.612131897,1.34516233 C0.609874978,1.33658201 0.607290925,1.3279778 0.604034696,1.31931526 C0.592133587,1.276567 0.585334558,1.23340094 0.570028315,1.1907061 L0.568287376,1.18204985 L0.567803178,1.1738808 Z M0.912617131,1.39656846 C0.929064769,1.38540106 0.956151878,1.38492496 0.985011015,1.39529604 L1.13923498,1.44938509 L1.13923498,1.48715435 C1.09503778,1.47077989 1.05084059,1.45443217 1.0066434,1.44007723 C0.973728609,1.4310656 0.953047306,1.44599098 0.951163797,1.4682593 L1.01350746,1.49175685 L1.13923498,1.53570336 L1.13923498,1.57347262 C1.07810485,1.55109943 1.01604229,1.52839518 0.954930815,1.50803477 C0.947471373,1.52697252 0.964255118,1.55585534 0.99536099,1.57230285 C1.0433252,1.59539131 1.09127076,1.60769339 1.13923498,1.62675617 L1.13923498,1.65980427 C1.08752239,1.64144353 1.03666765,1.62405609 0.985011015,1.6050465 C0.934707515,1.58302977 0.893566939,1.54191095 0.882443689,1.50253339 C0.874284924,1.4648214 0.874692862,1.42601419 0.900083448,1.40460047 L0.912617131,1.39656846 Z M1.11368191,1.475142 C1.13855906,1.48057878 1.16414933,1.48974215 1.18915572,1.50216769 L1.19128202,1.54757406 L1.1914263,1.70588061 C1.19108078,1.71717976 1.19016039,1.72821062 1.18808953,1.7387329 L1.11366141,1.71131432 L1.11444824,1.59316905 L1.11368191,1.475142 Z" id="形状"></path>
                                                    </g>
                                                    <g id="编组-65" transform="translate(3.648752, 2.689090) rotate(-8.000000) translate(-3.648752, -2.689090) translate(2.341216, 1.374222)" fill="#22FFFF">
                                                        <path d="M0.156514747,0.574761309 C0.242955455,0.649255289 0.313029494,0.58808171 0.313029494,0.438126296 C0.313029494,0.288170882 0.242955455,0.106218697 0.156514747,0.0317247176 C0.0700740392,-0.0427692623 6.46458274e-13,0.0184043169 6.46458274e-13,0.168359731 C6.46458274e-13,0.318315145 0.0700740392,0.500267329 0.156514747,0.574761309 Z" id="椭圆形"></path>
                                                        <path d="M0.923861872,1.24917772 C1.01030258,1.3236717 1.08037662,1.26249812 1.08037662,1.11254271 C1.08037662,0.962587294 1.01030258,0.78063511 0.923861872,0.70614113 C0.837421164,0.63164715 0.767347125,0.692820729 0.767347125,0.842776143 C0.767347125,0.992731557 0.837421164,1.17468374 0.923861872,1.24917772 Z" id="椭圆形备份-62"></path>
                                                        <path d="M1.691209,1.92359413 C1.77764971,1.99808811 1.84772374,1.93691453 1.84772374,1.78695912 C1.84772374,1.63700371 1.77764971,1.45505152 1.691209,1.38055754 C1.60476829,1.30606356 1.53469425,1.36723714 1.53469425,1.51719256 C1.53469425,1.66714797 1.60476829,1.84910015 1.691209,1.92359413 Z" id="椭圆形备份-63"></path>
                                                        <path d="M2.45855612,2.59801055 C2.54499683,2.67250453 2.61507087,2.61133095 2.61507087,2.46137553 C2.61507087,2.31142012 2.54499683,2.12946793 2.45855612,2.05497395 C2.37211541,1.98047997 2.30204138,2.04165355 2.30204138,2.19160897 C2.30204138,2.34156438 2.37211541,2.52351657 2.45855612,2.59801055 Z" id="椭圆形备份-64"></path>
                                                    </g>
                                                </g>
                                                <g id="LOGO3" transform="translate(2.343561, 9.745358)" fill-rule="nonzero">
                                                    <g id="形状">
                                                        <use fill="#C71F1E" xlink:href="#path-6"></use>
                                                        <use fill="url(#linearGradient-5)" xlink:href="#path-6"></use>
                                                    </g>
                                                </g>
                                                <g id="1" transform="translate(1.239530, 7.404571)" fill-rule="nonzero">
                                                    <g id="组_1" transform="translate(31.755572, 18.200000)">
                                                        <circle id="椭圆_8-10" fill="url(#linearGradient-7)" cx="0.5" cy="0.5" r="1"></circle>
                                                        <ellipse id="椭圆_7-10" fill="url(#linearGradient-8)" cx="0.5" cy="0.5" rx="1" ry="1"></ellipse>
                                                    </g>
                                                    <g id="组_2" transform="translate(16.402454, 9.395429)">
                                                        <circle id="椭圆_8-10" fill="url(#linearGradient-7)" cx="0.5" cy="0.5" r="1"></circle>
                                                        <ellipse id="椭圆_7-10" fill="url(#linearGradient-8)" cx="0.5" cy="0.5" rx="1" ry="1"></ellipse>
                                                    </g>
                                                    <g id="组_3">
                                                        <circle id="椭圆_8-10" fill="url(#linearGradient-7)" cx="0.5" cy="0.5" r="1"></circle>
                                                        <ellipse id="椭圆_7-10" fill="url(#linearGradient-8)" cx="0.5" cy="0.5" rx="1" ry="1"></ellipse>
                                                    </g>
                                                </g>
                                                <g id="1备份" transform="translate(1.239530, 33.304571)" fill-rule="nonzero">
                                                    <g id="组_1" transform="translate(31.755572, 18.200000)">
                                                        <circle id="椭圆_8-10" fill="url(#linearGradient-7)" cx="0.5" cy="0.5" r="1"></circle>
                                                        <ellipse id="椭圆_7-10" fill="url(#linearGradient-8)" cx="0.5" cy="0.5" rx="1" ry="1"></ellipse>
                                                    </g>
                                                    <g id="组_2" transform="translate(16.402454, 9.395429)">
                                                        <circle id="椭圆_8-10" fill="url(#linearGradient-7)" cx="0.5" cy="0.5" r="1"></circle>
                                                        <ellipse id="椭圆_7-10" fill="url(#linearGradient-8)" cx="0.5" cy="0.5" rx="1" ry="1"></ellipse>
                                                    </g>
                                                    <g id="组_3">
                                                        <circle id="椭圆_8-10" fill="url(#linearGradient-7)" cx="0.5" cy="0.5" r="1"></circle>
                                                        <ellipse id="椭圆_7-10" fill="url(#linearGradient-8)" cx="0.5" cy="0.5" rx="1" ry="1"></ellipse>
                                                    </g>
                                                </g>
                                            </g>
                                            <path d="M34.7313421,25.3420427 L34.2757302,25.0661702 L34.2757302,25.0661702 L2.09242809,6.41226959 C1.83972188,6.2760849 1.58682543,6.21847076 1.33373876,6.23942719 C1.08065208,6.26038361 0.887972838,6.31221568 0.755701024,6.3949234 L7.61434161,1.81821821 C8.7242917,1.07755914 10.1588152,1.03247009 11.3130882,1.7019615 L43.3267417,20.2702421 L43.3267417,20.2702421 L43.5124574,20.3774074 C44.379099,20.8774938 44.9130228,21.8020279 44.9130228,22.8026048 L44.9130228,22.9858851 L44.9130228,22.9858851 L44.9462193,48.2150961 C44.9240883,48.5142178 44.8441029,48.7570786 44.7062631,48.9436783 C44.5684232,49.130278 44.4034352,49.2785965 44.211299,49.3886337 L35.320219,54.3017288 C35.5688908,54.1391973 35.7389469,53.9921321 35.8303872,53.8605331 C35.9675476,53.6631348 36.0810811,53.311084 36.0810811,53.1733327 C36.0810811,44.8476312 36.0810811,36.4301231 36.0810811,27.9208084 L36.0810811,27.7371927 C36.0810811,26.7576816 35.5692263,25.8493809 34.7313421,25.3420427 Z" id="矩形备份-74" fill="url(#linearGradient-9)" fill-rule="nonzero"></path>
                                        </g>
                                    </g>
                                </g>
                            </g>
                        </g>
                    </g>
                </g>
            </g>
        </g>
    </g>
</svg>