<?xml version="1.0" encoding="UTF-8"?>
<svg width="20px" height="20px" viewBox="0 0 20 20" version="1.1" xmlns="http://www.w3.org/2000/svg" xmlns:xlink="http://www.w3.org/1999/xlink">
    <title>切片</title>
    <g id="光储充及工商储管理系统V1.3" stroke="none" stroke-width="1" fill="none" fill-rule="evenodd">
        <g id="3_2_8.设备监视_示范站站点拓扑_通信拓扑" transform="translate(-1089.000000, -705.000000)" fill-rule="nonzero">
            <g id="main" transform="translate(212.000000, 102.000000)">
                <g transform="translate(60.000000, 40.000000)" id="3">
                    <g transform="translate(0.000000, 245.000000)">
                        <g id="2" transform="translate(359.000000, 275.000000)">
                            <g id="1" transform="translate(24.000000, 43.000000)">
                                <g id="编组4" transform="translate(365.000000, 0.000000)">
                                    <g id="icon_设备在线" transform="translate(69.000000, 0.000000)">
                                        <rect id="矩形" fill="#000000" opacity="0" x="0" y="0" width="20" height="20"></rect>
                                        <path d="M1,10 C1,13.2153903 2.71539025,16.1865336 5.5,17.7942287 C8.28460967,19.4019239 11.7153903,19.4019239 14.5,17.7942287 C17.2846097,16.1865336 19,13.2153903 19,10 C19,5.02943725 14.9705627,1 10,1 C5.02943725,1 1,5.02943725 1,10 Z" id="路径" fill="#E8FFEA"></path>
                                        <path d="M4.5333297,8.87856994 C4.39683645,8.87856994 4.26034319,8.82578784 4.15620991,8.72021349 C3.94793003,8.50907832 3.94793003,8.16676929 4.15620991,7.95563412 C4.94555614,7.15546682 5.86564896,6.53586125 6.89091506,6.1140099 C7.88115451,5.70658024 8.92720726,5.5 10,5.5 C11.0727927,5.5 12.1188322,5.70658024 13.1090849,6.1140099 C14.1343644,6.53584773 15.0544439,7.15546682 15.8437901,7.95563412 C16.05207,8.16676929 16.05207,8.50909184 15.8437901,8.72021349 C15.6355102,8.93136218 15.2978304,8.93134867 15.0895505,8.72021349 C13.7288846,7.34090786 11.9213789,6.5812889 10,6.5812889 C8.07860773,6.5812889 6.27110207,7.34090786 4.91044949,8.72021349 C4.80631622,8.82578784 4.66982296,8.87856994 4.5333297,8.87856994 L4.5333297,8.87856994 Z M13.7333324,10.7644442 C13.5968313,10.7644442 13.4603381,10.7116638 13.3562048,10.6060895 C11.5055792,8.7301208 8.49439417,8.7301208 6.64378186,10.6060895 C6.43550198,10.8172246 6.09782217,10.8172246 5.88954228,10.6060895 C5.6812624,10.3949543 5.6812624,10.0526453 5.88954228,9.84151008 C6.44468864,9.27875327 7.09186162,8.8429533 7.81312788,8.54619356 C8.50967416,8.25959794 9.24544709,8.11428623 9.99999333,8.11428623 C10.7545262,8.11428623 11.4902992,8.25959794 12.1868588,8.54619356 C12.9081117,8.8429533 13.5553114,9.27875327 14.1104577,9.84149656 C14.3187376,10.0526317 14.3187376,10.3949543 14.1104577,10.6060895 C14.0063111,10.7116638 13.8698045,10.7644442 13.7333324,10.7644442 Z M11.5333258,12.4002451 C11.3968192,12.4002451 11.2603393,12.3474782 11.1561927,12.2418903 C10.8470329,11.9284787 10.4364331,11.755878 9.99999333,11.755878 C9.56356691,11.755878 9.1529538,11.9284787 8.84379398,12.2418903 C8.63551409,12.4530255 8.29783428,12.4530255 8.08954106,12.2418903 C7.88126118,12.0307687 7.88126118,11.6884461 8.08954106,11.477311 C8.60016744,10.9596709 9.2786604,10.6745891 10.0000067,10.6745891 C10.7213663,10.6745891 11.3998326,10.9596709 11.9104723,11.477311 C12.1187388,11.6884596 12.1187388,12.0307687 11.9104589,12.2419038 C11.8063257,12.3474376 11.6697924,12.4002451 11.5333258,12.4002451 Z M9.24908708,13.7387996 C9.24908708,14.159199 9.58527926,14.5 9.99999333,14.5 C10.4147074,14.5 10.7508996,14.159199 10.7508996,13.7387996 C10.7508996,13.3184003 10.4147074,12.9775993 9.99999333,12.9775993 C9.58527926,12.9775993 9.24908708,13.3184003 9.24908708,13.7387996 L9.24908708,13.7387996 Z" id="形状" fill="#00B42A"></path>
                                    </g>
                                </g>
                            </g>
                        </g>
                    </g>
                </g>
            </g>
        </g>
    </g>
</svg>