<?xml version="1.0" encoding="UTF-8"?>
<svg width="48px" height="49px" viewBox="0 0 48 49" version="1.1" xmlns="http://www.w3.org/2000/svg" xmlns:xlink="http://www.w3.org/1999/xlink">
    <title>icon_储能空调 </title>
    <defs>
        <path d="M36.1423945,10.6716876 L27.7165438,15.5601991 C23.5522651,17.9763291 20.9873252,22.4409464 20.9873252,27.2732066 L20.9873252,27.2732066 L20.9873252,37.2491183 C20.9873252,38.1772659 21.9869121,38.7571906 22.7872479,38.2931169 L22.7872479,38.2931169 L31.241087,33.3885336 C35.4173608,30.9657069 37.9842998,26.4830088 37.9703625,21.6373555 L37.9703625,21.6373555 L37.9423172,11.7130075 C37.940318,11.0105351 37.3658888,10.5082908 36.7401474,10.5082908 L36.7401474,10.5082908 C36.54023,10.5082908 36.3356479,10.5598545 36.1423945,10.6716876" id="path-1"></path>
        <path d="M36.1423945,10.6716876 L27.7165438,15.5601991 C23.5522651,17.9763291 20.9873252,22.4409464 20.9873252,27.2732066 L20.9873252,27.2732066 L20.9873252,37.2491183 C20.9873252,38.1772659 21.9869121,38.7571906 22.7872479,38.2931169 L22.7872479,38.2931169 L31.241087,33.3885336 C35.4173608,30.9657069 37.9842998,26.4830088 37.9703625,21.6373555 L37.9703625,21.6373555 L37.9423172,11.7130075 C37.940318,11.0105351 37.3658888,10.5082908 36.7401474,10.5082908 L36.7401474,10.5082908 C36.54023,10.5082908 36.3356479,10.5598545 36.1423945,10.6716876 L36.1423945,10.6716876 Z" id="path-3"></path>
        <path d="M36.1423945,10.6716876 L27.7165438,15.5601991 C23.5522651,17.9763291 20.9873252,22.4409464 20.9873252,27.2732066 L20.9873252,27.2732066 L20.9873252,37.2491183 C20.9873252,38.1772659 21.9869121,38.7571906 22.7872479,38.2931169 L22.7872479,38.2931169 L31.241087,33.3885336 C35.4173608,30.9657069 37.9842998,26.4830088 37.9703625,21.6373555 L37.9703625,21.6373555 L37.9423172,11.7130075 C37.940318,11.0105351 37.3658888,10.5082908 36.7401474,10.5082908 L36.7401474,10.5082908 C36.54023,10.5082908 36.3356479,10.5598545 36.1423945,10.6716876" id="path-5"></path>
        <path d="M36.1423945,10.6716876 L27.7165438,15.5601991 C23.5522651,17.9763291 20.9873252,22.4409464 20.9873252,27.2732066 L20.9873252,27.2732066 L20.9873252,37.2491183 C20.9873252,38.1772659 21.9869121,38.7571906 22.7872479,38.2931169 L22.7872479,38.2931169 L31.241087,33.3885336 C35.4173608,30.9657069 37.9842998,26.4830088 37.9703625,21.6373555 L37.9703625,21.6373555 L37.9423172,11.7130075 C37.940318,11.0105351 37.3658888,10.5082908 36.7401474,10.5082908 L36.7401474,10.5082908 C36.54023,10.5082908 36.3356479,10.5598545 36.1423945,10.6716876" id="path-7"></path>
        <path d="M36.1423945,10.6716876 L27.7165438,15.5601991 C23.5522651,17.9763291 20.9873252,22.4409464 20.9873252,27.2732066 L20.9873252,27.2732066 L20.9873252,37.2491183 C20.9873252,38.1772659 21.9869121,38.7571906 22.7872479,38.2931169 L22.7872479,38.2931169 L31.241087,33.3885336 C35.4173608,30.9657069 37.9842998,26.4830088 37.9703625,21.6373555 L37.9703625,21.6373555 L37.9423172,11.7130075 C37.940318,11.0105351 37.3658888,10.5082908 36.7401474,10.5082908 L36.7401474,10.5082908 C36.54023,10.5082908 36.3356479,10.5598545 36.1423945,10.6716876" id="path-9"></path>
        <path d="M36.1423945,10.6716876 L27.7165438,15.5601991 C23.5522651,17.9763291 20.9873252,22.4409464 20.9873252,27.2732066 L20.9873252,27.2732066 L20.9873252,37.2491183 C20.9873252,38.1772659 21.9869121,38.7571906 22.7872479,38.2931169 L22.7872479,38.2931169 L31.241087,33.3885336 C35.4173608,30.9657069 37.9842998,26.4830088 37.9703625,21.6373555 L37.9703625,21.6373555 L37.9423172,11.7130075 C37.940318,11.0105351 37.3658888,10.5082908 36.7401474,10.5082908 L36.7401474,10.5082908 C36.54023,10.5082908 36.3356479,10.5598545 36.1423945,10.6716876" id="path-11"></path>
        <path d="M36.1423945,10.6716876 L27.7165438,15.5601991 C23.5522651,17.9763291 20.9873252,22.4409464 20.9873252,27.2732066 L20.9873252,27.2732066 L20.9873252,37.2491183 C20.9873252,38.1772659 21.9869121,38.7571906 22.7872479,38.2931169 L22.7872479,38.2931169 L31.241087,33.3885336 C35.4173608,30.9657069 37.9842998,26.4830088 37.9703625,21.6373555 L37.9703625,21.6373555 L37.9423172,11.7130075 C37.940318,11.0105351 37.3658888,10.5082908 36.7401474,10.5082908 L36.7401474,10.5082908 C36.54023,10.5082908 36.3356479,10.5598545 36.1423945,10.6716876" id="path-13"></path>
        <path d="M36.1423945,10.6716876 L27.7165438,15.5601991 C23.5522651,17.9763291 20.9873252,22.4409464 20.9873252,27.2732066 L20.9873252,27.2732066 L20.9873252,37.2491183 C20.9873252,38.1772659 21.9869121,38.7571906 22.7872479,38.2931169 L22.7872479,38.2931169 L31.241087,33.3885336 C35.4173608,30.9657069 37.9842998,26.4830088 37.9703625,21.6373555 L37.9703625,21.6373555 L37.9423172,11.7130075 C37.940318,11.0105351 37.3658888,10.5082908 36.7401474,10.5082908 L36.7401474,10.5082908 C36.54023,10.5082908 36.3356479,10.5598545 36.1423945,10.6716876" id="path-15"></path>
        <path d="M36.1423945,10.6716876 L27.7165438,15.5601991 C23.5522651,17.9763291 20.9873252,22.4409464 20.9873252,27.2732066 L20.9873252,27.2732066 L20.9873252,37.2491183 C20.9873252,38.1772659 21.9869121,38.7571906 22.7872479,38.2931169 L22.7872479,38.2931169 L31.241087,33.3885336 C35.4173608,30.9657069 37.9842998,26.4830088 37.9703625,21.6373555 L37.9703625,21.6373555 L37.9423172,11.7130075 C37.940318,11.0105351 37.3658888,10.5082908 36.7401474,10.5082908 L36.7401474,10.5082908 C36.54023,10.5082908 36.3356479,10.5598545 36.1423945,10.6716876" id="path-17"></path>
        <path d="M36.1423945,10.6716876 L27.7165438,15.5601991 C23.5522651,17.9763291 20.9873252,22.4409464 20.9873252,27.2732066 L20.9873252,27.2732066 L20.9873252,37.2491183 C20.9873252,38.1772659 21.9869121,38.7571906 22.7872479,38.2931169 L22.7872479,38.2931169 L31.241087,33.3885336 C35.4173608,30.9657069 37.9842998,26.4830088 37.9703625,21.6373555 L37.9703625,21.6373555 L37.9423172,11.7130075 C37.940318,11.0105351 37.3658888,10.5082908 36.7401474,10.5082908 L36.7401474,10.5082908 C36.54023,10.5082908 36.3356479,10.5598545 36.1423945,10.6716876" id="path-19"></path>
        <path d="M36.1423945,10.6716876 L27.7165438,15.5601991 C23.5522651,17.9763291 20.9873252,22.4409464 20.9873252,27.2732066 L20.9873252,27.2732066 L20.9873252,37.2491183 C20.9873252,38.1772659 21.9869121,38.7571906 22.7872479,38.2931169 L22.7872479,38.2931169 L31.241087,33.3885336 C35.4173608,30.9657069 37.9842998,26.4830088 37.9703625,21.6373555 L37.9703625,21.6373555 L37.9423172,11.7130075 C37.940318,11.0105351 37.3658888,10.5082908 36.7401474,10.5082908 L36.7401474,10.5082908 C36.54023,10.5082908 36.3356479,10.5598545 36.1423945,10.6716876 L36.1423945,10.6716876 Z" id="path-21"></path>
        <path d="M36.1423945,10.6716876 L27.7165438,15.5601991 C23.5522651,17.9763291 20.9873252,22.4409464 20.9873252,27.2732066 L20.9873252,27.2732066 L20.9873252,37.2491183 C20.9873252,38.1772659 21.9869121,38.7571906 22.7872479,38.2931169 L22.7872479,38.2931169 L31.241087,33.3885336 C35.4173608,30.9657069 37.9842998,26.4830088 37.9703625,21.6373555 L37.9703625,21.6373555 L37.9423172,11.7130075 C37.940318,11.0105351 37.3658888,10.5082908 36.7401474,10.5082908 L36.7401474,10.5082908 C36.54023,10.5082908 36.3356479,10.5598545 36.1423945,10.6716876 L36.1423945,10.6716876 Z" id="path-23"></path>
        <path d="M36.1423945,10.6716876 L27.7165438,15.5601991 C23.5522651,17.9763291 20.9873252,22.4409464 20.9873252,27.2732066 L20.9873252,27.2732066 L20.9873252,37.2491183 C20.9873252,38.1772659 21.9869121,38.7571906 22.7872479,38.2931169 L22.7872479,38.2931169 L31.241087,33.3885336 C35.4173608,30.9657069 37.9842998,26.4830088 37.9703625,21.6373555 L37.9703625,21.6373555 L37.9423172,11.7130075 C37.940318,11.0105351 37.3658888,10.5082908 36.7401474,10.5082908 L36.7401474,10.5082908 C36.54023,10.5082908 36.3356479,10.5598545 36.1423945,10.6716876" id="path-25"></path>
        <path d="M36.1423945,10.6716876 L27.7165438,15.5601991 C23.5522651,17.9763291 20.9873252,22.4409464 20.9873252,27.2732066 L20.9873252,27.2732066 L20.9873252,37.2491183 C20.9873252,38.1772659 21.9869121,38.7571906 22.7872479,38.2931169 L22.7872479,38.2931169 L31.241087,33.3885336 C35.4173608,30.9657069 37.9842998,26.4830088 37.9703625,21.6373555 L37.9703625,21.6373555 L37.9423172,11.7130075 C37.940318,11.0105351 37.3658888,10.5082908 36.7401474,10.5082908 L36.7401474,10.5082908 C36.54023,10.5082908 36.3356479,10.5598545 36.1423945,10.6716876 L36.1423945,10.6716876 Z" id="path-27"></path>
        <path d="M36.1423945,10.6716876 L27.7165438,15.5601991 C23.5522651,17.9763291 20.9873252,22.4409464 20.9873252,27.2732066 L20.9873252,27.2732066 L20.9873252,37.2491183 C20.9873252,38.1772659 21.9869121,38.7571906 22.7872479,38.2931169 L22.7872479,38.2931169 L31.241087,33.3885336 C35.4173608,30.9657069 37.9842998,26.4830088 37.9703625,21.6373555 L37.9703625,21.6373555 L37.9423172,11.7130075 C37.940318,11.0105351 37.3658888,10.5082908 36.7401474,10.5082908 L36.7401474,10.5082908 C36.54023,10.5082908 36.3356479,10.5598545 36.1423945,10.6716876" id="path-29"></path>
        <path d="M36.1423945,10.6716876 L27.7165438,15.5601991 C23.5522651,17.9763291 20.9873252,22.4409464 20.9873252,27.2732066 L20.9873252,27.2732066 L20.9873252,37.2491183 C20.9873252,38.1772659 21.9869121,38.7571906 22.7872479,38.2931169 L22.7872479,38.2931169 L31.241087,33.3885336 C35.4173608,30.9657069 37.9842998,26.4830088 37.9703625,21.6373555 L37.9703625,21.6373555 L37.9423172,11.7130075 C37.940318,11.0105351 37.3658888,10.5082908 36.7401474,10.5082908 L36.7401474,10.5082908 C36.54023,10.5082908 36.3356479,10.5598545 36.1423945,10.6716876" id="path-31"></path>
        <path d="M36.1423945,10.6716876 L27.7165438,15.5601991 C23.5522651,17.9763291 20.9873252,22.4409464 20.9873252,27.2732066 L20.9873252,27.2732066 L20.9873252,37.2491183 C20.9873252,38.1772659 21.9869121,38.7571906 22.7872479,38.2931169 L22.7872479,38.2931169 L31.241087,33.3885336 C35.4173608,30.9657069 37.9842998,26.4830088 37.9703625,21.6373555 L37.9703625,21.6373555 L37.9423172,11.7130075 C37.940318,11.0105351 37.3658888,10.5082908 36.7401474,10.5082908 L36.7401474,10.5082908 C36.54023,10.5082908 36.3356479,10.5598545 36.1423945,10.6716876 L36.1423945,10.6716876 Z" id="path-33"></path>
        <path d="M36.1423945,10.6716876 L27.7165438,15.5601991 C23.5522651,17.9763291 20.9873252,22.4409464 20.9873252,27.2732066 L20.9873252,27.2732066 L20.9873252,37.2491183 C20.9873252,38.1772659 21.9869121,38.7571906 22.7872479,38.2931169 L22.7872479,38.2931169 L31.241087,33.3885336 C35.4173608,30.9657069 37.9842998,26.4830088 37.9703625,21.6373555 L37.9703625,21.6373555 L37.9423172,11.7130075 C37.940318,11.0105351 37.3658888,10.5082908 36.7401474,10.5082908 L36.7401474,10.5082908 C36.54023,10.5082908 36.3356479,10.5598545 36.1423945,10.6716876 L36.1423945,10.6716876 Z" id="path-35"></path>
        <path d="M36.1423945,10.6716876 L27.7165438,15.5601991 C23.5522651,17.9763291 20.9873252,22.4409464 20.9873252,27.2732066 L20.9873252,27.2732066 L20.9873252,37.2491183 C20.9873252,38.1772659 21.9869121,38.7571906 22.7872479,38.2931169 L22.7872479,38.2931169 L31.241087,33.3885336 C35.4173608,30.9657069 37.9842998,26.4830088 37.9703625,21.6373555 L37.9703625,21.6373555 L37.9423172,11.7130075 C37.940318,11.0105351 37.3658888,10.5082908 36.7401474,10.5082908 L36.7401474,10.5082908 C36.54023,10.5082908 36.3356479,10.5598545 36.1423945,10.6716876 L36.1423945,10.6716876 Z" id="path-37"></path>
        <path d="M36.1423945,10.6716876 L27.7165438,15.5601991 C23.5522651,17.9763291 20.9873252,22.4409464 20.9873252,27.2732066 L20.9873252,27.2732066 L20.9873252,37.2491183 C20.9873252,38.1772659 21.9869121,38.7571906 22.7872479,38.2931169 L22.7872479,38.2931169 L31.241087,33.3885336 C35.4173608,30.9657069 37.9842998,26.4830088 37.9703625,21.6373555 L37.9703625,21.6373555 L37.9423172,11.7130075 C37.940318,11.0105351 37.3658888,10.5082908 36.7401474,10.5082908 L36.7401474,10.5082908 C36.54023,10.5082908 36.3356479,10.5598545 36.1423945,10.6716876 L36.1423945,10.6716876 Z" id="path-39"></path>
        <path d="M36.1423945,10.6716876 L27.7165438,15.5601991 C23.5522651,17.9763291 20.9873252,22.4409464 20.9873252,27.2732066 L20.9873252,27.2732066 L20.9873252,37.2491183 C20.9873252,38.1772659 21.9869121,38.7571906 22.7872479,38.2931169 L22.7872479,38.2931169 L31.241087,33.3885336 C35.4173608,30.9657069 37.9842998,26.4830088 37.9703625,21.6373555 L37.9703625,21.6373555 L37.9423172,11.7130075 C37.940318,11.0105351 37.3658888,10.5082908 36.7401474,10.5082908 L36.7401474,10.5082908 C36.54023,10.5082908 36.3356479,10.5598545 36.1423945,10.6716876 L36.1423945,10.6716876 Z" id="path-41"></path>
        <path d="M36.1423945,10.6716876 L27.7165438,15.5601991 C23.5522651,17.9763291 20.9873252,22.4409464 20.9873252,27.2732066 L20.9873252,27.2732066 L20.9873252,37.2491183 C20.9873252,38.1772659 21.9869121,38.7571906 22.7872479,38.2931169 L22.7872479,38.2931169 L31.241087,33.3885336 C35.4173608,30.9657069 37.9842998,26.4830088 37.9703625,21.6373555 L37.9703625,21.6373555 L37.9423172,11.7130075 C37.940318,11.0105351 37.3658888,10.5082908 36.7401474,10.5082908 L36.7401474,10.5082908 C36.54023,10.5082908 36.3356479,10.5598545 36.1423945,10.6716876 L36.1423945,10.6716876 Z" id="path-43"></path>
        <path d="M36.1423945,10.6716876 L27.7165438,15.5601991 C23.5522651,17.9763291 20.9873252,22.4409464 20.9873252,27.2732066 L20.9873252,27.2732066 L20.9873252,37.2491183 C20.9873252,38.1772659 21.9869121,38.7571906 22.7872479,38.2931169 L22.7872479,38.2931169 L31.241087,33.3885336 C35.4173608,30.9657069 37.9842998,26.4830088 37.9703625,21.6373555 L37.9703625,21.6373555 L37.9423172,11.7130075 C37.940318,11.0105351 37.3658888,10.5082908 36.7401474,10.5082908 L36.7401474,10.5082908 C36.54023,10.5082908 36.3356479,10.5598545 36.1423945,10.6716876" id="path-45"></path>
        <path d="M36.1423945,10.6716876 L27.7165438,15.5601991 C23.5522651,17.9763291 20.9873252,22.4409464 20.9873252,27.2732066 L20.9873252,27.2732066 L20.9873252,37.2491183 C20.9873252,38.1772659 21.9869121,38.7571906 22.7872479,38.2931169 L22.7872479,38.2931169 L31.241087,33.3885336 C35.4173608,30.9657069 37.9842998,26.4830088 37.9703625,21.6373555 L37.9703625,21.6373555 L37.9423172,11.7130075 C37.940318,11.0105351 37.3658888,10.5082908 36.7401474,10.5082908 L36.7401474,10.5082908 C36.54023,10.5082908 36.3356479,10.5598545 36.1423945,10.6716876" id="path-47"></path>
        <path d="M36.1423945,10.6716876 L27.7165438,15.5601991 C23.5522651,17.9763291 20.9873252,22.4409464 20.9873252,27.2732066 L20.9873252,27.2732066 L20.9873252,37.2491183 C20.9873252,38.1772659 21.9869121,38.7571906 22.7872479,38.2931169 L22.7872479,38.2931169 L31.241087,33.3885336 C35.4173608,30.9657069 37.9842998,26.4830088 37.9703625,21.6373555 L37.9703625,21.6373555 L37.9423172,11.7130075 C37.940318,11.0105351 37.3658888,10.5082908 36.7401474,10.5082908 L36.7401474,10.5082908 C36.54023,10.5082908 36.3356479,10.5598545 36.1423945,10.6716876" id="path-49"></path>
        <path d="M36.1423945,10.6716876 L27.7165438,15.5601991 C23.5522651,17.9763291 20.9873252,22.4409464 20.9873252,27.2732066 L20.9873252,27.2732066 L20.9873252,37.2491183 C20.9873252,38.1772659 21.9869121,38.7571906 22.7872479,38.2931169 L22.7872479,38.2931169 L31.241087,33.3885336 C35.4173608,30.9657069 37.9842998,26.4830088 37.9703625,21.6373555 L37.9703625,21.6373555 L37.9423172,11.7130075 C37.940318,11.0105351 37.3658888,10.5082908 36.7401474,10.5082908 L36.7401474,10.5082908 C36.54023,10.5082908 36.3356479,10.5598545 36.1423945,10.6716876" id="path-51"></path>
        <path d="M36.1423945,10.6716876 L27.7165438,15.5601991 C23.5522651,17.9763291 20.9873252,22.4409464 20.9873252,27.2732066 L20.9873252,27.2732066 L20.9873252,37.2491183 C20.9873252,38.1772659 21.9869121,38.7571906 22.7872479,38.2931169 L22.7872479,38.2931169 L31.241087,33.3885336 C35.4173608,30.9657069 37.9842998,26.4830088 37.9703625,21.6373555 L37.9703625,21.6373555 L37.9423172,11.7130075 C37.940318,11.0105351 37.3658888,10.5082908 36.7401474,10.5082908 L36.7401474,10.5082908 C36.54023,10.5082908 36.3356479,10.5598545 36.1423945,10.6716876" id="path-53"></path>
        <path d="M36.1423945,10.6716876 L27.7165438,15.5601991 C23.5522651,17.9763291 20.9873252,22.4409464 20.9873252,27.2732066 L20.9873252,27.2732066 L20.9873252,37.2491183 C20.9873252,38.1772659 21.9869121,38.7571906 22.7872479,38.2931169 L22.7872479,38.2931169 L31.241087,33.3885336 C35.4173608,30.9657069 37.9842998,26.4830088 37.9703625,21.6373555 L37.9703625,21.6373555 L37.9423172,11.7130075 C37.940318,11.0105351 37.3658888,10.5082908 36.7401474,10.5082908 L36.7401474,10.5082908 C36.54023,10.5082908 36.3356479,10.5598545 36.1423945,10.6716876" id="path-55"></path>
        <path d="M36.1423945,10.6716876 L27.7165438,15.5601991 C23.5522651,17.9763291 20.9873252,22.4409464 20.9873252,27.2732066 L20.9873252,27.2732066 L20.9873252,37.2491183 C20.9873252,38.1772659 21.9869121,38.7571906 22.7872479,38.2931169 L22.7872479,38.2931169 L31.241087,33.3885336 C35.4173608,30.9657069 37.9842998,26.4830088 37.9703625,21.6373555 L37.9703625,21.6373555 L37.9423172,11.7130075 C37.940318,11.0105351 37.3658888,10.5082908 36.7401474,10.5082908 L36.7401474,10.5082908 C36.54023,10.5082908 36.3356479,10.5598545 36.1423945,10.6716876" id="path-57"></path>
        <path d="M36.1423945,10.6716876 L27.7165438,15.5601991 C23.5522651,17.9763291 20.9873252,22.4409464 20.9873252,27.2732066 L20.9873252,27.2732066 L20.9873252,37.2491183 C20.9873252,38.1772659 21.9869121,38.7571906 22.7872479,38.2931169 L22.7872479,38.2931169 L31.241087,33.3885336 C35.4173608,30.9657069 37.9842998,26.4830088 37.9703625,21.6373555 L37.9703625,21.6373555 L37.9423172,11.7130075 C37.940318,11.0105351 37.3658888,10.5082908 36.7401474,10.5082908 L36.7401474,10.5082908 C36.54023,10.5082908 36.3356479,10.5598545 36.1423945,10.6716876" id="path-59"></path>
        <path d="M36.1423945,10.6716876 L27.7165438,15.5601991 C23.5522651,17.9763291 20.9873252,22.4409464 20.9873252,27.2732066 L20.9873252,27.2732066 L20.9873252,37.2491183 C20.9873252,38.1772659 21.9869121,38.7571906 22.7872479,38.2931169 L22.7872479,38.2931169 L31.241087,33.3885336 C35.4173608,30.9657069 37.9842998,26.4830088 37.9703625,21.6373555 L37.9703625,21.6373555 L37.9423172,11.7130075 C37.940318,11.0105351 37.3658888,10.5082908 36.7401474,10.5082908 L36.7401474,10.5082908 C36.54023,10.5082908 36.3356479,10.5598545 36.1423945,10.6716876" id="path-61"></path>
        <path d="M36.1423945,10.6716876 L27.7165438,15.5601991 C23.5522651,17.9763291 20.9873252,22.4409464 20.9873252,27.2732066 L20.9873252,27.2732066 L20.9873252,37.2491183 C20.9873252,38.1772659 21.9869121,38.7571906 22.7872479,38.2931169 L22.7872479,38.2931169 L31.241087,33.3885336 C35.4173608,30.9657069 37.9842998,26.4830088 37.9703625,21.6373555 L37.9703625,21.6373555 L37.9423172,11.7130075 C37.940318,11.0105351 37.3658888,10.5082908 36.7401474,10.5082908 L36.7401474,10.5082908 C36.54023,10.5082908 36.3356479,10.5598545 36.1423945,10.6716876" id="path-63"></path>
        <path d="M36.1423945,10.6716876 L27.7165438,15.5601991 C23.5522651,17.9763291 20.9873252,22.4409464 20.9873252,27.2732066 L20.9873252,27.2732066 L20.9873252,37.2491183 C20.9873252,38.1772659 21.9869121,38.7571906 22.7872479,38.2931169 L22.7872479,38.2931169 L31.241087,33.3885336 C35.4173608,30.9657069 37.9842998,26.4830088 37.9703625,21.6373555 L37.9703625,21.6373555 L37.9423172,11.7130075 C37.940318,11.0105351 37.3658888,10.5082908 36.7401474,10.5082908 L36.7401474,10.5082908 C36.54023,10.5082908 36.3356479,10.5598545 36.1423945,10.6716876" id="path-65"></path>
        <path d="M36.1423945,10.6716876 L27.7165438,15.5601991 C23.5522651,17.9763291 20.9873252,22.4409464 20.9873252,27.2732066 L20.9873252,27.2732066 L20.9873252,37.2491183 C20.9873252,38.1772659 21.9869121,38.7571906 22.7872479,38.2931169 L22.7872479,38.2931169 L31.241087,33.3885336 C35.4173608,30.9657069 37.9842998,26.4830088 37.9703625,21.6373555 L37.9703625,21.6373555 L37.9423172,11.7130075 C37.940318,11.0105351 37.3658888,10.5082908 36.7401474,10.5082908 L36.7401474,10.5082908 C36.54023,10.5082908 36.3356479,10.5598545 36.1423945,10.6716876 L36.1423945,10.6716876 Z" id="path-67"></path>
        <path d="M36.1423945,10.6716876 L27.7165438,15.5601991 C23.5522651,17.9763291 20.9873252,22.4409464 20.9873252,27.2732066 L20.9873252,27.2732066 L20.9873252,37.2491183 C20.9873252,38.1772659 21.9869121,38.7571906 22.7872479,38.2931169 L22.7872479,38.2931169 L31.241087,33.3885336 C35.4173608,30.9657069 37.9842998,26.4830088 37.9703625,21.6373555 L37.9703625,21.6373555 L37.9423172,11.7130075 C37.940318,11.0105351 37.3658888,10.5082908 36.7401474,10.5082908 L36.7401474,10.5082908 C36.54023,10.5082908 36.3356479,10.5598545 36.1423945,10.6716876 L36.1423945,10.6716876 Z" id="path-69"></path>
        <path d="M36.1423945,10.6716876 L27.7165438,15.5601991 C23.5522651,17.9763291 20.9873252,22.4409464 20.9873252,27.2732066 L20.9873252,27.2732066 L20.9873252,37.2491183 C20.9873252,38.1772659 21.9869121,38.7571906 22.7872479,38.2931169 L22.7872479,38.2931169 L31.241087,33.3885336 C35.4173608,30.9657069 37.9842998,26.4830088 37.9703625,21.6373555 L37.9703625,21.6373555 L37.9423172,11.7130075 C37.940318,11.0105351 37.3658888,10.5082908 36.7401474,10.5082908 L36.7401474,10.5082908 C36.54023,10.5082908 36.3356479,10.5598545 36.1423945,10.6716876" id="path-71"></path>
        <path d="M36.1423945,10.6716876 L27.7165438,15.5601991 C23.5522651,17.9763291 20.9873252,22.4409464 20.9873252,27.2732066 L20.9873252,27.2732066 L20.9873252,37.2491183 C20.9873252,38.1772659 21.9869121,38.7571906 22.7872479,38.2931169 L22.7872479,38.2931169 L31.241087,33.3885336 C35.4173608,30.9657069 37.9842998,26.4830088 37.9703625,21.6373555 L37.9703625,21.6373555 L37.9423172,11.7130075 C37.940318,11.0105351 37.3658888,10.5082908 36.7401474,10.5082908 L36.7401474,10.5082908 C36.54023,10.5082908 36.3356479,10.5598545 36.1423945,10.6716876" id="path-73"></path>
        <path d="M36.1423945,10.6716876 L27.7165438,15.5601991 C23.5522651,17.9763291 20.9873252,22.4409464 20.9873252,27.2732066 L20.9873252,27.2732066 L20.9873252,37.2491183 C20.9873252,38.1772659 21.9869121,38.7571906 22.7872479,38.2931169 L22.7872479,38.2931169 L31.241087,33.3885336 C35.4173608,30.9657069 37.9842998,26.4830088 37.9703625,21.6373555 L37.9703625,21.6373555 L37.9423172,11.7130075 C37.940318,11.0105351 37.3658888,10.5082908 36.7401474,10.5082908 L36.7401474,10.5082908 C36.54023,10.5082908 36.3356479,10.5598545 36.1423945,10.6716876" id="path-75"></path>
        <path d="M36.1423945,10.6716876 L27.7165438,15.5601991 C23.5522651,17.9763291 20.9873252,22.4409464 20.9873252,27.2732066 L20.9873252,27.2732066 L20.9873252,37.2491183 C20.9873252,38.1772659 21.9869121,38.7571906 22.7872479,38.2931169 L22.7872479,38.2931169 L31.241087,33.3885336 C35.4173608,30.9657069 37.9842998,26.4830088 37.9703625,21.6373555 L37.9703625,21.6373555 L37.9423172,11.7130075 C37.940318,11.0105351 37.3658888,10.5082908 36.7401474,10.5082908 L36.7401474,10.5082908 C36.54023,10.5082908 36.3356479,10.5598545 36.1423945,10.6716876" id="path-77"></path>
        <path d="M36.1423945,10.6716876 L27.7165438,15.5601991 C23.5522651,17.9763291 20.9873252,22.4409464 20.9873252,27.2732066 L20.9873252,27.2732066 L20.9873252,37.2491183 C20.9873252,38.1772659 21.9869121,38.7571906 22.7872479,38.2931169 L22.7872479,38.2931169 L31.241087,33.3885336 C35.4173608,30.9657069 37.9842998,26.4830088 37.9703625,21.6373555 L37.9703625,21.6373555 L37.9423172,11.7130075 C37.940318,11.0105351 37.3658888,10.5082908 36.7401474,10.5082908 L36.7401474,10.5082908 C36.54023,10.5082908 36.3356479,10.5598545 36.1423945,10.6716876" id="path-79"></path>
        <path d="M36.1423945,10.6716876 L27.7165438,15.5601991 C23.5522651,17.9763291 20.9873252,22.4409464 20.9873252,27.2732066 L20.9873252,27.2732066 L20.9873252,37.2491183 C20.9873252,38.1772659 21.9869121,38.7571906 22.7872479,38.2931169 L22.7872479,38.2931169 L31.241087,33.3885336 C35.4173608,30.9657069 37.9842998,26.4830088 37.9703625,21.6373555 L37.9703625,21.6373555 L37.9423172,11.7130075 C37.940318,11.0105351 37.3658888,10.5082908 36.7401474,10.5082908 L36.7401474,10.5082908 C36.54023,10.5082908 36.3356479,10.5598545 36.1423945,10.6716876" id="path-81"></path>
        <path d="M36.1423945,10.6716876 L27.7165438,15.5601991 C23.5522651,17.9763291 20.9873252,22.4409464 20.9873252,27.2732066 L20.9873252,27.2732066 L20.9873252,37.2491183 C20.9873252,38.1772659 21.9869121,38.7571906 22.7872479,38.2931169 L22.7872479,38.2931169 L31.241087,33.3885336 C35.4173608,30.9657069 37.9842998,26.4830088 37.9703625,21.6373555 L37.9703625,21.6373555 L37.9423172,11.7130075 C37.940318,11.0105351 37.3658888,10.5082908 36.7401474,10.5082908 L36.7401474,10.5082908 C36.54023,10.5082908 36.3356479,10.5598545 36.1423945,10.6716876" id="path-83"></path>
    </defs>
    <g id="光储充及工商储管理系统V1.3" stroke="none" stroke-width="1" fill="none" fill-rule="evenodd">
        <g id="3_2_8.设备监视_示范站站点拓扑_通信拓扑" transform="translate(-1404.000000, -703.000000)">
            <g id="main" transform="translate(212.000000, 102.000000)">
                <g transform="translate(60.000000, 40.000000)" id="3">
                    <g transform="translate(0.000000, 245.000000)">
                        <g transform="translate(907.000000, 275.000000)" id="编组-3">
                            <g transform="translate(224.500000, 41.889413)">
                                <g id="icon_储能空调-" transform="translate(0.500000, 0.000000)">
                                    <rect id="BG" x="0" y="0.110333242" width="48" height="47.8896668"></rect>
                                    <g id="icon_空调" transform="translate(4.000000, 0.000000)">
                                        <polygon id="Fill-251" fill="#B3B3B3" points="9.64374725 47.8896668 0.0697045221 42.2986828 0.000399834731 17.6116998 9.57377617 23.2026837"></polygon>
                                        <polygon id="Fill-255" fill="#F1F1F1" points="9.57404273 23.2030185 0 17.6120346 30.3561195 0 39.9301622 5.59098391"></polygon>
                                        <polygon id="Fill-257" fill="#FAFAFA" points="39.929829 5.59091694 9.57437592 23.2029515 0.00033319561 17.6119676 0.392171236 17.3842835 9.62835361 22.7770483 39.5913023 5.39269785"></polygon>
                                        <polygon id="Fill-259" fill="#D9D9D9" points="39.9300289 5.59105087 40 30.278034 9.64388053 47.8893989 9.57390945 23.2030855"></polygon>
                                        <path d="M21.5202383,39.7365001 C20.6779198,39.7365001 19.9922032,39.0474209 19.9922032,38.2009718 L19.9922032,19.6982906 C19.9922032,19.1518487 20.284749,18.6429078 20.7552212,18.3696869 L36.51604,9.22616142 C36.7499434,9.09022062 37.0131679,9.0185671 37.2770588,9.0185671 C38.1173782,9.0185671 38.8024283,9.70563734 38.8050939,10.5494078 L38.857077,29.022624 C38.8584052,29.5704052 38.5665258,30.0806854 38.0940545,30.354576 L22.2812571,39.5289058 C22.0473538,39.6648466 21.7841292,39.7365001 21.5202383,39.7365001 Z" id="Fill-261" fill="#979797"></path>
                                        <path d="M21.9688529,39.1934066 L37.7816503,30.0190768 C38.1848169,29.7853658 38.4327145,29.3520963 38.431387,28.8846743 L38.3794032,10.411458 C38.3767376,9.40763904 37.2951847,8.78217743 36.4295425,9.28442176 L20.66939,18.4286169 C20.2668897,18.6616583 20.0196585,19.0929187 20.0196585,19.5590015 L20.0196585,38.0623524 C20.0196585,39.0675107 21.1025443,39.6963206 21.9688529,39.1934066" id="Fill-263" fill="#B7B7B7"></path>
                                        <path d="M36.6854367,10.5204116 C37.0326265,10.5204116 37.4058056,10.7849269 37.4411243,11.2168571 L37.9389186,11.6253491 C37.9389186,10.3858101 37.2918527,10.0757579 36.6854367,10.0757579 C36.4855193,10.0757579 36.2802708,10.126652 36.0870174,10.2391548 L27.334635,15.3198584 C23.1703563,17.7353188 20.6054164,22.2006058 20.6054164,27.0321963 L20.6054164,37.4715121 C20.6054164,38.1753238 21.1805121,38.6795772 21.8075862,38.6795772 C22.0075036,38.6795772 22.2120857,38.6280134 22.4053391,38.5161803 L22.8698138,38.2456381 L22.7438659,37.7755374 L22.1840972,38.1311263 C22.0654796,38.2001012 21.9388653,38.2349235 21.8075862,38.2349235 C21.4424038,38.2349235 21.0479002,37.9429521 21.0479002,37.4715121 L21.0479002,27.0321963 C21.0479002,24.7392835 21.6509843,22.4778446 22.791846,20.4923054 C23.9327078,18.5067661 25.5800269,16.8513688 27.5558769,15.7049124 L36.3082593,10.6242087 C36.4275433,10.5552339 36.5541576,10.5204116 36.6854367,10.5204116" id="Fill-265" fill="#D9D9D9"></path>
                                        <path d="M35.9477416,26.9133318 C35.7844758,27.2689208 35.6065493,27.6178131 35.4112967,27.9586696 C35.2093801,28.3122496 34.9901374,28.6544455 34.7562341,28.9865964 L35.2946782,28.9865964 C35.5285815,28.635695 35.7471578,28.2747487 35.9477416,27.9044272 L35.9477416,26.9133318 Z" id="Fill-267" fill="#D9D9D9"></path>
                                        <mask id="mask-2" fill="white">
                                            <use xlink:href="#path-1"></use>
                                        </mask>
                                        <g id="Clip-270"></g>
                                        <path d="M36.7573403,20.3902493 C36.7573403,15.8071024 33.5553305,13.949468 29.6056297,16.2410415 C25.6559289,18.532615 22.4545854,24.1055181 22.4545854,28.688665 C22.4545854,33.2711423 25.6565953,35.1287767 29.6062961,32.8372032 C33.5553305,30.5462994 36.7573403,24.9733963 36.7573403,20.3902493" id="Fill-269" fill="#333333" mask="url(#mask-2)"></path>
                                        <mask id="mask-4" fill="white">
                                            <use xlink:href="#path-3"></use>
                                        </mask>
                                        <g id="Clip-272"></g>
                                        <path d="M29.5150671,25.5735448 L30.2794178,23.5906842 L28.7420533,24.4826701 L29.5150671,25.5735448 Z M34.2884274,21.7785866 C34.628287,22.2125257 34.7375751,22.9397755 34.6256214,23.724616 C34.4043795,25.2681802 33.5560635,26.8900946 33.1735549,27.4552869 C32.4705122,28.4939282 31.9354,28.9934939 31.5229039,29.2325622 C31.1443937,29.4522103 30.8698405,29.4522103 30.664592,29.4495317 C30.3727126,29.4455138 30.073503,29.2821169 29.9009076,29.0517542 C29.778958,28.8896967 29.686996,28.6318779 29.659674,28.3794165 C29.5617145,27.4887698 30.082166,26.3697695 30.0048647,26.1119507 C29.9722115,26.0034659 29.8489291,25.9947604 29.7123189,26.022886 C29.6450134,26.7668773 29.2258533,28.0814182 28.5921153,29.1568907 C28.2076075,29.8091387 27.6738282,30.3796882 27.1367168,30.7104998 C27.1127267,30.7252323 27.0880703,30.7399648 27.0640802,30.7540277 C26.4470019,31.1122953 25.83059,31.1859578 25.3654489,30.9991229 C24.4158415,30.6167475 23.9920166,29.4455138 23.9247111,28.9285369 C23.6888086,27.1070641 24.3651957,26.1896312 24.7690288,25.6552432 C25.043582,25.290279 25.4454159,24.9266541 25.7779451,24.7270957 C26.0318402,24.579101 26.2990631,24.4880274 26.5063107,24.4712859 C27.2639975,24.4103469 27.6178513,25.136927 27.883075,25.0579073 C27.8990684,25.0532197 27.9150618,25.0458534 27.9317216,25.0364782 C28.0290147,24.9795572 28.1309725,24.8456253 28.2216017,24.6983003 C27.7278058,24.5636988 27.1333849,23.9496214 26.9188069,23.0830826 C26.7888606,22.5580698 26.8588317,21.8515795 27.111394,21.157143 C27.4126028,20.328105 27.9497141,19.5131298 28.5454679,18.9231602 C29.0152737,18.4564078 29.5017393,18.1055064 29.9442231,17.8483573 C30.6052831,17.4653123 31.1690501,17.2918706 31.4382722,17.2630752 C33.0216177,17.0916425 33.078261,18.0010396 33.1029175,18.5414545 C33.1195772,18.9111063 33.0176194,19.438128 32.8576855,19.8673795 C32.7437326,20.1714047 32.557143,20.5256544 32.3705535,20.795527 C31.7101598,21.7471126 30.8365209,22.1402025 30.6485986,22.4770411 C30.5699644,22.6183391 30.5719636,22.7810663 30.6019512,22.925043 C30.937146,22.5620878 31.4322747,22.1669889 31.9573909,21.862294 C32.3132439,21.6553693 32.6824246,21.4906332 33.0256161,21.4062561 C33.5400701,21.2796906 34.0038784,21.4156314 34.2884274,21.7785866 L34.2884274,21.7785866 Z" id="Fill-271" fill="#4D4D4D" mask="url(#mask-4)"></path>
                                        <mask id="mask-6" fill="white">
                                            <use xlink:href="#path-5"></use>
                                        </mask>
                                        <g id="Clip-274"></g>
                                        <path d="M36.7403473,10.5085586 C36.54043,10.5085586 36.3351815,10.5601224 36.141928,10.6719554 L27.7160774,15.5604669 C23.552465,17.976597 20.9868588,22.4412143 20.9868588,27.2728048 L20.9868588,37.2487165 C20.9868588,37.9525283 21.5619544,38.4567816 22.1890285,38.4567816 C22.3889459,38.4567816 22.5941944,38.4052178 22.7874479,38.2933847 L31.2412869,33.3881318 C35.4168944,30.9653051 37.9838333,26.482607 37.9705572,21.6376234 L37.9425171,11.7132754 C37.9405179,11.0101333 37.3660887,10.5085586 36.7403473,10.5085586 M36.7403473,10.9639268 C37.0995322,10.9639268 37.4880383,11.2505409 37.4893711,11.7146147 L37.5174145,21.6389627 C37.5240234,23.9358934 36.9249377,26.2033592 35.7847423,28.1942557 C34.6438805,30.1858219 32.9945622,31.8452372 31.0147139,32.9943722 L22.5608748,37.8989555 C22.44359,37.9672608 22.3189748,38.0014134 22.1890285,38.0014134 C21.8285109,38.0014134 21.4400048,37.71346 21.4400048,37.2487165 L21.4400048,27.2728048 C21.4400048,24.981901 22.0424225,22.7224711 23.1819515,20.7382712 C24.3221468,18.7540712 25.9681332,17.1000132 27.9426504,15.9542265 L36.368501,11.065715 C36.4857859,10.9980794 36.610401,10.9639268 36.7403473,10.9639268" id="Fill-273" fill="#F2F2F2" mask="url(#mask-6)"></path>
                                        <mask id="mask-8" fill="white">
                                            <use xlink:href="#path-7"></use>
                                        </mask>
                                        <g id="Clip-276"></g>
                                        <path d="M29.9253642,23.4254793 C29.8107449,23.4254793 29.6821314,23.4649891 29.5461876,23.5440089 C29.3082859,23.6819587 29.0837121,23.921027 28.9137823,24.2163467 C28.7438525,24.5116663 28.6505578,24.8264061 28.6505578,25.1029753 C28.6505578,25.3641424 28.7345231,25.5563345 28.8864603,25.6447295 C29.0383975,25.7331245 29.2456451,25.7096865 29.4708854,25.5784333 C29.708787,25.4404835 29.9333609,25.2020849 30.1032906,24.9067652 C30.4404846,24.3194742 30.453146,23.6652172 30.1312791,23.4777127 C30.0706375,23.4428904 30.0013328,23.4254793 29.9253642,23.4254793 M29.0917088,25.8489756 C28.9897509,25.8489756 28.8951233,25.8248678 28.8104917,25.7759827 C28.6099079,25.659462 28.4999534,25.4203937 28.4999534,25.1029753 C28.4999534,24.8002894 28.6005784,24.4587633 28.7831696,24.1406752 C28.9657608,23.8225871 29.2103264,23.563429 29.4708854,23.4127557 C29.7447722,23.2533769 30.0059975,23.2306085 30.2065813,23.3464595 C30.6130799,23.5828491 30.6257414,24.3013934 30.2339033,24.9824367 C30.0513121,25.3005248 29.8067465,25.5590132 29.5461876,25.7103561 C29.3875865,25.8020994 29.2323173,25.8489756 29.0917088,25.8489756" id="Fill-275" fill="#EFEFEF" mask="url(#mask-8)"></path>
                                        <mask id="mask-10" fill="white">
                                            <use xlink:href="#path-9"></use>
                                        </mask>
                                        <g id="Clip-278"></g>
                                        <path d="M28.9045861,24.1437556 C28.5247431,24.8040395 28.5127481,25.5138782 28.8772641,25.7248208 C29.0465274,25.8232607 29.2777652,25.7978136 29.5276619,25.6524976 C29.7908864,25.4998153 30.038784,25.2366393 30.2260399,24.9105153 C30.6058829,24.2495618 30.6185443,23.5397231 30.2540283,23.3287805 C29.8895123,23.1171682 29.2844291,23.4828021 28.9045861,24.1437556 M29.1065026,25.9357634 C28.9958817,25.9357634 28.8925911,25.9096467 28.8012955,25.8567436 C28.3581453,25.5989249 28.3454839,24.8134147 28.7739734,24.0680841 C29.202463,23.3220839 29.885514,22.9397085 30.3293305,23.1975273 C30.7731471,23.4546764 30.7851421,24.2408562 30.3566526,24.9861868 C30.1560688,25.3350792 29.8888459,25.618345 29.6029641,25.7844204 C29.4297024,25.8848693 29.260439,25.9357634 29.1065026,25.9357634" id="Fill-277" fill="#EFEFEF" mask="url(#mask-10)"></path>
                                        <mask id="mask-12" fill="white">
                                            <use xlink:href="#path-11"></use>
                                        </mask>
                                        <g id="Clip-280"></g>
                                        <path d="M28.4164545,23.8606907 C27.7680559,24.989736 27.7553944,26.2071762 28.3891325,26.5748191 C28.6890085,26.7489305 29.093508,26.7060723 29.5273287,26.4536108 C29.9751436,26.1937831 30.3963029,25.7464508 30.7141715,25.193982 C31.0320401,24.6408436 31.2066366,24.0502042 31.2066366,23.5305488 C31.207301,23.0262955 31.042036,22.6532953 30.7421599,22.479184 C30.4422839,22.3050726 30.0377844,22.3479308 29.6032973,22.6003923 C29.1554824,22.8595503 28.7343231,23.3075523 28.4164545,23.8606907 M28.7982967,26.8319682 C28.621703,26.8319682 28.4584372,26.7897797 28.3131639,26.7060723 C27.608122,26.2969106 27.5954605,24.9863877 28.2858419,23.7850192 C28.6163719,23.2091124 29.0575229,22.7416903 29.5273287,22.4691391 C30.0104623,22.1885519 30.4689395,22.1456937 30.8174621,22.3479308 C31.1659847,22.5501678 31.3579054,22.9700441 31.3579054,23.5305488 C31.3579054,24.0763209 31.1759806,24.6937466 30.8447842,25.2696535 C30.5142541,25.8448907 30.0731031,26.3123127 29.6032973,26.584864 C29.3207474,26.7489305 29.0468606,26.8319682 28.7982967,26.8319682" id="Fill-279" fill="#EFEFEF" mask="url(#mask-12)"></path>
                                        <mask id="mask-14" fill="white">
                                            <use xlink:href="#path-13"></use>
                                        </mask>
                                        <g id="Clip-282"></g>
                                        <path d="M27.9176607,23.5714649 C27.4665138,24.3563054 27.2186163,25.1947186 27.2186163,25.9320133 C27.2186163,26.6552451 27.4571844,27.1916421 27.8903387,27.4427643 C28.7986299,27.969786 30.2893471,27.0905236 31.2129653,25.4833417 C32.1365835,23.8754902 32.149245,22.1377248 31.2409537,21.6107031 C30.3319961,21.0836813 28.8412789,21.9636134 27.9176607,23.5714649 M28.4754302,27.7441109 C28.2375285,27.7441109 28.013621,27.6891988 27.8150365,27.5740174 C27.3325692,27.2947696 27.0673455,26.7114965 27.0673455,25.9320133 C27.0673455,25.1686019 27.3232397,24.3027327 27.787048,23.4957935 C28.7526489,21.8149491 30.3359945,20.9109093 31.3162559,21.4794499 C32.2965174,22.0486601 32.3091789,23.8788385 31.343578,25.5590132 C30.5738961,26.8983314 29.4123762,27.7441109 28.4754302,27.7441109" id="Fill-281" fill="#EFEFEF" mask="url(#mask-14)"></path>
                                        <mask id="mask-16" fill="white">
                                            <use xlink:href="#path-15"></use>
                                        </mask>
                                        <g id="Clip-284"></g>
                                        <path d="M30.9638016,20.5375074 C29.8196079,20.5375074 28.3795365,21.602935 27.4159347,23.2804311 C26.8308433,24.2983129 26.5089763,25.386509 26.5089763,26.3441215 C26.5089763,27.2863319 26.8215138,27.9867953 27.3886127,28.3162676 C27.9557116,28.6450702 28.7153976,28.5667201 29.5277285,28.0952801 C30.3527209,27.6164738 31.129733,26.7921235 31.7141581,25.7742416 C32.9149951,23.6849052 32.9276566,21.4254754 31.742813,20.7377355 C31.5082433,20.6017947 31.2450187,20.5375074 30.9638016,20.5375074 M28.1662913,28.6678386 C27.8550866,28.6678386 27.5672056,28.5948458 27.3126441,28.4475208 C26.6968986,28.0899228 26.3577055,27.3432529 26.3583709,26.3441215 C26.3583709,25.3603923 26.6875691,24.2454099 27.2853221,23.2047596 C28.5274753,21.0424303 30.5606349,19.8772235 31.8181152,20.6064823 C33.074929,21.335741 33.0869241,23.6882535 31.8447708,25.8505828 C31.2470179,26.8905634 30.4506804,27.7350035 29.6030307,28.2265333 C29.0972398,28.519844 28.6081086,28.6678386 28.1662913,28.6678386" id="Fill-283" fill="#EFEFEF" mask="url(#mask-16)"></path>
                                        <mask id="mask-18" fill="white">
                                            <use xlink:href="#path-17"></use>
                                        </mask>
                                        <g id="Clip-286"></g>
                                        <path d="M31.3724994,19.3508714 C30.8313897,19.3508714 30.228972,19.534358 29.6032307,19.8979829 C28.5336727,20.5187569 27.527422,21.5868632 26.7690688,22.905422 C26.0120484,24.2239808 25.5948874,25.6336132 25.5948874,26.8744915 C25.5948874,28.1006374 26.0020525,29.0120434 26.7417467,29.4412949 C27.481441,29.8705464 28.471032,29.7687582 29.5279285,29.1560201 C30.5974864,28.5352461 31.6030707,27.4678095 32.3607576,26.1492507 C33.1184444,24.8306919 33.5356061,23.4210595 33.5356061,22.1795115 C33.5362717,20.9533657 33.1284402,20.0419596 32.388746,19.6127081 C32.0875372,19.4379271 31.7443457,19.3508714 31.3724994,19.3508714 M27.7579934,29.8544746 C27.3594914,29.8544746 26.9916435,29.761392 26.6664445,29.5725481 C25.8781037,29.1151709 25.4436166,28.1568887 25.4436166,26.8744915 C25.4436166,25.6068268 25.8681078,24.1710777 26.6384561,22.8297505 L26.7037624,22.8679211 L26.6384561,22.8297505 C27.4094708,21.4884233 28.4357132,20.4002273 29.5279285,19.7667297 C30.6328051,19.1251963 31.6757074,19.0240778 32.4640482,19.481455 C33.2530554,19.9388321 33.6868761,20.8971143 33.6868761,22.1795115 C33.6868761,23.4471762 33.2623849,24.883595 32.4913702,26.2255919 C31.721022,27.5662494 30.6954459,28.6537758 29.6032307,29.2872733 C28.9534992,29.6642914 28.3250923,29.8544746 27.7579934,29.8544746" id="Fill-285" fill="#EFEFEF" mask="url(#mask-18)"></path>
                                        <mask id="mask-20" fill="white">
                                            <use xlink:href="#path-19"></use>
                                        </mask>
                                        <g id="Clip-288"></g>
                                        <path d="M26.2353561,22.5961064 C25.3357279,24.1624391 24.8399328,25.8372565 24.8399328,27.3125156 C24.8399328,28.7723724 25.325732,29.8585595 26.208034,30.3701791 C28.0439418,31.4356067 31.0433687,29.6810998 32.8946036,26.4593699 C34.7458384,23.2369702 34.7584998,19.7480463 32.922592,18.6832883 C32.04029,18.1709991 30.8614439,18.2915377 29.6032973,19.0214661 C28.3318228,19.7594305 27.1356506,21.0291041 26.2353561,22.5961064 M27.4102038,30.8309045 C26.9490611,30.8309045 26.5172395,30.7250984 26.1327318,30.5021019 C25.2017833,29.961687 24.688662,28.8286238 24.688662,27.3125156 C24.688662,25.8111398 25.1917874,24.109536 26.1047434,22.520435 C27.0176994,20.9299946 28.2338633,19.6409008 29.5273287,18.8902129 C30.8347883,18.1314892 32.0669457,18.0116202 32.9978942,18.5520351 C34.9064387,19.6589816 34.9184337,23.2403185 33.0252162,26.5350413 C31.5138409,29.166132 29.2374485,30.8302349 27.4102038,30.8309045" id="Fill-287" fill="#EFEFEF" mask="url(#mask-20)"></path>
                                        <mask id="mask-22" fill="white">
                                            <use xlink:href="#path-21"></use>
                                        </mask>
                                        <g id="Clip-290"></g>
                                        <path d="M25.6601271,22.2625492 L25.7254335,22.3007198 C23.593648,26.0113009 23.5816529,30.0292556 25.6981114,31.2580801 C26.1186043,31.501836 26.5917421,31.6170174 27.0968666,31.617687 C29.1353574,31.617687 31.6949661,29.729918 33.4042596,26.7552922 C34.4404979,24.9512306 35.0115952,23.0219427 35.0115952,21.3230175 C35.0115952,19.6394945 34.4511602,18.387232 33.432248,17.795923 C32.4140022,17.2052836 31.0538977,17.3432334 29.603164,18.1849949 C28.1391025,19.0347923 26.7623382,20.4959885 25.7254335,22.3007198 L25.6601271,22.2625492 Z M27.0868708,31.7656817 C26.5584225,31.7656817 26.0632938,31.6444734 25.6228092,31.3893333 C23.4337141,30.1189899 23.4210526,26.0079526 25.5948208,22.2243787 C26.644387,20.3975486 28.041143,18.9162627 29.5278618,18.0537417 C31.0272421,17.1838546 32.4406579,17.0452351 33.5082166,17.6646698 C34.575109,18.2841045 35.162866,19.5832431 35.162866,21.3230175 C35.1621996,23.0480594 34.5844384,25.0041336 33.5348723,26.8309637 C31.7982567,29.8531353 29.1846703,31.7656817 27.0868708,31.7656817 L27.0868708,31.7656817 Z" id="Fill-289" fill="#EFEFEF" mask="url(#mask-22)"></path>
                                        <mask id="mask-24" fill="white">
                                            <use xlink:href="#path-23"></use>
                                        </mask>
                                        <g id="Clip-292"></g>
                                        <path d="M25.0627741,21.9162685 L25.1280804,21.9544391 C23.9325745,24.0350699 23.27418,26.2603472 23.27418,28.2204394 C23.27418,30.1657991 23.9232451,31.6136021 25.1007584,32.297324 C25.5872239,32.5792505 26.1343311,32.7131825 26.7180899,32.7131825 C29.0737828,32.713852 32.0285615,30.5347813 34.0010796,27.1021087 C35.1972518,25.0201385 35.8563127,22.7941916 35.8563127,20.8334297 C35.8563127,18.8874004 35.2079141,17.4395974 34.0297344,16.7565451 C32.8515547,16.0728231 31.2795378,16.232202 29.6028975,17.2052167 C27.9135957,18.1855976 26.3242526,19.8724689 25.1280804,21.9544391 L25.0627741,21.9162685 Z M26.7087604,32.8618467 C26.1010116,32.8618467 25.5319135,32.7225576 25.0254561,32.4285772 C23.7986299,31.7167296 23.1235756,30.2227201 23.1235756,28.2204394 C23.1235756,26.2342305 23.788634,23.9821669 24.9974677,21.878098 C26.2063014,19.7733594 27.8156362,18.0677376 29.5275953,17.0739635 C31.2528821,16.0728231 32.8782103,15.9134443 34.1050366,16.6252919 C35.3318628,17.3364699 36.0075835,18.831149 36.0069176,20.8334297 C36.0069176,22.8203083 35.3411923,25.0737112 34.1316922,27.1777801 C32.1318522,30.6586682 29.1224294,32.8618467 26.7087604,32.8618467 L26.7087604,32.8618467 Z" id="Fill-291" fill="#EFEFEF" mask="url(#mask-24)"></path>
                                        <mask id="mask-26" fill="white">
                                            <use xlink:href="#path-25"></use>
                                        </mask>
                                        <g id="Clip-294"></g>
                                        <path d="M32.7455318,15.3610425 C31.7832629,15.3610425 30.713705,15.6864968 29.6028308,16.3313785 C27.7122789,17.4282801 25.9336807,19.3160492 24.5955672,21.6451235 C23.25812,23.9735283 22.5210913,26.4639905 22.5210913,28.6577937 C22.5210913,30.8368645 23.2481241,32.4581092 24.5682451,33.2241992 C25.1133531,33.5402783 25.7264331,33.6902821 26.3808293,33.6902821 C29.0184057,33.6909516 32.3263718,31.2533925 34.5334595,27.4115581 C35.8722395,25.0818141 36.6092686,22.5906822 36.6092686,20.3962093 C36.6099346,18.2171386 35.8829017,16.5952242 34.5621143,15.8291342 C34.0230038,15.5164034 33.4099239,15.3610425 32.7455318,15.3610425 M26.3714998,33.8389463 C25.6937799,33.8389463 25.0580427,33.6835854 24.4929429,33.3554524 C23.1241753,32.5612367 22.3698205,30.8931159 22.3698205,28.6577937 C22.3704869,26.4378738 23.1141795,23.9206252 24.4649545,21.5694521 L24.5302608,21.6076226 L24.4649545,21.5694521 C25.8163959,19.2169396 27.6143194,17.3104201 29.5275286,16.2001253 C31.4540657,15.0817946 33.268649,14.9036653 34.6380829,15.697881 C36.0068505,16.4920967 36.760539,18.1608872 36.760539,20.3962093 C36.7598726,22.6167989 36.0155136,25.1347172 34.6647386,27.4872296 C32.4296624,31.3766097 29.0670523,33.8389463 26.3714998,33.8389463" id="Fill-293" fill="#EFEFEF" mask="url(#mask-26)"></path>
                                        <mask id="mask-28" fill="white">
                                            <use xlink:href="#path-27"></use>
                                        </mask>
                                        <g id="Clip-296"></g>
                                        <path d="M23.9903507,21.29449 L24.055657,21.3326606 C21.0035852,26.6450663 20.9909238,32.401456 24.0290013,34.1639988 C24.6327518,34.5142305 25.3131372,34.6809756 26.0388373,34.6809756 C28.9622956,34.6809756 32.6281137,31.9809101 35.0731031,27.7245568 C38.1265077,22.4101421 38.1398355,16.6524131 35.1024243,14.8898703 C32.0643467,13.1273275 27.1090616,16.0175763 24.055657,21.3326606 L23.9903507,21.29449 Z M26.0295078,34.82964 C25.2798177,34.82964 24.5781077,34.6575376 23.9530327,34.295252 C20.8436513,32.4911904 20.8309899,26.641718 23.9250443,21.2563195 C27.0204316,15.8695816 32.0676787,12.9545555 35.1777265,14.7586171 C38.287108,16.5626788 38.299103,22.4134904 35.2043822,27.8002283 C32.7314044,32.1041274 29.0109421,34.82964 26.0295078,34.82964 L26.0295078,34.82964 Z" id="Fill-295" fill="#EFEFEF" mask="url(#mask-28)"></path>
                                        <mask id="mask-30" fill="white">
                                            <use xlink:href="#path-29"></use>
                                        </mask>
                                        <g id="Clip-298"></g>
                                        <path d="M33.3324226,13.6556216 C32.190228,13.6556216 30.9207528,14.0420149 29.6032973,14.8067656 C27.3615572,16.1079133 25.2530954,18.3452444 23.6664179,21.1062489 C22.0804068,23.8665837 21.2074343,26.8191107 21.2074343,29.4200667 C21.2074343,32.0062902 22.0710773,33.9315601 23.6390958,34.8416269 C24.2861617,35.216636 25.0151937,35.3954349 25.7922059,35.3954349 C28.9215791,35.3954349 32.8452906,32.5058559 35.4628753,27.9508346 C38.7308579,22.2620805 38.7435193,16.0992077 35.4915302,14.2121083 C34.8504618,13.8404475 34.1220962,13.6556216 33.3324226,13.6556216 M25.7828764,35.5440993 C24.9818742,35.5440993 24.2315176,35.359943 23.5637936,34.9728801 C21.9471285,34.0346876 21.0561635,32.0625416 21.0561635,29.4200667 C21.0561635,26.792994 21.9371327,23.8136806 23.5358052,21.0305774 L23.6011115,21.068748 L23.5358052,21.0305774 C25.1351441,18.2468045 27.2635977,15.9893836 29.5273287,14.6755124 C31.8050539,13.3536053 33.9495009,13.1426627 35.5668324,14.0808551 C38.8914582,16.0094734 38.9027868,22.2654288 35.593488,28.0265061 C32.9492476,32.6290732 28.9702256,35.5434296 25.7828764,35.5440993" id="Fill-297" fill="#EFEFEF" mask="url(#mask-30)"></path>
                                        <mask id="mask-32" fill="white">
                                            <use xlink:href="#path-31"></use>
                                        </mask>
                                        <g id="Clip-300"></g>
                                        <path d="M33.6079754,12.8548432 C32.3818155,12.8548432 31.0177127,13.2700319 29.6029641,14.091034 C27.1966254,15.4872732 24.9328944,17.8893404 23.2302648,20.8539213 C21.5276352,23.8164932 20.5900228,26.9859898 20.5900228,29.7777986 C20.5900228,32.5555446 21.5183058,34.6234519 23.2029428,35.6004846 C23.8979888,36.004289 24.6809985,36.1958115 25.5159867,36.1958115 C28.8765977,36.1958115 33.089523,33.0939505 35.8990284,28.2040997 C37.601658,25.2395188 38.5399372,22.0686829 38.5399372,19.2762044 C38.5406032,16.4984585 37.6123202,14.4305511 35.9276832,13.4528488 C35.2386347,13.0530623 34.4562914,12.8548432 33.6079754,12.8548432 M25.5066572,36.3444758 C24.647679,36.3444758 23.8433448,36.1475961 23.1276406,35.7324074 C21.3936906,34.7265794 20.4394184,32.611796 20.4394184,29.7777986 C20.4394184,26.9598731 21.3836947,23.7635901 23.0989858,20.7775802 L23.1649585,20.8157507 L23.0989858,20.7775802 C24.8156095,17.7909005 27.0986659,15.3694132 29.5276619,13.9597808 C31.9699857,12.5421124 34.2697019,12.3157677 36.0029854,13.3215956 C37.7369354,14.3274236 38.6912076,16.4422071 38.6912076,19.2762044 C38.6905412,22.0947996 37.7455985,25.2924219 36.0296411,28.2797712 C33.1928136,33.2171678 28.9252442,36.3438062 25.5066572,36.3444758" id="Fill-299" fill="#EFEFEF" mask="url(#mask-32)"></path>
                                        <mask id="mask-34" fill="white">
                                            <use xlink:href="#path-33"></use>
                                        </mask>
                                        <g id="Clip-302"></g>
                                        <path d="M22.6828911,20.536369 L22.7481974,20.5745395 C20.9176207,23.7607776 19.9093708,27.1700121 19.9087044,30.1734332 C19.9087044,33.1621218 20.9076248,35.3867294 22.7215418,36.4394335 C23.4698991,36.8733726 24.3122176,37.0796276 25.2111794,37.0796276 C28.8263518,37.0796276 33.3584785,33.7433859 36.3805627,28.4832136 C38.2124722,25.2949666 39.2213885,21.8850624 39.2213885,18.8809716 C39.2213885,15.892283 38.2231344,13.6663361 36.4092175,12.6143017 C32.6514374,10.4338916 26.5226373,14.004514 22.7481974,20.5745395 L22.6828911,20.536369 Z M25.2011835,37.2282919 C24.2788981,37.2282919 23.4145886,37.0166797 22.6455732,36.5706867 C20.7836761,35.4905265 19.7581,33.2183732 19.7581,30.1734332 C19.7581,27.1438954 20.7736802,23.7078745 22.6175847,20.4981984 C26.4333409,13.8565193 32.6547694,10.2604499 36.4851861,12.4830485 C38.3470832,13.5632086 39.3726593,15.835362 39.3719932,18.8809716 C39.3719932,21.9111791 38.3557463,25.3485393 36.5111754,28.5588851 C33.4617691,33.8666032 28.8749983,37.2282919 25.2011835,37.2282919 L25.2011835,37.2282919 Z" id="Fill-301" fill="#EFEFEF" mask="url(#mask-34)"></path>
                                        <mask id="mask-36" fill="white">
                                            <use xlink:href="#path-35"></use>
                                        </mask>
                                        <g id="Clip-304"></g>
                                        <path d="M22.157375,20.2316741 L22.2226813,20.2698446 C18.159694,27.3414448 18.147699,35.0050237 22.1960256,37.3541878 C23.002359,37.8216099 23.9093175,38.0439367 24.8782503,38.0439367 C28.7719743,38.0439367 33.6519572,34.4518853 36.9059455,28.7885782 C40.9702656,21.7142993 40.9829271,14.0487115 36.9352668,11.6995473 C34.9807413,10.5658145 32.3771508,10.8283208 29.6029641,12.4381813 C26.816116,14.0554081 24.1951993,16.837172 22.2226813,20.2698446 L22.157375,20.2316741 Z M24.8682545,38.1926011 C23.8766643,38.1926011 22.9470486,37.964917 22.1207234,37.485441 C18.0004265,35.094758 17.9877651,27.3380965 22.0920686,20.1935035 C24.0772481,16.7380625 26.7181565,13.9375481 29.5276619,12.3069282 C32.3504951,10.668942 35.0080633,10.4064356 37.010569,11.5682942 C41.1308659,13.9589772 41.1421946,21.7176476 37.0365582,28.8642496 C33.7552478,34.5751025 28.8206208,38.1926011 24.8682545,38.1926011 L24.8682545,38.1926011 Z" id="Fill-303" fill="#EFEFEF" mask="url(#mask-36)"></path>
                                        <mask id="mask-38" fill="white">
                                            <use xlink:href="#path-37"></use>
                                        </mask>
                                        <g id="Clip-306"></g>
                                        <path d="M27.1451134,38.455844 C26.6673108,36.3999906 26.5227039,34.4653454 26.703296,32.5414148 C26.9172076,30.2652435 27.6089216,27.9629555 28.7591129,25.6974987 L28.8937239,25.7664736 C26.7672695,29.9531823 26.2581466,33.9744853 27.2923858,38.4210218 L27.1451134,38.455844 Z" id="Fill-305" fill="#EFEFEF" mask="url(#mask-38)"></path>
                                        <mask id="mask-40" fill="white">
                                            <use xlink:href="#path-39"></use>
                                        </mask>
                                        <g id="Clip-308"></g>
                                        <path d="M30.0321867,37.0707211 C29.0479269,35.5271569 28.4568378,33.9594849 28.2249337,32.2779709 C27.9510469,30.2910923 28.1949461,28.1019767 28.9506337,25.773572 L29.0945742,25.8204481 C27.7011502,30.114972 28.0390105,33.6641653 30.1594674,36.9890227 L30.0321867,37.0707211 Z" id="Fill-307" fill="#EFEFEF" mask="url(#mask-40)"></path>
                                        <mask id="mask-42" fill="white">
                                            <use xlink:href="#path-41"></use>
                                        </mask>
                                        <g id="Clip-310"></g>
                                        <path d="M32.8918047,34.8349972 C31.4663939,33.9108677 30.4661407,32.8186537 29.8350682,31.4947376 C29.0893764,29.9304139 28.8681345,28.003135 29.17734,25.7671432 L29.3266117,25.7879027 C28.7595127,29.8935827 29.9183671,32.72758 32.9737708,34.707762 L32.8918047,34.8349972 Z" id="Fill-309" fill="#EFEFEF" mask="url(#mask-42)"></path>
                                        <mask id="mask-44" fill="white">
                                            <use xlink:href="#path-43"></use>
                                        </mask>
                                        <g id="Clip-312"></g>
                                        <path d="M35.5263158,31.8919794 C33.7583799,31.6542504 32.4189335,31.1151748 31.4306753,30.242609 C30.2598259,29.209325 29.5847716,27.675136 29.423505,25.6815608 L29.5741094,25.6688373 C29.8673215,29.3037469 31.7652037,31.2330348 35.5463075,31.7413061 L35.5263158,31.8919794 Z" id="Fill-311" fill="#EFEFEF" mask="url(#mask-44)"></path>
                                        <mask id="mask-46" fill="white">
                                            <use xlink:href="#path-45"></use>
                                        </mask>
                                        <g id="Clip-314"></g>
                                        <path d="M34.7561008,28.8337132 C34.0743826,28.8337132 33.4586371,28.7553631 32.9022004,28.5993325 C31.385494,28.1734293 30.2999427,27.138806 29.6755341,25.5242579 L29.8168091,25.4693458 C30.4305554,27.0591166 31.4534659,28.0348099 32.9428503,28.4533468 C34.1930002,28.8042482 35.7530221,28.7520148 37.7122123,28.293968 L37.7461982,28.4419626 C36.6279938,28.7031297 35.6364036,28.8337132 34.7561008,28.8337132" id="Fill-313" fill="#EFEFEF" mask="url(#mask-46)"></path>
                                        <mask id="mask-48" fill="white">
                                            <use xlink:href="#path-47"></use>
                                        </mask>
                                        <g id="Clip-316"></g>
                                        <path d="M33.332356,26.7225459 C31.9469286,26.7225459 30.8027349,26.2484272 29.9224321,25.3068865 L30.0323866,25.2030894 C31.0579627,26.299991 32.3960763,26.7312515 34.1233623,26.5209785 C35.5754288,26.3448581 37.277392,25.7140393 39.3258786,24.5930299 L39.3985153,24.7262921 C37.3327025,25.8566767 35.6134131,26.4935225 34.1420213,26.6716518 C33.8634698,26.7058044 33.5935813,26.7225459 33.332356,26.7225459" id="Fill-315" fill="#EFEFEF" mask="url(#mask-48)"></path>
                                        <mask id="mask-50" fill="white">
                                            <use xlink:href="#path-49"></use>
                                        </mask>
                                        <g id="Clip-318"></g>
                                        <path d="M31.9092775,25.3559056 C31.2842025,25.3559056 30.6971119,25.2494298 30.1500047,25.0364782 L30.2039824,24.8951801 C31.5754155,25.4288984 33.143434,25.286261 34.996668,24.4585624 C36.5513588,23.7647955 38.2779784,22.5962404 40.2744865,20.8872703 L40.3724461,21.0024517 C38.3646093,22.7214666 36.6259946,23.897388 35.057976,24.5971818 C33.9264437,25.1027744 32.8728792,25.3559056 31.9092775,25.3559056" id="Fill-317" fill="#EFEFEF" mask="url(#mask-50)"></path>
                                        <mask id="mask-52" fill="white">
                                            <use xlink:href="#path-51"></use>
                                        </mask>
                                        <g id="Clip-320"></g>
                                        <path d="M30.3341286,24.7246179 L30.3274646,24.573275 C31.9334675,24.5056394 33.6740814,23.7750413 35.5006597,22.4015705 C37.0506857,21.235694 38.6826778,19.609092 40.4899308,17.4280123 L40.6058829,17.5251128 C38.7912996,19.7148981 37.1506444,21.349536 35.5912889,22.5227788 C33.7140649,23.9350898 31.9941091,24.6549734 30.3341286,24.7246179" id="Fill-319" fill="#EFEFEF" mask="url(#mask-52)"></path>
                                        <mask id="mask-54" fill="white">
                                            <use xlink:href="#path-53"></use>
                                        </mask>
                                        <g id="Clip-322"></g>
                                        <path d="M30.455545,24.3968198 L30.4022337,24.2548521 C33.6215698,23.0380815 36.7462782,19.8317536 39.954952,14.4517124 L40.0842319,14.5293928 C38.585518,17.0419538 37.154776,19.0248144 35.7087071,20.5904774 C33.9947488,22.4467725 32.2274793,23.7271607 30.455545,24.3968198" id="Fill-321" fill="#EFEFEF" mask="url(#mask-54)"></path>
                                        <mask id="mask-56" fill="white">
                                            <use xlink:href="#path-55"></use>
                                        </mask>
                                        <g id="Clip-324"></g>
                                        <path d="M30.5066572,24.0816113 L30.4220256,23.956385 C33.7253269,21.6969552 36.3575722,17.9488731 38.7059349,12.1623488 L38.8452106,12.2199394 C37.7643241,14.884513 36.6387893,17.0796556 35.4046328,18.9319327 C33.9425704,21.1257359 32.2952513,22.8588137 30.5066572,24.0816113" id="Fill-323" fill="#EFEFEF" mask="url(#mask-56)"></path>
                                        <mask id="mask-58" fill="white">
                                            <use xlink:href="#path-57"></use>
                                        </mask>
                                        <g id="Clip-326"></g>
                                        <path d="M30.4877317,23.8026982 L30.3811091,23.6955528 C33.4971545,20.5635571 35.5449747,16.4397963 36.8264451,10.7182289 L36.9737175,10.7517118 C36.3832949,13.3868204 35.6402687,15.6462503 34.7013235,17.6592456 C33.5897829,20.0425623 32.1723688,22.1098 30.4877317,23.8026982" id="Fill-325" fill="#EFEFEF" mask="url(#mask-58)"></path>
                                        <mask id="mask-60" fill="white">
                                            <use xlink:href="#path-59"></use>
                                        </mask>
                                        <g id="Clip-328"></g>
                                        <path d="M30.4027002,23.5786303 L30.2800842,23.4902353 C32.9949621,19.7006344 34.3184151,15.4831213 34.4450294,10.2189311 L34.5963002,10.2222793 C34.5376578,12.6497936 34.2271195,14.8208285 33.6473591,16.8579315 C32.9616425,19.2693739 31.8700937,21.5301431 30.4027002,23.5786303" id="Fill-327" fill="#EFEFEF" mask="url(#mask-60)"></path>
                                        <mask id="mask-62" fill="white">
                                            <use xlink:href="#path-61"></use>
                                        </mask>
                                        <g id="Clip-330"></g>
                                        <path d="M30.2591595,23.4241399 L30.1245485,23.355165 C32.2516693,19.1684563 32.7601258,15.147823 31.7258866,10.7012865 L31.8731591,10.6664642 C32.3509616,12.721648 32.4955685,14.6562932 32.3149765,16.5808935 C32.1010649,18.8570648 31.4093508,21.1593528 30.2591595,23.4241399" id="Fill-329" fill="#EFEFEF" mask="url(#mask-62)"></path>
                                        <mask id="mask-64" fill="white">
                                            <use xlink:href="#path-63"></use>
                                        </mask>
                                        <g id="Clip-332"></g>
                                        <path d="M30.0675054,23.3484015 L29.9242313,23.3015254 C31.3176554,19.0063318 30.9791286,15.4578082 28.8586717,12.1336204 L28.9859525,12.0512523 C29.9702123,13.5948166 30.5613013,15.1624885 30.7932055,16.8440026 C31.0670923,18.8308811 30.8231931,21.0193271 30.0675054,23.3484015" id="Fill-331" fill="#EFEFEF" mask="url(#mask-64)"></path>
                                        <mask id="mask-66" fill="white">
                                            <use xlink:href="#path-65"></use>
                                        </mask>
                                        <g id="Clip-334"></g>
                                        <path d="M29.8412656,23.3546293 L29.691994,23.3338699 C30.2590929,19.2281899 29.1002386,16.3941925 26.0448348,14.4146802 L26.1261345,14.287445 C27.5522118,15.2109049 28.5517986,16.3031189 29.1828711,17.627035 C29.9285629,19.1913586 30.1498047,21.1186376 29.8412656,23.3546293" id="Fill-333" fill="#EFEFEF" mask="url(#mask-66)"></path>
                                        <mask id="mask-68" fill="white">
                                            <use xlink:href="#path-67"></use>
                                        </mask>
                                        <g id="Clip-336"></g>
                                        <path d="M29.4444296,23.4526674 C29.1505511,19.8177578 27.2533353,17.8884699 23.4715651,17.3808683 L23.4915568,17.230195 C25.2594927,17.467924 26.5989391,18.0069995 27.5878637,18.8795654 C28.7587131,19.9121797 29.4337674,21.4470384 29.5950341,23.4406136 L29.4444296,23.4526674 Z" id="Fill-335" fill="#EFEFEF" mask="url(#mask-68)"></path>
                                        <mask id="mask-70" fill="white">
                                            <use xlink:href="#path-69"></use>
                                        </mask>
                                        <g id="Clip-338"></g>
                                        <path d="M29.2015967,23.6522258 C28.587184,22.0624551 27.5649398,21.0867618 26.074889,20.6688945 C24.8254055,20.3179931 23.2653836,20.3702265 21.305527,20.8282734 L21.2715411,20.6802787 C23.2567206,20.2162049 24.8407325,20.1646412 26.1155389,20.5229088 C27.6329117,20.948812 28.718463,21.9827657 29.3422052,23.5973138 L29.2015967,23.6522258 Z" id="Fill-337" fill="#EFEFEF" mask="url(#mask-70)"></path>
                                        <mask id="mask-72" fill="white">
                                            <use xlink:href="#path-71"></use>
                                        </mask>
                                        <g id="Clip-340"></g>
                                        <path d="M19.6920606,24.5290105 L19.6200904,24.3957483 C21.6859032,23.2653638 23.4051925,22.6285179 24.8765843,22.4503886 C26.630526,22.237437 28.0499394,22.6961535 29.0955072,23.8151539 L28.9855526,23.9189511 C27.9606429,22.8220494 26.6225294,22.390789 24.8945769,22.6003923 C23.4425104,22.7771823 21.7405472,23.4080012 19.6920606,24.5290105" id="Fill-339" fill="#EFEFEF" mask="url(#mask-72)"></path>
                                        <mask id="mask-74" fill="white">
                                            <use xlink:href="#path-73"></use>
                                        </mask>
                                        <g id="Clip-342"></g>
                                        <path d="M18.7436526,28.2350379 L18.6456931,28.1198566 C20.6535299,26.4008416 22.3921446,25.2249203 23.9601631,24.5244568 C25.8260586,23.6914009 27.477376,23.5440759 28.8681345,24.0858301 L28.8134904,24.2271282 C27.4427237,23.6927402 25.8747051,23.8353776 24.0214711,24.6630763 C22.4667804,25.3575128 20.7401607,26.5253982 18.7436526,28.2350379" id="Fill-341" fill="#EFEFEF" mask="url(#mask-74)"></path>
                                        <mask id="mask-76" fill="white">
                                            <use xlink:href="#path-75"></use>
                                        </mask>
                                        <g id="Clip-344"></g>
                                        <path d="M18.5284749,31.694229 L18.4125228,31.5971285 C20.2271061,29.4073432 21.8677613,27.7720356 23.4271168,26.5994625 C25.3043409,25.1871515 27.0236302,24.4672679 28.6836108,24.3976234 L28.6902747,24.5489663 C27.0842718,24.6166019 25.343658,25.3472 23.5170796,26.7206708 C21.96772,27.8865473 20.3357279,29.5131493 18.5284749,31.694229" id="Fill-343" fill="#EFEFEF" mask="url(#mask-76)"></path>
                                        <mask id="mask-78" fill="white">
                                            <use xlink:href="#path-77"></use>
                                        </mask>
                                        <g id="Clip-346"></g>
                                        <path d="M19.0631872,34.6703281 L18.9339073,34.5926476 C20.4326212,32.0800866 21.8640295,30.097226 23.3094321,28.531563 C25.0233903,26.675268 26.7906599,25.3948797 28.5625941,24.7252206 L28.615239,24.8671884 C25.3965694,26.083959 22.2725274,29.2902868 19.0631872,34.6703281" id="Fill-345" fill="#EFEFEF" mask="url(#mask-78)"></path>
                                        <mask id="mask-80" fill="white">
                                            <use xlink:href="#path-79"></use>
                                        </mask>
                                        <g id="Clip-348"></g>
                                        <path d="M20.3125375,36.9595577 L20.1725953,36.9026367 C21.2541483,34.2373934 22.3796831,32.0422509 23.6131732,30.1899738 C25.0752356,27.9961705 26.7232211,26.2637624 28.5111487,25.0402952 L28.5964468,25.1661911 C25.2924791,27.425621 22.6602338,31.1730334 20.3125375,36.9595577" id="Fill-347" fill="#EFEFEF" mask="url(#mask-80)"></path>
                                        <mask id="mask-82" fill="white">
                                            <use xlink:href="#path-81"></use>
                                        </mask>
                                        <g id="Clip-350"></g>
                                        <path d="M22.1920273,38.4039455 L22.0447548,38.3704625 C22.6345111,35.7353539 23.3782037,33.4752544 24.3164825,31.4622591 C25.4280231,29.079612 26.8461036,27.0123743 28.5300742,25.3194761 L28.6366968,25.4266216 C25.5206515,28.5586172 23.4728312,32.682378 22.1920273,38.4039455" id="Fill-349" fill="#EFEFEF" mask="url(#mask-82)"></path>
                                        <mask id="mask-84" fill="white">
                                            <use xlink:href="#path-83"></use>
                                        </mask>
                                        <g id="Clip-352"></g>
                                        <path d="M24.5731764,38.9033103 L24.422572,38.8992923 C24.480548,36.471778 24.7910864,34.3014129 25.3708467,32.2636402 C26.0565633,29.8528674 27.1481121,27.5914286 28.6155056,25.543611 L28.7374552,25.632006 C26.0232437,29.4216069 24.6997908,33.63912 24.5731764,38.9033103" id="Fill-351" fill="#EFEFEF" mask="url(#mask-84)"></path>
                                        <path d="M30.9528728,23.5677818 C30.9528728,22.6798138 30.3324626,22.3195372 29.5667791,22.7635212 C28.8010955,23.2075052 28.1806853,24.2876654 28.1806853,25.176303 C28.1806853,26.064271 28.8010955,26.4245476 29.5667791,25.9805636 C30.3324626,25.5359099 30.9528728,24.4557498 30.9528728,23.5677818" id="Fill-353" fill="#B7B7B7" mask="url(#mask-84)"></path>
                                        <path d="M31.0760886,23.6526946 C31.0760886,22.789504 30.4730045,22.4399419 29.7293119,22.8712024 C28.9856193,23.3024629 28.3825352,24.3524884 28.3825352,25.215679 C28.3825352,26.0781999 28.9856193,26.4284316 29.7293119,25.9965015 C30.4730045,25.565241 31.0760886,24.5158852 31.0760886,23.6526946" id="Fill-355" fill="#D9D9D9" mask="url(#mask-84)"></path>
                                        <polygon id="Fill-357" fill="#B3B3B3" mask="url(#mask-84)" points="11.7079607 45.4083119 11.03224 45.0138827 10.9662673 23.7515363 11.641988 24.1459655"></polygon>
                                        <polygon id="Fill-359" fill="#FFFFFF" mask="url(#mask-84)" points="11.6418547 24.1463003 10.966134 23.7518711 17.7939785 19.7901678 18.4696992 20.184597"></polygon>
                                        <polygon id="Fill-361" fill="#E7E7E7" mask="url(#mask-84)" points="18.4699657 20.1847979 18.5359385 41.4464747 11.708094 45.408178 11.6421213 24.1465012"></polygon>
                                        <path d="M32.3522944,3.28072695 L32.3469633,3.28407524 L5.53204675,18.8415957 C5.34345804,18.9507501 5.03558529,18.9507501 4.84699657,18.8415957 L2.84715651,17.6810764 L2.84115899,17.6777281 C2.65257027,17.5679041 2.65257027,17.3891051 2.84115899,17.2799506 L29.6614066,1.7190819 C29.8493289,1.60925781 30.1578681,1.60925781 30.3457904,1.7190819 L32.3522944,2.88227978 C32.5408831,2.99277353 32.5408831,3.17090285 32.3522944,3.28072695" id="Fill-363" fill="#D9D9D9" mask="url(#mask-84)"></path>
                                        <path d="M32.3470299,3.28374041 L5.53211339,18.8412609 C5.34352468,18.9504153 5.03565193,18.9504153 4.84706321,18.8412609 L2.84722315,17.6814113 L29.6614733,2.12322117 C29.8493956,2.01339708 30.1579347,2.01339708 30.345857,2.12322117 L32.3470299,3.28374041 Z" id="Fill-365" fill="#E7E7E7" mask="url(#mask-84)"></path>
                                        <path d="M36.6725087,5.96666267 L36.6671776,5.97001097 L9.85226107,21.5275314 C9.66367235,21.6366858 9.3557996,21.6366858 9.16721089,21.5275314 L7.16737082,20.3670122 L7.1613733,20.3636639 C6.97278458,20.2545094 6.97278458,20.0750408 7.1613733,19.9658864 L33.9816209,4.40501763 C34.1695433,4.29519353 34.4780824,4.29519353 34.6660047,4.40501763 L36.6725087,5.56888516 C36.8610974,5.67870925 36.8610974,5.85683858 36.6725087,5.96666267" id="Fill-367" fill="#D9D9D9" mask="url(#mask-84)"></path>
                                        <path d="M36.6671776,5.9697431 L9.85292746,21.5272635 C9.66367235,21.6370876 9.3557996,21.6370876 9.16721089,21.5272635 L7.16737082,20.367414 L33.9816209,4.80922386 C34.1695433,4.69939977 34.4780824,4.69939977 34.6660047,4.80922386 L36.6671776,5.9697431 Z" id="Fill-369" fill="#E7E7E7" mask="url(#mask-84)"></path>
                                        <path d="M14.147648,24.6822775 L14.0832126,24.4836017 L14.01475,24.7587945 L14.147648,24.6822775 Z M14.0207908,24.3540597 L14.1449632,24.2822411 L14.3302149,24.8346403 L14.214097,24.9017605 L14.1738248,24.7789306 L13.9865595,24.8869941 L13.944945,25.0574794 L13.8274846,25.1245996 L14.0207908,24.3540597 Z" id="Fill-371" fill="#5CA6FF" mask="url(#mask-84)"></path>
                                        <path d="M14.3711555,24.3307894 L14.4805614,24.2676964 L14.4805614,24.7462634 L14.3711555,24.8093564 L14.3711555,24.3307894 Z M14.3671283,24.1824538 C14.3671283,24.1683585 14.3731691,24.1562769 14.3859219,24.1488937 L14.4678085,24.1012383 C14.4798902,24.0945263 14.4852598,24.1012383 14.4852598,24.1139912 L14.4852598,24.1938642 C14.4852598,24.2072883 14.4785478,24.2180275 14.4678085,24.2247395 L14.3859219,24.2717236 C14.3751827,24.2784357 14.3671283,24.2744084 14.3671283,24.2623268 L14.3671283,24.1824538 Z" id="Fill-373" fill="#5CA6FF" mask="url(#mask-84)"></path>
                                        <path d="M14.549253,24.2269942 L14.6405486,24.1740912 L14.6578747,24.2243156 C14.6865296,24.1761002 14.7245139,24.1205184 14.775826,24.0910534 C14.7938186,24.0803389 14.8104783,24.0716333 14.821807,24.0696244 L14.821807,24.1915023 C14.8104783,24.1961899 14.7851555,24.2095831 14.7618318,24.2236459 C14.7171836,24.2497627 14.6845304,24.276549 14.6578747,24.3368183 L14.6578747,24.6415132 L14.549253,24.7044612 L14.549253,24.2269942 Z" id="Fill-375" fill="#5CA6FF" mask="url(#mask-84)"></path>
                                        <path d="M12.4094041,26.3599255 C12.4887047,26.313719 12.5460143,26.2896113 12.6073223,26.2748788 L12.6073223,26.3739883 C12.6059895,26.3739883 12.5106956,26.4168465 12.434727,26.461044 C12.3554264,26.5072505 12.3247724,26.5460907 12.3247724,26.7449795 C12.3247724,26.8923045 12.3460969,26.9512345 12.4353934,26.8996707 C12.5166931,26.8521249 12.6073223,26.7925253 12.6073223,26.7925253 L12.6073223,26.8916348 C12.5560102,26.9391806 12.4907038,26.9847174 12.4094041,27.0302542 C12.26613,27.1126223 12.216817,27.0148521 12.216817,26.8065881 C12.216817,26.5956455 12.2554677,26.4489901 12.4094041,26.3599255" id="Fill-377" fill="#5CA6FF" mask="url(#mask-84)"></path>
                                        <path d="M12.837451,26.6820115 C12.8992016,26.6464378 12.9173241,26.6263018 12.9173241,26.5001158 C12.9173241,26.3658754 12.9025576,26.3598346 12.837451,26.3974219 C12.7730156,26.434338 12.757578,26.4585013 12.757578,26.5927417 C12.757578,26.7162428 12.7790565,26.7155716 12.837451,26.6820115 M12.837451,26.2960704 C12.980417,26.2135126 13.02673,26.2470727 13.02673,26.4370228 C13.02673,26.6148913 12.9824307,26.6994628 12.837451,26.783363 C12.694485,26.8659209 12.6481721,26.8269911 12.6481721,26.6558346 C12.6481721,26.4598437 12.6971698,26.3766146 12.837451,26.2960704" id="Fill-379" fill="#5CA6FF" mask="url(#mask-84)"></path>
                                        <path d="M13.0885234,26.1538044 L13.1758207,26.1029103 L13.1971452,26.1417505 C13.2324639,26.0915261 13.2644507,26.0433106 13.3277579,26.0071491 C13.4230518,25.9515674 13.4503738,26.0125063 13.4503738,26.10358 L13.4503738,26.421668 L13.3417521,26.4839463 L13.3417521,26.1645189 C13.3417521,26.1169732 13.3237595,26.1102766 13.2964375,26.1263484 C13.253122,26.1517954 13.229132,26.1785818 13.1971452,26.2254579 L13.1971452,26.5683234 L13.0885234,26.6312713 L13.0885234,26.1538044 Z" id="Fill-381" fill="#5CA6FF" mask="url(#mask-84)"></path>
                                        <path d="M13.6723897,26.1927022 C13.713333,26.1692101 13.7455507,26.1383348 13.7690428,26.1074595 L13.7690428,25.8705252 C13.7408523,25.8738812 13.709977,25.8866341 13.6723897,25.9081125 C13.6381584,25.9282486 13.6180224,25.9624799 13.6180224,26.0846387 C13.6180224,26.1913598 13.636816,26.2128382 13.6723897,26.1927022 M13.6441992,25.8255547 C13.6791017,25.8054186 13.7314555,25.786625 13.769714,25.7846114 L13.769714,25.5315683 L13.8784487,25.4684753 L13.8784487,26.1759221 L13.7885076,26.2282759 L13.7690428,26.1906886 C13.7435371,26.2302895 13.693197,26.288684 13.6441992,26.3168745 C13.5421765,26.3759403 13.5086164,26.3014369 13.5086164,26.15243 C13.5086164,25.999396 13.5294237,25.8920037 13.6441992,25.8255547" id="Fill-383" fill="#5CA6FF" mask="url(#mask-84)"></path>
                                        <path d="M13.9436655,25.6581877 L14.0530714,25.5950947 L14.0530714,26.0736617 L13.9436655,26.1367547 L13.9436655,25.6581877 Z M13.9396383,25.5098521 C13.9396383,25.4957568 13.9456791,25.4836752 13.9584319,25.476292 L14.0403186,25.4286366 C14.0524002,25.4219246 14.0577698,25.4286366 14.0577698,25.4413895 L14.0577698,25.5212625 C14.0577698,25.5346865 14.0510578,25.5454258 14.0403186,25.5521378 L13.9584319,25.5991219 C13.9476927,25.6058339 13.9396383,25.6018067 13.9396383,25.5897251 L13.9396383,25.5098521 Z" id="Fill-385" fill="#5CA6FF" mask="url(#mask-84)"></path>
                                        <path d="M14.0979728,25.5932997 L14.164612,25.5290125 L14.1826045,25.3850357 L14.2732337,25.3328023 L14.2732337,25.4660645 L14.3651957,25.4124918 L14.3651957,25.5089227 L14.2732337,25.5618257 L14.2732337,25.7533483 C14.2732337,25.8236625 14.2872279,25.8303591 14.3078861,25.8276804 C14.3078861,25.8276804 14.3545335,25.8196445 14.3598646,25.8162962 L14.3598646,25.8939767 L14.265237,25.9482191 C14.2045954,25.983711 14.164612,25.9629516 14.164612,25.836386 L14.164612,25.6247737 L14.0979728,25.6636139 L14.0979728,25.5932997 Z" id="Fill-387" fill="#5CA6FF" mask="url(#mask-84)"></path>
                                        <path d="M14.415004,25.3847659 L14.5244099,25.3216729 L14.5244099,25.8002399 L14.415004,25.8633329 L14.415004,25.3847659 Z M14.4109768,25.2364303 C14.4109768,25.222335 14.4170176,25.2102534 14.4297705,25.2028702 L14.5116571,25.1552148 C14.5230675,25.1485028 14.5291083,25.1552148 14.5291083,25.1679677 L14.5291083,25.2478407 C14.5291083,25.2612647 14.5223963,25.272004 14.5116571,25.278716 L14.4297705,25.3257001 C14.4190312,25.3324121 14.4109768,25.3283849 14.4109768,25.3163033 L14.4109768,25.2364303 Z" id="Fill-389" fill="#5CA6FF" mask="url(#mask-84)"></path>
                                        <path d="M14.7760497,25.557319 C14.8378003,25.5217453 14.8559228,25.5016093 14.8559228,25.3754233 C14.8559228,25.2418541 14.8411563,25.2351421 14.7760497,25.2727294 C14.7116144,25.3096455 14.6961767,25.3338088 14.6961767,25.4680492 C14.6961767,25.5915503 14.7176552,25.5908791 14.7760497,25.557319 M14.7760497,25.1713779 C14.9190158,25.0888201 14.9653287,25.1223802 14.9653287,25.3123303 C14.9653287,25.4901989 14.9210294,25.5747703 14.7760497,25.6586705 C14.6330837,25.7412284 14.5867708,25.7022987 14.5867708,25.5311422 C14.5867708,25.3351512 14.6357685,25.2519222 14.7760497,25.1713779" id="Fill-391" fill="#5CA6FF" mask="url(#mask-84)"></path>
                                        <path d="M15.0271221,25.029045 L15.1144194,24.9781509 L15.1357439,25.0169911 C15.1710626,24.9667667 15.2037158,24.9185512 15.2663566,24.8823896 C15.3616505,24.8268079 15.3889726,24.8877469 15.3889726,24.9788205 L15.3889726,25.2969086 L15.2803508,25.3591869 L15.2803508,25.0397595 C15.2803508,24.9922137 15.2623582,24.9855171 15.2350362,25.0015889 C15.1917208,25.027036 15.1677307,25.0538223 15.1357439,25.1006985 L15.1357439,25.443564 L15.0271221,25.5065119 L15.0271221,25.029045 Z" id="Fill-393" fill="#5CA6FF" mask="url(#mask-84)"></path>
                                        <path d="M15.451309,24.7835459 L15.5607149,24.720453 L15.5607149,25.1990199 L15.451309,25.2621129 L15.451309,24.7835459 Z M15.4472818,24.6352103 C15.4472818,24.6211151 15.4533226,24.6090334 15.4660754,24.6016502 L15.5479621,24.5539949 C15.5600437,24.5472829 15.5654133,24.5539949 15.5654133,24.5667477 L15.5654133,24.6466207 C15.5654133,24.6600448 15.5587013,24.670784 15.5479621,24.677496 L15.4660754,24.7244802 C15.4553362,24.7311922 15.4472818,24.727165 15.4472818,24.7144121 L15.4472818,24.6352103 Z" id="Fill-395" fill="#5CA6FF" mask="url(#mask-84)"></path>
                                        <path d="M15.6294065,24.6796838 L15.7167038,24.6287897 L15.7380283,24.6676299 C15.773347,24.6174055 15.8053338,24.5691901 15.868641,24.5330285 C15.9639349,24.4774468 15.9912569,24.5383857 15.9912569,24.6294594 L15.9912569,24.9468778 L15.8826352,25.0098257 L15.8826352,24.6903983 C15.8826352,24.6428526 15.8646426,24.636156 15.8373206,24.6522278 C15.7940051,24.6776748 15.7700151,24.7044612 15.7380283,24.7513373 L15.7380283,25.0942028 L15.6294065,25.1571507 L15.6294065,24.6796838 Z" id="Fill-397" fill="#5CA6FF" mask="url(#mask-84)"></path>
                                        <path d="M16.2101312,24.9641573 L16.2745665,24.92657 C16.3141675,24.9044203 16.3188659,24.8795858 16.3188659,24.8513954 L16.3188659,24.8164929 C16.3188659,24.7896448 16.3087978,24.7782343 16.2779225,24.7956856 L16.1940223,24.8446833 C16.1785847,24.853409 16.1611334,24.860121 16.1611334,24.860121 L16.1611334,24.939994 C16.1611334,24.9869781 16.1826119,24.9795949 16.2101312,24.9641573 M16.2101312,24.5869418 L16.2537593,24.5614361 C16.2953738,24.537944 16.3067842,24.4996855 16.306113,24.4567286 C16.3054418,24.4077309 16.2913466,24.3963204 16.2530881,24.4184701 L16.2108024,24.4426334 C16.166503,24.468139 16.1591198,24.5057264 16.1591198,24.5413001 C16.1591198,24.5855994 16.1712014,24.6090915 16.2101312,24.5869418 M16.0960268,24.7104429 C16.0617955,24.7050733 16.0503851,24.6520484 16.0503851,24.604393 C16.0503851,24.4902887 16.100054,24.4050461 16.1940223,24.3513499 L16.445723,24.2056991 L16.445723,24.2808737 L16.4000813,24.3238306 C16.4067933,24.3399395 16.4155189,24.3513499 16.4155189,24.4084021 C16.4155189,24.4775359 16.3906845,24.5835858 16.2738953,24.6513772 L16.1779135,24.7064157 C16.1651606,24.713799 16.146367,24.7252094 16.146367,24.7460166 C16.146367,24.7668239 16.1604622,24.7621255 16.1779135,24.7520575 L16.3047706,24.6782253 C16.3799452,24.6352683 16.4276006,24.6527196 16.4276006,24.7493727 L16.4276006,24.8010552 C16.4276006,24.870189 16.4000813,24.9561029 16.2973874,25.0151686 L16.1805983,25.08296 C16.1067661,25.1252457 16.0510563,25.1131641 16.0510563,25.0185246 L16.0510563,24.9574453 L16.0879724,24.8930099 C16.0658227,24.8916675 16.0477003,24.8695178 16.0477003,24.8238761 C16.0477003,24.7862888 16.0624667,24.7426606 16.0960268,24.7104429" id="Fill-399" fill="#5CA6FF" mask="url(#mask-84)"></path>
                                        <path d="M14.9941358,23.3668841 C14.6376165,23.5738087 14.2957578,23.8115377 13.9798883,24.0666779 C14.0531913,24.021141 14.1271608,23.9769435 14.2017966,23.9334157 C15.8144634,22.9979019 17.1219229,22.8900868 17.1219229,23.6930081 C17.1219229,24.4952597 15.8144634,25.9042225 14.202463,26.8397362 C13.5753888,27.2033611 12.9949621,27.4417598 12.5198251,27.5502445 C13.0356119,27.7571692 13.9505671,27.5629681 14.9941358,26.9575962 C16.6068025,26.0220825 17.9135957,24.4597678 17.9135957,23.4686723 C17.9135957,22.4769071 16.6068025,22.4313703 14.9941358,23.3668841" id="Fill-401" fill="#5CA6FF" mask="url(#mask-84)"></path>
                                        <polygon id="Fill-403" fill="#B3B3B3" mask="url(#mask-84)" points="6.32711812 44.1914743 1.54042996 41.3956475 1.52510296 36.153556 6.31245752 38.9493828"></polygon>
                                        <polygon id="Fill-405" fill="#E7E7E7" mask="url(#mask-84)" points="6.3122576 38.9492489 1.52556943 36.1540918 2.13864936 34.9942422 6.92533753 37.790069"></polygon>
                                        <polygon id="Fill-407" fill="#B3B3B3" mask="url(#mask-84)" points="6.92533753 37.790069 2.13864936 34.9949118 2.12732071 30.9702606 6.91400888 33.7660874"></polygon>
                                        <polygon id="Fill-409" fill="#E7E7E7" mask="url(#mask-84)" points="6.91394224 33.7658865 2.12725407 30.9700597 2.63704336 29.2731435 7.42439792 32.0689703"></polygon>
                                        <polygon id="Fill-411" fill="#FFFFFF" mask="url(#mask-84)" points="7.42413136 32.0688364 2.63744319 29.2736792 2.88400794 29.1297025 7.6713625 31.9255293"></polygon>
                                        <polygon id="Fill-413" fill="#D9D9D9" mask="url(#mask-84)" points="7.67129586 31.9254623 7.70394903 43.3927049 6.32718476 44.1916083 6.31252416 38.9495167 6.92560408 37.7903368 6.91360904 33.7656856 7.42406472 32.0687694"></polygon>
                                        <path d="M7.89293759,24.9574584 C7.89293759,25.0324602 7.8769442,25.0940689 7.84828937,25.1402753 C7.81097147,25.2025536 7.75032986,25.2367063 7.67636044,25.2367063 C7.62438192,25.2367063 7.5650731,25.2199648 7.50376511,25.1831335 L1.87275926,21.9165364 C1.65951407,21.7926494 1.48425318,21.4879546 1.48425318,21.2401807 C1.48425318,21.0633907 1.57288321,20.9609328 1.70016393,20.9609328 L1.70882702,20.9609328 C1.75813997,20.9622722 1.81411683,20.9796833 1.87275926,21.0138359 L7.50376511,24.2811027 C7.71767669,24.40432 7.89293759,24.7096845 7.89293759,24.9574584" id="Fill-415" fill="#6E6E6E" mask="url(#mask-84)"></path>
                                        <path d="M7.89293759,26.4089445 C7.89293759,26.4839463 7.8769442,26.545555 7.84828937,26.5917615 C7.81097147,26.6540398 7.75032986,26.6875227 7.67636044,26.6875227 C7.62438192,26.6875227 7.5650731,26.6707812 7.50376511,26.6352893 L1.87275926,23.3680225 C1.65951407,23.2434659 1.48425318,22.9394407 1.48425318,22.6909971 C1.48425318,22.5148768 1.57288321,22.412419 1.70016393,22.412419 L1.70882702,22.412419 C1.75813997,22.4137583 1.81411683,22.4311694 1.87275926,22.465322 L7.50376511,25.7319192 C7.71767669,25.8558061 7.89293759,26.1611707 7.89293759,26.4089445" id="Fill-417" fill="#6E6E6E" mask="url(#mask-84)"></path>
                                        <path d="M7.89293759,27.9719289 C7.89293759,28.0469307 7.8769442,28.1085393 7.84828937,28.1547458 C7.81097147,28.2170241 7.75032986,28.2505071 7.67636044,28.2505071 C7.62438192,28.2505071 7.5650731,28.2337656 7.50376511,28.1982737 L1.87275926,24.9310069 C1.65951407,24.8064503 1.48425318,24.502425 1.48425318,24.2539815 C1.48425318,24.0778612 1.57288321,23.9754033 1.70016393,23.9754033 L1.70882702,23.9754033 C1.75813997,23.9767426 1.81411683,23.9941538 1.87275926,24.0283064 L7.50376511,27.2949035 C7.71767669,27.4187905 7.89293759,27.724155 7.89293759,27.9719289" id="Fill-419" fill="#6E6E6E" mask="url(#mask-84)"></path>
                                        <path d="M7.89293759,24.9574584 C7.89293759,25.0324602 7.8769442,25.0940689 7.84828937,25.1402753 C7.79897642,25.138936 7.74299956,25.1221945 7.68369074,25.0880419 L2.05335128,21.8207751 C1.83877331,21.6962185 1.66417881,21.3921933 1.66417881,21.1437498 C1.66417881,21.068748 1.6801722,21.0071393 1.70882702,20.9609328 C1.75813997,20.9622722 1.81411683,20.9796833 1.87275926,21.0138359 L7.50376511,24.2811027 C7.71767669,24.40432 7.89293759,24.7096845 7.89293759,24.9574584" id="Fill-421" fill="#979797" mask="url(#mask-84)"></path>
                                        <path d="M7.89293759,26.4089445 C7.89293759,26.4839463 7.8769442,26.545555 7.84828937,26.5917615 C7.79764364,26.5897525 7.74233317,26.573011 7.68369074,26.5388584 L2.05335128,23.2722613 C1.83877331,23.1477047 1.66417881,22.8430098 1.66417881,22.5952359 C1.66417881,22.5202341 1.6801722,22.4586254 1.70882702,22.412419 C1.75813997,22.4137583 1.81411683,22.4311694 1.87275926,22.465322 L7.50376511,25.7319192 C7.71767669,25.8558061 7.89293759,26.1611707 7.89293759,26.4089445" id="Fill-423" fill="#979797" mask="url(#mask-84)"></path>
                                        <path d="M7.89293759,27.9719289 C7.89293759,28.0469307 7.8769442,28.1085393 7.84828937,28.1547458 C7.79764364,28.1527368 7.74233317,28.1359954 7.68369074,28.1018428 L2.05335128,24.8352456 C1.83877331,24.710689 1.66417881,24.4059941 1.66417881,24.1582203 C1.66417881,24.0832184 1.6801722,24.0216098 1.70882702,23.9754033 C1.75813997,23.9767426 1.81411683,23.9941538 1.87275926,24.0283064 L7.50376511,27.2949035 C7.71767669,27.4187905 7.89293759,27.724155 7.89293759,27.9719289" id="Fill-425" fill="#979797" mask="url(#mask-84)"></path>
                                    </g>
                                </g>
                            </g>
                        </g>
                    </g>
                </g>
            </g>
        </g>
    </g>
</svg>