<?xml version="1.0" encoding="UTF-8"?>
<svg width="36px" height="48px" viewBox="0 0 36 48" version="1.1" xmlns="http://www.w3.org/2000/svg" xmlns:xlink="http://www.w3.org/1999/xlink">
    <title>icon_电表</title>
    <defs>
        <linearGradient x1="110.780232%" y1="12.3335044%" x2="9.08833601e-13%" y2="98.0159016%" id="linearGradient-1">
            <stop stop-color="#9B9B9B" offset="0%"></stop>
            <stop stop-color="#3A3A3E" offset="100%"></stop>
        </linearGradient>
        <linearGradient x1="-1.83880623e-12%" y1="46.1747657%" x2="122.877111%" y2="73.2061611%" id="linearGradient-2">
            <stop stop-color="#E8E8E8" offset="0%"></stop>
            <stop stop-color="#C2C2C2" offset="100%"></stop>
        </linearGradient>
        <linearGradient x1="13.7079478%" y1="46.1481192%" x2="102.897198%" y2="73.3678147%" id="linearGradient-3">
            <stop stop-color="#E8E8E8" offset="0%"></stop>
            <stop stop-color="#C2C2C2" offset="100%"></stop>
        </linearGradient>
        <linearGradient x1="50%" y1="0%" x2="50%" y2="100%" id="linearGradient-4">
            <stop stop-color="#DDDDDD" offset="0%"></stop>
            <stop stop-color="#B4B4B4" offset="100%"></stop>
        </linearGradient>
        <linearGradient x1="97.8521765%" y1="-7.32241798e-13%" x2="31.0128545%" y2="93.5611139%" id="linearGradient-5">
            <stop stop-color="#CACACA" offset="0%"></stop>
            <stop stop-color="#C2C3C4" offset="100%"></stop>
        </linearGradient>
    </defs>
    <g id="光储充及工商储管理系统V1.3" stroke="none" stroke-width="1" fill="none" fill-rule="evenodd">
        <g id="3_2_8.设备监视_示范站站点拓扑_通信拓扑" transform="translate(-1574.000000, -704.000000)">
            <g id="main" transform="translate(212.000000, 102.000000)">
                <g transform="translate(60.000000, 40.000000)" id="3">
                    <g transform="translate(0.000000, 245.000000)">
                        <g id="4" transform="translate(1266.000000, 275.000000)">
                            <g id="编组-1" transform="translate(32.000000, 42.000000)">
                                <g id="icon_电表" transform="translate(4.000000, 0.000000)">
                                    <g transform="translate(5.000000, 0.000000)">
                                        <polygon id="Fill-1" fill="#B6B6B6" points="9.18328778 39.52396 6.27137259 42.7267235 8.151311 47.9996983 25.9392336 38.0311874 26.971832 29.5554491"></polygon>
                                        <polygon id="Fill-2" fill="url(#linearGradient-1)" points="21.3913243 39.4510712 9.65414272 46.0297695 10.3348744 40.4376044 22.073921 33.8589061"></polygon>
                                        <polygon id="Fill-4" fill="url(#linearGradient-2)" points="26.971832 14.2002859 9.18328778 24.1681934 7.30334937 18.8934084 8.151311 14.5357675 25.9392336 4.56785998"></polygon>
                                        <polygon id="Fill-5" fill="#BCBEC0" points="19.0558241 17.8541394 16.1358272 19.4911208 16.0425763 18.6113866 18.2246477 17.3883268 17.4724236 10.3619174 18.2084842 9.94859921"></polygon>
                                        <polygon id="Fill-6" fill="#939598" points="18.2247098 17.3880854 16.0426385 18.6111453 15.2891711 11.5859427 17.4724858 10.3616761"></polygon>
                                        <polygon id="Fill-7" fill="url(#linearGradient-3)" points="12.2107719 26.068371 8.77229992 32.1987548 12.2107719 41.0166119 29.9999378 31.0487044 29.9999378 16.1004635"></polygon>
                                        <polygon id="Fill-8" fill="#A7A9AC" points="0.00012433455 32.7983377 0.475703993 34.6422799 2.21825273 34.0932002 1.81478711 31.7804285"></polygon>
                                        <polygon id="Fill-9" fill="url(#linearGradient-4)" points="0.00012433455 20.6015288 1.03272278 20.4784384 1.03272278 34.0799258 0.00012433455 32.7983377 0.00012433455 43.4311746 8.15087583 48 9.18347428 39.5242617 12.2103989 41.0170343 12.2110206 26.06819 9.18347428 24.168133 8.15087583 14.5357071 0.00012433455 9.96748513"></polygon>
                                        <polygon id="Fill-10" fill="#F1F1F1" points="9.18328778 24.1682537 12.2108341 26.0683106 30 16.1004031 26.971832 14.2003462"></polygon>
                                        <polygon id="Fill-11" fill="#F1F1F1" points="17.7879226 0 0 9.9679075 8.1507515 14.5355261 25.9392957 4.56822202"></polygon>
                                        <polygon id="Fill-12" fill="#939598" points="29.3935582 19.5717933 29.3935582 28.1579509 13.0193195 37.3348217 13.0193195 36.3772509 28.5387582 27.680674 28.5387582 20.0508804"></polygon>
                                        <polygon id="Fill-13" fill="url(#linearGradient-5)" points="28.5387582 20.05082 28.5387582 27.681217 13.0193195 36.3771906 13.0193195 28.7480003"></polygon>
                                        <polygon id="Fill-14" fill="#939598" points="24.7443785 24.192027 17.1699177 28.4362317 17.1699177 27.4032379 24.7443785 23.1590332"></polygon>
                                        <polygon id="Fill-15" fill="#939598" points="18.2611399 31.7832644 13.8366949 34.263777 13.8366949 33.8377877 18.2611399 31.3584819"></polygon>
                                        <polygon id="Fill-16" fill="#535359" points="26.8947446 23.2251038 25.7831937 23.8483997 25.7831937 24.0384657 26.8947446 23.4157732"></polygon>
                                        <polygon id="Fill-17" fill="#535359" points="25.1602154 25.7070042 24.0486645 26.3303001 24.0486645 26.5215729 25.1602154 25.898277"></polygon>
                                        <polygon id="Fill-18" fill="#939598" points="18.2611399 32.6700582 13.8366949 35.1499674 13.8366949 34.7245815 18.2611399 32.2452757"></polygon>
                                        <polygon id="Fill-19" fill="#939598" points="27.7100684 27.3757236 25.4944267 28.6174883 25.4944267 27.3063344 27.7100684 26.0633629"></polygon>
                                        <polygon id="Fill-20" fill="#303033" points="22.4325019 28.2218493 13.5630967 33.1913218 13.5630967 31.4131485 22.4325019 26.4430726"></polygon>
                                        <polygon id="Fill-21" fill="#E31B25" points="23.7730148 27.471179 22.4326884 28.221789 22.4326884 26.4430122 23.7730148 25.6917989"></polygon>
                                        <polygon id="Fill-22" fill="#000000" points="14.5984927 31.0396537 14.5984927 32.4238171 13.6927154 32.9318666 13.6927154 32.8093796 14.4884566 32.3628753 14.4884566 31.1011988"></polygon>
                                        <polygon id="Fill-23" fill="#121214" points="14.4885809 31.1015005 14.4885809 32.363177 13.6928398 32.8090779 13.6928398 31.5461947"></polygon>
                                        <g id="编组" transform="translate(13.563097, 22.248474)">
                                            <path d="M0.707500971,9.62818331 C0.707500971,9.3759924 0.647373006,9.30765289 0.557807391,9.35724439 C0.46698911,9.40804544 0.407487478,9.5435149 0.407487478,9.79570581 C0.407487478,10.047292 0.46698911,10.1216792 0.557807391,10.0714829 C0.647373006,10.0212867 0.707500971,9.87976945 0.707500971,9.62818331 M0.309779534,9.84953073 C0.309779534,9.56165813 0.403103147,9.3548253 0.557807391,9.26834256 C0.711885302,9.1824646 0.803956248,9.28648579 0.803956248,9.57435839 C0.803956248,9.86283577 0.711885302,10.073902 0.557807391,10.1603848 C0.403103147,10.2468675 0.309779534,10.1380081 0.309779534,9.84953073" id="Fill-24" fill="#FFFFFF"></path>
                                            <polygon id="Fill-26" fill="#000000" points="2.56166476 7.93558069 2.56166476 9.32034751 1.65775257 9.82658688 1.65775257 9.70530664 2.4534937 9.2594057 2.4534937 7.99712589"></polygon>
                                            <polygon id="Fill-28" fill="#121214" points="2.45355586 7.99682419 2.45355586 9.25970739 1.65781474 9.70500495 1.65781474 8.44212176"></polygon>
                                            <path d="M1.8100624,8.9940533 C1.8100624,8.70557593 1.90275967,8.49874309 2.05746392,8.41286513 C2.21154183,8.32638239 2.30423911,8.43040359 2.30423911,8.71888096 C2.30423911,9.00675356 2.21154183,9.21781982 2.05746392,9.30490733 C1.90275967,9.39018051 1.8100624,9.2819259 1.8100624,8.9940533 M2.20841016,8.77270588 C2.20841016,8.51991019 2.14765587,8.45157069 2.05746392,8.50116219 C1.96727197,8.55256801 1.90651767,8.68743269 1.90651767,8.93962361 C1.90651767,9.19181452 1.96727197,9.26559699 2.05746392,9.21479595 C2.14765587,9.16520445 2.20841016,9.02489679 2.20841016,8.77270588" id="Fill-30" fill="#FFFFFF"></path>
                                            <polygon id="Fill-32" fill="#000000" points="4.0902959 7.07998185 4.0902959 8.46414528 3.18514036 8.97038465 3.18514036 8.84910442 3.98088149 8.40260009 3.98088149 7.13971689"></polygon>
                                            <polygon id="Fill-34" fill="#121214" points="3.98106799 7.13947554 3.98106799 8.40296212 3.18532687 8.84886307 3.18532687 7.58658326"></polygon>
                                            <path d="M3.33813403,8.13730626 C3.33813403,7.84943366 3.43083131,7.64381037 3.58616189,7.55672286 C3.73898713,7.4708449 3.83231074,7.57365654 3.83231074,7.86213392 C3.83231074,8.15000652 3.73898713,8.3628871 3.58616189,8.44755551 C3.43083131,8.53403824 3.33813403,8.42578363 3.33813403,8.13730626 M3.73585547,7.91595884 C3.73585547,7.66497747 3.6738485,7.59542842 3.58616189,7.64622947 C3.4953436,7.69582097 3.43333664,7.83249997 3.43333664,8.08287656 C3.43333664,8.33567225 3.4953436,8.40945472 3.58616189,8.35925845 C3.6738485,8.30906218 3.73585547,8.16814975 3.73585547,7.91595884" id="Fill-36" fill="#FFFFFF"></path>
                                            <polygon id="Fill-38" fill="#000000" points="5.61718635 6.22383997 5.61718635 7.60740001 4.71265249 8.11544953 4.71265249 7.99296253 5.50901529 7.54706159 5.50901529 6.28478178"></polygon>
                                            <polygon id="Fill-40" fill="#121214" points="5.50913963 6.28454042 5.50913963 7.54742362 4.71277683 7.99272118 4.71277683 6.72983799"></polygon>
                                            <path d="M4.86620566,7.28231343 C4.86620566,6.99383606 4.95890294,6.78639845 5.11360719,6.70052049 C5.26643243,6.61464253 5.35912971,6.71805894 5.35912971,7.00532677 C5.35912971,7.29440892 5.26643243,7.50668472 5.11360719,7.59135313 C4.95890294,7.67783587 4.86620566,7.57018603 4.86620566,7.28231343 M5.2620481,7.05975646 C5.2620481,6.80817032 5.20254647,6.74043559 5.11360719,6.78942232 C5.02341524,6.84022337 4.96203461,6.97508805 4.96203461,7.22727896 C4.96203461,7.47946988 5.02341524,7.55325235 5.11360719,7.5024513 C5.20254647,7.4528598 5.2620481,7.31255215 5.2620481,7.05975646" id="Fill-42" fill="#FFFFFF"></path>
                                            <polygon id="Fill-44" fill="#000000" points="7.14525798 5.36649131 7.14525798 6.75246489 6.24072412 7.25930765 6.24072412 7.13682065 7.03584358 6.69031632 7.03584358 5.42803651"></polygon>
                                            <polygon id="Fill-46" fill="#121214" points="7.03596791 5.4283382 7.03596791 6.69061801 6.24084846 7.13651896 6.24084846 5.87423915"></polygon>
                                            <path d="M6.39365562,6.42556714 C6.39365562,6.13708976 6.4863529,5.9308617 6.64105715,5.84437897 C6.79513506,5.75789623 6.887206,5.8625222 6.887206,6.1503948 C6.887206,6.43766263 6.79513506,6.64993843 6.64105715,6.73581639 C6.4863529,6.82169435 6.39365562,6.71404451 6.39365562,6.42556714 M6.79075073,6.20482449 C6.79075073,5.95263358 6.73062276,5.8836893 6.64105715,5.9332808 C6.55149153,5.98408185 6.48948457,6.11955131 6.48948457,6.37113744 C6.48948457,6.62332836 6.55149153,6.69711083 6.64105715,6.64691456 C6.73062276,6.59671828 6.79075073,6.45580586 6.79075073,6.20482449" id="Fill-48" fill="#FFFFFF"></path>
                                            <polygon id="Fill-50" fill="#000000" points="8.67395129 4.51149586 8.67395129 5.89565929 7.76817408 6.40310542 7.76817408 6.28122181 8.56391521 5.83411409 8.56391521 4.57304105"></polygon>
                                            <polygon id="Fill-52" fill="#121214" points="8.56403955 4.57273936 8.56403955 5.83441579 7.76829842 6.28092012 7.76829842 5.01864031"></polygon>
                                            <path d="M8.34724212,5.34735345 C8.34724212,5.09516254 8.28648783,5.02682303 8.19754854,5.07701931 C8.10673026,5.12721558 8.0466023,5.26268504 8.0466023,5.51487595 C8.0466023,5.76646209 8.10673026,5.84084934 8.19754854,5.79004829 C8.28648783,5.74045679 8.34724212,5.59893959 8.34724212,5.34735345 M7.94889436,5.56930564 C7.94889436,5.28143304 8.0428443,5.07339066 8.19754854,4.98690792 C8.35100012,4.90223951 8.44307107,5.00505115 8.44307107,5.29352853 C8.44307107,5.58200591 8.35100012,5.79367693 8.19754854,5.87895012 C8.0428443,5.96482808 7.94889436,5.85778302 7.94889436,5.56930564" id="Fill-54" fill="#FFFFFF"></path>
                                            <polygon id="Fill-56" fill="#9C251F" points="9.97741256 3.77965112 9.97741256 5.16502132 9.0728787 5.67246746 9.0728787 5.54998046 9.8692415 5.10347613 9.8692415 3.8417997"></polygon>
                                            <polygon id="Fill-58" fill="#FF3F4A" points="9.86930366 3.84149801 9.86930366 5.10377782 9.07294086 5.54967877 9.07294086 4.28679557"></polygon>
                                            <path d="M9.6513204,4.61665573 C9.6513204,4.36386004 9.59119244,4.29552053 9.50162682,4.34571681 C9.41080854,4.39591308 9.35130691,4.53138254 9.35130691,4.78417823 C9.35130691,5.03576437 9.41080854,5.11015161 9.50162682,5.05935057 C9.59119244,5.00975907 9.6513204,4.86824186 9.6513204,4.61665573 M9.25359897,4.83800315 C9.25359897,4.55013055 9.34754891,4.34269294 9.50162682,4.2562102 C9.65570473,4.17093701 9.74777568,4.27435343 9.74777568,4.56222603 C9.74777568,4.85070341 9.65570473,5.06237444 9.50162682,5.1482524 C9.34754891,5.23413036 9.25359897,5.12648052 9.25359897,4.83800315" id="Fill-60" fill="#FFFFFF"></path>
                                            <polygon id="Fill-62" fill="#FFFFFF" points="2.65329932 6.98862948 0 8.47597161 0 6.8540748 2.65267765 5.36673267"></polygon>
                                            <polygon id="Fill-64" fill="#3576AB" points="2.43049181 6.84725656 1.68137613 7.2666086 1.68199781 6.23361479 2.43049181 5.81546952"></polygon>
                                            <polygon id="Fill-66" fill="#E31B25" points="1.47373743 7.38288074 0.239095342 8.07375568 0.239095342 7.04257203 1.47435911 6.35049032"></polygon>
                                            <path d="M13.152544,0.322561171 C13.152544,0.61037545 12.9424186,0.961545072 12.6862894,1.10515052 C12.4879758,1.2167766 12.3182592,1.17272955 12.2504968,1.01464288 C12.303339,1.00800566 12.3592896,0.988697363 12.4183485,0.956114614 C12.675721,0.811905783 12.8852247,0.46073616 12.8852247,0.172921882 C12.8852247,0.107153001 12.8740346,0.0498314987 12.8528977,0.00276752862 C13.0275878,-0.0201610722 13.152544,0.100515774 13.152544,0.322561171" id="Fill-68" fill="#939598"></path>
                                            <path d="M12.8854112,0.172921882 C12.8854112,0.46073616 12.6759075,0.811905783 12.418535,0.956114614 C12.3588544,0.988697363 12.3035255,1.00800566 12.2506833,1.01464288 C12.2301681,0.967578914 12.2202214,0.910860797 12.2202214,0.844488531 C12.2202214,0.555467484 12.4291034,0.206108015 12.6864759,0.0606924148 C12.7442915,0.0275062821 12.8008637,0.00940475516 12.8524625,0.00276752862 C12.8742211,0.0498314987 12.8854112,0.107153001 12.8854112,0.172921882" id="Fill-70" fill="#3DE3D2"></path>
                                        </g>
                                    </g>
                                </g>
                            </g>
                        </g>
                    </g>
                </g>
            </g>
        </g>
    </g>
</svg>