<?xml version="1.0" encoding="UTF-8"?>
<svg width="80px" height="80px" viewBox="0 0 80 80" version="1.1" xmlns="http://www.w3.org/2000/svg" xmlns:xlink="http://www.w3.org/1999/xlink">
    <title>icon_MQTT服务器</title>
    <defs>
        <linearGradient x1="50%" y1="13.376027%" x2="51.4%" y2="119.575885%" id="linearGradient-1">
            <stop stop-color="#D8D8D8" offset="0%"></stop>
            <stop stop-color="#868686" offset="100%"></stop>
        </linearGradient>
        <linearGradient x1="50%" y1="0%" x2="50%" y2="100%" id="linearGradient-2">
            <stop stop-color="#F8F8F8" offset="0%"></stop>
            <stop stop-color="#D4D4D4" offset="100%"></stop>
        </linearGradient>
        <linearGradient x1="50%" y1="0%" x2="50%" y2="100%" id="linearGradient-3">
            <stop stop-color="#D2D2D2" offset="0%"></stop>
            <stop stop-color="#B3B3B3" offset="100%"></stop>
        </linearGradient>
        <linearGradient x1="50%" y1="13.3759805%" x2="51.4%" y2="119.575974%" id="linearGradient-4">
            <stop stop-color="#D8D8D8" offset="0%"></stop>
            <stop stop-color="#868686" offset="100%"></stop>
        </linearGradient>
        <linearGradient x1="50%" y1="0%" x2="50%" y2="100%" id="linearGradient-5">
            <stop stop-color="#F8F8F8" offset="0%"></stop>
            <stop stop-color="#D4D4D4" offset="100%"></stop>
        </linearGradient>
    </defs>
    <g id="光储充及工商储管理系统V1.3" stroke="none" stroke-width="1" fill="none" fill-rule="evenodd">
        <g id="3_2_8.设备监视_示范站站点拓扑_通信拓扑" transform="translate(-1007.000000, -417.000000)" fill-rule="nonzero">
            <g id="main" transform="translate(212.000000, 102.000000)">
                <g transform="translate(60.000000, 40.000000)" id="2">
                    <g transform="translate(733.500000, 275.000000)">
                        <g id="服务器" transform="translate(1.500000, 0.000000)">
                            <rect id="矩形" fill="#000000" opacity="0" x="0" y="5.88748508e-05" width="79.9999411" height="79.9999411"></rect>
                            <path d="M35.7688799,34.9294082 C34.6743495,34.2969868 33.0155226,34.2282368 32.0673202,34.775502 L1.14203041,52.6307233 C0.193827982,53.1779885 0.312890395,54.135644 1.40742084,54.7675967 L44.1509831,79.4457035 C45.2459823,80.0777343 46.9048874,80.1464843 47.8530898,79.5991409 L78.7782233,61.7445447 C79.7264257,61.1972795 79.6073633,60.2396239 78.5123641,59.6071244 L35.7688799,34.9294082 Z" id="路径" fill="#4762AF"></path>
                            <path d="M34.146303,66.2381351 C34.6667714,66.538838 35.0898179,67.2711031 35.0898179,67.8725089 C35.0898179,68.4739147 34.6667714,68.7181333 34.146303,68.4174304 C33.6253659,68.1166494 33.2027881,67.3844624 33.2027881,66.7830566 C33.2027881,66.1816508 33.625444,65.9374322 34.146303,66.2381351 Z M37.9265346,68.4207116 C38.447003,68.7214927 38.8701276,69.4536796 38.8701276,70.0550854 C38.8701276,70.6564913 38.447003,70.9002411 37.9265346,70.5995382 C37.4055975,70.299304 36.9830197,69.5665702 36.9830197,68.9656331 C36.9830197,68.3642273 37.4056756,68.1200087 37.9265346,68.4207116 Z M41.7062974,70.6032882 C42.2272345,70.9040692 42.6498124,71.6362562 42.6498124,72.237662 C42.6498124,72.838599 42.2272345,73.0828176 41.7062974,72.7821928 C41.1858291,72.4814118 40.7627825,71.7491467 40.7627825,71.147819 C40.7627825,70.5468038 41.1858291,70.3025853 41.7062974,70.6032882 Z" id="形状" fill="#448FFF"></path>
                            <path d="M0.509609,40.91956 C0.509609,40.91956 0.413671571,53.7336131 0.52289024,53.7162693 C0.63148391,53.6993162 5.80608948,56.3830643 5.80608948,56.3830643 L11.0837418,51.0715838 L11.4098354,47.2583053 L0.509609,40.91956 Z M79.4183009,48.1082266 L79.4183009,60.8122797 L71.4178381,65.4654013 L67.2944817,55.6664242 L79.4183009,48.1082266 L79.4183009,48.1082266 Z" id="形状" fill="#4762AF"></path>
                            <path d="M35.7688799,22.2207456 C34.6743495,21.5887149 33.0155226,21.520043 32.0673202,22.0673083 L1.14203041,39.9219826 C0.193827982,40.4696385 0.312890395,41.427294 1.40742084,42.0593248 L44.1509831,66.7374316 C45.2459823,67.3694624 46.9048874,67.4381342 47.8530898,66.890869 L78.7782233,49.0361947 C79.7264257,48.4885388 79.6073633,47.5308833 78.5123641,46.8988525 L35.7688018,22.2207456 L35.7688799,22.2207456 Z" id="路径" fill="#6D8ACA"></path>
                            <path d="M39.9445019,60.5901705 C39.9445019,60.5901705 44.8046545,64.0654024 47.7298086,62.4493879 C50.6550408,60.8329829 76.4526781,45.7096346 76.4526781,45.7096346 L76.4290844,41.2941691 L39.9445019,55.3190807 L39.9445019,60.5901705 Z" id="路径" fill="#5D7BC1"></path>
                            <polygon id="路径" fill="#5D7BC1" points="8.80374352 37.339797 8.80374352 42.6108869 39.9599706 60.5990768 39.9599706 55.3279869"></polygon>
                            <path d="M26.1717776,62.7237627 C26.1717776,62.1223569 25.805606,61.4225918 25.3548251,61.1623576 L4.63390284,49.1995539 C4.18312192,48.938851 3.81695032,49.2155695 3.81695032,49.8169753 C3.81695032,50.4183811 4.1830438,51.1181463 4.63390284,51.3783804 L25.3548251,63.3411841 C25.805606,63.6018871 26.1717776,63.3251685 26.1717776,62.7237627 Z" id="路径" fill="#6D8ACA"></path>
                            <path d="M32.0673202,34.775502 C33.0155226,34.2282368 34.6743495,34.2969868 35.7688799,34.9294082 L35.7688799,34.9294082 L69.4066488,54.3491383 L79.4183009,48.1082266 L79.4183009,60.8122797 C79.4195331,61.1625295 79.209037,61.4958959 78.7782233,61.7445447 L78.7782233,61.7445447 L47.8530898,79.5991409 C46.9048874,80.1464843 45.2459823,80.0777343 44.1509831,79.4457035 L44.1509831,79.4457035 L1.40742084,54.7675967 C0.836361477,54.4378823 0.530835946,54.0195077 0.50388155,53.6170155 L0.502823713,53.5392152 C0.482706058,53.1321687 0.473690047,52.0596201 0.471314383,50.7015574 L0.471567746,48.8280642 C0.47210274,48.4995652 0.472854854,48.1654337 0.473780188,47.8294088 L0.475848812,47.155942 L0.475848812,47.155942 L0.47830132,46.484073 C0.488338655,43.9201307 0.505117277,41.5379156 0.508855634,41.022309 L0.509609,40.91956 L10.9296488,46.9791383 Z" id="形状结合" fill="url(#linearGradient-1)"></path>
                            <path d="M34.146303,66.2381351 C34.6667714,66.538838 35.0898179,67.2711031 35.0898179,67.8725089 C35.0898179,68.4739147 34.6667714,68.7181333 34.146303,68.4174304 C33.6253659,68.1166494 33.2027881,67.3844624 33.2027881,66.7830566 C33.2027881,66.1816508 33.625444,65.9374322 34.146303,66.2381351 Z M37.9265346,68.4207116 C38.447003,68.7214927 38.8701276,69.4536796 38.8701276,70.0550854 C38.8701276,70.6564913 38.447003,70.9002411 37.9265346,70.5995382 C37.4055975,70.299304 36.9830197,69.5665702 36.9830197,68.9656331 C36.9830197,68.3642273 37.4056756,68.1200087 37.9265346,68.4207116 Z M41.7062974,70.6032882 C42.2272345,70.9040692 42.6498124,71.6362562 42.6498124,72.237662 C42.6498124,72.838599 42.2272345,73.0828176 41.7062974,72.7821928 C41.1858291,72.4814118 40.7627825,71.7491467 40.7627825,71.147819 C40.7627825,70.5468038 41.1858291,70.3025853 41.7062974,70.6032882 Z" id="形状" fill="#2EA355"></path>
                            <path d="M35.7688799,22.2207456 C34.6743495,21.5887149 33.0155226,21.520043 32.0673202,22.0673083 L1.14203041,39.9219826 C0.193827982,40.4696385 0.312890395,41.427294 1.40742084,42.0593248 L44.1509831,66.7374316 C45.2459823,67.3694624 46.9048874,67.4381342 47.8530898,66.890869 L78.7782233,49.0361947 C79.7264257,48.4885388 79.6073633,47.5308833 78.5123641,46.8988525 L35.7688018,22.2207456 L35.7688799,22.2207456 Z" id="路径" fill="url(#linearGradient-2)"></path>
                            <path d="M8.80374352,37.339797 L39.9445019,55.3190807 L76.4290844,41.2941691 L76.4526781,45.7096346 C76.4526781,45.7096346 50.6550408,60.8329829 47.7298086,62.4493879 C44.8046545,64.0654024 39.9445019,60.5901705 39.9445019,60.5901705 L39.9445019,60.5901705 L8.80374352,42.6108869 L8.80374352,37.339797 Z" id="形状结合" fill="url(#linearGradient-3)"></path>
                            <path d="M26.1717776,62.7237627 C26.1717776,62.1223569 25.805606,61.4225918 25.3548251,61.1623576 L4.63390284,49.1995539 C4.18312192,48.938851 3.81695032,49.2155695 3.81695032,49.8169753 C3.81695032,50.4183811 4.1830438,51.1181463 4.63390284,51.3783804 L25.3548251,63.3411841 C25.805606,63.6018871 26.1717776,63.3251685 26.1717776,62.7237627 Z" id="路径" fill="#DDDDDD"></path>
                            <path d="M32.0673202,13.0777055 C33.0155226,12.5304403 34.6743495,12.5991121 35.7688799,13.2316116 L35.7688799,13.2316116 L69.4066488,32.6513155 L79.4183009,26.4104301 L79.4183009,39.114327 C79.4193536,39.464861 79.2088533,39.7980492 78.7782233,40.0465919 L78.7782233,40.0465919 L47.8530898,57.9011881 C46.9048874,58.4489221 45.2459823,58.3797815 44.1509831,57.7477508 L44.1509831,57.7477508 L1.40742084,33.0696439 C0.836361477,32.7399295 0.530835946,32.3215549 0.50388155,31.9190627 L0.502823713,31.8413405 C0.482706058,31.434294 0.473690047,30.3617454 0.471314383,29.0036827 L0.471567746,27.1301895 C0.47210274,26.8016905 0.472854854,26.4675591 0.473780188,26.1315341 L0.475848812,25.4580674 L0.475848812,25.4580674 L0.47830132,24.7861983 C0.488338655,22.222256 0.505117277,19.840041 0.508855634,19.3244344 L0.509609,19.2216854 L10.9296488,25.2813155 Z" id="形状结合" fill="url(#linearGradient-4)"></path>
                            <path d="M34.146303,44.5402605 C34.6667714,44.8409634 35.0898179,45.5732285 35.0898179,46.1746343 C35.0898179,46.7760401 34.6667714,47.0202586 34.146303,46.7195557 C33.6253659,46.4187747 33.2027881,45.6865878 33.2027881,45.0851819 C33.2027881,44.4837761 33.625444,44.2395576 34.146303,44.5402605 Z M37.9265346,46.722837 C38.447003,47.023618 38.8701276,47.755805 38.8701276,48.3572108 C38.8701276,48.9586166 38.447003,49.2023664 37.9265346,48.9017416 C37.4055975,48.6014294 36.9830197,47.8686955 36.9830197,47.2677585 C36.9830197,46.6663527 37.4056756,46.4221341 37.9265346,46.722837 Z M41.7062974,48.9054135 C42.2272345,49.2061945 42.6498124,49.9383815 42.6498124,50.5397873 C42.6498124,51.1407244 42.2272345,51.3849429 41.7062974,51.0843182 C41.1858291,50.7835371 40.7627825,50.0513502 40.7627825,49.4499444 C40.7627825,48.8489292 41.1858291,48.6047106 41.7062974,48.9054135 Z" id="形状" fill="#2EA355"></path>
                            <path d="M35.7688799,0.52287099 C34.6743495,-0.109159795 33.0155226,-0.177831619 32.0673202,0.369433603 L1.14203041,18.224108 C0.193827982,18.7717638 0.312890395,19.7294194 1.40742084,20.3614501 L44.1509831,45.039557 C45.2459823,45.6715878 46.9048874,45.7402596 47.8530898,45.1929944 L78.7782233,27.33832 C79.7264257,26.7906642 79.6073633,25.8330086 78.5123641,25.2009778 L35.7688799,0.52287099 Z M26.1718557,41.0259662 C26.1718557,40.4244823 25.8056841,39.7247171 25.3549032,39.464483 L4.63390284,27.5016793 C4.18312192,27.2409763 3.81695032,27.5180855 3.81695032,28.1191007 C3.81695032,28.7205065 4.1830438,29.4202716 4.63390284,29.6805058 L25.3548251,41.6437782 C25.805606,41.9040124 26.1718557,41.627372 26.1718557,41.0258881 L26.1718557,41.0259662 Z" id="形状" fill="url(#linearGradient-5)"></path>
                        </g>
                    </g>
                </g>
            </g>
        </g>
    </g>
</svg>