<?xml version="1.0" encoding="UTF-8"?>
<svg width="48px" height="48px" viewBox="0 0 48 48" version="1.1" xmlns="http://www.w3.org/2000/svg" xmlns:xlink="http://www.w3.org/1999/xlink">
    <title>icon_储能BMS</title>
    <defs>
        <linearGradient x1="54.8955707%" y1="1.9580428%" x2="55.3574708%" y2="100%" id="linearGradient-1">
            <stop stop-color="#C5C5C5" offset="0%"></stop>
            <stop stop-color="#E0E0E0" offset="28.1%"></stop>
            <stop stop-color="#A7A7A7" offset="69.6%"></stop>
            <stop stop-color="#636363" offset="100%"></stop>
        </linearGradient>
        <polygon id="path-2" points="0 0 19.9997483 0 19.9997483 46.060705 0 46.060705"></polygon>
        <linearGradient x1="40.573066%" y1="3.5434213%" x2="59.426934%" y2="100%" id="linearGradient-4">
            <stop stop-color="#F3F3F3" offset="0%"></stop>
            <stop stop-color="#E4E4E4" offset="100%"></stop>
        </linearGradient>
        <linearGradient x1="41.6598319%" y1="3.5434213%" x2="58.3401681%" y2="100%" id="linearGradient-5">
            <stop stop-color="#F3F3F3" offset="0%"></stop>
            <stop stop-color="#E4E4E4" offset="100%"></stop>
        </linearGradient>
    </defs>
    <g id="光储充及工商储管理系统V1.3" stroke="none" stroke-width="1" fill="none" fill-rule="evenodd">
        <g id="3_2_8.设备监视_示范站站点拓扑_通信拓扑" transform="translate(-1308.000000, -704.000000)">
            <g id="main" transform="translate(212.000000, 102.000000)">
                <g transform="translate(60.000000, 40.000000)" id="3">
                    <g transform="translate(0.000000, 245.000000)">
                        <g transform="translate(907.000000, 275.000000)" id="编组-2">
                            <g transform="translate(116.500000, 41.999890)">
                                <g id="icon_储能BMS" transform="translate(36.500000, 24.000055) scale(-1, 1) translate(-36.500000, -24.000055) translate(12.500000, 0.000000)">
                                    <rect id="BG" x="0" y="0.000109601275" width="48" height="48"></rect>
                                    <g id="白底备份" transform="translate(13.320963, 0.000000)" fill="url(#linearGradient-1)" fill-rule="nonzero">
                                        <path d="M6.89950126,0 L17.4581004,6.03458795 L17.4581004,10.0274653 L18.6866439,10.7296276 C20.71166,11.8870145 22.1790368,14.6298138 22.1790368,16.9256199 L22.1790368,42.5549036 C22.1790368,44.032484 21.5345521,45.1905098 20.5466016,45.729819 L17.0566777,47.8120383 L14.178848,46.9489828 L16.6439267,45.111 L5.6709577,38.8400997 C3.64594157,37.6830707 2.17892667,34.9391977 2.17892667,32.6437496 L2.178,7.237 L0,6.44354572 L3.27940574,4.2170281 C4.16381076,3.41727164 5.48417812,3.22930769 6.89950126,3.99466675 L6.89892667,3.653 L3.89953902,1.93929503 L6.89950126,0 Z" id="形状结合"></path>
                                    </g>
                                    <g id="白底" transform="translate(12.500000, 1.939295)">
                                        <mask id="mask-3" fill="white">
                                            <use xlink:href="#path-2"></use>
                                        </mask>
                                        <g id="Clip-2"></g>
                                        <path d="M4.72050221,-0.000107364272 L15.2791013,6.03448058 L15.2791013,10.0273579 L16.5076449,10.7295203 C18.532661,11.8869071 20.0000378,14.6297065 20.0000378,16.9255125 L20.0000378,42.5547962 C20.0000378,45.3287311 17.7285892,46.9764149 15.1774163,45.518408 L3.49195865,38.8399923 C1.46694253,37.6829633 -7.2373699e-05,34.9390904 -7.2373699e-05,32.6436422 L-7.2373699e-05,7.0147164 C-7.2373699e-05,4.27764318 2.21094416,2.63747496 4.72050221,3.99455938 L4.72050221,-0.000107364272 Z" id="Fill-1" fill="url(#linearGradient-4)" fill-rule="nonzero" mask="url(#mask-3)"></path>
                                    </g>
                                    <path d="M16.6571091,9.00547471 C15.952913,8.60285868 15.3713904,8.97827576 15.3713904,9.83540054 L15.3713904,35.4646842 C15.3713904,36.321809 15.952913,37.3618109 16.6571091,37.7640691 L28.3425667,44.4424848 C29.0467629,44.8451008 29.6282855,44.4696837 29.6282855,43.6129168 L29.6282855,17.9832753 C29.6282855,17.1265084 29.0467629,16.0865064 28.3425667,15.6838904 C22.9992165,12.6300926 22.0004594,12.0592725 16.6571091,9.00547471 M16.6571091,7.12838932 L18.5493195,8.20990544 L18.5493195,4.2170281 L26.4499945,8.73241157 L26.4499945,12.7252889 L28.3425667,13.806805 C29.8982394,14.6957812 31.1709309,16.9719038 31.1709309,18.8650938 L31.1709309,44.4943775 C31.1709309,46.3872097 29.8982394,47.2085464 28.3425667,46.3195702 L16.6571091,39.6411545 C15.1014365,38.7521783 13.8291068,36.4764136 13.8291068,34.5832235 L13.8291068,8.95393986 C13.8291068,7.06074983 15.1014365,6.23941313 16.6571091,7.12838932" id="Fill-3" fill="url(#linearGradient-5)" fill-rule="nonzero"></path>
                                    <polygon id="Fill-1" fill="#009A29" opacity="0.300000012" points="16.9137101 32.3591726 16.9137101 36.4304259 28.0856763 42.8153792 28.0856763 38.744126"></polygon>
                                    <polygon id="Fill-2" fill="#009A29" opacity="0.300000012" points="16.9137101 26.9909589 16.9137101 31.0622122 28.0856763 37.4471655 28.0856763 33.3759123"></polygon>
                                    <polygon id="Fill-3" fill="#009A29" opacity="0.300000012" points="16.9137101 21.6227452 16.9137101 25.6936406 28.0856763 32.0789518 28.0856763 28.0076986"></polygon>
                                    <polygon id="Fill-4" fill="#D8D8D8" points="16.9137101 16.2545315 16.9137101 20.3254269 28.0856763 26.7107382 28.0856763 22.6394849"></polygon>
                                    <polygon id="Fill-5" fill="#D8D8D8" points="16.9137101 10.8293074 16.9137101 14.9002028 28.0856763 21.285514 28.0856763 17.2142608"></polygon>
                                </g>
                            </g>
                        </g>
                    </g>
                </g>
            </g>
        </g>
    </g>
</svg>