<?xml version="1.0" encoding="UTF-8"?>
<svg width="48px" height="48px" viewBox="0 0 48 48" version="1.1" xmlns="http://www.w3.org/2000/svg" xmlns:xlink="http://www.w3.org/1999/xlink">
    <title>icon_永泰充电终端</title>
    <defs>
        <linearGradient x1="45.7497919%" y1="0%" x2="45.7497919%" y2="100%" id="linearGradient-1">
            <stop stop-color="#424242" offset="0%"></stop>
            <stop stop-color="#828282" offset="100%"></stop>
        </linearGradient>
    </defs>
    <g id="光储充及工商储管理系统V1.3" stroke="none" stroke-width="1" fill="none" fill-rule="evenodd">
        <g id="3_2_8.设备监视_示范站站点拓扑_通信拓扑" transform="translate(-794.000000, -809.000000)">
            <g id="main" transform="translate(212.000000, 102.000000)">
                <g transform="translate(60.000000, 40.000000)" id="3">
                    <g transform="translate(0.000000, 245.000000)">
                        <g id="2" transform="translate(359.000000, 275.000000)">
                            <g transform="translate(23.000000, 147.000000)" id="编组-2">
                                <g transform="translate(122.000000, 0.000000)">
                                    <g id="icon_永泰充电终端" transform="translate(18.000000, 0.000000)">
                                        <rect id="BG" x="0" y="0" width="48" height="48"></rect>
                                        <g id="永泰充电桩终端" transform="translate(12.000000, 0.000000)" fill-rule="nonzero">
                                            <g id="侧视图" transform="translate(3.419648, 5.595855)">
                                                <polygon id="矩形" fill="#BCBEC0" points="0 0 5.08766157 2.86010363 5.08766157 42.4041451 0 39.5440415"></polygon>
                                                <g id="编组-104" transform="translate(1.568718, 3.413026)">
                                                    <g id="编组-103" transform="translate(0.197277, 0.000000)" fill="url(#linearGradient-1)">
                                                        <polygon id="矩形" points="0 0 1.65902008 0.932642488 1.65902008 1.29613391 0 0.363491431"></polygon>
                                                        <polygon id="矩形备份-255" points="0 0.726982863 1.65902008 1.65962536 1.65902008 2.02311678 0 1.09047429"></polygon>
                                                        <polygon id="矩形备份-256" points="0 1.45396572 1.65902008 2.38660821 1.65902008 2.75009964 0 1.81745715"></polygon>
                                                        <polygon id="矩形备份-257" points="0 2.18094859 1.65902008 3.11359107 1.65902008 3.4770825 0 2.54444002"></polygon>
                                                        <polygon id="矩形备份-258" points="0 2.90793145 1.65902008 3.84057393 1.65902008 4.20406537 0 3.27142288"></polygon>
                                                        <polygon id="矩形备份-259" points="0 3.63491431 1.65902008 4.5675568 1.65902008 4.93104823 0 3.99840574"></polygon>
                                                        <polygon id="矩形备份-260" points="0 4.36189717 1.65902008 5.29453966 1.65902008 5.65803109 0 4.72538861"></polygon>
                                                    </g>
                                                    <path d="M0.116795014,11.3510248 L0.217663435,11.1092839 L0.652990304,11.3540092 L0.753858724,11.7091595 L0.871980953,11.7755637 L0.499033241,10.5004548 L0.372947715,10.429574 L0,11.2853668 L0.116795014,11.3510248 Z M0.618482686,11.2316466 L0.252171052,11.0257191 L0.433999653,10.5952113 L0.439308516,10.5981958 L0.618482686,11.2316466 Z M1.22767486,12.1187761 L1.22767486,11.3756466 L1.2424194,11.4095365 L1.2424194,11.4095365 L1.27377488,11.4842411 L1.27377488,11.4842411 L1.30761889,11.5681789 L1.34395143,11.6613499 L1.3630509,11.7113979 L1.3630509,11.7113979 L1.42012119,11.6479782 C1.3550876,11.5054704 1.29138123,11.3756466 1.22767486,11.2562683 L1.22767486,11.1518124 L1.38163192,11.2383616 L1.38163192,11.1353979 L1.22767486,11.0488486 L1.22767486,10.7578642 L1.13344252,10.7048901 L1.13344252,10.9958745 L0.944977838,10.8899264 L0.944977838,10.9928901 L1.13344252,11.0988383 C1.0909716,11.2689523 1.02195637,11.404745 0.923742381,11.5017398 L0.964886079,11.6427554 C1.03390131,11.5591906 1.08964439,11.4562269 1.13344252,11.3346103 L1.13344252,12.065802 L1.22767486,12.1187761 Z M1.92844493,12.4933253 C1.99480574,12.530631 2.03860388,12.5418227 2.06249377,12.5313771 C2.08350801,12.5183201 2.09899221,12.4658849 2.1097144,12.3762303 L2.1155824,12.3179885 L2.1155824,12.3179885 L2.02665894,12.2351699 C2.02135006,12.3187346 2.01073234,12.3709626 1.99746018,12.393346 C1.98551523,12.4119989 1.95366205,12.4075222 1.90322784,12.3791699 L1.65636565,12.2403927 C1.61522194,12.2172631 1.59531371,12.1792113 1.59531371,12.1269833 L1.59531371,11.5494911 L1.88464682,11.712144 L1.88464682,11.9688072 C1.88464682,12.0046207 1.86606578,12.0120818 1.83155817,11.9926828 C1.81297715,11.9822372 1.7930689,11.9702994 1.77199935,11.9571492 L1.70547265,11.9143409 L1.70547265,11.9143409 L1.72803531,12.0255118 C1.77316066,12.0538642 1.81828601,12.0822165 1.86606578,12.1090766 C1.94038989,12.1463823 1.97755193,12.1284756 1.97755193,12.0538642 L1.97755193,11.6688694 L1.50506302,11.4032528 C1.59531371,11.352517 1.67361945,11.2696984 1.73998026,11.1533046 C1.81695879,11.3801232 1.93508101,11.6017191 2.09301973,11.8158538 L2.14478116,11.7554186 C1.97489751,11.522631 1.85412084,11.2965585 1.7851056,11.0786932 L1.69750935,11.0294497 C1.61522194,11.1876258 1.49709972,11.286859 1.34446987,11.3293875 L1.39490408,11.4472735 C1.43206613,11.4383201 1.46790097,11.424144 1.50240858,11.404745 L1.50240858,12.1105688 C1.50240858,12.2060714 1.54089785,12.27546 1.62053082,12.3202269 L1.92844493,12.4933253 Z" id="A枪" fill="#3F4143"></path>
                                                </g>
                                                <polygon id="矩形备份-79" fill="#1E1E1E" points="0 36.9326426 5.08766157 39.7927462 5.08766157 42.4041451 0 39.5440415"></polygon>
                                            </g>
                                            <g id="正面备份" transform="translate(8.507309, 2.860104)">
                                                <polygon id="矩形" fill="#DEDEDE" points="8.89110159e-15 5.59585492 9.95412048 0 9.95412048 39.5440415 0 45.1398964"></polygon>
                                                <polygon id="矩形备份-252" fill="#3F3F3F" points="2.22277539e-15 42.4041451 9.95412048 36.8082902 9.95412048 39.5440415 0 45.1398964"></polygon>
                                                <g id="面板" transform="translate(2.433229, 5.568446)">
                                                    <path d="M2.54383079,0.338289916 C2.57221299,0.322334444 2.60048664,0.306962609 2.6286445,0.292170362 L2.71276365,0.249528344 C4.03892376,-0.398234582 5.08766157,0.252571996 5.08766157,1.76834173 L5.08766157,13.3331086 C5.08766157,14.9127002 3.94874974,16.8334682 2.54383079,17.623264 C1.13891184,18.4130598 0,17.7728038 0,16.1932121 L0,4.62844536 C0,3.04885374 1.13891184,1.12808572 2.54383079,0.338289916 Z" id="矩形" fill="#313236"></path>
                                                    <polygon id="矩形" fill="#A3A1A4" points="0.774209371 7.67507749 4.31345221 5.68544018 4.31345221 7.92378215 0.774209371 9.91341946"></polygon>
                                                    <g id="编组-54" transform="translate(0.712273, 2.197685)" fill="#35E139">
                                                        <path d="M0.203506464,2.31437671 C0.315899979,2.25119305 0.407012926,2.0977134 0.407012926,1.97157032 C0.407012926,1.84542724 0.315899979,1.79438857 0.203506464,1.85757223 C0.0911129471,1.92075589 0,2.07423553 0,2.20037861 C0,2.32652169 0.0911129471,2.37756038 0.203506464,2.31437671 Z" id="椭圆形"></path>
                                                        <path d="M1.32279201,1.68515392 C1.43518553,1.62197025 1.52629848,1.4684906 1.52629848,1.34234752 C1.52629848,1.21620445 1.43518553,1.16516576 1.32279201,1.22834943 C1.21039849,1.29153309 1.11928555,1.44501274 1.11928555,1.57115581 C1.11928555,1.69729889 1.21039849,1.74833758 1.32279201,1.68515392 Z" id="椭圆形备份-68"></path>
                                                        <path d="M2.34032433,1.11313319 C2.45271784,1.04994952 2.54383079,0.896469874 2.54383079,0.770326799 C2.54383079,0.644183724 2.45271784,0.593145039 2.34032433,0.656328703 C2.22793081,0.719512368 2.13681786,0.872992015 2.13681786,0.99913509 C2.13681786,1.12527816 2.22793081,1.17631685 2.34032433,1.11313319 Z" id="椭圆形备份-69"></path>
                                                        <path d="M3.45960987,0.483910389 C3.57200339,0.420726723 3.66311634,0.267247076 3.66311634,0.141104001 C3.66311634,0.0149609264 3.57200339,-0.03607776 3.45960987,0.0271059046 C3.34721635,0.0902895691 3.2561034,0.243769216 3.2561034,0.369912291 C3.2561034,0.496055366 3.34721635,0.547094054 3.45960987,0.483910389 Z" id="椭圆形备份-70"></path>
                                                    </g>
                                                    <g id="刷卡" transform="translate(1.729805, 14.076599)" fill="#FFFFFF">
                                                        <path d="M1.14704576,1.6466413 L0.981767998,1.62611859 C0.911943892,1.60484726 0.902250664,1.5143121 0.953674064,1.40631407 C0.97946791,1.35208322 1.03401286,1.27500588 1.12289484,1.25604418 L1.13554532,1.25765838 L1.03023414,0.872770571 C1.02448392,0.850939533 1.00246879,0.848648807 0.98111083,0.867339129 L0.554773056,1.24049809 C0.533415094,1.25918842 0.520764609,1.29192065 0.526514829,1.31375169 L0.706907459,1.98355788 C0.712657681,2.00538892 0.734672811,2.00767964 0.756030772,1.98898932 L1.14704576,1.6466413 Z M1.37212582,1.06450851 L1.1462243,1.06915482 L1.21489837,1.33372554 L1.11665174,1.3213774 C1.07327865,1.31586955 1.01791224,1.36426063 0.993104147,1.42944802 C0.968296054,1.49463541 0.983410918,1.55186073 1.02678401,1.55736858 L1.24217084,1.58258293 C1.26747181,1.58544 1.28587251,1.60275857 1.29326566,1.63072097 L1.29934446,1.65422385 L1.54134659,1.442431 L1.46182926,1.13717058 C1.4510476,1.09612135 1.42454267,1.0705919 1.38825788,1.06544985 L1.37212582,1.06450851 Z M0.445190283,1.21799932 C0.360744189,1.17004456 0.360744189,1.01483584 0.445190283,0.87212151 L0.481170234,0.892553597 C0.416603473,1.0018137 0.416603473,1.12063378 0.481170234,1.15729958 L0.445190283,1.21799932 Z M0.310142248,1.44652809 C0.151271871,1.3563097 0.151271871,1.06408658 0.310142248,0.795245553 L0.346122198,0.815677641 C0.206966863,1.0511568 0.206966863,1.30680562 0.346122198,1.38564269 L0.310142248,1.44652809 Z M0.175094213,1.67505686 C-0.0583647376,1.54266719 -0.0583647376,1.11361533 0.175094213,0.718555254 L0.211074165,0.738987342 C-0.00250545305,1.10040754 -0.00250545305,1.49307076 0.211074165,1.61435712 L0.175094213,1.67505686 Z M1.18286142,0.803306665 L1.14688147,0.78287458 C1.21144823,0.673614473 1.21144823,0.554794398 1.14688147,0.518128598 L1.18286142,0.457243195 C1.26730752,0.505197957 1.26730752,0.66040668 1.18286142,0.803306665 Z M1.31790946,0.879996966 L1.28192951,0.859564878 C1.34928923,0.745578509 1.38641923,0.623522618 1.38641923,0.515841923 C1.38641923,0.408161229 1.34928923,0.327851681 1.28192951,0.289599828 L1.31790946,0.228714427 C1.39479812,0.272377517 1.43734975,0.364120409 1.43734975,0.487210581 C1.43734975,0.610300754 1.39496241,0.749793337 1.31790946,0.879996966 Z M1.45295749,0.956687266 L1.41697754,0.936255178 C1.63055716,0.574834984 1.63055716,0.182171764 1.41697754,0.0608854021 L1.45295749,0 C1.68641644,0.13276098 1.68641644,0.561812847 1.45295749,0.956687266 Z" id="形状"></path>
                                                    </g>
                                                </g>
                                                <g id="LOGO备份-30" transform="translate(3.207439, 2.832470)" fill="#C92128">
                                                    <path d="M0.906077805,1.48412785 C0.907488055,1.48723982 0.905190103,1.49255193 0.903938822,1.49502144 L0.903212536,1.49635666 L0.575519675,2.04333963 C0.572516203,2.0487133 0.570337515,2.05427938 0.569110129,2.05963228 L0.567998342,2.06745106 L0.567998342,2.36702775 C0.567986052,2.3713122 0.565842024,2.37625292 0.56265254,2.38006682 L0.557220003,2.38471971 L0.347741911,2.50248088 C0.343277376,2.50499069 0.339446828,2.5042145 0.337810587,2.50095916 L0.336963572,2.49690733 L0.336963572,2.19733065 C0.336704678,2.19257132 0.335432291,2.18853931 0.333273465,2.18549657 L0.329386275,2.18170713 L0.00331632281,2.00224652 L0.00117296661,2.0000948 C0.000218809351,1.99862746 -0.00050030624,1.99637722 0.000439860447,1.99324551 L0.00278405432,1.98877678 L0.00278405432,1.98877678 L0.0063270947,1.9854785 L0.177694858,1.88880336 C0.182238628,1.88650888 0.186634447,1.88541937 0.190558564,1.88557132 L0.196050494,1.88673492 L0.446560145,2.01691542 C0.448150987,2.01763047 0.450164612,2.01753657 0.452324262,2.01664664 L0.456461564,2.01370159 L0.456461564,2.01370159 L0.460024676,2.00934615 L0.71050075,1.59752916 C0.713876516,1.59234085 0.717881327,1.58769834 0.722194778,1.58392575 L0.728856386,1.57895983 L0.878645084,1.49475391 L0.90019057,1.48298003 C0.90278686,1.4816515 0.905079978,1.48209859 0.906077805,1.48412785 Z M1.42755196,1.44702091 C1.42822139,1.44704596 1.42846933,1.4475488 1.42830239,1.44868626 L1.42774163,1.45088801 L1.41511675,1.48594208 C1.40598391,1.50929598 1.39543749,1.5325772 1.38359085,1.55553545 L1.36485992,1.5896993 L1.34960229,1.61748588 C1.27709388,1.75406252 1.26109492,1.85633615 1.29317522,1.97118455 C1.25942358,1.98534637 1.22652672,1.9936162 1.19557245,1.99572059 C1.18557564,1.96345758 1.17640446,1.92190393 1.18720458,1.87815433 C1.20119565,1.82101481 1.20074937,1.78581523 1.18557564,1.76751669 C1.17465093,1.75449197 1.15734959,1.75116474 1.13287746,1.75747276 L1.11732734,1.7624133 L1.09588181,1.76934471 C1.06759713,1.77723388 1.04063002,1.77970481 1.01594168,1.77666944 L0.997867704,1.77335911 L0.993471674,1.77224201 L0.994370303,1.74219339 C0.99558034,1.72347076 0.998009049,1.7041823 1.00163705,1.68448203 L1.00797608,1.65464205 L1.02763539,1.66045198 C1.08712628,1.67442033 1.15928192,1.65970973 1.23366297,1.61802063 C1.2915966,1.5857058 1.34848503,1.53815516 1.39910605,1.47998099 L1.4238701,1.45002996 L1.42560828,1.448114 L1.42755196,1.44702091 Z M1.13011752,1.82535377 L1.13627218,1.82779383 L1.13855835,1.83285154 C1.14013691,1.83914017 1.14039275,1.85136533 1.13552871,1.87516593 L1.13196552,1.89088046 L1.12789688,1.9121063 C1.12352596,1.9400128 1.12337558,1.96623599 1.12750266,1.9895174 C1.06423307,1.97223782 1.01991411,1.92224833 1.00210742,1.84807804 C1.03481959,1.84942931 1.07036277,1.84314002 1.10726358,1.82947089 C1.11556347,1.82526323 1.12349313,1.82387284 1.13011752,1.82535377 Z M1.56642504,1.16641169 C1.59185375,1.17603858 1.61391975,1.19142435 1.63192869,1.21208484 C1.61910434,1.24364894 1.60898854,1.27520277 1.60176944,1.30610188 L1.59552289,1.33675888 L1.58856305,1.3860606 C1.58249676,1.42139261 1.57146767,1.45823925 1.55589269,1.49504743 C1.54777499,1.51293032 1.53877739,1.53064537 1.52897405,1.54805398 L1.51367402,1.57391975 L1.48487396,1.62442774 C1.47457698,1.6436959 1.46553463,1.66283008 1.45940563,1.68126496 C1.43472808,1.75114896 1.43395374,1.81643556 1.45728578,1.85999799 C1.42383355,1.8919255 1.3886907,1.91909586 1.3531226,1.94053077 C1.32026908,1.83704256 1.33024317,1.75331016 1.39105684,1.6367924 L1.40732405,1.60694953 L1.42295661,1.57844508 C1.47156027,1.48670213 1.49118863,1.41793484 1.49860508,1.37186987 L1.50064794,1.35735534 L1.50292969,1.32996422 L1.52347843,1.28805187 L1.53871067,1.25255549 L1.54942598,1.22370232 C1.55608425,1.20449092 1.56176486,1.18534975 1.56642504,1.16641169 Z M1.66429559,1.26505516 L1.67082607,1.28289916 C1.71636134,1.42300325 1.65032631,1.63946202 1.50932274,1.80477093 C1.49293298,1.77341615 1.49391645,1.72656576 1.51201161,1.67667807 C1.51974158,1.65765733 1.52882271,1.63878162 1.53910571,1.62033865 L1.55541293,1.5930347 L1.57375651,1.56187548 C1.5854738,1.54089547 1.59615085,1.51953281 1.60568706,1.49797762 C1.62405311,1.45442819 1.6371437,1.41084045 1.64448148,1.3689823 L1.64889872,1.33794062 L1.65202271,1.31617128 C1.654846,1.29946949 1.65895434,1.28235837 1.66429559,1.26505516 Z M1.49600235,1.15463172 L1.51629596,1.1553128 C1.49279468,1.27823436 1.41640005,1.40874706 1.31634511,1.49690913 C1.22343696,1.57877391 1.12348301,1.61235433 1.04964142,1.58779618 L1.03307968,1.58109238 L1.03082593,1.58009553 C1.04383548,1.54522317 1.05994941,1.51044558 1.07880169,1.47655273 C1.13406657,1.49940411 1.21126463,1.47518488 1.28281022,1.41254943 C1.33773882,1.36469634 1.38410047,1.29866384 1.41157492,1.22915097 C1.42021562,1.20720806 1.4268459,1.18529777 1.43131192,1.16392854 C1.44622616,1.15998234 1.46082951,1.15728475 1.47502563,1.15584554 L1.49600235,1.15463172 Z M2.49918821,0.590928891 L2.50004525,0.595025639 L2.50004525,0.686034135 L2.49918934,0.691089995 C2.49808708,0.694522115 2.49599937,0.697949792 2.49339366,0.700607795 L2.489155,0.70392189 L2.26663769,0.829013262 L2.26663769,1.41213686 C2.26661308,1.4167631 2.26429204,1.42209247 2.26084799,1.42619915 L2.25498634,1.43120141 L2.04550825,1.5489626 C2.04070034,1.55166543 2.03657117,1.55083898 2.03479151,1.54734679 L2.0338569,1.542998 L2.0338569,0.959874401 L1.81133959,1.08496577 C1.80682597,1.08749817 1.80295071,1.0867146 1.80129517,1.08342436 L1.80043813,1.07932855 L1.80043813,0.988320056 C1.80043813,0.983989909 1.80260849,0.978984023 1.80583854,0.975125465 L1.81133959,0.97042601 L2.4891438,0.589388419 C2.49365742,0.586851025 2.49753268,0.587637097 2.49918821,0.590928891 Z M1.37728899,1.18312372 C1.36417208,1.24146046 1.33013041,1.30225693 1.28492067,1.34808824 C1.24536214,1.38819064 1.20107424,1.41296164 1.16192356,1.41744619 L1.14548799,1.41811167 L1.13135087,1.41650352 L1.11819759,1.41282611 C1.19035303,1.30733621 1.28392365,1.2243794 1.37728899,1.18312372 Z M2.9400089,0.339098815 L2.94212506,0.341225156 L3.18355763,0.87602056 L3.18744142,0.887124911 C3.18795638,0.890932749 3.18696842,0.895640533 3.18468806,0.900245101 L3.18056909,0.907031437 L3.18056909,0.907031437 L3.17523045,0.912592235 L3.16239268,0.921017135 L3.00208308,1.01113754 L2.98917817,1.01798151 C2.98705486,1.01893439 2.98502606,1.01924235 2.98329093,1.01887516 L2.97961946,1.01806106 L2.97961946,1.01806106 L2.97721342,1.01526134 L2.82989176,0.690564506 L2.82674199,0.686241964 C2.82395679,0.68327119 2.81937164,0.682972523 2.81434074,0.685434176 C2.8088893,0.687756777 2.8034485,0.693015177 2.79979054,0.699496601 L2.79667357,0.707343132 L2.79667357,0.707343132 L2.79402642,0.71517908 L2.74498107,0.877306485 L2.7444774,0.877794979 L2.70125065,1.01824065 L2.66500553,1.13957679 L2.65978406,1.15908848 L2.6505167,1.18978644 L2.64492046,1.20544702 L2.64156273,1.21077734 L2.63642539,1.21596051 L2.62358764,1.22392638 L2.45800639,1.31701032 C2.45371384,1.3193328 2.44944617,1.32109537 2.44529175,1.32226152 C2.4424504,1.32273332 2.44004458,1.32195748 2.43846434,1.3200598 C2.43679815,1.31814863 2.43594926,1.31530991 2.43601211,1.31190315 L2.43694871,1.30455343 L2.43694871,1.30455343 L2.43872177,1.2969274 L2.68090424,0.488074283 C2.68195948,0.484961635 2.68382672,0.481958902 2.68609153,0.479603506 L2.68973508,0.476623088 L2.93335018,0.339671286 C2.93590035,0.338371266 2.93825899,0.338205069 2.9400089,0.339098815 Z M3.53924284,0.00152279716 L3.53924284,0.706774811 C3.53924284,0.708135067 3.53826208,0.709789126 3.53705223,0.710469255 L3.30870861,0.838835972 C3.30749878,0.839516101 3.306518,0.838964748 3.306518,0.837604492 L3.306518,0.132352477 C3.306518,0.130992221 3.30749878,0.129338163 3.30870861,0.128658035 L3.53705223,0.000291316386 C3.53826208,-0.000388811665 3.53924284,0.000162541057 3.53924284,0.00152279716 Z" id="形状结合"></path>
                                                </g>
                                                <g id="按钮" transform="translate(4.313452, 25.963649)">
                                                    <path d="M0.663608032,0.0881644712 C0.297295657,0.294092349 0,0.795481167 0,1.20733692 C0,1.61919267 0.297295657,1.78632033 0.663606726,1.58039318 C1.0299191,1.37446531 1.32721606,0.873075755 1.32721606,0.461222934 C1.32721606,0.0493671776 1.0299191,-0.117762673 0.663608032,0.0881644712 Z M0.663608032,1.43266235 C0.36896581,1.5982998 0.130066605,1.4654915 0.130066605,1.13421661 C0.130066605,0.802941706 0.368967115,0.400040357 0.663608032,0.23440364 C0.958250254,0.0687661912 1.19714815,0.203066152 1.19714815,0.534341051 C1.19586101,0.856300906 0.972431533,1.24280534 0.690231481,1.4169654 L0.663608032,1.43266235 Z" id="形状" fill="#3F3F3F"></path>
                                                    <path d="M0.247083783,1.07017318 C0.247083783,1.33458425 0.437727364,1.44175734 0.672899623,1.3095518 C0.899961022,1.1819059 1.08551316,0.877776493 1.09803987,0.618963266 L1.09871394,0.591416784 C1.09871394,0.327007425 0.908070358,0.219834337 0.672899623,0.352039017 C0.437728888,0.484243698 0.247083783,0.805763815 0.247083783,1.07017318 Z" id="路径" fill="#DA4648"></path>
                                                </g>
                                                <g id="LOGO备份-31" transform="translate(3.871047, 30.374960)" fill="#C92128">
                                                    <path d="M1.38832974,0.92724 C1.39154131,0.92734115 1.39171974,0.930863362 1.38893637,0.939482443 C1.3397404,1.08772819 1.27173462,1.23674331 1.18782023,1.38017063 L1.18782023,1.38017063 L1.15934221,1.43097968 C0.910165453,1.88372505 0.853014526,2.21599269 0.958549264,2.58948304 C0.850600554,2.63492946 0.745385714,2.66170275 0.646383907,2.66891756 C0.614410867,2.56692926 0.585078456,2.43550593 0.61962076,2.29677329 C0.664368742,2.11558253 0.662941374,2.00412514 0.614410867,1.94644978 C0.572481934,1.89718915 0.501184908,1.89231251 0.396130632,1.93150368 L0.396130632,1.93150368 L0.358539458,1.94448135 C0.233928191,1.98455415 0.116503249,1.99274103 0.0140599316,1.96829143 L0.0140599316,1.96829143 L0,1.96483218 L0.000923730295,1.90753535 C0.00468967203,1.80723214 0.0199491481,1.70129193 0.0463898143,1.59217419 L0.0463898143,1.59217419 L0.0779355927,1.60218276 C0.27391791,1.65845156 0.517098631,1.61293676 0.768209757,1.47218981 C0.984382081,1.35160153 1.19600438,1.16536948 1.37655395,0.936834204 L1.37655395,0.936834204 L1.38013844,0.93251929 C1.38270655,0.92996212 1.3855667,0.928096669 1.38832974,0.92724 Z M0.363943486,2.14403184 C0.399337798,2.12606917 0.432627043,2.12397844 0.4567224,2.13820487 C0.457371405,2.13897444 0.458026684,2.13986053 0.458676091,2.14088108 L0.458676091,2.14088108 L0.462404915,2.14876123 L0.46540988,2.16072862 C0.467042363,2.17026047 0.46780365,2.18309073 0.466916492,2.20036652 L0.466916492,2.20036652 L0.46425227,2.22975776 C0.460839882,2.25726792 0.454244578,2.29262042 0.442948299,2.33805582 L0.442948299,2.33805582 L0.435095018,2.37566584 C0.41623163,2.47522187 0.414008228,2.5686511 0.42867462,2.65048556 C0.226317919,2.59689292 0.0845714978,2.43938158 0.0276199265,2.20482594 C0.132244078,2.20852277 0.245922712,2.18797414 0.363943486,2.14403184 Z M1.83249094,0.0361726045 C1.9138202,0.0662052227 1.98439444,0.114534113 2.04199286,0.179638489 C1.98730434,0.313213457 1.94801627,0.446644873 1.92555533,0.575087527 L1.92555533,0.575087527 L1.91485006,0.648331881 C1.90062208,0.784884939 1.86107238,0.930994381 1.79880506,1.07703991 C1.75986052,1.16220034 1.71458393,1.24620011 1.66377606,1.32755363 L1.66377606,1.32755363 L1.61896512,1.40375308 C1.56719876,1.49304139 1.51879513,1.58315354 1.49020812,1.66844594 C1.41128127,1.89018447 1.40880471,2.09693917 1.48342812,2.23447161 C1.37643704,2.33617071 1.2640388,2.42283562 1.15028046,2.49134586 C1.03644787,2.13695721 1.08337259,1.85509521 1.32363429,1.43404062 L1.32363429,1.43404062 L1.34936317,1.38820833 C1.51452838,1.08902613 1.58406188,0.863368027 1.6117906,0.710065491 L1.6117906,0.710065491 L1.61922018,0.664057972 L1.6242472,0.62285262 L1.6271588,0.587862787 L1.62816806,0.563871654 L1.62941217,0.555218997 C1.63215422,0.547972678 1.63565156,0.540753953 1.63979628,0.533785545 L1.63979628,0.533785545 L1.67740941,0.459492818 C1.7015275,0.409762595 1.72371223,0.359669212 1.7438514,0.30945455 L1.7438514,0.30945455 L1.76497112,0.254493646 C1.79201983,0.181253244 1.8146052,0.108236757 1.83249094,0.0361726045 Z M2.14551272,0.346801791 L2.15577398,0.373003365 C2.32163169,0.814349544 2.11121497,1.52056498 1.64985921,2.05865978 C1.59743947,1.95966134 1.6005849,1.81128428 1.65845911,1.65298451 C1.69554355,1.56242973 1.74235125,1.47285405 1.79727064,1.38734148 C1.85835423,1.28939007 1.91231375,1.18807438 1.95806363,1.08543264 C2.03148934,0.912640902 2.07855161,0.739806306 2.09626852,0.57787977 L2.09626852,0.57787977 L2.10091639,0.543979823 L2.1062601,0.508887929 C2.11528989,0.455948672 2.1284297,0.401690365 2.14551272,0.346801791 L2.14551272,0.346801791 Z M1.62914565,5.19355736e-05 L1.67216185,0.00191826542 C1.59699713,0.391588131 1.3526623,0.806237952 1.03265411,1.08719854 C0.712645924,1.36815912 0.366502795,1.47193677 0.126679258,1.35882009 L0.126679258,1.35882009 L0.11947105,1.35570353 C0.161079809,1.24504287 0.212617389,1.13462703 0.272913098,1.02696418 C0.449668134,1.09834333 0.696572601,1.02027518 0.925398646,0.820656289 C1.10107813,0.668143963 1.24935775,0.458215927 1.33722997,0.237602873 C1.36486572,0.167963206 1.38607152,0.0984626355 1.40035531,0.0307139183 C1.49575642,0.0051904631 1.58718036,-0.00449514611 1.67216185,0.00191826542 L1.62914565,5.19355736e-05 Z M1.22757243,0.0924601091 C1.18562028,0.277426576 1.07674398,0.470554544 0.93214854,0.616491646 C0.787553097,0.762428747 0.623201138,0.845064241 0.486197546,0.840713988 L0.486197546,0.840713988 L0.463218358,0.839118858 C0.440603589,0.836697074 0.419103752,0.831799364 0.398913999,0.824462065 C0.629690514,0.489126586 0.928959758,0.224764739 1.22757243,0.0924601091 Z" id="形状结合"></path>
                                                </g>
                                                <path d="M8.52803413,16.4964683 C8.60994096,16.4504232 8.68482783,16.4432765 8.73919291,16.4738385 C8.79355798,16.5044007 8.82464501,16.5711222 8.82464501,16.6632125 L8.82464501,16.6632125 L8.82464501,19.7720207 C8.82464501,19.8713954 8.78849598,19.9813898 8.73060518,20.0790224 C8.67271438,20.1766548 8.59295774,20.2621346 8.50457204,20.3118219 C8.42266519,20.357867 8.34777832,20.3650137 8.29341326,20.3344517 C8.23904818,20.3038895 8.20796115,20.237168 8.20796115,20.1450777 L8.20796115,20.1450777 L8.20796115,17.0362695 C8.20796115,16.8375201 8.35126269,16.5958429 8.52803413,16.4964683 Z" id="矩形" stroke="#3F3F3F" stroke-width="0.1" fill="#D8D8D8"></path>
                                                <path d="M8.51630308,19.834197 C8.63846994,19.765519 8.73750575,19.5984957 8.73750575,19.4611399 C8.73750575,19.3237842 8.63846994,19.2681097 8.51630308,19.3367875 C8.39413622,19.4054655 8.2951004,19.5724888 8.2951004,19.7098446 C8.2951004,19.8472003 8.39413622,19.9028748 8.51630308,19.834197 Z" id="椭圆形" fill="#3F4143"></path>
                                            </g>
                                            <polygon id="顶视图" fill="#F1F1F1" points="3.41964755 5.59585492 13.373768 0 18.4614296 2.86010363 8.50730912 8.45595856"></polygon>
                                            <g id="左边枪把" transform="translate(3.629184, 23.263217)">
                                                <polygon id="矩形备份-262" fill="#CCCFD1" points="0.0782859554 0.568580442 1.079177 0 1.079177 3.20943305 0.0782859554 3.84749992"></polygon>
                                                <polygon id="矩形" fill="#DBDDDF" transform="translate(2.135010, 1.138943) scale(-1, 1) translate(-2.135010, -1.138943) " points="0.0782858048 1.7093053 3.19084368 0 4.19173473 0.568580442 1.07917685 2.27788574"></polygon>
                                                <g id="编组-106" transform="translate(0.000000, 0.466821)">
                                                    <path d="M1.82623651,10.8529289 L1.84979192,10.8542418 C1.90000083,10.8592423 1.95487781,10.8782973 2.01253837,10.9117678 C2.26089715,11.0559336 2.46191977,11.4066388 2.46191977,11.6948737 C2.46191977,11.8264337 2.41979398,11.9224622 2.3443424,11.9662599 C2.30815824,11.9872638 2.2648734,11.9955112 2.21696982,11.9907403 C2.16676091,11.9857398 2.11188393,11.9666848 2.05422337,11.9332143 C1.80586459,11.7890485 1.60484197,11.4383432 1.60484197,11.1501084 C1.60484197,11.0185483 1.64696776,10.9225199 1.72241934,10.8787222 C1.7586035,10.8577183 1.80188834,10.8494709 1.84979192,10.8542418 L1.82623651,10.8529289 Z" id="椭圆形备份-171" stroke="#86878D" stroke-width="0.5" fill="#6C727C"></path>
                                                    <g id="枪芯" transform="translate(1.798760, 3.350597) scale(-1, 1) translate(-1.798760, -3.350597) translate(0.938483, 2.284498)">
                                                        <path d="M1.06893636,1.98336365 C0.676401411,2.23936504 0.27519737,2.15549823 0.0968844635,1.80566565 C0.294404581,1.9139867 0.559010755,1.88957399 0.814629704,1.72225553 C1.27794899,1.42178812 1.55766643,0.766630501 1.43924184,0.259277772 C1.42333525,0.19023296 1.40321341,0.126211855 1.36949143,0.0670483815 C1.5263702,0.141199934 1.64431759,0.298803122 1.6934292,0.520385898 C1.81173449,1.02798774 1.53201705,1.68310384 1.06893636,1.98336365" id="Fill-31" fill="#86878D"></path>
                                                        <path d="M0.09690037,1.80566979 C0.0683082692,1.75128091 0.0434939841,1.68730133 0.0271101934,1.6134404 C-0.0911553251,1.10604616 0.188522345,0.450930057 0.651722332,0.150421133 C0.911596295,-0.0216719172 1.17198722,-0.0413100384 1.36946757,0.0670525334 C1.40322932,0.126216006 1.42335116,0.190237112 1.43925775,0.259281923 C1.55764257,0.766634653 1.27792513,1.42175075 0.81464561,1.72225968 C0.559026662,1.88957813 0.294380721,1.91399086 0.09690037,1.80566979 Z" id="Fill-33" fill="#5B5B5B"></path>
                                                        <path d="M0.858838102,1.35021485 C0.851441537,1.31679268 0.833626152,1.29300273 0.809965096,1.28183433 C0.78018,1.26547615 0.740930482,1.26846546 0.70172073,1.29441435 C0.631851022,1.33975225 0.589658783,1.43856563 0.607513933,1.51508373 C0.609979456,1.52621061 0.613717505,1.53588436 0.618012285,1.54406345 C0.644934193,1.59687463 0.705419014,1.6095377 0.764631305,1.57088422 C0.834501016,1.52558784 0.876693253,1.42677446 0.858838102,1.35021485" id="Fill-37" fill="#86878D"></path>
                                                        <path d="M1.40248171,0.573666239 C1.39508514,0.540244067 1.37726976,0.516454123 1.3536087,0.50528572 C1.3238236,0.488927539 1.28457409,0.49191685 1.24536433,0.517865742 C1.17549463,0.563203647 1.13330239,0.662017026 1.15111777,0.738576636 C1.15362306,0.749662002 1.15736111,0.75933575 1.16165589,0.767556358 C1.1885778,0.820326025 1.24906262,0.832989084 1.30827491,0.794335615 C1.37814462,0.749039228 1.42033686,0.650225849 1.40248171,0.573666239" id="Fill-39" fill="#86878D"></path>
                                                        <path d="M0.35236423,0.971082858 C0.344967663,0.937660684 0.32715228,0.913870741 0.303491223,0.902702338 C0.273706127,0.886344156 0.234456609,0.889333469 0.195246858,0.915282361 C0.125377148,0.960620264 0.0831849102,1.05943364 0.101040061,1.13595174 C0.103505583,1.14707862 0.107243632,1.15675237 0.111538412,1.16493146 C0.138460321,1.21774264 0.19894514,1.2304057 0.258157433,1.19175223 C0.328027142,1.14645585 0.37021938,1.04764247 0.35236423,0.971082858" id="Fill-41" fill="#86878D"></path>
                                                        <path d="M0.901746136,0.801015897 C0.894349571,0.767593725 0.876534188,0.74380378 0.85287313,0.732635377 C0.823088035,0.716277195 0.783838516,0.719266509 0.744628764,0.7452154 C0.674759056,0.790553303 0.632566817,0.889366683 0.650421969,0.965884775 C0.65288749,0.977011661 0.65662554,0.986685406 0.660920319,0.994864498 C0.687842228,1.04767568 0.748327048,1.06033874 0.807539339,1.02168527 C0.87740905,0.976388887 0.919601287,0.877575507 0.901746136,0.801015897" id="Fill-43" fill="#86878D"></path>
                                                        <path d="M0.858917636,0.251775428 C0.851521069,0.218353256 0.833705685,0.194563311 0.810044629,0.183394908 C0.780259533,0.167036728 0.741010016,0.170026039 0.701800264,0.195974931 C0.631930553,0.241312834 0.589738316,0.340126213 0.607593467,0.416644305 C0.610058988,0.427771191 0.613797038,0.437444937 0.618091818,0.445624028 C0.645013726,0.498435212 0.705498547,0.511098271 0.764710839,0.472444802 C0.834580547,0.427148417 0.876772786,0.328335038 0.858917636,0.251775428" id="Fill-35" fill="#86878D"></path>
                                                    </g>
                                                    <polygon id="路径-34" fill="#92979C" points="3.05718468 5.19342592 3.14228335 5.1748021 3.19084383 5.07374463 3.09179362 5.07374463"></polygon>
                                                    <path d="M0.323676794,0.0337502574 L2.9297326,1.45771086 C3.07394035,1.53650663 3.19084383,1.72813639 3.19084383,1.88572791 L3.19084383,5.08998464 C3.19084383,5.16878039 3.13239209,5.20071868 3.06028822,5.16132081 L2.66946412,4.94777277 L2.66946412,2.61788035 C2.66946412,2.46028882 2.55256065,2.26865907 2.40835288,2.1898633 L2.40835288,2.1898633 L0.845056505,1.33567113 C0.700848755,1.25687537 0.583945275,1.32075195 0.583945275,1.47834348 L0.583945275,1.47834348 L0.583945275,3.8082359 L1.6267047,4.37801236 L0.19312118,3.59468786 C0.121017305,3.55528998 0.0625655653,3.45947509 0.0625655653,3.38067932 L0.0625655653,0.176422607 C0.0625655653,0.0188310813 0.179469044,-0.0450455052 0.323676794,0.0337502574 Z" id="形状结合备份-56" fill="#82878D"></path>
                                                    <path d="M0.261111229,0.0489802455 L2.86716704,1.47294085 C3.01137479,1.55173662 3.12827826,1.74336638 3.12827826,1.9009579 L3.12827826,5.10521463 C3.12827826,5.15016112 3.10925944,5.17986132 3.07953664,5.18977193 C3.05715235,5.19723562 3.02869719,5.19342593 2.99772265,5.17655079 L2.60689856,4.96300275 L2.60689856,2.63311033 C2.60689856,2.47551881 2.48999508,2.28388905 2.34578732,2.20509328 L2.34578732,2.20509328 L0.78249094,1.35090112 C0.63828319,1.27210536 0.52137971,1.33598194 0.52137971,1.49357347 L0.52137971,1.49357347 L0.52137971,3.82346588 L1.56413913,4.39324235 L0.130555614,3.60991784 C0.0584517397,3.57051997 0,3.47470508 0,3.39590931 L0,0.191652595 C0,0.0340610693 0.116903479,-0.0298155172 0.261111229,0.0489802455 Z" id="形状结合备份-57" fill="#979B9E"></path>
                                                    <g id="右" transform="translate(3.190844, 1.242485)" fill="#C8CBCC">
                                                        <polygon id="矩形" points="0 0.568580442 1.43667897 0 1.43667897 3.20943305 8.16786363e-13 3.84749992"></polygon>
                                                    </g>
                                                    <polygon id="路径-33" fill="#92979C" points="0.52137971 3.82346588 0.583945275 3.8082359 0.583945275 3.63673877 0.52137971 3.63673877"></polygon>
                                                </g>
                                            </g>
                                        </g>
                                    </g>
                                </g>
                            </g>
                        </g>
                    </g>
                </g>
            </g>
        </g>
    </g>
</svg>