<?xml version="1.0" encoding="UTF-8"?>
<svg width="20px" height="20px" viewBox="0 0 20 20" version="1.1" xmlns="http://www.w3.org/2000/svg" xmlns:xlink="http://www.w3.org/1999/xlink">
    <title>切片</title>
    <g id="光储充及工商储管理系统V1.3" stroke="none" stroke-width="1" fill="none" fill-rule="evenodd">
        <g id="3_2_8.设备监视_示范站站点拓扑_通信拓扑" transform="translate(-967.000000, -705.000000)" fill-rule="nonzero">
            <g id="main" transform="translate(212.000000, 102.000000)">
                <g transform="translate(60.000000, 40.000000)" id="3">
                    <g transform="translate(0.000000, 245.000000)">
                        <g id="2" transform="translate(359.000000, 275.000000)">
                            <g id="1" transform="translate(24.000000, 43.000000)">
                                <g id="编组3" transform="translate(243.000000, 0.000000)">
                                    <g id="icon_设备离线" transform="translate(69.000000, 0.000000)">
                                        <rect id="矩形" fill="#000000" opacity="0" x="0" y="0" width="20" height="20"></rect>
                                        <path d="M1,10 C1,13.2153903 2.71539025,16.1865336 5.5,17.7942287 C8.28460967,19.4019239 11.7153903,19.4019239 14.5,17.7942287 C17.2846097,16.1865336 19,13.2153903 19,10 C19,5.02943725 14.9705627,1 10,1 C5.02943725,1 1,5.02943725 1,10 Z" id="路径" fill="#FFECE8"></path>
                                        <path d="M10.0240725,11.1554388 C9.4100527,11.1554388 8.7960329,11.3846995 8.41326731,11.7694586 C8.25976236,11.9229636 8.03050172,11.9229636 7.87699677,11.7694586 C7.64773613,11.6159537 7.72349182,11.3089438 7.87699677,11.0796831 C8.25976236,10.7726732 8.79802647,10.5434126 9.33429701,10.3899077 L10.0240725,11.1554388 L10.0240725,11.1554388 Z M7.41448835,8.62360395 C6.87821781,8.85286459 6.41770296,9.15987449 6.0329438,9.54463365 C5.87943885,9.6981386 5.87943885,10.0051485 6.0329438,10.1586534 C6.18644875,10.3121584 6.49345865,10.3121584 6.56921434,10.1586534 C7.02972919,9.77588786 7.49024404,9.46887796 8.02651458,9.23762375 L7.41448835,8.62360395 Z M5.49667326,6.70578886 C5.03615841,7.01279876 4.49988787,7.39556435 4.11512871,7.8560792 C3.96162376,8.00958415 3.96162376,8.31659405 4.11512871,8.470099 C4.26863366,8.62360395 4.4978943,8.62360395 4.65139925,8.470099 C5.1119141,8.00958415 5.57242895,7.62681856 6.10869949,7.31980866 L5.49667326,6.70578886 L5.49667326,6.70578886 Z M15.855267,7.8560792 C14.3202175,6.3210297 12.2488975,5.4 10.0240725,5.4 C9.1030428,5.4 8.25976236,5.55350495 7.49223761,5.78276559 L8.1820131,6.47254108 C8.71828364,6.31903613 9.33230344,6.24328044 10.0240725,6.24328044 C12.0953925,6.24328044 13.9374519,7.08656088 15.3170029,8.39234974 C15.4705079,8.62161038 15.6997685,8.62161038 15.8532735,8.39234974 C16.008772,8.31659405 16.0845277,8.00958415 15.855267,7.8560792 L15.855267,7.8560792 Z M10.0240725,8.00958415 L9.7170626,8.00958415 L10.6380923,8.93061385 C11.6348777,9.00636954 12.6336566,9.46688439 13.3234321,10.1586534 C13.4769371,10.3121584 13.7061977,10.3121584 13.8597027,10.1586534 C14.0889633,10.0051485 14.0889633,9.6981386 13.8597027,9.54463365 C12.8629173,8.62360395 11.4813727,8.00958415 10.0240725,8.00958415 Z M10.0240725,12.919749 C9.56355765,12.919749 9.18079206,13.3025146 9.18079206,13.7630294 C9.18079206,14.2235443 9.56355765,14.6063099 10.0240725,14.6063099 C10.4845873,14.6063099 10.8673529,14.2235443 10.8673529,13.7630294 C10.8673529,13.2267589 10.4845873,12.919749 10.0240725,12.919749 Z M12.3266467,11.4624487 L11.559122,10.694924 L9.7170626,8.85286459 L8.94953785,8.08533984 L6.87821781,6.0140198 L6.41770296,5.55350495 C6.18844232,5.4 5.95718811,5.4 5.80368316,5.55350495 C5.65017821,5.7070099 5.65017821,6.0140198 5.80368316,6.16752475 L12.0953925,12.4592341 C12.2488975,12.6127391 12.5559074,12.6127391 12.7094123,12.4592341 C12.8629173,12.3057292 12.8629173,11.9987193 12.7094123,11.8452143 L12.3266467,11.4624487 L12.3266467,11.4624487 Z" id="形状" fill="#F53F3F"></path>
                                    </g>
                                </g>
                            </g>
                        </g>
                    </g>
                </g>
            </g>
        </g>
    </g>
</svg>