<?xml version="1.0" encoding="UTF-8"?>
<svg width="48px" height="48px" viewBox="0 0 48 48" version="1.1" xmlns="http://www.w3.org/2000/svg" xmlns:xlink="http://www.w3.org/1999/xlink">
    <title>iocn_华为充电终端</title>
    <defs>
        <linearGradient x1="50%" y1="-1.55512473e-13%" x2="35.8107156%" y2="79.0535053%" id="linearGradient-1">
            <stop stop-color="#B4B4B4" offset="0%"></stop>
            <stop stop-color="#D3D8DB" offset="16.5865385%"></stop>
            <stop stop-color="#A6A8AA" offset="34.5461431%"></stop>
            <stop stop-color="#B2B5B6" offset="100%"></stop>
        </linearGradient>
    </defs>
    <g id="光储充及工商储管理系统V1.3" stroke="none" stroke-width="1" fill="none" fill-rule="evenodd">
        <g id="3_2_8.设备监视_示范站站点拓扑_通信拓扑" transform="translate(-674.000000, -809.000000)">
            <g id="main" transform="translate(212.000000, 102.000000)">
                <g transform="translate(60.000000, 40.000000)" id="3">
                    <g transform="translate(0.000000, 245.000000)">
                        <g id="2" transform="translate(359.000000, 275.000000)">
                            <g transform="translate(23.000000, 147.000000)" id="编组-1">
                                <g id="iocn_华为充电终端" transform="translate(20.000000, 0.000000)">
                                    <rect id="BG" x="0" y="0" width="48" height="48"></rect>
                                    <g id="华为充电终端" transform="translate(17.000000, 0.000000)" fill-rule="nonzero">
                                        <polygon id="矩形备份-195" fill="#61686C" transform="translate(4.471485, 45.596426) scale(-1, 1) translate(-4.471485, -45.596426) " points="1.95010794 46.0771411 6.9928611 43.1928527 6.9928611 45.1157116 1.95010794 48"></polygon>
                                        <path d="M1.40076477,3.39429285 L7.00382385,0.189528031 C7.77744486,-0.252957652 8.40458861,0.105747868 8.40458861,0.990719236 L8.40458861,37.5250383 C8.40458861,38.4100096 7.77744486,39.4861261 7.00382385,39.9286117 L1.40076477,43.1333766 C0.62714375,43.5758623 0,43.2171568 0,42.3321854 L0,5.79786646 C0,4.91289509 0.62714375,3.83677854 1.40076477,3.39429285 Z" id="矩形" fill="#7AA2B9"></path>
                                        <path d="M8.00032423,0.0958065398 L13.5633033,3.04752752 L14,40.4688027 L6.31760114,46.2666691 L0.474145353,43.2627009 C0.183382795,43.1353951 0,42.8107328 0,42.3321854 L0,5.79786646 L0.000396196106,5.76663832 L0,5.73272979 C0.0310695798,4.86012268 0.646251773,3.82584939 1.40076477,3.39429285 L7.00382385,0.189528031 C7.39370069,-0.0334686529 7.74637532,-0.0529793371 8.00032423,0.0958065398 Z" id="形状结合备份-55" fill="url(#linearGradient-1)"></path>
                                        <path d="M2.50800541,39.6 L2.53290851,39.6014114 C2.58599007,39.6067869 2.64400678,39.6272711 2.70496633,39.6632518 C2.96753471,39.8182301 3.18005862,40.1952382 3.18005862,40.5050907 C3.18005862,40.6465177 3.13552265,40.7497483 3.05575418,40.7968308 C3.01749979,40.8194101 2.97173845,40.828276 2.92109412,40.8231473 C2.86801256,40.8177718 2.80999585,40.7972876 2.74903629,40.7613069 C2.48646792,40.6063286 2.27394401,40.2293204 2.27394401,39.919468 C2.27394401,39.7780409 2.31847998,39.6748104 2.39824845,39.6277278 C2.43650284,39.6051486 2.48226418,39.5962827 2.53290851,39.6014114 L2.50800541,39.6 Z" id="椭圆形备份-171" stroke="#86878D" stroke-width="0.2" fill="#6C727C"></path>
                                        <g transform="translate(1.169514, 2.766599)">
                                            <g id="侧边元素" transform="translate(1.230974, 18.492177) scale(-1, 1) translate(-1.230974, -18.492177) translate(0.000000, 10.362288)">
                                                <g id="按钮" transform="translate(0.530591, 14.467262)">
                                                    <path d="M0.700382384,0.0953748097 C0.310277632,0.318501848 0,0.850907536 0,1.29716162 C0,1.40241168 0.0175164378,1.49543271 0.0530385401,1.57321667 C0.0876295454,1.64896176 0.138970306,1.70851231 0.205137253,1.74635762 C0.271304192,1.78420292 0.349032248,1.79847548 0.432542325,1.7902803 C0.518300268,1.78186453 0.60837527,1.75038225 0.700382384,1.69775722 C1.09048714,1.47463018 1.40076477,0.942224492 1.40076477,0.495970413 C1.40076477,0.39072035 1.38324833,0.29769932 1.34772623,0.219915365 C1.31313522,0.144170264 1.26179446,0.084619722 1.19562752,0.0467744131 C1.05874331,-0.0315188343 0.882839013,-0.00898435971 0.700382384,0.0953748097 Z M1.09657849,0.216732733 C1.12497067,0.232972123 1.14897625,0.260816383 1.16724006,0.300809261 C1.19028507,0.351271706 1.20266671,0.417024417 1.20266671,0.495970413 C1.20266671,0.872110775 0.930146358,1.33972872 0.601333358,1.5277989 C0.532320637,1.5672719 0.468650351,1.58952542 0.41301477,1.59498516 C0.368922041,1.59931216 0.332578457,1.59263868 0.304186281,1.5763993 C0.275794098,1.5601599 0.251788516,1.53231565 0.233524709,1.49232277 C0.210479697,1.44186032 0.198098053,1.37610761 0.198098053,1.29716162 C0.198098053,0.921021252 0.470618409,0.453403311 0.799431411,0.26533313 C0.915989094,0.198665982 1.01344578,0.181869872 1.07938563,0.208421534 L1.09657849,0.216732733 Z" id="椭圆形" fill="#38373E"></path>
                                                    <path d="M0.323577017,1.11368731 C0.323577017,1.35705551 0.496041226,1.4556995 0.708787949,1.3340154 C0.912668904,1.21740222 1.07955568,0.94075881 1.09310895,0.703710528 L1.09399764,0.673032142 C1.09399764,0.429665514 0.921533293,0.331021758 0.708787949,0.452705073 C0.496042603,0.574388387 0.323577017,0.870320675 0.323577017,1.11368731 Z" id="路径" fill="#DA4648"></path>
                                                </g>
                                                <g id="编组-99" stroke-width="0.2">
                                                    <path d="M1.24583094,0.16668841 C1.58165216,-0.0253902442 1.88661103,-0.0471663738 2.10755746,0.0792076965 C2.21875232,0.142807478 2.30802647,0.243724112 2.36911957,0.377501743 C2.42913631,0.50892242 2.46194717,0.671748119 2.46194717,0.862266746 L2.46194717,0.862266746 L2.46194717,7.59227287 C2.46194717,7.98581672 2.3220929,8.42171682 2.09668113,8.80850109 C1.87126936,9.19528536 1.56014294,9.53322346 1.21611623,9.72999537 C1.04956936,9.82525469 0.890825557,9.87851745 0.745932346,9.8927364 C0.598440556,9.90721036 0.465584545,9.88107586 0.354389697,9.81747608 C0.133443257,9.69110202 0,9.41857435 0,9.03441704 L0,9.03441704 L0,2.30441091 C0,1.51732322 0.557777509,0.560232256 1.24583094,0.16668841 Z" id="矩形" stroke="#8F9495" fill="#C4C6C8"></path>
                                                    <path d="M1.2804981,7.27665642 C1.47155695,7.16737707 1.64762765,7.14505806 1.77574323,7.21833595 C1.83643269,7.25304831 1.8842983,7.30877558 1.91754311,7.38157287 C1.95354821,7.46041448 1.97238341,7.55823416 1.97238341,7.67239199 C1.97238341,7.92223917 1.88248878,8.19858675 1.73948877,8.44396061 C1.59648876,8.68933446 1.39985956,8.90463341 1.18144907,9.029557 C0.990390215,9.13883636 0.814319518,9.16115536 0.686203937,9.08787747 C0.625514472,9.05316511 0.577648868,8.99743784 0.544404054,8.92464055 C0.508398953,8.84579896 0.489563748,8.74797927 0.489563748,8.63382144 C0.489563748,8.38397426 0.579458387,8.10762667 0.722458396,7.86225281 C0.865458408,7.61687896 1.06208761,7.40158001 1.2804981,7.27665642 Z" id="矩形备份-196" stroke="#767F84" fill="#3C3C3C"></path>
                                                </g>
                                            </g>
                                            <g id="主体" transform="translate(0.003269, 0.000000)">
                                                <path d="M11.6361287,0.00447722471 C11.4673875,0.0210364833 11.2863485,0.0831947951 11.1004486,0.189523392 L5.49738956,3.39428821 L5.44618625,3.42462445 C4.69330304,3.88628145 4.09662479,4.93366985 4.09662479,5.79786182 L4.09662479,42.3321808 L4.09797652,42.4023373 C4.10518937,42.5864102 4.14070166,42.748527 4.20270187,42.884291 C4.27300813,43.0382429 4.37653321,43.1560076 4.5068993,43.2305727 C4.7692855,43.3806491 5.12254988,43.347768 5.49738956,43.133372 L11.1004486,39.9286071 L11.1516519,39.8982708 C11.9045351,39.4366139 12.5012134,38.3892255 12.5012134,37.5250336 L12.5012134,0.990714596 L12.4998617,0.9205581 C12.4926488,0.73648523 12.4571365,0.574368422 12.3951363,0.438604498 C12.32483,0.284652483 12.2213049,0.166887671 12.0909389,0.0923225998 C11.9605728,0.0177575214 11.8058631,-0.0121794874 11.6361287,0.00447722471 Z M12.0612242,0.143310096 C12.1804547,0.211506041 12.2756507,0.319796095 12.3409905,0.46287267 C12.3996649,0.591353962 12.4335492,0.746039144 12.4404601,0.92226496 L12.4417894,0.991278655 L12.4417894,37.5250336 C12.4417894,38.3687102 11.8558606,39.3972199 11.1207601,39.8479766 L11.0703384,39.8778499 L5.46767485,43.0823845 C5.10974302,43.2871097 4.77850754,43.3179404 4.53661401,43.1795852 C4.41738339,43.1113893 4.32218741,43.0030993 4.25684772,42.8600228 C4.19817332,42.7315415 4.16428895,42.5768563 4.15737808,42.4006304 L4.15604875,42.3316167 L4.15604875,5.79786182 C4.15604875,4.95418513 4.74197758,3.92567547 5.47707804,3.47491868 L5.5274998,3.44504542 L11.1301633,0.240510888 C11.309095,0.13816787 11.4821483,0.0787513835 11.641987,0.063065768 C11.7822039,0.0493057213 11.9101886,0.0695276851 12.020638,0.122087527 L12.0612242,0.143310096 Z" id="矩形备份-205" fill="#646667"></path>
                                                <path d="M5.82339273,3.57145787 L11.4264518,0.366693048 C12.2000728,-0.0757926369 12.8272166,0.282912883 12.8272166,1.16788425 L12.8272166,37.7022031 C12.8272166,38.5871747 12.2000728,39.6632911 11.4264518,40.1057768 L5.82339273,43.3105417 C5.04977171,43.7530274 4.42262796,43.3943218 4.42262796,42.5093505 L4.42262796,5.97503148 C4.42262796,5.09006011 5.04977171,4.01394354 5.82339273,3.57145787 Z" id="矩形备份-202" fill="#858E93"></path>
                                                <polygon id="矩形" fill="#80888C" points="5.82339273 43.3105417 11.4264518 40.1057768 11.4264518 42.0286357 5.82339273 45.2334006"></polygon>
                                                <line x1="0" y1="43.5000697" x2="5.14481769" y2="43.5000697" id="路径-23" fill="#D8D8D8"></line>
                                            </g>
                                        </g>
                                        <g id="编组-98" transform="translate(6.794763, 3.584717)">
                                            <path d="M1.40076477,2.11238693 L4.76260022,0.189528031 C5.53622123,-0.252957653 6.16336498,0.105747867 6.16336498,0.990719236 L6.16336498,37.5250383 C6.16336498,38.4100096 5.53622123,39.4861261 4.76260022,39.9286117 L1.40076477,41.8514706 C0.627143748,42.2939563 0,41.9352508 0,41.0502794 L0,4.51596054 C0,3.63098917 0.627143748,2.55487261 1.40076477,2.11238693 Z" id="矩形备份-193" fill="#6B7885"></path>
                                            <path d="M1.59886282,2.11238693 L4.96069827,0.189528031 C5.73431929,-0.252957653 6.36146304,0.105747867 6.36146304,0.990719236 L6.36146304,37.5250383 C6.36146304,38.4100096 5.73431929,39.4861261 4.96069827,39.9286117 L1.59886282,41.8514706 C0.825241801,42.2939563 0.198098053,41.9352508 0.198098053,41.0502794 L0.198098053,4.51596054 C0.198098053,3.63098917 0.825241801,2.55487261 1.59886282,2.11238693 Z" id="矩形备份-203" fill="#DEDEDE"></path>
                                            <g id="LOGO" transform="translate(1.738939, 4.788206)">
                                                <path d="M2.13008937,0.00491827935 C1.94349646,0.0232293843 1.74462436,0.0919118487 1.54084125,0.208469051 C0.686563889,0.697087499 0,1.87516314 0,2.85240003 C0,3.31959632 0.159029214,3.67346086 0.451301955,3.84063122 C0.743574696,4.00780158 1.13242931,3.9673085 1.54084125,3.73371036 C2.39511861,3.24509191 3.08168249,2.06701627 3.08168249,1.08977938 C3.08168249,0.622583088 2.92265328,0.268718552 2.63038054,0.101548192 C2.4863758,0.0191822304 2.31584101,-0.0133102849 2.13008937,0.00491827935 Z M2.53133151,0.271506511 C2.75436482,0.399074198 2.88358444,0.686607803 2.88358444,1.08977938 C2.88358444,1.99690256 2.23477783,3.11019045 1.44179222,3.56375204 C1.08934917,3.76533783 0.773384284,3.79824059 0.550350982,3.6706729 C0.32731768,3.54310521 0.198098053,3.25557161 0.198098053,2.85240003 C0.198098053,1.94527685 0.846904667,0.831988961 1.63989027,0.378427373 C1.82052499,0.275110286 1.99284409,0.215598166 2.14961693,0.200213423 C2.27935415,0.187481781 2.39574897,0.205497634 2.49494621,0.252517783 L2.53133151,0.271506511 Z" id="椭圆形" fill="#595D69"></path>
                                                <path d="M1.54084125,3.41323387 C2.23710016,3.01499676 2.80152953,2.04649186 2.80152953,1.25001762 C2.80152953,0.45354339 2.23710016,0.130708416 1.54084125,0.528945542 C0.844582336,0.927182649 0.280152963,1.89568755 0.280152963,2.69216179 C0.280152963,3.48863602 0.844582336,3.811471 1.54084125,3.41323387 Z" id="椭圆形备份-170" fill="#C92128"></path>
                                                <g transform="translate(0.427120, 0.867076)" fill="#FFFFFF" id="形状">
                                                    <path d="M0.558808891,1.2786838 L0.560258385,1.28026505 C0.561033502,1.28265123 0.559996938,1.28653697 0.55921362,1.28886716 L0.558486693,1.29081389 L0.355863175,1.76265302 L0.352578207,1.77321524 L0.352578207,1.77321524 L0.351212482,1.78345204 L0.351212482,2.04187326 C0.351204882,2.04556913 0.349879157,2.04983109 0.347906991,2.05312105 L0.344547871,2.05713472 L0.215020521,2.15871802 C0.21256668,2.16064247 0.210422577,2.16032726 0.209265825,2.15826122 L0.208355912,2.15391015 L0.208355912,1.89548894 L0.206971351,1.88740564 L0.206971351,1.88740564 L0.203670614,1.88201177 L0.00133110003,1.72639288 C0.000545731613,1.72529295 -0.000503135051,1.72304273 0.000271980502,1.71944076 L0.00172147441,1.71558594 L0.00172147441,1.71558594 L0.00391225542,1.71274078 L0.109874708,1.62934675 L0.1159574,1.62666072 L0.1159574,1.62666072 L0.121224615,1.62756246 L0.276123159,1.73985893 C0.277106831,1.74047574 0.278351921,1.74039475 0.279687306,1.73962708 L0.28224554,1.73708661 L0.28224554,1.73708661 L0.28444873,1.73332951 L0.439326514,1.37808743 L0.444595838,1.36892991 L0.444595838,1.36892991 L0.450676421,1.36206913 L0.556618111,1.27927492 L0.558808891,1.2786838 Z M0.88270339,1.24825592 L0.883196657,1.24905712 L0.882820672,1.25159176 L0.872118195,1.29189671 L0.859116021,1.33193851 L0.859116021,1.33193851 L0.843938794,1.37133333 L0.830524741,1.40593259 C0.789097839,1.51847338 0.7803785,1.60434209 0.799613729,1.70041061 C0.778743953,1.71262689 0.758402717,1.71976063 0.739262653,1.72157592 C0.733081289,1.69374516 0.72741044,1.6579001 0.73408852,1.62016076 C0.742739668,1.57087101 0.742463716,1.54050711 0.733081289,1.52472239 C0.726596378,1.5139364 0.716477706,1.51085984 0.702290815,1.51544521 L0.690881068,1.5203201 L0.671101413,1.52863206 C0.65814411,1.53285883 0.645686861,1.53445121 0.633980405,1.53337714 L0.617015158,1.52976219 L0.614296946,1.52879855 L0.615289441,1.49476264 L0.618286066,1.46156164 L0.618286066,1.46156164 L0.62326551,1.42735433 L0.64072913,1.4339193 C0.676459026,1.44315417 0.719013106,1.43001335 0.762815301,1.39576392 C0.796249459,1.36974681 0.829120636,1.33228094 0.859353761,1.28575487 L0.881501545,1.24919884 L0.88270339,1.24825592 Z M0.697395209,1.57427973 L0.702595302,1.57671874 C0.704201353,1.57941467 0.70600609,1.58731299 0.703085618,1.61061474 L0.69993235,1.6311386 L0.696940408,1.65394481 C0.694712594,1.67633887 0.694780394,1.69739707 0.697172812,1.71622492 C0.658051096,1.70131919 0.630647193,1.65819719 0.619636718,1.59421633 C0.639863756,1.59538196 0.661841299,1.58995669 0.684658311,1.57816541 L0.691314694,1.57477014 L0.691314694,1.57477014 L0.697395209,1.57427973 Z M0.968573286,1.00619644 C0.984296713,1.01450081 0.997940862,1.0277729 1.00907639,1.04559508 C1.00202775,1.06979762 0.996302393,1.09399316 0.991982036,1.11779127 L0.986565469,1.15314155 L0.981522755,1.2013999 C0.977647531,1.23012136 0.971089408,1.25991757 0.96206078,1.28968462 L0.949868248,1.32409872 L0.949868248,1.32409872 L0.935955557,1.35772156 L0.916963043,1.40440581 C0.911088678,1.41997278 0.905952491,1.43541139 0.902399587,1.45031982 C0.887140621,1.51060324 0.886661826,1.56692085 0.901088807,1.60449873 C0.880404169,1.63204007 0.858674165,1.6554778 0.836681211,1.67396801 C0.817424817,1.58934642 0.821963499,1.52003764 0.854516861,1.42743788 L0.870195789,1.38621374 L0.884753974,1.34848927 C0.906810729,1.28806161 0.918168126,1.23985867 0.923852432,1.20376611 L0.926622455,1.18356291 L0.929311972,1.14728033 L0.942017951,1.11112585 L0.951436562,1.08050592 L0.961036209,1.04320059 L0.968573286,1.00619644 Z M1.02908994,1.0912884 L1.03486664,1.11465523 C1.05948674,1.23563527 1.01855689,1.41735968 0.933265009,1.55685869 C0.923130673,1.52981139 0.923738783,1.48939725 0.934927631,1.44636306 L0.947052865,1.40976157 L0.947052865,1.40976157 L0.961764128,1.37421052 L0.973106577,1.34733191 C0.980351776,1.32923412 0.98695375,1.31080623 0.992850313,1.29221226 C1.00231393,1.26090671 1.00951228,1.2295782 1.01427455,1.19910929 L1.01956953,1.15416094 L1.02150121,1.13538225 C1.02324694,1.12097493 1.02578727,1.10621452 1.02908994,1.0912884 Z M0.920749754,0.996202505 L0.937576786,0.996622302 C0.923045155,1.10265705 0.875807788,1.21524008 0.813940453,1.29129056 C0.752073118,1.36734104 0.685153105,1.39508608 0.63739434,1.36304892 C0.645438581,1.33296728 0.655402367,1.30296738 0.667059364,1.2737307 C0.701231499,1.29344278 0.748965655,1.27255076 0.793204703,1.21852009 C0.8271689,1.177241 0.85583587,1.12027996 0.872824247,1.06031668 C0.87816708,1.04138826 0.882266808,1.02248798 0.885028301,1.00405443 L0.903198287,0.998684873 L0.903198287,0.998684873 L0.920749754,0.996202505 Z M1.54494142,0.508907153 L1.54586208,0.513306596 L1.54586208,0.591812459 L1.54494262,0.597650684 L1.54252674,0.603185308 L1.54252674,0.603185308 L1.53912827,0.607242816 L1.40153833,0.715149289 L1.40153833,1.2181641 C1.40152311,1.22215479 1.40008793,1.22675202 1.39795836,1.23029452 L1.3943339,1.23460958 L1.26480656,1.33619289 C1.26216399,1.33826535 1.25985302,1.33793233 1.25859923,1.33571701 L1.25760213,1.3310477 L1.25760213,0.82803289 L1.1200122,0.935939363 C1.11753138,0.937881143 1.11536243,0.93756283 1.11419212,0.935474746 L1.11327146,0.931076579 L1.11327146,0.852570716 C1.11327146,0.848835439 1.11461346,0.844517255 1.11661072,0.841188781 L1.1200122,0.83713493 L1.53912134,0.508443812 C1.54160216,0.506498201 1.5437711,0.506817791 1.54494142,0.508907153 Z M0.851624103,1.0206126 C0.843513476,1.07093511 0.822464369,1.12337943 0.794509665,1.1629145 C0.7721459,1.19454255 0.747337631,1.21511542 0.724747547,1.22136637 L0.708293746,1.22331819 L0.699552293,1.22193097 L0.691419179,1.21875876 C0.73603531,1.12776093 0.793893176,1.05620063 0.851624103,1.0206126 Z M1.81702834,0.292132888 L1.8192149,0.294372907 L1.96850077,0.755698785 L1.97090225,0.765277633 C1.97122066,0.768562355 1.97060978,0.772623389 1.96919976,0.77659539 C1.96782155,0.780726007 1.96573555,0.784525236 1.96335179,0.787246287 L1.95939419,0.791067964 L1.95939419,0.791067964 L1.95541378,0.794513788 L1.84830942,0.878157318 L1.84466914,0.878928202 L1.84239894,0.878225936 L1.84239894,0.878225936 L1.84091121,0.875810836 L1.74981727,0.595720452 L1.74786966,0.591991736 C1.74614748,0.589429084 1.74331232,0.589171448 1.74020155,0.591294922 C1.73683074,0.593298444 1.73346651,0.597834452 1.73120467,0.603425468 L1.72927735,0.610194051 L1.72927735,0.610194051 L1.72764053,0.616953506 L1.66019189,0.924764718 L1.63890363,1.0263599 L1.6354433,1.03986905 L1.63336709,1.04446709 L1.6301905,1.04893821 L1.51590506,1.13874487 L1.51200614,1.14063572 C1.51024924,1.1410427 1.50876164,1.14037345 1.50778453,1.13873646 C1.50675426,1.13708785 1.50622936,1.13463911 1.50626622,1.13170036 L1.50684708,1.12536034 L1.50684708,1.12536034 L1.5079437,1.11878197 L1.65769327,0.421048083 L1.65990054,0.415362329 L1.65990054,0.415362329 L1.66315368,0.41117004 L1.81378909,0.293032506 L1.81702834,0.292132888 Z M2.1884329,0.0012733683 L2.1884329,0.609768872 C2.1884329,0.610906322 2.18784502,0.612289453 2.18711986,0.612858179 L2.04584435,0.723655104 C2.04511917,0.724223827 2.04453131,0.723762786 2.04453131,0.722625333 L2.04453131,0.11412983 L2.04584435,0.111040524 L2.18711986,0.000243599806 C2.18784502,-0.00032512567 2.1884329,0.000135917344 2.1884329,0.0012733683 Z"></path>
                                                </g>
                                            </g>
                                        </g>
                                    </g>
                                </g>
                            </g>
                        </g>
                    </g>
                </g>
            </g>
        </g>
    </g>
</svg>