<?xml version="1.0" encoding="UTF-8"?>
<svg width="72px" height="70px" viewBox="0 0 72 70" version="1.1" xmlns="http://www.w3.org/2000/svg" xmlns:xlink="http://www.w3.org/1999/xlink">
    <title>icon_负载_充电桩@2x</title>
    <defs>
        <polygon id="path-1" points="0 0 15.4365199 0 15.4365199 41.9650018 0 41.9650018"></polygon>
    </defs>
    <g id="光储充及工商储管理系统V1.3" stroke="none" stroke-width="1" fill="none" fill-rule="evenodd">
        <g id="3_1_1.站点概览" transform="translate(-641.000000, -516.000000)">
            <g id="main" transform="translate(212.000000, 102.000000)">
                <g id="2" transform="translate(20.000000, 182.000000)">
                    <g id="能流图4" transform="translate(68.000000, 32.000000)">
                        <g id="负载" transform="translate(317.000000, 192.000000)">
                            <g id="编组" transform="translate(24.000000, 8.000000)">
                                <path d="M14.8654105,47.5574517 L33.4379446,36.6042318 C33.6580295,36.4743933 33.6572884,36.1517701 33.436833,36.023059 L20.1066914,28.2769061 C19.6826389,28.0290667 19.1602152,28.0301941 18.7372743,28.2797246 L0.164554942,39.2331324 C-0.0553446913,39.362783 -0.0547889214,39.6854062 0.165851739,39.8143052 L13.4959934,47.5604581 C13.9200458,47.8081096 14.4422843,47.8069822 14.8654105,47.5574517" id="Fill-2" fill="#0C1218" opacity="0.300000012"></path>
                                <g transform="translate(4.898436, 0.000000)">
                                    <polygon id="Fill-4" fill="#CACBCC" points="11.2032101 44.9930571 11.2096941 46.0296981 27.1039729 36.7378847 27.0976742 35.7014316"></polygon>
                                    <polygon id="Fill-6" fill="#CACBCC" points="11.2032101 44.9930571 0 38.367912 0.00648398246 39.404553 11.2096941 46.0296981"></polygon>
                                    <polygon id="Fill-8" fill="#F2F2F2" points="15.8944826 29.0763053 27.0976927 35.7014503 11.2032287 44.9930758 1.85256642e-05 38.3679308"></polygon>
                                    <path d="M19.5918532,3.61401955 C20.5913128,3.0287129 21.4036631,3.49846141 21.4069978,4.66437721 L21.4992556,35.983074 L11.2134363,41.9650394 L11.1211682,10.6463426 C11.1178439,9.48042682 11.9261186,8.06178632 12.9255782,7.47647968 L19.5918532,3.61401955 Z" id="Fill-10" fill="#FEFEFE"></path>
                                    <path d="M12.3579315,13.106641 L12.3712718,21.3687657 C12.3718276,21.7535837 12.7825415,21.9937191 13.1111868,21.8013101 L19.6657521,17.9694776 C20.0355243,17.7528296 20.2632047,17.3522281 20.2624655,16.9191199 L20.2491252,8.65699526 C20.2485695,8.27217729 19.8378555,8.03204185 19.5092102,8.22445084 L12.9548302,12.0560955 C12.5848727,12.2727435 12.3571923,12.673345 12.3579315,13.106641" id="Fill-12" fill="#8DC6DB"></path>
                                    <g transform="translate(5.442422, 0.000000)">
                                        <mask id="mask-2" fill="white">
                                            <use xlink:href="#path-1"></use>
                                        </mask>
                                        <g id="Clip-15"></g>
                                        <path d="M1.80440997,4.11417018 L8.47068496,0.251710041 C8.97347149,-0.0427283243 9.42901757,-0.0701616372 9.75784811,0.123750547 L15.4365199,3.48602247 C15.1076894,3.29211029 14.6521433,3.3195436 14.1493568,3.61398197 L7.4830818,7.4764421 C6.48380748,8.06174874 5.67553275,9.48038924 5.67868212,10.646305 L5.77112518,41.9650018 L0.0924533451,38.6027299 L0,7.28403311 C-0.00332433857,6.11811732 0.804950389,4.69947682 1.80440997,4.11417018" id="Fill-14" fill="#DBDBDB" mask="url(#mask-2)"></path>
                                    </g>
                                    <g transform="translate(14.870633, 23.536069)">
                                        <path d="M3.55286236,0.417497028 C3.55378864,0.418060726 3.0322912,0.121555467 3.0322912,0.121555467 C2.70957413,-0.0687866285 2.26254985,-0.0419170138 1.76921141,0.247072269 C0.789018523,0.820917047 -0.00332413261,2.21268793 0,3.3553042 C0.00149254007,3.9229483 0.199161377,4.32223453 0.5178028,4.50994603 L1.04096756,4.80739079 C1.03003741,4.80081431 1.01929253,4.79348623 1.00854764,4.78653396 C1.33348779,4.99867238 1.79385055,4.98082194 2.30404734,4.68206189 C3.28461074,4.10784131 4.07658289,2.71644623 4.07344288,1.57382996 C4.07176621,1.00449476 3.87298584,0.604644833 3.55286236,0.417497028 L3.55286236,0.417497028 Z" id="Fill-16" fill="#C4BFB3"></path>
                                        <path d="M2.29257995,0.561164911 C2.77887864,0.276309416 3.21960419,0.248312405 3.53935715,0.433017518 C3.85892486,0.617910531 4.05770523,1.01550567 4.0593809,1.58202237 C4.0608546,2.14891487 3.86503833,2.77725048 3.54750844,3.3353117 C3.2297933,3.89318503 2.79036455,4.38040819 2.30406586,4.66526368 C1.81795244,4.94993128 1.37704163,4.97811619 1.05728867,4.79359897 C0.737720959,4.60851806 0.53912584,4.21111082 0.537633213,3.64421832 C0.535976477,3.07770162 0.73160749,2.44917812 1.04913737,1.89111689 C1.36685251,1.33324356 1.80646652,0.845832508 2.29257995,0.561164911" id="Fill-18" fill="#DDDAD3"></path>
                                    </g>
                                    <g transform="translate(16.322716, 24.840532)">
                                        <path d="M3.34425837,0.940336735 C3.34481414,0.940712534 1.79180772,0.0718656921 1.79180772,0.0718656921 C1.60099338,-0.0406860505 1.33700266,-0.0247146012 1.04540871,0.145898057 C0.466296446,0.48505648 -0.00184708702,1.30730427 0,1.98261473 C0.000931762604,2.31782726 0.117643447,2.55382891 0.306049451,2.66487746 L1.86016742,3.534288 C1.85349818,3.53034211 1.84719945,3.52602043 1.84090073,3.52188664 C2.03301186,3.64721554 2.30496861,3.63669317 2.60638117,3.46006773 C3.18567869,3.12090931 3.65363696,2.29866152 3.65178988,1.62353897 C3.65085812,1.28719903 3.5334054,1.05082158 3.34425837,0.940336735 L3.34425837,0.940336735 Z" id="Fill-20" fill="#C4BFB3"></path>
                                        <path d="M2.59958225,1.02522969 C2.8869153,0.85687182 3.14738614,0.840336672 3.33634791,0.949506226 C3.52512443,1.05867578 3.64257714,1.29373793 3.64350894,1.62838677 C3.64442971,1.96341141 3.52864431,2.33470063 3.34116459,2.66427618 C3.15331435,2.99403963 2.8937698,3.28190152 2.60643675,3.45025939 C2.3191037,3.61842935 2.05863286,3.6349645 1.86967108,3.52598285 C1.68089457,3.41662539 1.56362711,3.18193904 1.56269529,2.8469144 C1.56177454,2.51226556 1.67718943,2.14078844 1.86485441,1.81102499 C2.05270465,1.48144944 2.31243446,1.19339965 2.59958225,1.02522969" id="Fill-22" fill="#DDDAD3"></path>
                                    </g>
                                    <path d="M13.1529807,35.597899 C13.1259332,35.597899 13.0994415,35.5836186 13.0849915,35.5578764 C13.0635018,35.5199207 13.0764697,35.4714427 13.1140768,35.4496464 L19.5209925,31.7273592 C19.5585996,31.7055628 19.6062106,31.7185279 19.6277003,31.7568594 C19.6491901,31.7948151 19.6362221,31.8432931 19.5988003,31.8650894 L13.1918846,35.5873766 C13.1794724,35.5945168 13.1661339,35.597899 13.1529807,35.597899" id="Fill-24" fill="#A0CEE0"></path>
                                    <path d="M13.1529807,37.0227026 C13.1259332,37.0227026 13.0994415,37.0084222 13.0849915,36.98268 C13.0635018,36.9447243 13.0764697,36.8962463 13.1140768,36.87445 L19.5209925,33.1521628 C19.5585996,33.1303664 19.6062106,33.1433315 19.6277003,33.181663 C19.6491901,33.2196187 19.6362221,33.2680967 19.5988003,33.289893 L13.1918846,37.0121802 C13.1794724,37.0193204 13.1661339,37.0227026 13.1529807,37.0227026" id="Fill-26" fill="#A0CEE0"></path>
                                    <path d="M13.1529807,38.4473371 C13.1259332,38.4473371 13.0994415,38.4330567 13.0849915,38.4073145 C13.0635018,38.3693588 13.0764697,38.3206929 13.1140768,38.2990844 L19.5209925,34.5767973 C19.5585996,34.5550009 19.6062106,34.567966 19.6277003,34.6062975 C19.6491901,34.6442531 19.6362221,34.6927312 19.5988003,34.7145275 L13.1918846,38.4368147 C13.1794724,38.4439549 13.1661339,38.4473371 13.1529807,38.4473371" id="Fill-28" fill="#A0CEE0"></path>
                                    <polygon id="Fill-30" fill="#FEFEFE" points="16.7124092 11.2177823 14.9693295 16.0909533 16.072718 15.6044818 15.9056165 18.8079787 17.6511046 13.8461191 16.5775424 14.3635941"></polygon>
                                </g>
                                <path d="M27.3525047,28.8735806 L27.3525047,40.4363462 L27.3949285,40.4607731 L31.7684673,42.9998578 C31.9292701,43.0934317 31.9852176,43.3023758 31.893145,43.4656604 C31.8044071,43.6227443 31.5900651,43.6826842 31.4340791,43.5919288 L26.8489772,40.9301458 C26.7446777,40.8694543 26.6798379,40.7559631 26.6798379,40.6340164 L26.6798379,29.0714387 L23.7527829,27.3745192 C23.5917949,27.2811332 23.5354769,27.0723769 23.6275494,26.9090924 C23.672011,26.8299867 23.7444464,26.7732411 23.8313317,26.74919 C23.8607875,26.7411103 23.8906139,26.7369765 23.9204402,26.7369765 C23.978055,26.7369765 24.0349288,26.7521964 24.0862449,26.7820724 L27.1829949,28.5774512 C27.2876649,28.6379548 27.3525047,28.751446 27.3525047,28.8735806" id="Fill-32" fill="#5E5E5A"></path>
                                <path d="M53.262795,69.8120504 L71.8355144,58.8588305 C72.055414,58.728992 72.054673,58.4063687 71.8342176,58.2776576 L40.3874584,40.2239071 C39.963406,39.9762557 39.4409823,39.9773831 39.0180413,40.2269135 L20.445322,51.1801335 C20.2254224,51.3099719 20.2261634,51.6325952 20.4466188,51.7614942 L51.8933779,69.8150568 C52.3174304,70.0627082 52.8396689,70.0615808 53.262795,69.8120504" id="Fill-34" fill="#0C1218" opacity="0.300000012"></path>
                                <polygon id="Fill-36" fill="#CECBC4" points="52.1789325 58.7319984 45.6541936 62.5529327 41.579659 60.1679256 48.6829544 55.886074"></polygon>
                                <polygon id="Fill-38" fill="#CECBC4" points="33.4894459 47.7937165 26.964707 51.6146508 26.2240509 49.5319738 29.9934678 44.9477921"></polygon>
                                <path d="M49.4588093,58.0006187 C50.02236,57.6684126 50.8030314,57.7151995 51.6644748,58.2197094 C53.2104415,59.1250088 54.4883418,61.1945328 54.7175043,63.0566159 C54.7421434,63.2565409 54.7547409,63.454211 54.7542027,63.6475595 C54.7514062,64.6391047 54.4064584,65.3363993 53.8499474,65.6642838 L51.2022595,67.2443299 C51.7587705,66.9162575 52.1037183,66.2189628 52.1064972,65.2276056 C52.1070529,65.0342571 52.0944555,64.8365869 52.0698164,64.636662 C51.8406539,62.7745789 50.5625683,60.704867 49.0167869,59.7995676 C48.1553435,59.2952456 47.374672,59.2484587 46.8111213,59.5806648 L49.4588093,58.0006187 Z" id="Fill-40" fill="#353534"></path>
                                <path d="M29.7684181,47.7508378 C30.3319688,47.4186317 31.1126403,47.4654186 31.9740836,47.9699285 C33.5200503,48.8752278 34.7979506,50.9449398 35.0271131,52.8070229 C35.0517522,53.0067599 35.0643497,53.2044301 35.0638115,53.3977786 C35.0610151,54.3893237 34.7160672,55.0866184 34.1595562,55.4145029 L32.5298536,56.3859428 C33.0861793,56.0578704 33.4311271,55.3605758 33.433906,54.3692185 C33.4344617,54.17587 33.4218643,53.9781998 33.3974104,53.7782749 C33.1682479,51.9161918 31.8901624,49.8464799 30.3441957,48.9411805 C29.4827523,48.4368585 28.7022661,48.3900716 28.1385301,48.7222777 L29.7684181,47.7508378 Z" id="Fill-42" fill="#353534"></path>
                                <path d="M45.5705132,29.8302516 L55.9083896,35.9801991 C56.5734609,36.3685872 57.1477565,36.8982756 57.5921872,37.5329998 L61.6978449,42.4747541 C66.7286742,45.2814075 67.6853395,49.1722404 67.6853395,49.1722404 C68.9793572,50.3398473 69.5175277,52.1340987 69.7274235,53.8246297 C69.8865589,55.1055399 69.8797044,56.4178293 69.7314991,57.699867 C69.6755516,58.1848353 69.496779,58.5386499 69.0642047,58.7879924 L55.3804081,66.6788278 C54.5449007,67.160414 53.5204314,67.1572197 52.6880734,66.6699966 L52.3533146,66.4740175 C52.4387179,66.1735664 52.4859584,65.8319652 52.4870699,65.4503415 C52.4876257,65.2333177 52.4735462,65.0114085 52.4459429,64.7870567 C52.1886214,62.6963 50.7536235,60.3725481 49.017954,59.3560123 C47.2822845,58.3396644 45.8389501,58.9779587 45.5708837,60.761124 C45.5421689,60.9524056 45.5267926,61.157216 45.5262368,61.3742398 C45.5251253,61.7564272 45.5705132,62.152707 45.6542492,62.5529327 L33.698156,55.555559 C33.7729997,55.2699519 33.8135709,54.9480802 33.8144972,54.5920108 C33.8152382,54.374987 33.8009735,54.1530778 33.7733702,53.928538 C33.5160488,51.8379693 32.0812361,49.5140294 30.3453813,48.4976816 C28.6097119,47.4813337 27.1665626,48.119628 26.8984963,49.9027933 C26.8695962,50.0940749 26.8544052,50.2988853 26.8536642,50.5159091 C26.8527379,50.8725421 26.8916418,51.2415766 26.9648182,51.614369 L26.7478826,51.4875369 C26.4555476,51.3163605 26.2526916,51.0206069 26.1976704,50.6829516 C25.1443011,44.2334925 27.0172458,44.0318765 27.0172458,44.0318765 L28.3836988,40.930221 C29.1187971,36.2088727 30.6918113,35.545212 30.6918113,35.545212 L41.2234661,29.5461477 L45.5705132,29.8302516 Z" id="Fill-44" fill="#EFEDE8"></path>
                                <path d="M45.0389933,29.5140545 L55.908371,35.9802367 C56.5734424,36.3686248 57.147738,36.8983132 57.5921686,37.5330374 L61.6978263,42.4747917 C62.6411532,43.0010979 63.4410913,43.5653598 64.1185749,44.1350708 C64.5700453,44.5148155 64.9672355,44.8970029 65.3158885,45.2718622 C66.1002652,46.1151547 66.639362,46.9210553 67.0026503,47.5792669 C67.0430362,47.6523597 67.0811991,47.7237615 67.1173241,47.7930964 C67.5508247,48.6251149 67.685321,49.1720901 67.685321,49.1720901 C67.6855062,49.1724659 68.5964132,51.1029444 66.9650432,52.5275977 C65.8158962,53.5311684 59.7137277,56.9905843 56.2047817,58.9490598 C54.6621496,59.8100148 52.789946,59.7968619 51.2586146,58.9158016 L48.7532038,57.4744253 C46.8806296,56.3970101 44.5582524,57.7688636 44.5582524,59.9524426 L44.5582524,61.9112939 L33.6981375,55.5555965 C33.7729812,55.2699894 33.8135524,54.9481178 33.8144787,54.5920484 C33.8152197,54.3750246 33.800955,54.1529275 33.7733517,53.9285756 C33.5160302,51.8378189 32.0812176,49.514067 30.3453628,48.4977192 C28.6096933,47.4813713 27.1665441,48.1196656 26.8984777,49.9028309 C26.8695777,50.0941125 26.8543867,50.2987349 26.8536456,50.5159466 C26.8527194,50.8725797 26.8916233,51.2416141 26.9647996,51.6144066 L26.7478641,51.4873866 C26.5092535,51.3477773 26.3321482,51.1247407 26.2443365,50.8641242 C26.2245141,50.8053117 26.2076557,50.7451839 26.1976519,50.6828013 C26.1102107,50.1478517 26.0446299,49.6596891 25.9947959,49.2072273 C25.8402918,47.8049341 25.8515925,46.7799428 25.9497785,46.0345459 C25.9531131,46.0093674 25.956633,45.9847525 25.9601529,45.9603256 C26.2232173,44.1190994 27.0172273,44.031914 27.0172273,44.031914 L28.3836802,40.9302586 C29.1187786,36.2089103 30.6917927,35.5450617 30.6917927,35.5450617 L36.4801365,32.2310799 L41.2556822,29.4967678 L45.0389933,29.5140545 Z" id="Fill-46" fill="#FEFEFE"></path>
                                <path d="M25.8761575,47.2840957 C25.8761575,47.2805256 25.8761575,47.2775192 25.8761575,47.2739491 C25.8761575,46.7925509 25.9037607,46.3836818 25.9498896,46.0343768 C25.9750845,45.8425315 26.0056519,45.6675971 26.0408507,45.5107011 C26.140704,45.0661311 26.2748298,44.7549697 26.4117344,44.5371943 C26.4573076,44.4644772 26.503066,44.4022825 26.5482686,44.3489191 C26.593286,44.2957436 26.637377,44.2512114 26.6796156,44.2143831 C26.7072188,44.1899562 26.7335252,44.169851 26.7590907,44.1516247 C26.7918811,44.1281373 26.8231894,44.10822 26.8513485,44.0930001 C26.9013678,44.0661305 26.9428652,44.0507228 26.9717653,44.0422673 C26.991032,44.0366303 27.0049262,44.0338118 27.011966,44.0326844 C27.0154858,44.0321207 27.0173384,44.0319328 27.0173384,44.0319328 L28.3836061,40.9300895 C29.1187045,36.2089291 30.6917186,35.5450805 30.6917186,35.5450805 L30.7806418,35.4941597 L44.0876264,43.2902939 C44.4112697,43.4796965 44.6941566,43.7311059 44.9233191,44.0306175 C45.6619373,44.9960447 47.5491467,47.32844 49.4761863,52.5146514 C49.4761863,52.5146514 51.1985173,55.0533602 53.308961,59.5631338 C52.598687,59.4986843 51.8987874,59.2842911 51.2585405,58.9158204 L48.7531297,57.4742561 C46.8805555,56.3970289 44.5581783,57.7688824 44.5581783,59.9524614 L44.5581783,61.9113127 L33.6980634,55.5556153 C33.7729071,55.2700082 33.8134783,54.9481366 33.8145898,54.5920672 C33.8151456,54.3750434 33.8010661,54.1529463 33.7734629,53.9285944 C33.5161414,51.8378377 32.0811435,49.5140858 30.345474,48.4977379 C28.6098045,47.4812022 27.16647,48.1196843 26.8984036,49.9028497 C26.8696889,50.0941313 26.8543126,50.2987537 26.8537568,50.5159654 C26.8526453,50.8725985 26.8915492,51.2416329 26.9647255,51.6144253 L26.74779,51.4874053 C26.6747989,51.4447522 26.6071802,51.3942072 26.5462308,51.3370858 C26.3633825,51.1659095 26.23889,50.9362964 26.1975778,50.6828201 C25.9671185,49.2720714 25.8767133,48.1602706 25.8761575,47.2840957" id="Fill-48" fill="#EFEDE8"></path>
                                <path d="M58.1273195,40.8857452 L61.7414913,38.7692463 C62.0588359,38.5834138 62.4602871,38.7782655 62.5180872,39.145233 C62.5779251,39.5255414 62.520125,40.0291118 62.074768,40.5578608 C61.1497816,41.655757 59.5676899,42.0144569 59.5676899,42.0144569 L58.1273195,40.8857452 Z" id="Fill-50" fill="#FEFEFE"></path>
                                <path d="M48.9995025,65.967328 C50.2103399,66.6764603 51.1949789,66.107313 51.1988809,64.6960006 C51.2027597,63.2854398 50.2246046,61.5670997 49.0137672,60.8581553 C47.8034856,60.1493987 46.8190318,60.7183581 46.8149446,62.128919 C46.8110658,63.5402314 47.7892208,65.2585714 48.9995025,65.967328 M52.0697608,64.6366244 C52.0943999,64.8365494 52.1069974,65.0342195 52.1064592,65.227568 C52.1008839,67.2234355 50.7083097,68.0276449 48.9965384,67.0252016 C47.284767,66.0227583 45.9012704,63.5930311 45.9068114,61.5971636 C45.9073839,61.4038152 45.9210928,61.2215527 45.9466583,61.051128 C46.1854541,59.4628143 47.4707647,58.8944186 49.0167313,59.7997179 C50.562698,60.7048294 51.8407836,62.7745413 52.0697608,64.6366244" id="Fill-52" fill="#5E5E5A"></path>
                                <path d="M49.0137857,60.8580801 C50.2246232,61.5672125 51.2027782,63.2855525 51.1988994,64.6961133 C51.1949974,66.1074258 50.2103584,66.6763852 48.999521,65.9672528 C47.7892393,65.2584963 46.8110843,63.5403441 46.8149631,62.1290317 C46.8188651,60.718283 47.8035041,60.1493236 49.0137857,60.8580801" id="Fill-54" fill="#C4BFB3"></path>
                                <path d="M49.0123778,61.3838039 C49.974045,61.9469384 50.7510114,63.3116517 50.7478716,64.4320959 C50.7447127,65.5529158 49.9627444,66.0048139 49.0010771,65.4416794 C48.0397804,64.8787328 47.2629993,63.5140194 47.265955,62.3931995 C47.2691128,61.2727553 48.0510811,60.8208573 49.0123778,61.3838039" id="Fill-56" fill="#898984"></path>
                                <path d="M48.8727499,62.7887277 C49.2521555,63.0108248 49.5589405,63.5493445 49.5578319,63.9916597 C49.5565321,64.4343507 49.2477093,64.6122914 48.8683037,64.3901943 C48.4888981,64.1679093 48.1821131,63.6293896 48.1832216,63.1866986 C48.1845214,62.7445713 48.4933443,62.5666306 48.8727499,62.7887277" id="Fill-58" fill="#353534"></path>
                                <path d="M30.3269854,55.1089597 C31.5378228,55.818092 32.5224618,55.2489447 32.5263638,53.8376323 C32.5302426,52.4270715 31.5522728,50.7087314 30.3412501,49.999787 C29.1309685,49.2910304 28.1465147,49.8599898 28.1424275,51.2705506 C28.1385487,52.6818631 29.1167037,54.4002031 30.3269854,55.1089597 M33.3972437,53.7782561 C33.4218828,53.9781811 33.4344803,54.1758512 33.4339421,54.3691997 C33.4283668,56.3650672 32.0359779,57.1690887 30.3240213,56.1668333 C28.6122499,55.16439 27.2287533,52.7344749 27.2342943,50.7387953 C27.2348668,50.5454469 27.2485757,50.3631844 27.2741412,50.1925718 C27.512937,48.604446 28.7982476,48.0360503 30.3442142,48.9411617 C31.8901809,49.8464611 33.1682665,51.916173 33.3972437,53.7782561" id="Fill-60" fill="#5E5E5A"></path>
                                <path d="M30.3412687,49.9997118 C31.5521061,50.7088442 32.5302611,52.4271842 32.5263823,53.837745 C32.5224803,55.2490575 31.5378413,55.8180169 30.3270039,55.1088845 C29.1167222,54.400128 28.1385672,52.6819758 28.142446,51.2706634 C28.1465332,49.8599147 29.130987,49.2909553 30.3412687,49.9997118" id="Fill-62" fill="#C4BFB3"></path>
                                <path d="M30.3398607,50.5254168 C31.3015279,51.0885513 32.0784943,52.4532647 32.0753545,53.5737088 C32.0721956,54.6945287 31.2902273,55.1464268 30.32856,54.5832923 C29.3672633,54.0203457 28.5904822,52.6556323 28.5936221,51.5348124 C28.5965957,50.4143682 29.378564,49.9624702 30.3398607,50.5254168" id="Fill-64" fill="#898984"></path>
                                <path d="M30.2002513,51.9303406 C30.5796569,52.1524377 30.8864419,52.6909574 30.8853334,53.1332726 C30.8840336,53.5759636 30.5752107,53.7539043 30.1958051,53.5318072 C29.8163995,53.3095222 29.5094293,52.7710025 29.510722,52.3283115 C29.5120229,51.8861843 29.8208457,51.7082435 30.2002513,51.9303406" id="Fill-66" fill="#353534"></path>
                                <path d="M57.5920945,37.532981 L61.6977522,42.4747353 C62.1707124,42.7385461 62.6073623,43.0119397 63.0108513,43.2907824 C63.874703,44.9151728 63.1384931,46.4061545 61.3965249,47.3315591 L54.6778223,51.2518922 C53.7254179,51.8076987 52.6848314,52.1906377 51.6025621,52.3837982 L51.6025621,52.3837982 C50.8961785,52.5098787 50.1831257,52.5517803 49.4761863,52.5145762 C47.5491467,47.3283648 45.6619373,44.9959695 44.9233191,44.0305424 C44.8847857,43.9801853 44.8427325,43.9333984 44.801235,43.8858598 L56.9459194,36.7740553 C57.1830479,37.0061111 57.4003539,37.2590237 57.5920945,37.532981" id="Fill-68" fill="#EFEDE8"></path>
                                <path d="M44.0875708,43.2902375 L30.7765106,35.496546 L41.4476637,29.3599394 C42.984738,28.6823742 44.2507819,29.0502812 44.8011794,29.3725287 L55.9084266,35.9801991 C56.2863502,36.2009809 56.6337064,36.4687376 56.9458638,36.7740741 L44.8011794,43.8858786 C44.5957298,43.6504407 44.356934,43.4478851 44.0875708,43.2902375" id="Fill-70" fill="#FEFEFE"></path>
                                <path d="M62.6003782,44.0562658 C62.6387263,44.5991072 62.4169741,45.1363116 62.0851794,45.5641585 C61.7533848,45.9918175 61.3230336,46.3277817 60.8789734,46.6331182 L54.2692017,50.4897535 C53.3321736,51.0365407 52.3084454,51.413279 51.2439608,51.6032453 C51.1279901,51.6239143 51.0118342,51.6423284 50.895493,51.6584878 C50.364918,51.7323322 49.8521276,51.4239893 49.6472338,50.92211 C48.2941193,47.6041823 46.9135868,46.1036177 46.1909006,44.9812946 C45.9358022,44.5850147 46.0617767,44.0538231 46.4658215,43.8170699 L57.4730301,37.3713687 C57.513416,37.4247321 57.5536167,37.4780956 57.5921501,37.5329622 L61.6978078,42.4749044 C61.6978078,42.4749044 62.5346121,43.1244727 62.6003782,44.0562658" id="Fill-72" fill="#5E5E5A"></path>
                                <polygon id="Fill-74" fill="#CECBC4" points="65.3154625 59.706144 60.0128616 62.763831 60.0128616 61.9041913 65.3154625 58.8465043"></polygon>
                                <path d="M56.5223301,63.917026 L59.6272314,62.1265326 L59.6272314,62.9861724 L56.8863594,64.5665943 C56.8289298,64.5998525 56.7663131,64.615636 56.7048079,64.615636 C56.5766103,64.615636 56.4519325,64.5476164 56.3841286,64.4266092 C56.2835343,64.2471653 56.34541,64.0190554 56.5223301,63.917026" id="Fill-76" fill="#CECBC4"></path>
                                <path d="M65.7011112,58.6242193 L68.1891079,57.1896073 C68.3658427,57.087578 68.5909296,57.1503364 68.6913387,57.3295924 C68.791933,57.5090363 68.7300573,57.7371462 68.5531372,57.8391756 L65.7011112,59.4838591 L65.7011112,58.6242193 Z" id="Fill-78" fill="#CECBC4"></path>
                                <path d="M52.5790313,54.4456372 C52.8630297,54.4772043 53.1459166,54.5204211 53.4263952,54.5760394 C54.7774719,54.8436081 56.0937203,55.4133191 57.1020722,56.3637143 C57.2363833,56.4903585 57.3666187,56.6252703 57.4573944,56.7870517 C57.5481702,56.9486451 57.5968927,57.1408662 57.5589151,57.3229408 C57.5161208,57.527939 57.3660629,57.6989275 57.1854377,57.8009568 C57.0049977,57.9029862 56.7962135,57.942633 56.5898376,57.9554101 C55.8182437,58.0025729 55.066287,57.690472 54.4038092,57.2866762 C53.5668197,56.7769051 52.7692899,56.216777 52.0432691,55.4954312 C51.817997,55.271643 51.3105791,54.724292 51.8233694,54.4695004 C51.9695369,54.3969712 52.1407141,54.4052388 52.3028136,54.4187676 C52.3950714,54.4264714 52.487144,54.4354906 52.5790313,54.4456372" id="Fill-80" fill="#E0DDD7"></path>
                                <path d="M53.3545526,56.1016698 C53.4655214,56.2005049 53.6978332,56.4004298 53.8404808,56.5082841 C54.2615692,56.8263978 54.6943287,57.1082469 55.1604344,57.3312835 C55.5691105,57.5266989 56.0250271,57.6584163 56.4714956,57.5883299 C56.8138499,57.5345906 57.1306388,57.3010317 57.0205963,56.9111404 C56.9700213,56.7318844 56.8447878,56.5836318 56.7082536,56.4584908 C56.0007585,55.809862 55.1491337,55.4190313 54.2358185,55.2166636 C53.8430744,55.3651041 53.5146144,55.70896 53.3545526,56.1016698" id="Fill-82" fill="#FEFEFE"></path>
                                <path d="M65.4629453,48.5239499 C65.4401587,48.1755844 65.4145933,47.3783272 65.5185223,47.0453695 C65.5468665,46.9544262 65.609298,46.8493904 65.7028526,46.8601007 C65.7641726,46.867053 65.8071521,46.9226712 65.8419804,46.9743435 C66.7627059,48.3398085 67.009653,50.1163974 66.6404365,51.7274468 C66.5528101,52.1090705 66.2382443,52.8339864 65.7085956,52.6066281 C65.3467893,52.4514232 65.3312278,51.8099347 65.3560522,51.5068529 C65.4588696,50.2550671 65.5398268,49.7000123 65.4629453,48.5239499" id="Fill-84" fill="#E0DDD7"></path>
                                <path d="M66.2734986,48.7292112 C66.5804689,49.4490538 66.6075164,50.7032823 66.409477,51.5672438 C66.3568641,51.7970448 66.1673466,52.2333472 65.8485199,52.0965564 C65.6306581,52.0029825 65.5971266,51.6339481 65.6265825,51.3443951 C65.7881262,49.7632216 65.6964242,48.9422891 65.6964242,48.9422891 L66.2734986,48.7292112 Z" id="Fill-86" fill="#FEFEFE"></path>
                                <path d="M27.0172458,44.0319328 L27.9142584,41.9958549 L29.5808272,42.9954797 C29.8494493,43.1527515 29.9976546,43.4590275 29.9563424,43.7707526 L29.8355551,44.6813132 C29.7860915,45.0539177 29.3881603,45.2649287 29.0582182,45.0937523 L27.0161342,44.0321207 C27.0163195,44.0321207 27.0172458,44.0319328 27.0172458,44.0319328" id="Fill-88" fill="#F2CF3D"></path>
                                <path d="M44.5582338,61.9113502 L44.5582338,59.952499 C44.5582338,57.76892 46.8806111,56.3968785 48.7531852,57.4742937 L51.2585961,58.9158579 C51.898843,59.2841408 52.5987426,59.4987219 53.3090166,59.5631714 L53.5646707,60.0398722 C53.9311084,60.7236381 54.103397,61.4972199 54.0617143,62.2743719 L53.8079127,67.0263478 C53.4196148,66.9921501 53.0368746,66.8741493 52.6880363,66.6699026 L52.3534628,66.4741114 C52.4388661,66.1734724 52.4859213,65.8318713 52.4870328,65.4504355 C52.4875886,65.2334117 52.4735091,65.0113146 52.4459059,64.7869627 C52.1885844,62.696206 50.7537717,60.3724541 49.017917,59.3561062 C47.2822475,58.3395705 45.8390983,58.9780526 45.5710319,60.7610301 C45.5421319,60.9524996 45.5269408,61.157122 45.5261998,61.3743337 C45.5252735,61.7563332 45.5704761,62.152801 45.6542121,62.5528388 L40.3855132,59.4688459 L44.5582338,61.9113502 Z" id="Fill-90" fill="#E0DDD7"></path>
                                <polygon id="Fill-92" fill="#CECBC4" points="37.3165147 57.6732416 36.9962059 57.485718 36.9200655 39.091118 37.2403742 39.2788295"></polygon>
                                <path d="M28.2278609,41.2838289 L28.3836617,40.9302022 C29.1187601,36.2088539 30.6917742,35.5450053 30.6917742,35.5450053 L30.7764365,35.4965273 L44.0874967,43.2902187 C44.4111401,43.4798092 44.6942122,43.7310307 44.9233747,44.0305424 C45.6619929,44.9959695 47.5492023,47.3283648 49.4762419,52.5147641 C47.9947445,52.4367859 46.5415914,52.006872 45.2394225,51.2443763 L28.2278609,41.2838289 Z" id="Fill-94" fill="#E0DDD7"></path>
                                <path d="M38.0658963,40.5648318 L41.8905197,42.8485612 C42.8058727,43.3953484 43.5328198,44.2153414 43.9715075,45.19674 L46.7272001,50.5997874 C46.8681804,50.9152705 46.5558377,51.2393969 46.2396046,51.1088068 C45.8074008,50.9301145 45.3840894,50.7166608 44.9841203,50.4823502 L37.4180538,46.0518702 C37.6918631,42.8425484 37.9247307,41.3996689 38.0658963,40.5648318" id="Fill-96" fill="#5E5E5A"></path>
                                <path d="M30.6864388,40.0947075 L31.6783029,37.8145483 C31.8459601,37.3639655 32.3733858,37.1753145 32.7826177,37.4197716 L37.6237443,40.3008332 C37.5020307,40.9945578 37.2515637,42.438001 36.959414,45.7833619 L30.970993,42.2777228 C30.6932933,42.0828711 30.5400861,41.872048 30.5078514,41.5777975 C30.453386,41.0783609 30.5141501,40.5580674 30.6864388,40.0947075" id="Fill-98" fill="#5E5E5A"></path>
                                <path d="M46.7271445,50.5997874 C46.8681248,50.9152705 46.5557821,51.2393969 46.239549,51.1088068 C45.8073453,50.9301145 45.3842191,50.7166608 44.9840648,50.4825381 L44.1418881,49.9893022 C44.3162146,48.0982826 44.4225519,47.3252645 44.5500084,46.4904274 L46.7271445,50.5997874 Z" id="Fill-100" fill="#353534"></path>
                                <path d="M44.7930096,49.7102904 C44.7930096,49.2694784 45.0451439,48.9120937 45.3560045,48.9120937 C45.6668652,48.9120937 45.9189994,49.2694784 45.9189994,49.7102904 C45.9189994,50.1511024 45.6668652,50.508487 45.3560045,50.508487 C45.0451439,50.508487 44.7930096,50.1511024 44.7930096,49.7102904" id="Fill-102" fill="#E0DDD7"></path>
                                <path d="M45.3629516,50.4315047 L43.002041,51.8140685 C42.7884401,51.9392095 42.5150013,51.8484541 42.4153332,51.6195926 C42.305476,51.3672437 42.2949164,51.0791939 42.3986601,50.8240265 C42.500366,50.5731808 42.7076682,50.260892 43.1198642,49.9324438 C43.6508098,49.5096702 44.0618942,49.1735181 44.4283319,48.9324432 C44.7054758,48.7501808 45.072284,48.7992225 45.3012612,49.0408612 L45.3499837,49.0921577 L45.3629516,50.4315047 Z" id="Fill-104" fill="#FEFEFE"></path>
                                <path d="M64.3541472,57.5131701 L61.0132289,59.4397027 C60.5386014,59.7132842 59.9624533,59.7362079 59.4681885,59.5009579 L58.734387,59.1518408 L65.3154439,55.3570245 L65.1878021,56.2700277 C65.114811,56.7929517 64.8069144,57.2521778 64.3541472,57.5131701" id="Fill-106" fill="#CECBC4"></path>
                            </g>
                        </g>
                    </g>
                </g>
            </g>
        </g>
    </g>
</svg>