<?xml version="1.0" encoding="UTF-8"?>
<svg width="71px" height="60px" viewBox="0 0 71 60" version="1.1" xmlns="http://www.w3.org/2000/svg" xmlns:xlink="http://www.w3.org/1999/xlink">
    <title>icon_负载_工厂@2x</title>
    <g id="光储充及工商储管理系统V1.3" stroke="none" stroke-width="1" fill="none" fill-rule="evenodd">
        <g id="3_1_1.站点概览" transform="translate(-754.000000, -524.000000)">
            <g id="main" transform="translate(212.000000, 102.000000)">
                <g id="2" transform="translate(20.000000, 182.000000)">
                    <g id="能流图4" transform="translate(68.000000, 32.000000)">
                        <g id="负载" transform="translate(317.000000, 192.000000)">
                            <g id="icon_负载_工厂" transform="translate(137.000000, 16.000000)">
                                <g id="编组" transform="translate(0.000000, 21.081794)" fill="#0C1218" opacity="0.300000012">
                                    <polygon id="Fill-1" points="0 18.5598344 34.6141754 38.9182057 66.6639204 20.3620229 31.9762581 0"></polygon>
                                </g>
                                <polygon id="Fill-3" fill="#808080" points="7.01380295 38.9496101 38.9831096 57.4594847 70.9524163 38.9499421 70.9524163 37.8687512 38.9831096 56.3786258 7.01380295 37.8687512"></polygon>
                                <polygon id="Fill-4" fill="#FFFFFF" points="38.9827455 0 7.01376984 18.5095426 38.9830765 37.0192512 70.9523832 18.5097086 38.983242 0"></polygon>
                                <polygon id="Fill-5" fill="#D8D8D8" points="7.01380295 37.8686848 38.9831096 56.3785594 38.9831096 37.0193674 7.01380295 18.5096588"></polygon>
                                <polygon id="Fill-6" fill="#E6E6E6" points="70.9523997 18.5097086 70.9523997 37.8689006 38.9832586 56.3784432 38.9832586 37.0194172"></polygon>
                                <g id="编组" transform="translate(6.966308, 1.100627)">
                                    <path d="M32.0169008,42.6436512 C32.0086252,42.6436512 32.0005152,42.6414935 31.9930672,42.637344 L0.0237605293,24.1273034 C0.000919990217,24.114191 -0.0066935228,24.0849786 0.00638185825,24.0622394 C0.0194572393,24.0393342 0.0489182245,24.0315332 0.07126223,24.0448116 L32.0407344,42.5545202 C32.0632439,42.5677985 32.071023,42.5970109 32.0581131,42.6197501 C32.0491755,42.6350203 32.0332864,42.6436512 32.0169008,42.6436512" id="Fill-7" fill="#999999"></path>
                                    <path d="M32.0169008,49.31671 C32.0086252,49.31671 32.0005152,49.3145523 31.9930672,49.3104028 L0.0237605293,30.8003622 C0.000919990217,30.7872499 -0.0066935228,30.7582034 0.00638185825,30.7354642 C0.0194572393,30.7125591 0.0489182245,30.704592 0.07126223,30.7178704 L32.0407344,49.227745 C32.0632439,49.2408574 32.071023,49.2702358 32.0581131,49.292809 C32.0491755,49.3080791 32.0332864,49.31671 32.0169008,49.31671" id="Fill-9" fill="#999999"></path>
                                    <path d="M32.0169008,42.6436512 C32.0005152,42.6436512 31.9846261,42.6350203 31.9756885,42.6197501 C31.9626131,42.5970109 31.9705577,42.5677985 31.9930672,42.5545202 L63.9625394,24.0448116 C63.9847179,24.0315332 64.0138478,24.0393342 64.0274198,24.0622394 C64.0403296,24.0849786 64.0327161,24.114191 64.0100411,24.1273034 L32.0407344,42.637344 C32.0332864,42.6414935 32.0250109,42.6436512 32.0169008,42.6436512" id="Fill-11" fill="#999999"></path>
                                    <path d="M32.0169008,49.31671 C32.0005152,49.31671 31.9846261,49.3080791 31.9756885,49.292809 C31.9626131,49.2702358 31.9705577,49.2408574 31.9930672,49.227745 L63.9625394,30.7178704 C63.9847179,30.704592 64.0138478,30.7125591 64.0274198,30.7354642 C64.0403296,30.7582034 64.0327161,30.7872499 64.0100411,30.8003622 L32.0407344,49.3104028 C32.0332864,49.3145523 32.0250109,49.31671 32.0169008,49.31671" id="Fill-13" fill="#999999"></path>
                                    <polygon id="Fill-15" fill="#999999" points="59.2384704 23.7210186 59.2384704 24.7602167 58.378971 25.2578234 58.378971 25.553267 59.5314252 24.8860292 59.5314252 23.5515535"></polygon>
                                    <polygon id="Fill-17" fill="#333333" points="59.2384704 23.7210186 58.378971 24.2187913 58.378971 25.2578234 59.2384704 24.7602167"></polygon>
                                    <polygon id="Fill-19" fill="#999999" points="56.8875334 25.0814203 56.8875334 26.1206183 56.028034 26.6182251 56.028034 26.9136687 57.1804882 26.2465968 57.1804882 24.9119552"></polygon>
                                    <polygon id="Fill-21" fill="#333333" points="56.8875334 25.0814203 56.028034 25.579193 56.028034 26.6182251 56.8875334 26.1206183"></polygon>
                                    <polygon id="Fill-23" fill="#999999" points="54.536762 26.4418386 54.536762 27.4810366 53.6770971 27.9786433 53.6770971 28.2740869 54.8297167 27.6070151 54.8297167 26.2723735"></polygon>
                                    <polygon id="Fill-25" fill="#333333" points="54.536762 26.4418386 53.6770971 26.9396113 53.6770971 27.9786433 54.536762 27.4810366"></polygon>
                                    <polygon id="Fill-27" fill="#999999" points="52.185825 27.8024228 52.185825 28.8414549 51.3263256 29.3392276 51.3263256 29.6346712 52.4787798 28.9674334 52.4787798 27.6327917"></polygon>
                                    <polygon id="Fill-29" fill="#333333" points="52.185825 27.8024228 51.3263256 28.3000296 51.3263256 29.3392276 52.185825 28.8414549"></polygon>
                                    <polygon id="Fill-31" fill="#999999" points="49.8348881 29.1628411 49.8348881 30.2018731 48.9753887 30.6996459 48.9753887 30.9950895 50.1280083 30.3278516 50.1280083 28.99321"></polygon>
                                    <polygon id="Fill-33" fill="#333333" points="49.8348881 29.1628411 48.9753887 29.6604478 48.9753887 30.6996459 49.8348881 30.2018731"></polygon>
                                    <polygon id="Fill-35" fill="#999999" points="47.4841166 30.5232594 47.4841166 31.5622914 46.6244517 32.0600641 46.6244517 32.3555077 47.7770714 31.6882699 47.7770714 30.3536283"></polygon>
                                    <polygon id="Fill-37" fill="#333333" points="47.4841166 30.5232594 46.6244517 31.0208661 46.6244517 32.0600641 47.4841166 31.5622914"></polygon>
                                    <polygon id="Fill-39" fill="#999999" points="45.1331797 31.8836776 45.1331797 32.9228757 44.2736802 33.4204824 44.2736802 33.715926 45.4261344 33.0486882 45.4261344 31.7142125"></polygon>
                                    <polygon id="Fill-41" fill="#333333" points="45.1331797 31.8836776 44.2736802 32.3812844 44.2736802 33.4204824 45.1331797 32.9228757"></polygon>
                                    <polygon id="Fill-43" fill="#999999" points="42.7824082 33.2440959 42.7824082 34.2832939 41.9227433 34.7809007 41.9227433 35.0763443 43.075363 34.4091064 43.075363 33.0746308"></polygon>
                                    <polygon id="Fill-45" fill="#333333" points="42.7824082 33.2440959 41.9227433 33.7418686 41.9227433 34.7809007 42.7824082 34.2832939"></polygon>
                                    <polygon id="Fill-47" fill="#999999" points="40.4314712 34.6044976 40.4314712 35.6436956 39.5719718 36.1413023 39.5719718 36.4367459 40.724426 35.7696741 40.724426 34.4350325"></polygon>
                                    <polygon id="Fill-49" fill="#333333" points="40.4314712 34.6044976 39.5719718 35.1022703 39.5719718 36.1413023 40.4314712 35.6436956"></polygon>
                                    <polygon id="Fill-51" fill="#999999" points="38.0805343 35.9649159 38.0805343 37.0041139 37.2210349 37.5018866 37.2210349 37.7973302 38.3736545 37.1300924 38.3736545 35.7954507"></polygon>
                                    <polygon id="Fill-53" fill="#333333" points="38.0805343 35.9649159 37.2210349 36.4626886 37.2210349 37.5018866 38.0805343 37.0041139"></polygon>
                                    <polygon id="Fill-55" fill="#DDDDDD" points="60.8793645 18.1072082 62.0851133 17.4090981 32.0167022 0 1.94845662 17.4089322 3.15420537 18.1070422 32.0167022 1.39622006"></polygon>
                                    <polygon id="Fill-57" fill="#EDEDED" points="60.8793645 18.1072082 32.0167022 1.39622006 3.15420537 18.1070422 32.0168677 34.8181963"></polygon>
                                    <polygon id="Fill-59" fill="#F2F2F2" points="35.49765 27.844731 32.6103079 29.517805 35.0436529 30.9266395 37.930995 29.2535655"></polygon>
                                    <polygon id="Fill-61" fill="#F2F2F2" points="45.0530061 22.4656322 42.165664 24.1387062 44.5988435 25.5475407 47.486351 23.8744667"></polygon>
                                    <polygon id="Fill-63" fill="#C2C2C2" points="35.9356753 23.4031512 35.9356753 23.4031512 35.5319936 23.169452 34.7860348 23.0952591 34.2150213 23.4258904 33.906012 24.1107221 33.906012 24.5781205 33.906012 26.928557 35.9356753 28.1036923 35.9356753 25.7534218 37.9653385 26.928557 37.9653385 24.5781205"></polygon>
                                    <polygon id="Fill-65" fill="#B5B5B5" points="35.9356753 28.1037421 33.0483332 29.7768161 33.0483332 27.4267115 35.9356753 25.7534716"></polygon>
                                    <polygon id="Fill-67" fill="#B5B5B5" points="37.9652889 26.9286068 35.0779468 28.6016808 35.0779468 26.2514102 37.9652889 24.5781703"></polygon>
                                    <polygon id="Fill-69" fill="#F2F2F2" points="35.5319108 23.1694188 32.6445687 24.8424927 35.0779137 26.2513272 37.9652558 24.5780873"></polygon>
                                    <polygon id="Fill-71" fill="#F5F5F5" points="34.7859851 23.0951927 31.8986431 24.7682667 32.6446019 24.8424595 35.5319439 23.1693856"></polygon>
                                    <polygon id="Fill-73" fill="#CFCFCF" points="33.0482836 25.0762418 33.0482836 25.0762418 32.6446019 24.8425425 31.8986431 24.7683497 31.3276296 25.098981 31.0186203 25.7839786 31.0186203 26.251377 31.0186203 28.6016476 33.0482836 29.7767829 33.0482836 27.4266783 35.0779468 28.6016476 35.0779468 26.251377"></polygon>
                                    <polygon id="Fill-75" fill="#EFEFEF" points="31.300552 28.4386225 31.2052176 28.4937277 32.8618187 29.4527576 32.8618187 29.343543 31.300552 28.4396184"></polygon>
                                    <polygon id="Fill-77" fill="#B5B5B5" points="31.300552 25.7699865 31.5681835 25.1767756 31.9414112 24.9606702 31.9397561 24.9605042 31.4728491 25.2308849 31.2052176 25.8240959 31.2052176 28.4937111 31.300552 28.4386059"></polygon>
                                    <polygon id="Fill-79" fill="#EFEFEF" points="32.9569545 27.0483777 32.8617856 27.102487 34.8914488 28.2776223 34.8914488 28.1684078"></polygon>
                                    <polygon id="Fill-81" fill="#B3B3B3" points="34.8913661 28.1684244 34.8913661 26.3594131 32.5861268 25.0247715 31.9414608 24.9607034 31.5682332 25.1768088 31.3006016 25.7700197 31.3006016 28.439635 32.8617028 29.3435596 32.8617028 27.1025036 32.9568717 27.0483943"></polygon>
                                    <polygon id="Fill-83" fill="#CFCFCF" points="31.7208014 25.0874288 31.8305352 25.0236926 31.8305352 28.8556627 31.7208014 28.7919266"></polygon>
                                    <polygon id="Fill-85" fill="#B5B5B5" points="31.9259028 24.9678073 31.8305683 25.0219166 31.8305683 28.8557125 31.9259028 28.8006073"></polygon>
                                    <polygon id="Fill-87" fill="#CFCFCF" points="32.2362362 24.9898494 32.3461356 25.001468 32.3461356 29.1542766 32.2362362 29.0905404"></polygon>
                                    <polygon id="Fill-89" fill="#B5B5B5" points="32.4413542 25.0117255 32.3461852 25.0014348 32.3461852 29.1542434 32.4413542 29.0989722"></polygon>
                                    <polygon id="Fill-91" fill="#CFCFCF" points="32.8617525 25.1841949 32.9714864 25.247931 32.9714864 27.1678166 32.8617525 27.1040804"></polygon>
                                    <polygon id="Fill-93" fill="#B5B5B5" points="33.0668705 25.303003 32.971536 25.2478978 32.971536 27.1677834 33.0668705 27.1126782"></polygon>
                                    <polygon id="Fill-95" fill="#CFCFCF" points="34.1409054 25.9241317 34.2508048 25.9878679 34.2508048 27.9077535 34.1409054 27.8440173"></polygon>
                                    <polygon id="Fill-97" fill="#B5B5B5" points="34.3460234 26.0429399 34.2508545 25.9878347 34.2508545 27.9077203 34.3460234 27.8524491"></polygon>
                                    <polygon id="Fill-99" fill="#CFCFCF" points="33.5013372 25.5542463 33.6112366 25.6178165 33.6112366 27.537702 33.5013372 27.4741319"></polygon>
                                    <polygon id="Fill-101" fill="#B5B5B5" points="33.7064386 25.6728885 33.6112697 25.6177833 33.6112697 27.5376688 33.7064386 27.4825636"></polygon>
                                    <polygon id="Fill-103" fill="#666666" points="37.6319991 26.9653879 37.6319991 24.9701476 35.4927674 26.2085211 35.4927674 28.2039274"></polygon>
                                    <polygon id="Fill-105" fill="#CCCCCC" points="37.5337185 25.0266471 37.6328597 24.9692181 37.6328597 26.9649564 37.5337185 26.9075274"></polygon>
                                    <polygon id="Fill-107" fill="#CFCFCF" points="37.5337185 26.9075274 35.4928005 28.0849864 35.4928005 28.2039938 37.6328597 26.9649564"></polygon>
                                    <path d="M35.6280893,26.2066455 L35.7762218,26.1206681 L35.7762218,26.2285548 L35.6280893,26.3142003 L35.6280893,26.2066455 Z M35.6280893,26.3266488 L35.7762218,26.2408373 L35.7762218,26.3483921 L35.6280893,26.4342035 L35.6280893,26.3266488 Z M35.6280893,26.446486 L35.7762218,26.3608406 L35.7762218,26.4685613 L35.6280893,26.5543727 L35.6280893,26.446486 Z M35.6280893,26.5666552 L35.7762218,26.4806778 L35.7762218,26.5885645 L35.6280893,26.67421 L35.6280893,26.5666552 Z M35.6280893,26.6866584 L35.7762218,26.600847 L35.7762218,26.7084018 L35.6280893,26.7943792 L35.6280893,26.6866584 Z M35.6280893,26.8066617 L35.7762218,26.7208502 L35.7762218,26.828571 L35.6280893,26.9143824 L35.6280893,26.8066617 Z M35.6280893,26.9266649 L35.7762218,26.8408534 L35.7762218,26.9485742 L35.6280893,27.0342196 L35.6280893,26.9266649 Z M35.6280893,27.0466681 L35.7762218,26.9608567 L35.7762218,27.0685774 L35.6280893,27.1543888 L35.6280893,27.0466681 Z M35.6280893,27.1666713 L35.7762218,27.0810259 L35.7762218,27.1885806 L35.6280893,27.2743921 L35.6280893,27.1666713 Z M35.6280893,27.2866745 L35.7762218,27.2008631 L35.7762218,27.3085838 L35.6280893,27.3943953 L35.6280893,27.2866745 Z M35.6280893,27.4066778 L35.7762218,27.3208663 L35.7762218,27.4285871 L35.6280893,27.5143985 L35.6280893,27.4066778 Z M35.6280893,27.526681 L35.7762218,27.4410355 L35.7762218,27.5485903 L35.6280893,27.6345677 L35.6280893,27.526681 Z M35.6280893,27.6468502 L35.7762218,27.5608728 L35.7762218,27.6687595 L35.6280893,27.7544049 L35.6280893,27.6468502 Z M35.6280893,27.7666874 L35.7762218,27.681042 L35.7762218,27.7885967 L35.6280893,27.8744082 L35.6280893,27.7666874 Z M35.6280893,27.8866907 L35.7762218,27.8008792 L35.7762218,27.9087659 L35.6280893,27.9944114 L35.6280893,27.8866907 Z M35.7868145,26.1145269 L35.934947,26.0288814 L35.934947,26.1364362 L35.7868145,26.2224136 L35.7868145,26.1145269 Z M35.7868145,26.2346961 L35.934947,26.1487187 L35.934947,26.2566054 L35.7868145,26.3422508 L35.7868145,26.2346961 Z M35.7868145,26.3546993 L35.934947,26.2688879 L35.934947,26.3764426 L35.7868145,26.4622541 L35.7868145,26.3546993 Z M35.7868145,26.4747025 L35.934947,26.3888911 L35.934947,26.4966118 L35.7868145,26.5824233 L35.7868145,26.4747025 Z M35.7868145,26.5947058 L35.934947,26.5088943 L35.934947,26.6166151 L35.7868145,26.7022605 L35.7868145,26.5947058 Z M35.7868145,26.714709 L35.934947,26.6288975 L35.934947,26.7364523 L35.7868145,26.8224297 L35.7868145,26.714709 Z M35.7868145,26.8347122 L35.934947,26.7490668 L35.934947,26.8566215 L35.7868145,26.9424329 L35.7868145,26.8347122 Z M35.7868145,26.9547154 L35.934947,26.868904 L35.934947,26.9766247 L35.7868145,27.0622702 L35.7868145,26.9547154 Z M35.7868145,27.0747186 L35.934947,26.9889072 L35.934947,27.0966279 L35.7868145,27.1824394 L35.7868145,27.0747186 Z M35.7868145,27.1947219 L35.934947,27.1090764 L35.934947,27.2166312 L35.7868145,27.3024426 L35.7868145,27.1947219 Z M35.7868145,27.3147251 L35.934947,27.2289137 L35.934947,27.3368004 L35.7868145,27.4224458 L35.7868145,27.3147251 Z M35.7868145,27.4347283 L35.934947,27.3490829 L35.934947,27.4566376 L35.7868145,27.542449 L35.7868145,27.4347283 Z M35.7868145,27.5547315 L35.934947,27.4689201 L35.934947,27.5766408 L35.7868145,27.6624523 L35.7868145,27.5547315 Z M35.7868145,27.6749007 L35.934947,27.5889233 L35.934947,27.69681 L35.7868145,27.7824555 L35.7868145,27.6749007 Z M35.7868145,27.794738 L35.934947,27.7090925 L35.934947,27.8166473 L35.7868145,27.9026247 L35.7868145,27.794738 Z M35.9457052,26.0227402 L36.0936722,25.9369288 L36.0936722,26.0444835 L35.9457052,26.1302949 L35.9457052,26.0227402 Z M35.9457052,26.1427434 L36.0936722,26.056932 L36.0936722,26.1644867 L35.9457052,26.2504642 L35.9457052,26.1427434 Z M35.9457052,26.2627466 L36.0936722,26.1769352 L36.0936722,26.2846559 L35.9457052,26.3703014 L35.9457052,26.2627466 Z M35.9457052,26.3827499 L36.0936722,26.2969384 L36.0936722,26.4044932 L35.9457052,26.4904706 L35.9457052,26.3827499 Z M35.9457052,26.5027531 L36.0936722,26.4169417 L36.0936722,26.5246624 L35.9457052,26.6104738 L35.9457052,26.5027531 Z M35.9457052,26.6227563 L36.0936722,26.5369449 L36.0936722,26.6446656 L35.9457052,26.7303111 L35.9457052,26.6227563 Z M35.9457052,26.7427595 L36.0936722,26.6569481 L36.0936722,26.7646688 L35.9457052,26.8504803 L35.9457052,26.7427595 Z M35.9457052,26.8627627 L36.0936722,26.7771173 L36.0936722,26.8846721 L35.9457052,26.9704835 L35.9457052,26.8627627 Z M35.9457052,26.982766 L36.0936722,26.8969545 L36.0936722,27.0046753 L35.9457052,27.0904867 L35.9457052,26.982766 Z M35.9457052,27.1027692 L36.0936722,27.0171237 L36.0936722,27.1246785 L35.9457052,27.2104899 L35.9457052,27.1027692 Z M35.9457052,27.2227724 L36.0936722,27.136961 L36.0936722,27.2446817 L35.9457052,27.3304931 L35.9457052,27.2227724 Z M35.9457052,27.3429416 L36.0936722,27.2569642 L36.0936722,27.3648509 L35.9457052,27.4504964 L35.9457052,27.3429416 Z M35.9457052,27.4627789 L36.0936722,27.3771334 L36.0936722,27.4846882 L35.9457052,27.5706656 L35.9457052,27.4627789 Z M35.9457052,27.5827821 L36.0936722,27.4969706 L36.0936722,27.6048574 L35.9457052,27.6905028 L35.9457052,27.5827821 Z M35.9457052,27.7029513 L36.0936722,27.6171399 L36.0936722,27.7246946 L35.9457052,27.810506 L35.9457052,27.7029513 Z M36.1044304,25.9307875 L36.2525629,25.8449761 L36.2525629,25.9526968 L36.1044304,26.0383423 L36.1044304,25.9307875 Z M36.1044304,26.0507907 L36.2525629,25.9649793 L36.2525629,26.0725341 L36.1044304,26.1583455 L36.1044304,26.0507907 Z M36.1044304,26.170794 L36.2525629,26.0849825 L36.2525629,26.1927033 L36.1044304,26.2785147 L36.1044304,26.170794 Z M36.1044304,26.2907972 L36.2525629,26.2049858 L36.2525629,26.3127065 L36.1044304,26.3983519 L36.1044304,26.2907972 Z M36.1044304,26.4106344 L36.2525629,26.324989 L36.2525629,26.4327097 L36.1044304,26.5185211 L36.1044304,26.4106344 Z M36.1044304,26.5308036 L36.2525629,26.4451582 L36.2525629,26.5527129 L36.1044304,26.6385244 L36.1044304,26.5308036 Z M36.1044304,26.6508069 L36.2525629,26.5649954 L36.2525629,26.6727162 L36.1044304,26.7585276 L36.1044304,26.6508069 Z M36.1044304,26.7708101 L36.2525629,26.6849986 L36.2525629,26.7927194 L36.1044304,26.8785308 L36.1044304,26.7708101 Z M36.1044304,26.8908133 L36.2525629,26.8050019 L36.2525629,26.9127226 L36.1044304,26.998534 L36.1044304,26.8908133 Z M36.1044304,27.0108165 L36.2525629,26.9250051 L36.2525629,27.0328918 L36.1044304,27.1185373 L36.1044304,27.0108165 Z M36.1044304,27.1308197 L36.2525629,27.0451743 L36.2525629,27.152729 L36.1044304,27.2385405 L36.1044304,27.1308197 Z M36.1044304,27.250823 L36.2525629,27.1650115 L36.2525629,27.2727323 L36.1044304,27.3585437 L36.1044304,27.250823 Z M36.1044304,27.3709922 L36.2525629,27.2851807 L36.2525629,27.3927355 L36.1044304,27.4785469 L36.1044304,27.3709922 Z M36.1044304,27.4908294 L36.2525629,27.405184 L36.2525629,27.5127387 L36.1044304,27.5987161 L36.1044304,27.4908294 Z M36.1044304,27.6109986 L36.2525629,27.5250212 L36.2525629,27.6329079 L36.1044304,27.7185534 L36.1044304,27.6109986 Z M36.2633211,25.8386689 L36.4112881,25.7530234 L36.4112881,25.8607441 L36.2633211,25.9465556 L36.2633211,25.8386689 Z M36.2633211,25.9588381 L36.4112881,25.8730266 L36.4112881,25.9807474 L36.2633211,26.0663928 L36.2633211,25.9588381 Z M36.2633211,26.0786753 L36.4112881,25.9930299 L36.4112881,26.1005846 L36.2633211,26.186562 L36.2633211,26.0786753 Z M36.2633211,26.1988445 L36.4112881,26.1130331 L36.4112881,26.2207538 L36.2633211,26.3065652 L36.2633211,26.1988445 Z M36.2633211,26.3188477 L36.4112881,26.2330363 L36.4112881,26.340757 L36.2633211,26.4265685 L36.2633211,26.3188477 Z M36.2633211,26.438851 L36.4112881,26.3530395 L36.4112881,26.4607603 L36.2633211,26.5465717 L36.2633211,26.438851 Z M36.2633211,26.5588542 L36.4112881,26.4730427 L36.4112881,26.5807635 L36.2633211,26.6665749 L36.2633211,26.5588542 Z M36.2633211,26.6788574 L36.4112881,26.593046 L36.4112881,26.7009327 L36.2633211,26.7865781 L36.2633211,26.6788574 Z M36.2633211,26.7988606 L36.4112881,26.7130492 L36.4112881,26.8207699 L36.2633211,26.9065814 L36.2633211,26.7988606 Z M36.2633211,26.9188638 L36.4112881,26.8330524 L36.4112881,26.9407731 L36.2633211,27.0265846 L36.2633211,26.9188638 Z M36.2633211,27.039033 L36.4112881,26.9530556 L36.4112881,27.0607764 L36.2633211,27.1465878 L36.2633211,27.039033 Z M36.2633211,27.1588703 L36.4112881,27.0732248 L36.4112881,27.1807796 L36.2633211,27.266757 L36.2633211,27.1588703 Z M36.2633211,27.2790395 L36.4112881,27.1930621 L36.4112881,27.3009488 L36.2633211,27.3865942 L36.2633211,27.2790395 Z M36.2633211,27.3990427 L36.4112881,27.3132313 L36.4112881,27.420786 L36.2633211,27.5065975 L36.2633211,27.3990427 Z M36.2633211,27.51888 L36.4112881,27.4332345 L36.4112881,27.5407893 L36.2633211,27.6267667 L36.2633211,27.51888 Z M36.4220463,25.7467162 L36.5701788,25.6610707 L36.5701788,25.7686255 L36.4220463,25.8546029 L36.4220463,25.7467162 Z M36.4220463,25.8668854 L36.5701788,25.781074 L36.5701788,25.8887947 L36.4220463,25.9746061 L36.4220463,25.8668854 Z M36.4220463,25.9868886 L36.5701788,25.9010772 L36.5701788,26.0087979 L36.4220463,26.0944434 L36.4220463,25.9868886 Z M36.4220463,26.1067259 L36.5701788,26.0210804 L36.5701788,26.1286352 L36.4220463,26.2146126 L36.4220463,26.1067259 Z M36.4220463,26.2268951 L36.5701788,26.1410836 L36.5701788,26.2488044 L36.4220463,26.3346158 L36.4220463,26.2268951 Z M36.4220463,26.3468983 L36.5701788,26.2610868 L36.5701788,26.3688076 L36.4220463,26.454619 L36.4220463,26.3468983 Z M36.4220463,26.4669015 L36.5701788,26.3810901 L36.5701788,26.4888108 L36.4220463,26.5746222 L36.4220463,26.4669015 Z M36.4220463,26.5869047 L36.5701788,26.5010933 L36.5701788,26.608814 L36.4220463,26.6946255 L36.4220463,26.5869047 Z M36.4220463,26.7069079 L36.5701788,26.6210965 L36.5701788,26.7288172 L36.4220463,26.8146287 L36.4220463,26.7069079 Z M36.4220463,26.8269112 L36.5701788,26.7412657 L36.5701788,26.8488205 L36.4220463,26.9346319 L36.4220463,26.8269112 Z M36.4220463,26.9469144 L36.5701788,26.861103 L36.5701788,26.9689897 L36.4220463,27.0546351 L36.4220463,26.9469144 Z M36.4220463,27.0670836 L36.5701788,26.9812722 L36.5701788,27.0888269 L36.4220463,27.1746383 L36.4220463,27.0670836 Z M36.4220463,27.1869208 L36.5701788,27.1012754 L36.5701788,27.2088301 L36.4220463,27.2948075 L36.4220463,27.1869208 Z M36.4220463,27.30709 L36.5701788,27.2211126 L36.5701788,27.3289993 L36.4220463,27.4146448 L36.4220463,27.30709 Z M36.4220463,27.4270933 L36.5701788,27.3412818 L36.5701788,27.4488366 L36.4220463,27.534648 L36.4220463,27.4270933 Z M36.580937,25.6549295 L36.7290695,25.5691181 L36.7290695,25.6768388 L36.580937,25.7624842 L36.580937,25.6549295 Z M36.580937,25.7747667 L36.7290695,25.6891213 L36.7290695,25.796676 L36.580937,25.8826534 L36.580937,25.7747667 Z M36.580937,25.8949359 L36.7290695,25.8091245 L36.7290695,25.9168452 L36.580937,26.0026567 L36.580937,25.8949359 Z M36.580937,26.0149392 L36.7290695,25.9291277 L36.7290695,26.0368485 L36.580937,26.1224939 L36.580937,26.0149392 Z M36.580937,26.1349424 L36.7290695,26.0491309 L36.7290695,26.1568517 L36.580937,26.2426631 L36.580937,26.1349424 Z M36.580937,26.2549456 L36.7290695,26.1691342 L36.7290695,26.2768549 L36.580937,26.3625004 L36.580937,26.2549456 Z M36.580937,26.3749488 L36.7290695,26.2891374 L36.7290695,26.3968581 L36.580937,26.4826696 L36.580937,26.3749488 Z M36.580937,26.494952 L36.7290695,26.4093066 L36.7290695,26.5168613 L36.580937,26.6026728 L36.580937,26.494952 Z M36.580937,26.6149553 L36.7290695,26.5291438 L36.7290695,26.6368646 L36.580937,26.722676 L36.580937,26.6149553 Z M36.580937,26.7351245 L36.7290695,26.6491471 L36.7290695,26.7568678 L36.580937,26.8426792 L36.580937,26.7351245 Z M36.580937,26.8549617 L36.7290695,26.7693163 L36.7290695,26.876871 L36.580937,26.9628484 L36.580937,26.8549617 Z M36.580937,26.9751309 L36.7290695,26.8891535 L36.7290695,26.9970402 L36.580937,27.0826857 L36.580937,26.9751309 Z M36.580937,27.0951341 L36.7290695,27.0093227 L36.7290695,27.1168775 L36.580937,27.2026889 L36.580937,27.0951341 Z M36.580937,27.2149714 L36.7290695,27.1293259 L36.7290695,27.2370467 L36.580937,27.3228581 L36.580937,27.2149714 Z M36.580937,27.3351406 L36.7290695,27.2493291 L36.7290695,27.3570499 L36.580937,27.4426953 L36.580937,27.3351406 Z M36.7398277,25.5629768 L36.8877947,25.4769994 L36.8877947,25.5848861 L36.7398277,25.6706975 L36.7398277,25.5629768 Z M36.7398277,25.68298 L36.8877947,25.5971686 L36.8877947,25.7048893 L36.7398277,25.7905348 L36.7398277,25.68298 Z M36.7398277,25.8028173 L36.8877947,25.7171718 L36.8877947,25.8248926 L36.7398277,25.910704 L36.7398277,25.8028173 Z M36.7398277,25.9229865 L36.8877947,25.837175 L36.8877947,25.9448958 L36.7398277,26.0305412 L36.7398277,25.9229865 Z M36.7398277,26.0429897 L36.8877947,25.9571783 L36.8877947,26.064899 L36.7398277,26.1507104 L36.7398277,26.0429897 Z M36.7398277,26.1629929 L36.8877947,26.0771815 L36.8877947,26.1849022 L36.7398277,26.2707137 L36.7398277,26.1629929 Z M36.7398277,26.2829961 L36.8877947,26.1971847 L36.8877947,26.3049054 L36.7398277,26.3905509 L36.7398277,26.2829961 Z M36.7398277,26.4029994 L36.8877947,26.3171879 L36.8877947,26.4249087 L36.7398277,26.5107201 L36.7398277,26.4029994 Z M36.7398277,26.5230026 L36.8877947,26.4373571 L36.8877947,26.5449119 L36.7398277,26.6307233 L36.7398277,26.5230026 Z M36.7398277,26.6430058 L36.8877947,26.5571944 L36.8877947,26.6650811 L36.7398277,26.7507265 L36.7398277,26.6430058 Z M36.7398277,26.763175 L36.8877947,26.6773636 L36.8877947,26.7849183 L36.7398277,26.8707298 L36.7398277,26.763175 Z M36.7398277,26.8830123 L36.8877947,26.7973668 L36.8877947,26.9049216 L36.7398277,26.990899 L36.7398277,26.8830123 Z M36.7398277,27.0031815 L36.8877947,26.91737 L36.8877947,27.0250908 L36.7398277,27.1107362 L36.7398277,27.0031815 Z M36.7398277,27.1230187 L36.8877947,27.0373732 L36.8877947,27.144928 L36.7398277,27.2307394 L36.7398277,27.1230187 Z M36.7398277,27.2431879 L36.8877947,27.1573765 L36.8877947,27.2650972 L36.7398277,27.3509086 L36.7398277,27.2431879 Z M36.8985529,25.4708582 L37.0466854,25.3852127 L37.0466854,25.4929334 L36.8985529,25.5787449 L36.8985529,25.4708582 Z M36.8985529,25.5910274 L37.0466854,25.5052159 L37.0466854,25.6129367 L36.8985529,25.6985821 L36.8985529,25.5910274 Z M36.8985529,25.7110306 L37.0466854,25.6252191 L37.0466854,25.7329399 L36.8985529,25.8187513 L36.8985529,25.7110306 Z M36.8985529,25.8310338 L37.0466854,25.7452224 L37.0466854,25.8529431 L36.8985529,25.9387545 L36.8985529,25.8310338 Z M36.8985529,25.951037 L37.0466854,25.8652256 L37.0466854,25.9729463 L36.8985529,26.0585918 L36.8985529,25.951037 Z M36.8985529,26.0710402 L37.0466854,25.9852288 L37.0466854,26.0929495 L36.8985529,26.178761 L36.8985529,26.0710402 Z M36.8985529,26.1910435 L37.0466854,26.105398 L37.0466854,26.2129528 L36.8985529,26.2987642 L36.8985529,26.1910435 Z M36.8985529,26.3110467 L37.0466854,26.2252353 L37.0466854,26.332956 L36.8985529,26.4187674 L36.8985529,26.3110467 Z M36.8985529,26.4312159 L37.0466854,26.3452385 L37.0466854,26.4529592 L36.8985529,26.5387706 L36.8985529,26.4312159 Z M36.8985529,26.5510531 L37.0466854,26.4654077 L37.0466854,26.5729624 L36.8985529,26.6589398 L36.8985529,26.5510531 Z M36.8985529,26.6712223 L37.0466854,26.5852449 L37.0466854,26.6931316 L36.8985529,26.7787771 L36.8985529,26.6712223 Z M36.8985529,26.7910596 L37.0466854,26.7054141 L37.0466854,26.8129689 L36.8985529,26.8987803 L36.8985529,26.7910596 Z M36.8985529,26.9112288 L37.0466854,26.8254173 L37.0466854,26.9329721 L36.8985529,27.0189495 L36.8985529,26.9112288 Z M36.8985529,27.031232 L37.0466854,26.9454206 L37.0466854,27.0531413 L36.8985529,27.1387868 L36.8985529,27.031232 Z M36.8985529,27.1510692 L37.0466854,27.0654238 L37.0466854,27.1729785 L36.8985529,27.258956 L36.8985529,27.1510692 Z M37.0574436,25.3790715 L37.2054106,25.29326 L37.2054106,25.4009808 L37.0574436,25.4866262 L37.0574436,25.3790715 Z M37.0574436,25.4990747 L37.2054106,25.4132632 L37.2054106,25.520984 L37.0574436,25.6067954 L37.0574436,25.4990747 Z M37.0574436,25.6190779 L37.2054106,25.5332665 L37.2054106,25.6409872 L37.0574436,25.7266327 L37.0574436,25.6190779 Z M37.0574436,25.7390811 L37.2054106,25.6532697 L37.2054106,25.7608244 L37.0574436,25.8468019 L37.0574436,25.7390811 Z M37.0574436,25.8590843 L37.2054106,25.7732729 L37.2054106,25.8809937 L37.0574436,25.9668051 L37.0574436,25.8590843 Z M37.0574436,25.9790876 L37.2054106,25.8932761 L37.2054106,26.0009969 L37.0574436,26.0868083 L37.0574436,25.9790876 Z M37.0574436,26.0992568 L37.2054106,26.0132794 L37.2054106,26.1210001 L37.0574436,26.2068115 L37.0574436,26.0992568 Z M37.0574436,26.219094 L37.2054106,26.1334486 L37.2054106,26.2410033 L37.0574436,26.3268147 L37.0574436,26.219094 Z M37.0574436,26.3390972 L37.2054106,26.2532858 L37.2054106,26.3611725 L37.0574436,26.446818 L37.0574436,26.3390972 Z M37.0574436,26.4591005 L37.2054106,26.373455 L37.2054106,26.4810098 L37.0574436,26.5668212 L37.0574436,26.4591005 Z M37.0574436,26.5791037 L37.2054106,26.4934582 L37.2054106,26.601013 L37.0574436,26.6869904 L37.0574436,26.5791037 Z M37.0574436,26.6992729 L37.2054106,26.6134614 L37.2054106,26.7211822 L37.0574436,26.8068276 L37.0574436,26.6992729 Z M37.0574436,26.8191101 L37.2054106,26.7334647 L37.2054106,26.8410194 L37.0574436,26.9268309 L37.0574436,26.8191101 Z M37.0574436,26.9392793 L37.2054106,26.8533019 L37.2054106,26.9611886 L37.0574436,27.0468341 L37.0574436,26.9392793 Z M37.0574436,27.0592825 L37.2054106,26.9734711 L37.2054106,27.0811919 L37.0574436,27.1668373 L37.0574436,27.0592825 Z M37.2161688,25.2871188 L37.3643013,25.2013074 L37.3643013,25.3090281 L37.2161688,25.3946735 L37.2161688,25.2871188 Z M37.2161688,25.407122 L37.3643013,25.3213106 L37.3643013,25.4288653 L37.2161688,25.5148427 L37.2161688,25.407122 Z M37.2161688,25.5271252 L37.3643013,25.4413138 L37.3643013,25.5490345 L37.2161688,25.634846 L37.2161688,25.5271252 Z M37.2161688,25.6471284 L37.3643013,25.561317 L37.3643013,25.6690378 L37.2161688,25.7546832 L37.2161688,25.6471284 Z M37.2161688,25.7672977 L37.3643013,25.6813202 L37.3643013,25.789041 L37.2161688,25.8748524 L37.2161688,25.7672977 Z M37.2161688,25.8871349 L37.3643013,25.8014894 L37.3643013,25.9090442 L37.2161688,25.9948556 L37.2161688,25.8871349 Z M37.2161688,26.0071381 L37.3643013,25.9213267 L37.3643013,26.0290474 L37.2161688,26.1148589 L37.2161688,26.0071381 Z M37.2161688,26.1271413 L37.3643013,26.0414959 L37.3643013,26.1490506 L37.2161688,26.2348621 L37.2161688,26.1271413 Z M37.2161688,26.2471446 L37.3643013,26.1614991 L37.3643013,26.2690539 L37.2161688,26.3548653 L37.2161688,26.2471446 Z M37.2161688,26.3673138 L37.3643013,26.2813363 L37.3643013,26.3892231 L37.2161688,26.4748685 L37.2161688,26.3673138 Z M37.2161688,26.487151 L37.3643013,26.4015056 L37.3643013,26.5090603 L37.2161688,26.5948717 L37.2161688,26.487151 Z M37.2161688,26.6071542 L37.3643013,26.5213428 L37.3643013,26.6292295 L37.2161688,26.7150409 L37.2161688,26.6071542 Z M37.2161688,26.7273234 L37.3643013,26.641512 L37.3643013,26.7492327 L37.2161688,26.8348782 L37.2161688,26.7273234 Z M37.2161688,26.8471607 L37.3643013,26.7615152 L37.3643013,26.86907 L37.2161688,26.9550474 L37.2161688,26.8471607 Z M37.2161688,26.9673299 L37.3643013,26.8813525 L37.3643013,26.9892392 L37.2161688,27.0748846 L37.2161688,26.9673299 Z M37.3750596,25.1951661 L37.5230265,25.1093547 L37.5230265,25.2170754 L37.3750596,25.3028868 L37.3750596,25.1951661 Z M37.3750596,25.3151693 L37.5230265,25.2293579 L37.5230265,25.3370786 L37.3750596,25.4227241 L37.3750596,25.3151693 Z M37.3750596,25.4351726 L37.5230265,25.3493611 L37.5230265,25.4569159 L37.3750596,25.5428933 L37.3750596,25.4351726 Z M37.3750596,25.5551758 L37.5230265,25.4695303 L37.5230265,25.5770851 L37.3750596,25.6628965 L37.3750596,25.5551758 Z M37.3750596,25.675179 L37.5230265,25.5893676 L37.5230265,25.6970883 L37.3750596,25.7828997 L37.3750596,25.675179 Z M37.3750596,25.7951822 L37.5230265,25.7093708 L37.5230265,25.8170915 L37.3750596,25.902903 L37.3750596,25.7951822 Z M37.3750596,25.9151854 L37.5230265,25.82954 L37.5230265,25.9370947 L37.3750596,26.0229062 L37.3750596,25.9151854 Z M37.3750596,26.0353546 L37.5230265,25.9493772 L37.5230265,26.0572639 L37.3750596,26.1429094 L37.3750596,26.0353546 Z M37.3750596,26.1551919 L37.5230265,26.0695464 L37.5230265,26.1771012 L37.3750596,26.2629126 L37.3750596,26.1551919 Z M37.3750596,26.2751951 L37.5230265,26.1893837 L37.5230265,26.2971044 L37.3750596,26.3829158 L37.3750596,26.2751951 Z M37.3750596,26.3953643 L37.5230265,26.3095529 L37.5230265,26.4172736 L37.3750596,26.5029191 L37.3750596,26.3953643 Z M37.3750596,26.5152015 L37.5230265,26.4295561 L37.5230265,26.5371109 L37.3750596,26.6230883 L37.3750596,26.5152015 Z M37.3750596,26.6353708 L37.5230265,26.5493933 L37.5230265,26.6572801 L37.3750596,26.7429255 L37.3750596,26.6353708 Z M37.3750596,26.755374 L37.5230265,26.6695625 L37.5230265,26.7772833 L37.3750596,26.8629287 L37.3750596,26.755374 Z M37.3750596,26.8752112 L37.5230265,26.7895658 L37.5230265,26.8972865 L37.3750596,26.9830979 L37.3750596,26.8752112 Z M35.4928667,28.0850362 L37.5283229,26.9065814 C37.5313021,26.9047556 37.5337847,26.9007721 37.5337847,26.8972865 L37.5337847,25.0270288 L37.5230265,25.0331701 L37.5230265,25.0969062 L37.3750596,25.1828836 L37.3750596,25.1188155 L37.3643013,25.1249568 L37.3643013,25.1888589 L37.2161688,25.2748363 L37.2161688,25.2107682 L37.2054106,25.2169094 L37.2054106,25.2809775 L37.0574436,25.366623 L37.0574436,25.3028868 L37.0466854,25.3090281 L37.0466854,25.3729302 L36.8985529,25.4585757 L36.8985529,25.3946735 L36.8877947,25.4009808 L36.8877947,25.4647169 L36.7398277,25.5506943 L36.7398277,25.4866262 L36.7290695,25.4927675 L36.7290695,25.5568356 L36.580937,25.642647 L36.580937,25.5787449 L36.5701788,25.5848861 L36.5701788,25.6487882 L36.4220463,25.7344337 L36.4220463,25.6706975 L36.4112881,25.6768388 L36.4112881,25.7405749 L36.2633211,25.8263864 L36.2633211,25.7624842 L36.2525629,25.7686255 L36.2525629,25.8325276 L36.1044304,25.918505 L36.1044304,25.8544369 L36.0936722,25.8605782 L36.0936722,25.9246463 L35.9457052,26.0102917 L35.9457052,25.9465556 L35.934947,25.9526968 L35.934947,26.016433 L35.7868145,26.1022444 L35.7868145,26.0383423 L35.7762218,26.0444835 L35.7762218,26.1083856 L35.6280893,26.1943631 L35.6280893,26.1302949 L35.6174966,26.1364362 L35.6174966,26.2005043 L35.4928667,26.2723735 L35.4928667,26.2849879 L35.6174966,26.2127868 L35.6174966,26.3205075 L35.4928667,26.3925427 L35.4928667,26.4048251 L35.6174966,26.33279 L35.6174966,26.4403448 L35.4928667,26.5125459 L35.4928667,26.5248284 L35.6174966,26.4526273 L35.6174966,26.560514 L35.4928667,26.6325491 L35.4928667,26.6449976 L35.6174966,26.5727965 L35.6174966,26.6803512 L35.4928667,26.7525523 L35.4928667,26.7648348 L35.6174966,26.6927997 L35.6174966,26.8005204 L35.4928667,26.8727215 L35.4928667,26.885004 L35.6174966,26.8128029 L35.6174966,26.9205236 L35.4928667,26.9925588 L35.4928667,27.0050072 L35.6174966,26.9328061 L35.6174966,27.0403609 L35.4928667,27.112562 L35.4928667,27.1250105 L35.6174966,27.0528093 L35.6174966,27.1605301 L35.4928667,27.2327312 L35.4928667,27.2450137 L35.6174966,27.1728126 L35.6174966,27.2805333 L35.4928667,27.3525684 L35.4928667,27.3650169 L35.6174966,27.2928158 L35.6174966,27.4005365 L35.4928667,27.4727376 L35.4928667,27.4850201 L35.6174966,27.412985 L35.6174966,27.5205397 L35.4928667,27.5927409 L35.4928667,27.6050233 L35.6174966,27.5328222 L35.6174966,27.640543 L35.4928667,27.7127441 L35.4928667,27.7250266 L35.6174966,27.6529914 L35.6174966,27.7605462 L35.4928667,27.8327473 L35.4928667,27.8450298 L35.6174966,27.7729947 L35.6174966,27.8805494 L35.4928667,27.9529165 L35.4928667,27.965199 L35.6174966,27.8928319 L35.6174966,28.0007186 L35.4928667,28.0727537 L35.4928667,28.0850362 Z" id="Fill-109" fill="#333333"></path>
                                    <polygon id="Fill-111" fill="#B3B3B3" points="36.3153413 25.729139 36.2011386 25.7951988 36.2011386 27.790937 36.3153413 27.7247112"></polygon>
                                    <polygon id="Fill-113" fill="#B5B5B5" points="36.1019974 25.852495 36.2011386 25.795232 36.2011386 27.7909702 36.1019974 27.7335413"></polygon>
                                    <polygon id="Fill-115" fill="#B3B3B3" points="37.0310446 25.316132 36.9170074 25.3821919 36.9170074 27.3779301 37.0310446 27.3117043"></polygon>
                                    <polygon id="Fill-117" fill="#B5B5B5" points="36.8178663 25.439488 36.9170074 25.3822251 36.9170074 27.3779633 36.8178663 27.3205344"></polygon>
                                    <polygon id="Fill-119" fill="#C2C2C2" points="45.4910313 18.0240524 45.4910313 18.0240524 45.0873496 17.7903532 44.3413909 17.7163263 43.7703774 18.0467916 43.4613681 18.7317892 43.4613681 19.1991877 43.4613681 21.5496242 45.4910313 22.7245935 45.4910313 20.374489 47.5206946 21.5496242 47.5206946 19.1991877"></polygon>
                                    <polygon id="Fill-121" fill="#B5B5B5" points="45.4910313 22.7246433 42.6035238 24.3978833 42.6035238 22.0476127 45.4910313 20.3745387"></polygon>
                                    <polygon id="Fill-123" fill="#B5B5B5" points="47.5206449 21.5496574 44.6331374 23.2227314 44.6331374 20.8722949 47.5206449 19.1992209"></polygon>
                                    <polygon id="Fill-125" fill="#F2F2F2" points="45.0872669 17.79032 42.1999248 19.463394 44.6331043 20.8722285 47.5206118 19.1991545"></polygon>
                                    <polygon id="Fill-127" fill="#F5F5F5" points="44.3413412 17.7162433 41.4538336 19.3893173 42.1999579 19.4633442 45.0873 17.7902702"></polygon>
                                    <polygon id="Fill-129" fill="#CFCFCF" points="42.6034741 19.697143 42.6034741 19.697143 42.1999579 19.4634437 41.4538336 19.3894169 40.8828202 19.7198822 40.5738108 20.4048798 40.5738108 20.8722783 40.5738108 23.2227148 42.6034741 24.3978501 42.6034741 22.0475795 44.6331374 23.2227148 44.6331374 20.8722783"></polygon>
                                    <polygon id="Fill-131" fill="#EFEFEF" points="40.8557425 23.0595237 40.7605736 23.1146289 42.4170092 24.0736588 42.4170092 23.9644443 40.8557425 23.0605196"></polygon>
                                    <polygon id="Fill-133" fill="#B5B5B5" points="40.8557425 20.3910537 41.1233741 19.7976768 41.4966017 19.5815714 41.4951121 19.5814054 41.0282052 19.8517861 40.7605736 20.4451631 40.7605736 23.1146123 40.8557425 23.0595071"></polygon>
                                    <polygon id="Fill-135" fill="#EFEFEF" points="42.5123106 21.6694449 42.4169761 21.7235542 44.4466394 22.8985235 44.4466394 22.789309"></polygon>
                                    <polygon id="Fill-137" fill="#B3B3B3" points="44.4465732 22.7893256 44.4465732 20.9803144 42.1413339 19.6456727 41.4966679 19.5816046 41.1234403 19.79771 40.8558087 20.3910869 40.8558087 23.0605362 42.4169099 23.9644609 42.4169099 21.7235708 42.5122444 21.6694615"></polygon>
                                    <polygon id="Fill-139" fill="#CFCFCF" points="41.2759919 19.70833 41.3858913 19.6445938 41.3858913 23.4765639 41.2759919 23.4129938"></polygon>
                                    <polygon id="Fill-141" fill="#B5B5B5" points="41.4811099 19.5887085 41.385941 19.6428179 41.385941 23.4766137 41.4811099 23.4215085"></polygon>
                                    <polygon id="Fill-143" fill="#CFCFCF" points="41.7915922 19.6109166 41.9014917 19.6225352 41.9014917 23.7751778 41.7915922 23.7116076"></polygon>
                                    <polygon id="Fill-145" fill="#B5B5B5" points="41.9967102 19.6327927 41.9015413 19.622502 41.9015413 23.7751446 41.9967102 23.7200394"></polygon>
                                    <polygon id="Fill-147" fill="#CFCFCF" points="42.4169596 19.8052621 42.526859 19.8688322 42.526859 21.7887178 42.4169596 21.7251476"></polygon>
                                    <polygon id="Fill-149" fill="#B5B5B5" points="42.622061 19.9239042 42.5268921 19.868799 42.5268921 21.7886846 42.622061 21.7335794"></polygon>
                                    <polygon id="Fill-151" fill="#CFCFCF" points="43.6962615 20.5451989 43.8061609 20.6087691 43.8061609 22.5286547 43.6962615 22.4650845"></polygon>
                                    <polygon id="Fill-153" fill="#B5B5B5" points="43.9013795 20.6638411 43.8062105 20.6087359 43.8062105 22.5286215 43.9013795 22.4735163"></polygon>
                                    <polygon id="Fill-155" fill="#CFCFCF" points="43.0565278 20.1751475 43.1664272 20.2388837 43.1664272 22.1587692 43.0565278 22.0950331"></polygon>
                                    <polygon id="Fill-157" fill="#B5B5B5" points="43.2617947 20.2939557 43.1664603 20.2388505 43.1664603 22.158736 43.2617947 22.1034648"></polygon>
                                    <polygon id="Fill-159" fill="#666666" points="47.1871896 21.5862891 47.1871896 19.5910488 45.0481235 20.8295883 45.0481235 22.8248286"></polygon>
                                    <polygon id="Fill-161" fill="#CCCCCC" points="47.0890912 19.6475483 47.1880668 19.5902853 47.1880668 21.5858576 47.0890912 21.5285946"></polygon>
                                    <polygon id="Fill-163" fill="#CFCFCF" points="47.0890912 21.5285946 45.0481731 22.7060536 45.0481731 22.824895 47.1880668 21.5858576"></polygon>
                                    <path d="M45.1832799,20.8275468 L45.3315779,20.7417353 L45.3315779,20.8494561 L45.1832799,20.9351015 L45.1832799,20.8275468 Z M45.1832799,20.94755 L45.3315779,20.8617386 L45.3315779,20.9692933 L45.1832799,21.0552707 L45.1832799,20.94755 Z M45.1832799,21.0675532 L45.3315779,20.9817418 L45.3315779,21.0894625 L45.1832799,21.1752739 L45.1832799,21.0675532 Z M45.1832799,21.1875564 L45.3315779,21.101745 L45.3315779,21.2094657 L45.1832799,21.2951112 L45.1832799,21.1875564 Z M45.1832799,21.3077256 L45.3315779,21.2217482 L45.3315779,21.329469 L45.1832799,21.4152804 L45.1832799,21.3077256 Z M45.1832799,21.4275629 L45.3315779,21.3419174 L45.3315779,21.4494722 L45.1832799,21.5352836 L45.1832799,21.4275629 Z M45.1832799,21.5475661 L45.3315779,21.4617547 L45.3315779,21.5694754 L45.1832799,21.6552868 L45.1832799,21.5475661 Z M45.1832799,21.6677353 L45.3315779,21.5819239 L45.3315779,21.6894786 L45.1832799,21.7752901 L45.1832799,21.6677353 Z M45.1832799,21.7875725 L45.3315779,21.7019271 L45.3315779,21.8094818 L45.1832799,21.8952933 L45.1832799,21.7875725 Z M45.1832799,21.9077417 L45.3315779,21.8217643 L45.3315779,21.929651 L45.1832799,22.0152965 L45.1832799,21.9077417 Z M45.1832799,22.027579 L45.3315779,21.9419335 L45.3315779,22.0494883 L45.1832799,22.1352997 L45.1832799,22.027579 Z M45.1832799,22.1475822 L45.3315779,22.0619368 L45.3315779,22.1696575 L45.1832799,22.2554689 L45.1832799,22.1475822 Z M45.1832799,22.2677514 L45.3315779,22.18194 L45.3315779,22.2896607 L45.1832799,22.3753062 L45.1832799,22.2677514 Z M45.1832799,22.3875887 L45.3315779,22.3019432 L45.3315779,22.4096639 L45.1832799,22.4954754 L45.1832799,22.3875887 Z M45.1832799,22.5077579 L45.3315779,22.4217804 L45.3315779,22.5296672 L45.1832799,22.6153126 L45.1832799,22.5077579 Z M45.3421706,20.7355941 L45.4901376,20.6497827 L45.4901376,20.7575034 L45.3421706,20.8433148 L45.3421706,20.7355941 Z M45.3421706,20.8555973 L45.4901376,20.7697859 L45.4901376,20.8775066 L45.3421706,20.9631521 L45.3421706,20.8555973 Z M45.3421706,20.9756005 L45.4901376,20.8897891 L45.4901376,20.9975098 L45.3421706,21.0833213 L45.3421706,20.9756005 Z M45.3421706,21.0956038 L45.4901376,21.0099583 L45.4901376,21.1175131 L45.3421706,21.2033245 L45.3421706,21.0956038 Z M45.3421706,21.215607 L45.4901376,21.1297955 L45.4901376,21.2375163 L45.3421706,21.3233277 L45.3421706,21.215607 Z M45.3421706,21.3357762 L45.4901376,21.2499647 L45.4901376,21.3575195 L45.3421706,21.4433309 L45.3421706,21.3357762 Z M45.3421706,21.4556134 L45.4901376,21.369968 L45.4901376,21.4775227 L45.3421706,21.5633342 L45.3421706,21.4556134 Z M45.3421706,21.5757826 L45.4901376,21.4898052 L45.4901376,21.5976919 L45.3421706,21.6833374 L45.3421706,21.5757826 Z M45.3421706,21.6956199 L45.4901376,21.6099744 L45.4901376,21.7175292 L45.3421706,21.8033406 L45.3421706,21.6956199 Z M45.3421706,21.8156231 L45.4901376,21.7299776 L45.4901376,21.8375324 L45.3421706,21.9235098 L45.3421706,21.8156231 Z M45.3421706,21.9357923 L45.4901376,21.8499809 L45.4901376,21.9577016 L45.3421706,22.043347 L45.3421706,21.9357923 Z M45.3421706,22.0556295 L45.4901376,21.9699841 L45.4901376,22.0775388 L45.3421706,22.1635162 L45.3421706,22.0556295 Z M45.3421706,22.1757987 L45.4901376,22.0898213 L45.4901376,22.197708 L45.3421706,22.2833535 L45.3421706,22.1757987 Z M45.3421706,22.295802 L45.4901376,22.2099905 L45.4901376,22.3177113 L45.3421706,22.4035227 L45.3421706,22.295802 Z M45.3421706,22.4158052 L45.4901376,22.3299937 L45.4901376,22.4377145 L45.3421706,22.5235259 L45.3421706,22.4158052 Z M45.5008958,20.6436414 L45.6490283,20.55783 L45.6490283,20.6653847 L45.5008958,20.7513621 L45.5008958,20.6436414 Z M45.5008958,20.7636446 L45.6490283,20.6778332 L45.6490283,20.7855539 L45.5008958,20.8713654 L45.5008958,20.7636446 Z M45.5008958,20.8836479 L45.6490283,20.7978364 L45.6490283,20.9055572 L45.5008958,20.9913686 L45.5008958,20.8836479 Z M45.5008958,21.0038171 L45.6490283,20.9178396 L45.6490283,21.0255604 L45.5008958,21.1113718 L45.5008958,21.0038171 Z M45.5008958,21.1236543 L45.6490283,21.0380088 L45.6490283,21.1455636 L45.5008958,21.231375 L45.5008958,21.1236543 Z M45.5008958,21.2436575 L45.6490283,21.1578461 L45.6490283,21.2655668 L45.5008958,21.3513783 L45.5008958,21.2436575 Z M45.5008958,21.3636607 L45.6490283,21.2778493 L45.6490283,21.38557 L45.5008958,21.4713815 L45.5008958,21.3636607 Z M45.5008958,21.483664 L45.6490283,21.3980185 L45.6490283,21.5055733 L45.5008958,21.5915507 L45.5008958,21.483664 Z M45.5008958,21.6038332 L45.6490283,21.5178558 L45.6490283,21.6257425 L45.5008958,21.7113879 L45.5008958,21.6038332 Z M45.5008958,21.7236704 L45.6490283,21.638025 L45.6490283,21.7455797 L45.5008958,21.8313911 L45.5008958,21.7236704 Z M45.5008958,21.8436736 L45.6490283,21.7578622 L45.6490283,21.8657489 L45.5008958,21.9513944 L45.5008958,21.8436736 Z M45.5008958,21.9638428 L45.6490283,21.8780314 L45.6490283,21.9857521 L45.5008958,22.0713976 L45.5008958,21.9638428 Z M45.5008958,22.0836801 L45.6490283,21.9980346 L45.6490283,22.1055894 L45.5008958,22.1915668 L45.5008958,22.0836801 Z M45.5008958,22.2038493 L45.6490283,22.1180378 L45.6490283,22.2257586 L45.5008958,22.311404 L45.5008958,22.2038493 Z M45.5008958,22.3238525 L45.6490283,22.2380411 L45.6490283,22.3455958 L45.5008958,22.4314073 L45.5008958,22.3238525 Z M45.6597865,20.5516887 L45.807919,20.4658773 L45.807919,20.573598 L45.6597865,20.6592435 L45.6597865,20.5516887 Z M45.6597865,20.671692 L45.807919,20.5858805 L45.807919,20.6936013 L45.6597865,20.7794127 L45.6597865,20.671692 Z M45.6597865,20.7916952 L45.807919,20.7060497 L45.807919,20.8136045 L45.6597865,20.8994159 L45.6597865,20.7916952 Z M45.6597865,20.9116984 L45.807919,20.825887 L45.807919,20.9336077 L45.6597865,21.0194191 L45.6597865,20.9116984 Z M45.6597865,21.0317016 L45.807919,20.9458902 L45.807919,21.0536109 L45.6597865,21.1394224 L45.6597865,21.0317016 Z M45.6597865,21.1517048 L45.807919,21.0660594 L45.807919,21.1736141 L45.6597865,21.2595916 L45.6597865,21.1517048 Z M45.6597865,21.2717081 L45.807919,21.1858966 L45.807919,21.2937833 L45.6597865,21.3794288 L45.6597865,21.2717081 Z M45.6597865,21.3917113 L45.807919,21.3060658 L45.807919,21.4136206 L45.6597865,21.499432 L45.6597865,21.3917113 Z M45.6597865,21.5117145 L45.807919,21.4259031 L45.807919,21.5337898 L45.6597865,21.6194352 L45.6597865,21.5117145 Z M45.6597865,21.6318837 L45.807919,21.5460723 L45.807919,21.653793 L45.6597865,21.7394385 L45.6597865,21.6318837 Z M45.6597865,21.751721 L45.807919,21.6660755 L45.807919,21.7736303 L45.6597865,21.8596077 L45.6597865,21.751721 Z M45.6597865,21.8718902 L45.807919,21.7860787 L45.807919,21.8937995 L45.6597865,21.9794449 L45.6597865,21.8718902 Z M45.6597865,21.9918934 L45.807919,21.9060819 L45.807919,22.0136367 L45.6597865,22.0994481 L45.6597865,21.9918934 Z M45.6597865,22.1118966 L45.807919,22.0260852 L45.807919,22.1338059 L45.6597865,22.2196173 L45.6597865,22.1118966 Z M45.6597865,22.2318998 L45.807919,22.1460884 L45.807919,22.2538091 L45.6597865,22.3394546 L45.6597865,22.2318998 Z M45.8185117,20.4597361 L45.9666442,20.3740906 L45.9666442,20.4816454 L45.8185117,20.5674568 L45.8185117,20.4597361 Z M45.8185117,20.5797393 L45.9666442,20.4939278 L45.9666442,20.6016486 L45.8185117,20.68746 L45.8185117,20.5797393 Z M45.8185117,20.6997425 L45.9666442,20.6139311 L45.9666442,20.7216518 L45.8185117,20.8074632 L45.8185117,20.6997425 Z M45.8185117,20.8197457 L45.9666442,20.7341003 L45.9666442,20.841655 L45.8185117,20.9274665 L45.8185117,20.8197457 Z M45.8185117,20.9397489 L45.9666442,20.8539375 L45.9666442,20.9618242 L45.8185117,21.0474697 L45.8185117,20.9397489 Z M45.8185117,21.0597522 L45.9666442,20.9741067 L45.9666442,21.0816615 L45.8185117,21.1674729 L45.8185117,21.0597522 Z M45.8185117,21.1797554 L45.9666442,21.093944 L45.9666442,21.2016647 L45.8185117,21.2874761 L45.8185117,21.1797554 Z M45.8185117,21.2999246 L45.9666442,21.2139472 L45.9666442,21.3218339 L45.8185117,21.4074793 L45.8185117,21.2999246 Z M45.8185117,21.4197618 L45.9666442,21.3341164 L45.9666442,21.4416711 L45.8185117,21.5274826 L45.8185117,21.4197618 Z M45.8185117,21.539931 L45.9666442,21.4539536 L45.9666442,21.5618403 L45.8185117,21.6474858 L45.8185117,21.539931 Z M45.8185117,21.6599343 L45.9666442,21.5741228 L45.9666442,21.6816776 L45.8185117,21.767489 L45.8185117,21.6599343 Z M45.8185117,21.7797715 L45.9666442,21.694126 L45.9666442,21.8018468 L45.8185117,21.8876582 L45.8185117,21.7797715 Z M45.8185117,21.8999407 L45.9666442,21.8141293 L45.9666442,21.92185 L45.8185117,22.0074955 L45.8185117,21.8999407 Z M45.8185117,22.0199439 L45.9666442,21.9341325 L45.9666442,22.0416872 L45.8185117,22.1276647 L45.8185117,22.0199439 Z M45.8185117,22.1399471 L45.9666442,22.0541357 L45.9666442,22.1618564 L45.8185117,22.2476679 L45.8185117,22.1399471 Z M45.9774024,20.3677834 L46.1255349,20.2819719 L46.1255349,20.3896927 L45.9774024,20.4755041 L45.9774024,20.3677834 Z M45.9774024,20.4877866 L46.1255349,20.4021412 L46.1255349,20.5096959 L45.9774024,20.5955073 L45.9774024,20.4877866 Z M45.9774024,20.6077898 L46.1255349,20.5219784 L46.1255349,20.6296991 L45.9774024,20.7155106 L45.9774024,20.6077898 Z M45.9774024,20.727793 L46.1255349,20.6421476 L46.1255349,20.7497023 L45.9774024,20.8355138 L45.9774024,20.727793 Z M45.9774024,20.8477963 L46.1255349,20.7619848 L46.1255349,20.8697056 L45.9774024,20.955517 L45.9774024,20.8477963 Z M45.9774024,20.9679655 L46.1255349,20.8819881 L46.1255349,20.9898748 L45.9774024,21.0755202 L45.9774024,20.9679655 Z M45.9774024,21.0878027 L46.1255349,21.0021573 L46.1255349,21.109712 L45.9774024,21.1955234 L45.9774024,21.0878027 Z M45.9774024,21.2078059 L46.1255349,21.1219945 L46.1255349,21.2298812 L45.9774024,21.3155267 L45.9774024,21.2078059 Z M45.9774024,21.3279751 L46.1255349,21.2421637 L46.1255349,21.3497185 L45.9774024,21.4355299 L45.9774024,21.3279751 Z M45.9774024,21.4478124 L46.1255349,21.3621669 L46.1255349,21.4697217 L45.9774024,21.5556991 L45.9774024,21.4478124 Z M45.9774024,21.5679816 L46.1255349,21.4820042 L46.1255349,21.5898909 L45.9774024,21.6755363 L45.9774024,21.5679816 Z M45.9774024,21.6879848 L46.1255349,21.6021734 L46.1255349,21.7097281 L45.9774024,21.7957055 L45.9774024,21.6879848 Z M45.9774024,21.807988 L46.1255349,21.7221766 L46.1255349,21.8298973 L45.9774024,21.9157088 L45.9774024,21.807988 Z M45.9774024,21.9279912 L46.1255349,21.8421798 L46.1255349,21.9499005 L45.9774024,22.035546 L45.9774024,21.9279912 Z M45.9774024,22.0479945 L46.1255349,21.962183 L46.1255349,22.0699038 L45.9774024,22.1557152 L45.9774024,22.0479945 Z M46.1361276,20.2758307 L46.2842601,20.1900193 L46.2842601,20.29774 L46.1361276,20.3835514 L46.1361276,20.2758307 Z M46.1361276,20.3958339 L46.2842601,20.3100225 L46.2842601,20.4177432 L46.1361276,20.5035547 L46.1361276,20.3958339 Z M46.1361276,20.5158371 L46.2842601,20.4300257 L46.2842601,20.5377465 L46.1361276,20.6235579 L46.1361276,20.5158371 Z M46.1361276,20.6358404 L46.2842601,20.5500289 L46.2842601,20.6579157 L46.1361276,20.7435611 L46.1361276,20.6358404 Z M46.1361276,20.7558436 L46.2842601,20.6701981 L46.2842601,20.7777529 L46.1361276,20.8635643 L46.1361276,20.7558436 Z M46.1361276,20.8758468 L46.2842601,20.7900354 L46.2842601,20.8977561 L46.1361276,20.9835676 L46.1361276,20.8758468 Z M46.1361276,20.996016 L46.2842601,20.9100386 L46.2842601,21.0177593 L46.1361276,21.1035708 L46.1361276,20.996016 Z M46.1361276,21.1158533 L46.2842601,21.0302078 L46.2842601,21.1377626 L46.1361276,21.22374 L46.1361276,21.1158533 Z M46.1361276,21.2360225 L46.2842601,21.150045 L46.2842601,21.2579318 L46.1361276,21.3435772 L46.1361276,21.2360225 Z M46.1361276,21.3560257 L46.2842601,21.2702143 L46.2842601,21.377769 L46.1361276,21.4635804 L46.1361276,21.3560257 Z M46.1361276,21.4758629 L46.2842601,21.3902175 L46.2842601,21.4977722 L46.1361276,21.5837496 L46.1361276,21.4758629 Z M46.1361276,21.5960321 L46.2842601,21.5102207 L46.2842601,21.6179414 L46.1361276,21.7035869 L46.1361276,21.5960321 Z M46.1361276,21.7160353 L46.2842601,21.6302239 L46.2842601,21.7377787 L46.1361276,21.8237561 L46.1361276,21.7160353 Z M46.1361276,21.8360386 L46.2842601,21.7502271 L46.2842601,21.8579479 L46.1361276,21.9437593 L46.1361276,21.8360386 Z M46.1361276,21.9560418 L46.2842601,21.8702304 L46.2842601,21.9779511 L46.1361276,22.0635965 L46.1361276,21.9560418 Z M46.2950183,20.183878 L46.4431508,20.0980666 L46.4431508,20.2057873 L46.2950183,20.2915988 L46.2950183,20.183878 Z M46.2950183,20.3038813 L46.4431508,20.2180698 L46.4431508,20.3259565 L46.2950183,20.411602 L46.2950183,20.3038813 Z M46.2950183,20.4238845 L46.4431508,20.338073 L46.4431508,20.4457938 L46.2950183,20.5316052 L46.2950183,20.4238845 Z M46.2950183,20.5438877 L46.4431508,20.4580763 L46.4431508,20.565797 L46.2950183,20.6516084 L46.2950183,20.5438877 Z M46.2950183,20.6640569 L46.4431508,20.5780795 L46.4431508,20.6858002 L46.2950183,20.7716117 L46.2950183,20.6640569 Z M46.2950183,20.7838941 L46.4431508,20.6982487 L46.4431508,20.8058034 L46.2950183,20.8916149 L46.2950183,20.7838941 Z M46.2950183,20.9038974 L46.4431508,20.8180859 L46.4431508,20.9259726 L46.2950183,21.0116181 L46.2950183,20.9038974 Z M46.2950183,21.0240666 L46.4431508,20.9382551 L46.4431508,21.0458099 L46.2950183,21.1316213 L46.2950183,21.0240666 Z M46.2950183,21.1439038 L46.4431508,21.0582584 L46.4431508,21.1658131 L46.2950183,21.2517905 L46.2950183,21.1439038 Z M46.2950183,21.264073 L46.4431508,21.1780956 L46.4431508,21.2859823 L46.2950183,21.3716278 L46.2950183,21.264073 Z M46.2950183,21.3840762 L46.4431508,21.2982648 L46.4431508,21.4058196 L46.2950183,21.491631 L46.2950183,21.3840762 Z M46.2950183,21.5040795 L46.4431508,21.418268 L46.4431508,21.5259888 L46.2950183,21.6118002 L46.2950183,21.5040795 Z M46.2950183,21.6240827 L46.4431508,21.5382712 L46.4431508,21.645992 L46.2950183,21.7316374 L46.2950183,21.6240827 Z M46.2950183,21.7439199 L46.4431508,21.6582745 L46.4431508,21.7659952 L46.2950183,21.8518066 L46.2950183,21.7439199 Z M46.2950183,21.8640891 L46.4431508,21.7784437 L46.4431508,21.8859984 L46.2950183,21.9718099 L46.2950183,21.8640891 Z M46.453909,20.0919254 L46.601876,20.0061139 L46.601876,20.1138347 L46.453909,20.1996461 L46.453909,20.0919254 Z M46.453909,20.2119286 L46.601876,20.1261171 L46.601876,20.2338379 L46.453909,20.3194833 L46.453909,20.2119286 Z M46.453909,20.3319318 L46.601876,20.2461204 L46.601876,20.3538411 L46.453909,20.4396525 L46.453909,20.3319318 Z M46.453909,20.451935 L46.601876,20.3662896 L46.601876,20.4738443 L46.453909,20.5596558 L46.453909,20.451935 Z M46.453909,20.5719382 L46.601876,20.4861268 L46.601876,20.5938475 L46.453909,20.679659 L46.453909,20.5719382 Z M46.453909,20.6921074 L46.601876,20.60613 L46.601876,20.7138508 L46.453909,20.7996622 L46.453909,20.6921074 Z M46.453909,20.8119447 L46.601876,20.7262992 L46.601876,20.833854 L46.453909,20.9196654 L46.453909,20.8119447 Z M46.453909,20.9321139 L46.601876,20.8461365 L46.601876,20.9540232 L46.453909,21.0396686 L46.453909,20.9321139 Z M46.453909,21.0521171 L46.601876,20.9663057 L46.601876,21.0738604 L46.453909,21.1596719 L46.453909,21.0521171 Z M46.453909,21.1719544 L46.601876,21.0863089 L46.601876,21.1940296 L46.453909,21.2798411 L46.453909,21.1719544 Z M46.453909,21.2921236 L46.601876,21.2063121 L46.601876,21.3140329 L46.453909,21.3996783 L46.453909,21.2921236 Z M46.453909,21.4119608 L46.601876,21.3263153 L46.601876,21.4338701 L46.453909,21.5198475 L46.453909,21.4119608 Z M46.453909,21.53213 L46.601876,21.4464845 L46.601876,21.5540393 L46.453909,21.6398507 L46.453909,21.53213 Z M46.453909,21.6521332 L46.601876,21.5663218 L46.601876,21.6740425 L46.453909,21.759854 L46.453909,21.6521332 Z M46.453909,21.7721364 L46.601876,21.686325 L46.601876,21.7940457 L46.453909,21.8798572 L46.453909,21.7721364 Z M46.6126342,19.9999727 L46.7607667,19.9141612 L46.7607667,20.021882 L46.6126342,20.1076934 L46.6126342,19.9999727 Z M46.6126342,20.1199759 L46.7607667,20.0343304 L46.7607667,20.1418852 L46.6126342,20.2276966 L46.6126342,20.1199759 Z M46.6126342,20.2399791 L46.7607667,20.1541677 L46.7607667,20.2618884 L46.6126342,20.3476999 L46.6126342,20.2399791 Z M46.6126342,20.3601483 L46.7607667,20.2741709 L46.7607667,20.3818916 L46.6126342,20.4677031 L46.6126342,20.3601483 Z M46.6126342,20.4799856 L46.7607667,20.3943401 L46.7607667,20.5018949 L46.6126342,20.5877063 L46.6126342,20.4799856 Z M46.6126342,20.6001548 L46.7607667,20.5141774 L46.7607667,20.6220641 L46.6126342,20.7077095 L46.6126342,20.6001548 Z M46.6126342,20.720158 L46.7607667,20.6343466 L46.7607667,20.7419013 L46.6126342,20.8277127 L46.6126342,20.720158 Z M46.6126342,20.8399952 L46.7607667,20.7543498 L46.7607667,20.8619045 L46.6126342,20.9478819 L46.6126342,20.8399952 Z M46.6126342,20.9601644 L46.7607667,20.874353 L46.7607667,20.9820737 L46.6126342,21.0677192 L46.6126342,20.9601644 Z M46.6126342,21.0800017 L46.7607667,20.9943562 L46.7607667,21.101911 L46.6126342,21.1877224 L46.6126342,21.0800017 Z M46.6126342,21.2001709 L46.7607667,21.1143594 L46.7607667,21.2220802 L46.6126342,21.3078916 L46.6126342,21.2001709 Z M46.6126342,21.3201741 L46.7607667,21.2343627 L46.7607667,21.3420834 L46.6126342,21.4277289 L46.6126342,21.3201741 Z M46.6126342,21.4400113 L46.7607667,21.3543659 L46.7607667,21.4620866 L46.6126342,21.5478981 L46.6126342,21.4400113 Z M46.6126342,21.5601805 L46.7607667,21.4743691 L46.7607667,21.5820898 L46.6126342,21.6677353 L46.6126342,21.5601805 Z M46.6126342,21.6801838 L46.7607667,21.5943723 L46.7607667,21.702259 L46.6126342,21.7879045 L46.6126342,21.6801838 Z M46.7715249,19.90802 L46.9194919,19.8222086 L46.9194919,19.9299293 L46.7715249,20.0155748 L46.7715249,19.90802 Z M46.7715249,20.0281892 L46.9194919,19.9422118 L46.9194919,20.0499325 L46.7715249,20.135744 L46.7715249,20.0281892 Z M46.7715249,20.1480264 L46.9194919,20.062381 L46.9194919,20.1699357 L46.7715249,20.2557472 L46.7715249,20.1480264 Z M46.7715249,20.2680297 L46.9194919,20.1822182 L46.9194919,20.2901049 L46.7715249,20.3757504 L46.7715249,20.2680297 Z M46.7715249,20.3881989 L46.9194919,20.3023874 L46.9194919,20.4099422 L46.7715249,20.4957536 L46.7715249,20.3881989 Z M46.7715249,20.5080361 L46.9194919,20.4223907 L46.9194919,20.5299454 L46.7715249,20.6159228 L46.7715249,20.5080361 Z M46.7715249,20.6282053 L46.9194919,20.5422279 L46.9194919,20.6501146 L46.7715249,20.7357601 L46.7715249,20.6282053 Z M46.7715249,20.7480426 L46.9194919,20.6623971 L46.9194919,20.7699519 L46.7715249,20.8557633 L46.7715249,20.7480426 Z M46.7715249,20.8680458 L46.9194919,20.7824003 L46.9194919,20.8901211 L46.7715249,20.9759325 L46.7715249,20.8680458 Z M46.7715249,20.988215 L46.9194919,20.9024035 L46.9194919,21.0101243 L46.7715249,21.0957697 L46.7715249,20.988215 Z M46.7715249,21.1080522 L46.9194919,21.0224068 L46.9194919,21.1301275 L46.7715249,21.2159389 L46.7715249,21.1080522 Z M46.7715249,21.2282214 L46.9194919,21.14241 L46.9194919,21.2501307 L46.7715249,21.3359422 L46.7715249,21.2282214 Z M46.7715249,21.3482246 L46.9194919,21.2624132 L46.9194919,21.3701339 L46.7715249,21.4559454 L46.7715249,21.3482246 Z M46.7715249,21.4682279 L46.9194919,21.3824164 L46.9194919,21.4901372 L46.7715249,21.5759486 L46.7715249,21.4682279 Z M46.7715249,21.5882311 L46.9194919,21.5024197 L46.9194919,21.6101404 L46.7715249,21.6957858 L46.7715249,21.5882311 Z M46.9302501,19.8160673 L47.0783826,19.7304219 L47.0783826,19.8379766 L46.9302501,19.9237881 L46.9302501,19.8160673 Z M46.9302501,19.9360705 L47.0783826,19.8502591 L47.0783826,19.9579798 L46.9302501,20.0437913 L46.9302501,19.9360705 Z M46.9302501,20.0562397 L47.0783826,19.9702623 L47.0783826,20.0779831 L46.9302501,20.1637945 L46.9302501,20.0562397 Z M46.9302501,20.176077 L47.0783826,20.0904315 L47.0783826,20.1979863 L46.9302501,20.2839637 L46.9302501,20.176077 Z M46.9302501,20.2962462 L47.0783826,20.2102688 L47.0783826,20.3181555 L46.9302501,20.4038009 L46.9302501,20.2962462 Z M46.9302501,20.4160834 L47.0783826,20.330438 L47.0783826,20.4379927 L46.9302501,20.5238042 L46.9302501,20.4160834 Z M46.9302501,20.5360867 L47.0783826,20.4504412 L47.0783826,20.557996 L46.9302501,20.6439734 L46.9302501,20.5360867 Z M46.9302501,20.6562559 L47.0783826,20.5702784 L47.0783826,20.6781652 L46.9302501,20.7638106 L46.9302501,20.6562559 Z M46.9302501,20.7760931 L47.0783826,20.6904476 L47.0783826,20.7980024 L46.9302501,20.8839798 L46.9302501,20.7760931 Z M46.9302501,20.8962623 L47.0783826,20.8102849 L47.0783826,20.9181716 L46.9302501,21.0038171 L46.9302501,20.8962623 Z M46.9302501,21.0162655 L47.0783826,20.9304541 L47.0783826,21.0381748 L46.9302501,21.1238203 L46.9302501,21.0162655 Z M46.9302501,21.1362687 L47.0783826,21.0504573 L47.0783826,21.158178 L46.9302501,21.2439895 L46.9302501,21.1362687 Z M46.9302501,21.256272 L47.0783826,21.1704605 L47.0783826,21.2781813 L46.9302501,21.3638267 L46.9302501,21.256272 Z M46.9302501,21.3762752 L47.0783826,21.2904638 L47.0783826,21.3981845 L46.9302501,21.4839959 L46.9302501,21.3762752 Z M46.9302501,21.4962784 L47.0783826,21.410633 L47.0783826,21.5181877 L46.9302501,21.6039991 L46.9302501,21.4962784 Z M45.0482228,22.7059374 L47.0836789,21.5274826 C47.0866581,21.5256568 47.0891408,21.5216733 47.0891408,21.5181877 L47.0891408,19.64793 L47.0783826,19.6540713 L47.0783826,19.7179734 L46.9302501,19.8037848 L46.9302501,19.7397167 L46.9194919,19.7460239 L46.9194919,19.8099261 L46.7715249,19.8957375 L46.7715249,19.8318354 L46.7607667,19.8379766 L46.7607667,19.9018788 L46.6126342,19.9875242 L46.6126342,19.9237881 L46.601876,19.9299293 L46.601876,19.9938314 L46.453909,20.0796429 L46.453909,20.0155748 L46.4431508,20.021882 L46.4431508,20.0857841 L46.2950183,20.1715955 L46.2950183,20.1076934 L46.2842601,20.1138347 L46.2842601,20.1777368 L46.1361276,20.2635482 L46.1361276,20.1996461 L46.1255349,20.2057873 L46.1255349,20.2696895 L45.9774024,20.3553349 L45.9774024,20.2915988 L45.9666442,20.29774 L45.9666442,20.3616421 L45.8185117,20.4474536 L45.8185117,20.3833855 L45.807919,20.3895267 L45.807919,20.4535948 L45.6597865,20.5394062 L45.6597865,20.4755041 L45.6490283,20.4816454 L45.6490283,20.5455475 L45.5008958,20.6311929 L45.5008958,20.5674568 L45.4901376,20.573598 L45.4901376,20.6373342 L45.3421706,20.7231456 L45.3421706,20.6592435 L45.3315779,20.6653847 L45.3315779,20.7292869 L45.1832799,20.8152643 L45.1832799,20.7513621 L45.1726872,20.7575034 L45.1726872,20.8214055 L45.0482228,20.8934406 L45.0482228,20.9058891 L45.1726872,20.833688 L45.1726872,20.9414087 L45.0482228,21.0134439 L45.0482228,21.0257264 L45.1726872,20.9536912 L45.1726872,21.061412 L45.0482228,21.1336131 L45.0482228,21.1458956 L45.1726872,21.0736945 L45.1726872,21.1814152 L45.0482228,21.2534503 L45.0482228,21.2658988 L45.1726872,21.1936977 L45.1726872,21.3014184 L45.0482228,21.3736195 L45.0482228,21.385902 L45.1726872,21.3138669 L45.1726872,21.4214216 L45.0482228,21.4936227 L45.0482228,21.5059052 L45.1726872,21.4337041 L45.1726872,21.5414249 L45.0482228,21.61346 L45.0482228,21.6259084 L45.1726872,21.5537073 L45.1726872,21.6614281 L45.0482228,21.7336292 L45.0482228,21.7459117 L45.1726872,21.6738765 L45.1726872,21.7814313 L45.0482228,21.8536324 L45.0482228,21.8659149 L45.1726872,21.7937138 L45.1726872,21.9016005 L45.0482228,21.9736356 L45.0482228,21.9859181 L45.1726872,21.913883 L45.1726872,22.0214377 L45.0482228,22.0936388 L45.0482228,22.1059213 L45.1726872,22.0338862 L45.1726872,22.141441 L45.0482228,22.2136421 L45.0482228,22.2260905 L45.1726872,22.1538894 L45.1726872,22.2616102 L45.0482228,22.3336453 L45.0482228,22.3459278 L45.1726872,22.2738927 L45.1726872,22.3814474 L45.0482228,22.4536485 L45.0482228,22.465931 L45.1726872,22.3938959 L45.1726872,22.5016166 L45.0482228,22.5738177 L45.0482228,22.5861002 L45.1726872,22.5138991 L45.1726872,22.6216198 L45.0482228,22.693655 L45.0482228,22.7059374 Z" id="Fill-165" fill="#333333"></path>
                                    <polygon id="Fill-167" fill="#B3B3B3" points="45.8705484 20.3500402 45.7565112 20.4161 45.7565112 22.4118383 45.8705484 22.3456124"></polygon>
                                    <polygon id="Fill-169" fill="#B5B5B5" points="45.6573535 20.4735456 45.7564947 20.4161166 45.7564947 22.4118549 45.6573535 22.3544259"></polygon>
                                    <polygon id="Fill-171" fill="#B3B3B3" points="46.5864172 19.9370332 46.4722145 20.0030931 46.4722145 21.9988313 46.5864172 21.9326055"></polygon>
                                    <polygon id="Fill-173" fill="#B5B5B5" points="46.3732223 20.0605386 46.472198 20.0031097 46.472198 21.9988479 46.3732223 21.941419"></polygon>
                                    <polygon id="Fill-175" fill="#999999" points="5.05021837 24.0417907 5.05021837 25.0808228 5.90971779 25.5785955 5.90971779 25.8740391 4.75726363 25.2068013 4.75726363 23.8721596"></polygon>
                                    <polygon id="Fill-177" fill="#333333" points="5.05021837 24.0417907 5.90971779 24.5393975 5.90971779 25.5785955 5.05021837 25.0808228"></polygon>
                                    <polygon id="Fill-179" fill="#999999" points="7.40100638 25.402209 7.40100638 26.4412411 8.2606713 26.9390138 8.2606713 27.2344574 7.10805164 26.5672195 7.10805164 25.2327439"></polygon>
                                    <polygon id="Fill-181" fill="#333333" points="7.40100638 25.402209 8.2606713 25.8998157 8.2606713 26.9390138 7.40100638 26.4412411"></polygon>
                                    <polygon id="Fill-183" fill="#999999" points="9.75194334 26.7626273 9.75194334 27.8016593 10.6114428 28.299432 10.6114428 28.5948756 9.4589886 27.9276378 9.4589886 26.5931621"></polygon>
                                    <polygon id="Fill-185" fill="#333333" points="9.75194334 26.7626273 10.6114428 27.2604 10.6114428 28.299432 9.75194334 27.8016593"></polygon>
                                    <polygon id="Fill-187" fill="#999999" points="12.1028803 28.123029 12.1028803 29.162227 12.9623797 29.6598337 12.9623797 29.9552773 11.80976 29.2880395 11.80976 27.9535638"></polygon>
                                    <polygon id="Fill-189" fill="#333333" points="12.1028803 28.123029 12.9623797 28.6208017 12.9623797 29.6598337 12.1028803 29.162227"></polygon>
                                    <polygon id="Fill-191" fill="#999999" points="14.4536518 29.4834472 14.4536518 30.5226452 15.3133167 31.020252 15.3133167 31.3156956 14.160697 30.6486237 14.160697 29.3139821"></polygon>
                                    <polygon id="Fill-193" fill="#333333" points="14.4536518 29.4834472 15.3133167 29.9812199 15.3133167 31.020252 14.4536518 30.5226452"></polygon>
                                    <polygon id="Fill-195" fill="#999999" points="16.8045887 30.8438655 16.8045887 31.8830635 17.6640881 32.3806702 17.6640881 32.6761139 16.511634 32.009042 16.511634 30.6744004"></polygon>
                                    <polygon id="Fill-197" fill="#333333" points="16.8045887 30.8438655 17.6640881 31.3416382 17.6640881 32.3806702 16.8045887 31.8830635"></polygon>
                                    <polygon id="Fill-199" fill="#999999" points="19.1553602 32.2044497 19.1553602 33.2434818 20.0150251 33.7412545 20.0150251 34.0366981 18.8624054 33.3694603 18.8624054 32.0348186"></polygon>
                                    <polygon id="Fill-201" fill="#333333" points="19.1553602 32.2044497 20.0150251 32.7020565 20.0150251 33.7412545 19.1553602 33.2434818"></polygon>
                                    <polygon id="Fill-203" fill="#999999" points="21.5062971 33.564868 21.5062971 34.6039001 22.3657965 35.1016728 22.3657965 35.3971164 21.2133424 34.7298785 21.2133424 33.3952369"></polygon>
                                    <polygon id="Fill-205" fill="#333333" points="21.5062971 33.564868 22.3657965 34.0624747 22.3657965 35.1016728 21.5062971 34.6039001"></polygon>
                                    <polygon id="Fill-207" fill="#999999" points="23.8572341 34.9252863 23.8572341 35.9643183 24.7167335 36.462091 24.7167335 36.7575346 23.5641138 36.0902968 23.5641138 34.7558211"></polygon>
                                    <polygon id="Fill-209" fill="#333333" points="23.8572341 34.9252863 24.7167335 35.422893 24.7167335 36.462091 23.8572341 35.9643183"></polygon>
                                    <polygon id="Fill-211" fill="#999999" points="26.2080055 36.2857045 26.2080055 37.3249026 27.0676705 37.8225093 27.0676705 38.1179529 25.9150508 37.4507151 25.9150508 36.1162394"></polygon>
                                    <polygon id="Fill-213" fill="#333333" points="26.2080055 36.2857045 27.0676705 36.7834772 27.0676705 37.8225093 26.2080055 37.3249026"></polygon>
                                    <polygon id="Fill-215" fill="#999999" points="59.2384704 29.5858898 59.2384704 30.6249219 58.378971 31.1226946 58.378971 31.4181382 59.5314252 30.7509003 59.5314252 29.4162587"></polygon>
                                    <polygon id="Fill-217" fill="#333333" points="59.2384704 29.5858898 58.378971 30.0834965 58.378971 31.1226946 59.2384704 30.6249219"></polygon>
                                    <polygon id="Fill-219" fill="#999999" points="56.8875334 30.9463081 56.8875334 31.9853401 56.028034 32.4831128 56.028034 32.7785564 57.1804882 32.1113186 57.1804882 30.7768429"></polygon>
                                    <polygon id="Fill-221" fill="#333333" points="56.8875334 30.9463081 56.028034 31.4439148 56.028034 32.4831128 56.8875334 31.9853401"></polygon>
                                    <polygon id="Fill-223" fill="#999999" points="54.536762 32.3067263 54.536762 33.3459244 53.6770971 33.8435311 53.6770971 34.1389747 54.8297167 33.4717369 54.8297167 32.1372612"></polygon>
                                    <polygon id="Fill-225" fill="#333333" points="54.536762 32.3067263 53.6770971 32.804499 53.6770971 33.8435311 54.536762 33.3459244"></polygon>
                                    <polygon id="Fill-227" fill="#999999" points="52.185825 33.6671446 52.185825 34.7063426 51.3263256 35.2039494 51.3263256 35.499393 52.4787798 34.8321551 52.4787798 33.4976795"></polygon>
                                    <polygon id="Fill-229" fill="#333333" points="52.185825 33.6671446 51.3263256 34.1649173 51.3263256 35.2039494 52.185825 34.7063426"></polygon>
                                    <polygon id="Fill-231" fill="#999999" points="49.8348881 35.0275629 49.8348881 36.0667609 48.9753887 36.5643676 48.9753887 36.8598112 50.1280083 36.1927394 50.1280083 34.8580978"></polygon>
                                    <polygon id="Fill-233" fill="#333333" points="49.8348881 35.0275629 48.9753887 35.5253356 48.9753887 36.5643676 49.8348881 36.0667609"></polygon>
                                    <polygon id="Fill-235" fill="#999999" points="47.4841166 36.3881305 47.4841166 37.4271626 46.6244517 37.9249353 46.6244517 38.2202129 47.7770714 37.5531411 47.7770714 36.2184994"></polygon>
                                    <polygon id="Fill-237" fill="#333333" points="47.4841166 36.3881305 46.6244517 36.8857373 46.6244517 37.9249353 47.4841166 37.4271626"></polygon>
                                    <polygon id="Fill-239" fill="#999999" points="45.1331797 37.7485488 45.1331797 38.7875809 44.2736802 39.2853536 44.2736802 39.5807972 45.4261344 38.9135593 45.4261344 37.5789177"></polygon>
                                    <polygon id="Fill-241" fill="#333333" points="45.1331797 37.7485488 44.2736802 38.2461555 44.2736802 39.2853536 45.1331797 38.7875809"></polygon>
                                    <polygon id="Fill-243" fill="#999999" points="42.7824082 39.1089671 42.7824082 40.1479991 41.9227433 40.6457718 41.9227433 40.9412154 43.075363 40.2739776 43.075363 38.939336"></polygon>
                                    <polygon id="Fill-245" fill="#333333" points="42.7824082 39.1089671 41.9227433 39.6065738 41.9227433 40.6457718 42.7824082 40.1479991"></polygon>
                                    <polygon id="Fill-247" fill="#999999" points="40.4314712 40.4693853 40.4314712 41.5085834 39.5719718 42.0061901 39.5719718 42.3016337 40.724426 41.6343959 40.724426 40.2999202"></polygon>
                                    <polygon id="Fill-249" fill="#333333" points="40.4314712 40.4693853 39.5719718 40.9669921 39.5719718 42.0061901 40.4314712 41.5085834"></polygon>
                                    <polygon id="Fill-251" fill="#999999" points="38.0805343 41.8298036 38.0805343 42.8690016 37.2210349 43.3666084 37.2210349 43.662052 38.3736545 42.9948141 38.3736545 41.6603385"></polygon>
                                    <polygon id="Fill-253" fill="#333333" points="38.0805343 41.8298036 37.2210349 42.3275763 37.2210349 43.3666084 38.0805343 42.8690016"></polygon>
                                    <polygon id="Fill-255" fill="#999999" points="5.05021837 29.9065125 5.05021837 30.9457105 5.90971779 31.4433173 5.90971779 31.7387609 4.75726363 31.0715231 4.75726363 29.7370474"></polygon>
                                    <polygon id="Fill-257" fill="#333333" points="5.05021837 29.9065125 5.90971779 30.4042852 5.90971779 31.4433173 5.05021837 30.9457105"></polygon>
                                    <polygon id="Fill-259" fill="#999999" points="7.40100638 31.2669142 7.40100638 32.3061122 8.2606713 32.8037189 8.2606713 33.0991626 7.10805164 32.4320907 7.10805164 31.0974491"></polygon>
                                    <polygon id="Fill-261" fill="#333333" points="7.40100638 31.2669142 8.2606713 31.7646869 8.2606713 32.8037189 7.40100638 32.3061122"></polygon>
                                    <polygon id="Fill-263" fill="#999999" points="9.75194334 32.6274984 9.75194334 33.6665305 10.6114428 34.1643032 10.6114428 34.4597468 9.4589886 33.792509 9.4589886 32.4578673"></polygon>
                                    <polygon id="Fill-265" fill="#333333" points="9.75194334 32.6274984 10.6114428 33.1251052 10.6114428 34.1643032 9.75194334 33.6665305"></polygon>
                                    <polygon id="Fill-267" fill="#999999" points="12.1028803 33.9879167 12.1028803 35.0269488 12.9623797 35.5247215 12.9623797 35.8201651 11.80976 35.1529272 11.80976 33.8182856"></polygon>
                                    <polygon id="Fill-269" fill="#333333" points="12.1028803 33.9879167 12.9623797 34.4855234 12.9623797 35.5247215 12.1028803 35.0269488"></polygon>
                                    <polygon id="Fill-271" fill="#999999" points="14.4536518 35.348335 14.4536518 36.387367 15.3133167 36.8851397 15.3133167 37.1805833 14.160697 36.5133455 14.160697 35.1788699"></polygon>
                                    <polygon id="Fill-273" fill="#333333" points="14.4536518 35.348335 15.3133167 35.8459417 15.3133167 36.8851397 14.4536518 36.387367"></polygon>
                                    <polygon id="Fill-275" fill="#999999" points="16.8045887 36.7087533 16.8045887 37.7479513 17.6640881 38.245558 17.6640881 38.5410016 16.511634 37.8737638 16.511634 36.5392881"></polygon>
                                    <polygon id="Fill-277" fill="#333333" points="16.8045887 36.7087533 17.6640881 37.206526 17.6640881 38.245558 16.8045887 37.7479513"></polygon>
                                    <polygon id="Fill-279" fill="#CCCCCC" points="25.6982312 51.5781815 25.6982312 41.326786 26.0209779 41.1402249 26.0209779 52.1395244 19.1292591 48.1400809 19.4521713 47.9535199"></polygon>
                                    <polygon id="Fill-281" fill="#B3B3B3" points="26.021011 41.1402747 25.6982643 41.3268358 19.4522044 37.7021741 19.4522044 47.9535697 19.1291266 48.1401307 19.1291266 37.1408312"></polygon>
                                    <polygon id="Fill-283" fill="#666666" points="25.9964326 43.2579747 19.4519561 39.4601964 19.4519561 47.9797613 25.9964326 51.7775396"></polygon>
                                    <polygon id="Fill-285" fill="#545454" points="19.4519561 45.7873705 25.9964326 49.5853147 25.9964326 48.4910115 19.4519561 44.6932332"></polygon>
                                    <polygon id="Fill-287" fill="#545454" points="19.4519561 47.9757446 25.9964326 51.7735229 25.9964326 50.6793856 19.4519561 46.8816073"></polygon>
                                    <polygon id="Fill-289" fill="#545454" points="19.4519561 43.5990129 25.9964326 47.3967913 25.9964326 46.302654 19.4519561 42.5048757"></polygon>
                                    <polygon id="Fill-291" fill="#545454" points="19.4519561 41.4106388 25.9964326 45.2084171 25.9964326 44.1142799 19.4519561 40.3165016"></polygon>
                                    <polygon id="Fill-293" fill="#666666" points="25.9964326 41.1402747 19.4519561 37.3424964 19.4519561 45.8618953 25.9964326 49.6598396"></polygon>
                                    <polygon id="Fill-295" fill="#545454" points="19.4519561 43.669687 25.9964326 47.4674654 25.9964326 46.3733281 19.4519561 42.5753838"></polygon>
                                    <polygon id="Fill-297" fill="#545454" points="19.4519561 45.8580445 25.9964326 49.6558229 25.9964326 48.5615196 19.4519561 44.7637413"></polygon>
                                    <polygon id="Fill-299" fill="#545454" points="19.4519561 41.4813129 25.9964326 45.2790912 25.9964326 44.184954 19.4519561 40.3870097"></polygon>
                                    <polygon id="Fill-301" fill="#545454" points="19.4519561 39.2929388 25.9964326 43.0907171 25.9964326 41.9965799 19.4519561 38.1986356"></polygon>
                                    <polygon id="Fill-303" fill="#999999" points="26.021011 52.1395078 26.021011 52.8837602 21.6611163 55.4079773 21.6611163 55.2026606 24.5598786 52.9856716"></polygon>
                                    <polygon id="Fill-305" fill="#CCCCCC" points="19.1291763 48.1498239 26.0210607 52.1394746 24.5599282 52.9856384 17.6680438 48.9959877"></polygon>
                                    <polygon id="Fill-307" fill="#B3B3B3" points="14.7693146 51.2129933 21.661199 55.202644 24.5597958 52.985655 17.6680769 48.9960043"></polygon>
                                    <polygon id="Fill-309" fill="#808080" points="14.7693146 51.4183598 21.661199 55.4080105 21.661199 55.2026938 14.7693146 51.2130431"></polygon>
                                    <polygon id="Fill-311" fill="#666666" points="40.3146038 50.3224798 37.9337259 51.701106 37.9337259 46.114234 40.3146038 44.7314583"></polygon>
                                    <polygon id="Fill-313" fill="#004E74" points="38.4398424 48.1605296 39.1242311 47.7643364 39.1242311 45.8195539 38.4398424 46.2159131"></polygon>
                                    <path d="M38.531966,49.1682413 L38.5200492,49.1752125 C38.4756922,49.2007733 38.4397762,49.1735527 38.4397762,49.114298 L38.4397762,48.6762779 C38.4397762,48.6171892 38.4756922,48.5483077 38.5200492,48.5224148 L38.531966,48.5156097 C38.5764885,48.4898828 38.6122389,48.5171035 38.6122389,48.5765242 L38.6122389,49.0143783 C38.6122389,49.0737989 38.5764885,49.1426805 38.531966,49.1682413" id="Fill-315" fill="#808080"></path>
                                    <polygon id="Fill-317" fill="#CCCCCC" points="40.6942864 50.5422699 40.3146038 50.322513 37.9337259 51.7009732 37.9337259 52.1454665"></polygon>
                                    <polygon id="Fill-319" fill="#B3B3B3" points="40.6942864 44.5110872 40.6942864 50.5422865 40.3146038 50.3225296 40.3146038 44.7315081"></polygon>
                                    <polygon id="Fill-321" fill="#999999" points="39.5292369 53.8709402 37.9337093 52.1454167 40.6942699 50.5422201 42.2897974 52.2677436"></polygon>
                                    <polygon id="Fill-323" fill="#808080" points="37.933759 52.9308154 37.933759 52.1455661 39.5292865 53.8544916"></polygon>
                                </g>
                            </g>
                        </g>
                    </g>
                </g>
            </g>
        </g>
    </g>
</svg>