<?xml version="1.0" encoding="UTF-8"?>
<svg width="557px" height="332px" viewBox="0 0 557 332" version="1.1" xmlns="http://www.w3.org/2000/svg"
    xmlns:xlink="http://www.w3.org/1999/xlink">
    <title>能流图4</title>
    <defs>
        <linearGradient x1="74.1912994%" y1="13.3125477%" x2="25.8979096%" y2="89.6704124%" id="linearGradient-1">
            <stop stop-color="#C5C5C5" offset="0%"></stop>
            <stop stop-color="#666666" offset="100%"></stop>
        </linearGradient>
        <linearGradient x1="28.1371222%" y1="88.3466961%" x2="73.9699097%" y2="14.641145%" id="linearGradient-2">
            <stop stop-color="#B6B6B6" offset="0%"></stop>
            <stop stop-color="#FBFBFB" offset="100%"></stop>
        </linearGradient>
        <linearGradient x1="74.1912994%" y1="13.30122%" x2="25.8979096%" y2="89.6826611%" id="linearGradient-3">
            <stop stop-color="#C5C5C5" offset="0%"></stop>
            <stop stop-color="#666666" offset="100%"></stop>
        </linearGradient>
        <linearGradient x1="28.1371222%" y1="88.340244%" x2="73.9699097%" y2="14.6470944%" id="linearGradient-4">
            <stop stop-color="#B6B6B6" offset="0%"></stop>
            <stop stop-color="#FBFBFB" offset="100%"></stop>
        </linearGradient>
        <linearGradient x1="28.1371222%" y1="88.3381138%" x2="73.9699097%" y2="14.6490587%" id="linearGradient-5">
            <stop stop-color="#B6B6B6" offset="0%"></stop>
            <stop stop-color="#FBFBFB" offset="100%"></stop>
        </linearGradient>
        <linearGradient x1="28.1371222%" y1="88.3416811%" x2="73.9699097%" y2="14.6457693%" id="linearGradient-6">
            <stop stop-color="#B6B6B6" offset="0%"></stop>
            <stop stop-color="#FBFBFB" offset="100%"></stop>
        </linearGradient>
        <linearGradient x1="28.1371222%" y1="88.3325612%" x2="73.9699097%" y2="14.6541786%" id="linearGradient-7">
            <stop stop-color="#B6B6B6" offset="0%"></stop>
            <stop stop-color="#FBFBFB" offset="100%"></stop>
        </linearGradient>
        <linearGradient x1="74.1912994%" y1="13.3068845%" x2="25.8979096%" y2="89.676536%" id="linearGradient-8">
            <stop stop-color="#C5C5C5" offset="0%"></stop>
            <stop stop-color="#666666" offset="100%"></stop>
        </linearGradient>
        <linearGradient x1="28.1371222%" y1="88.3321942%" x2="73.9699097%" y2="14.654517%" id="linearGradient-9">
            <stop stop-color="#B6B6B6" offset="0%"></stop>
            <stop stop-color="#FBFBFB" offset="100%"></stop>
        </linearGradient>
        <polygon id="path-10" points="0 90 60.6941176 90 60.6941176 0 0 0"></polygon>
        <path
            d="M2.87037214,0.395838588 C1.28558894,1.31970676 0,3.56548487 0,5.41175243 L0,5.41175243 C0,6.32387029 0.313753587,6.96866858 0.822602212,7.27564544 L0.822602212,7.27564544 L1.15673886,7.47025996 C0.648618205,7.1632831 0.334864617,6.51995359 0.334864617,5.60636695 L0.334864617,5.60636695 C0.334864617,3.759365 1.61972559,1.51432128 3.20523676,0.590453108 L3.20523676,0.590453108 C3.99144065,0.132925389 4.70411991,0.0859241463 5.22170413,0.3811507 L5.22170413,0.3811507 L4.91959801,0.203427252 C4.69756821,0.0697674692 4.43914008,0 4.15377719,0 L4.15377719,0 C3.76795491,0 3.33190294,0.127784628 2.87037214,0.395838588 L2.87037214,0.395838588 Z"
            id="path-12"></path>
        <path
            d="M2.30983789,0.317992781 C1.03444048,1.06119993 0,2.86781018 0,4.35349008 L0,4.35349008 C0,5.0871501 0.252604396,5.60563255 0.661721603,5.85238907 L0.661721603,5.85238907 L13.1397964,13.1206906 C12.7299512,12.8731997 12.4780748,12.3554516 12.4780748,11.6203228 L12.4780748,11.6203228 C12.4780748,10.1353773 13.5125153,8.32876703 14.7871847,7.58629428 L14.7871847,7.58629428 C15.4197877,7.21762829 15.9919694,7.18017417 16.4105502,7.41738357 L16.4105502,7.41738357 L3.95722622,0.163769954 C3.77887441,0.0558139754 3.57067597,0 3.34063854,0 L3.34063854,0 C3.03052479,0 2.67964491,0.102080823 2.30983789,0.317992781 L2.30983789,0.317992781 Z"
            id="path-14"></path>
        <linearGradient x1="55.2502022%" y1="32.3807259%" x2="34.8858763%" y2="59.8568752%" id="linearGradient-16">
            <stop stop-color="#EEEEEE" offset="0%"></stop>
            <stop stop-color="#FDFEFE" offset="29.4363014%"></stop>
            <stop stop-color="#D4D4D4" offset="100%"></stop>
        </linearGradient>
        <path
            d="M2.87037214,0.395838588 C1.28486098,1.31897236 0,3.56401608 0,5.41175243 L0,5.41175243 C0,6.32387029 0.313025621,6.96793419 0.821874246,7.27564544 L0.821874246,7.27564544 L1.1560109,7.47025996 C0.647890238,7.16254871 0.334864617,6.51848481 0.334864617,5.60636695 L0.334864617,5.60636695 C0.334864617,3.76009939 1.61899763,1.51358688 3.20450879,0.589718713 L3.20450879,0.589718713 C3.98707285,0.133659783 4.69756821,0.0859241463 5.21442447,0.376009939 L5.21442447,0.376009939 L4.91887004,0.204161647 C4.69684024,0.0697674692 4.43841211,0 4.15232126,0 L4.15232126,0 C3.76649898,0 3.33117498,0.127050233 2.87037214,0.395838588 L2.87037214,0.395838588 Z"
            id="path-17"></path>
        <polygon id="path-19" points="0 0 15.4365199 0 15.4365199 41.9650018 0 41.9650018"></polygon>
    </defs>
    <g id="光储充及工商储管理系统V1.3" stroke="none" stroke-width="1" fill="none" fill-rule="evenodd">
        <g id="3_1.站点概览" transform="translate(-300.000000, -316.000000)">
            <g id="main" transform="translate(212.000000, 102.000000)">
                <g id="2" transform="translate(20.000000, 182.000000)">
                    <g id="能流图4备份" transform="translate(84.000000, 32.000000)">
                        <g id="线条"
                            transform="translate(218.987663, 125.890087) scale(-1, -1) translate(-218.987663, -125.890087) translate(75.351582, 33.625943)">
                            <line x1="61.0689987" y1="21.7755926" x2="286.328157" y2="173.351479" id="直线-7"
                                stroke="#B4B4B4" stroke-linecap="square"
                                transform="translate(174.067425, 97.775593) rotate(0.154660) translate(-174.067425, -97.775593) ">
                            </line>
                            <path
                                d="M61.2729852,21.4708465 C83.9618324,61.664846 87.3591708,97.1739247 71.4650002,127.998083 C55.5708296,158.822241 31.7491629,177.665643 0,184.528288"
                                id="路径-11" stroke="#B4B4B4" stroke-linecap="square"></path>
                            <path
                                d="M61.2745586,21.4708507 C93.9224886,33.8965816 131.718637,38.3985466 174.663005,34.9767459 C217.607373,31.5549453 252.041301,19.89603 277.964789,0"
                                id="路径-13" stroke="#B4B4B4" stroke-linecap="square"></path>
                        </g>
                    </g>
                </g>
            </g>
        </g>
    </g>
</svg>