<?xml version="1.0" encoding="UTF-8"?>
<svg width="50px" height="50px" viewBox="0 0 50 50" version="1.1" xmlns="http://www.w3.org/2000/svg" xmlns:xlink="http://www.w3.org/1999/xlink">
    <title>icon_今日收益</title>
    <defs>
        <rect id="path-1" x="0" y="0" width="50" height="50" rx="8"></rect>
    </defs>
    <g id="光储充及工商储管理系统V1.3" stroke="none" stroke-width="1" fill="none" fill-rule="evenodd">
        <g id="1_2.首页" transform="translate(-1092.000000, -194.000000)">
            <g id="main" transform="translate(212.000000, 102.000000)">
                <g id="1" transform="translate(24.000000, 24.000000)">
                    <g id="编组-3" transform="translate(836.000000, 0.000000)">
                        <g id="icon_今日收益" transform="translate(20.000000, 68.000000)">
                            <g id="icon_储能2" transform="translate(0.000000, 0.000000)">
                                <rect id="bg" fill-opacity="0.08" fill="#007DFF" x="0" y="0" width="50" height="50" rx="8"></rect>
                                <g id="icon_储能" transform="translate(12.000000, 13.000000)">
                                    <rect id="矩形" x="1" y="0" width="24" height="24"></rect>
                                    <g id="储能" transform="translate(0.000000, 2.000000)" fill="#007DFF" fill-rule="nonzero">
                                        <path d="M24.375,3.33333332 L22.75,3.33333332 L22.75,0.833333319 C22.75,0.373096035 22.3862313,0 21.9375,0 L17.0625,0 C16.6137686,0 16.25,0.373096035 16.25,0.833333319 L16.25,3.33333332 L9.75000001,3.33333332 L9.75000001,0.833333319 C9.75000001,0.373096035 9.38623138,0 8.93750002,0 L4.06250002,0 C3.61376867,0 3.25000003,0.373096035 3.25000003,0.833333319 L3.25000003,3.33333332 L1.62500002,3.33333332 C0.727537306,3.33333332 0,4.07952539 0,5 L0,18.3333333 C0,19.2538079 0.727537306,20 1.62500002,20 L24.375,20 C25.2724627,20 26,19.2538079 26,18.3333333 L26,5 C26,4.07952539 25.2724627,3.33333332 24.375,3.33333332 L24.375,3.33333332 Z M9.75000003,10.4166666 C9.75000003,10.6467853 9.56811569,10.8333333 9.34375002,10.8333333 L3.65625003,10.8333333 C3.43188435,10.8333333 3.25000003,10.6467853 3.25000003,10.4166666 L3.25000003,9.58333331 C3.25000003,9.35321466 3.43188435,9.16666665 3.65625003,9.16666665 L9.34375002,9.16666665 C9.56811569,9.16666665 9.75000003,9.35321466 9.75000003,9.58333331 L9.75000003,10.4166666 Z M22.75,10.4166666 C22.75,10.6467853 22.5681156,10.8333333 22.34375,10.8333333 L20.3125,10.8333333 L20.3125,12.9166666 C20.3125,13.0271735 20.2696988,13.1331543 20.1935121,13.2112945 C20.1173255,13.2894346 20.0139942,13.3333333 19.90625,13.3333333 L19.09375,13.3333333 C18.8693843,13.3333333 18.6875,13.1467853 18.6875,12.9166666 L18.6875,10.8333333 L16.65625,10.8333333 C16.4318843,10.8333333 16.25,10.6467853 16.25,10.4166666 L16.25,9.58333331 C16.25,9.35321466 16.4318843,9.16666664 16.65625,9.16666664 L18.6875,9.16666664 L18.6875,7.0833333 C18.6875,6.85321466 18.8693843,6.66666664 19.09375,6.66666664 L19.90625,6.66666664 C20.0139942,6.66666664 20.1173255,6.71056531 20.1935121,6.78870547 C20.2696988,6.86684562 20.3125,6.97282643 20.3125,7.0833333 L20.3125,9.16666664 L22.34375,9.16666664 C22.5681156,9.16666664 22.75,9.35321466 22.75,9.58333331 L22.75,10.4166666 L22.75,10.4166666 Z" id="形状"></path>
                                    </g>
                                </g>
                            </g>
                            <g id="icon_收益1" transform="translate(0.000000, 0.000000)">
                                <g id="bg">
                                    <use fill="#3DD598" xlink:href="#path-1"></use>
                                    <use fill="#007DFF" xlink:href="#path-1"></use>
                                </g>
                                <g transform="translate(13.000000, 13.000000)" id="路径">
                                    <path d="M12,24 C18.62742,24 24,18.62742 24,12 C24,5.37258 18.62742,0 12,0 C5.37258,0 0,5.37258 0,12 C0,18.62742 5.37258,24 12,24 Z" fill="#FFFFFF" fill-rule="nonzero"></path>
                                    <line x1="8.4" y1="10.8" x2="15.6" y2="10.8" stroke="#007DFF" stroke-width="1.8" stroke-linecap="round" stroke-linejoin="round"></line>
                                    <line x1="8.4" y1="14.4" x2="15.6" y2="14.4" stroke="#007DFF" stroke-width="1.8" stroke-linecap="round" stroke-linejoin="round"></line>
                                    <line x1="12.00498" y1="10.8" x2="12.00498" y2="18" stroke="#007DFF" stroke-width="1.8" stroke-linecap="round" stroke-linejoin="round"></line>
                                    <polyline stroke="#007DFF" stroke-width="1.8" stroke-linecap="round" stroke-linejoin="round" points="15.6 6.6 12 10.2 8.4 6.6"></polyline>
                                </g>
                            </g>
                        </g>
                    </g>
                </g>
            </g>
        </g>
    </g>
</svg>