<?xml version="1.0" encoding="UTF-8"?>
<svg width="50px" height="50px" viewBox="0 0 50 50" version="1.1" xmlns="http://www.w3.org/2000/svg" xmlns:xlink="http://www.w3.org/1999/xlink">
    <title>icon_站点</title>
    <defs>
        <rect id="path-1" x="0" y="0" width="50" height="50" rx="8"></rect>
    </defs>
    <g id="光储充及工商储管理系统V1.3" stroke="none" stroke-width="1" fill="none" fill-rule="evenodd">
        <g id="1_1.首页" transform="translate(-256.000000, -194.000000)">
            <g id="main" transform="translate(212.000000, 102.000000)">
                <g id="1" transform="translate(24.000000, 24.000000)">
                    <g id="icon_电站1" transform="translate(20.000000, 68.000000)">
                        <g id="bg备份">
                            <use fill="#007DFF" xlink:href="#path-1"></use>
                            <use fill="#3DD598" xlink:href="#path-1"></use>
                            <use fill="#50B5FF" xlink:href="#path-1"></use>
                        </g>
                        <g id="icon_电站" transform="translate(12.500395, 13.000000)" fill-rule="nonzero">
                            <rect id="矩形" opacity="0.0979969113" x="0" y="0" width="24" height="24"></rect>
                            <g id="电站" transform="translate(1.499605, 0.000000)" fill="#FFFFFF">
                                <path d="M1.73227828,22.2857141 L20.2677312,22.2857141 L20.2677312,24 L1.73227828,24 L1.73227828,22.2857141 Z M2.59841979,2.14285677 L6.0629953,2.14285677 L6.0629953,3.59999824 L2.59841979,3.59999824 L2.59841979,2.14285677 Z M2.59841979,0 L6.0629953,0 L6.0629953,1.45714148 L2.59841979,1.45714148 L2.59841979,0 Z M15.9370094,2.14285677 L19.4015849,2.14285677 L19.4015849,3.59999824 L15.9370094,3.59999824 L15.9370094,2.14285677 Z M15.9370094,0 L19.4015849,0 L19.4015849,1.45714148 L15.9370094,1.45714148 L15.9370094,0 Z M9.26771461,2.14285677 L12.7322901,2.14285677 L12.7322901,3.59999824 L9.26771461,3.59999824 L9.26771461,2.14285677 L9.26771461,2.14285677 Z M9.26771461,0 L12.7322901,0 L12.7322901,1.45714148 L9.26771461,1.45714148 L9.26771461,0 L9.26771461,0 Z M21.1338727,4.54285559 L0,4.54285559 L0,20.3142791 C0,20.5714212 0.0866141509,20.74285 0.259841979,20.9142789 C0.433070517,21.0857074 0.60629953,21.1714209 0.866141509,21.1714209 L21.1338585,21.1714209 C21.3937005,21.1714209 21.5669292,21.0857067 21.740158,20.9142789 C21.9133866,20.7428503 22,20.5714212 22,20.3142791 L22,5.39999736 C22,5.1428553 21.9133858,4.97142648 21.740158,4.79999766 C21.5669295,4.62856907 21.3070873,4.54285559 21.1338585,4.54285559 L21.1338727,4.54285559 Z M9.5275708,17.9142803 L10.8267831,13.8857042 L7.10237505,13.8857042 L9.78740568,7.79999619 L12.6456817,7.79999619 L10.6535543,11.7428615 L14.9842618,11.7428615 L9.52756607,17.9142803 L9.5275708,17.9142803 Z" id="形状"></path>
                            </g>
                        </g>
                    </g>
                </g>
            </g>
        </g>
    </g>
</svg>