<?xml version="1.0" encoding="UTF-8"?>
<svg width="50px" height="50px" viewBox="0 0 50 50" version="1.1" xmlns="http://www.w3.org/2000/svg" xmlns:xlink="http://www.w3.org/1999/xlink">
    <title>icon_碳减排</title>
    <defs>
        <rect id="path-1" x="0" y="0" width="50" height="50" rx="8"></rect>
    </defs>
    <g id="光储充及工商储管理系统V1.3" stroke="none" stroke-width="1" fill="none" fill-rule="evenodd">
        <g id="1_2.首页" transform="translate(-1510.000000, -194.000000)">
            <g id="main" transform="translate(212.000000, 102.000000)">
                <g id="1" transform="translate(24.000000, 24.000000)">
                    <g id="编组-4" transform="translate(1254.000000, 0.000000)">
                        <g id="icon_碳减排" transform="translate(20.000000, 68.000000)">
                            <g id="icon_储能2备份" transform="translate(0.000000, 0.000000)">
                                <rect id="bg" fill-opacity="0.08" fill="#007DFF" x="0" y="0" width="50" height="50" rx="8"></rect>
                                <g id="icon_储能" transform="translate(12.000000, 13.000000)">
                                    <rect id="矩形" x="1" y="0" width="24" height="24"></rect>
                                    <g id="储能" transform="translate(0.000000, 2.000000)" fill="#007DFF" fill-rule="nonzero">
                                        <path d="M24.375,3.33333332 L22.75,3.33333332 L22.75,0.833333319 C22.75,0.373096035 22.3862313,0 21.9375,0 L17.0625,0 C16.6137686,0 16.25,0.373096035 16.25,0.833333319 L16.25,3.33333332 L9.75000001,3.33333332 L9.75000001,0.833333319 C9.75000001,0.373096035 9.38623138,0 8.93750002,0 L4.06250002,0 C3.61376867,0 3.25000003,0.373096035 3.25000003,0.833333319 L3.25000003,3.33333332 L1.62500002,3.33333332 C0.727537306,3.33333332 0,4.07952539 0,5 L0,18.3333333 C0,19.2538079 0.727537306,20 1.62500002,20 L24.375,20 C25.2724627,20 26,19.2538079 26,18.3333333 L26,5 C26,4.07952539 25.2724627,3.33333332 24.375,3.33333332 L24.375,3.33333332 Z M9.75000003,10.4166666 C9.75000003,10.6467853 9.56811569,10.8333333 9.34375002,10.8333333 L3.65625003,10.8333333 C3.43188435,10.8333333 3.25000003,10.6467853 3.25000003,10.4166666 L3.25000003,9.58333331 C3.25000003,9.35321466 3.43188435,9.16666665 3.65625003,9.16666665 L9.34375002,9.16666665 C9.56811569,9.16666665 9.75000003,9.35321466 9.75000003,9.58333331 L9.75000003,10.4166666 Z M22.75,10.4166666 C22.75,10.6467853 22.5681156,10.8333333 22.34375,10.8333333 L20.3125,10.8333333 L20.3125,12.9166666 C20.3125,13.0271735 20.2696988,13.1331543 20.1935121,13.2112945 C20.1173255,13.2894346 20.0139942,13.3333333 19.90625,13.3333333 L19.09375,13.3333333 C18.8693843,13.3333333 18.6875,13.1467853 18.6875,12.9166666 L18.6875,10.8333333 L16.65625,10.8333333 C16.4318843,10.8333333 16.25,10.6467853 16.25,10.4166666 L16.25,9.58333331 C16.25,9.35321466 16.4318843,9.16666664 16.65625,9.16666664 L18.6875,9.16666664 L18.6875,7.0833333 C18.6875,6.85321466 18.8693843,6.66666664 19.09375,6.66666664 L19.90625,6.66666664 C20.0139942,6.66666664 20.1173255,6.71056531 20.1935121,6.78870547 C20.2696988,6.86684562 20.3125,6.97282643 20.3125,7.0833333 L20.3125,9.16666664 L22.34375,9.16666664 C22.5681156,9.16666664 22.75,9.35321466 22.75,9.58333331 L22.75,10.4166666 L22.75,10.4166666 Z" id="形状"></path>
                                    </g>
                                </g>
                            </g>
                            <g transform="translate(0.000000, 0.000000)">
                                <g id="bg">
                                    <use fill="#3DD598" xlink:href="#path-1"></use>
                                    <use fill="#50B5FF" xlink:href="#path-1"></use>
                                </g>
                                <g transform="translate(13.000000, 13.000000)" fill="#FFFFFF" fill-rule="nonzero" id="碳减排管理">
                                    <g transform="translate(0.000000, 4.000000)">
                                        <path d="M22.4736524,11.4560299 L22.4736524,11.45603 C22.0150881,13.209587 20.8684265,14.69741 19.2994755,15.5745636 L19.2994751,15.5745638 C18.2892129,15.9671528 17.1963136,16.090876 16.1252981,15.9338985 L16.1252992,15.933898 C16.8800042,15.533145 17.5907576,15.0528203 18.2457257,14.5009221 L18.2457255,14.5009222 C19.0972348,13.7541962 19.8630123,12.9128785 20.5285941,11.9928424 L20.528594,11.9928426 C20.9484558,11.3132048 21.3013964,10.5935085 21.5823383,9.84410696 L21.5823382,9.8441071 C20.6946729,11.5474522 19.4278914,13.0186629 17.8820119,14.1415939 L17.8820117,14.1415941 C17.1008718,14.6835562 16.2789323,15.1626838 15.42376,15.5745715 C15.42376,15.5745715 15.3964459,14.236156 15.42376,13.4258359 L15.4237598,13.4258915 C15.4271997,11.9705805 16.0704846,10.5923173 17.1789965,9.66521744 L17.1789968,9.66521726 C18.8986843,8.49690488 20.8103713,7.64809845 22.8243664,7.15859087 C23.0141268,7.11640161 22.9997511,7.15859087 22.9997511,7.15859087 L22.9997513,7.15858252 C22.9698606,8.60550149 22.7935568,10.0455099 22.4735988,11.4560693 L22.4736524,11.4560299 Z M16.379764,7.28511209 L16.3050099,7.34766852 L16.3050091,7.34766909 C14.5104089,8.68050402 13.3891892,10.7474675 13.2415257,12.9952048 L13.2415239,12.9953066 C13.2242403,13.9650951 13.2242415,14.935115 13.2415276,15.9049098 L5.46279043,15.9049098 L5.46279025,15.9049098 C2.54062333,15.8837692 0.143231417,13.5572175 0,10.6035128 L0,10.6035144 C0.0827071177,8.16625949 1.76845565,6.08717671 4.11434604,5.52917276 L4.11434601,5.52917309 C4.41410802,2.35336703 7.07777592,-0.054538946 10.2298079,0.000939517809 L10.2298079,0.000939518123 C12.535331,-0.018271033 14.6583518,1.26732219 15.7314211,3.33242908 L15.7314219,3.33242921 C17.540739,3.62952342 19.2214491,4.46576515 20.5588054,5.73430288 L20.5588054,5.73430304 C19.107181,5.95070031 17.7133723,6.46028172 16.4602716,7.23274822 L16.379764,7.28511209 Z" id="形状"></path>
                                    </g>
                                </g>
                            </g>
                        </g>
                    </g>
                </g>
            </g>
        </g>
    </g>
</svg>