<?xml version="1.0" encoding="UTF-8"?>
<svg width="50px" height="50px" viewBox="0 0 50 50" version="1.1" xmlns="http://www.w3.org/2000/svg" xmlns:xlink="http://www.w3.org/1999/xlink">
    <title>icon_充电桩</title>
    <g id="光储充及工商储管理系统V1.3" stroke="none" stroke-width="1" fill="none" fill-rule="evenodd">
        <g id="1_1.首页" transform="translate(-1510.000000, -194.000000)">
            <g id="main" transform="translate(212.000000, 102.000000)">
                <g id="1" transform="translate(24.000000, 24.000000)">
                    <g id="编组-4（充电桩）" transform="translate(1254.000000, 0.000000)">
                        <g id="icon_充电桩" transform="translate(20.000000, 68.000000)">
                            <g transform="translate(0.000000, 0.000000)">
                                <rect id="bg" fill="#3DD598" x="0" y="0" width="50" height="50" rx="8"></rect>
                                <g transform="translate(13.000000, 13.000000)">
                                    <rect id="矩形" x="0" y="0" width="24" height="24"></rect>
                                    <path d="M7.75289042,20.8562509 L9.49086107,16.8957598 L5.77865879,16.8957598 L11.898244,11.2824891 L10.2052684,15.1800833 L13.6136432,15.1800833 L7.75289042,20.8562509 Z M6.24237418,4.02998448 C6.24237418,3.51982503 6.70349939,3.10635671 7.2724129,3.10635671 L12.1799071,3.10635671 C12.7492646,3.10635671 13.2107599,3.51982503 13.2107599,4.02998448 L13.2107599,8.9209468 C13.2107599,9.43100042 12.7492646,9.84446875 12.1799071,9.84446875 L7.2724129,9.84446875 C6.70353639,9.84446875 6.24237418,9.43100042 6.24237418,8.9209468 L6.24237418,4.02998448 Z M21.6203931,5.15987018 C20.8475588,4.53785099 19.5370041,3.50236348 19.136711,3.14336108 C18.9117728,2.94197121 18.3941078,2.82347961 18.0496514,3.14755891 C17.7206992,3.4566107 17.8643059,3.86274164 18.1066723,4.07023423 C18.4526457,4.3654226 19.2307344,4.94775646 19.6746164,5.38454212 C19.3053314,5.79300127 18.6943831,6.2210738 18.3135163,6.59873712 C18.264636,6.6459715 18.2668561,6.69990828 18.2673002,6.726471 C18.2689283,6.9424298 18.2783639,7.09115282 18.2768098,7.18212925 C18.2750337,7.26135883 18.3790477,7.2901792 18.4250048,7.2901792 L20.3537234,7.2901792 C20.4831212,7.2901792 20.5166454,7.40680119 20.5166454,7.40680119 L20.5166454,18.5403556 C20.5166454,19.1619515 20.1396639,19.3576619 19.7526547,19.3576619 C19.3657565,19.3576619 18.9538816,19.160611 18.9538816,18.5403556 L18.9538816,9.43763228 C18.9538816,8.61245943 18.8523468,8.23899393 17.8136865,8.1892197 C17.5594793,8.17704953 16.536952,8.18586849 15.9825065,8.1892197 L15.9825065,2.38524764 C15.9825065,1.62004374 15.2903006,1 14.4368749,1 L5.06502848,1 C4.21064064,1 3.51917484,1.62000847 3.51917484,2.38524764 L3.51917484,20.991816 L2.63614706,20.991816 C2.28425324,20.991816 2,21.246931 2,21.561768 L2,22.4023564 C2,22.7175109 2.28425324,23 2.63614706,23 L16.8401506,23 C17.1914153,23 17.4762606,22.7175109 17.4762606,22.4023564 L17.4762606,21.561768 C17.4762606,21.246931 17.1914153,20.991816 16.8401506,20.991816 L15.9826175,20.991816 L15.9826175,9.52624524 C16.2946226,9.52719769 16.7320292,9.52624524 17.0479196,9.52624524 C17.4278613,9.52624524 17.4602015,9.86436433 17.4602015,9.86436433 L17.4602015,18.6274164 C17.4602015,20.8640821 19.5238312,20.8854946 19.7526917,20.8854946 C20.0607006,20.8854946 21.9999426,20.8854946 21.9999426,18.6554607 L21.9999426,5.77952589 C21.9999426,5.77952589 22.0135818,5.47657683 21.6203931,5.15987018 L21.6203931,5.15987018 Z" id="形状" fill="#FFFFFF" fill-rule="nonzero"></path>
                                </g>
                            </g>
                        </g>
                    </g>
                </g>
            </g>
        </g>
    </g>
</svg>