<?xml version="1.0" encoding="UTF-8"?>
<svg width="50px" height="50px" viewBox="0 0 50 50" version="1.1" xmlns="http://www.w3.org/2000/svg" xmlns:xlink="http://www.w3.org/1999/xlink">
    <title>icon_告警</title>
    <defs>
        <rect id="path-1" x="0" y="0" width="50" height="50" rx="8"></rect>
    </defs>
    <g id="光储充及工商储管理系统V1.3" stroke="none" stroke-width="1" fill="none" fill-rule="evenodd">
        <g id="1_2.首页" transform="translate(-674.000000, -194.000000)">
            <g id="main" transform="translate(212.000000, 102.000000)">
                <g id="1" transform="translate(24.000000, 24.000000)">
                    <g id="编组-2" transform="translate(418.000000, 0.000000)">
                        <g id="icon_告警" transform="translate(20.000000, 68.000000)">
                            <g id="icon_告警2" transform="translate(0.000000, 0.000000)">
                                <rect id="bg" fill-opacity="0.08" fill="#007DFF" x="0" y="0" width="50" height="50" rx="8"></rect>
                                <g id="icon_告警" transform="translate(13.000000, 13.000000)" fill-rule="nonzero">
                                    <rect id="矩形" fill="#000000" opacity="0" x="0" y="0" width="24" height="24"></rect>
                                    <g id="告警">
                                        <path d="M23.0889676,21.6 L20.2140767,21.6 L20.2140767,12.8 C20.2140767,8.381722 16.5365553,4.8 12.0001027,4.8 C7.46365009,4.8 3.78612865,8.381722 3.78612865,12.8 L3.78612865,21.6 L0.911237743,21.6 C0.684415114,21.6 0.500539042,21.7790861 0.500539042,22 L0.500539042,23.6 C0.500539042,23.8209139 0.684415114,24 0.911237743,24 L23.0889676,24 C23.3157902,24 23.4996663,23.8209139 23.4996663,23.6 L23.4996663,22 C23.4996663,21.7790861 23.3157902,21.6 23.0889676,21.6 Z M10.7680066,0 L13.2321988,0 L13.2321988,3.2 L10.7680066,3.2 L10.7680066,0 Z M4.36341701,2.3159 L6.49748447,1.1159 L8.14027928,3.88715 L6.00621182,5.08715 L4.36341701,2.3159 Z M0,7.43845 L1.2320961,5.359975 L4.07751938,6.959975 L2.84542328,9.03845 L0,7.43845 L0,7.43845 Z M19.922532,6.959025 L22.7679039,5.359025 L24,7.4375 L21.1546281,9.0375 L19.922532,6.959025 Z M15.859002,3.8847 L17.5017968,1.11345 L19.6358643,2.31345 L17.9930695,5.0847 L15.859002,3.8847 Z" id="形状" fill="#007DFF"></path>
                                        <path d="M15.2528364,12.4 L12.6448996,12.4 L13.1336311,9.076 C13.1439049,8.98936102 13.0953501,8.90622779 13.0136371,8.87055202 C12.9319241,8.83487626 12.8358965,8.85488507 12.7763232,8.92 L8.59130346,13.672 C8.54050887,13.7313892 8.52939842,13.8139687 8.56276714,13.8840992 C8.59613586,13.9542296 8.66800951,13.9993549 8.74736896,14 L11.3553057,14 L10.8665743,17.324 C10.8563004,17.410639 10.9048552,17.4937722 10.9865683,17.529448 C11.0682813,17.5651237 11.1643088,17.5451149 11.2238821,17.48 L15.4089019,12.728 C15.4596965,12.6686108 15.4708069,12.5860313 15.4374382,12.5159008 C15.4040695,12.4457704 15.3321958,12.4006451 15.2528364,12.4 L15.2528364,12.4 Z" id="路径" fill="#FFFFFF"></path>
                                    </g>
                                </g>
                            </g>
                            <g id="icon_告警1" transform="translate(0.000000, 0.000000)">
                                <g id="bg">
                                    <use fill="#FFC542" xlink:href="#path-1"></use>
                                    <use fill="#FF974A" xlink:href="#path-1"></use>
                                </g>
                                <g id="告警" transform="translate(13.000000, 13.000000)" fill="#FEFFFF" fill-rule="nonzero">
                                    <path d="M12.0001027,4.8 C16.5365553,4.8 20.2140767,8.381722 20.2140767,12.8 L20.2140767,12.8 L20.2140767,21.6 L23.0889676,21.6 C23.3157902,21.6 23.4996663,21.7790861 23.4996663,22 L23.4996663,22 L23.4996663,23.6 C23.4996663,23.8209139 23.3157902,24 23.0889676,24 L23.0889676,24 L0.911237743,24 C0.684415114,24 0.500539042,23.8209139 0.500539042,23.6 L0.500539042,23.6 L0.500539042,22 C0.500539042,21.7790861 0.684415114,21.6 0.911237743,21.6 L0.911237743,21.6 L3.78612865,21.6 L3.78612865,12.8 C3.78612865,8.381722 7.46365009,4.8 12.0001027,4.8 Z M12.7763232,8.92 L8.59130346,13.672 C8.54050887,13.7313892 8.52939842,13.8139687 8.56276714,13.8840992 C8.59613586,13.9542296 8.66800951,13.9993549 8.74736896,14 L11.3553057,14 L10.8665743,17.324 C10.8563004,17.410639 10.9048552,17.4937722 10.9865683,17.529448 C11.0682813,17.5651237 11.1643088,17.5451149 11.2238821,17.48 L15.4089019,12.728 C15.4596965,12.6686108 15.4708069,12.5860313 15.4374382,12.5159008 C15.4040695,12.4457704 15.3321958,12.4006451 15.2528364,12.4 L12.6448996,12.4 L13.1336311,9.076 C13.1439049,8.98936102 13.0953501,8.90622779 13.0136371,8.87055202 C12.9319241,8.83487626 12.8358965,8.85488507 12.7763232,8.92 Z M1.2320961,5.359975 L4.07751938,6.959975 L2.84542328,9.03845 L0,7.43845 L1.2320961,5.359975 Z M22.7679039,5.359025 L24,7.4375 L21.1546281,9.0375 L19.922532,6.959025 L22.7679039,5.359025 Z M6.49748447,1.1159 L8.14027928,3.88715 L6.00621182,5.08715 L4.36341701,2.3159 L6.49748447,1.1159 Z M17.5017968,1.11345 L19.6358643,2.31345 L17.9930695,5.0847 L15.859002,3.8847 L17.5017968,1.11345 Z M13.2321988,0 L13.2321988,3.2 L10.7680066,3.2 L10.7680066,0 L13.2321988,0 Z" id="形状结合"></path>
                                </g>
                            </g>
                        </g>
                    </g>
                </g>
            </g>
        </g>
    </g>
</svg>