<?xml version="1.0" encoding="UTF-8"?>
<svg width="859px" height="378px" viewBox="0 0 859 378" version="1.1" xmlns="http://www.w3.org/2000/svg"
    xmlns:xlink="http://www.w3.org/1999/xlink">
    <title>能流图转曲切图</title>
    <g id="能源云系统V1.0" stroke="none" stroke-width="1" fill="none" fill-rule="evenodd">
        <g id="1_2.站控系统（站点）首页全屏展示" transform="translate(-585.000000, -308.000000)">
            <g id="Middle" transform="translate(440.000000, 221.000000)">
                <g id="能流图和名称" transform="translate(13.000000, 76.000000)">
                    <g id="能流图" transform="translate(132.829772, 9.159819)">
                        <g id="能流图转曲切图" transform="translate(0.000000, 2.006204)">
                            <g id="左向能流线" transform="translate(0.000000, 86.229980)" fill-rule="nonzero">
                                <path
                                    d="M410.852628,71.4858652 L411.612468,72.7791723 L101.234852,255.131309 C94.8728116,258.869116 87.0148449,258.942453 80.5935719,255.34976 L80.2316576,255.142485 L0,208.119797 L0.758463242,206.825682 L80.9901209,253.84837 C86.8893866,257.305849 94.1697502,257.369831 100.119637,254.041757 L100.475012,253.838002 L410.852628,71.4858652 Z"
                                    id="路径-17备份-15" fill="#09E2F8"></path>
                                <polygon id="路径-17备份-3" fill="#36F8B0"
                                    points="141.228258 138.00095 186.161967 164.566927 185.39857 165.858138 140.464861 139.29216">
                                </polygon>
                                <polygon id="路径-17备份-4" fill="#36F8B0"
                                    points="184.179905 111.679057 229.97118 138.75205 229.207783 140.04326 183.416508 112.970267">
                                </polygon>
                                <polygon id="路径-17备份-5" fill="#36F8B0"
                                    points="232.133526 86.3571638 275.34238 111.903362 274.578983 113.194573 231.370129 87.6483744">
                                </polygon>
                                <polygon id="路径-17备份-9" fill="#36F8B0"
                                    points="276.133526 57.9582866 321.89818 85.0155404 321.134782 86.3067509 275.370129 59.2494971">
                                </polygon>
                                <path
                                    d="M271.061139,0 L362.448034,54.1290083 C364.705166,55.465921 365.451151,58.3794695 364.114238,60.6366011 C363.750466,61.2507643 363.253565,61.7740372 362.661458,62.1686188 L362.435028,62.3104806 L139.455837,193.426548 C133.088108,197.170896 125.22038,197.242884 118.794632,193.641507 L118.43247,193.433733 L79.9362619,170.832613 L80.6957006,169.539071 L119.191909,192.14019 C125.095134,195.605972 132.384513,195.671478 138.339819,192.337635 L138.695514,192.133525 L361.674706,61.0174573 C362.148338,60.7389526 362.54363,60.3449153 362.823639,59.8721713 C363.7057,58.3829736 363.262598,56.4761561 361.845097,55.5216728 L361.683605,55.4196078 L270.296709,1.29059948 L271.061139,0 Z"
                                    id="路径-8" fill="#36F8B0"></path>
                            </g>
                            <g id="右向能流线" transform="translate(278.201758, 0.000000)">
                                <polygon id="路径-17备份-8" fill="#09E2F8" fill-rule="nonzero"
                                    transform="translate(10.435252, 86.802133) rotate(-0.592684) translate(-10.435252, -86.802133) "
                                    points="0.446957744 79.9832403 21.1908331 92.3321239 20.4235459 93.6210267 -0.320329463 81.2721431">
                                </polygon>
                                <polygon id="路径-6备份-3" fill="#09E2F8" fill-rule="nonzero"
                                    transform="translate(119.729338, 126.631135) rotate(-29.153413) translate(-119.729338, -126.631135) "
                                    points="143.854708 125.329637 143.888977 126.829246 95.6039671 127.932634 95.5696987 126.433025">
                                </polygon>
                                <polygon id="路径-6备份-6" fill="#09E2F8" fill-rule="nonzero"
                                    transform="translate(219.355601, 146.633615) rotate(-29.153413) translate(-219.355601, -146.633615) "
                                    points="281.322285 144.467383 281.356554 145.966992 157.388917 148.799846 157.354649 147.300237">
                                </polygon>
                                <polygon id="路径-17备份-7" fill="#09E2F8" fill-rule="nonzero"
                                    transform="translate(179.198890, 110.859356) rotate(-0.592684) translate(-179.198890, -110.859356) "
                                    points="161.8931 99.7564475 197.268077 120.671054 196.504679 121.962264 161.129703 101.047658">
                                </polygon>
                                <path
                                    d="M200.366657,90.7921151 C204.899273,90.6983418 209.131697,93.0176785 211.495174,96.8671157 L211.664753,97.1514998 L221.259591,113.725527 L219.961429,114.477043 L210.366591,97.903016 C208.367582,94.4499474 204.69437,92.3211384 200.720519,92.2897294 L200.397683,92.2917941 L138.567934,93.5709627 L138.536907,92.0712836 L200.366657,90.7921151 Z"
                                    id="路径-6备份-13" fill="#09E2F8" fill-rule="nonzero"
                                    transform="translate(179.898249, 102.633209) rotate(-29.153413) translate(-179.898249, -102.633209) ">
                                </path>
                                <polygon id="路径-6备份-10" fill="#09E2F8" fill-rule="nonzero"
                                    transform="translate(313.308129, 241.417105) rotate(-29.153413) translate(-313.308129, -241.417105) "
                                    points="335.785123 240.153275 335.819391 241.652883 290.831136 242.680935 290.796868 241.181326">
                                </polygon>
                                <polygon id="路径-17备份-6" fill="#09E2F8" fill-rule="nonzero"
                                    transform="translate(143.239598, 60.109356) rotate(-0.592684) translate(-143.239598, -60.109356) "
                                    points="135.833089 54.8591598 151.409504 64.0683416 150.646107 65.3595521 135.069692 56.1503704">
                                </polygon>
                                <path
                                    d="M156.079956,57.2944625 L169.476912,79.4181841 C169.906363,80.1273788 170.142708,80.9366276 170.162451,81.7654794 C170.223186,84.3152378 168.263169,86.4435033 165.74416,86.6171803 L165.52691,86.6272444 L139.003478,87.259022 L46.8316649,89.1151122 L46.801465,87.6154162 L138.970518,85.7593867 L165.491191,85.1276697 C167.285607,85.0849271 168.705619,83.5956154 168.662877,81.801199 C168.651057,81.3049785 168.52577,80.819027 168.297787,80.3802207 L168.193824,80.1951548 L154.796867,58.0714332 L156.079956,57.2944625 Z"
                                    id="路径-6备份-5" fill="#09E2F8" fill-rule="nonzero"
                                    transform="translate(108.482645, 73.204787) rotate(-29.153413) translate(-108.482645, -73.204787) ">
                                </path>
                                <g id="光伏发电" transform="translate(112.072888, 17.333976)" fill="#36F8B0">
                                    <path
                                        d="M43.6813028,9.57465622 L43.6906846,11.0746269 L6.70600517,11.2152965 C6.15371309,11.2187509 5.61141197,11.3628966 5.13029552,11.6341261 C3.62256042,12.484112 3.05454493,14.3575181 3.80625234,15.8922115 L3.89522565,16.0612699 L10.5792068,27.9175522 L9.27254211,28.6541846 L2.58856095,16.7979024 C1.3002632,14.5126742 2.10843495,11.6157591 4.39366307,10.3274614 C5.01870325,9.97509489 5.71439922,9.76948422 6.42820141,9.72459726 L6.69662332,9.71532585 L43.6813028,9.57465622 Z"
                                        id="路径" fill-rule="nonzero"
                                        transform="translate(22.833089, 19.114420) rotate(-30.000000) translate(-22.833089, -19.114420) ">
                                    </path>
                                    <polygon id="路径备份" fill-rule="nonzero"
                                        transform="translate(43.359653, 15.882789) rotate(-29.409303) translate(-43.359653, -15.882789) "
                                        points="53.8513627 15.0245796 53.8668268 16.5244999 32.8679428 16.7409977 32.8524787 15.2410774">
                                    </polygon>
                                    <path
                                        d="M54.3803005,11.7528102 C55.5507173,11.158435 55.5507173,10.1947625 54.3803005,9.6003873 C53.2098838,9.00601213 51.3122632,9.00601213 50.1418465,9.6003873 C48.9714297,10.1947625 48.9714297,11.158435 50.1418465,11.7528102 C51.3122632,12.3471853 53.2098838,12.3471853 54.3803005,11.7528102 Z"
                                        id="能源流向光点0-4"></path>
                                    <path
                                        d="M38.2118484,2.59820423 C39.3822652,2.00382907 39.3822652,1.04015653 38.2118484,0.44578137 C37.0414316,-0.14859379 35.1438111,-0.14859379 33.9733943,0.44578137 C32.8029776,1.04015653 32.8029776,2.00382907 33.9733943,2.59820423 C35.1438111,3.19257939 37.0414316,3.19257939 38.2118484,2.59820423 Z"
                                        id="能源流向光点0-4备份"></path>
                                </g>
                                <polygon id="路径-6备份-7" fill="#36F8B0" fill-rule="nonzero"
                                    transform="translate(257.458070, 193.546954) rotate(-29.153413) translate(-257.458070, -193.546954) "
                                    points="270.981885 192.547473 271.016153 194.047081 243.934255 194.546435 243.899987 193.046827">
                                </polygon>
                                <polygon id="路径-6备份-14" fill="#36F8B0" fill-rule="nonzero"
                                    transform="translate(385.971376, 269.038464) rotate(-29.153413) translate(-385.971376, -269.038464) "
                                    points="399.003435 267.921492 399.037704 269.421101 372.939316 270.155435 372.905048 268.655827">
                                </polygon>
                                <path
                                    d="M349.212776,110.998778 L349.24123,112.498508 L247.631258,114.42631 C247.073356,114.436895 246.527577,114.590945 246.046476,114.873625 C244.554189,115.750449 244.01978,117.633717 244.798824,119.154717 L244.890807,119.322157 L378.288134,346.354235 C379.922215,349.135317 382.882296,350.85791 386.09298,350.916689 L386.394683,350.917307 L408.422626,350.604499 L408.443924,352.104348 L386.415982,352.418244 C382.657902,352.470522 379.153325,350.558084 377.161822,347.388837 L376.994857,347.114126 L243.59753,120.082048 C242.268555,117.820234 243.024771,114.909324 245.286585,113.580348 C245.911605,113.213105 246.611315,112.994405 247.331767,112.939473 L247.602804,112.92658 L349.212776,110.998778 Z"
                                    id="路径" fill="#36F8B0" fill-rule="nonzero"
                                    transform="translate(325.693036, 231.708511) rotate(-29.153413) translate(-325.693036, -231.708511) ">
                                </path>
                                <path
                                    d="M70.8353651,62.2046731 L71.592511,63.4995592 L21.856,92.582 L454.476602,346.609542 C459.129503,349.341643 464.87044,349.407442 469.576226,346.805544 L469.902831,346.619687 L578.301362,283.161591 L579.059178,284.456085 L470.660646,347.914182 C465.540969,350.911316 459.227678,350.972393 454.059881,348.098948 L453.717084,347.903038 L18.8882092,92.5792177 L70.8353651,62.2046731 Z"
                                    id="路径-9" fill="#09E2F8" fill-rule="nonzero"></path>
                                <path
                                    d="M110.82915,0 L129.134523,10.6727164 C131.405703,11.9968993 132.187205,14.931887 130.885004,17.2318426 C130.514397,17.8864109 129.997445,18.4425238 129.376934,18.8563216 L129.139471,19.0047392 L68.1722292,54.649837 L67.4151415,53.3549169 L128.382383,17.709819 C128.879786,17.4190079 129.292985,16.9992004 129.579701,16.4927996 C130.446484,14.9618813 129.975522,13.0222125 128.542201,12.0701959 L128.379002,11.9685517 L110.07363,1.29583523 L110.82915,0 Z"
                                    id="路径" fill="#09E2F8" fill-rule="nonzero"></path>
                            </g>
                        </g>
                    </g>
                </g>
            </g>
        </g>
    </g>
</svg>