<?xml version="1.0" encoding="UTF-8"?>
<svg width="20px" height="20px" viewBox="0 0 20 20" version="1.1" xmlns="http://www.w3.org/2000/svg" xmlns:xlink="http://www.w3.org/1999/xlink">
    <title>icon_未发电组串</title>
    <g id="光储充及工商储管理系统V1.3" stroke="none" stroke-width="1" fill="none" fill-rule="evenodd">
        <g id="3_3.设备监视_发电单元监视" transform="translate(-734.000000, -200.000000)">
            <g id="main" transform="translate(212.000000, 102.000000)">
                <g id="编组2" transform="translate(20.000000, 72.000000)">
                    <g id="3" transform="translate(478.000000, 0.000000)">
                        <g id="编组-1" transform="translate(24.000000, 24.000000)">
                            <g id="icon_未发电组串" transform="translate(0.000000, 2.000000)">
                                <rect id="矩形" x="0" y="0" width="20" height="20"></rect>
                                <g id="未发电组串" transform="translate(0.000000, 2.000000)" fill-rule="nonzero">
                                    <path d="M1.66975819,17 L18.330464,17 C19.2510358,17 20,16.3362315 20,15.5202115 L20,3.71465296 C20,2.89852456 19.2510358,2.23475604 18.3302418,2.23475604 L1.66975819,2.23475604 C0.748964246,2.23475604 0,2.89852456 0,3.71465296 L0,15.5202115 C0,16.3362315 0.748964246,17 1.66975819,17 Z M14.6060801,4.93776114 L14.6060801,4.31357365 L15.3995846,4.31357365 L15.3995846,3.53897823 L16.0389199,3.53897823 L16.0389199,4.31357365 L16.8323133,4.31357365 L16.8323133,4.93776114 L16.0389199,4.93776114 L16.0389199,5.71235655 L15.3995846,5.71235655 L15.3995846,4.93776114 L14.6060801,4.93776114 L14.6060801,4.93776114 Z M2.99519055,4.31357365 L5.22575557,4.31357365 L5.22575557,4.93776114 L2.99519055,4.93776114 L2.99519055,4.31357365 L2.99519055,4.31357365 Z M2.54323511,0.65715361 L2.54323511,1.4456295 C2.54323511,1.80934125 2.84435361,2.10527726 3.21444836,2.10527726 L5.17443992,2.10527726 C5.54741689,2.10485895 5.84966761,1.80976949 5.85009608,1.4456295 L5.85009608,0.65715361 C5.85009608,0.309491156 5.57285824,0.0245077089 5.22297875,0 L3.16613167,0 C2.81858471,0.0243992677 2.54323511,0.309491156 2.54323511,0.65715361 Z M13.9490842,0.65715361 L13.9490842,1.4456295 C13.9490842,1.80934125 14.2500916,2.10527726 14.6200753,2.10527726 L16.584843,2.10527726 C16.9549377,2.10527726 17.255723,1.80934125 17.255723,1.4456295 L17.255723,0.65715361 C17.255723,0.309491156 16.9805956,0.0245077089 16.6332708,0 L14.5717586,0 C14.2245449,0.0243992677 13.9490842,0.309491156 13.9490842,0.65715361 Z" id="形状" fill="#007DFF"></path>
                                    <path d="M10.0000228,6 C10.5492004,6 11.0679036,6.10523542 11.5561323,6.31577463 C12.0442813,6.52632524 12.4684272,6.81311853 12.8283991,7.17621149 C13.1884621,7.53928165 13.4737637,7.96339155 13.6842582,8.44850699 C13.8947755,8.93362242 14,9.45078486 14,10 C14,10.5552895 13.8947755,11.0755176 13.6842582,11.5606444 C13.4737637,12.045794 13.1884621,12.4698811 12.8283991,12.8329969 C12.4684272,13.1960557 12.0442813,13.481356 11.5561323,13.6888182 C11.0679036,13.8962803 10.5492004,14 10.0000228,14 C9.44473664,14 8.92450632,13.8962803 8.43937741,13.6888182 C7.9542257,13.481356 7.53015958,13.1960557 7.16706507,12.8329969 C6.80400475,12.4698811 6.51870319,12.0457826 6.31124015,11.5606444 C6.1037885,11.0755176 6,10.5552895 6,10 C6,9.45078486 6.1037885,8.93362242 6.31124015,8.44850699 C6.51870319,7.96339155 6.80400475,7.53929305 7.16706507,7.17620009 C7.53015958,6.81312992 7.9542257,6.52632524 8.43937741,6.31577463 C8.92450632,6.10522402 9.44469105,6 10.0000228,6 L10.0000228,6 Z M9.97259127,7.09839608 C9.57591108,7.09839608 9.20366513,7.17313443 8.85588761,7.3226681 C8.50806449,7.47213338 8.20447144,7.67658686 7.94507426,7.93596013 C7.68576826,8.19526503 7.48131391,8.49887958 7.33184798,8.84668981 C7.18230228,9.19451144 7.1075978,9.56672161 7.1075978,9.9633887 C7.1075978,10.2685418 7.15026654,10.5538079 7.23569518,10.81921 C7.32114661,11.0846576 7.4432266,11.3333409 7.60183257,11.5652258 L11.5744238,7.60182572 C11.342538,7.44317484 11.0923492,7.31959104 10.8238348,7.23113129 C10.5553773,7.14261456 10.2716029,7.09839608 9.97259127,7.09839608 L9.97259127,7.09839608 Z M9.97259127,12.8283699 C10.3631173,12.8283699 10.7323204,12.7536088 11.0801435,12.6041435 C11.4279666,12.4546326 11.7315938,12.2501905 11.9908998,11.9908856 C12.2502286,11.731501 12.4546602,11.4279434 12.6041831,11.0801218 C12.7536946,10.7323001 12.8284789,10.3600558 12.8284789,9.9633773 C12.8284789,9.39589925 12.6789332,8.87720968 12.3799557,8.40735417 L8.4165159,12.3706973 C8.64839038,12.5171653 8.89245918,12.630025 9.14881348,12.7094245 C9.4050652,12.7886645 9.6796654,12.8283699 9.97259127,12.8283699 Z" id="形状" fill="#FFFFFF" transform="translate(10.000000, 10.000000) scale(-1, 1) translate(-10.000000, -10.000000) "></path>
                                </g>
                            </g>
                        </g>
                    </g>
                </g>
            </g>
        </g>
    </g>
</svg>