<?xml version="1.0" encoding="UTF-8"?>
<svg width="208px" height="130px" viewBox="0 0 208 130" version="1.1" xmlns="http://www.w3.org/2000/svg" xmlns:xlink="http://www.w3.org/1999/xlink">
    <title>img_咖啡店_def</title>
    <defs>
        <path d="M0,0.328706263 C0.078,0.371701544 0.156,0.413696935 0.232,0.455692325 L0.232,0.455692325 C0.787,0.758659073 1.658,0.756659292 2.213,0.447693203 L2.213,0.447693203 L2.445,0.31870736 C1.762,0.699665548 0.683,0.699665548 0,0.328706263" id="path-1"></path>
        <path d="M0,0.330833771 C0.077,0.371829271 0.154,0.414824552 0.232,0.455820053 L0.232,0.455820053 C0.785,0.75778691 1.657,0.75678702 2.21,0.448820821 L2.21,0.448820821 L2.445,0.318835088 C1.76,0.700793165 0.683,0.700793165 0,0.330833771" id="path-3"></path>
        <path d="M4.894,1.21386677 C3.072,2.22975527 0.07,1.49383604 0.001,0.0639929764 L0.001,0.0639929764 C0.038,1.29485788 0.63,2.33074419 1.666,2.93367801 L1.666,2.93367801 C3.227,3.80258264 5.692,2.71970149 5.782,0.0609933056 L5.782,0.0609933056 C5.757,0.481947103 5.46,0.89890134 4.894,1.21386677" id="path-5"></path>
        <path d="M0.809686596,1.17187138 C0.271686596,0.849906717 0.00568659581,0.434952261 0.00468659581,0.0179980246 L0.00468659581,0.0179980246 C0.00568659581,0.789913302 -0.115313404,1.32685437 0.811686596,1.88479313 L0.811686596,1.88479313 C2.6186866,2.97067395 5.7926866,2.21075735 5.78869037,0.710921972 L5.78869037,0.710921972 L5.7876866,0 C5.7906866,1.49883549 2.6146866,2.25975198 0.809686596,1.17187138" id="path-7"></path>
        <path d="M0,1.75580729 C0.001,2.17276153 0.267,2.58771598 0.805,2.90968064 L0.805,2.90968064 C2.61,3.99756124 5.786,3.23864454 5.78300212,1.73780926 L5.78300212,1.73780926 C5.774,1.34785206 5.586,1.02288773 5.306,0.772915167 L5.306,0.772915167 C5.142,0.62493141 5.039,0.566937775 4.943,0.504944579 L4.943,0.504944579 C4.364,0.160982331 3.628,0 2.901,0 L2.901,0 C1.451,0 0.041,0.641929544 0,1.75580729 M0.931,2.69570413 C-0.108,2.07177261 -0.071,1.0778817 1.011,0.47094831 L1.011,0.47094831 C2.092,-0.130985623 3.812,-0.113987489 4.851,0.511943811 L4.851,0.511943811 C5.889,1.13687522 5.854,2.13376581 4.771,2.73569974 L4.771,2.73569974 C4.242,3.02966747 3.56,3.17665134 2.881,3.17665134 L2.881,3.17665134 C2.171,3.17665134 1.462,3.0166689 0.931,2.69570413" id="path-9"></path>
        <path d="M0,1.7548074 C0,2.16976185 0.268,2.58671609 0.804,2.90868075 L0.804,2.90868075 C2.61,3.99556146 5.786,3.23764465 5.7810059,1.73680937 L5.7810059,1.73680937 C5.771,1.34885195 5.586,1.02388762 5.307,0.772915167 L5.307,0.772915167 C5.139,0.622931629 5.04,0.565937885 4.94,0.504944579 L4.94,0.504944579 C4.937,0.503944689 4.935,0.502944799 4.933,0.500945018 L4.933,0.500945018 C4.928,0.498945237 4.924,0.497945347 4.919,0.496945457 L4.919,0.496945457 C4.924,0.497945347 4.928,0.498945237 4.933,0.500945018 L4.933,0.500945018 C4.355,0.159982441 3.622,0 2.899,0 L2.899,0 C1.451,0 0.042,0.641929544 0,1.7548074 M0.93,2.69670402 C-0.108,2.07177261 -0.072,1.07688181 1.008,0.47094831 L1.008,0.47094831 C2.09,-0.131985514 3.812,-0.11598727 4.85,0.50994403 L4.85,0.50994403 C5.891,1.13487544 5.853,2.13176602 4.77,2.73469985 L4.77,2.73469985 C4.241,3.02966747 3.56,3.17665134 2.881,3.17665134 L2.881,3.17665134 C2.17,3.17665134 1.461,3.01566901 0.93,2.69670402" id="path-11"></path>
        <path d="M0,2.2987477 L0.755,2.73669963 C1.487,2.31474594 2.085,1.28385909 2.08201124,0.438951822 L2.08201124,0.438951822 L1.326,1.42092952e-14 C1.328,0.845907156 0.733,1.87379434 0,2.2987477" id="path-13"></path>
        <path d="M0,2.2987477 L0.755,2.73669963 C1.487,2.31474594 2.085,1.28385909 2.08201124,0.438951822 L2.08201124,0.438951822 L1.326,1.42092952e-14 C1.328,0.845907156 0.733,1.87379434 0,2.2987477" id="path-15"></path>
        <path d="M0,2.2987477 L0.755,2.73669963 C1.487,2.31474594 2.085,1.28385909 2.08201124,0.438951822 L2.08201124,0.438951822 L1.326,1.42092952e-14 C1.328,0.845907156 0.733,1.87379434 0,2.2987477" id="path-17"></path>
        <path d="M0.389,0.849906717 L1.146,1.28885854 C1.145,0.871904303 0.997,0.575936787 0.756,0.437951932 L0.756,0.437951932 L1.42108547e-14,0 C0.24,0.136984965 0.389,0.43195259 0.389,0.849906717" id="path-19"></path>
        <path d="M0,0.370959285 C0.227,0.502944799 0.528,0.677925593 0.755,0.809911107 L0.755,0.809911107 C1.124,0.596934483 1.459,0.577936568 1.702,0.718921094 L1.702,0.718921094 L0.946,0.280969162 C0.844,0.220975746 0.726,0.189979149 0.594,0.189979149 L0.594,0.189979149 C0.416,0.189979149 0.214,0.247972783 0,0.370959285" id="path-21"></path>
        <path d="M-1.42108547e-14,0.448950725 L0.755,0.887902547 C1.44,0.492945896 2.061,0.454950066 2.512,0.717921203 L2.512,0.717921203 L1.756,0.277969491 C1.567,0.168981453 1.347,0.111987709 1.105,0.111987709 L1.105,0.111987709 C0.772,0.111987709 0.397,0.219975856 -1.42108547e-14,0.448950725" id="path-23"></path>
        <path d="M0,0.279980579 L0.755,0.720932182 C0.998,0.860916817 1.333,0.839919122 1.702,0.627942388 L1.702,0.627942388 L0.948,0.189990456 C0.577,0.40196719 0.242,0.421964995 0,0.279980579" id="path-25"></path>
        <path d="M0.389,0.852906388 L1.146,1.29385799 C0.905,1.15287346 0.758,0.85990562 0.756,0.438951822 L0.756,0.438951822 L0,0 C0.004,0.419953907 0.15,0.713921642 0.389,0.852906388" id="path-27"></path>
        <path d="M1.42108547e-14,2.29674792 L0.755019951,2.73669963 C0.751019951,1.89379214 1.35101995,0.86090551 2.08001995,0.437951932 L2.08001995,0.437951932 C1.82701995,0.293967735 1.57501995,0.147983758 1.32401995,0 L1.32401995,0 C0.594019951,0.421953688 -0.00398004918,1.45584021 1.42108547e-14,2.29674792" id="path-29"></path>
        <path d="M1.42108547e-14,2.29674792 L0.755019951,2.73669963 C0.751019951,1.89379214 1.35101995,0.86090551 2.08001995,0.437951932 L2.08001995,0.437951932 C1.82701995,0.293967735 1.57501995,0.147983758 1.32401995,0 L1.32401995,0 C0.594019951,0.421953688 -0.00398004918,1.45584021 1.42108547e-14,2.29674792" id="path-31"></path>
        <path d="M1.42108547e-14,2.29674792 L0.755019951,2.73669963 C0.751019951,1.89379214 1.35101995,0.86090551 2.08001995,0.437951932 L2.08001995,0.437951932 C1.82701995,0.293967735 1.57501995,0.147983758 1.32401995,0 L1.32401995,0 C0.594019951,0.421953688 -0.00398004918,1.45584021 1.42108547e-14,2.29674792" id="path-33"></path>
        <path d="M0,4.26353205 L0.753024341,4.70348376 C0.751024341,3.13765562 1.85302434,1.22386567 3.21702434,0.437951932 L3.21702434,0.437951932 L2.46102434,0 C1.09802434,0.785913741 -0.00597565885,2.69970369 0,4.26353205 L0,4.26353205 Z" id="path-35"></path>
        <path d="M0.997,1.85979588 C1.037,2.00178029 1.07,2.14976405 1.101,2.30174737 L1.101,2.30174737 C1.111,2.29274836 1.125,2.28474923 1.138,2.27675011 L1.138,2.27675011 C1.125,2.28474923 1.111,2.29274836 1.101,2.30174737 L1.101,2.30174737 C1.181,2.7297004 1.736,3.45262105 1.739,3.95456596 L1.739,3.95456596 C1.739,3.99756124 1.736,4.03755685 1.736,4.07955224 L1.736,4.07955224 L2.49,4.55749978 L2.49,4.4325135 C2.487,3.01066956 2.142,1.87479423 1.546,1.06888268 L1.546,1.06888268 C0.897,0.519942933 0.76,0.440951603 0,0 L0,0 C0.45,0.473947981 0.792,1.0978795 0.997,1.85979588 L0.997,1.85979588 Z" id="path-37"></path>
        <path d="M0.751,0.597934373 C0.788,0.62793108 0.848,0.653928227 0.89,0.677925593 L0.89,0.677925593 C1.487,1.0258874 1.648,1.11787731 2.297,1.66681706 L2.297,1.66681706 C2.005,1.27685986 1.66,0.963894206 1.262,0.733919448 L1.262,0.733919448 L0,0 C0.275,0.159982441 0.527,0.358960602 0.751,0.597934373 L0.751,0.597934373 Z" id="path-39"></path>
        <path d="M0,1.00788938 L1.263,1.74380861 C3.287,0.572937116 5.119,0.454950066 6.419,1.20986721 L6.419,1.20986721 L5.157,0.475947762 C4.617,0.162982112 3.987,0 3.288,0 L3.288,0 C2.304,0 1.185,0.323964443 0,1.00788938" id="path-41"></path>
        <path d="M0,11.9766855 C0,12.0196808 0.00305284862,12.0566767 0.00305284862,12.1006719 L0.00305284862,12.1006719 L1.26605285,12.8335914 C1.26605285,12.791596 1.26305285,12.7536002 1.26305285,12.7116048 L1.26305285,12.7116048 C1.25205285,8.36408199 4.42805285,3.00267044 8.35405285,0.735919228 L8.35405285,0.735919228 L7.09105285,-1.42092952e-14 C3.16505285,2.2677511 -0.0149471514,7.62916265 0,11.9766855" id="path-43"></path>
        <path d="M0,13.5465132 C0,13.5965077 0.00202999607,13.6425026 0.00202999607,13.6924972 L0.00202999607,13.6924972 L0.756029996,14.1694448 C0.756029996,14.1204502 0.753029996,14.0754551 0.753029996,14.0244607 L0.753029996,14.0244607 C0.740029996,9.11000012 4.33103,3.04366594 8.77203,0.478947432 L8.77203,0.478947432 L8.01803,0 C3.57803,2.5657184 -0.0119700039,8.63205258 0,13.5465132" id="path-45"></path>
        <path d="M0.5315,0.268970479 C0.5275,0.561938324 0.4225,0.766915826 0.2585,0.86090551 L0.2585,0.86090551 C0.2705,0.855906059 0.2815,0.849906717 0.2915,0.841907595 L0.2915,0.841907595 C0.2945,0.840907705 0.3005,0.838907924 0.3025,0.836908144 L0.3025,0.836908144 C0.3275,0.8209099 0.3535,0.805911546 0.3805,0.788913412 L0.3805,0.788913412 C0.3825,0.788913412 0.3885,0.786913631 0.3905,0.785913741 L0.3905,0.785913741 C0.4025,0.777914619 0.4115,0.771915277 0.4225,0.766915826 L0.4225,0.766915826 C0.4425,0.754917143 0.4615,0.74291846 0.4785,0.732919557 L0.4785,0.732919557 C0.6415,0.637929983 0.7415,0.43195259 0.7415,0.138984746 L0.7415,0.138984746" id="path-47"></path>
        <path d="M0.529,0.267470643 C0.529,0.560438488 0.42,0.765415991 0.258,0.861405455 L0.258,0.861405455 C0.334,0.817410284 0.406,0.775414893 0.476,0.730419832 L0.476,0.730419832 C0.64,0.636430148 0.74,0.430452755 0.742,0.1384848 L0.742,0.1384848" id="path-49"></path>
        <path d="M0.264,0.594 C0.282,0.604 0.3,0.615 0.321,0.626 L0.321,0.626 C0.333,0.632 0.342,0.639 0.352,0.646 L0.352,0.646 C0.356,0.647 0.359,0.649 0.364,0.651 L0.364,0.651 C0.388,0.667 0.416,0.682 0.441,0.697 L0.441,0.697 C0.443,0.699 0.45,0.702 0.451,0.703 L0.451,0.703 C0.456,0.707 0.462,0.71 0.468,0.713 L0.468,0.713 C0.315,0.613 0.216,0.411 0.212,0.13 L0.212,0.13 L5.55111512e-17,0 C0.002,0.292 0.103,0.497 0.264,0.594" id="path-51"></path>
        <path d="M0.5235,0.732419612 C0.5945,0.777414674 0.6695,0.817410284 0.7425,0.861405455 L0.7425,0.861405455 C0.5795,0.765415991 0.4725,0.561438378 0.4725,0.269470424 L0.4725,0.269470424 L0.2575,0.1384848 C0.2615,0.431452645 0.3605,0.637430038 0.5235,0.732419612" id="path-53"></path>
        <path d="M0.5235,0.732919557 C0.5395,0.74291846 0.5585,0.752917362 0.5785,0.765915936 L0.5785,0.765915936 C0.5895,0.769915497 0.5985,0.775914838 0.6115,0.784913851 L0.6115,0.784913851 C0.6135,0.785913741 0.6185,0.788913412 0.6215,0.788913412 L0.6215,0.788913412 C0.6475,0.805911546 0.6755,0.81991001 0.6995,0.834908363 L0.6995,0.834908363 C0.7005,0.837908034 0.7075,0.840907705 0.7085,0.841907595 L0.7085,0.841907595 C0.7185,0.847906937 0.7305,0.853906278 0.7425,0.86090551 L0.7425,0.86090551 C0.5795,0.765915936 0.4745,0.560938433 0.4705,0.268970479 L0.4705,0.268970479 L0.2575,0.138984746 C0.2585,0.4309527 0.3615,0.635930202 0.5235,0.732919557" id="path-55"></path>
        <path d="M0.521,0.731419722 C0.595,0.776414783 0.668,0.817410284 0.743,0.860405565 L0.743,0.860405565 C0.579,0.765415991 0.473,0.561438378 0.473,0.267470643 L0.473,0.267470643 L0.257,0.139484691 C0.261,0.431452645 0.36,0.635430257 0.521,0.731419722" id="path-57"></path>
    </defs>
    <g id="能源云系统V1.0" stroke="none" stroke-width="1" fill="none" fill-rule="evenodd">
        <g id="1.站控系统（站点）首页" transform="translate(-991.000000, -735.000000)">
            <g id="content" transform="translate(440.000000, 336.000000)">
                <g id="img_咖啡店_def" transform="translate(551.000000, 399.358703)">
                    <g id="底座" transform="translate(0.000000, 2.733900)">
                        <polygon id="Fill-1" fill="#64892B" points="104.1849 120.2665 104.1669 126.668797 207.6559 66.5343974 207.6729 60.1321001"></polygon>
                        <polygon id="Fill-2" fill="#6D9931" points="0 66.5351973 104.167 126.668597 104.185 120.2663 0.019 60.1319001"></polygon>
                        <polygon id="Fill-3" fill="#7AAB36" points="0.0189 60.1324001 104.1849 120.2668 207.6729 60.1324001 103.5089 0"></polygon>
                    </g>
                    <g id="编组" transform="translate(27.065800, 0.000000)">
                        <polygon id="Fill-218" fill="#D8D8D8" points="87.3239 49.5789584 71.3589 58.8549403 30.5369 35.1985367 46.5019 25.9225548"></polygon>
                        <path d="M150.1461,56.0758453 C150.1461,58.9985245 147.2811,60.0844053 144.0651,60.0844053 C140.8471,60.0844053 138.4981,58.9985245 138.4981,56.0758453 C138.4981,54.4820202 138.9531,53.6421124 140.2651,52.7882061 C141.4281,52.0282896 142.5271,52.5652306 143.1731,52.3422551 C143.8171,52.1192796 145.2101,51.4823495 145.9391,51.4723506 C147.9661,51.4403541 150.1461,53.1531661 150.1461,56.0758453" id="Fill-20" fill="#231F20" opacity="0.200000003"></path>
                        <path d="M143.5358,40.0102086 L141.9748,38.4253826 C141.5068,37.9554341 140.9138,37.3584997 140.9648,35.633689 L140.9648,28.6034606 L140.7038,28.6034606 L140.7038,35.9276567 C140.7038,37.5804753 141.1188,38.1414137 141.8358,38.8553354 C142.8858,39.9012206 143.1518,40.3041764 143.6118,40.7641259 L143.6118,40.198188 L143.5358,40.0102086 Z" id="Fill-22" fill="#775A20"></path>
                        <path d="M143.109,31.1225841 L144.312,31.1525808 L144.99,54.1860527 C144.99,54.1860527 144.855,55.2299382 143.654,55.2299382 C142.425,55.2299382 142.363,54.2000512 142.363,54.2000512 L143.109,31.1225841 Z" id="Fill-24" fill="#775A20"></path>
                        <path d="M144.652,41.9026009 L144.652,41.9026009 C145.185,41.3696594 145.487,40.6437391 145.487,39.8908217 L145.487,30.9548025 L145.894,30.9548025 L145.894,40.1177968 C145.894,41.3036667 145.42,42.4475411 144.582,43.286449 L144.652,41.9026009 Z" id="Fill-26" fill="#775A20"></path>
                        <path d="M145.9108,36.4695972 L147.0298,35.3337219 C147.3648,34.9987587 147.7898,34.5718055 147.7528,33.3359412 L147.7528,28.3034935 L147.9408,28.3034935 L147.9408,33.5479179 C147.9408,34.7307881 147.6418,35.1317441 147.1298,35.642688 C146.3788,36.3906059 146.1858,36.6805741 145.8558,37.0105379 L145.8558,36.6045824 L145.9108,36.4695972 Z" id="Fill-28" fill="#C4B08D"></path>
                        <path d="M157.4469,27.1410211 C157.4469,25.6711824 156.3839,24.4483166 154.9869,24.1943445 C154.8699,21.5126388 152.6639,19.3718738 149.9529,19.3718738 C149.5699,19.3718738 149.1969,19.4198685 148.8409,19.4998598 C148.4349,18.0210221 147.0879,16.9331415 145.4799,16.9331415 C144.6769,16.9331415 143.9389,17.2061115 143.3519,17.6620615 C142.5469,16.7481618 141.3709,16.1682254 140.0579,16.1682254 C137.6789,16.1682254 135.7449,18.0650172 135.6769,20.4277579 C135.6109,20.4257581 135.5489,20.417759 135.4829,20.417759 C133.2759,20.417759 131.4879,22.2075626 131.4879,24.4123206 C131.4879,24.5073102 131.4959,24.6012998 131.5019,24.6932897 C130.3899,25.2422295 129.6259,26.3831043 129.6259,27.7059591 C129.6259,29.2067944 130.6089,30.4776549 131.9659,30.9116072 C131.9619,30.9845992 131.9549,31.0565913 131.9549,31.132583 C131.9549,34.5522077 134.7239,37.3239035 138.1449,37.3239035 C138.8649,37.3239035 139.5519,37.1959175 140.1929,36.9709422 C141.0949,38.1048177 142.4749,38.8297382 144.0229,38.8297382 C145.9939,38.8297382 147.6869,37.6528674 148.4739,35.9540538 C148.9999,36.1410333 149.5639,36.2470217 150.1529,36.2470217 C152.9389,36.2470217 155.1989,33.9882696 155.1989,31.2025753 C155.1989,30.813618 155.1499,30.4376593 155.0669,30.0736992 C156.4259,29.7897304 157.4469,28.5848626 157.4469,27.1410211" id="Fill-30" fill="#4B6D0F"></path>
                        <path d="M137.7457,24.4504164 C137.7407,24.3914229 137.7377,24.3324294 137.7377,24.2744357 C137.7377,22.5706227 139.1187,21.1907742 140.8217,21.1907742 C142.0847,21.1907742 143.1717,21.9506908 143.6457,23.0385714 C144.0447,22.7026082 144.7757,22.2016632 145.2427,22.103674 C149.4357,21.2387689 149.4467,26.0452414 149.5777,25.930254 C149.7697,25.7632723 150.3467,23.1125632 148.5037,21.638725 C145.8427,19.5109585 143.9387,20.9577997 143.5137,21.1057835 C143.0367,20.0189028 141.7157,19.0440098 140.4527,19.0440098 C138.7497,19.0440098 137.4357,20.1458889 137.4357,21.848702 C137.4357,21.9076955 137.3197,22.8445927 137.3257,22.9025863 C136.3937,23.1015645 134.6537,24.1274519 134.6537,25.9402529 C134.6537,26.5481862 134.7857,27.1231231 135.0207,27.643066 C135.2847,26.1512297 136.3417,24.9363631 137.7457,24.4504164" id="Fill-32" fill="#71991C"></path>
                        <path d="M144.9196,26.2534185 C146.0916,26.6623736 146.8526,27.7202575 146.9436,28.8861296 C147.5066,28.6241583 148.5936,29.0021168 149.0346,29.1551 C150.9506,29.8240266 151.5656,31.6858223 150.9896,33.6536063 C151.3376,33.3036447 151.6176,32.8716921 151.7896,32.3737468 C152.4186,30.5739443 151.4696,28.6031606 149.6676,27.9732298 C149.2966,27.8442439 148.9176,27.7822507 148.5456,27.7812508 C148.4676,26.804358 147.8316,25.9174554 146.8476,25.574493 C145.9296,25.2525284 144.9516,25.4915021 144.2826,26.1064346 C144.4946,26.1324318 144.7086,26.1784267 144.9196,26.2534185" id="Fill-34" fill="#71991C"></path>
                        <g id="树" transform="translate(0.000000, 30.583143)">
                            <path d="M22.7379,41.0803912 C22.7379,44.6559987 19.2329,45.9848529 15.2989,45.9848529 C11.3629,45.9848529 8.4879,44.6559987 8.4879,41.0803912 C8.4879,39.1296053 9.0449,38.1037179 10.6469,37.0578327 C12.0729,36.1279347 13.4169,36.7858625 14.2059,36.5118926 C14.9939,36.2389225 16.6999,35.460008 17.5929,35.4460096 C20.0709,35.4100135 22.7379,37.5047836 22.7379,41.0803912" id="Fill-36" fill="#231F20" opacity="0.200000003"></path>
                            <path d="M13.9098,23.8419832 L12.3508,22.2571571 C11.8808,21.7892085 11.2888,21.1902742 11.3398,19.4644636 L11.3398,12.4352352 L11.0778,12.4352352 L11.0778,19.7594313 C11.0778,21.4122499 11.4938,21.9721884 12.2088,22.6861101 C13.2598,23.7319953 13.5268,24.1359509 13.9878,24.5959004 L13.9878,24.0299626 L13.9098,23.8419832 Z" id="Fill-38" fill="#775A20"></path>
                            <path d="M13.484,14.9538587 L14.686,14.9838554 L15.364,38.0173273 C15.364,38.0173273 15.229,39.0622127 14.029,39.0622127 C12.798,39.0622127 12.736,38.0323257 12.736,38.0323257 L13.484,14.9538587 Z" id="Fill-40" fill="#775A20"></path>
                            <path d="M15.026,25.7348754 L15.026,25.7348754 C15.56,25.2019339 15.859,24.4750137 15.859,23.7220963 L15.859,14.7860771 L16.268,14.7860771 L16.268,23.9490714 C16.268,25.1339414 15.793,26.2788157 14.957,27.1167238 L15.026,25.7348754 Z" id="Fill-42" fill="#775A20"></path>
                            <path d="M27.82,10.9727957 C27.82,9.50295699 26.759,8.28009121 25.359,8.02711897 C25.244,5.34441342 23.039,3.20364838 20.328,3.20364838 C19.944,3.20364838 19.572,3.24964333 19.215,3.33063444 C18.81,1.85179675 17.461,0.763916155 15.852,0.763916155 C15.05,0.763916155 14.313,1.03688619 13.724,1.49383604 C12.92,0.578936458 11.746,0 10.433,0 C8.052,0 6.119,1.89679181 6.05,4.25953249 C5.984,4.25653282 5.922,4.24953359 5.858,4.24953359 C3.651,4.24953359 1.862,6.03833725 1.862,8.24409516 C1.862,8.33908473 1.87,8.43107463 1.875,8.52506432 C0.766,9.07400407 0,10.2148789 0,11.5367338 C0,13.0385689 0.981,14.3084296 2.34,14.7423819 C2.337,14.8163738 2.328,14.8893658 2.328,14.9643576 C2.328,18.3839822 5.099,21.155678 8.521,21.155678 C9.24,21.155678 9.926,21.0266922 10.566,20.8017169 C11.469,21.9355924 12.851,22.6615128 14.397,22.6615128 C16.367,22.6615128 18.063,21.483642 18.848,19.7868283 C19.374,19.9728079 19.937,20.0787962 20.527,20.0787962 C23.311,20.0787962 25.572,17.8200441 25.572,15.0353498 C25.572,14.6453926 25.525,14.2694338 25.439,13.9054738 C26.801,13.6205051 27.82,12.4156373 27.82,10.9727957" id="Fill-46" fill="#4B6D0F"></path>
                            <path d="M8.1188,8.28069114 C8.1158,8.2236974 8.1138,8.16370398 8.1138,8.10371056 C8.1138,6.40289724 9.4948,5.0220488 11.1958,5.0220488 C12.4588,5.0220488 13.5448,5.78196539 14.0198,6.8688461 C14.4198,6.53488275 15.1508,6.03193796 15.6168,5.9349486 C19.8098,5.07104342 19.8218,9.87651599 19.9528,9.76052872 C20.1428,9.59454694 20.7208,6.94483776 18.8788,5.46999963 C16.2168,3.34123328 14.3128,4.78907437 13.8888,4.93605824 C13.4098,3.84917753 12.0888,2.87528442 10.8268,2.87528442 C9.1248,2.87528442 7.8118,3.97816337 7.8118,5.6779768 C7.8118,5.73897011 7.6948,6.67586728 7.6988,6.73286102 C6.7668,6.93283908 5.0268,7.95872648 5.0268,9.77152751 C5.0268,10.3784609 5.1608,10.9543977 5.3958,11.4733407 C5.6598,9.98450414 6.7178,8.7666378 8.1188,8.28069114" id="Fill-48" fill="#71991C"></path>
                            <path d="M15.2926,10.0841932 C16.4656,10.4951481 17.2266,11.553032 17.3166,12.7179041 C17.8806,12.4559329 18.9676,12.8338914 19.4106,12.9878745 C21.3236,13.6558012 21.9386,15.516597 21.3636,17.4853809 C21.7106,17.1334195 21.9896,16.7024668 22.1656,16.2055213 C22.7926,14.404719 21.8426,12.4339353 20.0406,11.8040044 C19.6706,11.6750186 19.2906,11.6150252 18.9176,11.6120255 C18.8436,10.6361326 18.2036,9.74922996 17.2216,9.40526771 C16.3026,9.08430294 15.3256,9.32127693 14.6556,9.93820922 C14.8686,9.96420636 15.0816,10.0102013 15.2926,10.0841932" id="Fill-50" fill="#71991C"></path>
                        </g>
                        <path d="M143.2428,63.5901206 C147.5398,66.0728481 147.5638,70.0934068 143.2938,72.5741345 L82.7828,107.41731 C78.5148,109.900038 71.5708,109.900038 67.2728,107.41731 L31.7168,87.1575339 C27.4198,84.6798058 27.3968,80.6562474 31.6678,78.1755197 L92.1768,43.3333439 C96.4468,40.8526162 103.3898,40.8526162 107.6888,43.3333439 L143.2428,63.5901206 Z" id="Fill-52" fill="#D8D8D8"></path>
                        <path d="M90.8024,35.4184126 L97.7734,31.1928764 L97.7734,49.8998232 L90.8024,53.4964284 L90.8024,35.4184126 Z M101.7164,54.6762989 L101.6434,10.3061688 L44.3184,43.6545086 L45.5424,87.4667 L70.0764,73.3882452 L101.7164,54.6762989 Z" id="Fill-54" fill="#4B7FBC"></path>
                        <polygon id="Fill-56" fill="#5B564F" points="71.7819 103.572132 53.9759 82.6414296 110.2279 50.3169774 136.9909 65.9632601"></polygon>
                        <polygon id="Fill-58" fill="#FFFFFF" points="71.6832 92.7837164 62.6582 87.5782877 71.7712 82.3318635 80.7982 87.5372922"></polygon>
                        <polygon id="Fill-60" fill="#FFFFFF" points="90.734 82.1144874 81.709 76.9090587 91.653 71.2986745 100.679 76.5041032"></polygon>
                        <polygon id="Fill-62" fill="#FFFFFF" points="110.527 70.8603226 101.499 65.6558938 111.445 60.0465095 120.366 65.4029216"></polygon>
                        <polygon id="Fill-64" fill="#FFFFFF" points="129.1071 70.2031947 120.3021 65.3417283 128.2051 60.9132144 137.0141 65.9106659"></polygon>
                        <polygon id="Fill-66" fill="#FFFFFF" points="109.7692 81.6936336 100.6662 76.4702069 110.6122 70.8598227 119.5272 76.0462534"></polygon>
                        <polygon id="Fill-68" fill="#FFFFFF" points="91.609 71.3441695 82.585 66.1377409 92.529 60.5273567 101.553 65.7337853"></polygon>
                        <polygon id="Fill-70" fill="#FFFFFF" points="71.7721 82.5070443 62.9621 77.4775963 72.8141 71.7842212 81.7171 76.8986599"></polygon>
                        <polygon id="Fill-72" fill="#FFFFFF" points="90.0661 92.9941933 80.8761 87.5487909 90.8221 81.9384067 99.9891 87.338814 97.7201 88.65067"></polygon>
                        <path d="M64.0153,89.1166189 L50.6133,81.6664366 L50.6133,62.9614896 L64.0153,71.0396029 L64.0153,89.1166189 Z M71.7533,59.5448646 L44.3183,43.6546086 L44.3913,87.55779 L71.7823,103.572032 L71.7533,59.5448646 Z" id="Fill-74" fill="#C9966B"></path>
                        <polygon id="Fill-76" fill="#231F20" opacity="0.100000001" points="71.7819 103.572132 84.6049 103.569133 145.0299 67.1191332 133.4459 60.5648526"></polygon>
                        <path d="M128.5104,51.5123462 L115.1094,44.0621639 L115.1094,25.356217 L128.5104,33.4353303 L128.5104,51.5123462 Z M136.2484,21.9415918 L108.8134,6.05033594 L108.8864,49.9535173 L136.3204,65.8447731 L136.2484,21.9415918 Z" id="Fill-78" fill="#9C9EA0"></path>
                        <path d="M77.0387,92.9033033 L77.0387,74.8272872 L91.9867,65.9172651 L91.9867,84.623212 L77.0387,92.9033033 Z M118.1857,51.3068687 L125.1587,47.0813325 L125.1587,65.7882793 L118.1857,69.3838847 L118.1857,51.3068687 Z M97.1987,58.9530295 L113.0897,49.3290858 L113.2767,79.6597568 L137.0147,65.9702593 L136.9777,21.5471351 L71.6907,59.2000024 L71.7817,103.572132 L97.0387,89.0317282 L97.1987,58.9530295 Z" id="Fill-80" fill="#DBAE86"></path>
                        <polygon id="Fill-82" fill="#CEC6B7" points="77.0387 55.8619688 51.5717 39.8287285 103.3097 8.8641271 130.7437 24.754383"></polygon>
                        <polygon id="Fill-84" fill="#8EE6EF" points="64.0153 89.6204636 50.6133 82.1702813 50.6133 63.4643344 64.0153 71.5424477"></polygon>
                        <polygon id="Fill-86" fill="#B8C8C9" points="64.4235 76.5608969 50.9195 68.8047482 50.9195 70.1386018 64.4235 77.8977502"></polygon>
                        <polygon id="Fill-88" fill="#B8C8C9" points="50.9264 83.2222658 52.2184 82.5023448 64.4234 89.5175749 63.1304 90.2384957"></polygon>
                        <polygon id="Fill-90" fill="#B8C8C9" points="50.9928 64.7823897 52.2188 64.0614688 52.2188 82.5024448 50.9268 83.2223658"></polygon>
                        <polygon id="Fill-92" fill="#B8C8C9" points="64.5094 71.0449024 65.5254 70.3159824 65.4504 91.775627 64.4364 92.5035471"></polygon>
                        <polygon id="Fill-94" fill="#B8C8C9" points="49.6852 62.5155385 50.7002 61.7886183 65.5252 70.3166823 64.5092 71.0446024"></polygon>
                        <path d="M63.1305,90.2380958 L63.1305,71.7981197 L50.9925,64.7828897 L50.9265,83.2218659 L63.1305,90.2380958 Z M49.6855,62.5151386 L64.5095,71.0452023 L64.4365,92.5038471 L49.6105,83.9747832 L49.6855,62.5151386 Z" id="Fill-96" fill="#FFFFFF"></path>
                        <polygon id="Fill-98" fill="#FFFFFF" points="63.6032 77.3826068 50.0982 69.626458 50.0982 70.9603116 63.6032 78.71946"></polygon>
                        <polygon id="Fill-100" fill="#8EE6EF" points="85.0133 88.2203172 91.9873 84.6227121 91.9873 65.9177651 85.0133 70.1433013"></polygon>
                        <polygon id="Fill-102" fill="#B8C8C9" points="84.6051 75.1631504 91.6791 71.257579 91.6791 72.5924325 84.6051 76.4960041"></polygon>
                        <polygon id="Fill-104" fill="#B8C8C9" points="91.6754 85.6746966 90.3814 84.9557755 84.6054 88.1164286 85.8984 88.8373495"></polygon>
                        <polygon id="Fill-106" fill="#B8C8C9" points="91.6071 67.2353205 90.3811 66.5153995 90.3811 84.9563755 91.6751 85.6742967"></polygon>
                        <polygon id="Fill-108" fill="#B8C8C9" points="84.5172 69.644656 83.5022 68.9177358 83.5782 90.3763806 84.5912 91.1033008"></polygon>
                        <polygon id="Fill-110" fill="#B8C8C9" points="92.9157 64.9688692 91.8987 64.241949 83.5027 68.9174359 84.5177 69.6443561"></polygon>
                        <path d="M85.8981,88.8373495 L91.6751,85.6746966 L91.6071,67.2357204 L85.8981,70.3973734 L85.8981,88.8373495 Z M92.9901,86.427614 L84.5911,91.1031008 L84.5171,69.6444561 L92.9161,64.9689692 L92.9901,86.427614 Z" id="Fill-112" fill="#FFFFFF"></path>
                        <polygon id="Fill-114" fill="#FFFFFF" points="85.4254 75.9828604 92.5004 72.0782889 92.5004 73.4151422 85.4254 77.3177139"></polygon>
                        <polygon id="Fill-116" fill="#8EE6EF" points="77.0387 92.65973 84.0127 89.0651245 84.0127 70.3601775 77.0387 74.5827141"></polygon>
                        <polygon id="Fill-118" fill="#B8C8C9" points="76.6305 79.603563 83.7055 75.6999914 83.7055 77.033845 76.6305 80.9384165"></polygon>
                        <polygon id="Fill-120" fill="#B8C8C9" points="83.6989 90.1165091 82.4079 89.3955882 76.6309 92.5582411 77.9239 93.279162"></polygon>
                        <polygon id="Fill-122" fill="#B8C8C9" points="83.6334 71.6752332 82.4084 70.9563121 82.4084 89.3962882 83.6994 90.1162092"></polygon>
                        <polygon id="Fill-124" fill="#B8C8C9" points="76.5416 74.0860686 75.5276 73.3591484 75.6036 94.8177931 76.6166 95.5447133"></polygon>
                        <polygon id="Fill-126" fill="#B8C8C9" points="84.9391 69.4107817 83.9241 68.6838615 75.5281 73.3593483 76.5421 74.0862685"></polygon>
                        <path d="M77.9235,93.278762 L83.6985,90.1161092 L83.6335,71.6751332 L77.9235,74.838786 L77.9235,93.278762 Z M85.0135,90.8700264 L76.6165,95.5445134 L76.5415,74.0858686 L84.9395,69.4103818 L85.0135,90.8700264 Z" id="Fill-128" fill="#FFFFFF"></path>
                        <polygon id="Fill-130" fill="#FFFFFF" points="77.4508 80.4252728 84.5238 76.5187016 84.5238 77.8555548 77.4508 81.7591264"></polygon>
                        <polygon id="Fill-132" fill="#8EE6EF" points="126.5416 64.743394 133.5126 61.1497884 133.5126 42.4418417 126.5416 46.6673779"></polygon>
                        <polygon id="Fill-134" fill="#B8C8C9" points="126.1315 51.6857272 133.2055 47.7821556 133.2055 49.1160092 126.1315 53.0195808"></polygon>
                        <polygon id="Fill-136" fill="#B8C8C9" points="133.2028 62.1986733 131.9098 61.4787523 126.1318 64.6404053 127.4258 65.3613262"></polygon>
                        <polygon id="Fill-138" fill="#B8C8C9" points="133.1354 43.7597971 131.9094 43.0378763 131.9094 61.4788523 133.2024 62.1987733"></polygon>
                        <polygon id="Fill-140" fill="#B8C8C9" points="126.0446 46.1687327 125.0306 45.4408126 125.1046 66.8994573 126.1186 67.6273775"></polygon>
                        <polygon id="Fill-142" fill="#B8C8C9" points="134.4411 41.4934458 133.4281 40.7655257 125.0311 45.4410126 126.0451 46.1689327"></polygon>
                        <path d="M127.4254,65.3614262 L133.2024,62.1987733 L133.1354,43.7597971 L127.4254,46.9204502 L127.4254,65.3614262 Z M134.5164,62.9526905 L126.1184,67.6271775 L126.0444,46.1685327 L134.4414,41.4930459 L134.5164,62.9526905 Z" id="Fill-144" fill="#FFFFFF"></path>
                        <polygon id="Fill-146" fill="#FFFFFF" points="126.9518 52.5064371 134.0268 48.6028655 134.0268 49.9387189 126.9518 53.8432903"></polygon>
                        <polygon id="Fill-148" fill="#8EE6EF" points="118.1862 69.3834847 125.1592 65.7878793 125.1592 47.0809326 118.1862 51.3064688"></polygon>
                        <polygon id="Fill-150" fill="#B8C8C9" points="117.777 56.3263178 124.851 52.4227463 124.851 53.7575998 117.777 57.6601714"></polygon>
                        <polygon id="Fill-152" fill="#B8C8C9" points="124.8473 66.838864 123.5543 66.118943 117.7773 69.280596 119.0713 70.0015169"></polygon>
                        <polygon id="Fill-154" fill="#B8C8C9" points="124.7809 48.3994878 123.5539 47.678567 123.5539 66.1195429 124.8469 66.838464"></polygon>
                        <polygon id="Fill-156" fill="#B8C8C9" points="117.6891 50.8083235 116.6731 50.0804033 116.7501 71.5410479 117.7631 72.2659683"></polygon>
                        <polygon id="Fill-158" fill="#B8C8C9" points="126.0856 46.1321367 125.0716 45.4052165 116.6736 50.0807033 117.6896 50.8086234"></polygon>
                        <path d="M119.0709,70.0016169 L124.8469,66.838964 L124.7809,48.3999878 L119.0709,51.5606409 L119.0709,70.0016169 Z M126.1619,67.5918813 L117.7629,72.2663683 L117.6889,50.8087234 L126.0859,46.1322367 L126.1619,67.5918813 Z" id="Fill-160" fill="#FFFFFF"></path>
                        <polygon id="Fill-162" fill="#FFFFFF" points="118.5973 57.1460278 125.6733 53.2434562 125.6733 54.5763099 118.5973 58.4818812"></polygon>
                        <polygon id="Fill-164" fill="#8EE6EF" points="97.0104 89.0590252 109.7474 81.7328293 113.2564 79.7170505 113.0694 49.3673816 97.1794 58.9923252"></polygon>
                        <polygon id="Fill-166" fill="#B8C8C9" points="96.6403 67.4661951 112.8113 58.0662269 112.8113 59.2790937 96.6403 68.6800619"></polygon>
                        <polygon id="Fill-168" fill="#B8C8C9" points="113.4274 50.4812594 112.3144 49.8253313 112.2474 80.277989 112.6694 80.4519699 113.4234 79.9900206"></polygon>
                        <polygon id="Fill-170" fill="#B8C8C9" points="96.9704 58.3865917 96.0494 57.7256642 96.0314 89.6081649 96.5114 89.8541379"></polygon>
                        <polygon id="Fill-172" fill="#B8C8C9" points="113.8971 48.0328281 113.4181 47.623873 96.0491 57.7257642 96.9701 58.3866917"></polygon>
                        <polygon id="Fill-174" fill="#FFFFFF" points="97.3414 67.576583 113.5114 58.1766147 113.5114 59.3894816 97.3414 68.7904498"></polygon>
                        <polygon id="Fill-176" fill="#FFFFFF" points="97.6979 78.1071272 97.7279 78.1071272 97.7709 58.7982465 112.6999 50.0712044 112.6699 80.4528698 113.8899 79.7419478 113.8869 48.0114304 96.5159 58.1123218 96.5119 89.853838 97.6979 89.1579143"></polygon>
                        <polygon id="Fill-178" fill="#FFFFFF" points="105.8434 83.939987 105.2984 84.2569522 105.2984 64.1741565 105.8434 63.841193"></polygon>
                        <polygon id="Fill-180" fill="#C4AD9B" points="130.6774 22.2909534 130.6604 27.9813289 101.7734 11.3061591 101.7884 5.61578363"></polygon>
                        <polygon id="Fill-182" fill="#C4AD9B" points="103.9967 4.3232255 103.9797 10.0146008 49.2767 41.738119 49.2927 36.0467436"></polygon>
                        <polygon id="Fill-184" fill="#C4AD9B" points="76.0914 58.0683266 76.0754 63.7577022 39.4014 41.7411186 39.4164 36.0507432"></polygon>
                        <polygon id="Fill-186" fill="#D8C3B2" points="140.5172 22.3925423 140.5002 28.0829177 76.0762 63.7580021 76.0912 58.0686266"></polygon>
                        <path d="M75.8952,52.7432111 L130.6442,22.3925423 L101.7572,5.71637259 L49.2922,36.0470436 L75.8952,52.7432111 Z M101.7242,0 L140.5172,22.3925423 L75.9222,58.4635832 L39.4162,36.0510432 L101.7242,0 Z" id="Fill-188" fill="#EAE1CE"></path>
                        <polygon id="Fill-190" fill="#B1C9C7" points="114.2858 13.94037 114.2668 19.6447439 111.0428 21.4825422 111.0608 15.7791681"></polygon>
                        <polygon id="Fill-192" fill="#E8EDEC" points="111.0612 15.7789682 111.0422 21.4833421 103.3192 17.0238315 103.3352 11.3194576"></polygon>
                        <polygon id="Fill-194" fill="#D7DDDC" points="114.2858 13.94037 111.0608 15.7791681 103.3358 11.3186577 106.5618 9.47985952"></polygon>
                        <path d="M105.5407,13.3559341 C106.5037,13.9118731 107.2827,15.2597251 107.278715,16.3646039 C107.2767,17.4724823 106.4937,17.9184333 105.5287,17.3634942 C104.5667,16.8065554 103.7897,15.4597032 103.794676,14.3518248 C103.7957,13.247946 104.5777,12.7999951 105.5407,13.3559341" id="Fill-196" fill="#8EA3A0"></path>
                        <path d="M105.5407,14.4613128 C105.9707,14.7112853 106.3197,15.3152191 106.317709,15.8111646 C106.3157,16.3061103 105.9657,16.5060883 105.5327,16.2581156 C105.1017,16.0071431 104.7537,15.4042093 104.7537,14.9072638 C104.7567,14.413318 105.1057,14.2103403 105.5407,14.4613128" id="Fill-198" fill="#B1C9C7"></path>
                        <polygon id="Fill-200" fill="#B1C9C7" points="107.5397 14.3451255 110.7007 16.1399285 110.7007 16.4038996 107.5397 14.5701008"></polygon>
                        <polygon id="Fill-202" fill="#B1C9C7" points="107.5397 14.9978539 110.7007 16.791657 110.7007 17.0566279 107.5397 15.2228292"></polygon>
                        <polygon id="Fill-204" fill="#B1C9C7" points="123.9215 19.2644856 123.9035 24.9688595 120.6785 26.8056579 120.6945 21.1022839"></polygon>
                        <polygon id="Fill-206" fill="#E8EDEC" points="120.695 21.1026838 120.678 26.8060579 112.953 22.3485471 112.97 16.6431733"></polygon>
                        <polygon id="Fill-208" fill="#D7DDDC" points="123.9215 19.2644856 120.6945 21.1022839 112.9705 16.6427733 116.1965 14.8049751"></polygon>
                        <path d="M115.1774,18.6805497 C116.1384,19.2364887 116.9184,20.5833408 116.913424,21.6892195 C116.9114,22.796098 116.1274,23.2430489 115.1644,22.6881098 C114.2014,22.131171 113.4234,20.7833189 113.429366,19.6774403 C113.4314,18.5725615 114.2124,18.1236108 115.1774,18.6805497" id="Fill-210" fill="#8EA3A0"></path>
                        <path d="M115.1754,19.7849285 C115.6064,20.034901 115.9534,20.6388348 115.951409,21.1337804 C115.9504,21.6307259 115.5994,21.8307039 115.1694,21.5807314 C114.7364,21.3317587 114.3884,20.727825 114.389398,20.2308795 C114.3914,19.7369337 114.7404,19.5349559 115.1754,19.7849285" id="Fill-212" fill="#B1C9C7"></path>
                        <polygon id="Fill-214" fill="#B1C9C7" points="117.1754 19.6701411 120.3354 21.4639442 120.3354 21.729915 117.1754 19.8931166"></polygon>
                        <polygon id="Fill-216" fill="#B1C9C7" points="117.1754 20.3219695 120.3354 22.1157726 120.3354 22.3817435 117.1754 20.5469448"></polygon>
                    </g>
                    <g id="编组" transform="translate(143.302000, 68.460244)">
                        <mask id="mask-2" fill="white">
                            <use xlink:href="#path-1"></use>
                        </mask>
                        <g id="Clip-225"></g>
                    </g>
                    <g id="花盆" transform="translate(60.612400, 63.235260)">
                        <g id="编组" transform="translate(14.199600, 15.400740)">
                            <mask id="mask-4" fill="white">
                                <use xlink:href="#path-3"></use>
                            </mask>
                            <g id="Clip-257"></g>
                        </g>
                        <g id="编组-24">
                            <g id="编组-23">
                                <g id="编组-22">
                                    <path d="M7.3671,10.8523089 C8.4051,11.4762404 8.3711,12.4741309 7.2871,13.0760648 C6.2051,13.6779988 4.4861,13.6630004 3.4471,13.0360692 C2.4081,12.4111378 2.4451,11.4182468 3.5271,10.8103135 C4.6091,10.2093795 6.3291,10.2263776 7.3671,10.8523089" id="Fill-258" fill="#38260E"></path>
                                    <g id="编组-21">
                                        <g id="编组" transform="translate(2.517600, 12.788896)">
                                            <mask id="mask-6" fill="white">
                                                <use xlink:href="#path-5"></use>
                                            </mask>
                                            <g id="Clip-265"></g>
                                            <path d="M1.5829,2.8836835 C0.6649,2.32574473 0.0229,1.29585777 -0.0001,0.0169981343 C0.0019,0.434952261 0.2689,0.850906607 0.8069,1.17387116 C2.6099,2.2577522 5.7869,1.50083527 5.78290377,0 C5.7489,1.72881025 4.7299,2.57771708 4.1269,2.93067834 C3.4359,3.3146362 2.3499,3.31263642 1.6659,2.93367801 C1.6409,2.91967955 1.6069,2.90068163 1.5829,2.8836835" id="Fill-264" fill="#B26202" mask="url(#mask-6)"></path>
                                        </g>
                                        <g id="编组">
                                            <path d="M5.1366,12.345245 C5.1496,12.6622102 5.6726,12.6142155 5.6726,12.3212477 L5.6756,6.77885598 C5.6756,6.62087332 5.5586,6.49088758 5.4076,6.49088758 C5.2606,6.49088758 5.1406,6.62087332 5.1406,6.78085576 L5.1336,10.9373995 C5.1336,10.9493982 5.1336,10.9613969 5.1366,10.9723957 L5.1366,12.345245 Z" id="Fill-266" fill="#938548"></path>
                                            <path d="M6.2499,8.646451 L6.2499,9.60134619 C6.2609,10.0143009 6.2129,10.1212891 5.9359,10.3212672 L5.4139,10.5812386 L5.5569,10.8722067 L6.0849,10.605236 C6.5369,10.3082686 6.5729,9.98930361 6.5729,9.60134619 L6.5729,8.646451 L6.2499,8.646451 Z" id="Fill-268" fill="#938548"></path>
                                            <path d="M4.4531,10.0959919 L4.4531,9.1111 L4.1221,9.1111 L4.1221,10.0959919 C4.1221,10.495948 4.1581,10.8299113 4.6311,11.1408772 L5.1701,11.4128474 L5.3181,11.1108805 L4.7911,10.8469095 C4.4921,10.632933 4.4431,10.5239449 4.4531,10.0959919" id="Fill-270" fill="#938548"></path>
                                            <path d="M8.498,6.48558816 C8.498,7.990423 7.278,9.20928922 5.774,9.20928922 C4.269,9.20928922 3.052,7.990423 3.052,6.48558816 C3.052,4.98275311 4.269,3.762887 5.774,3.762887 C7.278,3.762887 8.498,4.98275311 8.498,6.48558816" id="Fill-272" fill="#498C44"></path>
                                            <path d="M10.54,5.39540782 C10.701,5.06344425 10.795,4.69048519 10.795,4.29452865 C10.795,3.00567011 9.827,1.94478655 8.579,1.79480301 C8.221,0.750917582 7.235,0 6.069,0 C4.783,0 3.711,0.914899584 3.468,2.12976624 C3.148,1.97478325 2.79,1.88279335 2.41,1.88279335 C1.078,1.88279335 0,2.96367472 0,4.29452865 C0,4.73748003 0.121,5.1514346 0.33,5.50839542 C0.118,5.97834384 0,6.4952871 0,7.04522674 C0,9.11899913 1.681,10.8008145 3.756,10.8008145 C4.75,10.8008145 5.65,10.413857 6.322,9.78092648 C6.695,9.92891024 7.101,10.012901 7.527,10.012901 C9.344,10.012901 10.818,8.53806289 10.818,6.71926252 C10.818,6.24731432 10.717,5.80236315 10.54,5.39540782" id="Fill-274" fill="#4B6D0F"></path>
                                            <path d="M8.7812,4.38471875 C8.7812,3.17985099 7.8022,2.20095843 6.5952,2.20095843 C6.3472,2.20095843 6.1062,2.24395371 5.8862,2.31994537 C5.6372,1.75200771 5.0712,1.35605116 4.4122,1.35605116 C3.5232,1.35605116 2.8022,2.07597215 2.8022,2.9638747 C2.8022,2.99587118 2.8052,3.02586789 2.8072,3.0558646 C1.9612,3.34983233 1.3522,4.15474399 1.3522,5.09964028 C1.3522,6.29350925 2.3202,7.26040312 3.5132,7.26040312 C3.7052,7.26040312 3.8892,7.23740565 4.0672,7.18841102 C4.2342,7.8063432 4.7992,8.26029338 5.4682,8.26029338 C6.0582,8.26029338 6.5692,7.90833201 6.7952,7.40238754 L6.8112,7.40238754 C7.5352,7.40238754 8.1232,6.82345108 8.1362,6.10153032 L8.1362,5.93454864 C8.5342,5.5385921 8.7812,4.99165213 8.7812,4.38471875" id="Fill-276" fill="#71991C"></path>
                                        </g>
                                    </g>
                                </g>
                                <g id="编组" transform="translate(2.511913, 12.077974)">
                                    <mask id="mask-8" fill="white">
                                        <use xlink:href="#path-7"></use>
                                    </mask>
                                    <g id="Clip-263"></g>
                                    <path d="M0.00558659581,0.728220073 L0.00458659581,0.0182979917 C0.00558659581,0.434252338 0.272586596,0.850206684 0.809586596,1.17217135 C2.6145866,2.25905205 5.7905866,1.49913546 5.7875866,-0.000699923179 L5.78859037,0.711221939 C5.7925866,2.21105732 2.6185866,2.97097392 0.812586596,1.8850931 C0.274586596,1.56112866 0.00758659581,1.14517431 0.00558659581,0.728220073" id="Fill-262" fill="#FFAC33" mask="url(#mask-8)"></path>
                                </g>
                            </g>
                            <g id="编组" transform="translate(2.516600, 10.340165)">
                                <mask id="mask-10" fill="white">
                                    <use xlink:href="#path-9"></use>
                                </mask>
                                <g id="Clip-261"></g>
                                <path d="M4.7704,2.73599971 C3.6884,3.33793364 1.9694,3.3219354 0.9304,2.6960041 C-0.0306,2.11906742 0.8644,0.701223036 1.0064,0.490246192 C1.6464,0.712221829 5.7704,2.17806094 4.7704,2.73599971 M0.0004,1.75610726 C0.0004,2.1720616 0.2674,2.58801595 0.8044,2.90998061 C2.6104,3.99686132 5.7864,3.23694472 5.78340212,1.73710934 C5.7274,-0.579636381 0.0864,-0.551639454 0.0004,1.75610726" id="Fill-260" fill="#FFC050" mask="url(#mask-10)"></path>
                            </g>
                        </g>
                    </g>
                    <g id="编组" transform="translate(141.620000, 63.399541)">
                        <mask id="mask-12" fill="white">
                            <use xlink:href="#path-11"></use>
                        </mask>
                        <g id="Clip-229"></g>
                    </g>
                    <g id="编组" transform="translate(125.870000, 13.155056)">
                        <g>
                            <mask id="mask-14" fill="white">
                                <use xlink:href="#path-13"></use>
                            </mask>
                            <g id="Clip-279"></g>
                            <path d="M0.755,2.73619968 L-0.001,2.29924764 C0.264,2.14626443 0.512,1.91329 0.72,1.64031996 L1.473,2.07727201 C1.266,2.35224183 1.02,2.58521626 0.755,2.73619968" id="Fill-278" fill="#FFFFFF" mask="url(#mask-14)"></path>
                        </g>
                        <g>
                            <mask id="mask-16" fill="white">
                                <use xlink:href="#path-15"></use>
                            </mask>
                            <g id="Clip-281"></g>
                            <path d="M1.4728,2.07757197 L0.7198,1.64061993 C0.9088,1.38664781 1.0678,1.09867941 1.1758,0.803711787 L1.9298,1.24266361 C1.8238,1.53763123 1.6658,1.82559963 1.4728,2.07757197" id="Fill-280" fill="#FFFFFF" mask="url(#mask-16)"></path>
                        </g>
                        <g>
                            <mask id="mask-18" fill="white">
                                <use xlink:href="#path-17"></use>
                            </mask>
                            <g id="Clip-283"></g>
                            <path d="M1.9298,1.2427636 L1.1758,0.803811776 C1.2728,0.532841517 1.3278,0.257871697 1.3258,-9.99890255e-05 L2.0818,0.438851833 C2.0818,0.696823519 2.0278,0.971793339 1.9298,1.2427636" id="Fill-282" fill="#FFFFFF" mask="url(#mask-18)"></path>
                        </g>
                    </g>
                    <polygon id="Fill-284" fill="#D7D7D7" points="127.9522 13.5942079 127.1962 13.1552561 127.1792 7.2579034 127.9352 7.69685522"></polygon>
                    <g id="编组" transform="translate(126.790000, 6.407797)">
                        <mask id="mask-20" fill="white">
                            <use xlink:href="#path-19"></use>
                        </mask>
                        <g id="Clip-287"></g>
                        <path d="M1.1456,1.28955846 L0.3886,0.84960675 C0.3886,0.432652514 0.2396,0.137684888 -0.0004,-0.000299967077 L0.7556,0.437651965 C0.9966,0.57563682 1.1446,0.871604336 1.1456,1.28955846" id="Fill-286" fill="#FFFFFF" mask="url(#mask-20)"></path>
                    </g>
                    <g id="编组" transform="translate(125.844000, 6.125828)">
                        <mask id="mask-22" fill="white">
                            <use xlink:href="#path-21"></use>
                        </mask>
                        <g id="Clip-289"></g>
                        <path d="M0.7547,0.809911107 L0.0007,0.370959285 C0.3697,0.158982551 0.7047,0.140984526 0.9457,0.280969162 L1.7017,0.718921094 C1.4607,0.577936568 1.1237,0.596934483 0.7547,0.809911107" id="Fill-288" fill="#A86B42" mask="url(#mask-22)"></path>
                    </g>
                    <path d="M127.5987,5.01704935 L128.3537,5.45700106 C127.9027,5.19502981 127.2817,5.23202575 126.5967,5.6269824 L125.8417,5.18803058 C126.5267,4.79307393 127.1477,4.75707788 127.5987,5.01704935" id="Fill-290" fill="#FFFFFF"></path>
                    <g id="编组" transform="translate(125.842000, 4.738980)">
                        <mask id="mask-24" fill="white">
                            <use xlink:href="#path-23"></use>
                        </mask>
                        <g id="Clip-293"></g>
                        <path d="M0.7547,0.887802558 L-0.0003,0.449850626 C0.6847,0.0538940848 1.3057,0.0178980356 1.7567,0.277869502 L2.5117,0.717821214 C2.0607,0.455849967 1.4397,0.492845907 0.7547,0.887802558" id="Fill-292" fill="#F7E8DA" mask="url(#mask-24)"></path>
                    </g>
                    <polygon id="Fill-294" fill="#CACACA" points="91.336 36.2636198 90.582 35.8256679 125.869 15.4539038 126.625 15.8908559"></polygon>
                    <g id="编组" transform="translate(89.634000, 35.635577)">
                        <mask id="mask-26" fill="white">
                            <use xlink:href="#path-25"></use>
                        </mask>
                        <g id="Clip-297"></g>
                        <path d="M0.7547,0.720232258 L-0.0003,0.280280546 C0.2417,0.422264962 0.5767,0.402267157 0.9477,0.189290533 L1.7017,0.628242355 C1.3337,0.840219089 0.9977,0.861216784 0.7547,0.720232258" id="Fill-296" fill="#FFFFFF" mask="url(#mask-26)"></path>
                    </g>
                    <g id="编组" transform="translate(89.245000, 35.062652)">
                        <mask id="mask-28" fill="white">
                            <use xlink:href="#path-27"></use>
                        </mask>
                        <g id="Clip-299"></g>
                        <path d="M1.1456,1.29315807 L0.3886,0.853206355 C0.1506,0.71422161 0.0026,0.419253984 -0.0004,0.000299967077 L0.7556,0.438251899 C0.7576,0.860205587 0.9056,1.15317343 1.1456,1.29315807" id="Fill-298" fill="#A86B42" mask="url(#mask-28)"></path>
                    </g>
                    <g id="编组" transform="translate(89.115500, 6.496787)">
                        <polygon id="Fill-300" fill="#8E5A38" points="0.8855 29.0046166 0.1295 28.5666646 0.1145 22.6703118 0.8685 23.1092636"></polygon>
                        <polygon id="Fill-302" fill="#855534" points="2.1951 20.8107159 1.4381 20.3717641 36.7291 0 37.4831 0.438951822"></polygon>
                    </g>
                    <g id="编组" transform="translate(89.229980, 26.869551)">
                        <g>
                            <mask id="mask-30" fill="white">
                                <use xlink:href="#path-29"></use>
                            </mask>
                            <g id="Clip-305"></g>
                            <path d="M0.754419951,2.7360997 L-0.000580049177,2.29714787 C-0.00258004918,2.04017608 0.0524199508,1.76520626 0.149419951,1.49523589 L0.905419951,1.9351876 C0.809419951,2.20415808 0.753419951,2.47812801 0.754419951,2.7360997" id="Fill-304" fill="#A86B42" mask="url(#mask-30)"></path>
                        </g>
                        <g>
                            <mask id="mask-32" fill="white">
                                <use xlink:href="#path-31"></use>
                            </mask>
                            <g id="Clip-307"></g>
                            <path d="M0.905819951,1.93488763 L0.149819951,1.49593581 C0.259819951,1.1999683 0.417819951,0.910000122 0.608819951,0.657027887 L1.36281995,1.09597971 C1.17181995,1.34995183 1.01481995,1.63892012 0.905819951,1.93488763" id="Fill-306" fill="#DCC4B3" mask="url(#mask-32)"></path>
                        </g>
                        <g>
                            <mask id="mask-34" fill="white">
                                <use xlink:href="#path-33"></use>
                            </mask>
                            <g id="Clip-309"></g>
                            <path d="M1.36281995,1.0960797 L0.608819951,0.657127876 C0.814819951,0.383157946 1.06181995,0.152183297 1.32381995,-0.000799912204 L2.08081995,0.43815191 C1.81581995,0.591135119 1.57181995,0.823109658 1.36281995,1.0960797" id="Fill-308" fill="#A86B42" mask="url(#mask-34)"></path>
                        </g>
                    </g>
                    <g id="编组" transform="translate(88.090676, 5.188830)">
                        <path d="M38.5080243,1.74690827 C39.2420243,1.32395469 39.8420243,1.66691704 39.8450243,2.50882464 L39.8620293,8.40517748 C39.8640243,9.24908485 39.2670243,10.2799717 38.5340243,10.7029253 L3.24502432,31.0746893 C2.51402432,31.496643 1.91202432,31.1586801 1.91002432,30.312773 L1.89401308,24.4164201 C1.89102432,23.5755124 2.48902432,22.5416259 3.22002432,22.1186723 L38.5080243,1.74690827 Z" id="Fill-310" fill="#C44D45"></path>
                        <path d="M0.770624319,30.9712007 L0.753624319,25.0748479 L0.000624319271,24.635896 L0.0136243193,30.5322489 C0.0176243193,31.3121633 0.293624319,31.861103 0.736624319,32.1190747 L1.49362432,32.5570267 C1.04862432,32.3010547 0.772624319,31.7511151 0.770624319,30.9712007" id="Fill-312" fill="#FFFFFF"></path>
                        <polygon id="Fill-314" fill="#FFFFFF" points="3.21692432 20.8107159 2.46092432 20.3717641 37.7509243 0 38.5059243 0.437951932"></polygon>
                        <path d="M39.8615356,8.40537745 L39.8445243,2.50802473 C39.8415243,1.66711702 39.2425243,1.32515456 38.5075243,1.74710824 L3.21952432,22.1198722 C2.48952432,22.5418259 1.89052432,23.5757124 1.89251933,24.41762 L1.91052432,30.312973 C1.91252432,31.1588801 2.51352432,31.4978429 3.24552432,31.0748893 L38.5345243,10.7021254 C39.2665243,10.2801717 39.8645243,9.25028472 39.8615356,8.40537745 L39.8615356,8.40537745 Z M38.5065243,0.438251899 C39.8665243,-0.348661732 40.9785243,0.28526869 40.9845243,1.85009694 L41.0005243,7.74644978 C41.0305243,10.2051799 39.8995243,11.2290675 38.5395243,12.0149813 L3.24852432,32.3867453 C1.88752432,33.1726591 0.773524319,32.5407284 0.770524319,30.9709007 L0.754518209,25.0745479 C0.751524319,23.5097197 1.85352432,21.5959297 3.21652432,20.8110159 L38.5065243,0.438251899 Z" id="Fill-316" fill="#EBD4BE"></path>
                        <path d="M0.754024319,25.0749479 L-1.42108547e-14,24.635996 C-0.00597568073,23.0721677 1.09902432,21.1573778 2.46102432,20.3714641 L3.21702432,20.8104159 C1.85402432,21.5963297 0.751024319,23.5091197 0.754024319,25.0749479" id="Fill-318" fill="#FFFFFF"></path>
                    </g>
                    <g id="编组" transform="translate(88.090976, 25.560695)">
                        <mask id="mask-36" fill="white">
                            <use xlink:href="#path-35"></use>
                        </mask>
                        <g id="Clip-321"></g>
                        <path d="M2.46082434,0 C1.96982434,0.282968942 1.51082434,0.713921642 1.12682434,1.220866 C0.771824341,1.69081442 0.480824341,2.2267556 0.281824341,2.77169579 C0.100824341,3.27464059 -0.00217565885,3.78558451 -0.000204253644,4.26453194 L0.753824341,4.70348376 C0.752824341,4.22453633 0.853824341,3.71359241 1.03682434,3.2116475 C1.23382434,2.66470753 1.52682434,2.12976624 1.88282434,1.66081771 C2.26682434,1.15187357 2.72482434,0.721920764 3.21682434,0.438951822 L2.46082434,0 Z" id="Fill-320" fill="#FFFFFF" mask="url(#mask-36)"></path>
                    </g>
                    <g id="编组" transform="translate(96.011684, 11.575829)" fill="#EBD4BE">
                        <polygon id="Fill-322" points="25.4239165 0 25.4269165 0.866904852 23.0749165 2.22275604 23.0799165 3.62760185 25.0969165 2.4627297 25.0989165 3.32363521 23.0839165 4.48750747 23.0879165 6.08533209 25.4419165 4.72548135 25.4459165 5.58538697 22.1139165 7.50817593 22.0999165 1.9187894"></polygon>
                        <polygon id="Fill-324" points="21.2676165 2.39863673 21.2696165 3.26554159 18.9186165 4.62239266 18.9246165 6.02623858 20.9406165 4.86136643 20.9446165 5.72327183 18.9256165 6.8861442 18.9306165 8.48396883 21.2866165 7.12511797 21.2906165 7.98502359 17.9576165 9.90781255 17.9426165 4.31842602"></polygon>
                        <polygon id="Fill-326" points="17.1368165 4.78367496 17.1398165 5.64957992 14.7578165 7.02542891 14.7618165 8.56326013 16.8058165 7.38438951 16.8078165 8.24529502 14.7648165 9.42516553 14.7738165 11.7479106 13.7978165 12.308849 13.7828165 6.72246217"></polygon>
                        <polygon id="Fill-328" points="12.9756165 7.18481142 12.9776165 8.05271616 10.5966165 9.42656537 10.6006165 10.9663964 12.6436165 9.78752575 12.6456165 10.6484313 10.6056165 11.826302 10.6106165 14.149047 9.63661649 14.7119853 9.62061649 9.12359863"></polygon>
                        <path d="M7.69051649,13.5434135 L7.68851649,12.5305247 C7.68551649,12.0945725 7.58551649,11.7906059 7.39751649,11.6236242 C7.21051649,11.452643 6.94851649,11.461642 6.61551649,11.6546208 C6.28351649,11.8465998 6.02551649,12.1305686 5.84651649,12.518526 C5.66451649,12.901484 5.57251649,13.3134388 5.57251649,13.7503908 L5.57451649,14.7642795 C5.57851649,15.2072309 5.67151649,15.5181968 5.85651649,15.6901779 C6.04251649,15.8601592 6.30351649,15.8501603 6.63151649,15.6601812 C6.96551649,15.4682023 7.22651649,15.1762343 7.41051649,14.7932763 C7.59851649,14.4053189 7.69251649,13.9873648 7.69051649,13.5434135 M8.08751649,10.6037362 C8.46751649,10.832711 8.66051649,11.2906608 8.66351649,11.9735858 L8.66553228,12.974476 C8.66751649,13.6654001 8.47951649,14.3403261 8.10651649,15.0052531 C7.72751649,15.6721799 7.23551649,16.181124 6.63251649,16.527086 C6.03351649,16.8730481 5.54551649,16.9310417 5.16951649,16.6990672 C4.79451649,16.4660927 4.60851649,16.0071431 4.60851649,15.3182187 L4.60451649,14.3163287 C4.60051649,13.6324038 4.78551649,12.9594776 5.15751649,12.2955505 C5.52851649,11.6266239 6.01451649,11.1216793 6.61151649,10.7767172 C7.21851649,10.4277555 7.70851649,10.3707617 8.08751649,10.6037362" id="Fill-330"></path>
                        <path d="M1.91801649,13.4868197 C2.51801649,13.1398578 2.99101649,13.0448682 3.33101649,13.2088502 C3.67001649,13.3668329 3.83601649,13.7557902 3.82801649,14.3697228 L3.82101649,14.3947201 L2.87401649,14.9426599 C2.87201649,14.5767001 2.79601649,14.3387262 2.64001649,14.2337378 C2.48701649,14.12175 2.24501649,14.1667451 1.92101649,14.3527247 C1.62801649,14.522706 1.39801649,14.7916765 1.23001649,15.1596361 C1.05601649,15.5315953 0.971016485,15.9305515 0.972016485,16.3535051 L0.974016485,17.4683827 C0.975016485,17.8933361 1.06901649,18.1943031 1.25001649,18.3622846 C1.42901649,18.5282664 1.67601649,18.523267 1.98301649,18.3442866 C2.28501649,18.1693058 2.51101649,17.9453304 2.66101649,17.6713605 C2.80401649,17.3983904 2.87501649,17.0804253 2.87401649,16.7084661 L3.81801649,16.1635259 L3.82801649,16.181524 C3.84101649,16.7764587 3.67601649,17.3493958 3.35001649,17.8933361 C3.02201649,18.4362765 2.56601649,18.8762282 1.98601649,19.2111914 C1.40101649,19.5481545 0.923016485,19.6061481 0.557016485,19.3861722 C0.192016485,19.160197 0.00701648518,18.7122462 0.00401648518,18.0283213 L1.42108547e-14,16.9204429 C-0.00198351482,16.2425173 0.178016485,15.5845895 0.530016485,14.9426599 C0.888016485,14.2987306 1.34901649,13.8157836 1.91801649,13.4868197" id="Fill-332"></path>
                    </g>
                    <g id="编组" transform="translate(113.011000, 7.502677)">
                        <mask id="mask-38" fill="white">
                            <use xlink:href="#path-37"></use>
                        </mask>
                        <g id="Clip-335"></g>
                        <path d="M2.49,4.55749978 L1.736,4.08055213 C1.736,4.03755685 1.739,3.99756124 1.739,3.95556585 C1.732,1.84979697 0.469,0.110987818 -0.751,-0.596934483 L0.511,0.135985075 C1.732,0.845907156 2.484,2.32674462 2.49,4.4325135 L2.49,4.55749978 Z" id="Fill-334" fill="#EBD4BE" mask="url(#mask-38)"></path>
                    </g>
                    <g id="编组" transform="translate(112.260000, 6.904742)">
                        <mask id="mask-40" fill="white">
                            <use xlink:href="#path-39"></use>
                        </mask>
                        <g id="Clip-337"></g>
                        <path d="M3.241,5.15543416 L1.977,4.42151471 C1.977,4.37851943 1.979,4.33952371 1.979,4.29652843 C1.973,2.19075955 1.22,0.708922191 0,0.000999890255 L1.262,0.733919448 C2.483,1.44384153 3.235,2.924679 3.241,5.03044788 L3.241,5.15543416 Z" id="Fill-336" fill="#EBD4BE" mask="url(#mask-40)"></path>
                    </g>
                    <g id="编组" transform="translate(107.103000, 6.428794)">
                        <mask id="mask-42" fill="white">
                            <use xlink:href="#path-41"></use>
                        </mask>
                        <g id="Clip-339"></g>
                        <path d="M1.2632,1.74310868 L-0.0008,1.00818934 C2.0262,-0.160682364 3.8572,-0.278669414 5.1572,0.476247729 L6.4192,1.20916729 C5.1182,0.454250143 3.2872,0.574236974 1.2632,1.74310868" id="Fill-338" fill="#C44D45" mask="url(#mask-42)"></path>
                    </g>
                    <path d="M108.4268,7.07972295 L107.6728,6.60077552 C109.9638,5.28092038 112.0318,5.1459352 113.5018,6.00084137 L114.2548,6.47878891 C112.7848,5.62388274 110.7168,5.75786804 108.4268,7.07972295" id="Fill-340" fill="#FFFFFF"></path>
                    <g id="编组" transform="translate(100.011947, 7.436684)">
                        <mask id="mask-44" fill="white">
                            <use xlink:href="#path-43"></use>
                        </mask>
                        <g id="Clip-343"></g>
                        <path d="M1.26635285,12.8334914 L0.00335284862,12.1005719 C0.00335284862,12.0575766 -0.000693215391,12.0195808 -0.000693215391,11.9775854 C-0.0146471514,7.63006255 3.16435285,2.26765111 7.09035285,0.00089990123 L8.35435285,0.734819349 C4.42735285,3.00157056 1.25135285,8.363982 1.26335285,12.7115048 C1.26335285,12.7535002 1.26635285,12.791496 1.26635285,12.8334914" id="Fill-342" fill="#C44D45" mask="url(#mask-44)"></path>
                    </g>
                    <g id="编组" transform="translate(100.406770, 5.940294)">
                        <path d="M8.02002999,1.13942917 C12.46103,-1.42428944 16.07503,0.484501057 16.08803,5.39796177 C16.08803,5.44895618 16.08403,5.49695091 16.08403,5.54594553 L15.09403,6.11988254 L15.09403,5.99489626 C15.08203,1.64837331 11.88903,-0.0364417659 7.95902999,2.23130933 C4.03302999,4.49806054 0.857029988,9.86047198 0.869029988,14.2079948 C0.869029988,14.2499902 0.872029988,14.287986 0.872029988,14.3299814 L0.00402998775,14.8309264 C0.00402998775,14.7809319 0,14.7359369 0,14.6849425 C-0.0119700123,9.77048186 3.57902999,3.70314779 8.02002999,1.13942917" id="Fill-344" fill="#EBD4BE"></path>
                        <path d="M7.95942999,2.2316093 C11.88943,-0.0371416891 15.08243,1.64767339 15.09443,5.99519622 L15.09443,7.98397794 L0.871429988,15.9481038 C0.871429988,15.9061084 0.868396094,14.2502902 0.868396094,14.2082948 C0.856429988,9.86077195 4.03242999,4.49836051 7.95942999,2.2316093" id="Fill-346" fill="#C44D45"></path>
                    </g>
                    <g id="编组" transform="translate(99.654970, 6.600776)">
                        <mask id="mask-46" fill="white">
                            <use xlink:href="#path-45"></use>
                        </mask>
                        <g id="Clip-349"></g>
                        <path d="M0.756229996,14.1703447 L0.00222999607,13.6923972 C0.00222999607,13.6424027 0.000194800882,13.5964077 0.000194800882,13.5464132 C-0.0127700039,8.63195259 3.57723,2.56561841 8.01823,0.00089990123 L8.77223,0.478847443 C4.33123,3.04356595 0.739229996,9.10990013 0.752229996,14.0243607 C0.752229996,14.0753551 0.756229996,14.1203502 0.756229996,14.1703447" id="Fill-348" fill="#FFFFFF" mask="url(#mask-46)"></path>
                    </g>
                    <g id="棚子" transform="translate(72.950767, 56.501099)">
                        <g id="编组">
                            <path d="M14.243633,21.3545562 L14.239633,22.8393932 C14.239633,23.1313612 14.138633,23.3373386 13.975633,23.4323281 C14.048633,23.3903328 14.121633,23.3483374 14.194633,23.3033423 C14.356633,23.2093526 14.458633,23.0033752 14.460633,22.7104074 L14.462633,21.2265702 L14.243633,21.3545562 Z" id="Fill-362" fill="#CCB5A2"></path>
                            <path d="M7.89003304,0 L6.11703304,1.02288773 C2.72603304,2.97967296 -0.0109669592,7.72315233 0,11.6177249 L0.0170330408,13.1555561 L14.244033,21.4216488 L14.227033,18.9799168 C14.216033,15.0873441 16.953033,11.2457657 20.342033,9.28898047 L22.116033,8.26609274 L7.89003304,0 Z" id="Fill-364" fill="#EBD4BE"></path>
                            <path d="M22.115633,8.26569279 L22.153633,16.85575 L14.243633,21.4212489 L14.2266057,18.9795169 C14.216633,15.0869441 16.952633,11.2453657 20.342633,9.28858052 L22.115633,8.26569279 Z" id="Fill-366" fill="#A8302D"></path>
                            <path d="M3.58543304,15.2376276 L3.56743304,12.7968955 C3.55643304,8.90032313 6.29443304,5.05974466 9.68543304,3.10295943 L11.447433,2.08607104 L9.67743304,1.05718397 L7.90343304,2.0800717 C4.51443304,4.03685693 1.77643304,8.78133619 1.78640574,12.6749088 L1.80443304,14.2127401 L3.58543304,15.2376276 Z" id="Fill-368" fill="#C44D45"></path>
                            <path d="M7.14003304,17.265705 L7.12603304,14.7909766 C7.11603304,10.896404 9.85303304,7.05582558 13.242033,5.10004024 L14.962033,4.10914899 L13.192033,3.07926203 L11.461033,4.07615262 C8.07203304,6.03293785 5.33303304,9.87451621 5.34499376,13.7700886 L5.36303304,16.208821 L7.14003304,17.265705 Z" id="Fill-370" fill="#C44D45"></path>
                            <path d="M10.698633,19.3206794 L10.681633,16.8789474 C10.670633,12.9863747 13.407633,9.1447963 16.798633,7.18901096 L18.530633,6.18412125 L16.800633,5.184231 L15.016633,6.16512334 C11.626633,8.12190857 8.88963304,11.9634869 8.89960573,15.8580595 L8.91763304,18.2997915 L10.698633,19.3206794 Z" id="Fill-372" fill="#C44D45"></path>
                            <path d="M14.249433,21.4029509 L14.234433,18.9292224 C14.223433,15.0346498 16.964433,11.2390664 20.354433,9.28228121 L22.117433,8.26939238 L20.353433,7.24750454 L18.569433,8.2163982 C15.181433,10.1721835 12.441433,14.012762 12.4533938,17.9063347 L12.470433,20.4350571 L14.249433,21.4029509 Z" id="Fill-374" fill="#C44D45"></path>
                            <path d="M1.80613304,15.5963882 L2.02113304,15.4664025 C2.01913304,15.7593703 1.91713304,15.9643478 1.75513304,16.0593374 L1.53613304,16.1873233 C1.69913304,16.0933337 1.80613304,15.8873563 1.80613304,15.5963882" id="Fill-376" fill="#A8302D"></path>
                            <path d="M1.80613304,14.103952 L1.80613304,15.5967882 C1.80413304,16.171725 1.40713304,16.4106988 0.925133041,16.1307295 L0.895133041,16.1127315 C0.412133041,15.8327623 0.0291330408,15.1368386 0.0291330408,14.5609018 L0.0291330408,13.0690656 L1.80613304,14.103952 Z" id="Fill-378" fill="#C44D45"></path>
                            <path d="M3.58543304,16.6294748 L3.79843304,16.5024887 C3.79643304,16.7924569 3.69543304,16.9984343 3.53343304,17.0934239 L3.31243304,17.2224097 C3.47643304,17.1264203 3.58443304,16.9234425 3.58543304,16.6294748" id="Fill-380" fill="#CCB5A2"></path>
                            <path d="M3.58543304,15.142338 L3.58543304,16.6291748 C3.58443304,17.2071114 3.18543304,17.4450853 2.70043304,17.165116 L2.67143304,17.147118 C2.18943304,16.8681486 1.80443304,16.1712251 1.80642528,15.5962882 L1.80642528,14.1034521 L3.58543304,15.142338 Z" id="Fill-382" fill="#EBD4BE"></path>
                            <path d="M5.36273304,17.6655611 L5.57473304,17.5375751 C5.57273304,17.8295431 5.47373304,18.0355205 5.31073304,18.1295102 L5.08973304,18.2564962 C5.25373304,18.1635064 5.36273304,17.957529 5.36273304,17.6655611" id="Fill-384" fill="#A8302D"></path>
                            <path d="M5.36273304,16.1818239 L5.36273304,17.6656611 C5.36273304,18.2435976 4.96373304,18.4815715 4.47773304,18.1996025 L4.44973304,18.1826043 C3.96673304,17.9016352 3.58473304,17.2067115 3.58573108,16.6297748 L3.58573108,15.1419381 L5.36273304,16.1818239 Z" id="Fill-386" fill="#C44D45"></path>
                            <path d="M7.08733304,19.1638966 C7.06933304,19.1748954 7.05133304,19.1868941 7.03033304,19.1978929 C7.02033304,19.2038922 7.01133304,19.2098916 6.99933304,19.2168908 C6.99633304,19.2188906 6.99133304,19.2208904 6.98833304,19.2208904 C6.96233304,19.2368886 6.93633304,19.251887 6.91133304,19.2678852 C6.90933304,19.2688851 6.90333304,19.2718848 6.90133304,19.2728847 C6.89033304,19.2808838 6.87933304,19.2868831 6.86733304,19.2918826 C7.03033304,19.1978929 7.13633304,18.9939153 7.14033304,18.6999476 L7.35133304,18.5699618 C7.35033304,18.8629297 7.24933304,19.0689071 7.08733304,19.1638966" id="Fill-388" fill="#931103"></path>
                        </g>
                        <g id="编组" transform="translate(6.608733, 18.431177)">
                            <mask id="mask-48" fill="white">
                                <use xlink:href="#path-47"></use>
                            </mask>
                            <g id="Clip-391"></g>
                            <path d="M0.5313,0.26887049 L0.7423,0.138884756 C0.7413,0.431852601 0.6403,0.637829994 0.4783,0.732819568 L0.2593,0.860805521 C0.4223,0.766815837 0.5273,0.562838225 0.5313,0.26887049" id="Fill-390" fill="#CCB5A2" mask="url(#mask-48)"></path>
                        </g>
                        <path d="M7.14003304,17.2164104 L7.14003304,18.7002475 C7.13603304,19.2761843 6.73903304,19.516158 6.25403304,19.2361887 L6.22603304,19.2181907 C5.74403304,18.9362216 5.36303304,18.2432977 5.36303304,17.6653611 L5.36303304,16.181524 L7.14003304,17.2164104 Z" id="Fill-392" fill="#EBD4BE"></path>
                        <g id="编组" transform="translate(8.386233, 19.467563)">
                            <mask id="mask-50" fill="white">
                                <use xlink:href="#path-49"></use>
                            </mask>
                            <g id="Clip-395"></g>
                            <path d="M0.5283,0.267070687 L0.7423,0.139084735 C0.7403,0.431052689 0.6403,0.637030082 0.4763,0.731019766 L0.2573,0.861005499 C0.4203,0.765016034 0.5283,0.561038422 0.5283,0.267070687" id="Fill-394" fill="#CCB5A2" mask="url(#mask-50)"></path>
                        </g>
                        <path d="M10.691833,20.7697204 L10.905833,20.6417344 C10.905833,20.9347023 10.803833,21.1386799 10.640833,21.2336695 L10.422833,21.3636552 C10.584833,21.2666658 10.691833,21.0616883 10.691833,20.7697204" id="Fill-398" fill="#CCB5A2"></path>
                        <path d="M12.468233,21.8052067 L12.682233,21.675221 C12.682233,21.9681888 12.579233,22.1731663 12.418233,22.2691558 L12.197233,22.3991415 C12.361233,22.304152 12.468233,22.0971747 12.468233,21.8052067" id="Fill-402" fill="#A8302D"></path>
                        <path d="M8.91453304,18.2533966 L8.91453304,19.734234 C8.91453304,20.3121706 8.51353304,20.5501445 8.03253304,20.2701752 L8.00253304,20.2531771 C7.51853304,19.971208 7.13653304,19.2762843 7.14053304,18.7003475 L7.14053304,17.2165104 L8.91453304,18.2533966 Z" id="Fill-396" fill="#C44D45"></path>
                        <path d="M10.691833,19.2898828 L10.691833,20.7697204 C10.690833,21.3456572 10.289833,21.5866307 9.80983304,21.3036618 L9.78083304,21.2886634 C9.29683304,21.0066944 8.91483304,20.3117707 8.91483304,19.734834 L8.91483304,18.2529966 L10.691833,19.2898828 Z" id="Fill-400" fill="#EBD4BE"></path>
                        <path d="M12.468233,20.3273689 L12.468233,21.8052067 C12.467233,22.3801436 12.069233,22.6191174 11.586233,22.3411479 L11.556233,22.32215 C11.074233,22.0411808 10.691233,21.3452572 10.6922311,20.7693204 L10.6922311,19.2894829 L12.468233,20.3273689 Z" id="Fill-404" fill="#C44D45"></path>
                        <path d="M14.243633,21.3545562 L14.239633,22.8393932 C14.237633,23.4163299 13.847633,23.6573035 13.363633,23.3753344 L13.334633,23.3573364 C12.849633,23.0743674 12.467633,22.3804436 12.4686311,21.8055067 L12.4686311,20.3276689 L14.243633,21.3545562 Z" id="Fill-406" fill="#EBD4BE"></path>
                    </g>
                    <g id="编组" transform="translate(104.182700, 58.955429)">
                        <path d="M7.9081,21.356556 L7.9121,22.8403931 C7.9121,23.133361 8.0151,23.3393384 8.1781,23.433328 C8.1031,23.3893329 8.0291,23.3493373 7.9571,23.3053421 C7.7951,23.2083527 7.6931,23.005375 7.6931,22.7114073 L7.6871,21.2275701 L7.9081,21.356556 Z" id="Fill-408" fill="#CCB5A2"></path>
                        <path d="M14.2636,0 L16.0346,1.02288773 C19.4256,2.97967296 22.1626,7.72415222 22.151633,11.6197247 L22.1346,13.1555561 L7.9086,21.4216488 L7.9256,18.9799168 C7.9356,15.0873441 5.1996,11.2457657 1.8096,9.28898047 L0.0366,8.26609274 L14.2636,0 Z" id="Fill-410" fill="#EBD4BE"></path>
                        <path d="M0.037,8.26569279 L0,16.8567499 L7.908,21.4222488 L7.92602215,18.9805168 C7.935,15.0869441 5.2,11.2463656 1.809,9.28958041 L0.037,8.26569279 Z" id="Fill-412" fill="#A8302D"></path>
                        <path d="M18.5654,15.2375276 L18.5834,12.7947957 C18.5954,8.90222292 15.8564,5.06164445 12.4684,3.10485922 L10.7044,2.08797083 L12.4754,1.05808387 L14.2494,2.08197149 C17.6384,4.03775683 20.3764,8.78223609 20.365433,12.6768086 L20.3484,14.2146399 L18.5654,15.2375276 Z" id="Fill-414" fill="#C44D45"></path>
                        <path d="M15.0117,17.2662049 L15.0277,14.7924764 C15.0357,10.8979039 12.2987,7.05732541 8.9097,5.09954029 L7.1907,4.10964894 L8.9597,3.08076187 L10.6897,4.07865234 C14.0797,6.03443768 16.8197,9.87501615 16.8077393,13.7685888 L16.7897,16.2093209 L15.0117,17.2662049 Z" id="Fill-416" fill="#C44D45"></path>
                        <path d="M11.454,19.3205794 L11.47,16.8808472 C11.482,12.9872746 8.744,9.14469631 5.355,7.18891097 L3.622,6.18502115 L5.352,5.1851309 L7.137,6.16602324 C10.525,8.12280847 13.264,11.9643868 13.2520393,15.8569596 L13.234,18.2996915 L11.454,19.3205794 Z" id="Fill-418" fill="#C44D45"></path>
                        <path d="M7.9042,21.4029509 L7.9182,18.9302223 C7.9272,15.0366496 5.1852,11.2410662 1.7962,9.2832811 L0.0342,8.27139216 L1.8022,7.24850443 L3.5842,8.21539831 C6.9722,10.1721835 9.7092,14.0137619 9.69823304,17.9073346 L9.6812,20.4350571 L7.9042,21.4029509 Z" id="Fill-420" fill="#C44D45"></path>
                        <path d="M20.3456,15.5963882 L20.1316,15.4664025 C20.1336,15.7593703 20.2326,15.9643478 20.3966,16.0593374 L20.6156,16.1893231 C20.4526,16.0943335 20.3466,15.8883561 20.3456,15.5963882" id="Fill-422" fill="#A8302D"></path>
                        <path d="M20.3456,14.1048519 L20.3456,15.5966882 C20.3486,16.1726249 20.7456,16.4125986 21.2286,16.1316294 L21.2566,16.1136314 C21.7396,15.834662 22.1236,15.1387384 22.1226019,14.5608019 L22.1226019,13.0689656 L20.3456,14.1048519 Z" id="Fill-424" fill="#C44D45"></path>
                        <path d="M18.5673,16.6309746 L18.3553,16.5029887 C18.3553,16.7929569 18.4573,16.9989343 18.6193,17.0949237 L18.8383,17.2229097 C18.6773,17.12892 18.5683,16.9229426 18.5673,16.6309746" id="Fill-426" fill="#CCB5A2"></path>
                        <path d="M18.5673,15.142838 L18.5673,16.6306747 C18.5683,17.2076114 18.9683,17.4455852 19.4523,17.1666159 L19.4803,17.1486178 C19.9633,16.8676487 20.3483,16.1727249 20.3453174,15.5967882 L20.3453174,14.1049519 L18.5673,15.142838 Z" id="Fill-428" fill="#EBD4BE"></path>
                        <path d="M16.79,17.6655611 L16.577,17.5375751 C16.578,17.8295431 16.68,18.0345206 16.842,18.1295102 L17.063,18.2574961 C16.899,18.1635064 16.791,17.957529 16.79,17.6655611" id="Fill-430" fill="#A8302D"></path>
                        <path d="M16.79,16.1803241 L16.79,17.6651611 C16.791,18.2440976 17.187,18.4830714 17.675,18.2001024 L17.702,18.1841042 C18.186,17.9021351 18.568,17.2072114 18.567002,16.6312746 L18.567002,15.142438 L16.79,16.1803241 Z" id="Fill-432" fill="#C44D45"></path>
                        <path d="M15.0644,19.1653965 C15.0824,19.1763953 15.1004,19.1863942 15.1214,19.197393 C15.1324,19.2033923 15.1414,19.2093916 15.1524,19.2173908 C15.1564,19.2183907 15.1604,19.2213903 15.1644,19.2223902 C15.1884,19.2393884 15.2164,19.2533868 15.2414,19.2693851 C15.2434,19.2703849 15.2504,19.2733846 15.2514,19.2743845 C15.2614,19.2813837 15.2744,19.2873831 15.2854,19.2943823 C15.1234,19.1993927 15.0164,18.9924155 15.0124,18.7024473 L14.8004,18.5714617 C14.8024,18.8634296 14.9034,19.069407 15.0644,19.1653965" id="Fill-434" fill="#931103"></path>
                    </g>
                    <g id="编组" transform="translate(93.983000, 59.528966)">
                        <mask id="mask-52" fill="white">
                            <use xlink:href="#path-51"></use>
                        </mask>
                        <g id="Clip-437"></g>
                        <path d="M25.2123,18.1285103 L25.0003,17.9985245 C25.0023,18.2904925 25.1033,18.49547 25.2643,18.5914595 L25.4853,18.7204453 C25.3223,18.6254557 25.2163,18.4184785 25.2123,18.1285103" id="Fill-436" fill="#CCB5A2" mask="url(#mask-52)"></path>
                    </g>
                    <path d="M119.1953,76.1732395 L119.1953,77.6570766 C119.1993,78.2340133 119.5943,78.4709873 120.0793,78.191018 L120.1083,78.1740199 C120.5933,77.8930507 120.9733,77.1991269 120.972302,76.6211903 L120.972302,75.1353534 L119.1953,76.1732395 Z" id="Fill-438" fill="#EBD4BE"></path>
                    <g id="编组" transform="translate(91.948500, 60.424368)">
                        <mask id="mask-54" fill="white">
                            <use xlink:href="#path-53"></use>
                        </mask>
                        <g id="Clip-441"></g>
                        <path d="M25.4724,18.267695 L25.2574,18.1357095 C25.2614,18.4296772 25.3614,18.6356546 25.5244,18.7296443 L25.7434,18.85963 C25.5794,18.7636406 25.4724,18.559663 25.4724,18.267695" id="Fill-440" fill="#CCB5A2" mask="url(#mask-54)"></path>
                    </g>
                    <g id="编组" transform="translate(112.090800, 38.583165)">
                        <path d="M5.3301,38.6256606 L5.3301,40.1084978 C5.3311,40.6844346 5.7311,40.9244083 6.2141,40.6434391 L6.2421,40.626441 C6.7251,40.3454718 7.1081,39.6505481 7.1041,39.0746113 L7.1041,37.5897743 L5.3301,38.6256606 Z" id="Fill-442" fill="#C44D45"></path>
                        <path d="M3.5508,41.1428843 L3.3388,41.0148983 C3.3388,41.3068663 3.4408,41.5108439 3.6038,41.6068334 L3.8218,41.7368191 C3.6578,41.6408296 3.5528,41.4338524 3.5508,41.1428843" id="Fill-444" fill="#CCB5A2"></path>
                        <path d="M3.5508,39.6631467 L3.5508,41.1429843 C3.5528,41.719921 3.9528,41.9588947 4.4348,41.6759258 L4.4648,41.6599276 C4.9468,41.3789584 5.3308,40.6850346 5.32980195,40.1090978 L5.32980195,38.6252606 L3.5508,39.6631467 Z" id="Fill-446" fill="#EBD4BE"></path>
                        <path d="M1.7754,42.1779707 L1.5624,42.047985 C1.5634,42.3409528 1.6634,42.5469302 1.8244,42.6419198 L2.0454,42.7699057 C1.8834,42.6769159 1.7754,42.4719384 1.7754,42.1779707" id="Fill-448" fill="#A8302D"></path>
                        <path d="M1.7754,40.7001329 L1.7754,42.1779707 C1.7774,42.7549074 2.1754,42.9938811 2.6574,42.7139119 L2.6874,42.6959138 C3.1704,42.4139448 3.5524,41.7190211 3.55040782,41.1430843 L3.55040782,39.6632467 L1.7754,40.7001329 Z" id="Fill-450" fill="#C44D45"></path>
                        <path d="M0,41.72882 L0.004,43.2126571 C0.007,43.7895938 0.398,44.0295675 0.882,43.7485983 L0.91,43.7296004 C1.393,43.4486312 1.777,42.7547074 1.77500778,42.1777707 L1.77500778,40.6999329 L0,41.72882 Z" id="Fill-452" fill="#EBD4BE"></path>
                        <path d="M39.2491,21.356056 L39.2531,22.8408931 C39.2531,23.1338609 39.3551,23.3388384 39.5171,23.433828 C39.4431,23.3898328 39.3701,23.3488373 39.2971,23.305842 C39.1351,23.2088527 39.0341,23.0038752 39.0321,22.7109073 L39.0291,21.2280701 L39.2491,21.356056 Z" id="Fill-454" fill="#CCB5A2"></path>
                        <path d="M45.6045,0 L47.3775,1.02288773 C50.7655,2.97967296 53.5035,7.72515211 53.492533,11.6187248 L53.4745,13.156556 L39.2495,21.4216488 L39.2655,18.9799168 C39.2775,15.0873441 36.5395,11.2477655 33.1495,9.29098025 L31.3785,8.26709263 L45.6045,0 Z" id="Fill-456" fill="#EBD4BE"></path>
                        <path d="M31.378,8.26709263 L31.34,16.8571498 L39.249,21.4216488 L39.266033,18.9799168 C39.277,15.0873441 36.539,11.2467656 33.149,9.28998036 L31.378,8.26709263 Z" id="Fill-458" fill="#A8302D"></path>
                        <path d="M49.9073,15.2370276 L49.9243,12.7962955 C49.9353,8.90172298 47.1983,5.0621444 43.8073,3.10535917 L42.0453,2.08747089 L43.8163,1.05858381 L45.5903,2.08247144 C48.9783,4.03825677 51.7183,8.78273604 51.7063393,12.6763087 L51.6873,14.2141399 L49.9073,15.2370276 Z" id="Fill-460" fill="#C44D45"></path>
                        <path d="M46.3516,17.2666049 L46.3666,14.7908766 C46.3766,10.8983038 43.6386,7.05772537 40.2496,5.09994025 L38.5316,4.109049 L40.3006,3.08216171 L42.0306,4.07805241 C45.4206,6.03483764 48.1596,9.87541611 48.1466461,13.7689888 L48.1306,16.2107208 L46.3516,17.2666049 Z" id="Fill-462" fill="#C44D45"></path>
                        <path d="M42.7959,19.3210794 L42.8109,16.8813472 C42.8219,12.9877745 40.0849,9.14619615 36.6969,7.18941092 L34.9629,6.18452121 L36.6919,5.18563084 L38.4769,6.16652318 C41.8659,8.12330841 44.6039,11.9648868 44.5919393,15.8574595 L44.5749,18.2991915 L42.7959,19.3210794 Z" id="Fill-464" fill="#C44D45"></path>
                        <path d="M39.2442,21.4038508 L39.2582,18.9311222 C39.2692,15.0355497 36.5262,11.2409662 33.1372,9.28518089 L31.3762,8.27029228 L33.1412,7.24840444 L34.9242,8.21629821 C38.3122,10.1730834 41.0512,14.0136619 41.0392393,17.9072346 L41.0222,20.435957 L39.2442,21.4038508 Z" id="Fill-466" fill="#C44D45"></path>
                        <path d="M51.6856,15.5973881 L51.4706,15.4684022 C51.4726,15.7603702 51.5736,15.9653477 51.7366,16.0603373 L51.9556,16.1893231 C51.7936,16.0933337 51.6876,15.8873563 51.6856,15.5973881" id="Fill-468" fill="#A8302D"></path>
                        <path d="M51.6856,14.1058518 L51.6856,15.5976881 C51.6876,16.1726249 52.0836,16.4125986 52.5676,16.1316294 L52.5986,16.1136314 C53.0806,15.8356619 53.4626,15.1387384 53.4626,14.5618017 L53.4626,13.0699655 L51.6856,14.1058518 Z" id="Fill-470" fill="#C44D45"></path>
                        <path d="M49.9073,16.6309746 L49.6953,16.5029887 C49.6953,16.7949566 49.7973,16.9989343 49.9583,17.0949237 L50.1793,17.2239096 C50.0163,17.1279201 49.9083,16.9229426 49.9073,16.6309746" id="Fill-472" fill="#CCB5A2"></path>
                        <path d="M49.9073,15.1443378 L49.9073,16.6311746 C49.9083,17.2071114 50.3083,17.4470851 50.7913,17.1661159 L50.8203,17.1501177 C51.3033,16.8681486 51.6873,16.172225 51.6853078,15.5972881 L51.6853078,14.1054518 L49.9073,15.1443378 Z" id="Fill-474" fill="#EBD4BE"></path>
                        <path d="M48.1309,17.666461 L47.9189,17.538475 C47.9189,17.8294431 48.0199,18.0364204 48.1819,18.1304101 L48.4039,18.258396 C48.2409,18.1644063 48.1329,17.9584289 48.1309,17.666461" id="Fill-476" fill="#A8302D"></path>
                        <path d="M48.1309,16.180824 L48.1309,17.666661 C48.1329,18.2435976 48.5299,18.4835713 49.0139,18.2006024 L49.0429,18.1826043 C49.5269,17.9016352 49.9079,17.2077113 49.906902,16.6307747 L49.906902,15.1439379 L48.1309,16.180824 Z" id="Fill-478" fill="#C44D45"></path>
                        <path d="M46.4063,19.1657964 C46.4223,19.1757953 46.4413,19.1867941 46.4613,19.1987928 C46.4723,19.2037923 46.4813,19.2097916 46.4943,19.2177907 C46.4963,19.2187906 46.5013,19.2227902 46.5043,19.2227902 C46.5303,19.2387884 46.5573,19.2527869 46.5823,19.2687851 C46.5833,19.2707849 46.5913,19.2737846 46.5923,19.2737846 C46.6013,19.2807838 46.6133,19.2867831 46.6263,19.2947823 C46.4633,19.1987928 46.3573,18.9938153 46.3523,18.7018473 L46.1403,18.5718616 C46.1413,18.8648295 46.2443,19.069807 46.4063,19.1657964" id="Fill-480" fill="#931103"></path>
                    </g>
                    <g id="编组-28" transform="translate(151.339900, 54.764089)">
                        <g id="编组" transform="translate(6.633600, 2.252153)">
                            <mask id="mask-56" fill="white">
                                <use xlink:href="#path-55"></use>
                            </mask>
                            <g id="Clip-483"></g>
                            <path d="M0.4699,0.268970479 L0.2579,0.138984746 C0.2589,0.43195259 0.3619,0.636930093 0.5239,0.732919557 L0.7429,0.8619054 C0.5799,0.765915936 0.4749,0.560938433 0.4699,0.268970479" id="Fill-482" fill="#CCB5A2" mask="url(#mask-56)"></path>
                        </g>
                        <g id="编组-25">
                            <path d="M7.1035,1.03688619 L7.1035,2.52072333 C7.1085,3.09666012 7.5055,3.33563389 7.9895,3.05466473 L8.0185,3.0376666 C8.5025,2.75669743 8.8835,2.0627736 8.88150784,1.48583692 L8.88150784,0 L7.1035,1.03688619 Z" id="Fill-484" fill="#EBD4BE"></path>
                            <g id="编组" transform="translate(4.857100, 3.286539)">
                                <mask id="mask-58" fill="white">
                                    <use xlink:href="#path-57"></use>
                                </mask>
                                <g id="Clip-487"></g>
                                <path d="M0.4729,0.267670621 L0.2569,0.138684778 C0.2609,0.431652623 0.3609,0.636630126 0.5219,0.7316197 L0.7429,0.861605433 C0.5789,0.765615969 0.4729,0.560638466 0.4729,0.267670621" id="Fill-486" fill="#CCB5A2" mask="url(#mask-58)"></path>
                            </g>
                            <g id="编组" transform="translate(0.000000, 1.036986)">
                                <path d="M5.33,1.0358863 L5.33,2.51772366 C5.331,3.09366045 5.73,3.334634 6.212,3.05266495 L6.241,3.03566682 C6.725,2.75569754 7.108,2.05977393 7.103,1.48383714 L7.103,0 L5.33,1.0358863 Z" id="Fill-488" fill="#C44D45"></path>
                                <path d="M3.5517,3.55321001 L3.3377,3.42522406 C3.3377,3.7181919 3.4407,3.92116963 3.6027,4.01715909 L3.8207,4.14714482 C3.6587,4.05015547 3.5527,3.84517797 3.5517,3.55321001" id="Fill-490" fill="#CCB5A2"></path>
                                <path d="M3.5517,2.07287249 L3.5517,3.55271007 C3.5537,4.13064663 3.9517,4.36862052 4.4347,4.08765135 L4.4637,4.06965333 C4.9477,3.78968406 5.3307,3.09376044 5.32970195,2.51682376 L5.32970195,1.03598629 L3.5517,2.07287249 Z" id="Fill-492" fill="#EBD4BE"></path>
                                <path d="M1.7754,4.5882964 L1.5604,4.45931056 C1.5604,4.75127852 1.6634,4.95625602 1.8234,5.05224548 L2.0454,5.18123133 C1.8834,5.08624175 1.7754,4.88126425 1.7754,4.5882964" id="Fill-494" fill="#A8302D"></path>
                                <path d="M1.7754,3.10995866 L1.7754,4.58879635 C1.7764,5.16373325 2.1724,5.40370691 2.6574,5.12273775 L2.6874,5.10573961 C3.1704,4.82577034 3.5534,4.13084661 3.5514078,3.55291004 L3.5514078,2.07307247 L1.7754,3.10995866 Z" id="Fill-496" fill="#C44D45"></path>
                                <path d="M0,4.13814581 L0.004,5.62298284 C0.006,6.19991952 0.397,6.43989318 0.882,6.15792413 L0.91,6.1399261 C1.393,5.85995683 1.776,5.16403321 1.77500195,4.58809643 L1.77500195,3.11025863 L0,4.13814581 Z" id="Fill-498" fill="#EBD4BE"></path>
                            </g>
                        </g>
                    </g>
                    <g id="咖啡LOGO" transform="translate(105.431700, 9.617044)" fill="#EBD4BE">
                        <path d="M6.1054,1.11907717 C6.1284,1.10507871 6.1524,1.09907937 6.1674,1.09807948 C6.2194,1.09807948 6.2554,1.13607531 6.2554,1.20606763 C6.2564,1.29805753 6.1884,1.4140448 6.1054,1.46103964 C6.0754,1.47903767 6.0464,1.48503701 6.0224,1.47903767 C6.0324,1.37204941 6.0374,1.2700606 6.0434,1.17107147 C6.0634,1.15007377 6.0844,1.13207575 6.1054,1.11907717" id="Fill-350"></path>
                        <path d="M6.5713,0.26367106 C6.6923,0.194678633 6.8193,0.149683571 6.9293,0.163682035 C7.1583,0.193678742 7.2663,0.436652075 7.2523,0.891602141 C7.2203,1.90949042 6.6843,3.0713629 5.7063,4.20823812 C5.6913,4.15224426 5.6593,4.12124767 5.6103,4.13324635 C5.6053,4.13424624 5.5963,4.13924569 5.5913,4.14224536 C5.6513,3.91127071 5.7023,3.67829628 5.7483,3.44932141 C6.1863,2.92637881 6.7373,2.05347462 6.7633,1.14957383 C6.7713,0.933597532 6.7313,0.814610591 6.6753,0.788613445 C6.6163,0.764616078 6.5513,0.780614322 6.4773,0.823609603 C6.3743,0.882603129 6.2663,0.990591276 6.1673,1.09857942 C6.1523,1.09957931 6.1293,1.10557866 6.1053,1.11857723 C6.0843,1.13257569 6.0633,1.14957383 6.0443,1.17157141 C6.0573,0.991591166 6.0653,0.828609055 6.0713,0.682625077 C6.1903,0.555639015 6.3783,0.374658879 6.5713,0.26367106" id="Fill-352"></path>
                        <path d="M6.0859,0 C6.0859,0.0149983538 6.0889,0.260971357 6.0709,0.682925045 C6.0649,0.828909022 6.0579,0.991891133 6.0439,1.17087149 C6.0369,1.26986062 6.0319,1.37284932 6.0219,1.47883769 C5.9749,2.0517748 5.8919,2.74069919 5.7479,3.44862149 C5.7019,3.67759636 5.6509,3.91157068 5.5909,4.14254533 C5.5459,4.32052579 5.4929,4.49750637 5.4379,4.67248716 C5.3439,4.97345413 5.2349,5.26942165 5.1069,5.54939092 L3.9009,6.24531454 L3.0169,6.75825824 L2.6189,6.98723311 C1.7339,6.18032167 1.5899,4.10754917 1.5649,3.35963126 C1.5599,3.20764794 1.4479,3.1506542 1.3149,3.22864563 L1.2519,3.26464168 C1.1229,3.34063334 1.0099,3.52561304 1.0149,3.67759636 C1.0379,4.42651416 1.1859,6.49628699 2.0699,7.30519821 L1.8109,7.45518174 C0.7789,6.35630235 0.8019,3.21564706 0.8069,3.04966528 L6.0859,0 Z" id="Fill-354"></path>
                        <path d="M4.9306,6.26941189 L4.9306,6.350403 C4.9326,6.42739455 4.8786,6.52038435 4.8116,6.56037996 L2.1416,8.10121084 C2.0706,8.14120645 2.0156,8.11220963 2.0156,8.03421819 L2.0156,7.95322708 L2.0226,7.95022741 L4.8956,6.29040959 L4.9306,6.26941189 Z" id="Fill-356"></path>
                        <path d="M6.8945,4.51960394 C6.9255,4.50160592 6.9255,4.55160043 6.8975,4.58059725 C6.6345,4.8625663 5.9465,5.55449036 4.8955,6.29040959 L2.0225,7.95022741 C0.9755,8.42117572 0.2865,8.52716409 0.0225,8.55016156 C-0.0075,8.55316123 -0.0075,8.50416661 0.0225,8.4851687 L1.8105,7.45528173 L2.0705,7.3052982 L2.6195,6.98733309 L3.0165,6.75835823 L3.9015,6.24541452 L5.1075,5.54949091 L6.8945,4.51960394 Z" id="Fill-358"></path>
                        <path d="M1.3144,3.22824568 C1.4484,3.15125413 1.5594,3.20824787 1.5644,3.36023119 C1.5894,4.10714921 1.7344,6.17992171 2.6194,6.98683315 L2.0704,7.30479825 C1.1854,6.49688692 1.0384,4.4261142 1.0144,3.67819629 C1.0094,3.52521308 1.1234,3.34023339 1.2524,3.26424173 L1.3144,3.22824568 Z" id="Fill-360"></path>
                    </g>
                </g>
            </g>
        </g>
    </g>
</svg>