<?xml version="1.0" encoding="UTF-8"?>
<svg width="81px" height="64px" viewBox="0 0 81 64" version="1.1" xmlns="http://www.w3.org/2000/svg" xmlns:xlink="http://www.w3.org/1999/xlink">
    <title>储能02</title>
    <g id="能源云系统V1.0" stroke="none" stroke-width="1" fill="none" fill-rule="evenodd">
        <g id="1.站控系统（站点）首页" transform="translate(-991.000000, -452.000000)">
            <g id="content" transform="translate(440.000000, 336.000000)">
                <g id="储能02" transform="translate(551.000000, 116.987160)">
                    <polygon id="Fill-1" fill="#0C1218" opacity="0.300000012" points="0 34.9379459 23.7036936 48.6508981 77.1336168 17.6813734 53.4299232 3.96924692"></polygon>
                    <polygon id="Fill-2" fill="#2F7CD6" points="47.4068927 32.9784692 47.4068927 62.3627769 80.6488867 43.0972599 80.6488867 13.7121265"></polygon>
                    <polygon id="Fill-3" fill="#1A69C4" points="48.8707093 33.8253218 79.1850701 16.2523541 79.1850701 42.1070772 48.8707093 59.6792193"></polygon>
                    <polygon id="Fill-16" fill="#63A6FF" points="56.9446486 9.08398339e-14 80.6483421 13.7121265 47.4064807 32.9780564 23.7036112 19.2659299"></polygon>
                    <polygon id="Fill-18" fill="#003EA1" points="47.4066455 62.3631897 23.702952 48.6502376 23.702952 19.2659299 47.4066455 32.9780564"></polygon>
                    <polygon id="Fill-20" fill="#003A78" points="45.9677134 34.6256912 25.1422137 22.5144687 25.1422137 48.3683662 45.9677134 60.4795887"></polygon>
                    <polygon id="Fill-22" fill="#296CBD" points="25.8742456 22.9376886 25.8742456 47.8412815 45.968043 59.5289539 45.968043 60.4800841 25.1425433 48.3680359 25.1425433 22.5141384"></polygon>
                    <polygon id="Fill-24" fill="#003EA1" points="40.3920266 31.4056368 40.3920266 57.970405 43.7300063 59.6571749 43.7300063 33.335143 43.6937508 33.3128509"></polygon>
                    <polygon id="Fill-26" fill="#296CBD" points="43.6934212 33.3126858 43.6934212 59.0922762 43.7296767 59.0774148 44.535538 58.7843148 44.535538 33.7965072 43.7296767 33.3349779"></polygon>
                    <polygon id="Fill-28" fill="#003EA1" points="33.6447921 27.4704183 33.6447921 54.0351865 36.9827718 55.7219564 36.9827718 29.3990989 36.9465163 29.3776324"></polygon>
                    <polygon id="Fill-30" fill="#296CBD" points="36.9461867 29.3773847 36.9461867 55.1569751 36.9824422 55.1421137 37.7883035 54.8490137 37.7883035 29.8612061 36.9824422 29.3996768"></polygon>
                    <polygon id="Fill-32" fill="#003EA1" points="26.8975576 23.5351172 26.8975576 50.0998854 30.2355373 51.7866553 30.2355373 25.4637978 30.1992818 25.4423313"></polygon>
                    <polygon id="Fill-34" fill="#296CBD" points="30.1989522 25.4421662 30.1989522 51.2217567 30.2352077 51.2068953 31.041069 50.9137953 31.041069 25.9259876 30.2352077 25.4644583"></polygon>
                    <path d="M25.4415689,48.3025632 L45.6680286,60.0034457 L45.6680286,33.9835958 L25.4415689,22.2818876 L25.4415689,48.3025632 Z M46.2168053,60.9562271 L24.8927922,48.6204322 L24.8927922,21.3291062 L46.2168053,33.6657268 L46.2168053,60.9562271 Z" id="Fill-36" fill="#002680"></path>
                    <polygon id="Fill-38" fill="#003EA1" points="78.4528734 16.6761519 78.4528734 41.5797449 48.8710389 58.7291624 48.8710389 59.679467 79.1845757 42.1064993 79.1845757 16.2526018"></polygon>
                    <polygon id="Fill-40" fill="#002680" points="34.6174288 54.470956 35.1662055 54.470956 35.1662055 27.2919162 34.6174288 27.2919162"></polygon>
                    <polygon id="Fill-42" fill="#919191" points="31.6218989 49.1265457 33.6670398 50.3550888 33.6670398 51.8965472 31.6218989 50.6671784"></polygon>
                    <polygon id="Fill-43" fill="#B7BCBD" points="34.0181415 50.1516527 33.6671222 50.3555842 33.6671222 51.8962169 34.0181415 51.6922854"></polygon>
                    <polygon id="Fill-44" fill="#EBEBEB" points="31.9730831 48.9229444 31.6220637 49.126876 33.6672046 50.3554191 34.0182239 50.1514875"></polygon>
                    <polygon id="Fill-45" fill="#919191" points="35.8477269 51.5245992 37.8928677 52.7531423 37.8928677 54.293775 35.8477269 53.0652319"></polygon>
                    <polygon id="Fill-46" fill="#B7BCBD" points="38.2440519 52.5494584 37.8930325 52.75339 37.8930325 54.2940227 38.2440519 54.0900911"></polygon>
                    <polygon id="Fill-47" fill="#EBEBEB" points="36.198911 51.3208327 35.8478917 51.5247643 37.8930325 52.7533074 38.2440519 52.5493759"></polygon>
                    <polygon id="Fill-48" fill="#919191" points="31.6218989 27.7790402 33.6670398 29.0075833 33.6670398 30.548216 31.6218989 29.3196729"></polygon>
                    <polygon id="Fill-49" fill="#B7BCBD" points="34.0181415 28.8041471 33.6671222 29.0080787 33.6671222 30.5487114 34.0181415 30.3447799"></polygon>
                    <polygon id="Fill-50" fill="#EBEBEB" points="31.9730831 27.5755215 31.6220637 27.779453 33.6672046 29.0079961 34.0182239 28.8040646"></polygon>
                    <polygon id="Fill-51" fill="#919191" points="35.8477269 30.1769285 37.8928677 31.4054716 37.8928677 32.9461043 35.8477269 31.7175612"></polygon>
                    <polygon id="Fill-52" fill="#B7BCBD" points="38.2440519 31.2018703 37.8930325 31.4058019 37.8930325 32.9464346 38.2440519 32.742503"></polygon>
                    <polygon id="Fill-53" fill="#EBEBEB" points="36.198911 29.9732446 35.8478917 30.1771762 37.8930325 31.4057193 38.2440519 31.2017878"></polygon>
                    <polygon id="Fill-54" fill="#919191" points="43.8393496 35.3434147 45.8844905 36.5719578 45.8844905 37.3422742 43.8393496 36.1137311"></polygon>
                    <polygon id="Fill-55" fill="#B7BCBD" points="46.2355099 36.3685217 45.8844905 36.5724532 45.8844905 37.3427696 46.2355099 37.138838"></polygon>
                    <polygon id="Fill-56" fill="#EBEBEB" points="44.1906162 35.139896 43.8395968 35.3430019 45.8847377 36.5723706 46.235757 36.3684391"></polygon>
                    <polygon id="Fill-57" fill="#919191" points="43.8393496 56.6780403 45.8844905 57.9065835 45.8844905 58.6768998 43.8393496 57.4483567"></polygon>
                    <polygon id="Fill-58" fill="#B7BCBD" points="46.2355099 57.7031473 45.8844905 57.9070788 45.8844905 58.6773952 46.2355099 58.4734636"></polygon>
                    <polygon id="Fill-59" fill="#EBEBEB" points="44.1906162 56.4743565 43.8395968 56.678288 45.8847377 57.9068312 46.235757 57.7028996"></polygon>
                    <polygon id="Fill-60" fill="#919191" points="24.8744172 24.3360646 26.9195581 25.5646077 26.9195581 26.3349241 24.8744172 25.1063809"></polygon>
                    <polygon id="Fill-61" fill="#B7BCBD" points="27.2708246 25.3612541 26.9198053 25.5651857 26.9198053 26.335502 27.2708246 26.1315705"></polygon>
                    <polygon id="Fill-62" fill="#EBEBEB" points="25.2257662 24.1325459 24.8747468 24.3356518 26.9198877 25.5650205 27.270907 25.361089"></polygon>
                    <polygon id="Fill-63" fill="#919191" points="24.8744172 45.6706077 26.9195581 46.8991508 26.9195581 47.6694671 24.8744172 46.440924"></polygon>
                    <polygon id="Fill-64" fill="#B7BCBD" points="27.2708246 46.6957146 26.9198053 46.8996462 26.9198053 47.6699625 27.2708246 47.466031"></polygon>
                    <polygon id="Fill-65" fill="#EBEBEB" points="25.2257662 45.4670889 24.8747468 45.6710205 26.9198877 46.8995636 27.270907 46.6956321"></polygon>
                    <polygon id="Fill-66" fill="#607173" points="36.5577582 28.4478861 37.0455598 28.7442887 37.0455598 56.0133225 36.5577582 55.7177456"></polygon>
                    <polygon id="Fill-67" fill="#7B8694" points="37.3969911 28.540192 37.0459718 28.7441236 37.0459718 56.0131574 37.3969911 55.8100515"></polygon>
                    <polygon id="Fill-68" fill="#9FBDBF" points="36.9086128 28.2443674 36.5575934 28.448299 37.046219 28.7438759 37.3972383 28.5399443"></polygon>
                    <polygon id="Fill-69" fill="#607173" points="32.400239 26.0542911 32.8880405 26.3506937 32.8880405 53.7204549 32.400239 53.424878"></polygon>
                    <polygon id="Fill-70" fill="#7B8694" points="33.2398014 26.1466796 32.8887821 26.3506111 32.8887821 53.7203723 33.2398014 53.5172664"></polygon>
                    <polygon id="Fill-71" fill="#9FBDBF" points="32.7513407 25.8507724 32.4003214 26.0538783 32.8881229 26.3502809 33.2399662 26.1463493"></polygon>
                    <polygon id="Fill-72" fill="#2F7CD6" points="55.8518743 29.7234904 55.8518743 56.2882586 52.5138946 57.9750285 52.5138946 31.652171 52.5501501 31.6307045"></polygon>
                    <polygon id="Fill-73" fill="#003EA1" points="52.5504797 31.6305394 52.5504797 57.4101298 52.5142242 57.3952684 51.7083629 57.1021684 51.7083629 32.1143608 52.5142242 31.6528315"></polygon>
                    <polygon id="Fill-74" fill="#2F7CD6" points="62.4810311 25.8798347 62.4810311 52.4446029 59.1430514 54.1313728 59.1430514 27.8085153 59.1793069 27.7870488"></polygon>
                    <polygon id="Fill-75" fill="#003EA1" points="59.1795541 27.7868011 59.1795541 53.5663916 59.1432986 53.5515302 58.3374373 53.2584302 58.3374373 28.2706226 59.1432986 27.8090933"></polygon>
                    <polygon id="Fill-76" fill="#2F7CD6" points="69.1101056 22.0360965 69.1101056 48.6008647 65.7721259 50.2876346 65.7721259 23.9647771 65.8083814 23.9433106"></polygon>
                    <polygon id="Fill-77" fill="#003EA1" points="65.808711 23.9431455 65.808711 49.7227359 65.7724555 49.7078745 64.9665942 49.4147745 64.9665942 24.4269669 65.7724555 23.9654376"></polygon>
                    <polygon id="Fill-78" fill="#2F7CD6" points="75.7392625 18.1924408 75.7392625 44.757209 72.4012827 46.4439789 72.4012827 20.121947 72.4375383 20.0996549"></polygon>
                    <polygon id="Fill-79" fill="#003EA1" points="72.4377855 20.0994898 72.4377855 45.8790802 72.4015299 45.8642188 71.5956686 45.5711188 71.5956686 20.5833112 72.4015299 20.1217819"></polygon>
                    <polygon id="Fill-80" fill="#2F7CD6" points="80.6488867 15.217548 80.6488867 41.7823162 79.0303572 42.6003232 79.0303572 16.2774657 79.0666127 16.2559992"></polygon>
                    <polygon id="Fill-81" fill="#003EA1" points="79.0669423 16.2558341 79.0669423 42.0354245 79.0306868 42.0205631 78.2248255 41.7274631 78.2248255 16.7396555 79.0306868 16.2781262"></polygon>
                    <polygon id="Fill-86" fill="#4889E0" points="47.7927668 30.689482 77.6186167 13.5111796 57.096345 1.6385652 27.270495 18.8176933"></polygon>
                    <polygon id="Fill-87" fill="#2D76CC" points="57.096345 2.45286165 28.025269 19.2542884 27.270495 18.8175281 57.096345 1.6385652"></polygon>
                    <polygon id="Fill-88" fill="#63A6FF" points="54.2543243 27.0094669 33.168444 14.8115528 30.2968421 16.6964748 51.1907329 28.783754 51.2245165 28.7647644"></polygon>
                    <polygon id="Fill-89" fill="#2D76CC" points="51.2246813 28.7647644 30.7617367 16.9268267 30.7567928 16.9631546 30.6200106 17.7392504 50.4534275 29.2130836 51.1900737 28.783754"></polygon>
                    <polygon id="Fill-90" fill="#63A6FF" points="60.8528287 23.1960294 39.7669485 10.9981153 36.8953466 12.8830373 57.7884134 24.9703165 57.8230209 24.9513269"></polygon>
                    <polygon id="Fill-91" fill="#2D76CC" points="57.8231033 24.9514095 37.3601588 13.1134717 37.3552149 13.1497996 37.2184327 13.9258954 57.0518496 25.3997286 57.7884958 24.9703991"></polygon>
                    <polygon id="Fill-92" fill="#63A6FF" points="67.4513332 19.3826745 46.3654529 7.1847604 43.493851 9.06968241 64.3877418 21.1569616 64.4215254 21.137972"></polygon>
                    <polygon id="Fill-93" fill="#2D76CC" points="64.4216078 21.137972 43.9586633 9.30003425 43.9537193 9.33636214 43.8169371 10.1124579 63.650354 21.5862911 64.3870003 21.1569616"></polygon>
                    <polygon id="Fill-94" fill="#63A6FF" points="74.0498377 15.569237 52.9639574 3.37132291 50.0923555 5.25624492 70.9854223 17.3435241 71.0200299 17.3245345"></polygon>
                    <polygon id="Fill-95" fill="#2D76CC" points="71.0201123 17.3245345 50.5571677 5.48659676 50.5522238 5.52292464 50.4154416 6.29902044 70.2488585 17.7728537 70.9855047 17.3435241"></polygon>
                    <polygon id="Fill-97" fill="#2D76CC" points="77.6186167 13.5111796 57.096345 1.6385652 57.096345 2.45286165 76.847363 13.9594987 77.5840092 13.5301691"></polygon>
                    <path d="M55.339159,41.8183392 L55.402003,41.3246337 L53.3730397,42.2740674 L53.3146846,42.7701465 L55.339159,41.8183392 Z M53.992502,45.3502326 C54.076294,45.3059257 54.1488638,45.2374874 54.2102115,45.1449176 C54.2613346,45.0677761 54.2953128,44.9887116 54.312146,44.907724 L54.3201885,44.8589007 L54.647875,42.2265957 L52.6817558,43.2662256 L52.6234007,43.7338217 L53.7905034,43.1166898 L53.5391274,45.1437308 L53.1037083,45.8202023 L53.992502,45.3502326 Z M55.7386672,44.2607574 L55.4513804,42.869837 L55.8823106,41.9773694 L55.0294279,42.4283504 L54.5984976,43.3208181 L54.8857844,44.7117384 L55.7386672,44.2607574 Z M52.8523324,45.8534325 L53.6378823,43.3920256 L52.3181584,44.0898594 L52.2598033,44.5574555 L52.6368672,44.3580744 L51.9994496,46.3044135 L52.8523324,45.8534325 Z M57.4938102,42.8627163 L57.435455,42.276441 L57.2379454,42.3808787 L57.6060316,41.6972864 L58.7147792,41.1110111 L58.9885995,41.431445 L58.6968238,41.5857279 L58.4634032,42.3500221 L59.159176,41.9821165 L59.3207749,41.4551808 L59.9357482,41.1299998 L59.5586843,40.6647772 L59.9357482,40.4653962 L59.9941034,40.0167887 L57.9202516,41.1133847 L58.0055398,40.9591017 L59.7741494,40.0239095 L59.8280157,39.58717 L58.3107821,40.3894415 L58.3915815,40.2422792 L59.9133039,39.4376342 L59.9671702,38.9961475 L58.7013126,39.6654983 L58.8584226,39.3782946 L57.7900747,39.9432076 L57.875363,40.0025472 L57.7990524,40.1425887 L56.654394,40.7478527 L56.6005277,41.1893394 L57.4893213,40.7193697 L57.4085219,40.8665319 L56.5780834,41.305645 L56.5242171,41.7423845 L57.1032796,41.4361921 L57.0179914,41.5904751 L56.4209734,41.9061618 L56.3626183,42.3547693 L56.7037714,42.1743769 L56.2099972,43.0953276 L56.7217268,42.8247389 L56.780082,43.2401162 L57.4938102,42.8627163 Z M57.9741178,43.2401162 C58.0609024,43.1942269 58.137213,43.1246018 58.2030495,43.0312408 C58.2579133,42.95344 58.2940736,42.8739908 58.3115302,42.7928934 L58.3197598,42.7440371 L58.4903364,41.3578639 L57.7406973,41.7542524 L57.5701207,43.14992 L57.3187448,43.5866595 L57.9741178,43.2401162 Z M59.7202831,42.3120447 L59.1995757,42.065192 L58.4544255,42.459207 L58.8674003,42.7630258 L59.7202831,42.3120447 Z M56.937192,43.7884142 L57.5072768,42.9600332 L56.7351934,43.3682897 L56.151642,44.2037914 L56.937192,43.7884142 Z M63.6210996,40.1734453 L63.8410535,38.4146194 L62.7278171,39.0032683 L62.8131054,38.7398004 L64.0430521,38.0894383 L64.1014072,37.6265894 L63.8724755,37.7476422 L64.2136287,36.7175066 L63.7108767,36.983348 L63.6570104,37.1400046 L63.356257,37.2990347 L63.3966567,36.9691065 L62.5572405,37.4129668 L62.7053728,37.5150309 L62.6874174,37.6526988 L62.3642197,37.8235969 L62.3103534,38.2650835 L62.6335511,38.0941855 L62.5931514,38.4241137 L62.1487546,38.6590985 L62.0903994,39.1219475 L62.2834203,39.0198833 L61.9332895,40.1117321 L62.1622211,39.9906793 L62.0365332,41.0113206 L63.6210996,40.1734453 Z M60.8604527,41.7186487 L61.2375167,38.6662193 L61.3093384,38.0775704 L60.4699222,38.7492947 L60.3936116,39.3403172 L60.5417439,39.2240116 L60.1916131,42.0723127 L60.8604527,41.7186487 Z M61.9961334,38.6211212 L61.9736892,37.8781893 L61.4305375,38.165393 L61.4484929,38.9106985 L61.9961334,38.6211212 Z M63.3697236,38.0134836 L63.2575022,38.0728232 L63.2979019,37.742895 L63.4909227,37.6408309 L63.3697236,38.0134836 Z M61.0624513,41.6165845 L61.946756,40.8878942 L62.0051112,40.4392867 L61.7627129,40.6339207 L61.9871557,38.8015136 L61.2824052,39.1741663 L61.228539,39.6346417 L61.3183161,39.58717 L61.0624513,41.6165845 Z M63.2664799,39.3308229 L62.6559954,39.6536303 L62.6874174,39.4138983 L63.2979019,39.0910909 L63.2664799,39.3308229 Z M63.1856805,40.0144152 L62.575196,40.3372226 L62.6021291,40.1046114 L63.2126136,39.7818039 L63.1856805,40.0144152 Z M68.1548448,36.0718917 L68.2356443,35.3977937 L68.0426234,35.6802503 L67.4052058,36.0172992 L67.4456055,35.6921182 L68.2715551,35.1082165 L68.3343991,34.6240053 L67.5039606,35.2102806 L67.5623158,34.7616731 L66.7947213,35.1675561 L66.5792561,36.9050198 L68.1548448,36.0718917 Z M66.520901,36.3946991 L66.458057,35.6161635 L65.8610391,35.9318502 L65.8834833,36.2522841 L65.488464,36.4848953 L65.8116616,35.687371 L64.8734906,36.1834501 L64.9767343,36.2570312 L64.6984252,36.954865 L64.6445589,37.3868574 L65.9149053,36.6344311 L65.9238831,36.7103858 L66.520901,36.3946991 Z M65.0979334,39.4827323 L65.1787328,38.8181287 L65.5243748,38.6353627 L65.4660197,39.1172003 L65.26851,39.3925361 L65.9014388,39.0578607 C65.9882233,39.0119714 66.0645339,38.9423463 66.1303705,38.8489853 C66.1852343,38.7711845 66.2224336,38.6911859 66.2419684,38.6089895 L66.2515696,38.559408 L66.5074344,36.4920161 L64.6310923,37.4841743 L64.3303389,39.8886152 L65.0979334,39.4827323 Z M65.6545517,37.5743705 L65.3133985,37.7547629 L65.3448205,37.5102837 L65.6859737,37.3298913 L65.6545517,37.5743705 Z M67.9124466,37.9944949 L67.9977348,37.3227706 L67.804714,37.6052271 L67.8136917,37.6052271 L67.1672964,37.9470232 L67.2076961,37.6218422 L68.0336457,37.0379405 L68.0920008,36.5561029 L67.2660512,37.1400046 L67.3199175,36.6937708 L66.552323,37.0996537 L66.3368579,38.827623 L67.9124466,37.9944949 Z M65.5782411,38.1986232 L65.2325991,38.3813892 L65.2595323,38.1915024 L65.6006854,38.01111 L65.5782411,38.1986232 Z M70.3858066,36.68665 C70.4725912,36.6407607 70.5489017,36.5711356 70.6147383,36.4777746 C70.6696021,36.3999738 70.7068014,36.3199752 70.7263363,36.2377788 L70.7359374,36.1881973 L70.8661143,35.1366995 L71.3553997,34.8779788 L71.3643774,34.9634278 L72.2172601,34.5124468 L72.1454384,33.8241074 L71.2925557,34.2750884 L71.3105111,34.4507336 L69.8157218,35.2411372 L70.3992732,34.5385562 L72.1723716,33.6009904 L72.2397044,33.0574396 L70.1030086,34.1872658 L70.4441617,33.7647678 L72.4506807,32.6230737 L72.5135247,32.1388625 L68.9179505,34.1350469 L68.8506176,34.6691034 L69.3354141,34.3937676 L68.9987499,34.7806618 L68.931417,35.3099711 L69.5059907,35.0061523 L68.8775508,35.7372163 L68.8191956,36.2190539 L70.0132315,35.5876805 L69.8965212,36.503884 L69.497013,37.1566197 L70.3858066,36.68665 Z M72.1633939,35.5758126 L71.8581516,34.8352543 L71.0905571,35.2411372 L71.3957994,35.9816955 L72.1633939,35.5758126 Z M69.1783042,37.1542461 L69.7214558,35.9650804 L68.9583502,36.3685897 L68.4107097,37.560129 L69.1783042,37.1542461 Z M76.4637186,31.9489758 L76.3155863,31.2155382 L75.7185684,31.5312249 L75.7679458,31.7851985 L75.0991061,32.1720927 L75.5075921,31.2819986 L76.5310514,30.7408214 L76.5938954,30.2566102 L75.8622118,30.6435044 L75.9026115,30.3515536 L74.8791522,30.8927308 L75.0227956,30.9971685 L75.009329,31.0944854 L74.2911119,31.4742589 L74.2282679,31.9584701 L74.6547093,31.7329796 L74.2192902,32.6847869 L74.1609351,33.1666245 L75.8487452,32.1887078 L75.8667006,32.2646625 L76.4637186,31.9489758 Z M73.9679143,34.0804545 L74.0262694,33.5986169 L73.5145397,33.8692055 L74.1699128,32.4403077 L73.6581831,32.7108963 L74.3135562,31.2819986 L73.3753852,31.7780777 L73.4696512,31.8469117 L72.8905886,33.1167792 L72.8322335,33.5986169 L73.1284981,33.4419603 L72.7469452,34.2750884 L72.6885901,34.756926 L73.9679143,34.0804545 Z M76.2706977,33.4941791 L76.3649637,32.7227643 L76.1719429,33.0052208 L75.8307898,33.1856132 L75.9385223,32.3168813 L75.2562161,32.6776662 L75.0766619,34.1255526 L76.2706977,33.4941791 Z M74.6502205,34.3510431 L75.0856396,32.7678624 L74.4033334,33.1286472 L73.9679143,34.7118279 L74.6502205,34.3510431 Z M72.5898352,35.5212201 L73.882626,34.756926 L73.9409811,34.2750884 L72.6526792,35.0465033 L72.5898352,35.5212201 Z" id="永泰储能系统" fill="#EBF3F8" fill-rule="nonzero" transform="translate(64.296673, 38.280512) rotate(-2.000000) translate(-64.296673, -38.280512) "></path>
                </g>
            </g>
        </g>
    </g>
</svg>