<?xml version="1.0" encoding="UTF-8"?>
<svg width="21px" height="24px" viewBox="0 0 21 24" version="1.1" xmlns="http://www.w3.org/2000/svg" xmlns:xlink="http://www.w3.org/1999/xlink">
    <title>华为逆变器-1</title>
    <defs>
        <linearGradient x1="60.7651816%" y1="1.70370869%" x2="39.2348184%" y2="98.2962913%" id="linearGradient-1">
            <stop stop-color="#EC4043" offset="0%"></stop>
            <stop stop-color="#AC0003" offset="100%"></stop>
        </linearGradient>
        <path d="M0.382788985,0.00183858271 C0.40336166,0.00517269596 0.424862367,0.0122752315 0.446695391,0.0229494011 C0.461614983,0.0565744257 0.469897387,0.0898727182 0.477231621,0.123072497 L0.488232971,0.172826807 L0.488232971,0.172826807 C0.496227873,0.224658875 0.502617458,0.275565243 0.503684149,0.324014515 C0.506324473,0.342184157 0.506852538,0.359135771 0.506852538,0.37585942 L0.506617842,0.409296117 L0.507216242,0.449258939 L0.505741621,0.49406358 L0.505796408,0.517145533 L0.505589638,0.54882307 L0.505589638,0.54882307 L0.502589899,0.610911943 C0.502181144,0.621356454 0.501944175,0.631928164 0.50206827,0.642745602 C0.500559514,0.649659269 0.499826689,0.657119368 0.499375663,0.664770389 L0.498373849,0.687940708 C0.497801506,0.699456741 0.496751412,0.710602452 0.493555865,0.720177997 C0.488118909,0.713772204 0.484411894,0.706401622 0.481050107,0.698839374 L0.47437655,0.683688393 C0.432310905,0.588592616 0.393434772,0.49352307 0.357220085,0.398175247 L0.344207763,0.361006292 C0.313938571,0.273956169 0.285457394,0.185150615 0.28265733,0.10514208 C0.280141905,0.0359327594 0.320462061,-0.00580728218 0.375233276,0.000656435728 L0.382788985,0.00183858271 Z M0.60167186,0.115942081 C0.604312184,0.11566363 0.607108287,0.117426077 0.609975679,0.119754919 L0.615780481,0.124730908 C0.616755445,0.125540476 0.617732072,0.126303754 0.618707231,0.126966132 L0.638102032,0.142839496 C0.660879793,0.161506844 0.683802371,0.181314904 0.702859644,0.208786571 C0.725756535,0.243793921 0.747058671,0.282107971 0.755581637,0.320316927 C0.76782218,0.367333258 0.763037913,0.408170275 0.755581637,0.444428825 C0.744925289,0.489744027 0.724689844,0.526509818 0.7044544,0.562627255 C0.698117622,0.573501119 0.689013784,0.581578711 0.683152264,0.59332696 C0.671439786,0.616241227 0.655988609,0.635174586 0.641076058,0.65383022 C0.62936358,0.670080842 0.6169831,0.68533993 0.604334627,0.700219358 L0.565985238,0.744330532 L0.564702656,0.745426014 L0.561884717,0.748201391 C0.55888922,0.750911141 0.555342971,0.752513536 0.551083248,0.744814312 C0.54685873,0.693331425 0.543626973,0.643033345 0.542021656,0.593108838 C0.538678251,0.555545379 0.538286836,0.519488151 0.538470843,0.483678726 L0.538881348,0.429993138 C0.53892267,0.421024081 0.538925687,0.412031187 0.538853267,0.402994791 L0.541153319,0.373000474 L0.544755381,0.312656944 C0.545464639,0.302706517 0.546301621,0.292858259 0.547376233,0.2831853 C0.555888638,0.239059126 0.561750158,0.192791993 0.575067953,0.152673509 C0.577196641,0.150267022 0.578931562,0.14724511 0.580512048,0.143971619 L0.585029531,0.133760249 C0.588051423,0.126934637 0.5914129,0.120558087 0.597028612,0.117541359 L0.60167186,0.115942081 Z M0.157041267,0.0169653579 C0.160390707,0.0171609952 0.162695225,0.0205138527 0.164750952,0.0244317383 L0.167747466,0.0304083137 C0.168248958,0.0313670301 0.16875978,0.0322800548 0.169292371,0.0331068846 C0.264710947,0.227650634 0.348140472,0.425323711 0.418451942,0.623417923 L0.440541676,0.686646355 C0.444566703,0.698384081 0.448117646,0.71011702 0.448828773,0.721028834 C0.440838096,0.714259853 0.433615437,0.706382018 0.42647186,0.698201403 L0.412086022,0.681675304 C0.343785974,0.60300953 0.277306493,0.521429703 0.212910527,0.437258497 C0.188946945,0.404061371 0.164444736,0.371165982 0.143142601,0.335877587 C0.10053833,0.277403418 0.0712518536,0.203004001 0.0749799914,0.14521703 C0.078956009,0.0825443651 0.11271006,0.0467108487 0.149967958,0.0215345289 L0.157041267,0.0169653579 Z M0.883447257,0.435232767 L0.891959662,0.440141418 L0.917454294,0.491048608 C0.925923684,0.508080757 0.934056929,0.525205127 0.940932056,0.54250912 L0.947353663,0.559876225 C0.962213408,0.59811328 0.969680245,0.636325558 0.971792504,0.671438128 C0.970197748,0.70805105 0.9595414,0.740663303 0.937711199,0.757130882 L0.929414245,0.761364554 L0.913788595,0.771060498 C0.908573849,0.774185042 0.903205331,0.776948508 0.89724031,0.778589977 C0.817882727,0.804279763 0.728417982,0.808388669 0.638414611,0.80976165 L0.621382626,0.81077668 C0.613754845,0.811087239 0.605926554,0.810575922 0.597405096,0.806704906 C0.598931958,0.795475885 0.60323838,0.787233629 0.608038443,0.779416607 L0.615323029,0.76768981 C0.616503585,0.765681768 0.617643558,0.763620255 0.618707231,0.761465247 C0.673787805,0.666573328 0.73755314,0.581840455 0.809403472,0.508043474 L0.843997018,0.473360026 L0.870592013,0.448416536 L0.883447257,0.435232767 Z M0.00358562544,0.246325528 L0.0036912384,0.246386429 L0.0044617512,0.244576764 L0.00566709383,0.240168644 C0.00653158062,0.237257842 0.00779807408,0.234907619 0.0111475139,0.236146113 C0.0175349862,0.241270217 0.0233483463,0.248042904 0.0290484049,0.255142727 L0.0404339898,0.269387014 C0.151808145,0.402475746 0.262769914,0.536723942 0.370467974,0.67493543 L0.416416154,0.734419749 C0.420640672,0.739257119 0.422805738,0.745368257 0.424400494,0.75173885 C0.343986781,0.706569191 0.263573067,0.660198874 0.183687419,0.613532736 C0.135232189,0.586203515 0.0888997805,0.534056164 0.0548395985,0.476270598 C0.0255003162,0.423032323 0.00307868319,0.364081782 0.000417236414,0.312299578 L6.51931897e-05,0.289537121 C-0.000169502293,0.274288628 6.51931897e-05,0.259223648 0.00358562544,0.246325528 Z M1.01500933,0.825321528 C1.02299367,0.82447469 1.03097801,0.823627853 1.04056767,0.830370363 L1.04500576,0.875309203 C1.04569694,0.882769855 1.04623556,0.890141648 1.04642919,0.897313163 L1.04538537,0.906525119 L1.04366062,0.925297861 C1.04214543,0.940891888 1.03996963,0.955954901 1.03363946,0.967440404 L1.02619174,0.981315806 C1.01973519,0.992621692 1.01234336,1.00281243 1.00169154,1.00834219 L0.995805799,1.01145015 L0.984335323,1.01823756 C0.974756103,1.02384243 0.964812807,1.02870446 0.952159053,1.02821394 C0.929800788,1.03469971 0.901042377,1.02416758 0.873350657,1.01002423 C0.789198245,0.962098333 0.704528329,0.913273691 0.620386478,0.864153227 C0.622498737,0.860568627 0.624610996,0.85750031 0.628909444,0.85755367 C0.738407648,0.840704706 0.851965021,0.833155194 0.966079317,0.82760102 L1.01500933,0.825321528 Z M0.18361349,0.652247308 C0.228889769,0.672904751 0.274683551,0.70415024 0.319949269,0.724201264 L0.358898656,0.745271233 C0.378338877,0.755986898 0.397701536,0.767221472 0.416870289,0.780090467 C0.412006058,0.786280158 0.404876105,0.788395447 0.397374197,0.789674567 L0.386079091,0.791370902 L0.380666164,0.792507686 C0.346466116,0.80054802 0.310304076,0.804192225 0.272550169,0.803403003 C0.237471754,0.803120173 0.193889339,0.772184809 0.162248184,0.728452637 L0.156460396,0.720107251 C0.130363431,0.68447926 0.112250808,0.644366442 0.0952048746,0.604868727 C0.106919465,0.609928582 0.118725305,0.616205212 0.130547367,0.622841596 L0.165987192,0.64297299 L0.18361349,0.652247308 Z M0.628296889,0.902008955 C0.660255373,0.918036401 0.692720799,0.937958145 0.725217909,0.958498487 C0.768888871,0.989132193 0.813626524,1.01009137 0.857297486,1.04066505 C0.888178718,1.06149827 0.919070511,1.07628627 0.949962304,1.09833824 C0.940828291,1.11485792 0.927395614,1.12624362 0.912346262,1.13478483 L0.904696586,1.13882434 C0.877004866,1.1555979 0.834400595,1.14739524 0.795524461,1.11528814 C0.774217045,1.09542964 0.754580459,1.07180703 0.735436356,1.04773032 L0.712624408,1.01883213 C0.708836678,1.01405005 0.705049793,1.00930276 0.701254327,1.00461675 C0.68474702,0.983595572 0.669306404,0.961976833 0.652799097,0.940355325 L0.64194783,0.925424815 C0.638428637,0.920408633 0.635097688,0.915318887 0.632226029,0.910052915 L0.628296889,0.902008955 Z" id="path-2"></path>
    </defs>
    <g id="能源云系统V1.0" stroke="none" stroke-width="1" fill="none" fill-rule="evenodd">
        <g id="1.站控系统（站点）首页" transform="translate(-1202.000000, -560.000000)">
            <g id="content" transform="translate(440.000000, 336.000000)">
                <g id="华为逆变器-1" transform="translate(762.000000, 224.975307)">
                    <polygon id="矩形备份-9" fill="#0C1218" opacity="0.300000012" transform="translate(10.434783, 16.633347) scale(-1, 1) translate(-10.434783, -16.633347) " points="7.45124995e-13 19.5554281 15.5315231 10.6025142 20.8695652 13.6097293 5.58528058 22.6641791"></polygon>
                    <g id="华为逆变器2" transform="translate(1.439205, 0.000000)">
                        <polygon id="矩形备份-72" fill="#B8BBBC" points="2.14057526 14.3558236 5.54108703 12.4320195 5.54108703 13.0683183 2.14057526 14.9929584"></polygon>
                        <polygon id="矩形备份-73" fill="#B8BBBC" points="13.0699468 20.6600449 16.4704585 18.7362407 16.4704585 19.3725395 13.0699468 21.2971797"></polygon>
                        <g id="逆变器1备份-2" transform="translate(0.047717, 1.975857)">
                            <polygon id="矩形" fill="#DEDEDE" points="0 0 13.7973626 7.95620604 13.7973626 19.1306527 7.78899236e-16 11.1744467"></polygon>
                            <polygon id="矩形" fill="#C8CACC" points="0.775132732 11.6201043 2.09285838 12.3799667 2.09285838 13.0171015 0.775132732 12.2572392"></polygon>
                            <polygon id="矩形备份-66" fill="#C8CACC" points="11.7045043 17.9243256 13.0222299 18.684188 13.0222299 19.3194895 11.7045043 18.5596271"></polygon>
                            <g id="编组-70" transform="translate(5.658469, 8.586590)">
                                <path d="M0.596852204,0.0814167987 L1.96108581,0.868097845 C2.28513119,1.0549576 2.54886179,1.50486164 2.55770872,1.88121736 L2.55793802,1.90955628 C2.55793802,2.28971923 2.29071818,2.44381071 1.96108581,2.25372923 L0.596852204,1.46704819 C0.272806823,1.28018843 0.00907622893,0.830284392 0.000229298532,0.453928674 L0,0.425589757 C0,0.0454268047 0.267219834,-0.108664677 0.596852204,0.0814167987 Z" id="矩形" fill="#1B1B1E"></path>
                                <g id="LOGO" transform="translate(1.065808, 1.090910)" fill="#FFFFFF" fill-rule="nonzero">
                                    <path d="M0.159625979,0.000673967167 C0.168781632,0.0019658846 0.178350296,0.00484879032 0.188066855,0.0092428083 C0.19304671,0.0198607378 0.196365048,0.0304226806 0.199089985,0.0409553638 L0.206552719,0.0724923611 C0.210110766,0.0944032568 0.212954383,0.1159314 0.213429103,0.136449822 C0.214604151,0.144131599 0.214839161,0.151309755 0.214839161,0.15839443 L0.214839161,0.17977816 L0.21501381,0.18842365 L0.21501381,0.18842365 L0.214440863,0.205289366 L0.214440863,0.205289366 L0.214369142,0.21825396 C0.214839161,0.236460653 0.212489064,0.25315648 0.212709973,0.271484031 C0.210359876,0.281765948 0.212239954,0.294827885 0.208921616,0.304336753 C0.206905233,0.302101879 0.205423497,0.299576137 0.204119781,0.296953758 L0.200386064,0.28899094 C0.18166519,0.248951741 0.164363775,0.208904969 0.148246809,0.168724719 L0.138009541,0.14079969 C0.126309204,0.108076107 0.116171117,0.0751368376 0.115063438,0.04502325 C0.113983116,0.0167433262 0.130656513,-0.000932968466 0.153730663,3.80672646e-05 L0.159625979,0.000673967167 Z M0.247286179,0.0477296059 C0.24806975,0.0476406537 0.248884141,0.0479355579 0.249718208,0.0484293849 L0.267847592,0.062280451 C0.276523285,0.0691113237 0.285058979,0.0765891004 0.292330514,0.0864687343 C0.302523199,0.101164838 0.312005969,0.117271108 0.315800018,0.133407722 C0.321248967,0.153253644 0.319119222,0.170581546 0.315800018,0.185985515 C0.311056282,0.20524492 0.302048355,0.220938637 0.293040429,0.23635769 C0.290219575,0.241001331 0.286166948,0.244476591 0.283557658,0.249487866 C0.280081739,0.25600509 0.27586613,0.261782519 0.271475001,0.267277554 L0.264827189,0.275365487 C0.254399432,0.289271289 0.242782216,0.301512563 0.231400071,0.314144233 L0.229574699,0.315808075 C0.228241237,0.316973561 0.226662603,0.317673162 0.224766363,0.314436478 C0.222885793,0.292651419 0.221447158,0.271362466 0.220732542,0.250222243 C0.219430247,0.236315428 0.21913523,0.222883908 0.21913523,0.209579869 L0.219322115,0.169702377 C0.220981717,0.152895793 0.221202684,0.135313581 0.223116163,0.118897293 L0.228477548,0.0905455698 C0.230344601,0.0811598443 0.232479047,0.0719828232 0.235443294,0.0634460733 L0.237653527,0.0601432614 L0.24138232,0.0524423049 C0.242082268,0.0512597954 0.242873235,0.0502020065 0.24383289,0.0493802815 L0.247286179,0.0477296059 Z M0.063945644,0.0084046461 C0.0651381787,0.00845999539 0.0660051836,0.00954405489 0.0667636786,0.0109180348 L0.0689306538,0.0151709459 L0.0689306538,0.0151709459 C0.105516782,0.0923044882 0.137771184,0.170677528 0.165309475,0.249335654 L0.176821738,0.283060951 C0.179206808,0.290358688 0.182240788,0.298031573 0.182674828,0.304959218 L0.17749707,0.299878102 L0.17749707,0.299878102 L0.167724095,0.288503045 L0.167724095,0.288503045 C0.139932607,0.255577812 0.112881914,0.221407427 0.086679008,0.186127045 L0.0720785157,0.165195367 C0.0672836667,0.15815393 0.0626241866,0.150999802 0.0582902362,0.143587549 C0.0409544346,0.119065597 0.0290376825,0.0877191779 0.0305546726,0.0632169175 C0.0321017447,0.0378060561 0.0447285598,0.0226324983 0.0590867806,0.0118365932 L0.063945644,0.0084046461 Z M0.35952235,0.181340698 L0.362986073,0.183370293 L0.372668956,0.203354246 C0.377516861,0.213378901 0.3821457,0.223478443 0.385526053,0.233769296 C0.391572526,0.249880691 0.394610804,0.266024898 0.395470288,0.280887339 C0.394821377,0.296407093 0.390485278,0.31028512 0.381602506,0.317389203 C0.375753714,0.320116565 0.371202744,0.324891246 0.365134784,0.326717056 C0.332843953,0.338064974 0.296440488,0.340329747 0.259817855,0.341438649 L0.251719363,0.34201616 C0.248982979,0.342079812 0.246164945,0.341775179 0.243130965,0.340383959 C0.243674589,0.336213779 0.245084143,0.33299987 0.246736502,0.33002424 L0.251798865,0.32109419 C0.276452555,0.276520049 0.305382209,0.237091821 0.338263002,0.203252212 C0.342740916,0.1981821 0.347700142,0.193622337 0.352500203,0.188816344 L0.35952235,0.181340698 Z M0.00150409781,0.106467977 L0.00249196776,0.103396722 C0.00284489357,0.102382158 0.00338851749,0.101669437 0.00458105218,0.10211135 L0.00872870137,0.106220199 L0.0164978042,0.116021697 C0.0682903379,0.17971108 0.119863703,0.244045166 0.169486038,0.310821922 C0.171205007,0.312846439 0.172085979,0.315422631 0.17273489,0.318112076 C0.140014316,0.29944784 0.107293743,0.280274967 0.0747880405,0.260973681 C0.0550714669,0.249680007 0.0362186752,0.227860139 0.0223594883,0.203579848 C0.0104212491,0.181198279 0.00129782154,0.156356285 0.000214871115,0.134435269 L5.37177784e-05,0.119977571 C0.000107435557,0.115200521 0.000429742231,0.110581489 0.00150409781,0.106467977 Z M0.381211441,0.348213633 L0.41305534,0.345866038 C0.416304191,0.34540159 0.419553043,0.344937142 0.423455102,0.348144198 L0.425260974,0.369918293 C0.425542217,0.373533488 0.425761385,0.377106594 0.425840172,0.380584841 L0.424638268,0.39508915 C0.424023565,0.40234065 0.42310873,0.409305167 0.420635993,0.414695685 C0.417172271,0.422653118 0.413704251,0.43089894 0.407636291,0.434755174 C0.401134291,0.438617221 0.395719539,0.444974039 0.38748138,0.444729084 C0.378383737,0.448025932 0.366681856,0.4431088 0.355414015,0.43643239 C0.321172154,0.413743851 0.286719719,0.390622722 0.252482156,0.36735452 C0.25334164,0.365601136 0.254201124,0.364098247 0.255950175,0.364095296 C0.296686301,0.355949351 0.338803102,0.351552302 0.381211441,0.348213633 Z M0.0627858174,0.273493206 L0.0747579585,0.281417146 L0.0886080806,0.289937649 L0.116385678,0.308890832 C0.121010578,0.311914408 0.125628695,0.314754422 0.130233383,0.317236998 C0.143452254,0.325970204 0.156671125,0.334384239 0.169670828,0.345123009 C0.168285339,0.347362047 0.166448105,0.348588322 0.164423434,0.349365052 L0.154939264,0.351726769 C0.141023165,0.356078849 0.126308726,0.35819745 0.110946552,0.358060887 C0.0957809484,0.358170746 0.0767089882,0.340658606 0.0637092857,0.316299856 C0.0530903552,0.298270921 0.045720276,0.277892848 0.0387842363,0.257821682 C0.0467287377,0.261994747 0.0547763772,0.267893879 0.0627858174,0.273493206 Z M0.255700925,0.380576848 C0.268704925,0.387179368 0.281915201,0.395428669 0.295138369,0.403939842 L0.308533569,0.412839277 L0.335486733,0.429089353 C0.339969885,0.431881359 0.344439472,0.434800444 0.348881933,0.437974483 C0.361447596,0.446619195 0.374017556,0.452702895 0.386587516,0.461863849 C0.382251417,0.470090921 0.375534546,0.475391964 0.368168764,0.47928024 C0.356900923,0.486548288 0.339565121,0.483322962 0.32374631,0.469949107 C0.315423062,0.461992748 0.307726379,0.452557788 0.300232052,0.44289093 L0.285387518,0.423617408 L0.265670945,0.396678064 C0.262905553,0.392768795 0.260021714,0.388904565 0.257746431,0.384788227 L0.255700925,0.380576848 Z" id="形状"></path>
                                    <path d="M0,0.319207431 C0.00786787177,0.32250866 0.0154106249,0.325429665 0.0232784967,0.328222257 L0.0230858337,0.349957242 L0.0236036153,0.361175586 L0.0236036153,0.361175586 C0.0409844593,0.368415125 0.0587164315,0.375282005 0.0763963847,0.381620103 L0.0769170562,0.370983629 L0.0767215033,0.349193249 C0.0845893751,0.352499564 0.0921321282,0.355420569 0.1,0.358208075 C0.0996748813,0.384761869 0.0996748813,0.411436482 0.1,0.438231914 L0.0767215033,0.429217088 L0.0769141663,0.407425588 L0.0763963847,0.396263759 L0.0763963847,0.396263759 C0.0590155407,0.38902422 0.0412835685,0.38215734 0.0236036153,0.375819241 C0.022953378,0.386594678 0.0232784967,0.397493512 0.0232784967,0.408520759 L0,0.399505933 L0.000243839001,0.35935447 L0,0.319207431 Z M0.0784451468,0.365172971 C0.0864706161,0.3684742 0.0941644544,0.371395205 0.102189924,0.374187797 L0.102521555,0.426123454 L0.102521555,0.426123454 C0.102521555,0.433529207 0.109178943,0.443657184 0.118685779,0.449050904 L0.122923491,0.451050907 C0.134630064,0.457021278 0.151350897,0.460826244 0.154030475,0.451319862 L0.154561576,0.432466453 L0.154362106,0.393969802 C0.162387576,0.397271031 0.170081414,0.400192036 0.178106883,0.402984628 L0.178445147,0.454663398 L0.178445147,0.454663398 L0.177849485,0.462777187 C0.177199541,0.466729617 0.175635569,0.470169134 0.171421203,0.471492773 C0.158713105,0.476154156 0.139982588,0.47032987 0.123261755,0.463208593 L0.110475339,0.457319231 C0.104062179,0.454129177 0.097842905,0.450384302 0.0928246653,0.445244171 C0.0838538746,0.436975158 0.0786940561,0.427006698 0.0791084088,0.418745185 L0.0784451468,0.365172971 Z M0.187178949,0.423593073 L0.208870474,0.433370886 C0.211406645,0.443232142 0.217322516,0.453080771 0.220417315,0.46293952 L0.225589512,0.474243805 L0.234243358,0.496765546 C0.235805771,0.500511955 0.237530884,0.504255567 0.23957267,0.507997598 C0.242952369,0.51567556 0.246052755,0.523227616 0.248024711,0.531044142 L0.234501776,0.525097656 L0.227740928,0.521641488 L0.227740928,0.521641488 C0.2232328,0.51422291 0.222109958,0.506534818 0.218166044,0.499116251 C0.204301946,0.491542438 0.190319001,0.485324694 0.176475636,0.480577931 L0.170298038,0.490087218 C0.169212851,0.491640888 0.168023594,0.493100363 0.166615852,0.494347756 C0.160420667,0.492063812 0.154219896,0.489014394 0.148024711,0.486221812 C0.148583339,0.478777947 0.152812153,0.47427533 0.157040968,0.470021945 C0.161264195,0.462180152 0.166615852,0.455360741 0.170559765,0.447393042 C0.173410863,0.445119035 0.17551017,0.442182128 0.177377046,0.439032354 L0.182799741,0.429394462 L0.182799741,0.429394462 L0.187178949,0.423593073 Z M0.188468818,0.493997288 C0.201591012,0.505295177 0.215278585,0.513217094 0.228400779,0.517108594 L0.215796647,0.474759876 C0.213557732,0.467747138 0.211099281,0.46072684 0.208195662,0.453653601 C0.201374376,0.46148868 0.197446257,0.472823427 0.193073798,0.483572314 L0.188468818,0.493997288 Z M0.217127262,0.446434829 L0.234029024,0.456338547 C0.235318251,0.464789655 0.236843836,0.473374173 0.239443776,0.482079581 C0.243560707,0.497060345 0.245077697,0.511285696 0.249628667,0.526266471 L0.251579697,0.526636564 L0.253652733,0.515555853 L0.2596843,0.495073376 C0.26058602,0.491589475 0.261331622,0.487984929 0.261764588,0.484131386 C0.262472279,0.480708055 0.263414458,0.477488 0.264583697,0.474496612 L0.283006746,0.48529174 L0.29162642,0.521843705 L0.296770118,0.546884991 C0.297548192,0.550363677 0.298642488,0.55380646 0.300991459,0.556876619 L0.304181422,0.543520791 L0.304181422,0.543520791 L0.31226635,0.518288856 C0.313600096,0.514073097 0.31485924,0.509793835 0.315942191,0.505363647 L0.321270835,0.507721545 L0.33241421,0.514242426 C0.324610092,0.536347546 0.316595399,0.558064788 0.30920813,0.580668482 L0.297072209,0.573783407 C0.295049556,0.572598217 0.293026903,0.571356513 0.291004249,0.570001778 C0.290030883,0.568790544 0.2895442,0.567415614 0.289219207,0.566038786 L0.279610509,0.522715395 C0.278053728,0.516160709 0.276344309,0.509601921 0.274321656,0.503030267 L0.272595684,0.506778631 L0.270419596,0.515362049 L0.260668745,0.551972136 L0.260668745,0.551972136 C0.254385914,0.548544981 0.248317953,0.544989413 0.242030824,0.541051102 L0.238811182,0.531149047 L0.234078512,0.511574355 C0.233215468,0.5083112 0.23222733,0.50503896 0.230982152,0.501744537 C0.226431181,0.485487084 0.223831241,0.469070741 0.217978152,0.452833602 L0.217312419,0.449541575 L0.217127262,0.446434829 Z M0.348983709,0.531124456 C0.355273266,0.526877416 0.365631344,0.526696355 0.376667044,0.530640545 L0.435642104,0.551210978 L0.435642104,0.565574884 C0.41874115,0.559347563 0.401840195,0.553130416 0.384939241,0.547671137 C0.372352666,0.54424395 0.36444416,0.549920173 0.363723908,0.558388966 L0.387564053,0.567325243 L0.435642104,0.584038402 L0.435642104,0.598402307 C0.412266016,0.589893631 0.388533368,0.58125905 0.365164412,0.573515847 C0.36231193,0.580718003 0.368730014,0.591702336 0.380624863,0.597957433 C0.39896632,0.606738131 0.417300646,0.611416698 0.435642104,0.6186664 L0.435642104,0.631234817 C0.415867274,0.624252104 0.39642048,0.617639542 0.376667044,0.610410065 C0.357431046,0.602036957 0.341698938,0.586399189 0.33744542,0.571423638 C0.334325518,0.557081512 0.334481514,0.542322865 0.344190843,0.534179084 L0.348983709,0.531124456 Z M0.425870644,0.561006506 C0.435383636,0.563074148 0.445169323,0.566559041 0.454731737,0.57128456 L0.455544831,0.588552908 L0.455600006,0.648757962 C0.455467878,0.653055105 0.455115924,0.657250219 0.454324028,0.661251913 L0.425862803,0.650824439 L0.426163684,0.605892993 L0.425870644,0.561006506 Z" id="形状"></path>
                                </g>
                                <g id="编组-65" transform="translate(0.895278, 0.618713)" fill="#22FFFF">
                                    <path d="M0.0598510538,0.218562422 C0.092905878,0.246889981 0.119702108,0.223627723 0.119702108,0.166604716 C0.119702108,0.109581708 0.092905878,0.0403914033 0.0598510538,0.0120638446 C0.0267962295,-0.016263714 0,0.0069985436 0,0.0640215513 C0,0.121044559 0.0267962295,0.190234864 0.0598510538,0.218562422 Z" id="椭圆形"></path>
                                    <path d="M0.353283685,0.475020333 C0.386338509,0.503347892 0.413134738,0.480085634 0.413134738,0.423062627 C0.413134738,0.366039619 0.386338509,0.296849314 0.353283685,0.268521756 C0.32022886,0.240194197 0.293432631,0.263456455 0.293432631,0.320479462 C0.293432631,0.37750247 0.32022886,0.446692775 0.353283685,0.475020333 Z" id="椭圆形备份-62"></path>
                                    <path d="M0.646716315,0.731478244 C0.67977114,0.759805803 0.706567369,0.736543545 0.706567369,0.679520538 C0.706567369,0.62249753 0.67977114,0.553307225 0.646716315,0.524979667 C0.613661491,0.496652108 0.586865262,0.519914366 0.586865262,0.576937373 C0.586865262,0.633960381 0.613661491,0.703150686 0.646716315,0.731478244 Z" id="椭圆形备份-63"></path>
                                    <path d="M0.940148946,0.987936155 C0.97320377,1.01626371 1,0.993001456 1,0.935978449 C1,0.878955441 0.97320377,0.809765136 0.940148946,0.781437578 C0.907094122,0.753110019 0.880297892,0.776372277 0.880297892,0.833395284 C0.880297892,0.890418292 0.907094122,0.959608597 0.940148946,0.987936155 Z" id="椭圆形备份-64"></path>
                                </g>
                            </g>
                            <g id="LOGO3" transform="translate(8.991704, 6.368373)" fill-rule="nonzero">
                                <g id="形状">
                                    <use fill="#C71F1E" xlink:href="#path-2"></use>
                                    <use fill="url(#linearGradient-1)" xlink:href="#path-2"></use>
                                </g>
                                <path d="M1.12394246,0.771204035 C1.15466903,0.790321757 1.18412591,0.807307973 1.21485248,0.823627012 C1.21485248,0.882903133 1.21231309,0.942114268 1.21612217,1.00498622 C1.28399996,1.04692642 1.35324901,1.08685867 1.42229491,1.12387509 C1.42421215,1.0953426 1.42452957,1.06553774 1.42436769,1.03547049 L1.42373684,0.975285367 C1.42363585,0.965295951 1.4235646,0.955352193 1.4235646,0.945491497 C1.45429117,0.964637206 1.48374805,0.981623422 1.51447462,0.997914474 C1.51320493,1.1439826 1.51320493,1.2907549 1.51447462,1.43823139 L1.4235646,1.38580841 C1.4235646,1.32513295 1.42610399,1.26732115 1.42229491,1.2044492 C1.35441713,1.162509 1.28516807,1.12257675 1.21612217,1.08556033 C1.21459854,1.12108701 1.21444618,1.15690066 1.21456807,1.19297322 L1.21485248,1.26545521 L1.12394246,1.21303224 C1.12489473,1.10233368 1.1251328,0.992183582 1.12465666,0.88180268 L1.12394246,0.771204035 Z M1.58748197,1.03850264 C1.61820853,1.05762036 1.64766541,1.07460658 1.67839198,1.09092562 C1.68093137,1.18692948 1.67709689,1.27928587 1.67966167,1.37673171 C1.67966167,1.4233018 1.71295302,1.4904686 1.75777318,1.516314 C1.80259335,1.55055546 1.86661126,1.57347777 1.87687038,1.5214889 C1.87878762,1.47038502 1.87910504,1.41800178 1.87894316,1.36514625 L1.87814008,1.2059698 L1.87814008,1.2059698 C1.90886665,1.22508752 1.93832352,1.24207374 1.96905009,1.25839278 C1.97034518,1.35367912 1.97034518,1.44824664 1.97034518,1.54278618 L1.96963273,1.56504715 L1.96877358,1.58004049 C1.96678157,1.60471848 1.96138115,1.62701639 1.94345308,1.63455248 C1.89479845,1.65869139 1.82308619,1.62441941 1.75906827,1.58324968 L1.73301259,1.56559478 C1.70367482,1.54551087 1.67369757,1.52310914 1.64958664,1.4907893 L1.64253585,1.48078821 C1.60818999,1.43422385 1.58843495,1.37876127 1.59002135,1.33335299 C1.58798984,1.25428856 1.58920875,1.17709847 1.5884774,1.09805299 L1.58748197,1.03850264 Z M2.1766195,1.37822696 L2.27522385,1.43508685 C2.27906679,1.45329268 2.28461676,1.47154375 2.29082979,1.48981231 L2.3104141,1.5446427 C2.31690928,1.56291847 2.32302356,1.58118399 2.32771296,1.59941148 C2.36356909,1.68358994 2.37766268,1.76652578 2.4147885,1.85003706 C2.43015179,1.89276033 2.44424538,1.93475143 2.45320941,1.97803858 C2.42248284,1.9603202 2.39173088,1.94538586 2.36100431,1.92344147 C2.35331949,1.90789577 2.34779871,1.89220867 2.34295418,1.87649042 L2.333726,1.84504505 C2.32912192,1.82933426 2.32420226,1.81366583 2.31747923,1.79814999 C2.25445644,1.75452114 2.1908934,1.71833705 2.12796486,1.69026646 C2.12357535,1.6970109 2.11960251,1.70434059 2.1157188,1.7118369 L2.10400757,1.734407 C2.09795813,1.74552333 2.09137231,1.75607261 2.0831447,1.76464192 C2.06906381,1.75792156 2.05497656,1.75014803 2.04088932,1.74202466 L1.99863394,1.7173084 C2.00117332,1.67642864 2.02039648,1.65225019 2.03961963,1.6294431 L2.0516616,1.60450738 L2.0516616,1.60450738 L2.07722529,1.55643897 C2.08570643,1.5404232 2.09390154,1.52415204 2.10107277,1.50683819 C2.11489718,1.49392063 2.12483329,1.47673239 2.13374633,1.4583676 L2.14670675,1.43032477 C2.15316146,1.41624891 2.15984655,1.40238146 2.16797078,1.39002775 L2.1766195,1.37822696 Z M2.15729477,1.62109195 C2.19992167,1.65697958 2.24425274,1.68254295 2.28675266,1.69574344 L2.2787841,1.67098798 L2.2787841,1.67098798 L2.25636574,1.59761532 C2.2462812,1.56516713 2.23541898,1.53279874 2.22131269,1.49996601 C2.20494776,1.51717891 2.1937243,1.54041445 2.1832489,1.56446622 L2.1707563,1.59338692 C2.16652434,1.60293562 2.16213089,1.61228169 2.15729477,1.62109195 Z M2.40696719,1.51105624 L2.50684124,1.56864829 C2.5144594,1.61538537 2.52347422,1.66289983 2.5388375,1.71127644 C2.54796025,1.74247034 2.55492253,1.77301271 2.56147995,1.80339638 L2.57457514,1.86409819 C2.58137301,1.89448933 2.58893641,1.92505036 2.59902095,1.95627413 L2.61054976,1.95866818 C2.61461278,1.92432596 2.62341734,1.89385532 2.63317508,1.86424599 L2.64805304,1.8201017 C2.65781687,1.79060112 2.66663972,1.76045671 2.67073321,1.72665822 C2.67491502,1.70795169 2.68048244,1.69040664 2.68739158,1.67416142 L2.79625505,1.73693721 L2.80695024,1.78045686 L2.82914817,1.8674106 C2.84394679,1.92530056 2.85826686,1.98297722 2.869237,2.04011123 L2.87557453,2.06946247 C2.88036763,2.09171632 2.88651264,2.11412858 2.90252835,2.13411739 C2.91163628,2.08919216 2.92504299,2.04785699 2.93937543,2.00730441 L2.96114678,1.94671157 C2.97195799,1.91635769 2.98234125,1.88565442 2.99087359,1.85341738 C3.00623687,1.85807854 3.02224135,1.86695064 3.0385696,1.87670562 L3.06326513,1.89158423 C3.07155147,1.89648715 3.07987906,1.90119477 3.08820825,1.90529111 L3.0325896,2.04894523 C3.00479857,2.1207094 2.97727264,2.19272316 2.95108141,2.26653425 L2.92956773,2.25439713 L2.88654038,2.2305259 C2.87219793,2.22238971 2.85785548,2.21389528 2.84351302,2.20450528 C2.83776132,2.19766223 2.83488546,2.1900077 2.83296505,2.18237237 L2.82944626,2.16557574 L2.82814974,2.16035469 C2.82189156,2.13604811 2.81607606,2.1117881 2.81042204,2.08755165 L2.79366328,2.01488997 C2.77963273,1.95435911 2.76485413,1.89383166 2.74493406,1.83294804 C2.73767867,1.84328542 2.73327569,1.85618148 2.7296403,1.86965072 L2.7245023,1.89003627 C2.72365505,1.89342278 2.72279062,1.89678307 2.72187644,1.90008611 L2.69259097,1.99963797 C2.68282703,2.03281837 2.67322181,2.0660903 2.66425777,2.09973896 C2.62713195,2.07972981 2.59127582,2.05905349 2.55412461,2.03623101 C2.54260214,2.00841807 2.53467926,1.98109082 2.52772456,1.95392437 L2.51432643,1.89970962 C2.50749315,1.87261318 2.4998738,1.84546096 2.48883699,1.81792808 C2.48345857,1.79987046 2.47854131,1.78179219 2.47383918,1.7637005 L2.45330146,1.68222181 C2.44177582,1.63693276 2.42928839,1.59162785 2.41199518,1.54642034 C2.40934238,1.53711216 2.40770983,1.52802988 2.40713596,1.51944119 L2.40696719,1.51105624 Z M3.15479095,2.00024721 C3.17718774,1.97757349 3.21407234,1.97772159 3.25336991,2.00064301 C3.32381248,2.03986415 3.39303614,2.0811811 3.46337712,2.12034367 L3.46337712,2.1993785 C3.40319368,2.16324657 3.34301023,2.12717062 3.28282679,2.09526471 C3.23800663,2.07501667 3.20984484,2.10537535 3.20728006,2.1518938 C3.25557192,2.18293965 3.30428667,2.21103086 3.35317792,2.23863637 L3.42661637,2.27998897 C3.4388679,2.28692323 3.45112277,2.29390428 3.46337712,2.30097072 L3.46337712,2.38000555 C3.38013605,2.3306055 3.29562529,2.28047329 3.21240962,2.23528592 C3.20225207,2.27459936 3.22510654,2.33574776 3.2674635,2.37147945 C3.297701,2.39478527 3.32793306,2.41325312 3.35816472,2.4305267 L3.41983833,2.46525378 C3.43435038,2.4735742 3.44886312,2.48219032 3.46337712,2.49150511 L3.46337712,2.56066058 L3.32343063,2.4805828 C3.30014258,2.46715382 3.27681691,2.45354766 3.25336991,2.43956058 C3.18487149,2.39136386 3.12885025,2.30358176 3.11370369,2.22071154 C3.10100676,2.13012905 3.10354614,2.03702586 3.15468937,2.00018864 L3.15479095,2.00024721 Z M3.54661911,2.17682438 C3.57853683,2.18775323 3.61136949,2.20554535 3.64345303,2.229299 C3.64608368,2.27169408 3.64641251,2.31280088 3.64624809,2.35363311 L3.64579747,2.43523185 C3.64579138,2.44887075 3.64586446,2.46255423 3.64608368,2.47631984 L3.6458536,2.50000234 L3.6458536,2.50000234 L3.64657035,2.57166903 C3.64673476,2.6033367 3.64607052,2.63436819 3.6420851,2.66320112 L3.5465928,2.61004598 C3.54759902,2.5014994 3.54785058,2.39339859 3.54735856,2.28510033 L3.54661911,2.17682438 Z" id="形状" fill="#262222"></path>
                            </g>
                            <g id="编组-1" transform="translate(1.395239, 1.106343)" fill="#899193">
                                <path d="M0.155026546,0.378729514 C0.240645344,0.428101326 0.310053093,0.388077565 0.310053093,0.289333941 C0.310053093,0.190590317 0.240645344,0.0705190324 0.155026546,0.0211472204 C0.069407749,-0.0282245915 0,0.0117991701 0,0.110542794 C0,0.209286418 0.069407749,0.329357702 0.155026546,0.378729514 Z" id="椭圆形"></path>
                                <path d="M5.5034424,3.4628768 C5.58906119,3.51224861 5.65846894,3.47222485 5.65846894,3.37348123 C5.65846894,3.2747376 5.58906119,3.15466632 5.5034424,3.1052945 C5.4178236,3.05592269 5.34841585,3.09594645 5.34841585,3.19469008 C5.34841585,3.2934337 5.4178236,3.41350499 5.5034424,3.4628768 Z" id="椭圆形备份-59"></path>
                                <path d="M10.8518582,6.54702408 C10.937477,6.59639589 11.0068848,6.55637213 11.0068848,6.45762851 C11.0068848,6.35888489 10.937477,6.2388136 10.8518582,6.18944179 C10.7662394,6.14006998 10.6968317,6.18009374 10.6968317,6.27883736 C10.6968317,6.37758099 10.7662394,6.49765227 10.8518582,6.54702408 Z" id="椭圆形备份-60"></path>
                            </g>
                            <g id="编组-1备份-9" transform="translate(0.252208, 2.849741)" fill="#899193">
                                <path d="M0.310053093,0.378729514 C0.481290688,0.428101326 0.620106186,0.388077565 0.620106186,0.289333941 C0.620106186,0.190590317 0.481290688,0.0705190324 0.310053093,0.0211472204 C0.138815498,-0.0282245915 0,0.0117991701 0,0.110542794 C0,0.209286418 0.138815498,0.329357702 0.310053093,0.378729514 Z" id="椭圆形备份-7"></path>
                                <path d="M0.310053093,6.36441124 C0.481290688,6.41378305 0.620106186,6.37375929 0.620106186,6.27501566 C0.620106186,6.17627204 0.481290688,6.05620076 0.310053093,6.00682894 C0.138815498,5.95745713 0,5.99748089 0,6.09622452 C0,6.19496814 0.138815498,6.31503943 0.310053093,6.36441124 Z" id="椭圆形备份-8"></path>
                            </g>
                            <g id="编组-1备份-11" transform="translate(13.208730, 10.460390)" fill="#899193">
                                <path d="M0.310053093,0.378729514 C0.481290688,0.428101326 0.620106186,0.388077565 0.620106186,0.289333941 C0.620106186,0.190590317 0.481290688,0.0705190324 0.310053093,0.0211472204 C0.138815498,-0.0282245915 0,0.0117991701 0,0.110542794 C0,0.209286418 0.138815498,0.329357702 0.310053093,0.378729514 Z" id="椭圆形备份-7"></path>
                                <path d="M0.310053093,6.36441124 C0.481290688,6.41378305 0.620106186,6.37375929 0.620106186,6.27501566 C0.620106186,6.17627204 0.481290688,6.05620076 0.310053093,6.00682894 C0.138815498,5.95745713 0,5.99748089 0,6.09622452 C0,6.19496814 0.138815498,6.31503943 0.310053093,6.36441124 Z" id="椭圆形备份-8"></path>
                            </g>
                            <g id="编组-1备份-8" transform="translate(1.395239, 11.565625)" fill="#899193">
                                <path d="M0.155026546,0.378729514 C0.240645344,0.428101326 0.310053093,0.388077565 0.310053093,0.289333941 C0.310053093,0.190590317 0.240645344,0.0705190324 0.155026546,0.0211472204 C0.069407749,-0.0282245915 0,0.0117991701 0,0.110542794 C0,0.209286418 0.069407749,0.329357702 0.155026546,0.378729514 Z" id="椭圆形"></path>
                                <path d="M5.5034424,3.4628768 C5.58906119,3.51224861 5.65846894,3.47222485 5.65846894,3.37348123 C5.65846894,3.2747376 5.58906119,3.15466632 5.5034424,3.1052945 C5.4178236,3.05592269 5.34841585,3.09594645 5.34841585,3.19469008 C5.34841585,3.2934337 5.4178236,3.41350499 5.5034424,3.4628768 Z" id="椭圆形备份-59"></path>
                                <path d="M10.8518582,6.54702408 C10.937477,6.59639589 11.0068848,6.55637213 11.0068848,6.45762851 C11.0068848,6.35888489 10.937477,6.2388136 10.8518582,6.18944179 C10.7662394,6.14006998 10.6968317,6.18009374 10.6968317,6.27883736 C10.6968317,6.37758099 10.7662394,6.49765227 10.8518582,6.54702408 Z" id="椭圆形备份-60"></path>
                            </g>
                        </g>
                        <polygon id="矩形" fill="#F1F1F1" transform="translate(8.651690, 4.974281) scale(-1, 1) translate(-8.651690, -4.974281) " points="0.0477168858 7.97677523 13.8450795 0 17.2556635 1.97178714 3.45830091 9.94856237"></polygon>
                        <polygon id="矩形备份-71" fill="#B7B6B6" points="13.8450795 9.94856237 17.2556635 7.97677523 17.2704615 19.1616484 13.8450795 21.1065096"></polygon>
                    </g>
                </g>
            </g>
        </g>
    </g>
</svg>