<?xml version="1.0" encoding="UTF-8"?>
<svg width="59px" height="64px" viewBox="0 0 59 64" version="1.1" xmlns="http://www.w3.org/2000/svg" xmlns:xlink="http://www.w3.org/1999/xlink">
    <title>img_充电桩120KW_def</title>
    <defs>
        <path d="M0.181297466,2.11957364 C0.281425292,2.06172743 0.362594932,1.92104657 0.362594932,1.80535415 C0.362594932,1.68966172 0.281425292,1.6427681 0.181297466,1.70061431 C0.0811696404,1.75846053 0,1.89914138 0,2.01483381 C0,2.13052623 0.0811696404,2.17741985 0.181297466,2.11957364 Z" id="path-1"></path>
        <path d="M1.17843353,1.54350457 C1.27856136,1.48565836 1.359731,1.3449775 1.359731,1.22928508 C1.359731,1.11359265 1.27856136,1.06669904 1.17843353,1.12454525 C1.0783057,1.18239146 0.997136064,1.32307232 0.997136064,1.43876474 C0.997136064,1.55445716 1.0783057,1.60135078 1.17843353,1.54350457 Z" id="path-2"></path>
        <path d="M2.08492086,1.01980542 C2.18504869,0.961959204 2.26621833,0.821278346 2.26621833,0.705585924 C2.26621833,0.589893501 2.18504869,0.542999882 2.08492086,0.600846093 C1.98479303,0.658692304 1.90362339,0.799373163 1.90362339,0.915065585 C1.90362339,1.03075801 1.98479303,1.07765163 2.08492086,1.01980542 Z" id="path-3"></path>
        <path d="M3.08205692,0.443736347 C3.18218475,0.385890136 3.26335439,0.245209277 3.26335439,0.129516855 C3.26335439,0.0138244325 3.18218475,-0.033069187 3.08205692,0.0247770242 C2.9819291,0.0826232354 2.90075946,0.223304094 2.90075946,0.338996516 C2.90075946,0.454688939 2.9819291,0.501582558 3.08205692,0.443736347 Z" id="path-4"></path>
        <polygon id="path-5" points="4.15478631e-13 0 7.30917737 4.26099109 7.30917737 39.6630539 4.15478631e-13 35.4020628"></polygon>
        <polygon id="path-6" points="0 0 3.07672003 1.76677603 3.07672003 2.36642571 0 0.599649673"></polygon>
        <linearGradient x1="54.2390154%" y1="44.3767488%" x2="45.7497919%" y2="55.621487%" id="linearGradient-8">
            <stop stop-color="#424242" offset="0%"></stop>
            <stop stop-color="#696969" offset="100%"></stop>
        </linearGradient>
        <polygon id="path-9" points="0 0 3.07672003 1.76677603 3.07672003 2.36642571 0 0.599649673"></polygon>
        <linearGradient x1="54.2390154%" y1="44.3802192%" x2="45.7497919%" y2="55.6249573%" id="linearGradient-11">
            <stop stop-color="#424242" offset="0%"></stop>
            <stop stop-color="#696969" offset="100%"></stop>
        </linearGradient>
        <polygon id="path-12" points="0 0 3.07672003 1.7660915 3.07672003 2.36574117 0 0.599649673"></polygon>
        <linearGradient x1="54.2390154%" y1="44.3783925%" x2="45.7497919%" y2="55.6198779%" id="linearGradient-14">
            <stop stop-color="#424242" offset="0%"></stop>
            <stop stop-color="#696969" offset="100%"></stop>
        </linearGradient>
        <polygon id="path-15" points="0 0 3.07672003 1.7660915 3.07672003 2.36574117 0 0.599649673"></polygon>
        <linearGradient x1="54.2390154%" y1="44.3817969%" x2="45.7497919%" y2="55.6232823%" id="linearGradient-17">
            <stop stop-color="#424242" offset="0%"></stop>
            <stop stop-color="#696969" offset="100%"></stop>
        </linearGradient>
        <polygon id="path-18" points="0 0 3.07672003 1.76677603 3.07672003 2.36642571 0 0.599649673"></polygon>
        <linearGradient x1="54.2390154%" y1="44.376783%" x2="45.7497919%" y2="55.6215212%" id="linearGradient-20">
            <stop stop-color="#424242" offset="0%"></stop>
            <stop stop-color="#696969" offset="100%"></stop>
        </linearGradient>
        <polygon id="path-21" points="0 0 3.07672003 1.76677603 3.07672003 2.36642571 0 0.599649673"></polygon>
        <linearGradient x1="54.2395077%" y1="44.3803851%" x2="45.7493153%" y2="55.6264068%" id="linearGradient-23">
            <stop stop-color="#424242" offset="0%"></stop>
            <stop stop-color="#696969" offset="100%"></stop>
        </linearGradient>
        <polygon id="path-24" points="0 0 3.07672003 1.7660915 3.07672003 2.36574117 0 0.599649673"></polygon>
        <linearGradient x1="54.2395077%" y1="44.3786234%" x2="45.7493153%" y2="55.6213919%" id="linearGradient-26">
            <stop stop-color="#424242" offset="0%"></stop>
            <stop stop-color="#696969" offset="100%"></stop>
        </linearGradient>
        <polygon id="path-27" points="0 0 3.07672003 1.7660915 3.07672003 2.36574117 0 0.599649673"></polygon>
        <linearGradient x1="54.2390154%" y1="44.3835281%" x2="45.7497919%" y2="55.6250136%" id="linearGradient-29">
            <stop stop-color="#424242" offset="0%"></stop>
            <stop stop-color="#696969" offset="100%"></stop>
        </linearGradient>
        <polygon id="path-30" points="0 0 3.07672003 1.76677603 3.07672003 2.36642571 0 0.599649673"></polygon>
        <polygon id="path-32" points="0 0 3.07672003 1.76677603 3.07672003 2.36642571 0 0.599649673"></polygon>
        <polygon id="path-34" points="0 0 3.07672003 1.7660915 3.07672003 2.36574117 0 0.599649673"></polygon>
        <polygon id="path-36" points="0 0 3.07672003 1.7660915 3.07672003 2.36574117 0 0.599649673"></polygon>
        <polygon id="path-38" points="0 0 3.07672003 1.76677603 3.07672003 2.36642571 0 0.599649673"></polygon>
        <polygon id="path-40" points="0 0 3.07672003 1.76677603 3.07672003 2.36642571 0 0.599649673"></polygon>
        <polygon id="path-42" points="0 0 3.07672003 1.7660915 3.07672003 2.36574117 0 0.599649673"></polygon>
        <polygon id="path-44" points="0 0 3.07672003 1.7660915 3.07672003 2.36574117 0 0.599649673"></polygon>
    </defs>
    <g id="能源云系统V1.0" stroke="none" stroke-width="1" fill="none" fill-rule="evenodd">
        <g id="1.站控系统（站点）首页" transform="translate(-1276.000000, -654.000000)">
            <g id="content" transform="translate(440.000000, 336.000000)">
                <g id="img_充电桩120KW_def" transform="translate(836.410283, 318.369058)">
                    <g id="充电线2" transform="translate(4.357075, 25.470267) scale(-1, 1) translate(-4.357075, -25.470267) translate(0.000000, 13.571861)">
                        <path d="M6.53240514,1.71387924 C8.27389069,4.29961372 8.41535572,8.38744643 6.95680023,13.9773774 C4.76896701,22.3622738 7.70087563,20.6396953 8.63235207,22.2656761 C9.56382851,23.8916569 2.25677748,24.4191429 1.08341722,22.8756659 C-0.399180461,20.9254077 -0.36013728,19.431047 1.20054676,18.3925835" id="路径-2" stroke="#6C727C" stroke-width="0.6"></path>
                        <g id="充电线备份" transform="translate(5.116098, 1.054717) scale(-1, 1) translate(-5.116098, -1.054717) translate(3.275396, 0.000000)" fill="#FFEF75">
                            <path d="M3.55407266,0.749949374 C3.61437893,0.807938317 3.6623778,0.870862489 3.67714669,0.93872189 C3.71160741,1.0929478 3.52822712,1.30516265 3.43838308,1.41867293 C3.21192688,1.70368241 2.8390126,2.00226377 2.45132943,1.87271401 C2.30117912,1.82212791 2.17072066,1.72959236 2.03780071,1.64445966 C1.74488454,1.45568714 1.47658317,1.38782774 1.17505182,1.61114686 C1.01013263,1.73329378 0.706139796,2.09726693 0.706139796,2.09726693 C0.493221738,2.1589573 0.233535552,1.9726524 0.0944619067,1.83940121 C-0.038458037,1.71355287 -0.016304713,1.57166503 0.0698471023,1.42237435 C0.0698471023,1.42237435 0.325841068,1.1274944 0.452607311,0.980671337 C0.659371667,0.741312723 0.862443804,0.505655531 1.11966851,0.321818245 C1.17874404,0.279868797 1.24643475,0.242854578 1.31781768,0.246556 C1.34981693,0.249023615 1.3793547,0.258894073 1.4101232,0.266296917 C1.56273499,0.300843521 1.67473235,0.246556 1.81749821,0.209541781 C1.95041816,0.174995177 2.01687813,0.119473849 2.13749067,0.050380641 C2.34548577,-0.0692986661 2.55840383,0.0479130264 2.74055338,0.156488068 C2.93131811,0.269998339 3.102391,0.406950948 3.27961759,0.540202135 C3.35592349,0.59695727 3.46792085,0.667284286 3.55407266,0.749949374" id="Fill-288"></path>
                        </g>
                    </g>
                    <g id="充电线1" transform="translate(31.255626, 43.915252) scale(-1, 1) translate(-31.255626, -43.915252) translate(4.872498, 24.786500)">
                        <path d="M3.55407266,11.7760197 C3.61437893,11.8340086 3.6623778,11.8969328 3.67714669,11.9647922 C3.71160741,12.1190181 3.52822712,12.331233 3.43838308,12.4447432 C3.21192688,12.7297527 2.8390126,13.0283341 2.45132943,12.8987843 C2.30117912,12.8481982 2.17072066,12.7556627 2.03780071,12.67053 C1.74488454,12.4817574 1.47658317,12.413898 1.17505182,12.6372172 C1.01013263,12.7593641 0.706139796,13.1233372 0.706139796,13.1233372 C0.493221738,13.1850276 0.233535552,12.9987227 0.0944619067,12.8654715 C-0.038458037,12.7396232 -0.016304713,12.5977353 0.0698471023,12.4484446 C0.0698471023,12.4484446 0.325841068,12.1535647 0.452607311,12.0067416 C0.659371667,11.767383 0.862443804,11.5317258 1.11966851,11.3478885 C1.17874404,11.3059391 1.24643475,11.2689249 1.31781768,11.2726263 C1.34981693,11.2750939 1.3793547,11.2849644 1.4101232,11.2923672 C1.56273499,11.3269138 1.67473235,11.2726263 1.81749821,11.2356121 C1.95041816,11.2010655 2.01687813,11.1455442 2.13749067,11.0764509 C2.34548577,10.9567716 2.55840383,11.0739833 2.74055338,11.1825584 C2.93131811,11.2960686 3.102391,11.4330212 3.27961759,11.5662724 C3.35592349,11.6230276 3.46792085,11.6933546 3.55407266,11.7760197" id="Fill-288" fill="#FFEF75" transform="translate(1.840702, 12.080787) scale(-1, 1) translate(-1.840702, -12.080787) "></path>
                        <g id="充电线备份" transform="translate(1.840702, 12.080787) scale(-1, 1) translate(-1.840702, -12.080787) translate(0.000000, 11.026070)" fill="#FFEF75">
                            <path d="M3.55407266,0.749949374 C3.61437893,0.807938317 3.6623778,0.870862489 3.67714669,0.93872189 C3.71160741,1.0929478 3.52822712,1.30516265 3.43838308,1.41867293 C3.21192688,1.70368241 2.8390126,2.00226377 2.45132943,1.87271401 C2.30117912,1.82212791 2.17072066,1.72959236 2.03780071,1.64445966 C1.74488454,1.45568714 1.47658317,1.38782774 1.17505182,1.61114686 C1.01013263,1.73329378 0.706139796,2.09726693 0.706139796,2.09726693 C0.493221738,2.1589573 0.233535552,1.9726524 0.0944619067,1.83940121 C-0.038458037,1.71355287 -0.016304713,1.57166503 0.0698471023,1.42237435 C0.0698471023,1.42237435 0.325841068,1.1274944 0.452607311,0.980671337 C0.659371667,0.741312723 0.862443804,0.505655531 1.11966851,0.321818245 C1.17874404,0.279868797 1.24643475,0.242854578 1.31781768,0.246556 C1.34981693,0.249023615 1.3793547,0.258894073 1.4101232,0.266296917 C1.56273499,0.300843521 1.67473235,0.246556 1.81749821,0.209541781 C1.95041816,0.174995177 2.01687813,0.119473849 2.13749067,0.050380641 C2.34548577,-0.0692986661 2.55840383,0.0479130264 2.74055338,0.156488068 C2.93131811,0.269998339 3.102391,0.406950948 3.27961759,0.540202135 C3.35592349,0.59695727 3.46792085,0.667284286 3.55407266,0.749949374" id="Fill-288"></path>
                        </g>
                        <path d="M3.36610668,12.9334131 C5.69440739,15.6711975 6.52878428,19.8388516 5.86923732,25.4363753 C3.6814041,33.8212717 10.5460148,35.7317921 19.9952446,32.5576144 C29.4444744,29.3834367 32.4951148,33.2955754 31.546317,36.2324197 C30.5975192,39.1692641 24.8687452,39.1264705 24.3240498,34.6801291 C23.7793543,30.2337877 23.8343812,22.3161475 31.7479129,16.7761882 C39.6614445,11.2362289 41.0276035,3.19114911 41.0276035,0" id="路径-2备份" stroke="#6C727C" stroke-width="0.6"></path>
                    </g>
                    <g id="充电桩一拖二" transform="translate(1.910632, 0.000000)">
                        <polygon id="投影" fill="#232327" opacity="0.400000006" transform="translate(11.990104, 41.455711) scale(-1, 1) translate(-11.990104, -41.455711) " points="9.37515873e-15 43.1213322 15.1849719 34.3227041 23.9802081 39.7900905 8.79523623 48.5887187"></polygon>
                        <g transform="translate(11.494149, 23.497421) scale(-1, 1) translate(-11.494149, -23.497421) translate(1.494149, 0.000000)">
                            <g id="正视图备份" transform="translate(7.309177, 4.260991)">
                                <polygon id="矩形" fill="#DEDEDE" points="3.64356844e-15 7.33178815 12.6908226 0 12.6908226 35.4020628 0 42.7338509"></polygon>
                                <polygon id="矩形备份-78" fill="#3F3F3F" points="1.82178422e-15 40.5343145 12.6908226 33.2025263 12.6908226 35.4020628 0 42.7338509"></polygon>
                                <path d="M6.34541131,6.38912967 C7.59700914,5.66605203 8.61162964,6.25222227 8.61162964,7.69837755 L8.61162964,17.8581411 C8.61162964,19.3042964 7.59700914,21.0628071 6.34541131,21.7858848 C6.22025153,21.8581925 6.09746152,21.9174078 5.97781893,21.9639799 L5.90641729,21.9904095 C4.86491511,22.3558978 4.07919299,21.7492535 4.07919299,20.4766369 L4.07919299,10.3168733 C4.07919299,8.87071804 5.09381349,7.11220731 6.34541131,6.38912967 Z" id="矩形" fill="#272727"></path>
                                <polygon id="矩形" fill="#777777" points="4.98568032 11.154792 7.70514231 9.58369451 7.70514231 11.4690115 4.98568032 13.0401089"></polygon>
                                <g id="编组-54" transform="translate(4.713734, 7.411751)">
                                    <g id="椭圆形">
                                        <use fill="#35E139" xlink:href="#path-1"></use>
                                        <use fill="#22FFFF" xlink:href="#path-1"></use>
                                    </g>
                                    <g id="椭圆形备份-68">
                                        <use fill="#35E139" xlink:href="#path-2"></use>
                                        <use fill="#22FFFF" xlink:href="#path-2"></use>
                                    </g>
                                    <g id="椭圆形备份-69">
                                        <use fill="#35E139" xlink:href="#path-3"></use>
                                        <use fill="#22FFFF" xlink:href="#path-3"></use>
                                    </g>
                                    <g id="椭圆形备份-70">
                                        <use fill="#35E139" xlink:href="#path-4"></use>
                                        <use fill="#22FFFF" xlink:href="#path-4"></use>
                                    </g>
                                </g>
                                <g id="刷卡" transform="translate(5.620221, 13.287335)" fill-rule="nonzero">
                                    <path d="M1.02186676,1.5099411 L0.874626032,1.49096741 C0.812421947,1.47139447 0.803786556,1.38835107 0.849598035,1.28934747 C0.872576956,1.23963312 0.921169324,1.16899136 1.00035147,1.15168192 L1.01162138,1.15317396 L0.917802986,0.80007683 C0.912680296,0.780049179 0.893067714,0.777928092 0.874040582,0.795050422 L0.494229754,1.13690397 C0.475202622,1.1540263 0.463932706,1.18403517 0.469055395,1.20406282 L0.629761479,1.81854222 C0.634884169,1.83856987 0.654496751,1.84069096 0.673523883,1.82356863 L1.02186676,1.5099411 Z M1.22238346,0.976242566 L1.02113495,0.980297243 L1.0823145,1.22301174 L0.994789689,1.21159673 C0.956149975,1.2065055 0.906825794,1.25083684 0.884725048,1.31060091 C0.86432436,1.36576775 0.874228515,1.41474351 0.906264127,1.4259562 L0.915665836,1.42807191 L1.10661068,1.45127685 C1.12915051,1.45392037 1.14554312,1.46982098 1.15212943,1.49547351 L1.15754485,1.5170348 L1.37313689,1.32300991 L1.30229742,1.04296683 C1.29253991,1.00471081 1.26832685,0.981129421 1.23520916,0.976908667 L1.22238346,0.976242566 Z M0.396605931,1.1161689 C0.321375578,1.07210981 0.321375578,0.929759759 0.396605931,0.798946239 L0.42865933,0.817718497 C0.371138846,0.917867586 0.371138846,1.0268437 0.42865933,1.06053091 L0.396605931,1.1161689 Z M0.276295911,1.32564104 C0.134763322,1.24275166 0.134763322,0.974738528 0.276295911,0.728315706 L0.308349311,0.747087964 C0.184380227,0.962930912 0.184380227,1.19739984 0.308349311,1.26983277 L0.276295911,1.32564104 Z M0.155985892,1.53511318 C-0.0519952973,1.41347807 -0.0519952973,1.01997213 0.155985892,0.657855448 L0.188039291,0.676627707 C-0.00223202895,1.00790968 -0.00223202895,1.36804169 0.188039291,1.47947519 L0.155985892,1.53511318 Z M1.0537738,0.736507494 L1.0217204,0.717735235 C1.07924088,0.617586146 1.07924088,0.50861003 1.0217204,0.474922827 L1.0537738,0.419114556 C1.12900415,0.463173647 1.12900415,0.605523698 1.0537738,0.736507494 Z M1.17408382,0.806967751 L1.14203042,0.788195493 C1.20203907,0.683714255 1.235117,0.571804375 1.235117,0.47304477 C1.235117,0.374285165 1.20203907,0.300595097 1.14203042,0.265450687 L1.17408382,0.209642416 C1.24258149,0.249758475 1.28048939,0.333939622 1.28048939,0.446832067 C1.28048939,0.559724512 1.24272786,0.687621684 1.17408382,0.806967751 Z M1.29439384,0.877428009 L1.26234044,0.858655751 C1.45261176,0.527373777 1.45261176,0.167241768 1.26234044,0.055808271 L1.29439384,0 C1.50237503,0.12197566 1.50237503,0.515481604 1.29439384,0.877428009 Z" id="形状" fill="#FFFFFF"></path>
                                    <g id="按钮" transform="translate(0.000000, 5.466822)">
                                        <path d="M0.725189865,0.0990125573 C0.324884249,0.330278571 0,0.893360145 0,1.35589217 C0,1.8184242 0.324884249,2.00611586 0.725188438,1.77485067 C1.12549405,1.54358466 1.45037973,0.98050226 1.45037973,0.517973528 C1.45037973,0.0554414997 1.12549405,-0.132252633 0.725189865,0.0990125573 Z M0.725189865,1.60894248 C0.403205285,1.79496058 0.142136592,1.64581106 0.142136592,1.27377486 C0.142136592,0.901738656 0.403206711,0.449262818 0.725189865,0.263245541 C1.04717444,0.0772274405 1.30824171,0.22805217 1.30824171,0.600088372 C1.30682654,0.963868096 1.0596851,1.40102088 0.748635566,1.5948653 L0.725189865,1.60894248 Z" id="形状" fill="#CCCFD8"></path>
                                        <path d="M0.335038085,1.16400556 C0.335038085,1.41853002 0.51361096,1.52169579 0.733893153,1.39443356 C0.947068088,1.27127736 1.12118256,0.97745278 1.13219393,0.727945435 L1.13274679,0.703150387 C1.13274679,0.448627578 0.954173919,0.345461808 0.733893153,0.472723212 C0.513612387,0.599984617 0.335038085,0.90948275 0.335038085,1.16400556 Z" id="路径" fill="#DA4648"></path>
                                    </g>
                                </g>
                                <g id="LOGO备份-22" transform="translate(6.300087, 5.215674) rotate(-1.000000) translate(-6.300087, -5.215674) translate(4.804383, 4.137513)" fill="#C92128" fill-rule="nonzero">
                                    <g id="编组-7" transform="translate(-0.000000, -0.000000)">
                                        <g id="组_4" transform="translate(0.839694, 1.002648)">
                                            <path d="M0.219797315,0.318666362 C0.28173309,0.319684684 0.356032353,0.288130891 0.421400207,0.23304861 C0.486768061,0.177966329 0.535988216,0.105436372 0.554953694,0.0362465371 C0.419958641,0.0869227 0.284666769,0.186867815 0.180338685,0.312988513 L0.199356747,0.317059934 L0.219797315,0.318666362 Z" id="路径_10"></path>
                                            <path d="M0.0540097669,0.512409839 L0.0572684109,0.513540713 C0.165686419,0.554682332 0.322168761,0.51443886 0.466836171,0.408209797 C0.611503582,0.301980734 0.721961027,0.14621072 0.75594105,0.000506439974 C0.717523123,-0.0015111543 0.676192731,0.00250567952 0.633064359,0.0124486266 C0.626607029,0.0377864038 0.617020433,0.0638082855 0.604527026,0.0899104352 C0.564802272,0.172601449 0.497768896,0.25157283 0.418348755,0.309245281 C0.314902427,0.38472613 0.203283315,0.414940313 0.123376942,0.389091215 C0.096118814,0.429522656 0.0728200084,0.470942487 0.0540097669,0.512409839 Z" id="路径_11"></path>
                                            <path d="M0.78835004,0.114921392 C0.779245646,0.133743651 0.769216506,0.152529692 0.758313341,0.171188781 L0.736615033,0.207112778 L0.736615033,0.207112778 L0.735985889,0.213385563 C0.733304536,0.262870454 0.713263941,0.358676217 0.620983582,0.502321764 L0.598380772,0.536320655 C0.489764681,0.694462099 0.468551231,0.799822303 0.520011996,0.931530299 C0.571439197,0.905469431 0.622251528,0.872641677 0.670619425,0.834229042 C0.636884114,0.783249686 0.638003703,0.70610561 0.673684486,0.623034201 C0.683654001,0.598390259 0.698954787,0.572624229 0.716172042,0.546736007 L0.752150054,0.495092904 C0.775118978,0.464518454 0.795587349,0.432981186 0.813193168,0.401038863 C0.835712725,0.357231334 0.851659447,0.313472709 0.860430591,0.271606442 L0.870493681,0.213218143 C0.880647692,0.165201436 0.898408806,0.115249332 0.923132074,0.0651757098 C0.897093322,0.0411416692 0.865188537,0.0234232553 0.828421682,0.012578021 C0.821683614,0.0350477003 0.813470146,0.057778507 0.803843089,0.0806125757 L0.78835004,0.114921392 Z" id="路径_12"></path>
                                            <path d="M0.969930719,0.127081808 C0.962207927,0.147634257 0.956267761,0.167934172 0.952185628,0.187723858 L0.947668696,0.21350646 C0.939659335,0.273993928 0.918383704,0.338680327 0.885189843,0.403467083 C0.871401619,0.429129774 0.855963901,0.454588701 0.839022095,0.47961714 L0.812499496,0.516808592 C0.787671859,0.548952788 0.766511316,0.582576992 0.7497464,0.61652356 C0.723582972,0.675835222 0.722161001,0.731203535 0.745858612,0.767905156 C0.950087399,0.569342125 1.04554331,0.311702855 0.979028047,0.147168953 L0.969930719,0.127081808 Z" id="路径_13"></path>
                                            <path d="M0.200245451,0.877464523 C0.216587067,0.823063724 0.211166748,0.807393927 0.206472365,0.802846144 C0.195579478,0.797645083 0.180530273,0.798571972 0.164529422,0.805429433 C0.111175287,0.822343646 0.059784122,0.830511316 0.0124862533,0.82959387 C0.0382325833,0.916847272 0.102312468,0.974983848 0.19379269,0.99408442 C0.187825424,0.966665986 0.188042863,0.93568343 0.194362679,0.902624651 L0.200245451,0.877464523 Z" id="路径_14"></path>
                                            <path d="M1.24622356e-12,0.740182252 L0.00635613083,0.741410736 C0.04880877,0.749357522 0.096952446,0.747017899 0.148072741,0.734634046 L0.179080397,0.726000364 C0.226572714,0.710915856 0.258804252,0.712420523 0.277759236,0.730612953 C0.299698622,0.751915495 0.300343898,0.793490156 0.280114494,0.861283744 C0.264498813,0.91319261 0.277759236,0.962092735 0.292213419,1 C0.336969572,0.996871494 0.384534475,0.986418972 0.433335291,0.968988069 C0.386769135,0.833445317 0.410266114,0.711869135 0.51615921,0.548048167 L0.536982756,0.516822956 C0.565434395,0.476414322 0.589840609,0.434872584 0.609648083,0.393203678 L0.627902151,0.35152964 C0.629160439,0.348301871 0.62907978,0.346988641 0.627627909,0.346965078 L0.624817573,0.348296775 L0.622304381,0.350596317 C0.540682596,0.436651836 0.445013637,0.507062586 0.34728773,0.553003963 C0.239741676,0.603798141 0.135413302,0.622674393 0.0493966329,0.607407207 L0.0209716333,0.600951513 C0.0105126356,0.636673216 0.0039236628,0.671449543 0.00129930969,0.704664895 L1.24622356e-12,0.740182252 Z" id="路径_15"></path>
                                        </g>
                                        <g id="组_5" transform="translate(0.000000, -0.000000)">
                                            <path d="M0.765827239,1.28899337 C0.764983864,1.28729892 0.763045694,1.28695628 0.760851281,1.2881137 L0.742640792,1.29834944 L0.616037684,1.37149105 C0.610279272,1.37515677 0.604803146,1.38077332 0.600523293,1.38740328 L0.388818074,1.73797592 C0.387066475,1.7407591 0.38470828,1.74302836 0.382309597,1.74423895 C0.380484236,1.74502048 0.378782297,1.74512936 0.3774377,1.74455063 L0.165704101,1.6386086 C0.161429685,1.63691143 0.155950379,1.63762266 0.15018971,1.64062243 L0.0053477322,1.72458595 C0.00315331934,1.72596407 0.00121514968,1.72854616 0.000371775039,1.73121508 C-0.000422864508,1.73386677 0.000184940145,1.73575148 0.000991404686,1.73697327 L0.00280299365,1.73875392 L0.278401017,1.88508567 C0.282221588,1.88753046 0.284477203,1.89212567 0.284805433,1.89813296 L0.284805433,2.15046125 C0.284805433,2.15587258 0.288884108,2.15790297 0.293915408,2.15499627 L0.470968667,2.05270842 C0.475993499,2.0497887 0.480063061,2.04306067 0.480078642,2.0376473 L0.480078642,1.78531901 C0.480388564,1.77894803 0.482627905,1.77175496 0.486435758,1.76489908 L0.76340548,1.29933589 C0.76343386,1.29931949 0.767416518,1.29246043 0.765827239,1.28899337 Z" id="路径_16"></path>
                                            <path d="M2.79655805,0.111752902 L2.98955667,0.000253038619 C2.99057924,-0.000337723424 2.99140819,0.000141183835 2.99140819,0.00132270792 L2.99140819,0.595214696 C2.99140819,0.59639622 2.99057924,0.597832942 2.98955667,0.598423704 L2.79655805,0.709923567 C2.79553548,0.710514329 2.79470652,0.710035422 2.79470652,0.708853898 L2.79470652,0.11496191 C2.79470652,0.113780386 2.79553548,0.112343664 2.79655805,0.111752902 Z" id="矩形_2"></path>
                                            <path d="M2.11306661,0.59318694 L2.11306661,0.516532047 C2.11306661,0.511061235 2.10893919,0.509006568 2.10385258,0.511945222 L1.53096476,0.842916051 C1.52587815,0.845854705 1.52175073,0.852678395 1.52175073,0.858149207 L1.52175073,0.934804099 C1.52175073,0.940274911 1.52587815,0.94232397 1.53096476,0.939390924 L1.71903892,0.830736041 L1.71903892,1.32189102 C1.71907011,1.32770042 1.72346851,1.32987275 1.72888677,1.32674249 L1.90594003,1.22445464 C1.91135829,1.22132438 1.91575669,1.21406994 1.91578788,1.20822449 L1.91578788,0.717069513 L2.10386204,0.60841463 C2.10767422,0.606203832 2.1109457,0.601818756 2.11234318,0.597458067 L2.11306661,0.59318694 Z" id="路径_17"></path>
                                            <path d="M2.69406164,0.752390891 L2.69077902,0.743095356 L2.48671748,0.296218842 C2.48540292,0.293796854 2.482534,0.293340807 2.47930084,0.295039887 L2.2733946,0.413996789 C2.27015059,0.416041842 2.26726853,0.419816585 2.26593066,0.423772602 L2.0612353,1.10863923 C2.06000183,1.11300157 2.05923487,1.11725764 2.05894813,1.12129302 C2.05889194,1.12416353 2.05960944,1.12654197 2.06101772,1.12812706 C2.06235335,1.12970206 2.06438678,1.13031994 2.06678832,1.12988051 C2.07029968,1.1288368 2.07390676,1.12728907 2.07753487,1.12526937 L2.21748603,1.04441628 L2.22833665,1.03751681 L2.22833665,1.03751681 L2.23061607,1.03551489 L2.23267878,1.03307509 C2.23380072,1.03168136 2.23476699,1.03013582 2.23551678,1.02853577 L2.24024678,1.01526233 L2.24024678,1.01526233 L2.24807966,0.989268838 L2.2524929,0.972757215 L2.26569264,0.927741078 L2.29507035,0.830926121 L2.31966343,0.751086956 L2.32008913,0.750668052 L2.36154283,0.613385207 L2.36641473,0.600090833 L2.36641473,0.600090833 C2.36950648,0.594577514 2.3741051,0.590067947 2.37871272,0.588030997 C2.38296488,0.585883147 2.38684031,0.586066862 2.38919439,0.588527882 L2.39185661,0.592122078 L2.39555889,0.599301261 L2.51637456,0.863428726 C2.51730916,0.865503665 2.51915066,0.866562629 2.52151134,0.866382664 C2.52297789,0.866666265 2.52469265,0.866376853 2.5264873,0.865542841 L2.53739467,0.859587328 L2.67289017,0.781308374 L2.68374079,0.774022265 L2.68374079,0.774022265 C2.68699919,0.771308325 2.68985058,0.767548753 2.69173448,0.763482543 C2.69366186,0.759570452 2.69449689,0.755590547 2.69406164,0.752390891 Z" id="路径_18"></path>
                                        </g>
                                    </g>
                                </g>
                                <g id="LOGO备份-23" transform="translate(5.127867, 27.066989)" fill="#C92128" fill-rule="nonzero">
                                    <g id="组_4">
                                        <path d="M0.507191101,0.888982666 C0.65011038,0.893582685 0.821558902,0.806202763 0.972397841,0.651886842 C1.12323678,0.497570922 1.23681426,0.293354722 1.28057786,0.0977686056 C0.969071372,0.237669363 0.656879961,0.517209257 0.416138732,0.871797657 C0.43720026,0.879556219 0.45962844,0.884735126 0.483219694,0.887295954 L0.507191101,0.888982666 Z" id="路径_10"></path>
                                        <path d="M0.124629698,1.43353977 L0.13214915,1.43683527 C0.382328042,1.55644642 0.743417308,1.44671049 1.07724315,1.14961886 C1.41106899,0.852527226 1.66595396,0.414070737 1.74436423,0.00202840055 C1.65571332,-0.00475323003 1.56034179,0.00548846789 1.46082134,0.0324773246 C1.4459208,0.10411576 1.42379934,0.17760663 1.39497031,0.251244583 C1.30330385,0.484523895 1.14862165,0.706504722 0.965356493,0.867773377 C0.726649953,1.07885317 0.469084384,1.16140352 0.284697231,1.08592621 C0.22179801,1.19977041 0.168035084,1.31652565 0.124629698,1.43353977 Z" id="路径_11"></path>
                                        <path d="M1.81914927,0.327221545 C1.78763613,0.406868071 1.75132176,0.486226049 1.71060114,0.56443226 C1.70627746,0.571800753 1.70262911,0.579433933 1.69976867,0.58709629 L1.69847083,0.596245732 L1.69847083,0.596245732 L1.697418,0.62161429 L1.69438067,0.658613025 L1.6891366,0.702184139 C1.68806464,0.709868907 1.68688826,0.717765254 1.68559925,0.725873359 L1.67644835,0.77706453 C1.67290392,0.794976248 1.66884353,0.81373644 1.66420169,0.833346548 L1.64846634,0.894728059 C1.60737475,1.04390772 1.53458301,1.23480386 1.40762741,1.4679108 L1.38078758,1.5163745 C1.1301516,1.96160349 1.08120072,2.25964828 1.19994849,2.63438377 C1.31861882,2.56194009 1.4358703,2.4702994 1.54748116,2.36276136 C1.46963558,2.21733264 1.47221908,1.99870734 1.55455391,1.76423795 C1.58437528,1.67404858 1.63486893,1.57876273 1.68887052,1.48434803 L1.73561635,1.40377368 C1.78861806,1.31774934 1.83584965,1.2289268 1.87647578,1.13887699 C1.94143175,0.98444641 1.98268916,0.829948254 1.9975315,0.685555151 L2.008699,0.608105552 C2.03212979,0.472288503 2.07311427,0.331196266 2.1301642,0.189952237 C2.07007874,0.121109964 1.99645717,0.0700063235 1.91161618,0.0382494152 C1.89295815,0.114451052 1.86939757,0.191659701 1.84118092,0.269105121 L1.81914927,0.327221545 Z" id="路径_12"></path>
                                        <path d="M2.23815395,0.366713039 C2.2203333,0.42475298 2.20662613,0.482126468 2.19720644,0.538105176 L2.18678344,0.611058109 L2.18678344,0.611058109 C2.16830152,0.782281479 2.11920715,0.965039186 2.04261099,1.14775158 C1.99488567,1.25628638 1.93859624,1.363419 1.8748751,1.46699418 C1.81758434,1.55741636 1.76875554,1.65213493 1.73006982,1.74788882 C1.66969666,1.91527719 1.66641541,2.07217316 1.7210986,2.1768555 C2.20237525,1.60786657 2.42187757,0.861104538 2.24885828,0.394418947 L2.23815395,0.366713039 Z" id="路径_13"></path>
                                        <path d="M0.462074392,2.47229275 C0.471501625,2.43385754 0.477790324,2.40224586 0.481751298,2.37624472 L0.486048314,2.34129927 L0.486048314,2.34129927 L0.487461847,2.31385987 C0.487490929,2.3098616 0.487425203,2.30613817 0.487277339,2.30267063 L0.485505843,2.2847845 C0.484228615,2.27722516 0.482440179,2.27162769 0.480482594,2.26748035 L0.476443245,2.26096757 C0.451307473,2.24592435 0.41658083,2.24813511 0.379658225,2.2671291 C0.256541424,2.31359429 0.137954254,2.3353227 0.0288125291,2.33141362 C0.0882232159,2.57943603 0.236090115,2.74599069 0.447184389,2.8026603 C0.431884716,2.71612741 0.434204123,2.61733405 0.453882013,2.51206211 L0.462074392,2.47229275 Z" id="路径_14"></path>
                                        <path d="M0.0146670262,2.08129874 C0.121533751,2.10715209 0.244028991,2.09849516 0.374020856,2.05612163 L0.413235182,2.04239887 C0.522825604,2.00095758 0.597201169,2.0061142 0.640940553,2.05820308 C0.691566563,2.1191898 0.693055563,2.23704639 0.646375404,2.42864003 C0.610341597,2.57533785 0.640940553,2.7143067 0.67429416,2.82215055 C0.777570771,2.81452151 0.88732869,2.78621107 0.999938525,2.73815539 C0.889846895,2.34322149 0.949465546,1.99187707 1.20940152,1.51313782 L1.2391092,1.45941163 C1.32664693,1.30774958 1.39758913,1.15017892 1.44890934,0.993421805 C1.45181289,0.984307869 1.45162677,0.980583433 1.44827652,0.980476475 C1.44539417,0.981382329 1.44241052,0.983354882 1.43973153,0.98605887 L1.43599226,0.990621521 C1.24764673,1.2322779 1.02688678,1.42920226 0.801380335,1.55671399 C0.539426467,1.70554177 0.285745429,1.75366975 0.0813007786,1.69417033 L0.0483928831,1.68358714 C0.0208105337,1.79896976 0.00489216768,1.9109924 0.000963616105,2.01705442 L0,2.07764088 L0.0146670262,2.08129874 Z" id="路径_15"></path>
                                    </g>
                                </g>
                            </g>
                            <g id="侧视图" transform="translate(0.000000, 7.331788)">
                                <g id="矩形备份-80">
                                    <use fill="#CCCCCD" xlink:href="#path-5"></use>
                                    <use fill="#BCBEC0" xlink:href="#path-5"></use>
                                </g>
                                <g id="告警" transform="translate(1.281967, 29.376022)">
                                    <path d="M1.28196668,2.75285657 C0.575616697,2.34616401 0,1.44197034 0,0.73755548 C0,0.0331406157 0.575616697,-0.209447929 1.28196668,0.197244631 C1.98896707,0.604585823 2.56393335,1.50942812 2.56393335,2.21384299 C2.56393335,2.91825785 1.98896707,3.15954913 1.28196668,2.75285657" id="Fill-1324" fill="#363633"></path>
                                    <path d="M2.45661499,2.15157427 C2.45661499,2.79826084 1.93042978,3.02009315 1.28196668,2.64648084 C0.633503574,2.27286854 0.107968782,1.44586214 0.107968782,0.799175565 C0.107968782,0.152488991 0.633503574,-0.0693433148 1.28196668,0.304268989 C1.93042978,0.677881293 2.45661499,1.50488769 2.45661499,2.15157427" id="Fill-1326" fill="#DBAC16"></path>
                                    <path d="M1.43260264,0.565862465 L1.11585085,0.392028962 C1.04170362,0.809748274 0.951296023,1.32216793 0.917474477,1.51091998 C1.11650127,1.50378502 1.24268165,1.49924459 1.4443101,1.49210963 L1.23032378,2.50592219 C1.60236078,1.45513758 1.57634421,1.52908169 1.64593855,1.33189741 C1.43195223,1.339681 1.57179131,1.33449194 1.12105417,1.35070776 L1.43260264,0.565862465 Z" id="Fill-1328" fill="#363633"></path>
                                </g>
                                <g id="通风口" transform="translate(1.281967, 2.950430)">
                                    <g id="编组">
                                        <g>
                                            <mask id="mask-7" fill="white">
                                                <use xlink:href="#path-6"></use>
                                            </mask>
                                            <g id="Clip-1297"></g>
                                            <polygon id="Fill-1296" fill="url(#linearGradient-8)" mask="url(#mask-7)" points="0 0.599649673 3.07672003 2.36642571 3.07672003 1.76677603 0 0"></polygon>
                                        </g>
                                        <g transform="translate(0.000000, 1.182871)">
                                            <mask id="mask-10" fill="white">
                                                <use xlink:href="#path-9"></use>
                                            </mask>
                                            <g id="Clip-1299"></g>
                                            <polygon id="Fill-1298" fill="url(#linearGradient-11)" mask="url(#mask-10)" points="0 0.599649673 3.07672003 2.36642571 3.07672003 1.76677603 0 0"></polygon>
                                        </g>
                                        <g transform="translate(0.000000, 2.366426)">
                                            <mask id="mask-13" fill="white">
                                                <use xlink:href="#path-12"></use>
                                            </mask>
                                            <g id="Clip-1301"></g>
                                            <polygon id="Fill-1300" fill="url(#linearGradient-14)" mask="url(#mask-13)" points="0 0.599649673 3.07672003 2.36574117 3.07672003 1.7660915 0 0"></polygon>
                                        </g>
                                        <g transform="translate(0.000000, 3.549296)">
                                            <mask id="mask-16" fill="white">
                                                <use xlink:href="#path-15"></use>
                                            </mask>
                                            <g id="Clip-1303"></g>
                                            <polygon id="Fill-1302" fill="url(#linearGradient-17)" mask="url(#mask-16)" points="0 0.599649673 3.07672003 2.36574117 3.07672003 1.7660915 0 0"></polygon>
                                        </g>
                                        <g transform="translate(0.000000, 4.732167)">
                                            <mask id="mask-19" fill="white">
                                                <use xlink:href="#path-18"></use>
                                            </mask>
                                            <g id="Clip-1305"></g>
                                            <polygon id="Fill-1304" fill="url(#linearGradient-20)" mask="url(#mask-19)" points="0 0.599649673 3.07672003 2.36642571 3.07672003 1.76677603 0 0"></polygon>
                                        </g>
                                        <g transform="translate(0.000000, 5.915037)">
                                            <mask id="mask-22" fill="white">
                                                <use xlink:href="#path-21"></use>
                                            </mask>
                                            <g id="Clip-1307"></g>
                                            <polygon id="Fill-1306" fill="url(#linearGradient-23)" mask="url(#mask-22)" points="0 0.599649673 3.07672003 2.36642571 3.07672003 1.76677603 0 0"></polygon>
                                        </g>
                                        <g transform="translate(0.000000, 7.098593)">
                                            <mask id="mask-25" fill="white">
                                                <use xlink:href="#path-24"></use>
                                            </mask>
                                            <g id="Clip-1309"></g>
                                            <polygon id="Fill-1308" fill="url(#linearGradient-26)" mask="url(#mask-25)" points="0 0.599649673 3.07672003 2.36574117 3.07672003 1.7660915 0 0"></polygon>
                                        </g>
                                        <g transform="translate(0.000000, 8.281463)">
                                            <mask id="mask-28" fill="white">
                                                <use xlink:href="#path-27"></use>
                                            </mask>
                                            <g id="Clip-1311"></g>
                                            <polygon id="Fill-1310" fill="url(#linearGradient-29)" mask="url(#mask-28)" points="0 0.599649673 3.07672003 2.36574117 3.07672003 1.7660915 0 0"></polygon>
                                        </g>
                                    </g>
                                    <g id="编组备份-6" transform="translate(0.000000, 9.492688)">
                                        <g id="编组">
                                            <mask id="mask-31" fill="white">
                                                <use xlink:href="#path-30"></use>
                                            </mask>
                                            <g id="Clip-1297"></g>
                                            <polygon id="Fill-1296" fill="url(#linearGradient-8)" mask="url(#mask-31)" points="0 0.599649673 3.07672003 2.36642571 3.07672003 1.76677603 0 0"></polygon>
                                        </g>
                                        <g id="编组" transform="translate(0.000000, 1.182871)">
                                            <mask id="mask-33" fill="white">
                                                <use xlink:href="#path-32"></use>
                                            </mask>
                                            <g id="Clip-1299"></g>
                                            <polygon id="Fill-1298" fill="url(#linearGradient-11)" mask="url(#mask-33)" points="0 0.599649673 3.07672003 2.36642571 3.07672003 1.76677603 0 0"></polygon>
                                        </g>
                                        <g id="编组" transform="translate(0.000000, 2.366426)">
                                            <mask id="mask-35" fill="white">
                                                <use xlink:href="#path-34"></use>
                                            </mask>
                                            <g id="Clip-1301"></g>
                                            <polygon id="Fill-1300" fill="url(#linearGradient-14)" mask="url(#mask-35)" points="0 0.599649673 3.07672003 2.36574117 3.07672003 1.7660915 0 0"></polygon>
                                        </g>
                                        <g id="编组" transform="translate(0.000000, 3.549296)">
                                            <mask id="mask-37" fill="white">
                                                <use xlink:href="#path-36"></use>
                                            </mask>
                                            <g id="Clip-1303"></g>
                                            <polygon id="Fill-1302" fill="url(#linearGradient-17)" mask="url(#mask-37)" points="0 0.599649673 3.07672003 2.36574117 3.07672003 1.7660915 0 0"></polygon>
                                        </g>
                                        <g id="编组" transform="translate(0.000000, 4.732167)">
                                            <mask id="mask-39" fill="white">
                                                <use xlink:href="#path-38"></use>
                                            </mask>
                                            <g id="Clip-1305"></g>
                                            <polygon id="Fill-1304" fill="url(#linearGradient-20)" mask="url(#mask-39)" points="0 0.599649673 3.07672003 2.36642571 3.07672003 1.76677603 0 0"></polygon>
                                        </g>
                                        <g id="编组" transform="translate(0.000000, 5.915037)">
                                            <mask id="mask-41" fill="white">
                                                <use xlink:href="#path-40"></use>
                                            </mask>
                                            <g id="Clip-1307"></g>
                                            <polygon id="Fill-1306" fill="url(#linearGradient-23)" mask="url(#mask-41)" points="0 0.599649673 3.07672003 2.36642571 3.07672003 1.76677603 0 0"></polygon>
                                        </g>
                                        <g id="编组" transform="translate(0.000000, 7.098593)">
                                            <mask id="mask-43" fill="white">
                                                <use xlink:href="#path-42"></use>
                                            </mask>
                                            <g id="Clip-1309"></g>
                                            <polygon id="Fill-1308" fill="url(#linearGradient-26)" mask="url(#mask-43)" points="0 0.599649673 3.07672003 2.36574117 3.07672003 1.7660915 0 0"></polygon>
                                        </g>
                                        <g id="编组" transform="translate(0.000000, 8.281463)">
                                            <mask id="mask-45" fill="white">
                                                <use xlink:href="#path-44"></use>
                                            </mask>
                                            <g id="Clip-1311"></g>
                                            <polygon id="Fill-1310" fill="url(#linearGradient-29)" mask="url(#mask-45)" points="0 0.599649673 3.07672003 2.36574117 3.07672003 1.7660915 0 0"></polygon>
                                        </g>
                                    </g>
                                </g>
                                <polygon id="矩形备份-79" fill="#1E1E1E" points="2.07739315e-13 33.2025263 7.30917737 37.4635174 7.30917737 39.6630539 2.07739315e-13 35.4020628"></polygon>
                            </g>
                            <polygon id="矩形备份-82" fill="#F1F1F1" points="0 7.33178815 12.6908226 0 20 4.26099109 7.30917737 11.5927792"></polygon>
                        </g>
                    </g>
                </g>
            </g>
        </g>
    </g>
</svg>