<?xml version="1.0" encoding="UTF-8"?>
<svg width="29px" height="51px" viewBox="0 0 29 51" version="1.1" xmlns="http://www.w3.org/2000/svg" xmlns:xlink="http://www.w3.org/1999/xlink">
    <title>光伏并网计量柜</title>
    <defs>
        <path d="M0.0661093437,1.95056177 C0.0714147022,1.96140595 0.0905139929,1.96140595 0.128712574,1.93610288 L1.3988154,1.10351138 C1.43489184,1.07820831 1.45399113,1.05411015 1.45823542,1.03724144 C1.46354078,1.02398745 1.46141863,0.995069653 1.44338041,0.968561675 L0.825836683,0.120306375 C0.806737393,0.0950033047 0.785515959,0.0877738561 0.762172381,0.101027845 C0.742012019,0.11669165 0.719729513,0.154043801 0.701691294,0.202240125 L0.083086491,1.86019367 C0.0629261286,1.91441453 0.0618650569,1.94092251 0.0661093437,1.95056177" id="path-1"></path>
    </defs>
    <g id="能源云系统V1.0" stroke="none" stroke-width="1" fill="none" fill-rule="evenodd">
        <g id="1.站控系统（站点）首页" transform="translate(-1152.000000, -520.000000)">
            <g id="content" transform="translate(440.000000, 336.000000)">
                <g id="光伏并网计量柜" transform="translate(712.163572, 184.382298)">
                    <g id="基座" transform="translate(0.000000, 33.331167)">
                        <polygon id="投影" fill="#0C1218" opacity="0.300000012" points="15.8258386 16.8270604 1.16903494e-12 7.29760913 12.6296119 1.00850198e-12 28.5842111 9.34861837"></polygon>
                        <polygon id="Fill-1" fill="#E6E7E8" transform="translate(13.723630, 6.851722) scale(-1, 1) translate(-13.723630, -6.851722) " points="2.043463 8.05749149 11.6214208 13.7034434 25.4037964 5.51577843 15.7514492 2.11508299e-12"></polygon>
                        <polygon id="Fill-2" fill="#BCBEC0" transform="translate(20.614818, 11.824288) scale(-1, 1) translate(-20.614818, -11.824288) " points="15.8258386 9.94200105 25.4037964 15.5914328 25.4037964 13.7065752 15.8258386 8.05714352"></polygon>
                        <polygon id="Fill-3" fill="#A7A9AC" transform="translate(8.935343, 10.555172) scale(-1, 1) translate(-8.935343, -10.555172) " points="2.04415537 13.7048353 2.04415537 15.5931727 15.826531 7.41594705 15.826531 5.51717035"></polygon>
                    </g>
                    <g id="光伏并网计量柜" transform="translate(4.000000, 0.000000)">
                        <g id="并网计量柜备份" transform="translate(0.000000, 4.821717)">
                            <g id="编组-84">
                                <polygon id="矩形" fill="#DEDEDE" points="0 0 11.5637017 6.61240385 11.5637017 41.1732347 6.19727559e-15 34.5608308"></polygon>
                                <path d="M0.335456723,1.54487104 L11.228245,7.77363038 L11.228245,40.9508444 L0.335456723,34.7220851 L0.335456723,1.54487104 Z" id="矩形备份-99" stroke="#767779" stroke-width="0.1"></path>
                                <polygon id="矩形备份-101" fill="#767779" points="0.385456723 4.54051731 11.178245 10.7120942 11.178245 10.888425 0.385456723 4.71684808"></polygon>
                                <polygon id="矩形备份-102" fill="#767779" points="0.385456723 10.8002596 11.178245 16.9718366 11.178245 17.1481673 0.385456723 10.9765904"></polygon>
                                <polygon id="矩形备份-103" fill="#767779" points="0.385456723 22.8789173 11.178245 29.0504943 11.178245 29.226825 0.385456723 23.0552481"></polygon>
                                <polygon id="矩形备份-104" fill="#767779" points="0.385456723 32.7534404 11.178245 38.9250174 11.178245 39.1013481 0.385456723 32.9297712"></polygon>
                                <polygon id="矩形备份-105" fill="#767779" points="0.385456723 34.573959 11.178245 40.7455359 11.178245 40.9218667 0.385456723 34.7502898"></polygon>
                                <polygon id="矩形备份-83" fill="#3F3F3F" points="0 0 11.5637017 6.61240385 11.5637017 7.84671924 0 1.23431539"></polygon>
                                <polygon id="矩形备份-92" fill="#303033" points="2.54401437 34.3404174 8.94259598 37.9992808 8.94259598 38.0874462 2.54401437 34.4285827"></polygon>
                                <polygon id="矩形备份-93" fill="#303033" points="2.54401437 34.5167481 8.94259598 38.1756116 8.94259598 38.263777 2.54401437 34.6049135"></polygon>
                                <polygon id="矩形备份-94" fill="#303033" points="2.54401437 34.6930789 8.94259598 38.3519424 8.94259598 38.4401077 2.54401437 34.7812443"></polygon>
                                <polygon id="矩形备份-95" fill="#303033" points="2.54401437 34.8694097 8.94259598 38.5282731 8.94259598 38.6164385 2.54401437 34.957575"></polygon>
                                <polygon id="矩形备份-96" fill="#303033" points="2.54401437 35.0457404 8.94259598 38.7046039 8.94259598 38.7927693 2.54401437 35.1339058"></polygon>
                                <polygon id="矩形备份-97" fill="#303033" points="2.54401437 35.2220712 8.94259598 38.8809347 8.94259598 38.9691 2.54401437 35.3102366"></polygon>
                                <polygon id="矩形备份-98" fill="#303033" points="2.54401437 35.398402 8.94259598 39.0572654 8.94259598 39.1454308 2.54401437 35.4865674"></polygon>
                                <path d="M10.6386056,9.08103463 C10.7237583,9.12972702 10.7927882,9.09025404 10.7927882,8.99286924 C10.7927882,8.89548445 10.7237583,8.77706549 10.6386056,8.72837309 C10.5534528,8.67968069 10.4844229,8.71915368 10.4844229,8.81653847 C10.4844229,8.91392327 10.5534528,9.03234223 10.6386056,9.08103463 Z" id="椭圆形" fill="#474D4E"></path>
                                <path d="M10.6386056,12.2549885 C10.7237583,12.3036809 10.7927882,12.2642079 10.7927882,12.1668231 C10.7927882,12.0694383 10.7237583,11.9510193 10.6386056,11.9023269 C10.5534528,11.8536345 10.4844229,11.8931075 10.4844229,11.9904923 C10.4844229,12.0878771 10.5534528,12.2062961 10.6386056,12.2549885 Z" id="椭圆形备份-71" fill="#474D4E"></path>
                                <path d="M10.6386056,18.6028962 C10.7237583,18.6515886 10.7927882,18.6121156 10.7927882,18.5147308 C10.7927882,18.417346 10.7237583,18.298927 10.6386056,18.2502346 C10.5534528,18.2015422 10.4844229,18.2410152 10.4844229,18.3384 C10.4844229,18.4357848 10.5534528,18.5542038 10.6386056,18.6028962 Z" id="椭圆形备份-72" fill="#474D4E"></path>
                                <path d="M10.6386056,27.5957654 C10.7237583,27.6444578 10.7927882,27.6049848 10.7927882,27.5076 C10.7927882,27.4102152 10.7237583,27.2917963 10.6386056,27.2431039 C10.5534528,27.1944115 10.4844229,27.2338845 10.4844229,27.3312693 C10.4844229,27.4286541 10.5534528,27.547073 10.6386056,27.5957654 Z" id="椭圆形备份-73" fill="#474D4E"></path>
                                <path d="M10.6386056,30.5933885 C10.7237583,30.6420809 10.7927882,30.6026079 10.7927882,30.5052231 C10.7927882,30.4078383 10.7237583,30.2894194 10.6386056,30.240727 C10.5534528,30.1920346 10.4844229,30.2315076 10.4844229,30.3288923 C10.4844229,30.4262771 10.5534528,30.5446961 10.6386056,30.5933885 Z" id="椭圆形备份-74" fill="#474D4E"></path>
                                <path d="M10.6386056,37.3821231 C10.7237583,37.4308155 10.7927882,37.3913425 10.7927882,37.2939577 C10.7927882,37.1965729 10.7237583,37.078154 10.6386056,37.0294616 C10.5534528,36.9807692 10.4844229,37.0202422 10.4844229,37.117627 C10.4844229,37.2150118 10.5534528,37.3334307 10.6386056,37.3821231 Z" id="椭圆形备份-75" fill="#474D4E"></path>
                                <polygon id="矩形备份-84" fill="#35353F" points="5.0109374 5.06950962 6.55276429 5.95116347 6.55276429 7.00914809 5.0109374 6.12749424"></polygon>
                                <g id="编组-85" transform="translate(1.850192, 12.245424)">
                                    <path d="M0.462548068,0.979383694 L7.40076908,4.94682601 C7.65622733,5.0929032 7.86331715,5.44816008 7.86331715,5.74031447 L7.86331715,14.3805222 C7.86331715,14.6726766 7.65622733,14.7910955 7.40076908,14.6450183 L0.462548068,10.677576 C0.207089824,10.5314988 0,10.1762419 0,9.88408755 L0,1.24387985 C0,0.951725464 0.207089824,0.833306502 0.462548068,0.979383694 Z" id="矩形备份-85" fill="#38373E"></path>
                                    <polygon id="Fill-115" fill="#4E4D54" transform="translate(1.902650, 3.456855) scale(-1, 1) translate(-1.902650, -3.456855) " points="2.89654361e-14 2.8907642 0.901518273 2.3785458 3.80530026 3.63565675 3.80530026 4.53516432"></polygon>
                                    <polygon id="Fill-119" fill="#4E4D54" transform="translate(3.634337, 6.211229) scale(-1, 1) translate(-3.634337, -6.211229) " points="-2.63294699e-14 4.87104734 7.26867312 8.30778388 7.26867312 6.78116742 1.32253822 4.1146737"></polygon>
                                </g>
                                <path d="M0.661454533,1.28304461 C0.71973559,1.31637113 0.764834026,1.31359392 0.796749843,1.27629996 C0.825890371,1.24059298 0.840460635,1.17830414 0.840460635,1.09102041 C0.840460635,1.00294319 0.825890371,0.924784573 0.796749843,0.855751077 C0.764834026,0.781163161 0.71973559,0.72760269 0.661454533,0.694276175 C0.603173477,0.660949659 0.55807504,0.66293338 0.526159223,0.701020827 C0.497018695,0.735934319 0.482448431,0.797429675 0.482448431,0.886300383 C0.482448431,0.974377602 0.497018695,1.05253622 0.526159223,1.12156971 C0.55807504,1.19536414 0.603173477,1.2497181 0.661454533,1.28304461 Z M0.661454533,1.21004368 C0.620519029,1.18663577 0.592072323,1.14418413 0.575420593,1.08387901 C0.562931795,1.04103063 0.557381218,0.989453883 0.557381218,0.92914876 C0.557381218,0.868050148 0.562931795,0.822821306 0.575420593,0.795049209 C0.592072323,0.752994321 0.620519029,0.743869204 0.661454533,0.767277113 C0.701696215,0.790288279 0.730836743,0.832343167 0.747488474,0.893441779 C0.759283449,0.935099923 0.765527848,0.987073417 0.765527848,1.04817203 C0.765527848,1.10847715 0.759283449,1.15330925 0.747488474,1.18227158 C0.730836743,1.22353298 0.701696215,1.23305484 0.661454533,1.21004368 Z M0.933124432,1.43125063 C0.947000874,1.43918551 0.959489671,1.44077249 0.969897003,1.4364083 C0.979610512,1.43006039 0.985161089,1.41895155 0.985161089,1.40308179 C0.985161089,1.38562504 0.979610512,1.36816829 0.969897003,1.35150504 C0.959489671,1.33444503 0.947000874,1.32174922 0.933124432,1.31381433 C0.917860345,1.30508596 0.90606537,1.30389573 0.897045682,1.30984689 C0.886638351,1.31500457 0.881781596,1.32651015 0.881781596,1.34396689 C0.881781596,1.35983666 0.886638351,1.37689667 0.897045682,1.39475016 C0.90606537,1.41022318 0.917860345,1.42252225 0.933124432,1.43125063 Z M1.32413173,1.6508706 L1.32413173,1.52787989 L1.39906452,1.57072826 L1.39906452,1.50169477 L1.32413173,1.45884639 L1.32413173,1.08431984 L1.25474952,1.04464541 L1.01052414,1.26682218 L1.01052414,1.34855149 L1.25197423,1.48661849 L1.25197423,1.6096092 L1.32413173,1.6508706 Z M1.25197423,1.41758499 L1.07227431,1.31482823 L1.24989277,1.15136961 L1.25197423,1.15255984 L1.25197423,1.41758499 Z M1.49727889,1.74988033 L1.49727889,1.60625891 L1.5382144,1.58602496 L1.66726531,1.84708266 L1.76162511,1.90103988 L1.58886341,1.56103007 L1.74774867,1.48287146 L1.65269504,1.4285175 L1.49727889,1.50865983 L1.49727889,1.17222073 L1.42373375,1.13016584 L1.42373375,1.70782544 L1.49727889,1.74988033 Z M2.00346066,2.03932728 L2.18107912,1.57434304 L2.09920811,1.52752723 L1.95905605,1.91713006 L1.95697458,1.91593983 L1.81612869,1.36565558 L1.73425769,1.31883976 L1.91187614,1.98695705 L2.00346066,2.03932728 Z" id="0.4kV" fill="#FFFFFF" fill-rule="nonzero"></path>
                                <path d="M3.68674806,3.06296939 C3.75582191,3.0756652 3.80639383,3.066496 3.83723037,3.03475646 C3.86553831,3.00269953 3.88235656,2.94978972 3.88723551,2.87628412 L3.88841902,2.84890383 L3.9803119,2.9014504 L3.9803119,3.13420702 C3.9803119,3.18640093 4.00128075,3.2251937 4.0444519,3.24988 L4.14189536,3.30560053 C4.16656459,3.31970699 4.18444978,3.32288094 4.19616767,3.31547505 C4.2051383,3.30983246 4.2121517,3.2866559 4.21720787,3.24594535 L4.22063302,3.21212482 C4.22114272,3.20594012 4.22162183,3.19948146 4.22207036,3.19274883 L4.16533113,3.1398496 L4.16369803,3.17006282 L4.16173929,3.19467296 L4.15891729,3.21678521 C4.15736988,3.22581325 4.15561145,3.23179552 4.15361325,3.23471556 C4.1486794,3.24176879 4.14127863,3.24317943 4.13141094,3.23753685 L4.06172036,3.1976861 C4.04691882,3.18922222 4.03951806,3.17441043 4.03951806,3.15466139 L4.03951806,2.93530591 L4.21035248,3.03299316 L4.21035248,2.96739811 L3.96859402,2.82915479 L3.96859402,2.5759438 L3.90938787,2.54208829 L3.90938787,2.79529928 L3.66824614,2.65740862 L3.66824614,2.72300366 L3.82921287,2.81504833 L3.82921287,2.81716429 C3.82736268,2.88522797 3.81441133,2.9335426 3.79035883,2.96210819 C3.7656896,2.98891046 3.72005152,2.99596369 3.6534446,2.98467853 L3.68674806,3.06296939 Z M4.08762305,2.87253216 C4.12092652,2.83797133 4.14744594,2.79741525 4.16779805,2.75192191 L4.11290902,2.69020614 C4.09317363,2.73323085 4.06727094,2.77343426 4.03396748,2.81011106 L4.08762305,2.87253216 Z M3.79467595,2.70501793 L3.85018171,2.70501793 C3.82366229,2.63201699 3.79590941,2.56395331 3.76692306,2.49941625 L3.71141729,2.49730028 C3.74102037,2.56148468 3.76877325,2.630959 3.79467595,2.70501793 Z M4.40523939,3.47593605 L4.40523939,2.98150457 C4.42374132,2.94976503 4.43854286,2.91449888 4.45087747,2.87641143 L4.39598843,2.81540099 C4.36885228,2.90779831 4.32691459,2.97833062 4.2689419,3.02629259 L4.28806055,3.10846273 C4.3090294,3.09365094 4.32876478,3.07672319 4.3472667,3.05838479 L4.3472667,3.44278586 L4.40523939,3.47593605 Z M4.80303073,3.70269742 L4.84311823,3.67483716 C4.75492573,3.54258908 4.69571958,3.39306059 4.66488304,3.22589902 L4.83078362,3.32076497 L4.83078362,3.25658057 L4.65563208,3.1564247 L4.6578257,3.01651163 L4.658099,2.9702194 L4.59950958,2.93671656 L4.59909843,2.98606305 L4.59727108,3.07133651 L4.5958092,3.12221653 L4.4434767,3.03510913 L4.4434767,3.09929353 L4.59087535,3.18357963 C4.57360689,3.30348456 4.51625093,3.38636002 4.41880747,3.43220602 L4.4595117,3.50626494 C4.54153689,3.47064613 4.59950958,3.3994085 4.63342977,3.29325737 C4.66179939,3.43361666 4.71792189,3.56939136 4.80303073,3.70269742 Z M4.76170977,3.19098553 L4.80796458,3.18075834 C4.79007939,3.13879162 4.76479343,3.0876557 4.73148997,3.02770323 L4.68585189,3.03334582 C4.69633631,3.05344753 4.70613548,3.07268717 4.71524939,3.09106476 L4.74053535,3.14361133 C4.74827875,3.16026479 4.75533689,3.17605619 4.76170977,3.19098553 Z M4.93686131,3.78204627 C4.994834,3.78275159 5.03677169,3.76088657 5.06267438,3.7157459 C5.075009,3.69176491 5.08549342,3.66108336 5.09289419,3.62299591 L5.25016053,3.7129246 L5.25016053,3.9541451 L5.30936668,3.9880006 L5.30936668,3.74678011 L5.44936457,3.82683428 L5.44936457,3.76264988 L5.30936668,3.68259571 L5.30936668,3.5323619 L5.42531207,3.59866226 L5.42531207,3.53447786 L5.29888226,3.46218225 C5.31738418,3.44031723 5.33403591,3.4131623 5.34945418,3.3810701 L5.28654765,3.31970699 C5.27051265,3.35849976 5.25139399,3.39270793 5.23042515,3.42303682 L5.0731588,3.33310813 L5.11386303,3.33381345 C5.09597784,3.28267753 5.07747592,3.23401023 5.058974,3.18957488 L5.00470169,3.18816423 C5.02320361,3.2297783 5.04108881,3.27527163 5.05774054,3.32429159 L4.92144304,3.24635339 L4.92144304,3.31053779 L5.04663938,3.38212808 L5.04663938,3.44772313 C5.04540592,3.47664137 5.04355573,3.50379631 5.04108881,3.52918794 L4.89615708,3.44631248 L4.89615708,3.51049688 L5.03122111,3.58772976 C5.02628727,3.60677348 5.02073669,3.6240539 5.01456938,3.63886568 C4.994834,3.67836377 4.95721342,3.6991708 4.90294112,3.70058145 L4.93686131,3.78204627 Z M5.25016053,3.6487402 L5.10091169,3.56339611 C5.10337861,3.53800448 5.10461207,3.51049688 5.1052288,3.48122597 L5.1052288,3.41563093 L5.25016053,3.49850639 L5.25016053,3.6487402 Z M5.59552976,4.15516217 L5.59552976,3.59301968 L5.98283667,3.81449113 L5.98283667,4.28564694 C5.98283667,4.30186937 5.97481917,4.30574865 5.96001763,4.29728477 L5.90204494,4.2613133 L5.91746321,4.33501956 L5.97913629,4.37028571 C6.01984052,4.39356137 6.04080936,4.38157088 6.04080936,4.33360891 L6.04080936,3.78345691 L5.53755706,3.4956851 L5.53755706,4.12201199 L5.59552976,4.15516217 Z M5.64240129,4.09944165 C5.67077091,4.06911276 5.69544014,4.02820402 5.71640898,3.97671543 C5.73306071,4.01303957 5.74909571,4.0504217 5.76513071,4.08921447 L5.80398475,4.06770211 L5.76975619,3.98941125 L5.76975619,3.98941125 L5.73737783,3.9174683 L5.73737783,3.9174683 C5.75217937,3.86739036 5.76389725,3.8092012 5.77314821,3.74395882 L5.71949264,3.70269742 C5.71332533,3.74924874 5.70530783,3.79192079 5.69605687,3.83106622 L5.66903913,3.7773601 L5.66903913,3.7773601 L5.64391598,3.72947713 C5.63986036,3.72196685 5.63586395,3.71468791 5.63191687,3.70763468 L5.59614649,3.72738373 C5.6245161,3.7816936 5.65165225,3.83600348 5.67755495,3.891724 C5.65781956,3.94744453 5.63376706,3.99223254 5.60478072,4.02573539 L5.64240129,4.09944165 Z M5.80953533,4.21194068 C5.84037187,4.18302243 5.86689129,4.14317168 5.88971033,4.09274108 C5.90759552,4.13541313 5.92548071,4.17949582 5.94274917,4.2246365 L5.98221994,4.20277148 L5.94614119,4.11539958 L5.94614119,4.11539958 L5.91191263,4.03490459 C5.9291811,3.98200536 5.9433659,3.92028959 5.95446706,3.84975728 L5.90019475,3.80814322 C5.89279398,3.85751583 5.88354302,3.9037145 5.87244187,3.94532856 L5.8592685,3.91688429 L5.8592685,3.91688429 L5.83380985,3.86443082 C5.82552099,3.84790933 5.81742948,3.8323358 5.80953533,3.81766508 L5.77314821,3.83635614 C5.80028437,3.89137134 5.82680379,3.94814985 5.85270648,4.00669167 C5.8311209,4.06205953 5.80460148,4.10614222 5.77253148,4.1392924 L5.80953533,4.21194068 Z M6.53851108,4.69579231 L6.53851108,4.31562317 L6.69146031,4.40308324 L6.69146031,4.33678287 L6.53851108,4.2493228 L6.53851108,4.04266314 L6.47807147,4.00810231 L6.47807147,4.21476197 L6.31648801,4.12236465 L6.31648801,4.18866502 L6.47807147,4.28106234 L6.47807147,4.66123148 L6.53851108,4.69579231 Z M6.26591609,4.04407379 L6.30600359,4.02044547 C6.2782507,3.96930954 6.24433051,3.91535233 6.20424301,3.8578685 L6.16353878,3.88043883 C6.20732667,3.9421546 6.24124686,3.99681714 6.26591609,4.04407379 Z M6.21534417,4.48842733 C6.26036551,4.48102144 6.30291993,4.46726764 6.3423907,4.44751859 L6.32697243,4.37028571 C6.30538686,4.38121822 6.28503474,4.39074008 6.26529936,4.39779331 L6.26529936,4.09732568 L6.12283455,4.01586087 L6.12283455,4.08004527 L6.20917686,4.12941788 L6.20917686,4.38897677 C6.20917686,4.40308324 6.20362628,4.41189977 6.19314186,4.41577905 L6.21534417,4.48842733 Z M7.22986626,4.62843396 L7.22986626,4.4492819 L6.81727339,4.21335133 L6.81727339,4.39250339 L7.22986626,4.62843396 Z M7.17374376,4.487722 L6.87339588,4.31597584 L6.87339588,4.2842363 L7.17374376,4.45598247 L7.17374376,4.487722 Z M7.17374376,4.55825431 L6.87339588,4.38650814 L6.87339588,4.35406328 L7.17374376,4.52580945 L7.17374376,4.55825431 Z M7.30017357,4.74622291 L7.30017357,4.69826094 L6.74511589,4.38086556 L6.74511589,4.42882753 L7.30017357,4.74622291 Z M7.30017357,5.11651753 L7.30017357,5.06573427 L7.05101434,4.92325901 L7.05101434,4.89010882 L7.25515222,5.00683979 L7.25515222,4.96381508 L7.05101434,4.84708411 L7.05101434,4.8160499 L7.24281761,4.92572764 L7.24281761,4.74234364 L6.80370531,4.49124862 L6.80370531,4.67463262 L6.99304165,4.78289971 L6.99304165,4.81393393 L6.79137069,4.6986136 L6.79137069,4.74163831 L6.99304165,4.85695864 L6.99304165,4.89010882 L6.74511589,4.74833888 L6.74511589,4.79912214 L7.30017357,5.11651753 Z M6.99304165,4.67286931 L6.85921108,4.59634176 L6.85921108,4.56248625 L6.99304165,4.6390138 L6.99304165,4.67286931 Z M7.18731184,4.7839577 L7.05101434,4.7060195 L7.05101434,4.67216399 L7.18731184,4.75010219 L7.18731184,4.7839577 Z M7.18731184,4.85449 L7.05101434,4.7765518 L7.05101434,4.7426963 L7.18731184,4.8206345 L7.18731184,4.85449 Z M6.99304165,4.74340162 L6.85921108,4.66687407 L6.85921108,4.63301856 L6.99304165,4.70954611 L6.99304165,4.74340162 Z M7.5073951,5.24559165 L7.5073951,4.90280464 L7.52486092,4.94427763 L7.5555001,5.01918294 L7.5555001,5.01918294 L7.59003702,4.97968485 C7.56166741,4.92466965 7.53453126,4.87388639 7.5073951,4.82733507 L7.5073951,4.79418488 L7.57646895,4.83368297 L7.57646895,4.76879325 L7.5073951,4.72929516 L7.5073951,4.59810507 L7.44880568,4.56460222 L7.44880568,4.69579231 L7.36369684,4.64712502 L7.36369684,4.71201474 L7.44448857,4.7582134 C7.42536991,4.8298037 7.39453337,4.88552422 7.35259568,4.92643296 L7.37788164,5.01495101 C7.40625126,4.97827421 7.43030376,4.93419151 7.44880568,4.88129228 L7.44880568,5.21208881 L7.5073951,5.24559165 Z M7.91505413,5.45754124 L7.91505413,5.39335684 L7.65787741,5.24629697 L7.65787741,5.12639205 L7.88051721,5.25370287 L7.88051721,5.00049188 L7.65787741,4.87318107 L7.65787741,4.77161454 L7.90456971,4.91267916 L7.90456971,4.84849476 L7.60113818,4.67498528 L7.60113818,5.27803651 L7.91505413,5.45754124 Z M7.82439471,5.16024756 L7.65787741,5.06502894 L7.65787741,4.93454417 L7.82439471,5.02976279 L7.82439471,5.16024756 Z" id="光伏并网计量柜" fill="#FFFFFF" fill-rule="nonzero"></path>
                                <polygon id="矩形备份-86" fill="#BCBFC5" points="5.16512009 26.7581943 6.47567295 27.5076 6.47567295 29.094577 5.16512009 28.3451712"></polygon>
                                <polygon id="Fill-11" fill="#93979C" transform="translate(6.511799, 28.279822) scale(-1, 1) translate(-6.511799, -28.279822) " points="6.47567295 29.0520443 6.54792574 29.094577 6.54792574 27.5076 6.47567295 27.4650674"></polygon>
                                <polygon id="Fill-12" fill="#CCD0D4" transform="translate(5.856523, 27.111631) scale(-1, 1) translate(-5.856523, -27.111631) " points="5.23737288 27.5076 5.16512009 27.4650674 6.47567295 26.7156616 6.54792574 26.7581943"></polygon>
                                <path d="M4.7411177,29.3370318 C4.84755863,29.3978973 4.93384606,29.348556 4.93384606,29.226825 C4.93384606,29.105094 4.84755863,28.9570703 4.7411177,28.8962048 C4.63467676,28.8353393 4.54838933,28.8846806 4.54838933,29.0064116 C4.54838933,29.1281426 4.63467676,29.2761663 4.7411177,29.3370318 Z" id="椭圆形" stroke="#04010F" stroke-width="0.05" fill="#FFD438"></path>
                                <path d="M4.43275232,29.2929491 L5.04948307,29.6456106 C5.07077126,29.6577837 5.08802875,29.6873885 5.08802875,29.7117347 L5.08802875,29.8880654 C5.08802875,29.9124116 5.07077126,29.9222799 5.04948307,29.9101068 L4.43275232,29.5574452 C4.41146413,29.5452721 4.39420664,29.5156674 4.39420664,29.4913212 L4.39420664,29.3149904 C4.39420664,29.2906442 4.41146413,29.280776 4.43275232,29.2929491 Z" id="矩形" fill="#424242"></path>
                                <path d="" id="椭圆形" stroke="#04010F" stroke-width="0.05" fill="#34CC9E"></path>
                                <path d="M5.51203114,29.9101068 L6.1287619,30.2627683 C6.15005009,30.2749414 6.16730757,30.3045461 6.16730757,30.3288923 L6.16730757,30.5052231 C6.16730757,30.5295693 6.15005009,30.5394376 6.1287619,30.5272645 L5.51203114,30.1746029 C5.49074295,30.1624298 5.47348547,30.1328251 5.47348547,30.1084789 L5.47348547,29.9321481 C5.47348547,29.9078019 5.49074295,29.8979337 5.51203114,29.9101068 Z" id="矩形" fill="#424242"></path>
                                <path d="" id="椭圆形" stroke="#04010F" stroke-width="0.05" fill="#F14B4B"></path>
                                <path d="M6.59130997,30.5272645 L7.20804072,30.879926 C7.22932891,30.8920991 7.2465864,30.9217038 7.2465864,30.94605 L7.2465864,31.1223808 C7.2465864,31.146727 7.22932891,31.1565953 7.20804072,31.1444222 L6.59130997,30.7917606 C6.57002178,30.7795875 6.55276429,30.7499828 6.55276429,30.7256366 L6.55276429,30.5493058 C6.55276429,30.5249596 6.57002178,30.5150914 6.59130997,30.5272645 Z" id="矩形" fill="#424242"></path>
                                <polygon id="矩形备份-87" fill="#5E7BA5" points="5.31930278 27.0226904 6.32149026 27.5957654 6.32149026 28.5655847 5.31930278 27.9925097"></polygon>
                                <path d="" id="矩形备份-88" stroke="#777777" stroke-width="0.526315789" fill="#38373E"></path>
                                <path d="" id="矩形备份-89" stroke="#777777" stroke-width="0.526315789" fill="#38373E"></path>
                                <path d="" id="矩形备份-91" stroke="#777777" stroke-width="0.526315789" fill="#38373E"></path>
                                <path d="" id="矩形备份-90" stroke="#777777" stroke-width="0.526315789" fill="#38373E"></path>
                            </g>
                            <g id="闪电" transform="translate(5.778252, 32.232061) scale(-1, 1) translate(-5.778252, -32.232061) translate(5.015087, 31.206250)">
                                <path d="M0.128288146,2.02116939 C0.00944811476,2.09948841 -0.0340558251,2.02116939 0.0285474054,1.85007244 L0.646091137,0.190913989 C0.710816511,0.0186121314 0.815862609,-0.0500676302 0.87846584,0.039095569 L1.49707064,0.887350869 C1.56073495,0.976514068 1.51723101,1.11025887 1.39839097,1.18857789 L0.128288146,2.02116939 Z" id="Fill-17" fill="#303033"></path>
                                <g id="Fill-19">
                                    <use fill="#FF9D26" xlink:href="#path-1"></use>
                                    <use fill="#FBC70E" xlink:href="#path-1"></use>
                                </g>
                                <polygon id="Fill-21" fill="#303033" points="0.934384319 0.889278722 0.775223563 0.910967068 0.908918598 0.383217321 0.591658158 1.03386769 0.749757842 1.01338426 0.617123879 1.54233891"></polygon>
                            </g>
                            <g id="编组-60" transform="translate(3.131095, 36.041053)"></g>
                        </g>
                        <polygon id="矩形备份-106" fill="#EDEDED" points="1.21162239e-13 4.82171709 11.5637017 11.4341209 20 6.61240385 8.4362983 -1.26617156e-13"></polygon>
                        <polygon id="矩形备份-107" fill="#BCBEC0" points="11.5565043 11.4341209 20 6.61240385 20 41.1732347 11.5565043 45.9949518"></polygon>
                    </g>
                </g>
            </g>
        </g>
    </g>
</svg>