<?xml version="1.0" encoding="UTF-8"?>
<svg width="63px" height="61px" viewBox="0 0 63 61" version="1.1" xmlns="http://www.w3.org/2000/svg" xmlns:xlink="http://www.w3.org/1999/xlink">
    <title>img_充电桩160KW_def</title>
    <defs>
        <path d="M0.199427213,2.34506019 C0.309567821,2.28106013 0.398854426,2.12541322 0.398854426,1.9974131 C0.398854426,1.86941297 0.309567821,1.81753067 0.199427213,1.88153073 C0.0892866045,1.94553079 0,2.1011777 0,2.22917783 C0,2.35717796 0.0892866045,2.40906026 0.199427213,2.34506019 Z" id="path-1"></path>
        <path d="M1.29627688,1.70770718 C1.40641749,1.64370712 1.4957041,1.48806021 1.4957041,1.36006009 C1.4957041,1.23205996 1.40641749,1.18017766 1.29627688,1.24417772 C1.18613627,1.30817778 1.09684967,1.46382469 1.09684967,1.59182482 C1.09684967,1.71982494 1.18613627,1.77170725 1.29627688,1.70770718 Z" id="path-2"></path>
        <path d="M2.29341295,1.12829535 C2.40355355,1.06429529 2.49284016,0.908648383 2.49284016,0.780648256 C2.49284016,0.652648129 2.40355355,0.600765827 2.29341295,0.66476589 C2.18327234,0.728765953 2.09398573,0.884412861 2.09398573,1.01241299 C2.09398573,1.14041311 2.18327234,1.19229542 2.29341295,1.12829535 Z" id="path-3"></path>
        <path d="M3.39026262,0.490942341 C3.50040323,0.426942278 3.58968983,0.271295371 3.58968983,0.143295244 C3.58968983,0.0152951168 3.50040323,-0.0365871856 3.39026262,0.0274128779 C3.28012201,0.0914129413 3.1908354,0.247059849 3.1908354,0.375059975 C3.1908354,0.503060102 3.28012201,0.554942405 3.39026262,0.490942341 Z" id="path-4"></path>
        <polygon id="path-5" points="4.57026494e-13 0 8.04009511 4.71428802 8.04009511 43.8825277 4.57026494e-13 39.1682397"></polygon>
        <polygon id="path-6" points="0 0 3.38439203 1.95473093 3.38439203 2.61817312 0 0.663442191"></polygon>
        <linearGradient x1="54.2390154%" y1="44.3112993%" x2="45.7497919%" y2="55.6869159%" id="linearGradient-8">
            <stop stop-color="#424242" offset="0%"></stop>
            <stop stop-color="#696969" offset="100%"></stop>
        </linearGradient>
        <polygon id="path-9" points="0 0 3.38439203 1.95473093 3.38439203 2.61817312 0 0.663442191"></polygon>
        <linearGradient x1="54.2390154%" y1="44.31481%" x2="45.7497919%" y2="55.6904267%" id="linearGradient-11">
            <stop stop-color="#424242" offset="0%"></stop>
            <stop stop-color="#696969" offset="100%"></stop>
        </linearGradient>
        <polygon id="path-12" points="0 0 3.38439203 1.95397358 3.38439203 2.61741577 0 0.663442191"></polygon>
        <linearGradient x1="54.2390154%" y1="44.3129621%" x2="45.7497919%" y2="55.6852882%" id="linearGradient-14">
            <stop stop-color="#424242" offset="0%"></stop>
            <stop stop-color="#696969" offset="100%"></stop>
        </linearGradient>
        <polygon id="path-15" points="0 0 3.38439203 1.95397358 3.38439203 2.61741577 0 0.663442191"></polygon>
        <linearGradient x1="54.2390154%" y1="44.3164061%" x2="45.7497919%" y2="55.6887322%" id="linearGradient-17">
            <stop stop-color="#424242" offset="0%"></stop>
            <stop stop-color="#696969" offset="100%"></stop>
        </linearGradient>
        <polygon id="path-18" points="0 0 3.38439203 1.95473093 3.38439203 2.61817312 0 0.663442191"></polygon>
        <linearGradient x1="54.2390154%" y1="44.3113339%" x2="45.7497919%" y2="55.6869506%" id="linearGradient-20">
            <stop stop-color="#424242" offset="0%"></stop>
            <stop stop-color="#696969" offset="100%"></stop>
        </linearGradient>
        <polygon id="path-21" points="0 0 3.38439203 1.95473093 3.38439203 2.61817312 0 0.663442191"></polygon>
        <linearGradient x1="54.2395077%" y1="44.314978%" x2="45.7493153%" y2="55.691893%" id="linearGradient-23">
            <stop stop-color="#424242" offset="0%"></stop>
            <stop stop-color="#696969" offset="100%"></stop>
        </linearGradient>
        <polygon id="path-24" points="0 0 3.38439203 1.95397358 3.38439203 2.61741577 0 0.663442191"></polygon>
        <linearGradient x1="54.2395077%" y1="44.3131958%" x2="45.7493153%" y2="55.6868198%" id="linearGradient-26">
            <stop stop-color="#424242" offset="0%"></stop>
            <stop stop-color="#696969" offset="100%"></stop>
        </linearGradient>
        <polygon id="path-27" points="0 0 3.38439203 1.95397358 3.38439203 2.61741577 0 0.663442191"></polygon>
        <linearGradient x1="54.2390154%" y1="44.3181575%" x2="45.7497919%" y2="55.6904836%" id="linearGradient-29">
            <stop stop-color="#424242" offset="0%"></stop>
            <stop stop-color="#696969" offset="100%"></stop>
        </linearGradient>
        <polygon id="path-30" points="0 0 3.38439203 1.95473093 3.38439203 2.61817312 0 0.663442191"></polygon>
        <polygon id="path-32" points="0 0 3.38439203 1.95473093 3.38439203 2.61817312 0 0.663442191"></polygon>
        <polygon id="path-34" points="0 0 3.38439203 1.95397358 3.38439203 2.61741577 0 0.663442191"></polygon>
        <polygon id="path-36" points="0 0 3.38439203 1.95397358 3.38439203 2.61741577 0 0.663442191"></polygon>
        <polygon id="path-38" points="0 0 3.38439203 1.95473093 3.38439203 2.61817312 0 0.663442191"></polygon>
        <polygon id="path-40" points="0 0 3.38439203 1.95473093 3.38439203 2.61817312 0 0.663442191"></polygon>
        <polygon id="path-42" points="0 0 3.38439203 1.95397358 3.38439203 2.61741577 0 0.663442191"></polygon>
        <polygon id="path-44" points="0 0 3.38439203 1.95397358 3.38439203 2.61741577 0 0.663442191"></polygon>
    </defs>
    <g id="能源云系统V1.0" stroke="none" stroke-width="1" fill="none" fill-rule="evenodd">
        <g id="1.站控系统（站点）首页" transform="translate(-600.000000, -651.000000)">
            <g id="content" transform="translate(440.000000, 336.000000)">
                <g id="左边车" transform="translate(259.497908, 273.534573) scale(-1, 1) translate(-259.497908, -273.534573) translate(43.996062, 147.386359)">
                    <g id="img_充电桩160KW_def" transform="translate(252.946103, 168.501627)">
                        <g id="充电线2" transform="translate(5.836511, 18.521534) scale(-1, 1) translate(-5.836511, -18.521534) translate(0.000000, 0.573287)">
                            <path d="M8.9515058,1.90734279 C11.2798065,4.64512721 12.1141834,8.81278129 11.4546364,14.410305 C9.26680322,22.7952014 3.99069469,31.5970744 8.31367892,33.4306619 C12.6366631,35.2642494 2.79273109,36.8077264 1.61937083,35.2642494 C0.136773151,33.3139913 -0.327792168,31.5766981 0.225674875,30.0523698" id="路径-2" stroke="#6C727C" stroke-width="0.6"></path>
                            <path d="M9.13947178,0.749949374 C9.19977805,0.807938317 9.24777692,0.870862489 9.26254581,0.93872189 C9.29700653,1.0929478 9.11362624,1.30516265 9.0237822,1.41867293 C8.797326,1.70368241 8.42441172,2.00226377 8.03672855,1.87271401 C7.88657824,1.82212791 7.75611978,1.72959236 7.62319983,1.64445966 C7.33028366,1.45568714 7.06198229,1.38782774 6.76045094,1.61114686 C6.59553175,1.73329378 6.29153892,2.09726693 6.29153892,2.09726693 C6.07862086,2.1589573 5.81893467,1.9726524 5.67986103,1.83940121 C5.54694108,1.71355287 5.56909441,1.57166503 5.65524622,1.42237435 C5.65524622,1.42237435 5.91124019,1.1274944 6.03800643,0.980671337 C6.24477079,0.741312723 6.44784292,0.505655531 6.70506763,0.321818245 C6.76414316,0.279868797 6.83183387,0.242854578 6.9032168,0.246556 C6.93521605,0.249023615 6.96475382,0.258894073 6.99552232,0.266296917 C7.14813411,0.300843521 7.26013147,0.246556 7.40289733,0.209541781 C7.53581728,0.174995177 7.60227725,0.119473849 7.72288979,0.050380641 C7.93088489,-0.0692986661 8.14380295,0.0479130264 8.3259525,0.156488068 C8.51671723,0.269998339 8.68779012,0.406950948 8.86501671,0.540202135 C8.94132261,0.59695727 9.05331997,0.667284286 9.13947178,0.749949374" id="Fill-288" fill="#FFEF75" transform="translate(7.426101, 1.054717) scale(-1, 1) translate(-7.426101, -1.054717) "></path>
                            <g id="充电线备份" transform="translate(7.426101, 1.054717) scale(-1, 1) translate(-7.426101, -1.054717) translate(5.585399, 0.000000)" fill="#FFEF75">
                                <path d="M3.55407266,0.749949374 C3.61437893,0.807938317 3.6623778,0.870862489 3.67714669,0.93872189 C3.71160741,1.0929478 3.52822712,1.30516265 3.43838308,1.41867293 C3.21192688,1.70368241 2.8390126,2.00226377 2.45132943,1.87271401 C2.30117912,1.82212791 2.17072066,1.72959236 2.03780071,1.64445966 C1.74488454,1.45568714 1.47658317,1.38782774 1.17505182,1.61114686 C1.01013263,1.73329378 0.706139796,2.09726693 0.706139796,2.09726693 C0.493221738,2.1589573 0.233535552,1.9726524 0.0944619067,1.83940121 C-0.038458037,1.71355287 -0.016304713,1.57166503 0.0698471023,1.42237435 C0.0698471023,1.42237435 0.325841068,1.1274944 0.452607311,0.980671337 C0.659371667,0.741312723 0.862443804,0.505655531 1.11966851,0.321818245 C1.17874404,0.279868797 1.24643475,0.242854578 1.31781768,0.246556 C1.34981693,0.249023615 1.3793547,0.258894073 1.4101232,0.266296917 C1.56273499,0.300843521 1.67473235,0.246556 1.81749821,0.209541781 C1.95041816,0.174995177 2.01687813,0.119473849 2.13749067,0.050380641 C2.34548577,-0.0692986661 2.55840383,0.0479130264 2.74055338,0.156488068 C2.93131811,0.269998339 3.102391,0.406950948 3.27961759,0.540202135 C3.35592349,0.59695727 3.46792085,0.667284286 3.55407266,0.749949374" id="Fill-288"></path>
                            </g>
                        </g>
                        <g id="充电线1" transform="translate(34.904496, 41.589971) scale(-1, 1) translate(-34.904496, -41.589971) translate(8.521368, 23.484013)">
                            <path d="M3.55407266,10.0788354 C3.61437893,10.1368244 3.6623778,10.1997486 3.67714669,10.267608 C3.71160741,10.4218339 3.52822712,10.6340487 3.43838308,10.747559 C3.21192688,11.0325685 2.8390126,11.3311498 2.45132943,11.2016001 C2.30117912,11.151014 2.17072066,11.0584784 2.03780071,10.9733457 C1.74488454,10.7845732 1.47658317,10.7167138 1.17505182,10.9400329 C1.01013263,11.0621799 0.706139796,11.426153 0.706139796,11.426153 C0.493221738,11.4878434 0.233535552,11.3015385 0.0944619067,11.1682873 C-0.038458037,11.0424389 -0.016304713,10.9005511 0.0698471023,10.7512604 C0.0698471023,10.7512604 0.325841068,10.4563805 0.452607311,10.3095574 C0.659371667,10.0701988 0.862443804,9.8345416 1.11966851,9.65070431 C1.17874404,9.60875487 1.24643475,9.57174065 1.31781768,9.57544207 C1.34981693,9.57790968 1.3793547,9.58778014 1.4101232,9.59518299 C1.56273499,9.62972959 1.67473235,9.57544207 1.81749821,9.53842785 C1.95041816,9.50388125 2.01687813,9.44835992 2.13749067,9.37926671 C2.34548577,9.2595874 2.55840383,9.3767991 2.74055338,9.48537414 C2.93131811,9.59888441 3.102391,9.73583702 3.27961759,9.8690882 C3.35592349,9.92584334 3.46792085,9.99617035 3.55407266,10.0788354" id="Fill-288" fill="#FFEF75" transform="translate(1.840702, 10.383603) scale(-1, 1) translate(-1.840702, -10.383603) "></path>
                            <g id="充电线备份" transform="translate(1.840702, 10.383603) scale(-1, 1) translate(-1.840702, -10.383603) translate(0.000000, 9.328886)" fill="#FFEF75">
                                <path d="M3.55407266,0.749949374 C3.61437893,0.807938317 3.6623778,0.870862489 3.67714669,0.93872189 C3.71160741,1.0929478 3.52822712,1.30516265 3.43838308,1.41867293 C3.21192688,1.70368241 2.8390126,2.00226377 2.45132943,1.87271401 C2.30117912,1.82212791 2.17072066,1.72959236 2.03780071,1.64445966 C1.74488454,1.45568714 1.47658317,1.38782774 1.17505182,1.61114686 C1.01013263,1.73329378 0.706139796,2.09726693 0.706139796,2.09726693 C0.493221738,2.1589573 0.233535552,1.9726524 0.0944619067,1.83940121 C-0.038458037,1.71355287 -0.016304713,1.57166503 0.0698471023,1.42237435 C0.0698471023,1.42237435 0.325841068,1.1274944 0.452607311,0.980671337 C0.659371667,0.741312723 0.862443804,0.505655531 1.11966851,0.321818245 C1.17874404,0.279868797 1.24643475,0.242854578 1.31781768,0.246556 C1.34981693,0.249023615 1.3793547,0.258894073 1.4101232,0.266296917 C1.56273499,0.300843521 1.67473235,0.246556 1.81749821,0.209541781 C1.95041816,0.174995177 2.01687813,0.119473849 2.13749067,0.050380641 C2.34548577,-0.0692986661 2.55840383,0.0479130264 2.74055338,0.156488068 C2.93131811,0.269998339 3.102391,0.406950948 3.27961759,0.540202135 C3.35592349,0.59695727 3.46792085,0.667284286 3.55407266,0.749949374" id="Fill-288"></path>
                            </g>
                            <path d="M3.36610668,11.2362289 C5.69440739,13.9740133 6.52878428,18.1416674 5.86923732,23.7391911 C3.6814041,32.1240875 10.5460148,34.0346078 19.9952446,30.8604302 C29.4444744,27.6862525 32.2646166,32.4614951 31.546317,34.5352355 C30.8280174,36.6089759 24.8687452,37.4292863 24.3240498,32.9829449 C23.7793543,28.5366034 27.6743866,22.3161475 35.5879183,16.7761882 C43.50145,11.2362289 44.8676089,3.19114911 44.8676089,0" id="路径-2备份" stroke="#6C727C" stroke-width="0.6"></path>
                        </g>
                        <g id="充电桩一拖二" transform="translate(5.559502, 0.000000)">
                            <polygon id="投影" fill="#232327" opacity="0.400000006" transform="translate(14.000000, 45.495007) scale(-1, 1) translate(-14.000000, -45.495007) " points="1.09467125e-14 47.4796147 17.7304221 36.9959395 28 43.5103986 10.2695779 53.9940738"></polygon>
                            <g transform="translate(14.000000, 25.997147) scale(-1, 1) translate(-14.000000, -25.997147) translate(3.000000, 0.000000)">
                                <g id="正视图备份" transform="translate(8.040095, 4.714288)">
                                    <polygon id="矩形" fill="#DEDEDE" points="4.00792528e-15 8.11176561 13.9599049 0 13.9599049 39.1682397 0 47.2800053"></polygon>
                                    <polygon id="矩形备份-78" fill="#3F3F3F" points="2.00396264e-15 44.8464756 13.9599049 36.73471 13.9599049 39.1682397 0 47.2800053"></polygon>
                                    <path d="M6.97995245,7.06882432 C8.35671005,6.26882352 9.47279261,6.9173523 9.47279261,8.51735389 L9.47279261,19.7579434 C9.47279261,21.357945 8.35671005,23.3035313 6.97995245,24.1035321 C6.84227669,24.1835322 6.70720768,24.249047 6.57560082,24.3005735 L6.49705902,24.3298148 C5.35140662,24.7341848 4.48711229,24.0630039 4.48711229,22.6550025 L4.48711229,11.414413 C4.48711229,9.81441145 5.60319484,7.86882511 6.97995245,7.06882432 Z" id="矩形" fill="#272727"></path>
                                    <polygon id="矩形" fill="#777777" points="5.48424835 12.341472 8.47565654 10.6032365 8.47565654 12.6891191 5.48424835 14.4273545"></polygon>
                                    <g id="编组-54" transform="translate(5.185108, 8.200235)">
                                        <g id="椭圆形">
                                            <use fill="#35E139" xlink:href="#path-1"></use>
                                            <use fill="#22FFFF" xlink:href="#path-1"></use>
                                        </g>
                                        <g id="椭圆形备份-68">
                                            <use fill="#35E139" xlink:href="#path-2"></use>
                                            <use fill="#22FFFF" xlink:href="#path-2"></use>
                                        </g>
                                        <g id="椭圆形备份-69">
                                            <use fill="#35E139" xlink:href="#path-3"></use>
                                            <use fill="#22FFFF" xlink:href="#path-3"></use>
                                        </g>
                                        <g id="椭圆形备份-70">
                                            <use fill="#35E139" xlink:href="#path-4"></use>
                                            <use fill="#22FFFF" xlink:href="#path-4"></use>
                                        </g>
                                    </g>
                                    <g id="刷卡" transform="translate(6.182244, 14.700882)" fill-rule="nonzero">
                                        <path d="M1.12405344,1.67057313 L0.962088635,1.64958096 C0.893664141,1.6279258 0.884165212,1.53604799 0.934557839,1.42651209 C0.959834652,1.37150898 1.01328626,1.29335214 1.10038661,1.27420128 L1.11278352,1.27585204 L1.00958328,0.885191386 C1.00394833,0.863033134 0.982374485,0.8606864 0.96144464,0.879630254 L0.54365273,1.2578512 C0.522722885,1.27679505 0.510325976,1.30999636 0.515960935,1.33215461 L0.692737627,2.01200416 C0.698372586,2.03416241 0.719946426,2.03650915 0.740876271,2.01756529 L1.12405344,1.67057313 Z M1.34462181,1.08009816 L1.12324844,1.08458418 L1.19054595,1.35311938 L1.09426866,1.34049 C1.05176497,1.33485715 0.997508374,1.38390458 0.973197553,1.45002654 C0.950756796,1.51106219 0.961651366,1.56524814 0.99689054,1.57765367 L1.00723242,1.57999446 L1.21727175,1.605668 C1.24206557,1.60859275 1.26009743,1.62618491 1.26734238,1.65456644 L1.27329933,1.67842148 L1.51045058,1.46375564 L1.43252716,1.15392075 C1.4217939,1.11159494 1.39515953,1.08550489 1.35873007,1.08083512 L1.34462181,1.08009816 Z M0.436266524,1.23491027 C0.353513136,1.18616405 0.353513136,1.02867037 0.436266524,0.883940519 L0.471525263,0.904709827 C0.408252731,1.01551307 0.408252731,1.13608239 0.471525263,1.17335334 L0.436266524,1.23491027 Z M0.303925502,1.46666668 C0.148239654,1.37495929 0.148239654,1.07843412 0.303925502,0.8057961 L0.339184242,0.826565407 C0.20281825,1.06537037 0.20281825,1.3247828 0.339184242,1.40492136 L0.303925502,1.46666668 Z M0.171584481,1.6984231 C-0.057194827,1.56384808 -0.057194827,1.1284798 0.171584481,0.727840071 L0.20684322,0.748609378 C-0.00245523184,1.11513411 -0.00245523184,1.51357804 0.20684322,1.63686616 L0.171584481,1.6984231 Z M1.15915118,0.814859355 L1.12389244,0.794090048 C1.18716497,0.6832868 1.18716497,0.56271748 1.12389244,0.525446532 L1.15915118,0.463701211 C1.24190457,0.512447439 1.24190457,0.669941113 1.15915118,0.814859355 Z M1.2914922,0.892815385 L1.25623346,0.872046077 C1.32224297,0.756449814 1.3586287,0.632634628 1.3586287,0.523368682 C1.3586287,0.414102736 1.32224297,0.332573299 1.25623346,0.293690121 L1.2914922,0.2319448 C1.36683964,0.276328525 1.40853833,0.369465114 1.40853833,0.494367394 C1.40853833,0.619269673 1.36700064,0.760772927 1.2914922,0.892815385 Z M1.42383322,0.970771414 L1.38857448,0.950002107 C1.59787293,0.58347737 1.59787293,0.185033446 1.38857448,0.0617453211 L1.42383322,0 C1.65261253,0.134951794 1.65261253,0.570320072 1.42383322,0.970771414 Z" id="形状" fill="#FFFFFF"></path>
                                        <g id="按钮" transform="translate(0.000000, 6.048398)">
                                            <path d="M0.797708851,0.109545808 C0.357372674,0.36541459 0,0.988398458 0,1.50013602 C0,2.01187358 0.357372674,2.21953244 0.797707282,1.96366457 C1.23804346,1.70779579 1.5954177,1.08481101 1.5954177,0.573077095 C1.5954177,0.0613395316 1.23804346,-0.146322062 0.797708851,0.109545808 Z M0.797708851,1.78010657 C0.443525814,1.98591383 0.156350251,1.82089734 0.156350251,1.40928282 C0.156350251,0.9976683 0.443527383,0.497056735 0.797708851,0.291250386 C1.15189189,0.0854431257 1.43906588,0.25231304 1.43906588,0.663927561 C1.4375092,1.06640726 1.1656536,1.55006566 0.823499123,1.76453182 L0.797708851,1.78010657 Z" id="形状" fill="#CCCFD8"></path>
                                            <path d="M0.368541894,1.28783594 C0.368541894,1.56943746 0.564972056,1.68357832 0.807282468,1.54277755 C1.0417749,1.40651963 1.23330082,1.08143712 1.24541332,0.805386438 L1.24602147,0.777953619 C1.24602147,0.496353916 1.04959131,0.382213064 0.807282468,0.523012916 C0.564973625,0.663812767 0.368541894,1.00623623 0.368541894,1.28783594 Z" id="路径" fill="#DA4648"></path>
                                        </g>
                                    </g>
                                    <g id="LOGO备份-12" transform="translate(6.930096, 5.770533) rotate(-1.000000) translate(-6.930096, -5.770533) translate(5.284821, 4.577674)" fill="#C92128" fill-rule="nonzero">
                                        <g id="编组-7" transform="translate(0.000000, -0.000000)">
                                            <g id="组_4" transform="translate(0.923663, 1.109312)">
                                                <path d="M0.241777047,0.352528346 C0.309906399,0.353654877 0.391635588,0.318748129 0.463540228,0.257812718 C0.535444867,0.196877308 0.589587038,0.116640206 0.610449063,0.0400981506 C0.461954506,0.0961592417 0.313133446,0.20672468 0.198372553,0.34624716 L0.219292421,0.350751217 L0.241777047,0.352528346 Z" id="路径_10"></path>
                                                <path d="M0.0594107436,0.566859308 L0.062995252,0.56811035 C0.182255061,0.613623741 0.354385637,0.569103936 0.513519789,0.451586807 C0.67265394,0.334069678 0.79415713,0.161747299 0.831535155,0.000560255076 C0.789275435,-0.00167173192 0.743812004,0.00277193693 0.696370795,0.0137714371 C0.689267732,0.041801646 0.678722476,0.0705886534 0.664979729,0.0994644583 C0.621282499,0.190942348 0.547545786,0.278305351 0.46018363,0.342106166 C0.34639267,0.425607728 0.223611646,0.459032518 0.135714636,0.430436655 C0.105730695,0.475164403 0.0801020093,0.52098557 0.0594107436,0.566859308 Z" id="路径_11"></path>
                                                <path d="M0.867185044,0.127133119 C0.85717021,0.14795546 0.846138156,0.168737734 0.834144675,0.189379568 L0.810276536,0.229120904 L0.810276536,0.229120904 L0.809584477,0.236060245 C0.80663499,0.290803478 0.784590335,0.396789712 0.68308194,0.555699258 L0.658218849,0.593310924 C0.538741149,0.768256724 0.515406354,0.884812668 0.572013195,1.03051616 C0.628583117,1.00168602 0.684476681,0.965369942 0.737681368,0.92287552 C0.700572526,0.866479018 0.701804073,0.781137493 0.741052935,0.689238787 C0.752019401,0.661976142 0.768850266,0.633472173 0.787789247,0.604833027 L0.827365059,0.547702248 C0.852630876,0.51387891 0.875146084,0.478990442 0.894512484,0.443653878 C0.919283997,0.395191292 0.936825392,0.346782808 0.94647365,0.300467766 L0.957543049,0.235875036 C0.968712461,0.182755999 0.988249686,0.127495905 1.01544528,0.0721013823 C0.986802654,0.0455134471 0.951707391,0.025912247 0.911263851,0.0139145811 C0.903851975,0.0387719236 0.89481716,0.0639181412 0.884227398,0.0891785937 L0.867185044,0.127133119 Z" id="路径_12"></path>
                                                <path d="M1.06692379,0.140585719 C1.05842872,0.163322103 1.05189454,0.185779119 1.04740419,0.207671687 L1.04243557,0.23619399 C1.03362527,0.30310895 1.01022207,0.374669026 0.973708827,0.446340124 C0.958541781,0.474729773 0.941560291,0.502894005 0.922924304,0.530582005 L0.893749445,0.571725479 C0.866439045,0.607285368 0.843162448,0.644482532 0.82472104,0.682036315 C0.795941269,0.747650526 0.794377101,0.808902363 0.820444473,0.849503956 C1.04509614,0.629841307 1.15009764,0.344824886 1.07693085,0.162807356 L1.06692379,0.140585719 Z" id="路径_13"></path>
                                                <path d="M0.220269996,0.970705271 C0.238245773,0.910523758 0.232283423,0.893188864 0.227119601,0.888157827 C0.215137426,0.882404093 0.198583301,0.883429475 0.180982364,0.891015621 C0.122292816,0.909727164 0.0657625342,0.918762744 0.0137348786,0.917747808 C0.0420558416,1.01427289 0.112543715,1.07858715 0.21317196,1.09971738 C0.206607967,1.06938542 0.20684715,1.03511061 0.213798947,0.998538954 L0.220269996,0.970705271 Z" id="路径_14"></path>
                                                <path d="M1.37084592e-12,0.818835172 L0.00699174391,0.820194197 C0.0536896471,0.82898542 0.106647691,0.826397185 0.162880015,0.812697405 L0.196988436,0.803146295 C0.249229985,0.786458883 0.284684677,0.788123438 0.30553516,0.808249025 C0.329668484,0.831815208 0.330378287,0.877807658 0.308125943,0.952805097 C0.290948695,1.01022988 0.30553516,1.06432621 0.321434761,1.10626156 C0.370666529,1.10280061 0.422987922,1.09123739 0.47666882,1.07195425 C0.425446048,0.922008516 0.451292725,0.787513459 0.567775131,0.60628462 L0.590681031,0.57174137 C0.621977835,0.527038851 0.64882467,0.481082823 0.670612892,0.434986114 L0.690692366,0.388883728 C0.692076483,0.385312971 0.691987758,0.383860195 0.690390699,0.383834128 L0.68729933,0.385307333 L0.684534819,0.387851229 C0.594750855,0.483051141 0.489515001,0.560943847 0.382016503,0.611767026 C0.263715844,0.667958672 0.148954632,0.688840745 0.0543362962,0.671951244 L0.0230687966,0.664809557 C0.0115638992,0.704327105 0.00431602908,0.742798818 0.00142924066,0.779543685 L1.37084592e-12,0.818835172 Z" id="路径_15"></path>
                                            </g>
                                            <g id="组_5" transform="translate(-0.000000, -0.000000)">
                                                <path d="M0.842409962,1.42612032 C0.84148225,1.42424561 0.839350264,1.42386653 0.83693641,1.42514707 L0.816904871,1.43647172 L0.677641452,1.51739435 C0.6713072,1.52145004 0.66528346,1.5276641 0.660575622,1.53499937 L0.427699881,1.92286698 C0.425773123,1.92594624 0.423179108,1.92845691 0.420540557,1.92979629 C0.418532659,1.93066095 0.416660527,1.93078142 0.41518147,1.93014112 L0.182274511,1.81292867 C0.177572653,1.81105094 0.171545417,1.81183784 0.165208681,1.81515673 L0.00588250542,1.90805254 C0.00346865128,1.90957726 0.00133666464,1.91243405 0.000408952542,1.9153869 C-0.000465150959,1.91832068 0.00020343416,1.92040589 0.00109054515,1.92175766 L0.00308329302,1.92372774 L0.306241118,2.0856267 C0.310443746,2.08833157 0.312924923,2.09341564 0.313285976,2.100062 L0.313285976,2.37923372 C0.313285976,2.38522072 0.317772518,2.38746712 0.323306948,2.3842512 L0.518065533,2.27108166 C0.523592849,2.26785133 0.528069367,2.26040755 0.528086506,2.25441829 L0.528086506,1.97524657 C0.52842742,1.96819782 0.530890695,1.96023953 0.535079334,1.95265431 L0.839746028,1.43756311 C0.839777246,1.43754497 0.844158169,1.42995622 0.842409962,1.42612032 Z" id="路径_16"></path>
                                                <path d="M3.07621385,0.123641509 L3.28851233,0.000279957622 C3.28963716,-0.000373651447 3.29054901,0.000156203393 3.29054901,0.00146342153 L3.29054901,0.658535408 C3.29054901,0.659842626 3.28963716,0.661432191 3.28851233,0.6620858 L3.07621385,0.785447351 C3.07508903,0.78610096 3.07417718,0.785571105 3.07417718,0.784263887 L3.07417718,0.1271919 C3.07417718,0.125884682 3.07508903,0.124295118 3.07621385,0.123641509 Z" id="矩形_2"></path>
                                                <path d="M2.32437327,0.656291933 L2.32437327,0.571482265 C2.32437327,0.565429452 2.31983311,0.563156203 2.31423784,0.56640748 L1.68406124,0.932587971 C1.67846597,0.935839249 1.6739258,0.943388862 1.6739258,0.949441675 L1.6739258,1.03425134 C1.6739258,1.04030416 1.67846597,1.0425712 1.68406124,1.03932613 L1.89094281,0.919112216 L1.89094281,1.46251773 C1.89097712,1.46894515 1.89581536,1.47134858 1.90177545,1.46788531 L2.09653403,1.35471578 C2.10249412,1.35125251 2.10733236,1.34322632 2.10736667,1.33675901 L2.10736667,0.793353503 L2.31424824,0.673139591 C2.31844165,0.670693601 2.32204027,0.665842028 2.3235775,0.661017436 L2.32437327,0.656291933 Z" id="路径_17"></path>
                                                <path d="M2.9634678,0.832432475 L2.95985692,0.822148054 L2.73538923,0.327731485 C2.73394321,0.325051838 2.7307874,0.324547276 2.72723093,0.326427109 L2.50073406,0.458039001 C2.49716565,0.460301613 2.49399539,0.464477924 2.49252373,0.468854794 L2.26735883,1.22657957 C2.26600201,1.23140599 2.26515836,1.23611483 2.26484294,1.24057952 C2.26478113,1.24375539 2.26557038,1.24638686 2.26711949,1.24814058 C2.26858869,1.24988313 2.27082546,1.25056674 2.27346715,1.25008057 C2.27732965,1.24892582 2.28129744,1.24721344 2.28528836,1.24497888 L2.43923464,1.1555244 L2.45117031,1.14789093 L2.45117031,1.14789093 L2.45367768,1.14567605 L2.45594666,1.1429767 C2.45718079,1.1414347 2.45824369,1.13972474 2.45906846,1.13795447 L2.46427146,1.12326896 L2.46427146,1.12326896 L2.47288762,1.0945102 L2.47774219,1.07624203 L2.49226191,1.02643694 L2.52457739,0.919322517 L2.55162978,0.830989824 L2.55209805,0.830526356 L2.59769711,0.678638952 L2.6030562,0.663930283 L2.6030562,0.663930283 C2.60645712,0.657830441 2.61151561,0.652841133 2.61658399,0.650587486 C2.62126137,0.648211141 2.62552434,0.648414401 2.62811383,0.651137231 L2.63104228,0.655113788 L2.63511477,0.663056714 L2.76801202,0.955282846 C2.76904008,0.957578523 2.77106572,0.958750143 2.77366247,0.958551032 C2.77527568,0.958864804 2.77716192,0.958544604 2.77913603,0.957621867 L2.79113414,0.951032788 L2.94017919,0.864426286 L2.95211487,0.856365059 L2.95211487,0.856365059 C2.95569911,0.853362402 2.95883564,0.849202876 2.96090793,0.84470409 C2.96302805,0.840375819 2.96394658,0.835972521 2.9634678,0.832432475 Z" id="路径_18"></path>
                                            </g>
                                        </g>
                                    </g>
                                    <g id="LOGO备份-13" transform="translate(5.640653, 29.946456)" fill="#C92128" fill-rule="nonzero">
                                        <g id="组_4">
                                            <path d="M0.557910211,0.98355529 C0.715121418,0.988644673 0.903714793,0.891969015 1.06963763,0.721236507 C1.23556046,0.550503998 1.36049568,0.324562671 1.40863564,0.108169521 C1.06597851,0.262953337 0.722567957,0.572231518 0.457752606,0.964542089 C0.480920286,0.97312603 0.505591284,0.978855884 0.531541664,0.98168914 L0.557910211,0.98355529 Z" id="路径_10"></path>
                                            <path d="M0.137092668,1.586044 L0.145364065,1.58969009 C0.420560847,1.72202582 0.817759039,1.60061586 1.18496746,1.27191874 C1.55217589,0.943221612 1.83254936,0.458120816 1.91880065,0.00224418784 C1.82128465,-0.0052588928 1.71637597,0.00607234745 1.60690348,0.0359323591 C1.59051288,0.115191905 1.56617928,0.196500953 1.53446734,0.27797273 C1.43363423,0.53606899 1.26348381,0.781664798 1.06189214,0.960089693 C0.799314949,1.19362479 0.515992822,1.28495708 0.313166954,1.20145027 C0.243977811,1.32740556 0.184838592,1.45658157 0.137092668,1.586044 Z" id="路径_11"></path>
                                            <path d="M2.00106419,0.362032348 C1.96639975,0.450151909 1.92645393,0.537952224 1.88166126,0.624478245 C1.8769052,0.632630621 1.87289202,0.641075841 1.86974553,0.649553342 L1.86831791,0.659676129 L1.86831791,0.659676129 L1.86715979,0.687743469 L1.86381873,0.72867824 L1.85805026,0.776884579 C1.85687111,0.785386876 1.85557708,0.79412326 1.85415918,0.803093929 L1.84409318,0.859730969 C1.84019431,0.879548189 1.83572788,0.900304146 1.83062186,0.922000436 L1.81331298,0.989911895 C1.76811222,1.15496173 1.68804131,1.36616598 1.54839015,1.62407152 L1.51886633,1.67769093 C1.24316676,2.17028471 1.18932079,2.5000364 1.31994334,2.91463736 C1.4504807,2.8344869 1.57945733,2.73309721 1.70222928,2.61411896 C1.61659914,2.45321909 1.61944098,2.21133578 1.7100093,1.95192284 C1.74281281,1.85213885 1.79835583,1.74671621 1.85775757,1.6422574 L1.90917798,1.5531113 C1.96747987,1.45793543 2.01943461,1.3596637 2.06412336,1.26003411 C2.13557493,1.08917475 2.18095808,0.918240621 2.19728465,0.75848655 L2.2095689,0.672797632 C2.23534277,0.522531961 2.2804257,0.366429911 2.34318062,0.210159922 C2.27708661,0.133994003 2.19610289,0.0774538047 2.1027778,0.0423185019 C2.08225396,0.126626696 2.05633733,0.212049031 2.02529901,0.297733325 L2.00106419,0.362032348 Z" id="路径_12"></path>
                                            <path d="M2.46196935,0.405725064 C2.44236663,0.469939467 2.42728874,0.533416518 2.41692709,0.595350407 L2.40546178,0.676064291 L2.40546178,0.676064291 C2.38513167,0.865502913 2.33112787,1.06770293 2.24687208,1.26985281 C2.19437424,1.38993386 2.13245586,1.50846357 2.06236261,1.62305739 C1.99934277,1.72309895 1.94563109,1.82789396 1.90307681,1.93383444 C1.83666633,2.11903009 1.83305695,2.29261711 1.89320846,2.40843587 C2.42261278,1.7789162 2.66406533,0.952711403 2.47374411,0.43637841 L2.46196935,0.405725064 Z" id="路径_13"></path>
                                            <path d="M0.508281831,2.73530261 C0.518651787,2.69277855 0.525569357,2.65780393 0.529926428,2.62903671 L0.534653146,2.59037366 L0.534653146,2.59037366 L0.536208031,2.56001517 C0.536240022,2.55559155 0.536167724,2.55147202 0.536005073,2.54763559 L0.534056428,2.52784668 C0.532651476,2.51948316 0.530684197,2.51329021 0.528530853,2.50870167 L0.524087569,2.50149603 C0.49643822,2.48485247 0.458238913,2.48729842 0.417624047,2.50831304 C0.282195566,2.55972134 0.151749679,2.58376128 0.031693782,2.57943634 C0.0970455375,2.85384411 0.259699127,3.03811736 0.491902827,3.10081565 C0.475073188,3.00507713 0.477624535,2.89577384 0.499270214,2.77930276 L0.508281831,2.73530261 Z" id="路径_14"></path>
                                            <path d="M0.0161337289,2.3027135 C0.133687126,2.3313172 0.26843189,2.32173933 0.411422941,2.27485798 L0.4545587,2.25967534 C0.575108164,2.2138254 0.656921286,2.2195306 0.705034608,2.27716085 C0.760723219,2.34463552 0.76236112,2.47503005 0.711012944,2.68700599 C0.671375756,2.84930996 0.705034608,3.00306273 0.741723575,3.12237933 C0.855327849,3.11393869 0.976061559,3.0826165 1.09993238,3.02944851 C0.978831585,2.59250037 1.0444121,2.20377889 1.33034167,1.67410993 L1.36302012,1.61466818 C1.45931162,1.44687187 1.53734805,1.27253838 1.59380028,1.09910498 C1.59699418,1.08902147 1.59678944,1.08490082 1.59310417,1.08478248 C1.58993359,1.0857847 1.58665158,1.0879671 1.58370468,1.09095875 L1.57959149,1.09600679 C1.3724114,1.36337129 1.12957546,1.58124505 0.881518369,1.72232186 C0.593369113,1.88698239 0.314319972,1.94023037 0.0894308565,1.87440121 L0.0532321714,1.86269215 C0.0228915871,1.99034952 0.00538138444,2.11428947 0.00105997772,2.23163468 L0,2.2986665 L0.0161337289,2.3027135 Z" id="路径_15"></path>
                                        </g>
                                    </g>
                                </g>
                                <g id="侧视图" transform="translate(0.000000, 8.111766)">
                                    <g id="矩形备份-80">
                                        <use fill="#CCCCCD" xlink:href="#path-5"></use>
                                        <use fill="#BCBEC0" xlink:href="#path-5"></use>
                                    </g>
                                    <g id="告警" transform="translate(1.410163, 32.501130)">
                                        <path d="M1.41016334,3.04571365 C0.633178366,2.59575593 0,1.59537144 0,0.816018829 C0,0.0366662131 0.633178366,-0.231729623 1.41016334,0.218228102 C2.18786378,0.668903464 2.82032669,1.67000558 2.82032669,2.4493582 C2.82032669,3.22871081 2.18786378,3.49567138 1.41016334,3.04571365" id="Fill-1324" fill="#363633"></path>
                                        <path d="M2.70227649,2.38046515 C2.70227649,3.09594817 2.12347276,3.34137965 1.41016334,2.92802136 C0.696853931,2.51466307 0.11876566,1.59967726 0.11876566,0.884194242 C0.11876566,0.168711224 0.696853931,-0.0767202632 1.41016334,0.33663803 C2.12347276,0.749996324 2.70227649,1.66498213 2.70227649,2.38046515" id="Fill-1326" fill="#DBAC16"></path>
                                        <path d="M1.5758629,0.626060599 L1.22743594,0.433734171 C1.14587398,0.895891708 1.04642563,1.46282409 1.00922193,1.67165614 C1.22815139,1.66376215 1.36694982,1.6587387 1.58874111,1.6508447 L1.35335616,2.77250965 C1.76259686,1.60993945 1.73397863,1.69174995 1.8105324,1.47358863 C1.57514745,1.48220026 1.72897044,1.47645917 1.23315958,1.49440007 L1.5758629,0.626060599 Z" id="Fill-1328" fill="#363633"></path>
                                    </g>
                                    <g id="通风口" transform="translate(1.410163, 3.264306)">
                                        <g id="编组">
                                            <g>
                                                <mask id="mask-7" fill="white">
                                                    <use xlink:href="#path-6"></use>
                                                </mask>
                                                <g id="Clip-1297"></g>
                                                <polygon id="Fill-1296" fill="url(#linearGradient-8)" mask="url(#mask-7)" points="0 0.663442191 3.38439203 2.61817312 3.38439203 1.95473093 0 0"></polygon>
                                            </g>
                                            <g transform="translate(0.000000, 1.308708)">
                                                <mask id="mask-10" fill="white">
                                                    <use xlink:href="#path-9"></use>
                                                </mask>
                                                <g id="Clip-1299"></g>
                                                <polygon id="Fill-1298" fill="url(#linearGradient-11)" mask="url(#mask-10)" points="0 0.663442191 3.38439203 2.61817312 3.38439203 1.95473093 0 0"></polygon>
                                            </g>
                                            <g transform="translate(0.000000, 2.618173)">
                                                <mask id="mask-13" fill="white">
                                                    <use xlink:href="#path-12"></use>
                                                </mask>
                                                <g id="Clip-1301"></g>
                                                <polygon id="Fill-1300" fill="url(#linearGradient-14)" mask="url(#mask-13)" points="0 0.663442191 3.38439203 2.61741577 3.38439203 1.95397358 0 0"></polygon>
                                            </g>
                                            <g transform="translate(0.000000, 3.926881)">
                                                <mask id="mask-16" fill="white">
                                                    <use xlink:href="#path-15"></use>
                                                </mask>
                                                <g id="Clip-1303"></g>
                                                <polygon id="Fill-1302" fill="url(#linearGradient-17)" mask="url(#mask-16)" points="0 0.663442191 3.38439203 2.61741577 3.38439203 1.95397358 0 0"></polygon>
                                            </g>
                                            <g transform="translate(0.000000, 5.235589)">
                                                <mask id="mask-19" fill="white">
                                                    <use xlink:href="#path-18"></use>
                                                </mask>
                                                <g id="Clip-1305"></g>
                                                <polygon id="Fill-1304" fill="url(#linearGradient-20)" mask="url(#mask-19)" points="0 0.663442191 3.38439203 2.61817312 3.38439203 1.95473093 0 0"></polygon>
                                            </g>
                                            <g transform="translate(0.000000, 6.544297)">
                                                <mask id="mask-22" fill="white">
                                                    <use xlink:href="#path-21"></use>
                                                </mask>
                                                <g id="Clip-1307"></g>
                                                <polygon id="Fill-1306" fill="url(#linearGradient-23)" mask="url(#mask-22)" points="0 0.663442191 3.38439203 2.61817312 3.38439203 1.95473093 0 0"></polygon>
                                            </g>
                                            <g transform="translate(0.000000, 7.853762)">
                                                <mask id="mask-25" fill="white">
                                                    <use xlink:href="#path-24"></use>
                                                </mask>
                                                <g id="Clip-1309"></g>
                                                <polygon id="Fill-1308" fill="url(#linearGradient-26)" mask="url(#mask-25)" points="0 0.663442191 3.38439203 2.61741577 3.38439203 1.95397358 0 0"></polygon>
                                            </g>
                                            <g transform="translate(0.000000, 9.162470)">
                                                <mask id="mask-28" fill="white">
                                                    <use xlink:href="#path-27"></use>
                                                </mask>
                                                <g id="Clip-1311"></g>
                                                <polygon id="Fill-1310" fill="url(#linearGradient-29)" mask="url(#mask-28)" points="0 0.663442191 3.38439203 2.61741577 3.38439203 1.95397358 0 0"></polygon>
                                            </g>
                                        </g>
                                        <g id="编组备份-6" transform="translate(0.000000, 10.502549)">
                                            <g id="编组">
                                                <mask id="mask-31" fill="white">
                                                    <use xlink:href="#path-30"></use>
                                                </mask>
                                                <g id="Clip-1297"></g>
                                                <polygon id="Fill-1296" fill="url(#linearGradient-8)" mask="url(#mask-31)" points="0 0.663442191 3.38439203 2.61817312 3.38439203 1.95473093 0 0"></polygon>
                                            </g>
                                            <g id="编组" transform="translate(0.000000, 1.308708)">
                                                <mask id="mask-33" fill="white">
                                                    <use xlink:href="#path-32"></use>
                                                </mask>
                                                <g id="Clip-1299"></g>
                                                <polygon id="Fill-1298" fill="url(#linearGradient-11)" mask="url(#mask-33)" points="0 0.663442191 3.38439203 2.61817312 3.38439203 1.95473093 0 0"></polygon>
                                            </g>
                                            <g id="编组" transform="translate(0.000000, 2.618173)">
                                                <mask id="mask-35" fill="white">
                                                    <use xlink:href="#path-34"></use>
                                                </mask>
                                                <g id="Clip-1301"></g>
                                                <polygon id="Fill-1300" fill="url(#linearGradient-14)" mask="url(#mask-35)" points="0 0.663442191 3.38439203 2.61741577 3.38439203 1.95397358 0 0"></polygon>
                                            </g>
                                            <g id="编组" transform="translate(0.000000, 3.926881)">
                                                <mask id="mask-37" fill="white">
                                                    <use xlink:href="#path-36"></use>
                                                </mask>
                                                <g id="Clip-1303"></g>
                                                <polygon id="Fill-1302" fill="url(#linearGradient-17)" mask="url(#mask-37)" points="0 0.663442191 3.38439203 2.61741577 3.38439203 1.95397358 0 0"></polygon>
                                            </g>
                                            <g id="编组" transform="translate(0.000000, 5.235589)">
                                                <mask id="mask-39" fill="white">
                                                    <use xlink:href="#path-38"></use>
                                                </mask>
                                                <g id="Clip-1305"></g>
                                                <polygon id="Fill-1304" fill="url(#linearGradient-20)" mask="url(#mask-39)" points="0 0.663442191 3.38439203 2.61817312 3.38439203 1.95473093 0 0"></polygon>
                                            </g>
                                            <g id="编组" transform="translate(0.000000, 6.544297)">
                                                <mask id="mask-41" fill="white">
                                                    <use xlink:href="#path-40"></use>
                                                </mask>
                                                <g id="Clip-1307"></g>
                                                <polygon id="Fill-1306" fill="url(#linearGradient-23)" mask="url(#mask-41)" points="0 0.663442191 3.38439203 2.61817312 3.38439203 1.95473093 0 0"></polygon>
                                            </g>
                                            <g id="编组" transform="translate(0.000000, 7.853762)">
                                                <mask id="mask-43" fill="white">
                                                    <use xlink:href="#path-42"></use>
                                                </mask>
                                                <g id="Clip-1309"></g>
                                                <polygon id="Fill-1308" fill="url(#linearGradient-26)" mask="url(#mask-43)" points="0 0.663442191 3.38439203 2.61741577 3.38439203 1.95397358 0 0"></polygon>
                                            </g>
                                            <g id="编组" transform="translate(0.000000, 9.162470)">
                                                <mask id="mask-45" fill="white">
                                                    <use xlink:href="#path-44"></use>
                                                </mask>
                                                <g id="Clip-1311"></g>
                                                <polygon id="Fill-1310" fill="url(#linearGradient-29)" mask="url(#mask-45)" points="0 0.663442191 3.38439203 2.61741577 3.38439203 1.95397358 0 0"></polygon>
                                            </g>
                                        </g>
                                    </g>
                                    <polygon id="矩形备份-79" fill="#1E1E1E" points="2.28513247e-13 36.73471 8.04009511 41.448998 8.04009511 43.8825277 2.28513247e-13 39.1682397"></polygon>
                                </g>
                                <polygon id="矩形备份-82" fill="#F1F1F1" points="0 8.11176561 13.9599049 0 22 4.71428802 8.04009511 12.8260536"></polygon>
                            </g>
                        </g>
                    </g>
                </g>
            </g>
        </g>
    </g>
</svg>