<?xml version="1.0" encoding="UTF-8"?>
<svg width="70px" height="81px" viewBox="0 0 70 81" version="1.1" xmlns="http://www.w3.org/2000/svg" xmlns:xlink="http://www.w3.org/1999/xlink">
    <title>配电房</title>
    <g id="能源云系统V1.0" stroke="none" stroke-width="1" fill="none" fill-rule="evenodd">
        <g id="1.站控系统（站点）首页" transform="translate(-921.000000, -422.000000)">
            <g id="content" transform="translate(440.000000, 336.000000)">
                <g id="配电房" transform="translate(481.000000, 86.393053)">
                    <polygon id="投影备份" fill="#0C1218" opacity="0.300000012" points="40.0883011 79.9912204 -6.68686484e-13 56.5419612 29.8429663 39.2599427 70 62.9173879"></polygon>
                    <g id="配电房2" transform="translate(3.219596, 0.000000)">
                        <polygon id="Fill-1" fill="#000000" points="36.2931841 77.336278 0 56.6002251 24.4840295 42.614323 60.7711169 63.3473597"></polygon>
                        <polygon id="Fill-3" fill="#E6E7E8" points="18.7227227 38.0433429 55.0159068 58.7733634 60.7711169 55.4284496 24.4748845 34.6923967"></polygon>
                        <polygon id="Fill-4" fill="#BCBEC0" points="18.7221131 45.9022315 55.0152972 66.6352682 55.0152972 58.7751731 18.7221131 38.0451526"></polygon>
                        <polygon id="Fill-5" fill="#A7A9AC" points="55.0162117 58.7742683 55.0162117 66.6343634 60.7714218 63.3497726 60.7714218 55.4263383"></polygon>
                        <polygon id="Fill-6" fill="#E6E7E8" points="9.36136136 43.3897759 45.6545455 64.1197965 51.4097556 60.7778988 15.1135232 40.0448621"></polygon>
                        <polygon id="Fill-7" fill="#BCBEC0" points="9.36136136 51.2510775 45.6545455 71.9871304 45.6545455 64.121003 9.36136136 43.3909824"></polygon>
                        <polygon id="Fill-8" fill="#A7A9AC" points="51.4097556 60.7766924 45.6545455 64.11859 45.6545455 71.9877336 51.4097556 68.6971105"></polygon>
                        <polygon id="Fill-9" fill="#E6E7E8" points="0.000609662089 48.7416381 36.2937938 69.4686425 42.0490039 66.1237287 5.75581977 45.3906919"></polygon>
                        <polygon id="Fill-10" fill="#BCBEC0" points="0.00121932418 56.5999235 36.2913551 77.3359764 36.2913551 69.469849 0.00121932418 48.7428445"></polygon>
                        <polygon id="Fill-11" fill="#A7A9AC" points="36.2919648 69.4695473 36.2919648 77.3356747 42.0471749 74.0450517 42.0471749 66.1216173"></polygon>
                        <polygon id="Fill-12" fill="#3576AB" points="2.10272454 15.4963916 36.1828353 34.962644 58.715946 22.0384278 24.6388836 2.56915925"></polygon>
                        <polygon id="Fill-13" fill="#2B5E85" points="2.10394387 48.7033329 36.1840546 68.1695853 36.1840546 34.9617392 2.10394387 15.4954868"></polygon>
                        <polygon id="Fill-14" fill="#174666" points="36.1822256 34.9623424 36.1822256 68.1701886 58.7183847 55.3032792 58.7183847 22.0381262"></polygon>
                        <polygon id="Fill-15" fill="#E6E7E8" points="2.10272454 14.1092628 36.1828353 33.5785314 58.715946 20.6543151 24.6388836 1.18806272"></polygon>
                        <polygon id="Fill-16" fill="#BCBEC0" points="2.10394387 15.49609 36.1840546 34.9623424 36.1840546 33.5779281 2.10394387 14.1086596"></polygon>
                        <polygon id="Fill-17" fill="#A7A9AC" points="36.1822256 33.5779281 36.1822256 34.9623424 58.7183847 22.0863846 58.7183847 20.6537119"></polygon>
                        <polygon id="Fill-18" fill="#174666" points="47.4496955 22.3614578 36.1861884 32.3931832 36.1831401 33.5785314 58.7162509 20.6543151 58.7162509 19.4689669"></polygon>
                        <polygon id="Fill-19" fill="#2B5E85" points="2.10394387 14.1089612 36.1840546 33.5782297 36.1840546 32.3928816 2.10394387 12.9266292"></polygon>
                        <polygon id="Fill-20" fill="#2B5E85" points="13.3701944 2.89550702 27.230862 14.356889 47.4503052 22.3617594 58.7168605 19.4662524 24.6367498 0"></polygon>
                        <polygon id="Fill-21" fill="#3576AB" points="36.1858836 32.3943896 2.10272454 12.9281372 13.3723282 2.89641187 47.4493907 22.3626643"></polygon>
                        <polygon id="Fill-22" fill="#A7A9AC" points="57.586547 24.5388188 37.3122343 36.163073 37.3122343 66.6352682 57.586547 55.0532401"></polygon>
                        <polygon id="Fill-23" fill="#535359" points="47.3015476 30.4399224 47.3015476 60.9271984 47.5972337 60.7552777 47.5972337 30.2619694"></polygon>
                        <path d="M39.6435821,44.5739177 C39.1192727,44.8725168 38.9241808,44.5739177 39.2076737,43.9073478 L41.9450565,37.5010385 C42.2315977,36.8344687 42.6949409,36.5690472 42.9784337,36.9128887 L45.7127682,40.1914471 C45.9993094,40.5292563 45.8042175,41.0540669 45.2799081,41.3526661 L39.6435821,44.5739177 Z" id="Fill-24" fill="#303033"></path>
                        <path d="M39.3725873,44.3027655 C39.3939255,44.3389593 39.4823265,44.3419755 39.6438869,44.2484747 L45.2771646,41.024207 C45.44787,40.9307063 45.5271261,40.8281571 45.5515126,40.7768825 C45.5728508,40.7195755 45.5667541,40.610994 45.4753048,40.5024125 L42.737922,37.2238541 C42.658666,37.1273372 42.5550234,37.1001918 42.4635741,37.1514664 C42.3660282,37.2087733 42.2684822,37.3475163 42.1861779,37.5405501 L39.4457468,43.9528917 C39.3573458,44.154974 39.3512491,44.2695878 39.3725873,44.3027655" id="Fill-26" fill="#FF9D26"></path>
                        <polygon id="Fill-28" fill="#303033" points="43.2216889 40.1968762 42.5205775 40.2843446 43.1089014 38.2393928 41.7036303 40.7608968 42.4047417 40.6764446 41.8164178 42.7213964"></polygon>
                        <polygon id="Fill-30" fill="#E6E7E8" points="46.8147324 45.7990791 46.1258143 46.191179 46.1319109 49.5451413 46.820829 49.1500252"></polygon>
                        <polygon id="Fill-32" fill="#FFFFFF" points="46.4650912 45.5957903 45.7731247 45.9909064 46.1236804 46.1899725 46.8156469 45.7978726"></polygon>
                        <polygon id="Fill-34" fill="#BCBEC0" points="46.1316061 49.5457445 46.1255094 46.1917822 45.7749537 45.9896999 45.7749537 49.3436622"></polygon>
                        <polygon id="Fill-36" fill="#E6E7E8" points="49.4076253 44.3175446 48.7156588 44.7126607 48.7248037 48.0636068 49.4137219 47.6715069"></polygon>
                        <polygon id="Fill-38" fill="#FFFFFF" points="49.0518875 44.1142559 48.3660176 44.5123881 48.7165733 44.7114542 49.4085398 44.3163382"></polygon>
                        <polygon id="Fill-40" fill="#BCBEC0" points="48.7244989 48.0642101 48.7184023 44.7132639 48.3647983 44.5111817 48.3647983 47.8591117"></polygon>
                        <polygon id="Fill-42" fill="#D1D3D4" points="3.04008 17.8408475 27.1887953 31.6819743 27.1887953 62.1511533 3.04008 48.358285"></polygon>
                        <path d="M19.2878795,36.9068564 C18.7574735,36.5961926 18.5623816,36.0743981 18.8458745,35.7245243 L21.6167887,32.4067559 C21.9063782,32.0598983 22.375818,32.3283359 22.6654075,33.0039542 L25.43937,39.4886834 C25.7198145,40.1612856 25.5247226,40.4659171 24.9943166,40.1612856 L19.2878795,36.9068564 Z" id="Fill-44" fill="#303033"></path>
                        <path d="M19.0153605,36.3147855 C19.0366987,36.3781247 19.1220514,36.4776578 19.2866602,36.5681424 L24.9961456,39.8316201 C25.1638027,39.928137 25.2461071,39.9221047 25.2704936,39.888927 C25.2887834,39.8557493 25.2826868,39.7441516 25.1912375,39.5300047 L22.4203233,33.0452755 C22.3380189,32.8522417 22.2374247,32.7074663 22.1398787,32.6501594 C22.0453811,32.5988848 21.9478352,32.623014 21.8624825,32.7255632 L19.0915683,36.0403156 C19.000119,36.1519132 18.9940224,36.2574786 19.0153605,36.3147855" id="Fill-46" fill="#FF9D26"></path>
                        <polygon id="Fill-48" fill="#303033" points="22.7855109 36.3796328 22.1179309 35.694966 22.67882 34.4010363 21.3406117 35.2636561 22.0051434 35.9422906 21.4503509 37.2452687"></polygon>
                        <polygon id="Fill-50" fill="#BCBEC0" points="3.8481871 19.6315376 16.8553278 27.1055651 16.8553278 54.833061 3.8481871 47.4042758"></polygon>
                        <path d="M11.6207691,27.6255499 L8.65781131,25.933488 C8.59074848,25.8972941 8.5358789,25.9304718 8.5358789,26.0058757 C8.5358789,26.0812795 8.59074848,26.1808125 8.65781131,26.2170064 L11.6207691,27.9090683 C11.6908802,27.942246 11.7427015,27.9151006 11.7427015,27.8336645 C11.7427015,27.7582606 11.6908802,27.6647599 11.6207691,27.6255499" id="Fill-52" fill="#303033"></path>
                        <path d="M11.6207691,28.5415556 L8.65781131,26.8464775 C8.59074848,26.8102837 8.5358789,26.8434614 8.5358789,26.9218814 C8.5358789,26.994269 8.59074848,27.0907859 8.65781131,27.1269798 L11.6207691,28.8190417 C11.6908802,28.8582517 11.7427015,28.8280902 11.7427015,28.7496702 C11.7427015,28.6712502 11.6908802,28.5807656 11.6207691,28.5415556" id="Fill-54" fill="#303033"></path>
                        <path d="M11.6207691,29.4518306 L8.65781131,27.7597687 C8.59074848,27.7235749 8.5358789,27.7537364 8.5358789,27.8291402 C8.5358789,27.9105764 8.59074848,28.0040771 8.65781131,28.0372548 L11.6207691,29.7323329 C11.6908802,29.7715429 11.7427015,29.7383652 11.7427015,29.6659775 C11.7427015,29.5875575 11.6908802,29.4940568 11.6207691,29.4518306" id="Fill-56" fill="#303033"></path>
                        <path d="M11.6207691,30.3648202 L8.65781131,28.6727583 C8.59074848,28.6365644 8.5358789,28.666726 8.5358789,28.7481621 C8.5358789,28.8235659 8.59074848,28.9170667 8.65781131,28.9532605 L11.6207691,30.6483386 C11.6908802,30.6875486 11.7427015,30.6543709 11.7427015,30.5729347 C11.7427015,30.5035632 11.6908802,30.4100625 11.6207691,30.3648202" id="Fill-58" fill="#303033"></path>
                        <polygon id="Fill-60" fill="#E6E7E8" points="14.1868368 39.3013803 14.8788033 39.6904641 14.8727066 43.0444264 14.1837885 42.6523265"></polygon>
                        <polygon id="Fill-62" fill="#FFFFFF" points="14.5425746 39.0980916 15.2345411 39.4932077 14.8778888 39.6892576 14.1859223 39.3001739"></polygon>
                        <polygon id="Fill-64" fill="#A7A9AC" points="14.8730115 43.0450296 14.8791081 39.6910673 15.2327121 39.4920012 15.2327121 42.8459635"></polygon>
                        <polygon id="Fill-66" fill="#BCBEC0" points="22.7498457 57.2806692 22.7498457 42.5467611 18.2505394 39.9800148 18.2505394 54.7199552"></polygon>
                        <polygon id="Fill-68" fill="#E6E7E8" points="21.5488113 46.4647441 19.4546221 45.2703474 19.4546221 42.1818066 21.5488113 43.3731871"></polygon>
                        <polygon id="Fill-70" fill="#A7A9AC" points="24.2383356 56.4500207 24.2383356 41.7100802 22.7507601 42.5485708 22.7507601 57.2794628"></polygon>
                        <polygon id="Fill-72" fill="#E6E7E8" points="18.2502346 39.9788083 22.7495408 42.5485708 24.2371163 41.7100802 19.746955 39.1463501"></polygon>
                    </g>
                </g>
            </g>
        </g>
    </g>
</svg>