<?xml version="1.0" encoding="UTF-8"?>
<svg width="29px" height="51px" viewBox="0 0 29 51" version="1.1" xmlns="http://www.w3.org/2000/svg" xmlns:xlink="http://www.w3.org/1999/xlink">
    <title>储能并网计量柜</title>
    <defs>
        <path d="M0.0661093437,1.95056177 C0.0714147022,1.96140595 0.0905139929,1.96140595 0.128712574,1.93610288 L1.3988154,1.10351138 C1.43489184,1.07820831 1.45399113,1.05411015 1.45823542,1.03724144 C1.46354078,1.02398745 1.46141863,0.995069653 1.44338041,0.968561675 L0.825836683,0.120306375 C0.806737393,0.0950033047 0.785515959,0.0877738561 0.762172381,0.101027845 C0.742012019,0.11669165 0.719729513,0.154043801 0.701691294,0.202240125 L0.083086491,1.86019367 C0.0629261286,1.91441453 0.0618650569,1.94092251 0.0661093437,1.95056177" id="path-1"></path>
    </defs>
    <g id="能源云系统V1.0" stroke="none" stroke-width="1" fill="none" fill-rule="evenodd">
        <g id="1.站控系统（站点）首页" transform="translate(-1100.000000, -491.000000)">
            <g id="content" transform="translate(440.000000, 336.000000)">
                <g id="储能并网计量柜" transform="translate(660.163572, 155.385481)">
                    <g id="基座" transform="translate(0.000000, 33.331167)">
                        <polygon id="投影" fill="#0C1218" opacity="0.300000012" points="15.8258386 16.8270604 1.16903494e-12 7.29760913 12.6296119 1.00850198e-12 28.5842111 9.34861837"></polygon>
                        <polygon id="Fill-1" fill="#E6E7E8" transform="translate(13.723630, 6.851722) scale(-1, 1) translate(-13.723630, -6.851722) " points="2.043463 8.05749149 11.6214208 13.7034434 25.4037964 5.51577843 15.7514492 2.11508299e-12"></polygon>
                        <polygon id="Fill-2" fill="#BCBEC0" transform="translate(20.614818, 11.824288) scale(-1, 1) translate(-20.614818, -11.824288) " points="15.8258386 9.94200105 25.4037964 15.5914328 25.4037964 13.7065752 15.8258386 8.05714352"></polygon>
                        <polygon id="Fill-3" fill="#A7A9AC" transform="translate(8.935343, 10.555172) scale(-1, 1) translate(-8.935343, -10.555172) " points="2.04415537 13.7048353 2.04415537 15.5931727 15.826531 7.41594705 15.826531 5.51717035"></polygon>
                    </g>
                    <g id="光伏并网计量柜" transform="translate(4.000000, 0.000000)">
                        <g id="并网计量柜备份" transform="translate(0.000000, 4.821717)">
                            <g id="编组-84">
                                <polygon id="矩形" fill="#DEDEDE" points="0 0 11.5637017 6.61240385 11.5637017 41.1732347 6.19727559e-15 34.5608308"></polygon>
                                <path d="M0.335456723,1.54487104 L11.228245,7.77363038 L11.228245,40.9508444 L0.335456723,34.7220851 L0.335456723,1.54487104 Z" id="矩形备份-99" stroke="#767779" stroke-width="0.1"></path>
                                <polygon id="矩形备份-101" fill="#767779" points="0.385456723 4.54051731 11.178245 10.7120942 11.178245 10.888425 0.385456723 4.71684808"></polygon>
                                <polygon id="矩形备份-102" fill="#767779" points="0.385456723 10.8002596 11.178245 16.9718366 11.178245 17.1481673 0.385456723 10.9765904"></polygon>
                                <polygon id="矩形备份-103" fill="#767779" points="0.385456723 22.8789173 11.178245 29.0504943 11.178245 29.226825 0.385456723 23.0552481"></polygon>
                                <polygon id="矩形备份-104" fill="#767779" points="0.385456723 32.7534404 11.178245 38.9250174 11.178245 39.1013481 0.385456723 32.9297712"></polygon>
                                <polygon id="矩形备份-105" fill="#767779" points="0.385456723 34.573959 11.178245 40.7455359 11.178245 40.9218667 0.385456723 34.7502898"></polygon>
                                <polygon id="矩形备份-83" fill="#3F3F3F" points="0 0 11.5637017 6.61240385 11.5637017 7.84671924 0 1.23431539"></polygon>
                                <polygon id="矩形备份-92" fill="#303033" points="2.54401437 34.3404174 8.94259598 37.9992808 8.94259598 38.0874462 2.54401437 34.4285827"></polygon>
                                <polygon id="矩形备份-93" fill="#303033" points="2.54401437 34.5167481 8.94259598 38.1756116 8.94259598 38.263777 2.54401437 34.6049135"></polygon>
                                <polygon id="矩形备份-94" fill="#303033" points="2.54401437 34.6930789 8.94259598 38.3519424 8.94259598 38.4401077 2.54401437 34.7812443"></polygon>
                                <polygon id="矩形备份-95" fill="#303033" points="2.54401437 34.8694097 8.94259598 38.5282731 8.94259598 38.6164385 2.54401437 34.957575"></polygon>
                                <polygon id="矩形备份-96" fill="#303033" points="2.54401437 35.0457404 8.94259598 38.7046039 8.94259598 38.7927693 2.54401437 35.1339058"></polygon>
                                <polygon id="矩形备份-97" fill="#303033" points="2.54401437 35.2220712 8.94259598 38.8809347 8.94259598 38.9691 2.54401437 35.3102366"></polygon>
                                <polygon id="矩形备份-98" fill="#303033" points="2.54401437 35.398402 8.94259598 39.0572654 8.94259598 39.1454308 2.54401437 35.4865674"></polygon>
                                <path d="M10.6386056,9.08103463 C10.7237583,9.12972702 10.7927882,9.09025404 10.7927882,8.99286924 C10.7927882,8.89548445 10.7237583,8.77706549 10.6386056,8.72837309 C10.5534528,8.67968069 10.4844229,8.71915368 10.4844229,8.81653847 C10.4844229,8.91392327 10.5534528,9.03234223 10.6386056,9.08103463 Z" id="椭圆形" fill="#474D4E"></path>
                                <path d="M10.6386056,12.2549885 C10.7237583,12.3036809 10.7927882,12.2642079 10.7927882,12.1668231 C10.7927882,12.0694383 10.7237583,11.9510193 10.6386056,11.9023269 C10.5534528,11.8536345 10.4844229,11.8931075 10.4844229,11.9904923 C10.4844229,12.0878771 10.5534528,12.2062961 10.6386056,12.2549885 Z" id="椭圆形备份-71" fill="#474D4E"></path>
                                <path d="M10.6386056,18.6028962 C10.7237583,18.6515886 10.7927882,18.6121156 10.7927882,18.5147308 C10.7927882,18.417346 10.7237583,18.298927 10.6386056,18.2502346 C10.5534528,18.2015422 10.4844229,18.2410152 10.4844229,18.3384 C10.4844229,18.4357848 10.5534528,18.5542038 10.6386056,18.6028962 Z" id="椭圆形备份-72" fill="#474D4E"></path>
                                <path d="M10.6386056,27.5957654 C10.7237583,27.6444578 10.7927882,27.6049848 10.7927882,27.5076 C10.7927882,27.4102152 10.7237583,27.2917963 10.6386056,27.2431039 C10.5534528,27.1944115 10.4844229,27.2338845 10.4844229,27.3312693 C10.4844229,27.4286541 10.5534528,27.547073 10.6386056,27.5957654 Z" id="椭圆形备份-73" fill="#474D4E"></path>
                                <path d="M10.6386056,30.5933885 C10.7237583,30.6420809 10.7927882,30.6026079 10.7927882,30.5052231 C10.7927882,30.4078383 10.7237583,30.2894194 10.6386056,30.240727 C10.5534528,30.1920346 10.4844229,30.2315076 10.4844229,30.3288923 C10.4844229,30.4262771 10.5534528,30.5446961 10.6386056,30.5933885 Z" id="椭圆形备份-74" fill="#474D4E"></path>
                                <path d="M10.6386056,37.3821231 C10.7237583,37.4308155 10.7927882,37.3913425 10.7927882,37.2939577 C10.7927882,37.1965729 10.7237583,37.078154 10.6386056,37.0294616 C10.5534528,36.9807692 10.4844229,37.0202422 10.4844229,37.117627 C10.4844229,37.2150118 10.5534528,37.3334307 10.6386056,37.3821231 Z" id="椭圆形备份-75" fill="#474D4E"></path>
                                <polygon id="矩形备份-84" fill="#35353F" points="5.0109374 5.06950962 6.55276429 5.95116347 6.55276429 7.00914809 5.0109374 6.12749424"></polygon>
                                <g id="编组-85" transform="translate(1.850192, 12.245424)">
                                    <path d="M0.462548068,0.979383694 L7.40076908,4.94682601 C7.65622733,5.0929032 7.86331715,5.44816008 7.86331715,5.74031447 L7.86331715,14.3805222 C7.86331715,14.6726766 7.65622733,14.7910955 7.40076908,14.6450183 L0.462548068,10.677576 C0.207089824,10.5314988 0,10.1762419 0,9.88408755 L0,1.24387985 C0,0.951725464 0.207089824,0.833306502 0.462548068,0.979383694 Z" id="矩形备份-85" fill="#38373E"></path>
                                    <polygon id="Fill-115" fill="#4E4D54" transform="translate(1.902650, 3.456855) scale(-1, 1) translate(-1.902650, -3.456855) " points="2.89654361e-14 2.8907642 0.901518273 2.3785458 3.80530026 3.63565675 3.80530026 4.53516432"></polygon>
                                    <polygon id="Fill-119" fill="#4E4D54" transform="translate(3.634337, 6.211229) scale(-1, 1) translate(-3.634337, -6.211229) " points="-2.63294699e-14 4.87104734 7.26867312 8.30778388 7.26867312 6.78116742 1.32253822 4.1146737"></polygon>
                                </g>
                                <path d="M0.661454533,1.28304461 C0.71973559,1.31637113 0.764834026,1.31359392 0.796749843,1.27629996 C0.825890371,1.24059298 0.840460635,1.17830414 0.840460635,1.09102041 C0.840460635,1.00294319 0.825890371,0.924784573 0.796749843,0.855751077 C0.764834026,0.781163161 0.71973559,0.72760269 0.661454533,0.694276175 C0.603173477,0.660949659 0.55807504,0.66293338 0.526159223,0.701020827 C0.497018695,0.735934319 0.482448431,0.797429675 0.482448431,0.886300383 C0.482448431,0.974377602 0.497018695,1.05253622 0.526159223,1.12156971 C0.55807504,1.19536414 0.603173477,1.2497181 0.661454533,1.28304461 Z M0.661454533,1.21004368 C0.620519029,1.18663577 0.592072323,1.14418413 0.575420593,1.08387901 C0.562931795,1.04103063 0.557381218,0.989453883 0.557381218,0.92914876 C0.557381218,0.868050148 0.562931795,0.822821306 0.575420593,0.795049209 C0.592072323,0.752994321 0.620519029,0.743869204 0.661454533,0.767277113 C0.701696215,0.790288279 0.730836743,0.832343167 0.747488474,0.893441779 C0.759283449,0.935099923 0.765527848,0.987073417 0.765527848,1.04817203 C0.765527848,1.10847715 0.759283449,1.15330925 0.747488474,1.18227158 C0.730836743,1.22353298 0.701696215,1.23305484 0.661454533,1.21004368 Z M0.933124432,1.43125063 C0.947000874,1.43918551 0.959489671,1.44077249 0.969897003,1.4364083 C0.979610512,1.43006039 0.985161089,1.41895155 0.985161089,1.40308179 C0.985161089,1.38562504 0.979610512,1.36816829 0.969897003,1.35150504 C0.959489671,1.33444503 0.947000874,1.32174922 0.933124432,1.31381433 C0.917860345,1.30508596 0.90606537,1.30389573 0.897045682,1.30984689 C0.886638351,1.31500457 0.881781596,1.32651015 0.881781596,1.34396689 C0.881781596,1.35983666 0.886638351,1.37689667 0.897045682,1.39475016 C0.90606537,1.41022318 0.917860345,1.42252225 0.933124432,1.43125063 Z M1.32413173,1.6508706 L1.32413173,1.52787989 L1.39906452,1.57072826 L1.39906452,1.50169477 L1.32413173,1.45884639 L1.32413173,1.08431984 L1.25474952,1.04464541 L1.01052414,1.26682218 L1.01052414,1.34855149 L1.25197423,1.48661849 L1.25197423,1.6096092 L1.32413173,1.6508706 Z M1.25197423,1.41758499 L1.07227431,1.31482823 L1.24989277,1.15136961 L1.25197423,1.15255984 L1.25197423,1.41758499 Z M1.49727889,1.74988033 L1.49727889,1.60625891 L1.5382144,1.58602496 L1.66726531,1.84708266 L1.76162511,1.90103988 L1.58886341,1.56103007 L1.74774867,1.48287146 L1.65269504,1.4285175 L1.49727889,1.50865983 L1.49727889,1.17222073 L1.42373375,1.13016584 L1.42373375,1.70782544 L1.49727889,1.74988033 Z M2.00346066,2.03932728 L2.18107912,1.57434304 L2.09920811,1.52752723 L1.95905605,1.91713006 L1.95697458,1.91593983 L1.81612869,1.36565558 L1.73425769,1.31883976 L1.91187614,1.98695705 L2.00346066,2.03932728 Z" id="0.4kV" fill="#FFFFFF" fill-rule="nonzero"></path>
                                <path d="M3.94341076,3.15508619 L3.94341076,2.66698032 C3.95844618,2.63322084 3.97116845,2.59594475 3.98157759,2.55585536 L3.93184505,2.49747959 C3.91160506,2.58785654 3.87979936,2.65854045 3.83642796,2.70953134 L3.85493309,2.7925234 C3.86707709,2.78021526 3.87864279,2.76755545 3.8902085,2.753489 L3.8902085,3.12273335 L3.94341076,3.15508619 Z M4.19959118,3.30805885 L4.19959118,3.28133259 L4.29327341,3.33830172 L4.29327341,3.36502798 L4.34474081,3.39632583 L4.34474081,3.07561074 L4.23775802,3.0105534 C4.25163687,3.00211353 4.26551572,2.99297034 4.27881628,2.98136551 L4.36960708,3.03657634 L4.36960708,2.97609059 L4.31466997,2.94268277 C4.33780139,2.91314322 4.35919795,2.87621879 4.37770308,2.83261279 L4.33259682,2.77634698 C4.32392254,2.79779832 4.31409169,2.81713969 4.30368255,2.8361294 L4.30368255,2.8016666 L4.24296259,2.76474216 L4.24296259,2.68808 L4.19265176,2.65748547 L4.19265176,2.73414763 L4.12788379,2.69476157 L4.12788379,2.75173069 L4.19265176,2.79111676 L4.19265176,2.86848224 L4.11920951,2.82382126 L4.11920951,2.884307 L4.21000032,2.93951782 C4.17472491,2.96026584 4.13482322,2.96976069 4.08971696,2.96765072 L4.11747466,3.03657634 C4.12730551,3.036928 4.13771465,3.036928 4.14812378,3.03622467 L4.14812378,3.27676099 L4.19959118,3.30805885 Z M4.0642724,2.75735728 L4.10533066,2.73238932 C4.08219925,2.68315674 4.05444155,2.63111087 4.02147928,2.57590005 L3.98389073,2.59735139 C4.01858786,2.65783713 4.04518898,2.71128965 4.0642724,2.75735728 Z M4.25279344,2.90505502 L4.24296259,2.89907677 L4.24296259,2.82171129 L4.29442998,2.85300914 C4.28170771,2.87270218 4.26782886,2.89028524 4.25279344,2.90505502 Z M4.02784042,3.18603238 C4.06195926,3.17020762 4.09434324,3.14840462 4.12441408,3.12027172 L4.11111352,3.04677451 L4.08472657,3.06803048 C4.08052865,3.07131266 4.07641639,3.07443853 4.0723684,3.07736905 L4.0723684,2.79744666 L3.96018103,2.72922437 L3.96018103,2.79111676 L4.01916614,2.82698621 L4.01916614,3.08932553 C4.01916614,3.10057869 4.01453986,3.10831524 4.00644386,3.11183185 L4.02784042,3.18603238 Z M4.29327341,3.1631744 L4.19959118,3.10620527 L4.19959118,3.04571953 L4.29327341,3.10268866 L4.29327341,3.1631744 Z M4.29327341,3.28062927 L4.19959118,3.22366014 L4.19959118,3.16106443 L4.29327341,3.21803356 L4.29327341,3.28062927 Z M4.67262863,3.18146079 L4.71773489,3.1695043 L4.70001878,3.12188752 C4.69675476,3.11345175 4.69333394,3.10476684 4.68975464,3.09583383 L4.66636359,3.0392666 L4.66636359,3.0392666 L4.63908807,2.97679392 L4.63908807,2.97679392 L4.59687324,2.98347548 C4.60843895,3.01090506 4.61942637,3.03727966 4.62983551,3.06330259 C4.58299439,3.04185126 4.5390447,3.02075158 4.49856473,2.99894858 C4.52863556,2.98206884 4.55581498,2.95288095 4.58010296,2.90997827 L4.52747899,2.85898739 C4.50897386,2.89556016 4.48179445,2.92685801 4.44651904,2.95323261 C4.43957962,2.9560459 4.43148362,2.95674922 4.42165277,2.95499092 L4.43668819,3.01969659 C4.46834931,3.03684008 4.49830269,3.05254945 4.52654832,3.0668247 L4.58076257,3.09346304 C4.6067312,3.10582614 4.63099208,3.11675511 4.65354521,3.12624996 C4.66048463,3.14523967 4.66684577,3.16387772 4.67262863,3.18146079 Z M4.87791994,3.38436935 C4.89873821,3.39702915 4.91435192,3.40089743 4.92476105,3.39667749 C4.93517019,3.39105091 4.94326619,3.36080804 4.94789247,3.30524556 L4.89642507,3.25355135 L4.895142,3.27940944 C4.89346136,3.30212456 4.89064222,3.31544374 4.8871725,3.31966367 C4.88312451,3.32423527 4.87676337,3.32388361 4.8675108,3.31825703 L4.79869484,3.27640933 C4.78481599,3.26796946 4.77787657,3.25179304 4.77787657,3.22928672 L4.77787657,3.15895446 C4.8397531,3.18532906 4.89411193,3.20572541 4.94153133,3.22119851 L4.92360448,3.15121792 C4.91420734,3.14866837 4.90412349,3.14561331 4.89335293,3.14207472 L4.85898109,3.13003032 L4.85898109,3.13003032 L4.82048897,3.11521659 L4.77787657,3.0977654 L4.77787657,3.01477334 L4.72351774,2.98171718 L4.72351774,3.21029701 C4.72351774,3.26374953 4.74317944,3.30243227 4.78365942,3.32704856 L4.87791994,3.38436935 Z M4.50839558,3.49865927 L4.50839558,3.36713794 L4.62752237,3.43958017 L4.62752237,3.47896623 C4.62752237,3.49725262 4.62058294,3.50217588 4.60728238,3.49408767 L4.56622411,3.46630643 L4.57952468,3.53699035 L4.62463094,3.56441993 C4.6616412,3.58692625 4.68072462,3.57391478 4.68072462,3.52538552 L4.68072462,3.1976372 L4.45519332,3.0604893 L4.45519332,3.46630643 L4.50839558,3.49865927 Z M4.62752237,3.27781598 L4.50839558,3.20537375 L4.50839558,3.15121792 L4.62752237,3.22366014 L4.62752237,3.27781598 Z M4.87849822,3.711766 C4.89989478,3.72477747 4.91550849,3.72864575 4.92533934,3.72407415 C4.93574848,3.71915089 4.94326619,3.68855636 4.94789247,3.63229055 L4.89815993,3.58235465 L4.89654253,3.60800944 C4.89461793,3.63057621 4.89179879,3.64389538 4.88832907,3.64811531 C4.88428108,3.65198359 4.87734165,3.65128026 4.86808909,3.64565368 L4.79811655,3.60310267 C4.7842377,3.5946628 4.77787657,3.58446462 4.77787657,3.57180481 L4.77787657,3.48599946 C4.8357051,3.51413236 4.89064222,3.53628702 4.94153133,3.55035347 L4.92360448,3.47966956 C4.88081136,3.46911972 4.83223539,3.45153665 4.77787657,3.42551372 L4.77787657,3.34814823 L4.72351774,3.31509207 L4.72351774,3.55351843 C4.72351774,3.59571778 4.74317944,3.62947726 4.78250285,3.65339023 L4.87849822,3.711766 Z M4.62752237,3.38401769 L4.50839558,3.31157546 L4.50839558,3.26023291 L4.62752237,3.33267514 L4.62752237,3.38401769 Z M5.04388784,3.82640758 C5.09824667,3.82711091 5.13757007,3.80530791 5.16185806,3.76029526 C5.17342377,3.73638229 5.18325462,3.70578776 5.19019404,3.66780834 L5.33765682,3.75748197 L5.33765682,3.99801829 L5.39317221,4.03177777 L5.39317221,3.79124145 L5.524443,3.87106857 L5.524443,3.80706621 L5.39317221,3.7272391 L5.39317221,3.57743139 L5.50188987,3.64354371 L5.50188987,3.57954136 L5.38334136,3.5074508 C5.40068992,3.4856478 5.41630363,3.45856988 5.43076076,3.4265687 L5.37177565,3.36537964 C5.35674023,3.40406238 5.33881339,3.43817352 5.31915168,3.46841639 L5.17168891,3.37874277 L5.20985575,3.37944609 C5.19308547,3.3284552 5.17573691,3.27992595 5.15838835,3.23561662 L5.10749923,3.23420998 C5.1248478,3.27570601 5.14161807,3.32107032 5.15723178,3.36995123 L5.02943071,3.29223409 L5.02943071,3.35623644 L5.14682264,3.42762369 L5.14682264,3.49303268 C5.14566607,3.52186891 5.14393121,3.54894683 5.14161807,3.57426644 L5.00572101,3.49162604 L5.00572101,3.55562839 L5.13236551,3.63264222 C5.12773922,3.65163192 5.12253465,3.66886333 5.1167518,3.6836331 C5.09824667,3.72301917 5.06297126,3.74376718 5.01208215,3.74517383 L5.04388784,3.82640758 Z M5.33765682,3.69347962 L5.19771175,3.60837759 C5.2000249,3.58305797 5.20118147,3.55562839 5.20175975,3.52644051 L5.20175975,3.46103151 L5.33765682,3.54367191 L5.33765682,3.69347962 Z M5.66149663,4.19846522 L5.66149663,3.63791713 L6.02465985,3.85876042 L6.02465985,4.3285799 C6.02465985,4.34475632 6.01714214,4.34862459 6.00326329,4.34018472 L5.94890447,4.30431527 L5.9633616,4.37781248 L6.02119014,4.41297861 C6.05935698,4.43618825 6.07901868,4.42423177 6.07901868,4.37640583 L6.07901868,3.82781423 L5.60713781,3.54085862 L5.60713781,4.16540906 L5.66149663,4.19846522 Z M5.70544632,4.14290274 C5.73204745,4.11265987 5.75517886,4.07186716 5.77484057,4.02052461 C5.79045427,4.05674573 5.80548969,4.09402182 5.82052511,4.13270456 L5.85695709,4.11125322 L5.82486225,4.03318442 L5.82486225,4.03318442 L5.79450227,3.96144552 L5.79450227,3.96144552 C5.80838112,3.91150961 5.81936854,3.8534855 5.82804282,3.78842816 L5.77773199,3.74728379 C5.77194914,3.79370308 5.76443143,3.8362541 5.75575715,3.8752885 L5.73042362,3.82173471 C5.72636175,3.81330046 5.72237389,3.80510816 5.7184508,3.79715218 L5.69561547,3.75220705 L5.69561547,3.75220705 L5.66207492,3.77190008 C5.68867604,3.82605592 5.7141206,3.88021176 5.73840859,3.93577424 C5.71990346,3.99133673 5.69735033,4.03599771 5.67017091,4.06940553 L5.70544632,4.14290274 Z M5.86216166,4.25508269 C5.89107593,4.22624647 5.9159422,4.18650874 5.93733876,4.13622118 C5.95410904,4.17877219 5.97087931,4.22272985 5.9870713,4.2677425 L6.02408157,4.2459395 L6.00694986,4.20148731 L6.00694986,4.20148731 L5.9739876,4.11785786 C5.96863846,4.10448375 5.9633616,4.09138436 5.95815703,4.07854873 C5.97434902,4.02579953 5.98764959,3.96425881 5.99805873,3.89392655 L5.94716961,3.85243052 C5.94023019,3.9016631 5.93155591,3.94773073 5.92114677,3.98922676 C5.9003285,3.9406975 5.88066679,3.89849815 5.86216166,3.86192537 L5.82804282,3.88056342 C5.85348738,3.93542258 5.87835365,3.99204005 5.90264164,4.05041582 C5.88240165,4.10562664 5.85753538,4.1495843 5.82746454,4.18264047 L5.86216166,4.25508269 Z M6.54569498,4.73756197 L6.54569498,4.35847111 L6.68910976,4.44568311 L6.68910976,4.37957079 L6.54569498,4.29235879 L6.54569498,4.08628527 L6.48902302,4.05182247 L6.48902302,4.25789598 L6.33751225,4.16576072 L6.33751225,4.23187305 L6.48902302,4.3240083 L6.48902302,4.70309917 L6.54569498,4.73756197 Z M6.29009284,4.08769192 L6.32768139,4.06413061 C6.30165855,4.01313973 6.26985286,3.95933555 6.23226431,3.90201476 L6.19409747,3.92452108 C6.23515573,3.98606181 6.26696143,4.04056931 6.29009284,4.08769192 Z M6.24267344,4.53078514 C6.28488828,4.52340025 6.32478997,4.50968546 6.36180023,4.48999243 L6.3473431,4.41297861 C6.32710311,4.42388011 6.30801969,4.43337496 6.28951456,4.44040819 L6.28951456,4.14079277 L6.15593064,4.05955902 L6.15593064,4.12356137 L6.23689059,4.17279395 L6.23689059,4.43161666 C6.23689059,4.44568311 6.23168602,4.45447464 6.22185517,4.45834291 L6.24267344,4.53078514 Z M7.1939529,4.67039467 L7.1939529,4.49175074 L6.80707998,4.25648934 L6.80707998,4.43513327 L7.1939529,4.67039467 Z M7.14132893,4.53008182 L6.85970395,4.35882277 L6.85970395,4.32717325 L7.14132893,4.4984323 L7.14132893,4.53008182 Z M7.14132893,4.60041407 L6.85970395,4.42915503 L6.85970395,4.39680219 L7.14132893,4.56806123 L7.14132893,4.60041407 Z M7.25987743,4.78784954 L7.25987743,4.7400236 L6.73942059,4.42352845 L6.73942059,4.47135438 L7.25987743,4.78784954 Z M7.25987743,5.15709389 L7.25987743,5.10645466 L7.02625014,4.9643835 L7.02625014,4.93132734 L7.2176626,5.04772723 L7.2176626,5.00482455 L7.02625014,4.88842467 L7.02625014,4.85747847 L7.20609689,4.96684513 L7.20609689,4.78398126 L6.7943577,4.53359843 L6.7943577,4.7164623 L6.97189131,4.82442231 L6.97189131,4.85536851 L6.78279199,4.74037526 L6.78279199,4.78327794 L6.97189131,4.89827118 L6.97189131,4.93132734 L6.73942059,4.78995951 L6.73942059,4.84059873 L7.25987743,5.15709389 Z M6.97189131,4.71470399 L6.84640338,4.63839349 L6.84640338,4.60463401 L6.97189131,4.68094451 L6.97189131,4.71470399 Z M7.15405121,4.8254773 L7.02625014,4.74776015 L7.02625014,4.71400067 L7.15405121,4.79171781 L7.15405121,4.8254773 Z M7.15405121,4.89580955 L7.02625014,4.81809241 L7.02625014,4.78433293 L7.15405121,4.86205007 L7.15405121,4.89580955 Z M6.97189131,4.78503625 L6.84640338,4.70872575 L6.84640338,4.67496627 L6.97189131,4.75127676 L6.97189131,4.78503625 Z M7.45418132,5.28580192 L7.45418132,4.94398715 L7.47055836,4.98534252 L7.49928758,5.06003537 L7.49928758,5.06003537 L7.53167156,5.02064931 C7.50507044,4.96579015 7.47962588,4.91515092 7.45418132,4.86873163 L7.45418132,4.83567547 L7.51894928,4.87506154 L7.51894928,4.81035586 L7.45418132,4.7709698 L7.45418132,4.6401518 L7.39924421,4.60674398 L7.39924421,4.73756197 L7.31944083,4.68903272 L7.31944083,4.75373839 L7.39519621,4.79980602 C7.37726937,4.87119326 7.3483551,4.92675575 7.30903169,4.96754846 L7.33274139,5.05581544 C7.35934252,5.01924266 7.38189565,4.975285 7.39924421,4.92253581 L7.39924421,5.2523941 L7.45418132,5.28580192 Z M7.83642796,5.49715035 L7.83642796,5.433148 L7.59528296,5.28650524 L7.59528296,5.1669404 L7.80404398,5.29389013 L7.80404398,5.04139733 L7.59528296,4.9144476 L7.59528296,4.81316915 L7.82659711,4.95383367 L7.82659711,4.88983131 L7.5420807,4.71681396 L7.5420807,5.31815476 L7.83642796,5.49715035 Z M7.75142001,5.20069989 L7.59528296,5.10575134 L7.59528296,4.97563666 L7.75142001,5.07058521 L7.75142001,5.20069989 Z" id="储能并网计量柜" fill="#FFFFFF" fill-rule="nonzero"></path>
                                <polygon id="矩形备份-86" fill="#BCBFC5" points="5.16512009 26.7581943 6.47567295 27.5076 6.47567295 29.094577 5.16512009 28.3451712"></polygon>
                                <polygon id="Fill-11" fill="#93979C" transform="translate(6.511799, 28.279822) scale(-1, 1) translate(-6.511799, -28.279822) " points="6.47567295 29.0520443 6.54792574 29.094577 6.54792574 27.5076 6.47567295 27.4650674"></polygon>
                                <polygon id="Fill-12" fill="#CCD0D4" transform="translate(5.856523, 27.111631) scale(-1, 1) translate(-5.856523, -27.111631) " points="5.23737288 27.5076 5.16512009 27.4650674 6.47567295 26.7156616 6.54792574 26.7581943"></polygon>
                                <path d="M4.7411177,29.3370318 C4.84755863,29.3978973 4.93384606,29.348556 4.93384606,29.226825 C4.93384606,29.105094 4.84755863,28.9570703 4.7411177,28.8962048 C4.63467676,28.8353393 4.54838933,28.8846806 4.54838933,29.0064116 C4.54838933,29.1281426 4.63467676,29.2761663 4.7411177,29.3370318 Z" id="椭圆形" stroke="#04010F" stroke-width="0.05" fill="#FFD438"></path>
                                <path d="M4.43275232,29.2929491 L5.04948307,29.6456106 C5.07077126,29.6577837 5.08802875,29.6873885 5.08802875,29.7117347 L5.08802875,29.8880654 C5.08802875,29.9124116 5.07077126,29.9222799 5.04948307,29.9101068 L4.43275232,29.5574452 C4.41146413,29.5452721 4.39420664,29.5156674 4.39420664,29.4913212 L4.39420664,29.3149904 C4.39420664,29.2906442 4.41146413,29.280776 4.43275232,29.2929491 Z" id="矩形" fill="#424242"></path>
                                <path d="" id="椭圆形" stroke="#04010F" stroke-width="0.05" fill="#34CC9E"></path>
                                <path d="M5.51203114,29.9101068 L6.1287619,30.2627683 C6.15005009,30.2749414 6.16730757,30.3045461 6.16730757,30.3288923 L6.16730757,30.5052231 C6.16730757,30.5295693 6.15005009,30.5394376 6.1287619,30.5272645 L5.51203114,30.1746029 C5.49074295,30.1624298 5.47348547,30.1328251 5.47348547,30.1084789 L5.47348547,29.9321481 C5.47348547,29.9078019 5.49074295,29.8979337 5.51203114,29.9101068 Z" id="矩形" fill="#424242"></path>
                                <path d="" id="椭圆形" stroke="#04010F" stroke-width="0.05" fill="#F14B4B"></path>
                                <path d="M6.59130997,30.5272645 L7.20804072,30.879926 C7.22932891,30.8920991 7.2465864,30.9217038 7.2465864,30.94605 L7.2465864,31.1223808 C7.2465864,31.146727 7.22932891,31.1565953 7.20804072,31.1444222 L6.59130997,30.7917606 C6.57002178,30.7795875 6.55276429,30.7499828 6.55276429,30.7256366 L6.55276429,30.5493058 C6.55276429,30.5249596 6.57002178,30.5150914 6.59130997,30.5272645 Z" id="矩形" fill="#424242"></path>
                                <polygon id="矩形备份-87" fill="#5E7BA5" points="5.31930278 27.0226904 6.32149026 27.5957654 6.32149026 28.5655847 5.31930278 27.9925097"></polygon>
                                <path d="" id="矩形备份-88" stroke="#777777" stroke-width="0.526315789" fill="#38373E"></path>
                                <path d="" id="矩形备份-89" stroke="#777777" stroke-width="0.526315789" fill="#38373E"></path>
                                <path d="" id="矩形备份-91" stroke="#777777" stroke-width="0.526315789" fill="#38373E"></path>
                                <path d="" id="矩形备份-90" stroke="#777777" stroke-width="0.526315789" fill="#38373E"></path>
                            </g>
                            <g id="闪电" transform="translate(5.778252, 32.232061) scale(-1, 1) translate(-5.778252, -32.232061) translate(5.015087, 31.206250)">
                                <path d="M0.128288146,2.02116939 C0.00944811476,2.09948841 -0.0340558251,2.02116939 0.0285474054,1.85007244 L0.646091137,0.190913989 C0.710816511,0.0186121314 0.815862609,-0.0500676302 0.87846584,0.039095569 L1.49707064,0.887350869 C1.56073495,0.976514068 1.51723101,1.11025887 1.39839097,1.18857789 L0.128288146,2.02116939 Z" id="Fill-17" fill="#303033"></path>
                                <g id="Fill-19">
                                    <use fill="#FF9D26" xlink:href="#path-1"></use>
                                    <use fill="#FBC70E" xlink:href="#path-1"></use>
                                </g>
                                <polygon id="Fill-21" fill="#303033" points="0.934384319 0.889278722 0.775223563 0.910967068 0.908918598 0.383217321 0.591658158 1.03386769 0.749757842 1.01338426 0.617123879 1.54233891"></polygon>
                            </g>
                            <g id="编组-60" transform="translate(3.131095, 36.041053)"></g>
                        </g>
                        <polygon id="矩形备份-106" fill="#EDEDED" points="1.21162239e-13 4.82171709 11.5637017 11.4341209 20 6.61240385 8.4362983 -1.26617156e-13"></polygon>
                        <polygon id="矩形备份-107" fill="#BCBEC0" points="11.5565043 11.4341209 20 6.61240385 20 41.1732347 11.5565043 45.9949518"></polygon>
                    </g>
                </g>
            </g>
        </g>
    </g>
</svg>