<?xml version="1.0" encoding="UTF-8"?>
<svg width="38px" height="38px" viewBox="0 0 38 38" version="1.1" xmlns="http://www.w3.org/2000/svg" xmlns:xlink="http://www.w3.org/1999/xlink">
    <title>icon_退出全屏</title>
    <defs>
        <filter x="0.0%" y="0.0%" width="100.0%" height="100.0%" filterUnits="objectBoundingBox" id="fullscreen-filter-1">
            <feGaussianBlur stdDeviation="0" in="SourceGraphic"></feGaussianBlur>
        </filter>
        <radialGradient cx="50%" cy="100%" fx="50%" fy="100%" r="47.2493924%" id="fullscreen-radialGradient-2">
            <stop stop-color="#4DD6F0" offset="0%"></stop>
            <stop stop-color="#4DD6F0" stop-opacity="0" offset="100%"></stop>
        </radialGradient>
        <radialGradient cx="50%" cy="0%" fx="50%" fy="0%" r="47.2493924%" id="fullscreen-radialGradient-3">
            <stop stop-color="#4DD6F0" offset="0%"></stop>
            <stop stop-color="#4DD6F0" stop-opacity="0" offset="100%"></stop>
        </radialGradient>
        <path d="M32,16 C32,7.16571429 24.8342857,0 16,0 C7.16571429,0 0,7.16571429 0,16 C0,24.8342857 7.16571429,32 16,32 C24.8342857,32 32,24.8342857 32,16 Z" id="path-4"></path>
        <filter x="-14.1%" y="-14.1%" width="128.1%" height="128.1%" filterUnits="objectBoundingBox" id="fullscreen-filter-5">
            <feOffset dx="0" dy="0" in="SourceAlpha" result="shadowOffsetOuter1"></feOffset>
            <feGaussianBlur stdDeviation="1.5" in="shadowOffsetOuter1" result="shadowBlurOuter1"></feGaussianBlur>
            <feComposite in="shadowBlurOuter1" in2="SourceAlpha" operator="out" result="shadowBlurOuter1"></feComposite>
            <feColorMatrix values="0 0 0 0 0.57254902   0 0 0 0 0.815686275   0 0 0 0 1  0 0 0 0.5 0" type="matrix" in="shadowBlurOuter1"></feColorMatrix>
        </filter>
        <mask id="fullscreen-mask-6" maskContentUnits="userSpaceOnUse" maskUnits="objectBoundingBox" x="0" y="0" width="32" height="32" fill="white">
            <use xlink:href="#path-4"></use>
        </mask>
        <linearGradient x1="50%" y1="0%" x2="50%" y2="100%" id="fullscreen-linearGradient-7">
            <stop stop-color="#09E6FF" offset="0%"></stop>
            <stop stop-color="#00C1FF" offset="100%"></stop>
        </linearGradient>
    </defs>
    <g id="能源云系统V1.0" stroke="none" stroke-width="1" fill="none" fill-rule="evenodd">
        <g id="1_1.站控系统（站点）首页全屏展示" transform="translate(-1789.000000, -9.000000)">
            <g id="icon_退出全屏" transform="translate(1792.000000, 12.000000)">
                <g id="btn_全屏1备份-5" fill="#00D9FF" opacity="0.296647141">
                    <rect id="矩形" filter="url(#fullscreen-filter-1)" x="0" y="0" width="32" height="32" rx="16"></rect>
                </g>
                <g id="btn_全屏2">
                    <g id="路径" stroke-dasharray="0,0">
                        <use fill="black" fill-opacity="1" filter="url(#fullscreen-filter-5)" xlink:href="#path-4"></use>
                        <use fill-opacity="0.5" fill="url(#fullscreen-radialGradient-2)" fill-rule="evenodd" xlink:href="#path-4"></use>
                        <use stroke="#D1F0F6" mask="url(#fullscreen-mask-6)" stroke-width="2" fill-opacity="0.5" fill="url(#fullscreen-radialGradient-3)" fill-rule="evenodd" xlink:href="#path-4"></use>
                    </g>
                    <g id="pc-全屏" transform="translate(8.000000, 8.000000)" fill-rule="nonzero">
                        <rect id="矩形" fill="#000000" opacity="0" x="0" y="0" width="16" height="16"></rect>
                        <path d="M14.4167278,4.76280784 L12.2098313,4.75470015 L14.6859868,2.28185528 C14.9567131,2.00693095 14.9567131,1.56174517 14.6859868,1.28755791 C14.4137931,1.01337063 13.9735877,1.01337063 13.7028613,1.28755791 L11.2024945,3.78619997 L11.219369,1.52489204 C11.2259721,1.24112296 11.0029347,0.994207004 10.7219369,1.00084057 L10.3661042,1.00084057 C10.0851064,1.0082112 9.85253118,1.17699853 9.84666176,1.46076762 L9.83198825,5.38415161 C9.83198825,5.38931104 9.85033015,5.39299635 9.85033015,5.39815581 L9.82318415,5.65539064 C9.82098313,5.79690661 9.85399854,5.92441845 9.94497432,6.01507714 C10.0344828,6.10720996 10.160675,6.16248965 10.3008071,6.15880433 L10.5546588,6.15364491 C10.5605282,6.15364491 10.5641966,6.15143372 10.5693323,6.15069666 L14.4798239,6.17280853 C14.7608217,6.16617498 14.9926632,5.93178906 15,5.64728292 L15,5.28685932 C14.9574468,4.95223295 14.6969919,4.75617429 14.4167278,4.76280784 L14.4167278,4.76280784 Z M14.9735877,10.7440705 L14.972854,10.3836469 C14.9662509,10.0991408 14.7351431,9.86475488 14.4556126,9.85812131 L10.565664,9.87949616 C10.5597946,9.87949616 10.5561262,9.87728498 10.5509904,9.87728498 L10.2978723,9.87138846 C10.158474,9.8669661 10.0330154,9.92298283 9.94350695,10.0143786 C9.85326485,10.1057744 9.82024947,10.2332862 9.82318415,10.3755392 L9.85033015,10.6327741 C9.85033015,10.6379335 9.83198825,10.6416188 9.83198825,10.6467783 L9.84666176,14.5399427 C9.85253118,14.8237118 10.083639,14.9924991 10.3639032,14.9991326 L10.7410125,14.9998697 C11.0205429,15.0065033 11.242113,14.7588503 11.2355099,14.4750812 L11.219369,12.2594711 L13.7094644,14.7426349 C13.9787234,15.0168222 14.4174615,15.0168222 14.6874541,14.7426349 C14.9574468,14.4684476 14.9574468,14.0232618 14.6874541,13.7483375 L12.2002935,11.2533808 L14.3925165,11.2452731 C14.6713133,11.2526437 14.9310345,11.0786969 14.9735877,10.7440705 L14.9735877,10.7440705 Z M6.02861336,10.0151157 C5.93910492,9.92371988 5.81291269,9.86770315 5.67278064,9.87212552 L5.41819514,9.87802202 C5.4137931,9.87802202 5.40939104,9.88023321 5.40425533,9.88023321 L1.54585473,9.85812131 C1.2655906,9.86475488 1.03301541,10.0991408 1.02641232,10.3836469 L1.02567866,10.7440705 C1.06823185,11.0786969 1.32868673,11.2519066 1.60895086,11.2467472 L3.78503301,11.2548549 L1.28833455,13.7490746 C1.01687455,14.0239989 1.01687455,14.4691847 1.28833455,14.743372 C1.55979456,15.0175592 1.99926631,15.0175592 2.27072633,14.743372 L4.77109319,12.245467 L4.75421861,14.4478098 C4.74761553,14.7315789 4.97065294,14.9784949 5.25091708,14.9718613 L5.60748347,14.9718613 C5.88848126,14.9644907 6.12105647,14.7964405 6.12692589,14.5119343 L6.1415994,10.6467782 C6.1415994,10.6416188 6.12325752,10.6379335 6.12325752,10.632774 L6.1511838,10.3755392 C6.15260456,10.2340232 6.11958915,10.1065114 6.02861336,10.0151157 L6.02861336,10.0151157 Z M6.14086573,5.38415161 L6.12619222,1.4607676 C6.12105651,1.17699851 5.88921496,1.00747412 5.60968453,1.00010349 L5.23257521,1.00010349 C4.95304473,0.994207004 4.73147469,1.24112296 4.73807778,1.52415497 L4.75495232,3.76998459 L2.26559061,1.28755791 C1.99486428,1.01337063 1.55685986,1.01337063 1.2868672,1.28755791 C1.01687455,1.56174518 1.01687455,2.00693095 1.2868672,2.28185528 L3.75201762,4.75470015 L1.5803375,4.76280784 C1.30154071,4.75617429 1.0425532,4.95223295 1,5.28685932 L1.00073367,5.64728292 C1.00733676,5.93178909 1.23844461,6.16617498 1.51797506,6.17280853 L5.40792372,6.15069664 C5.41305943,6.15143372 5.41672782,6.15364491 5.42186353,6.15364491 L5.67498165,6.15954141 C5.81438006,6.16322671 5.94057228,6.10794702 6.02934703,6.01581419 C6.11958915,5.92441845 6.15260456,5.79690661 6.14966986,5.65465356 L6.12179016,5.39741873 C6.12179016,5.39225927 6.14086573,5.38931104 6.14086573,5.38415161 L6.14086573,5.38415161 Z" id="形状备份-14" fill="url(#fullscreen-linearGradient-7)"></path>
                    </g>
                </g>
            </g>
        </g>
    </g>
</svg>