<?xml version="1.0" encoding="UTF-8"?>
<svg width="65px" height="62px" viewBox="0 0 65 62" version="1.1" xmlns="http://www.w3.org/2000/svg" xmlns:xlink="http://www.w3.org/1999/xlink">
    <title>icon_发电单元</title>
    <defs>
        <linearGradient x1="60.1380528%" y1="3.27586506%" x2="74.0367633%" y2="93.9885516%" id="linearGradient-1">
            <stop stop-color="#F6F6F6" offset="0%"></stop>
            <stop stop-color="#D5D5D5" offset="100%"></stop>
        </linearGradient>
        <path d="M10.7096592,1.64755987 L38.7065263,17.9531434 C39.4782064,18.4025756 39.9528528,19.2282918 39.9528528,20.1213089 L39.9528528,42.7311264 C39.9528528,43.4239903 39.3911756,43.9856675 38.6983117,43.9856675 C38.4764835,43.9856675 38.2586216,43.9268495 38.0669338,43.8152092 L9.12710728,26.960439 C8.35542717,26.5110068 7.88078075,25.6852906 7.88078075,24.7922735 L7.88078075,3.27368402 C7.88078075,2.23438812 8.72329654,1.39187232 9.76259245,1.39187232 C10.0953348,1.39187232 10.4221276,1.48009932 10.7096592,1.64755987 Z" id="path-2"></path>
        <linearGradient x1="89.6794534%" y1="28.8%" x2="-72.4624753%" y2="105%" id="linearGradient-3">
            <stop stop-color="#F2F2F2" offset="0%"></stop>
            <stop stop-color="#B4B4B4" offset="100%"></stop>
        </linearGradient>
        <linearGradient x1="74.6231838%" y1="43.6939751%" x2="48.5561214%" y2="70.399219%" id="linearGradient-4">
            <stop stop-color="#FFFFFF" offset="0%"></stop>
            <stop stop-color="#FFFFFF" stop-opacity="0" offset="100%"></stop>
        </linearGradient>
        <linearGradient x1="60.5532791%" y1="1.70370869%" x2="39.4467209%" y2="98.2962913%" id="linearGradient-5">
            <stop stop-color="#EC4043" offset="0%"></stop>
            <stop stop-color="#AC0003" offset="100%"></stop>
        </linearGradient>
        <path d="M0.889795843,0.00431649338 C0.93761718,0.0121440868 0.987595733,0.0288189134 1.03834676,0.0538789676 C1.07302746,0.132821403 1.09227997,0.21099676 1.10932845,0.288940833 L1.13490117,0.405750454 L1.13490117,0.405750454 C1.15348538,0.527438089 1.16833802,0.646952429 1.17081755,0.760698177 C1.176955,0.803355566 1.17818249,0.843153357 1.17818249,0.882415948 L1.17763694,0.96091624 L1.17902793,1.05473811 L1.17560016,1.15992725 L1.17572751,1.21411741 L1.17524687,1.28848767 L1.17524687,1.28848767 L1.16827396,1.4342555 C1.16732381,1.45877638 1.16677297,1.48359589 1.16706143,1.5089923 C1.16355431,1.52522371 1.16185086,1.542738 1.16080244,1.56070052 L1.15847372,1.61509814 C1.1571433,1.64213466 1.15470235,1.66830177 1.14727428,1.69078255 C1.13463604,1.67574349 1.12601905,1.65843936 1.11820455,1.64068525 L1.10269182,1.60511486 C1.00490992,1.38185578 0.914542054,1.15865827 0.830360746,0.934807454 L0.800113507,0.847544832 C0.729752544,0.643174761 0.663547837,0.434683411 0.657039067,0.246845078 C0.651191942,0.0843603705 0.744916445,-0.013633923 0.872232541,0.001541133 L0.889795843,0.00431649338 Z M1.39859071,0.272200551 C1.40472817,0.271546824 1.41122773,0.27568457 1.417893,0.28115206 L1.43138631,0.292834333 C1.43365262,0.294734978 1.4359228,0.296526948 1.43818956,0.298082031 L1.48327292,0.335348383 C1.53622,0.379174253 1.5895037,0.425678204 1.63380247,0.490174226 C1.68702647,0.572361984 1.73654344,0.662312979 1.75635514,0.752017242 C1.78480837,0.862398831 1.7736873,0.958273068 1.75635514,1.04339831 C1.73158438,1.14978611 1.68454693,1.23610221 1.63750949,1.32089615 C1.6227796,1.34642504 1.60161767,1.36538903 1.58799252,1.39297073 C1.56076678,1.44676721 1.5248504,1.4912176 1.49018607,1.53501597 C1.46296032,1.57316802 1.43418181,1.60899222 1.40478034,1.64392508 L1.3156369,1.74748615 L1.31265553,1.75005804 L1.3061052,1.75657388 C1.29914215,1.76293564 1.29089887,1.76669763 1.28099711,1.74862194 C1.27117719,1.62775408 1.26366494,1.50966784 1.25993337,1.39245864 C1.2521616,1.30426983 1.25125176,1.21961724 1.25167948,1.13554643 L1.2526337,1.00950723 C1.25272975,0.988450319 1.25273677,0.967337441 1.25256843,0.946122435 L1.25791492,0.875703918 L1.26628794,0.734033679 C1.26793661,0.710672778 1.26988218,0.687551739 1.27238013,0.664842255 C1.29216728,0.561245971 1.30579242,0.452623294 1.33674974,0.358435978 C1.34169789,0.3527862 1.34573072,0.345691571 1.34940457,0.338006301 L1.3599055,0.314032776 C1.36692991,0.298008091 1.37474369,0.28303768 1.38779745,0.275955222 L1.39859071,0.272200551 Z M0.365043594,0.0398300577 C0.372829391,0.0402893609 0.378186261,0.0481609608 0.382964814,0.0573590932 L0.389930233,0.0713904708 C0.391095955,0.0736412768 0.392283364,0.0757848109 0.393521376,0.0777259832 C0.615322565,0.534461927 0.809255117,0.998544683 0.972694652,1.46361615 L1.0240424,1.61205935 C1.03339861,1.63961635 1.0416528,1.66716211 1.04330582,1.69278009 C1.02473143,1.67688836 1.00794231,1.65839334 0.991337011,1.63918747 L0.957897024,1.60038867 C0.799133054,1.41570278 0.644601007,1.22417548 0.494912103,1.02656432 C0.439208578,0.948626476 0.382253012,0.871397028 0.33273604,0.788549451 C0.233702095,0.651267966 0.165625464,0.476598318 0.174291548,0.340930189 C0.18353383,0.193791775 0.261995372,0.1096644 0.348601635,0.0505572314 L0.365043594,0.0398300577 Z M2.05357972,1.02180846 L2.07336687,1.03333264 L2.13262933,1.15284891 C2.15231649,1.19283577 2.17122228,1.23303915 2.18720356,1.27366423 L2.20213064,1.31443748 C2.23667222,1.40420771 2.25402894,1.49391977 2.25893891,1.57635456 C2.25523188,1.66231177 2.23046112,1.73887649 2.17971666,1.7775379 L2.16043033,1.78747741 L2.12410839,1.81024086 C2.11198667,1.81757644 2.09950751,1.82406431 2.08564178,1.82791803 C1.90117448,1.88823068 1.69321302,1.89787728 1.48399951,1.90110067 L1.44440854,1.90348368 C1.4266777,1.90421279 1.40848078,1.90301235 1.38867259,1.89392426 C1.39222179,1.86756156 1.4022321,1.84821098 1.41338989,1.82985874 L1.43032296,1.8023274 C1.43306717,1.79761306 1.43571705,1.79277319 1.43818956,1.78771381 C1.56622477,1.56493333 1.71444776,1.36600354 1.88146439,1.19274824 L1.96187735,1.11132092 L2.02369761,1.05276037 L2.05357972,1.02180846 Z M0.008334813,0.578305511 L0.00858031113,0.578448491 L0.0103713739,0.574199887 L0.0131732018,0.563850818 C0.0151827077,0.557017045 0.0181266812,0.55149936 0.025912479,0.554407006 C0.0407602058,0.566437013 0.0542734048,0.582337445 0.0675232334,0.599005903 L0.09398911,0.632447624 C0.352879161,0.94490386 0.610810619,1.2600822 0.861155561,1.58456528 L0.967962447,1.72421832 C0.977782372,1.73557515 0.982815084,1.74992245 0.986522106,1.76487887 C0.799599831,1.65883277 0.612677556,1.54996784 0.426982771,1.44040841 C0.31434823,1.37624681 0.206648201,1.25381898 0.127475055,1.11815415 C0.0592756746,0.993165126 0.00715642198,0.854765248 0.000969869149,0.733194682 L0.000151542055,0.679754608 C-0.000394009342,0.643955283 0.000151542055,0.608586799 0.008334813,0.578305511 Z M2.35939674,1.93763104 C2.3779564,1.93564289 2.39651606,1.93365475 2.41880729,1.94948433 L2.42912366,2.05498854 C2.43073031,2.07250412 2.43198235,2.08981109 2.43243243,2.10664786 L2.43000608,2.12827504 L2.42599688,2.17234834 C2.4224748,2.20895889 2.41741715,2.24432276 2.40270261,2.2712876 L2.38539034,2.30386328 C2.37038203,2.33040643 2.35319967,2.35433152 2.32843943,2.3673139 L2.31475799,2.37461055 L2.28809478,2.39054553 C2.26582781,2.40370426 2.24271455,2.41511898 2.2133008,2.41396736 C2.16132885,2.42919421 2.09447971,2.40446761 2.0301101,2.37126287 C1.83449719,2.25874587 1.63768134,2.14411885 1.44209298,2.02879733 C1.44700295,2.02038166 1.45191291,2.01317809 1.46190468,2.01330336 C1.71643407,1.97374657 1.98039903,1.95602236 2.24565856,1.94298266 L2.35939674,1.93763104 Z M0.426810923,1.53129972 C0.53205597,1.5797978 0.638503959,1.65315373 0.743724457,1.70022809 L0.834262595,1.74969466 C0.879451534,1.77485214 0.924460179,1.80122787 0.969018089,1.83144078 C0.957711147,1.84597249 0.941137518,1.85093862 0.923699278,1.85394164 L0.897443718,1.85792418 L0.884861331,1.86059304 C0.805363065,1.87946956 0.721304439,1.88802517 0.633544897,1.88617229 C0.552004859,1.88550828 0.450697211,1.81288044 0.377147111,1.71020916 L0.363693354,1.69061646 C0.303030766,1.6069716 0.260927837,1.51279759 0.221304439,1.42006767 C0.248535092,1.43194683 0.275977855,1.44668266 0.303458326,1.46226309 L0.385838463,1.50952614 L0.426810923,1.53129972 Z M1.46048079,2.11767231 C1.53476853,2.15530041 1.61023465,2.20207125 1.68577442,2.25029441 C1.7872879,2.32221404 1.89128091,2.37142051 1.99279438,2.44319919 C2.06457804,2.49210995 2.13638624,2.52682816 2.20819444,2.57860021 C2.18696236,2.61738393 2.15573801,2.64411446 2.12075567,2.66416691 L2.10297394,2.67365058 C2.03860433,2.71303036 1.93957039,2.69377273 1.84920253,2.61839396 C1.79967328,2.5717716 1.75402789,2.51631213 1.70952728,2.45978654 L1.65650074,2.39194143 C1.64769613,2.3807144 1.63889349,2.36956906 1.6300709,2.35856758 C1.59169954,2.30921555 1.55580772,2.25846062 1.51743636,2.20769918 L1.49221251,2.1726464 C1.48403212,2.16086976 1.4762893,2.14892042 1.46961411,2.13655734 L1.46048079,2.11767231 Z" id="path-6"></path>
        <linearGradient x1="50%" y1="100%" x2="50%" y2="5.1%" id="linearGradient-7">
            <stop stop-color="#D2D2D2" offset="0%"></stop>
            <stop stop-color="#7A7A7A" offset="100%"></stop>
        </linearGradient>
        <linearGradient x1="50%" y1="0%" x2="50%" y2="100%" id="linearGradient-8">
            <stop stop-color="#FFFFFF" offset="0%"></stop>
            <stop stop-color="#B4B4B4" offset="100%"></stop>
        </linearGradient>
        <linearGradient x1="50%" y1="0%" x2="57.0387637%" y2="116.6%" id="linearGradient-9">
            <stop stop-color="#C5C5C5" offset="0%"></stop>
            <stop stop-color="#D4D4D4" offset="28.1%"></stop>
            <stop stop-color="#A7A7A7" offset="69.6%"></stop>
            <stop stop-color="#636363" offset="100%"></stop>
        </linearGradient>
        <path d="M10.7096592,1.64755987 L38.7065263,17.9531434 C39.4782064,18.4025756 39.9528528,19.2282918 39.9528528,20.1213089 L39.9528528,42.7311264 C39.9528528,43.4239903 39.3911756,43.9856675 38.6983117,43.9856675 C38.4764835,43.9856675 38.2586216,43.9268495 38.0669338,43.8152092 L9.12710728,26.960439 C8.35542717,26.5110068 7.88078075,25.6852906 7.88078075,24.7922735 L7.88078075,3.27368402 C7.88078075,2.23438812 8.72329654,1.39187232 9.76259245,1.39187232 C10.0953348,1.39187232 10.4221276,1.48009932 10.7096592,1.64755987 Z" id="path-10"></path>
        <path d="M0.889795843,0.00431649338 C0.93761718,0.0121440868 0.987595733,0.0288189134 1.03834676,0.0538789676 C1.07302746,0.132821403 1.09227997,0.21099676 1.10932845,0.288940833 L1.13490117,0.405750454 L1.13490117,0.405750454 C1.15348538,0.527438089 1.16833802,0.646952429 1.17081755,0.760698177 C1.176955,0.803355566 1.17818249,0.843153357 1.17818249,0.882415948 L1.17763694,0.96091624 L1.17902793,1.05473811 L1.17560016,1.15992725 L1.17572751,1.21411741 L1.17524687,1.28848767 L1.17524687,1.28848767 L1.16827396,1.4342555 C1.16732381,1.45877638 1.16677297,1.48359589 1.16706143,1.5089923 C1.16355431,1.52522371 1.16185086,1.542738 1.16080244,1.56070052 L1.15847372,1.61509814 C1.1571433,1.64213466 1.15470235,1.66830177 1.14727428,1.69078255 C1.13463604,1.67574349 1.12601905,1.65843936 1.11820455,1.64068525 L1.10269182,1.60511486 C1.00490992,1.38185578 0.914542054,1.15865827 0.830360746,0.934807454 L0.800113507,0.847544832 C0.729752544,0.643174761 0.663547837,0.434683411 0.657039067,0.246845078 C0.651191942,0.0843603705 0.744916445,-0.013633923 0.872232541,0.001541133 L0.889795843,0.00431649338 Z M1.39859071,0.272200551 C1.40472817,0.271546824 1.41122773,0.27568457 1.417893,0.28115206 L1.43138631,0.292834333 C1.43365262,0.294734978 1.4359228,0.296526948 1.43818956,0.298082031 L1.48327292,0.335348383 C1.53622,0.379174253 1.5895037,0.425678204 1.63380247,0.490174226 C1.68702647,0.572361984 1.73654344,0.662312979 1.75635514,0.752017242 C1.78480837,0.862398831 1.7736873,0.958273068 1.75635514,1.04339831 C1.73158438,1.14978611 1.68454693,1.23610221 1.63750949,1.32089615 C1.6227796,1.34642504 1.60161767,1.36538903 1.58799252,1.39297073 C1.56076678,1.44676721 1.5248504,1.4912176 1.49018607,1.53501597 C1.46296032,1.57316802 1.43418181,1.60899222 1.40478034,1.64392508 L1.3156369,1.74748615 L1.31265553,1.75005804 L1.3061052,1.75657388 C1.29914215,1.76293564 1.29089887,1.76669763 1.28099711,1.74862194 C1.27117719,1.62775408 1.26366494,1.50966784 1.25993337,1.39245864 C1.2521616,1.30426983 1.25125176,1.21961724 1.25167948,1.13554643 L1.2526337,1.00950723 C1.25272975,0.988450319 1.25273677,0.967337441 1.25256843,0.946122435 L1.25791492,0.875703918 L1.26628794,0.734033679 C1.26793661,0.710672778 1.26988218,0.687551739 1.27238013,0.664842255 C1.29216728,0.561245971 1.30579242,0.452623294 1.33674974,0.358435978 C1.34169789,0.3527862 1.34573072,0.345691571 1.34940457,0.338006301 L1.3599055,0.314032776 C1.36692991,0.298008091 1.37474369,0.28303768 1.38779745,0.275955222 L1.39859071,0.272200551 Z M0.365043594,0.0398300577 C0.372829391,0.0402893609 0.378186261,0.0481609608 0.382964814,0.0573590932 L0.389930233,0.0713904708 C0.391095955,0.0736412768 0.392283364,0.0757848109 0.393521376,0.0777259832 C0.615322565,0.534461927 0.809255117,0.998544683 0.972694652,1.46361615 L1.0240424,1.61205935 C1.03339861,1.63961635 1.0416528,1.66716211 1.04330582,1.69278009 C1.02473143,1.67688836 1.00794231,1.65839334 0.991337011,1.63918747 L0.957897024,1.60038867 C0.799133054,1.41570278 0.644601007,1.22417548 0.494912103,1.02656432 C0.439208578,0.948626476 0.382253012,0.871397028 0.33273604,0.788549451 C0.233702095,0.651267966 0.165625464,0.476598318 0.174291548,0.340930189 C0.18353383,0.193791775 0.261995372,0.1096644 0.348601635,0.0505572314 L0.365043594,0.0398300577 Z M2.05357972,1.02180846 L2.07336687,1.03333264 L2.13262933,1.15284891 C2.15231649,1.19283577 2.17122228,1.23303915 2.18720356,1.27366423 L2.20213064,1.31443748 C2.23667222,1.40420771 2.25402894,1.49391977 2.25893891,1.57635456 C2.25523188,1.66231177 2.23046112,1.73887649 2.17971666,1.7775379 L2.16043033,1.78747741 L2.12410839,1.81024086 C2.11198667,1.81757644 2.09950751,1.82406431 2.08564178,1.82791803 C1.90117448,1.88823068 1.69321302,1.89787728 1.48399951,1.90110067 L1.44440854,1.90348368 C1.4266777,1.90421279 1.40848078,1.90301235 1.38867259,1.89392426 C1.39222179,1.86756156 1.4022321,1.84821098 1.41338989,1.82985874 L1.43032296,1.8023274 C1.43306717,1.79761306 1.43571705,1.79277319 1.43818956,1.78771381 C1.56622477,1.56493333 1.71444776,1.36600354 1.88146439,1.19274824 L1.96187735,1.11132092 L2.02369761,1.05276037 L2.05357972,1.02180846 Z M0.008334813,0.578305511 L0.00858031113,0.578448491 L0.0103713739,0.574199887 L0.0131732018,0.563850818 C0.0151827077,0.557017045 0.0181266812,0.55149936 0.025912479,0.554407006 C0.0407602058,0.566437013 0.0542734048,0.582337445 0.0675232334,0.599005903 L0.09398911,0.632447624 C0.352879161,0.94490386 0.610810619,1.2600822 0.861155561,1.58456528 L0.967962447,1.72421832 C0.977782372,1.73557515 0.982815084,1.74992245 0.986522106,1.76487887 C0.799599831,1.65883277 0.612677556,1.54996784 0.426982771,1.44040841 C0.31434823,1.37624681 0.206648201,1.25381898 0.127475055,1.11815415 C0.0592756746,0.993165126 0.00715642198,0.854765248 0.000969869149,0.733194682 L0.000151542055,0.679754608 C-0.000394009342,0.643955283 0.000151542055,0.608586799 0.008334813,0.578305511 Z M2.35939674,1.93763104 C2.3779564,1.93564289 2.39651606,1.93365475 2.41880729,1.94948433 L2.42912366,2.05498854 C2.43073031,2.07250412 2.43198235,2.08981109 2.43243243,2.10664786 L2.43000608,2.12827504 L2.42599688,2.17234834 C2.4224748,2.20895889 2.41741715,2.24432276 2.40270261,2.2712876 L2.38539034,2.30386328 C2.37038203,2.33040643 2.35319967,2.35433152 2.32843943,2.3673139 L2.31475799,2.37461055 L2.28809478,2.39054553 C2.26582781,2.40370426 2.24271455,2.41511898 2.2133008,2.41396736 C2.16132885,2.42919421 2.09447971,2.40446761 2.0301101,2.37126287 C1.83449719,2.25874587 1.63768134,2.14411885 1.44209298,2.02879733 C1.44700295,2.02038166 1.45191291,2.01317809 1.46190468,2.01330336 C1.71643407,1.97374657 1.98039903,1.95602236 2.24565856,1.94298266 L2.35939674,1.93763104 Z M0.426810923,1.53129972 C0.53205597,1.5797978 0.638503959,1.65315373 0.743724457,1.70022809 L0.834262595,1.74969466 C0.879451534,1.77485214 0.924460179,1.80122787 0.969018089,1.83144078 C0.957711147,1.84597249 0.941137518,1.85093862 0.923699278,1.85394164 L0.897443718,1.85792418 L0.884861331,1.86059304 C0.805363065,1.87946956 0.721304439,1.88802517 0.633544897,1.88617229 C0.552004859,1.88550828 0.450697211,1.81288044 0.377147111,1.71020916 L0.363693354,1.69061646 C0.303030766,1.6069716 0.260927837,1.51279759 0.221304439,1.42006767 C0.248535092,1.43194683 0.275977855,1.44668266 0.303458326,1.46226309 L0.385838463,1.50952614 L0.426810923,1.53129972 Z M1.46048079,2.11767231 C1.53476853,2.15530041 1.61023465,2.20207125 1.68577442,2.25029441 C1.7872879,2.32221404 1.89128091,2.37142051 1.99279438,2.44319919 C2.06457804,2.49210995 2.13638624,2.52682816 2.20819444,2.57860021 C2.18696236,2.61738393 2.15573801,2.64411446 2.12075567,2.66416691 L2.10297394,2.67365058 C2.03860433,2.71303036 1.93957039,2.69377273 1.84920253,2.61839396 C1.79967328,2.5717716 1.75402789,2.51631213 1.70952728,2.45978654 L1.65650074,2.39194143 C1.64769613,2.3807144 1.63889349,2.36956906 1.6300709,2.35856758 C1.59169954,2.30921555 1.55580772,2.25846062 1.51743636,2.20769918 L1.49221251,2.1726464 C1.48403212,2.16086976 1.4762893,2.14892042 1.46961411,2.13655734 L1.46048079,2.11767231 Z" id="path-11"></path>
        <path d="M10.7096592,1.64755987 L38.7065263,17.9531434 C39.4782064,18.4025756 39.9528528,19.2282918 39.9528528,20.1213089 L39.9528528,42.7311264 C39.9528528,43.4239903 39.3911756,43.9856675 38.6983117,43.9856675 C38.4764835,43.9856675 38.2586216,43.9268495 38.0669338,43.8152092 L9.12710728,26.960439 C8.35542717,26.5110068 7.88078075,25.6852906 7.88078075,24.7922735 L7.88078075,3.27368402 C7.88078075,2.23438812 8.72329654,1.39187232 9.76259245,1.39187232 C10.0953348,1.39187232 10.4221276,1.48009932 10.7096592,1.64755987 Z" id="path-12"></path>
        <path d="M0.889795843,0.00431649338 C0.93761718,0.0121440868 0.987595733,0.0288189134 1.03834676,0.0538789676 C1.07302746,0.132821403 1.09227997,0.21099676 1.10932845,0.288940833 L1.13490117,0.405750454 L1.13490117,0.405750454 C1.15348538,0.527438089 1.16833802,0.646952429 1.17081755,0.760698177 C1.176955,0.803355566 1.17818249,0.843153357 1.17818249,0.882415948 L1.17763694,0.96091624 L1.17902793,1.05473811 L1.17560016,1.15992725 L1.17572751,1.21411741 L1.17524687,1.28848767 L1.17524687,1.28848767 L1.16827396,1.4342555 C1.16732381,1.45877638 1.16677297,1.48359589 1.16706143,1.5089923 C1.16355431,1.52522371 1.16185086,1.542738 1.16080244,1.56070052 L1.15847372,1.61509814 C1.1571433,1.64213466 1.15470235,1.66830177 1.14727428,1.69078255 C1.13463604,1.67574349 1.12601905,1.65843936 1.11820455,1.64068525 L1.10269182,1.60511486 C1.00490992,1.38185578 0.914542054,1.15865827 0.830360746,0.934807454 L0.800113507,0.847544832 C0.729752544,0.643174761 0.663547837,0.434683411 0.657039067,0.246845078 C0.651191942,0.0843603705 0.744916445,-0.013633923 0.872232541,0.001541133 L0.889795843,0.00431649338 Z M1.39859071,0.272200551 C1.40472817,0.271546824 1.41122773,0.27568457 1.417893,0.28115206 L1.43138631,0.292834333 C1.43365262,0.294734978 1.4359228,0.296526948 1.43818956,0.298082031 L1.48327292,0.335348383 C1.53622,0.379174253 1.5895037,0.425678204 1.63380247,0.490174226 C1.68702647,0.572361984 1.73654344,0.662312979 1.75635514,0.752017242 C1.78480837,0.862398831 1.7736873,0.958273068 1.75635514,1.04339831 C1.73158438,1.14978611 1.68454693,1.23610221 1.63750949,1.32089615 C1.6227796,1.34642504 1.60161767,1.36538903 1.58799252,1.39297073 C1.56076678,1.44676721 1.5248504,1.4912176 1.49018607,1.53501597 C1.46296032,1.57316802 1.43418181,1.60899222 1.40478034,1.64392508 L1.3156369,1.74748615 L1.31265553,1.75005804 L1.3061052,1.75657388 C1.29914215,1.76293564 1.29089887,1.76669763 1.28099711,1.74862194 C1.27117719,1.62775408 1.26366494,1.50966784 1.25993337,1.39245864 C1.2521616,1.30426983 1.25125176,1.21961724 1.25167948,1.13554643 L1.2526337,1.00950723 C1.25272975,0.988450319 1.25273677,0.967337441 1.25256843,0.946122435 L1.25791492,0.875703918 L1.26628794,0.734033679 C1.26793661,0.710672778 1.26988218,0.687551739 1.27238013,0.664842255 C1.29216728,0.561245971 1.30579242,0.452623294 1.33674974,0.358435978 C1.34169789,0.3527862 1.34573072,0.345691571 1.34940457,0.338006301 L1.3599055,0.314032776 C1.36692991,0.298008091 1.37474369,0.28303768 1.38779745,0.275955222 L1.39859071,0.272200551 Z M0.365043594,0.0398300577 C0.372829391,0.0402893609 0.378186261,0.0481609608 0.382964814,0.0573590932 L0.389930233,0.0713904708 C0.391095955,0.0736412768 0.392283364,0.0757848109 0.393521376,0.0777259832 C0.615322565,0.534461927 0.809255117,0.998544683 0.972694652,1.46361615 L1.0240424,1.61205935 C1.03339861,1.63961635 1.0416528,1.66716211 1.04330582,1.69278009 C1.02473143,1.67688836 1.00794231,1.65839334 0.991337011,1.63918747 L0.957897024,1.60038867 C0.799133054,1.41570278 0.644601007,1.22417548 0.494912103,1.02656432 C0.439208578,0.948626476 0.382253012,0.871397028 0.33273604,0.788549451 C0.233702095,0.651267966 0.165625464,0.476598318 0.174291548,0.340930189 C0.18353383,0.193791775 0.261995372,0.1096644 0.348601635,0.0505572314 L0.365043594,0.0398300577 Z M2.05357972,1.02180846 L2.07336687,1.03333264 L2.13262933,1.15284891 C2.15231649,1.19283577 2.17122228,1.23303915 2.18720356,1.27366423 L2.20213064,1.31443748 C2.23667222,1.40420771 2.25402894,1.49391977 2.25893891,1.57635456 C2.25523188,1.66231177 2.23046112,1.73887649 2.17971666,1.7775379 L2.16043033,1.78747741 L2.12410839,1.81024086 C2.11198667,1.81757644 2.09950751,1.82406431 2.08564178,1.82791803 C1.90117448,1.88823068 1.69321302,1.89787728 1.48399951,1.90110067 L1.44440854,1.90348368 C1.4266777,1.90421279 1.40848078,1.90301235 1.38867259,1.89392426 C1.39222179,1.86756156 1.4022321,1.84821098 1.41338989,1.82985874 L1.43032296,1.8023274 C1.43306717,1.79761306 1.43571705,1.79277319 1.43818956,1.78771381 C1.56622477,1.56493333 1.71444776,1.36600354 1.88146439,1.19274824 L1.96187735,1.11132092 L2.02369761,1.05276037 L2.05357972,1.02180846 Z M0.008334813,0.578305511 L0.00858031113,0.578448491 L0.0103713739,0.574199887 L0.0131732018,0.563850818 C0.0151827077,0.557017045 0.0181266812,0.55149936 0.025912479,0.554407006 C0.0407602058,0.566437013 0.0542734048,0.582337445 0.0675232334,0.599005903 L0.09398911,0.632447624 C0.352879161,0.94490386 0.610810619,1.2600822 0.861155561,1.58456528 L0.967962447,1.72421832 C0.977782372,1.73557515 0.982815084,1.74992245 0.986522106,1.76487887 C0.799599831,1.65883277 0.612677556,1.54996784 0.426982771,1.44040841 C0.31434823,1.37624681 0.206648201,1.25381898 0.127475055,1.11815415 C0.0592756746,0.993165126 0.00715642198,0.854765248 0.000969869149,0.733194682 L0.000151542055,0.679754608 C-0.000394009342,0.643955283 0.000151542055,0.608586799 0.008334813,0.578305511 Z M2.35939674,1.93763104 C2.3779564,1.93564289 2.39651606,1.93365475 2.41880729,1.94948433 L2.42912366,2.05498854 C2.43073031,2.07250412 2.43198235,2.08981109 2.43243243,2.10664786 L2.43000608,2.12827504 L2.42599688,2.17234834 C2.4224748,2.20895889 2.41741715,2.24432276 2.40270261,2.2712876 L2.38539034,2.30386328 C2.37038203,2.33040643 2.35319967,2.35433152 2.32843943,2.3673139 L2.31475799,2.37461055 L2.28809478,2.39054553 C2.26582781,2.40370426 2.24271455,2.41511898 2.2133008,2.41396736 C2.16132885,2.42919421 2.09447971,2.40446761 2.0301101,2.37126287 C1.83449719,2.25874587 1.63768134,2.14411885 1.44209298,2.02879733 C1.44700295,2.02038166 1.45191291,2.01317809 1.46190468,2.01330336 C1.71643407,1.97374657 1.98039903,1.95602236 2.24565856,1.94298266 L2.35939674,1.93763104 Z M0.426810923,1.53129972 C0.53205597,1.5797978 0.638503959,1.65315373 0.743724457,1.70022809 L0.834262595,1.74969466 C0.879451534,1.77485214 0.924460179,1.80122787 0.969018089,1.83144078 C0.957711147,1.84597249 0.941137518,1.85093862 0.923699278,1.85394164 L0.897443718,1.85792418 L0.884861331,1.86059304 C0.805363065,1.87946956 0.721304439,1.88802517 0.633544897,1.88617229 C0.552004859,1.88550828 0.450697211,1.81288044 0.377147111,1.71020916 L0.363693354,1.69061646 C0.303030766,1.6069716 0.260927837,1.51279759 0.221304439,1.42006767 C0.248535092,1.43194683 0.275977855,1.44668266 0.303458326,1.46226309 L0.385838463,1.50952614 L0.426810923,1.53129972 Z M1.46048079,2.11767231 C1.53476853,2.15530041 1.61023465,2.20207125 1.68577442,2.25029441 C1.7872879,2.32221404 1.89128091,2.37142051 1.99279438,2.44319919 C2.06457804,2.49210995 2.13638624,2.52682816 2.20819444,2.57860021 C2.18696236,2.61738393 2.15573801,2.64411446 2.12075567,2.66416691 L2.10297394,2.67365058 C2.03860433,2.71303036 1.93957039,2.69377273 1.84920253,2.61839396 C1.79967328,2.5717716 1.75402789,2.51631213 1.70952728,2.45978654 L1.65650074,2.39194143 C1.64769613,2.3807144 1.63889349,2.36956906 1.6300709,2.35856758 C1.59169954,2.30921555 1.55580772,2.25846062 1.51743636,2.20769918 L1.49221251,2.1726464 C1.48403212,2.16086976 1.4762893,2.14892042 1.46961411,2.13655734 L1.46048079,2.11767231 Z" id="path-13"></path>
    </defs>
    <g id="光储充及工商储管理系统V1.3" stroke="none" stroke-width="1" fill="none" fill-rule="evenodd">
        <g id="3_2_1.设备监视_站点拓扑_永泰光储充示范站能量流" transform="translate(-384.000000, -575.000000)">
            <g id="main" transform="translate(212.000000, 102.000000)">
                <g id="拓扑图" transform="translate(149.000000, 100.000000)">
                    <g id="发电单元" transform="translate(19.000000, 373.000000)">
                        <g id="icon_发电单元" transform="translate(4.054838, 0.000000)">
                            <g id="华为逆变器1" transform="translate(20.000000, 25.000000) scale(-1, 1) translate(-20.000000, -25.000000) ">
                                <polygon id="矩形备份-72" fill="#B8BBBC" points="4.86486486 33.703579 12.7693798 29.1870089 12.7693798 30.6808658 4.86486486 35.1993987"></polygon>
                                <polygon id="矩形备份-73" fill="#B8BBBC" points="30.2702703 48.5041803 38.1747852 43.9876101 38.1747852 45.4814671 30.2702703 50"></polygon>
                                <g id="逆变器1备份-2" transform="translate(0.000000, 0.263776)">
                                    <g id="矩形备份">
                                        <use fill="url(#linearGradient-1)" xlink:href="#path-2"></use>
                                        <use fill="#D2D2D2" xlink:href="#path-2"></use>
                                    </g>
                                    <path d="M1.25454113,5.61655016 L30.6679011,22.5991641 C31.3431212,22.9924173 31.7584368,23.714919 31.7584368,24.4963089 L31.7584368,24.4963089 L31.7584368,47.1061264 C31.7584368,47.3659504 31.6531223,47.6011768 31.4828518,47.7714473 C31.3125814,47.9417178 31.0773549,48.0470323 30.8175309,48.0470323 L30.8175309,48.0470323 L1.404171,31.0644183 C0.728950905,30.6711651 0.313635283,29.9486634 0.313635283,29.1672735 L0.313635283,29.1672735 L0.313635283,6.55745601 C0.313635283,6.29763204 0.418949758,6.06240558 0.589220226,5.89213511 C0.759490695,5.72186464 0.994717157,5.61655016 1.25454113,5.61655016 L1.25454113,5.61655016 Z" id="矩形" stroke="url(#linearGradient-4)" stroke-width="0.627270566" fill="url(#linearGradient-3)" fill-rule="nonzero"></path>
                                    <polygon id="矩形" fill="#DADCDE" points="1.8018018 31.6558524 4.86486486 33.4398031 4.86486486 34.9356229 1.8018018 33.1516721"></polygon>
                                    <polygon id="矩形备份-66" fill="#DADCDE" points="27.2072072 46.4564537 30.2702703 48.2404044 30.2702703 49.7319199 27.2072072 47.9479692"></polygon>
                                    <g id="编组-70" transform="translate(13.153153, 24.533984)">
                                        <path d="M1.38738739,0.191144555 L4.55855856,2.03805822 C5.31180446,2.47675424 5.92484818,3.53300686 5.94541294,4.41658798 L5.94594595,4.48312007 C5.94594595,5.37563954 5.32479145,5.73740454 4.55855856,5.2911448 L1.38738739,3.44423113 C0.634141489,3.00553512 0.0210977617,1.9492825 0.000533006144,1.06570137 L0,0.999169285 C0,0.106649813 0.621154491,-0.255115181 1.38738739,0.191144555 Z" id="矩形" fill="#3A3A3E"></path>
                                        <g id="LOGO" transform="translate(2.477477, 2.561160)" fill="#FFFFFF" fill-rule="nonzero">
                                            <path d="M0.371051776,0.00158229206 C0.39233416,0.0046153637 0.414576591,0.0113836442 0.437162803,0.0216996063 C0.448738514,0.0466276241 0.456452014,0.0714242004 0.462786152,0.096152083 L0.480133331,0.170192397 C0.488404038,0.221633235 0.495014048,0.272175475 0.496117537,0.320347163 C0.498848946,0.338381891 0.499395228,0.355234253 0.499395228,0.37186715 L0.499395228,0.422070346 L0.4998012,0.442367611 L0.4998012,0.442367611 L0.498469381,0.481963736 L0.498469381,0.481963736 L0.498302664,0.512401086 C0.499395228,0.55514546 0.49393241,0.594342734 0.494445915,0.637370851 C0.488983096,0.661510002 0.493353351,0.692175886 0.485639852,0.714500128 C0.480952754,0.709253251 0.477508447,0.703323493 0.474477948,0.697166859 L0.465798896,0.678472323 C0.422282086,0.584471147 0.382064818,0.490452192 0.34460081,0.396119865 L0.320804205,0.330559474 C0.293606684,0.253733379 0.270040625,0.17640091 0.267465817,0.105702376 C0.264954601,0.0393087875 0.303712036,-0.00219035684 0.357348069,8.93716096e-05 L0.371051776,0.00158229206 Z M0.574818563,0.112056166 C0.576639979,0.11184733 0.578533036,0.112539685 0.580471832,0.113699057 L0.62261372,0.146217602 C0.642780432,0.162254638 0.662621718,0.179810429 0.679524454,0.203005129 C0.703217427,0.237507593 0.725260197,0.275320747 0.734079491,0.313205137 C0.746745614,0.359797978 0.741795007,0.40047919 0.734079491,0.436643531 C0.723052641,0.481859389 0.702113649,0.518703978 0.681174656,0.554903731 C0.674617561,0.565805741 0.6651972,0.57396471 0.659131886,0.585729823 C0.651052087,0.601030496 0.641252872,0.614594332 0.631045659,0.627495184 L0.61559277,0.646483457 C0.591353373,0.679130507 0.564349067,0.707869697 0.537891185,0.737525432 L0.533648097,0.741431682 C0.530548452,0.744167926 0.526878907,0.7458104 0.522471082,0.738211543 C0.518099685,0.687066134 0.514755566,0.63708545 0.513094435,0.587453942 C0.510067242,0.554804512 0.509381471,0.523270948 0.509381471,0.492036673 L0.509815887,0.398415142 C0.513673645,0.358957841 0.514187284,0.317679577 0.518635181,0.279138586 L0.531097761,0.212576433 C0.535437739,0.190541296 0.540399275,0.16899614 0.547289689,0.148954167 L0.552427392,0.141200061 L0.561094999,0.123120304 C0.562722033,0.120344093 0.564560642,0.117860691 0.566791366,0.115931504 L0.574818563,0.112056166 Z M0.148642125,0.0197318289 C0.151414181,0.019861774 0.15342954,0.0224068516 0.155192668,0.0256325836 L0.160229818,0.0356172651 L0.160229818,0.0356172651 C0.245274545,0.216705896 0.320250142,0.40070453 0.384263106,0.585372469 L0.411023446,0.664550317 C0.416567558,0.681683425 0.423620067,0.699697278 0.424628996,0.715961508 L0.41259326,0.704032426 L0.41259326,0.704032426 L0.389875907,0.677326879 L0.389875907,0.677326879 C0.325274387,0.600027365 0.262394848,0.519804571 0.201485999,0.436975805 L0.167547046,0.387833904 C0.156401384,0.371302519 0.145570388,0.354506569 0.135496088,0.33710461 C0.0951988879,0.279533719 0.0674983091,0.205940831 0.0710245638,0.148416171 C0.0746207443,0.088758363 0.10397187,0.0531349658 0.137347661,0.0277891096 L0.148642125,0.0197318289 Z M0.835712378,0.425738761 L0.843763827,0.430503699 L0.866271761,0.4774206 C0.877540752,0.500955769 0.888300524,0.524666755 0.896158178,0.548826885 C0.91021325,0.586652069 0.917275749,0.624554288 0.919273627,0.659447266 C0.917765229,0.695883438 0.907685934,0.728465281 0.887037865,0.745143742 C0.873442305,0.751546846 0.862863541,0.762756502 0.848758522,0.767043008 C0.773698244,0.793684841 0.68907812,0.799001913 0.603948538,0.801605316 L0.585123532,0.802961154 C0.578762788,0.803110592 0.572212245,0.802395397 0.565159736,0.799129189 C0.566423394,0.789338739 0.569699914,0.781793352 0.573540834,0.774807379 L0.585308336,0.753842045 C0.642616021,0.649194055 0.709863217,0.556627273 0.786294865,0.47718105 C0.79670381,0.465277803 0.808231566,0.454572718 0.819389345,0.443289549 L0.835712378,0.425738761 Z M0.00349628654,0.249957926 L0.0057925976,0.242747452 C0.00661297626,0.240365529 0.00787663411,0.238692255 0.0106486899,0.239729747 L0.0202899313,0.24937621 L0.0383492687,0.272387469 C0.158741399,0.421912859 0.278624069,0.572951841 0.393971557,0.729725547 C0.397967313,0.734478563 0.400015138,0.740526762 0.401523536,0.746840851 C0.32546432,0.703022288 0.249405103,0.658009584 0.173845356,0.612695401 C0.128014035,0.586180918 0.08419058,0.534953788 0.0519747968,0.477950252 C0.0242242711,0.4254044 0.00301679582,0.367082138 0.000499469504,0.315617539 L0.000124867374,0.281674786 C0.000249734751,0.27045957 0.000998939011,0.259615336 0.00349628654,0.249957926 Z M0.88612883,0.81751114 L0.960150211,0.811999624 C0.96770219,0.810909226 0.975254169,0.809818828 0.984324535,0.817348125 L0.988522299,0.868467792 C0.989176049,0.87695529 0.989685508,0.885343973 0.989868647,0.893509955 L0.987074814,0.927562136 C0.985645932,0.944586691 0.98351939,0.960937487 0.977771495,0.97359296 C0.969720047,0.992274855 0.961658609,1.01163381 0.94755359,1.0206872 C0.932439643,1.02975424 0.919853011,1.04467832 0.90070335,1.04410323 C0.879555811,1.05184334 0.852354702,1.04029925 0.826162521,1.02462485 C0.746567061,0.971358312 0.66648212,0.917076174 0.586896649,0.86244875 C0.588894527,0.85833228 0.590892405,0.854803905 0.594958087,0.854796977 C0.689649514,0.835672506 0.787550332,0.825349429 0.88612883,0.81751114 Z M0.1459461,0.642087848 L0.173775431,0.660691109 L0.205970142,0.68069494 L0.270539375,0.725191871 C0.281289988,0.732290406 0.292024836,0.738957989 0.302728468,0.744786405 C0.333455832,0.765289602 0.364183196,0.785043473 0.394401101,0.810255192 C0.391180522,0.815511846 0.386909858,0.818390808 0.382203496,0.82021436 L0.360157472,0.825759029 C0.327809397,0.835976534 0.293605574,0.840950434 0.257896085,0.840629821 C0.222643527,0.840887739 0.178310614,0.799773987 0.148092709,0.74258625 C0.123408926,0.700259201 0.106277122,0.652417015 0.0901542459,0.605295363 C0.108621298,0.615092587 0.127328096,0.628942149 0.1459461,0.642087848 Z M0.594378702,0.893491188 C0.624606597,0.908992115 0.655313982,0.928359234 0.686051335,0.948341159 L0.717188576,0.969234619 L0.779841407,1.00738539 C0.790262526,1.01394026 0.800652116,1.02079348 0.810978648,1.02824526 C0.840187625,1.0485407 0.869406591,1.06282358 0.898625557,1.08433101 C0.888546263,1.10364595 0.872932846,1.11609136 0.855811031,1.12521997 C0.82961885,1.14228338 0.78932165,1.13471119 0.752550705,1.10331301 C0.733203255,1.08463363 0.715312257,1.06248291 0.69789164,1.03978775 L0.663385409,0.994538745 L0.617554087,0.931292474 C0.611125915,0.922114573 0.60442241,0.913042409 0.599133496,0.903378364 L0.594378702,0.893491188 Z" id="形状"></path>
                                            <path d="M0,0.749412446 C0.0182889265,0.757190993 0.0358221122,0.764073634 0.0541110386,0.7706537 L0.0536631923,0.821866927 L0.0548667794,0.848300238 L0.0548667794,0.848300238 C0.0952686806,0.865358458 0.136486782,0.881538598 0.177583965,0.896472791 L0.178794269,0.871410515 L0.178339705,0.820066764 C0.196628632,0.827857295 0.214161817,0.834739936 0.232450744,0.841308018 C0.231695003,0.903875601 0.231695003,0.966727865 0.232450744,1.02986481 L0.178339705,1.00862356 L0.178787552,0.957277164 L0.177583965,0.930977018 L0.177583965,0.930977018 C0.137182063,0.913918798 0.0959639621,0.897738658 0.0548667794,0.882804465 C0.0533552979,0.908194171 0.0541110386,0.933874634 0.0541110386,0.959857671 L0,0.938616417 L0.000566805572,0.84400922 L0,0.749412446 Z M0.182346327,0.857719108 C0.20100159,0.865497655 0.218885975,0.872380296 0.237541238,0.878960362 L0.238312116,1.00133416 L0.238312116,1.00133416 C0.238312116,1.01878402 0.253787264,1.04264814 0.275885976,1.05535714 L0.28573657,1.06006966 C0.312948586,1.0741374 0.351816287,1.08310288 0.358044986,1.06070339 L0.359279534,1.0162799 L0.358815865,0.925571864 C0.377471128,0.93335041 0.395355512,0.940233051 0.414010775,0.946813118 L0.414797071,1.06858162 L0.414797071,1.06858162 L0.41341245,1.0876998 C0.411901651,1.09701274 0.408266188,1.10511713 0.398469862,1.10823597 C0.368929793,1.11921939 0.325390567,1.10549587 0.286522866,1.0887163 L0.256800746,1.07483945 C0.24189331,1.06732286 0.227436561,1.05849897 0.215771625,1.0463875 C0.194918955,1.02690357 0.182924919,1.00341531 0.183888085,0.983949053 L0.182346327,0.857719108 Z M0.435098859,0.995371927 L0.485520971,1.01841097 C0.49141632,1.04164664 0.505167805,1.06485255 0.512361689,1.0880823 L0.5243845,1.11471811 L0.544500429,1.16778514 C0.548132269,1.17661264 0.552142308,1.18543356 0.556888453,1.19425075 C0.564744589,1.212342 0.571951459,1.23013659 0.576535287,1.24855434 L0.545101122,1.23454289 L0.529385482,1.22639927 L0.529385482,1.22639927 C0.518906305,1.20891919 0.51629625,1.19080406 0.507128593,1.173324 C0.474901393,1.15547815 0.442397934,1.14082754 0.410218929,1.12964294 L0.395859056,1.15204927 C0.393336531,1.15571012 0.390572095,1.15914902 0.387299787,1.1620882 C0.372899034,1.15670664 0.358485296,1.14952142 0.344084543,1.14294138 C0.345383078,1.12540172 0.355212988,1.11479239 0.365042897,1.10477032 C0.374859822,1.08629303 0.387299787,1.07022474 0.396467443,1.05145079 C0.403094841,1.04609264 0.407974695,1.03917253 0.412314262,1.03175085 L0.424919359,1.00904149 L0.424919359,1.00904149 L0.435098859,0.995371927 Z M0.43809717,1.16126241 C0.468599807,1.18788314 0.500416673,1.20654922 0.530919309,1.2157186 L0.50162091,1.1159341 C0.496416536,1.09941029 0.49070185,1.08286865 0.483952364,1.06620228 C0.468096236,1.08466375 0.458965293,1.11137133 0.448801481,1.13669848 L0.43809717,1.16126241 Z M0.504713936,1.04919299 L0.544002208,1.07252871 C0.546999025,1.09244169 0.550545258,1.11266903 0.556588839,1.13318122 C0.566158675,1.16847976 0.56968493,1.20199835 0.580263694,1.23729692 L0.584798877,1.23816895 L0.589617665,1.21205994 L0.603638086,1.16379795 C0.605734141,1.15558898 0.6074673,1.14709574 0.608473732,1.1380158 C0.610118765,1.12994955 0.612308868,1.12236227 0.615026771,1.11531379 L0.657851287,1.14074989 L0.677887784,1.22687574 L0.689844347,1.28587947 C0.691652986,1.29407615 0.694196684,1.30218823 0.699656885,1.30942232 L0.707071978,1.27795255 L0.707071978,1.27795255 L0.725865454,1.2184996 C0.728965755,1.20856619 0.731892647,1.19848314 0.734409973,1.18804448 L0.746796447,1.19360029 L0.772699305,1.20896517 C0.754558573,1.26105053 0.73592836,1.31222195 0.718756599,1.36548208 L0.690546561,1.34925907 C0.685844888,1.34646646 0.681143215,1.34354068 0.676441542,1.34034858 C0.674178945,1.3374946 0.673047647,1.33425491 0.672292199,1.33101075 L0.649956709,1.22892967 C0.64633796,1.21348514 0.642364402,1.19803094 0.63766273,1.18254643 L0.633650694,1.19137855 L0.628592363,1.21160329 L0.605926437,1.29786609 L0.605926437,1.29786609 C0.591321949,1.28979083 0.57721693,1.281413 0.562602452,1.27213332 L0.55511837,1.24880153 L0.544117242,1.20267851 C0.542111091,1.19498967 0.539814156,1.18727943 0.53691973,1.17951692 C0.526340966,1.14121017 0.520297385,1.10252904 0.506691836,1.06427015 L0.505144335,1.05651329 L0.504713936,1.04919299 Z M0.811215228,1.24874358 C0.82583535,1.23873646 0.84991278,1.23830984 0.875565346,1.24760337 L1.01265331,1.29607261 L1.01265331,1.32991767 C0.973366918,1.3152445 0.934080524,1.3005953 0.89479413,1.28773183 C0.865536541,1.2796565 0.847153161,1.29303114 0.845478931,1.3129858 L0.900895523,1.33404197 L1.01265331,1.37342248 L1.01265331,1.40726754 C0.958315422,1.38721891 0.903148705,1.36687361 0.848827391,1.34862863 C0.842196776,1.36559877 0.85711566,1.39148069 0.884765325,1.40621931 C0.927400179,1.4269089 0.970018457,1.43793281 1.01265331,1.45501497 L1.01265331,1.4846294 C0.966686573,1.46817633 0.921482355,1.45259543 0.875565346,1.43556092 C0.830851125,1.41583172 0.794281724,1.3789851 0.78439439,1.34369885 C0.777142155,1.3099051 0.777504767,1.27512992 0.800074176,1.25594108 L0.811215228,1.24874358 Z M0.989939479,1.3191534 C1.0120525,1.32402529 1.0347994,1.3322366 1.0570273,1.34337114 L1.05891735,1.38405982 L1.0590456,1.52591845 C1.05873847,1.53604362 1.05792035,1.54592839 1.05607958,1.55535742 L0.989921254,1.5307876 L0.990620655,1.42491753 L0.989939479,1.3191534 Z" id="形状"></path>
                                        </g>
                                        <g id="编组-65" transform="translate(3.243335, 2.400973) rotate(-8.000000) translate(-3.243335, -2.400973) translate(2.081081, 1.226984)" fill="#22FFFF">
                                            <path d="M0.13912422,0.51317974 C0.215960405,0.579692223 0.278248439,0.525072955 0.278248439,0.391184193 C0.278248439,0.25729543 0.215960405,0.0948381228 0.13912422,0.0283256407 C0.0622880348,-0.0381868414 0,0.0164324258 0,0.150321188 C0,0.284209951 0.0622880348,0.446667258 0.13912422,0.51317974 Z" id="椭圆形"></path>
                                            <path d="M0.821210553,1.11533725 C0.898046738,1.18184973 0.960334773,1.12723047 0.960334773,0.993341704 C0.960334773,0.859452941 0.898046738,0.696995634 0.821210553,0.630483152 C0.744374368,0.56397067 0.682086333,0.618589937 0.682086333,0.752478699 C0.682086333,0.886367462 0.744374368,1.04882477 0.821210553,1.11533725 Z" id="椭圆形备份-62"></path>
                                            <path d="M1.50329689,1.71749476 C1.58013307,1.78400724 1.64242111,1.72938798 1.64242111,1.59549921 C1.64242111,1.46161045 1.58013307,1.29915314 1.50329689,1.23264066 C1.4264607,1.16612818 1.36417267,1.22074745 1.36417267,1.35463621 C1.36417267,1.48852497 1.4264607,1.65098228 1.50329689,1.71749476 Z" id="椭圆形备份-63"></path>
                                            <path d="M2.18538322,2.31965227 C2.2622194,2.38616476 2.32450744,2.33154549 2.32450744,2.19765673 C2.32450744,2.06376796 2.2622194,1.90131066 2.18538322,1.83479817 C2.10854703,1.76828569 2.046259,1.82290496 2.046259,1.95679372 C2.046259,2.09068248 2.10854703,2.25313979 2.18538322,2.31965227 Z" id="椭圆形备份-64"></path>
                                        </g>
                                    </g>
                                    <g id="LOGO3" transform="translate(2.083165, 8.701212)" fill-rule="nonzero">
                                        <g id="形状">
                                            <use fill="#C71F1E" xlink:href="#path-6"></use>
                                            <use fill="url(#linearGradient-5)" xlink:href="#path-6"></use>
                                        </g>
                                    </g>
                                    <g id="1" transform="translate(1.101805, 6.611224)" fill-rule="nonzero">
                                        <g id="组_1" transform="translate(28.227175, 16.250000)">
                                            <circle id="椭圆_8-10" fill="url(#linearGradient-7)" cx="0.5" cy="0.5" r="1"></circle>
                                            <ellipse id="椭圆_7-10" fill="url(#linearGradient-8)" cx="0.5" cy="0.5" rx="1" ry="1"></ellipse>
                                        </g>
                                        <g id="组_2" transform="translate(14.579959, 8.388776)">
                                            <circle id="椭圆_8-10" fill="url(#linearGradient-7)" cx="0.5" cy="0.5" r="1"></circle>
                                            <ellipse id="椭圆_7-10" fill="url(#linearGradient-8)" cx="0.5" cy="0.5" rx="1" ry="1"></ellipse>
                                        </g>
                                        <g id="组_3" transform="translate(0.000000, 0.000000)">
                                            <circle id="椭圆_8-10" fill="url(#linearGradient-7)" cx="0.5" cy="0.5" r="1"></circle>
                                            <ellipse id="椭圆_7-10" fill="url(#linearGradient-8)" cx="0.5" cy="0.5" rx="1" ry="1"></ellipse>
                                        </g>
                                    </g>
                                    <g id="1备份" transform="translate(1.101805, 29.736224)" fill-rule="nonzero">
                                        <g id="组_1" transform="translate(28.227175, 16.250000)">
                                            <circle id="椭圆_8-10" fill="url(#linearGradient-7)" cx="0.5" cy="0.5" r="1"></circle>
                                            <ellipse id="椭圆_7-10" fill="url(#linearGradient-8)" cx="0.5" cy="0.5" rx="1" ry="1"></ellipse>
                                        </g>
                                        <g id="组_2" transform="translate(14.579959, 8.388776)">
                                            <circle id="椭圆_8-10" fill="url(#linearGradient-7)" cx="0.5" cy="0.5" r="1"></circle>
                                            <ellipse id="椭圆_7-10" fill="url(#linearGradient-8)" cx="0.5" cy="0.5" rx="1" ry="1"></ellipse>
                                        </g>
                                        <g id="组_3" transform="translate(0.000000, 0.000000)">
                                            <circle id="椭圆_8-10" fill="url(#linearGradient-7)" cx="0.5" cy="0.5" r="1"></circle>
                                            <ellipse id="椭圆_7-10" fill="url(#linearGradient-8)" cx="0.5" cy="0.5" rx="1" ry="1"></ellipse>
                                        </g>
                                    </g>
                                </g>
                                <path d="M30.8668075,22.6234809 L30.4673157,22.3805091 L30.4673157,22.3805091 L1.85993608,5.72524071 C1.63530833,5.60364723 1.41051149,5.55220604 1.18554556,5.57091713 C0.960579629,5.58962822 0.789309189,5.63590686 0.671734244,5.70975304 L6.75023315,1.63552122 C7.74724492,0.967254736 9.03821122,0.926598415 10.0752969,1.5308052 L38.5126593,18.0984304 L38.5126593,18.0984304 L38.671832,18.1906894 C39.4460668,18.6394479 39.9226869,19.4665985 39.9226869,20.361486 L39.9226869,20.5231117 L39.9226869,20.5231117 L39.9521949,43.049193 C39.9325229,43.3162659 39.8614248,43.5331059 39.7389005,43.6997128 C39.6163762,43.8663197 39.4697202,43.9987469 39.2989324,44.0969944 L31.3957502,48.4836864 C31.6167919,48.338569 31.7679528,48.2072608 31.849233,48.0897617 C31.9711534,47.9135132 32.0720721,47.5991821 32.0720721,47.4761899 C32.0720721,40.0425279 32.0720721,32.5268957 32.0720721,24.9292932 L32.0720721,24.767205 C32.0720721,23.8912302 31.6152279,23.0786718 30.8668075,22.6234809 Z" id="矩形备份-74" fill="url(#linearGradient-9)" fill-rule="nonzero"></path>
                            </g>
                            <g id="icon_华为逆变器2" transform="translate(12.000000, 6.000000)">
                                <g id="华为逆变器1" transform="translate(20.000000, 25.000000) scale(-1, 1) translate(-20.000000, -25.000000) ">
                                    <polygon id="矩形备份-72" fill="#B8BBBC" points="4.86486486 33.703579 12.7693798 29.1870089 12.7693798 30.6808658 4.86486486 35.1993987"></polygon>
                                    <polygon id="矩形备份-73" fill="#B8BBBC" points="30.2702703 48.5041803 38.1747852 43.9876101 38.1747852 45.4814671 30.2702703 50"></polygon>
                                    <g id="逆变器1备份-2" transform="translate(0.000000, 0.263776)">
                                        <g id="矩形备份">
                                            <use fill="url(#linearGradient-1)" xlink:href="#path-10"></use>
                                            <use fill="#D2D2D2" xlink:href="#path-10"></use>
                                        </g>
                                        <path d="M1.25454113,5.61655016 L30.6679011,22.5991641 C31.3431212,22.9924173 31.7584368,23.714919 31.7584368,24.4963089 L31.7584368,24.4963089 L31.7584368,47.1061264 C31.7584368,47.3659504 31.6531223,47.6011768 31.4828518,47.7714473 C31.3125814,47.9417178 31.0773549,48.0470323 30.8175309,48.0470323 L30.8175309,48.0470323 L1.404171,31.0644183 C0.728950905,30.6711651 0.313635283,29.9486634 0.313635283,29.1672735 L0.313635283,29.1672735 L0.313635283,6.55745601 C0.313635283,6.29763204 0.418949758,6.06240558 0.589220226,5.89213511 C0.759490695,5.72186464 0.994717157,5.61655016 1.25454113,5.61655016 L1.25454113,5.61655016 Z" id="矩形" stroke="url(#linearGradient-4)" stroke-width="0.627270566" fill="url(#linearGradient-3)" fill-rule="nonzero"></path>
                                        <polygon id="矩形" fill="#DADCDE" points="1.8018018 31.6558524 4.86486486 33.4398031 4.86486486 34.9356229 1.8018018 33.1516721"></polygon>
                                        <polygon id="矩形备份-66" fill="#DADCDE" points="27.2072072 46.4564537 30.2702703 48.2404044 30.2702703 49.7319199 27.2072072 47.9479692"></polygon>
                                        <g id="编组-70" transform="translate(13.153153, 24.533984)">
                                            <path d="M1.38738739,0.191144555 L4.55855856,2.03805822 C5.31180446,2.47675424 5.92484818,3.53300686 5.94541294,4.41658798 L5.94594595,4.48312007 C5.94594595,5.37563954 5.32479145,5.73740454 4.55855856,5.2911448 L1.38738739,3.44423113 C0.634141489,3.00553512 0.0210977617,1.9492825 0.000533006144,1.06570137 L0,0.999169285 C0,0.106649813 0.621154491,-0.255115181 1.38738739,0.191144555 Z" id="矩形" fill="#3A3A3E"></path>
                                            <g id="LOGO" transform="translate(2.477477, 2.561160)" fill="#FFFFFF" fill-rule="nonzero">
                                                <path d="M0.371051776,0.00158229206 C0.39233416,0.0046153637 0.414576591,0.0113836442 0.437162803,0.0216996063 C0.448738514,0.0466276241 0.456452014,0.0714242004 0.462786152,0.096152083 L0.480133331,0.170192397 C0.488404038,0.221633235 0.495014048,0.272175475 0.496117537,0.320347163 C0.498848946,0.338381891 0.499395228,0.355234253 0.499395228,0.37186715 L0.499395228,0.422070346 L0.4998012,0.442367611 L0.4998012,0.442367611 L0.498469381,0.481963736 L0.498469381,0.481963736 L0.498302664,0.512401086 C0.499395228,0.55514546 0.49393241,0.594342734 0.494445915,0.637370851 C0.488983096,0.661510002 0.493353351,0.692175886 0.485639852,0.714500128 C0.480952754,0.709253251 0.477508447,0.703323493 0.474477948,0.697166859 L0.465798896,0.678472323 C0.422282086,0.584471147 0.382064818,0.490452192 0.34460081,0.396119865 L0.320804205,0.330559474 C0.293606684,0.253733379 0.270040625,0.17640091 0.267465817,0.105702376 C0.264954601,0.0393087875 0.303712036,-0.00219035684 0.357348069,8.93716096e-05 L0.371051776,0.00158229206 Z M0.574818563,0.112056166 C0.576639979,0.11184733 0.578533036,0.112539685 0.580471832,0.113699057 L0.62261372,0.146217602 C0.642780432,0.162254638 0.662621718,0.179810429 0.679524454,0.203005129 C0.703217427,0.237507593 0.725260197,0.275320747 0.734079491,0.313205137 C0.746745614,0.359797978 0.741795007,0.40047919 0.734079491,0.436643531 C0.723052641,0.481859389 0.702113649,0.518703978 0.681174656,0.554903731 C0.674617561,0.565805741 0.6651972,0.57396471 0.659131886,0.585729823 C0.651052087,0.601030496 0.641252872,0.614594332 0.631045659,0.627495184 L0.61559277,0.646483457 C0.591353373,0.679130507 0.564349067,0.707869697 0.537891185,0.737525432 L0.533648097,0.741431682 C0.530548452,0.744167926 0.526878907,0.7458104 0.522471082,0.738211543 C0.518099685,0.687066134 0.514755566,0.63708545 0.513094435,0.587453942 C0.510067242,0.554804512 0.509381471,0.523270948 0.509381471,0.492036673 L0.509815887,0.398415142 C0.513673645,0.358957841 0.514187284,0.317679577 0.518635181,0.279138586 L0.531097761,0.212576433 C0.535437739,0.190541296 0.540399275,0.16899614 0.547289689,0.148954167 L0.552427392,0.141200061 L0.561094999,0.123120304 C0.562722033,0.120344093 0.564560642,0.117860691 0.566791366,0.115931504 L0.574818563,0.112056166 Z M0.148642125,0.0197318289 C0.151414181,0.019861774 0.15342954,0.0224068516 0.155192668,0.0256325836 L0.160229818,0.0356172651 L0.160229818,0.0356172651 C0.245274545,0.216705896 0.320250142,0.40070453 0.384263106,0.585372469 L0.411023446,0.664550317 C0.416567558,0.681683425 0.423620067,0.699697278 0.424628996,0.715961508 L0.41259326,0.704032426 L0.41259326,0.704032426 L0.389875907,0.677326879 L0.389875907,0.677326879 C0.325274387,0.600027365 0.262394848,0.519804571 0.201485999,0.436975805 L0.167547046,0.387833904 C0.156401384,0.371302519 0.145570388,0.354506569 0.135496088,0.33710461 C0.0951988879,0.279533719 0.0674983091,0.205940831 0.0710245638,0.148416171 C0.0746207443,0.088758363 0.10397187,0.0531349658 0.137347661,0.0277891096 L0.148642125,0.0197318289 Z M0.835712378,0.425738761 L0.843763827,0.430503699 L0.866271761,0.4774206 C0.877540752,0.500955769 0.888300524,0.524666755 0.896158178,0.548826885 C0.91021325,0.586652069 0.917275749,0.624554288 0.919273627,0.659447266 C0.917765229,0.695883438 0.907685934,0.728465281 0.887037865,0.745143742 C0.873442305,0.751546846 0.862863541,0.762756502 0.848758522,0.767043008 C0.773698244,0.793684841 0.68907812,0.799001913 0.603948538,0.801605316 L0.585123532,0.802961154 C0.578762788,0.803110592 0.572212245,0.802395397 0.565159736,0.799129189 C0.566423394,0.789338739 0.569699914,0.781793352 0.573540834,0.774807379 L0.585308336,0.753842045 C0.642616021,0.649194055 0.709863217,0.556627273 0.786294865,0.47718105 C0.79670381,0.465277803 0.808231566,0.454572718 0.819389345,0.443289549 L0.835712378,0.425738761 Z M0.00349628654,0.249957926 L0.0057925976,0.242747452 C0.00661297626,0.240365529 0.00787663411,0.238692255 0.0106486899,0.239729747 L0.0202899313,0.24937621 L0.0383492687,0.272387469 C0.158741399,0.421912859 0.278624069,0.572951841 0.393971557,0.729725547 C0.397967313,0.734478563 0.400015138,0.740526762 0.401523536,0.746840851 C0.32546432,0.703022288 0.249405103,0.658009584 0.173845356,0.612695401 C0.128014035,0.586180918 0.08419058,0.534953788 0.0519747968,0.477950252 C0.0242242711,0.4254044 0.00301679582,0.367082138 0.000499469504,0.315617539 L0.000124867374,0.281674786 C0.000249734751,0.27045957 0.000998939011,0.259615336 0.00349628654,0.249957926 Z M0.88612883,0.81751114 L0.960150211,0.811999624 C0.96770219,0.810909226 0.975254169,0.809818828 0.984324535,0.817348125 L0.988522299,0.868467792 C0.989176049,0.87695529 0.989685508,0.885343973 0.989868647,0.893509955 L0.987074814,0.927562136 C0.985645932,0.944586691 0.98351939,0.960937487 0.977771495,0.97359296 C0.969720047,0.992274855 0.961658609,1.01163381 0.94755359,1.0206872 C0.932439643,1.02975424 0.919853011,1.04467832 0.90070335,1.04410323 C0.879555811,1.05184334 0.852354702,1.04029925 0.826162521,1.02462485 C0.746567061,0.971358312 0.66648212,0.917076174 0.586896649,0.86244875 C0.588894527,0.85833228 0.590892405,0.854803905 0.594958087,0.854796977 C0.689649514,0.835672506 0.787550332,0.825349429 0.88612883,0.81751114 Z M0.1459461,0.642087848 L0.173775431,0.660691109 L0.205970142,0.68069494 L0.270539375,0.725191871 C0.281289988,0.732290406 0.292024836,0.738957989 0.302728468,0.744786405 C0.333455832,0.765289602 0.364183196,0.785043473 0.394401101,0.810255192 C0.391180522,0.815511846 0.386909858,0.818390808 0.382203496,0.82021436 L0.360157472,0.825759029 C0.327809397,0.835976534 0.293605574,0.840950434 0.257896085,0.840629821 C0.222643527,0.840887739 0.178310614,0.799773987 0.148092709,0.74258625 C0.123408926,0.700259201 0.106277122,0.652417015 0.0901542459,0.605295363 C0.108621298,0.615092587 0.127328096,0.628942149 0.1459461,0.642087848 Z M0.594378702,0.893491188 C0.624606597,0.908992115 0.655313982,0.928359234 0.686051335,0.948341159 L0.717188576,0.969234619 L0.779841407,1.00738539 C0.790262526,1.01394026 0.800652116,1.02079348 0.810978648,1.02824526 C0.840187625,1.0485407 0.869406591,1.06282358 0.898625557,1.08433101 C0.888546263,1.10364595 0.872932846,1.11609136 0.855811031,1.12521997 C0.82961885,1.14228338 0.78932165,1.13471119 0.752550705,1.10331301 C0.733203255,1.08463363 0.715312257,1.06248291 0.69789164,1.03978775 L0.663385409,0.994538745 L0.617554087,0.931292474 C0.611125915,0.922114573 0.60442241,0.913042409 0.599133496,0.903378364 L0.594378702,0.893491188 Z" id="形状"></path>
                                                <path d="M0,0.749412446 C0.0182889265,0.757190993 0.0358221122,0.764073634 0.0541110386,0.7706537 L0.0536631923,0.821866927 L0.0548667794,0.848300238 L0.0548667794,0.848300238 C0.0952686806,0.865358458 0.136486782,0.881538598 0.177583965,0.896472791 L0.178794269,0.871410515 L0.178339705,0.820066764 C0.196628632,0.827857295 0.214161817,0.834739936 0.232450744,0.841308018 C0.231695003,0.903875601 0.231695003,0.966727865 0.232450744,1.02986481 L0.178339705,1.00862356 L0.178787552,0.957277164 L0.177583965,0.930977018 L0.177583965,0.930977018 C0.137182063,0.913918798 0.0959639621,0.897738658 0.0548667794,0.882804465 C0.0533552979,0.908194171 0.0541110386,0.933874634 0.0541110386,0.959857671 L0,0.938616417 L0.000566805572,0.84400922 L0,0.749412446 Z M0.182346327,0.857719108 C0.20100159,0.865497655 0.218885975,0.872380296 0.237541238,0.878960362 L0.238312116,1.00133416 L0.238312116,1.00133416 C0.238312116,1.01878402 0.253787264,1.04264814 0.275885976,1.05535714 L0.28573657,1.06006966 C0.312948586,1.0741374 0.351816287,1.08310288 0.358044986,1.06070339 L0.359279534,1.0162799 L0.358815865,0.925571864 C0.377471128,0.93335041 0.395355512,0.940233051 0.414010775,0.946813118 L0.414797071,1.06858162 L0.414797071,1.06858162 L0.41341245,1.0876998 C0.411901651,1.09701274 0.408266188,1.10511713 0.398469862,1.10823597 C0.368929793,1.11921939 0.325390567,1.10549587 0.286522866,1.0887163 L0.256800746,1.07483945 C0.24189331,1.06732286 0.227436561,1.05849897 0.215771625,1.0463875 C0.194918955,1.02690357 0.182924919,1.00341531 0.183888085,0.983949053 L0.182346327,0.857719108 Z M0.435098859,0.995371927 L0.485520971,1.01841097 C0.49141632,1.04164664 0.505167805,1.06485255 0.512361689,1.0880823 L0.5243845,1.11471811 L0.544500429,1.16778514 C0.548132269,1.17661264 0.552142308,1.18543356 0.556888453,1.19425075 C0.564744589,1.212342 0.571951459,1.23013659 0.576535287,1.24855434 L0.545101122,1.23454289 L0.529385482,1.22639927 L0.529385482,1.22639927 C0.518906305,1.20891919 0.51629625,1.19080406 0.507128593,1.173324 C0.474901393,1.15547815 0.442397934,1.14082754 0.410218929,1.12964294 L0.395859056,1.15204927 C0.393336531,1.15571012 0.390572095,1.15914902 0.387299787,1.1620882 C0.372899034,1.15670664 0.358485296,1.14952142 0.344084543,1.14294138 C0.345383078,1.12540172 0.355212988,1.11479239 0.365042897,1.10477032 C0.374859822,1.08629303 0.387299787,1.07022474 0.396467443,1.05145079 C0.403094841,1.04609264 0.407974695,1.03917253 0.412314262,1.03175085 L0.424919359,1.00904149 L0.424919359,1.00904149 L0.435098859,0.995371927 Z M0.43809717,1.16126241 C0.468599807,1.18788314 0.500416673,1.20654922 0.530919309,1.2157186 L0.50162091,1.1159341 C0.496416536,1.09941029 0.49070185,1.08286865 0.483952364,1.06620228 C0.468096236,1.08466375 0.458965293,1.11137133 0.448801481,1.13669848 L0.43809717,1.16126241 Z M0.504713936,1.04919299 L0.544002208,1.07252871 C0.546999025,1.09244169 0.550545258,1.11266903 0.556588839,1.13318122 C0.566158675,1.16847976 0.56968493,1.20199835 0.580263694,1.23729692 L0.584798877,1.23816895 L0.589617665,1.21205994 L0.603638086,1.16379795 C0.605734141,1.15558898 0.6074673,1.14709574 0.608473732,1.1380158 C0.610118765,1.12994955 0.612308868,1.12236227 0.615026771,1.11531379 L0.657851287,1.14074989 L0.677887784,1.22687574 L0.689844347,1.28587947 C0.691652986,1.29407615 0.694196684,1.30218823 0.699656885,1.30942232 L0.707071978,1.27795255 L0.707071978,1.27795255 L0.725865454,1.2184996 C0.728965755,1.20856619 0.731892647,1.19848314 0.734409973,1.18804448 L0.746796447,1.19360029 L0.772699305,1.20896517 C0.754558573,1.26105053 0.73592836,1.31222195 0.718756599,1.36548208 L0.690546561,1.34925907 C0.685844888,1.34646646 0.681143215,1.34354068 0.676441542,1.34034858 C0.674178945,1.3374946 0.673047647,1.33425491 0.672292199,1.33101075 L0.649956709,1.22892967 C0.64633796,1.21348514 0.642364402,1.19803094 0.63766273,1.18254643 L0.633650694,1.19137855 L0.628592363,1.21160329 L0.605926437,1.29786609 L0.605926437,1.29786609 C0.591321949,1.28979083 0.57721693,1.281413 0.562602452,1.27213332 L0.55511837,1.24880153 L0.544117242,1.20267851 C0.542111091,1.19498967 0.539814156,1.18727943 0.53691973,1.17951692 C0.526340966,1.14121017 0.520297385,1.10252904 0.506691836,1.06427015 L0.505144335,1.05651329 L0.504713936,1.04919299 Z M0.811215228,1.24874358 C0.82583535,1.23873646 0.84991278,1.23830984 0.875565346,1.24760337 L1.01265331,1.29607261 L1.01265331,1.32991767 C0.973366918,1.3152445 0.934080524,1.3005953 0.89479413,1.28773183 C0.865536541,1.2796565 0.847153161,1.29303114 0.845478931,1.3129858 L0.900895523,1.33404197 L1.01265331,1.37342248 L1.01265331,1.40726754 C0.958315422,1.38721891 0.903148705,1.36687361 0.848827391,1.34862863 C0.842196776,1.36559877 0.85711566,1.39148069 0.884765325,1.40621931 C0.927400179,1.4269089 0.970018457,1.43793281 1.01265331,1.45501497 L1.01265331,1.4846294 C0.966686573,1.46817633 0.921482355,1.45259543 0.875565346,1.43556092 C0.830851125,1.41583172 0.794281724,1.3789851 0.78439439,1.34369885 C0.777142155,1.3099051 0.777504767,1.27512992 0.800074176,1.25594108 L0.811215228,1.24874358 Z M0.989939479,1.3191534 C1.0120525,1.32402529 1.0347994,1.3322366 1.0570273,1.34337114 L1.05891735,1.38405982 L1.0590456,1.52591845 C1.05873847,1.53604362 1.05792035,1.54592839 1.05607958,1.55535742 L0.989921254,1.5307876 L0.990620655,1.42491753 L0.989939479,1.3191534 Z" id="形状"></path>
                                            </g>
                                            <g id="编组-65" transform="translate(3.243335, 2.400973) rotate(-8.000000) translate(-3.243335, -2.400973) translate(2.081081, 1.226984)" fill="#22FFFF">
                                                <path d="M0.13912422,0.51317974 C0.215960405,0.579692223 0.278248439,0.525072955 0.278248439,0.391184193 C0.278248439,0.25729543 0.215960405,0.0948381228 0.13912422,0.0283256407 C0.0622880348,-0.0381868414 0,0.0164324258 0,0.150321188 C0,0.284209951 0.0622880348,0.446667258 0.13912422,0.51317974 Z" id="椭圆形"></path>
                                                <path d="M0.821210553,1.11533725 C0.898046738,1.18184973 0.960334773,1.12723047 0.960334773,0.993341704 C0.960334773,0.859452941 0.898046738,0.696995634 0.821210553,0.630483152 C0.744374368,0.56397067 0.682086333,0.618589937 0.682086333,0.752478699 C0.682086333,0.886367462 0.744374368,1.04882477 0.821210553,1.11533725 Z" id="椭圆形备份-62"></path>
                                                <path d="M1.50329689,1.71749476 C1.58013307,1.78400724 1.64242111,1.72938798 1.64242111,1.59549921 C1.64242111,1.46161045 1.58013307,1.29915314 1.50329689,1.23264066 C1.4264607,1.16612818 1.36417267,1.22074745 1.36417267,1.35463621 C1.36417267,1.48852497 1.4264607,1.65098228 1.50329689,1.71749476 Z" id="椭圆形备份-63"></path>
                                                <path d="M2.18538322,2.31965227 C2.2622194,2.38616476 2.32450744,2.33154549 2.32450744,2.19765673 C2.32450744,2.06376796 2.2622194,1.90131066 2.18538322,1.83479817 C2.10854703,1.76828569 2.046259,1.82290496 2.046259,1.95679372 C2.046259,2.09068248 2.10854703,2.25313979 2.18538322,2.31965227 Z" id="椭圆形备份-64"></path>
                                            </g>
                                        </g>
                                        <g id="LOGO3" transform="translate(2.083165, 8.701212)" fill-rule="nonzero">
                                            <g id="形状">
                                                <use fill="#C71F1E" xlink:href="#path-11"></use>
                                                <use fill="url(#linearGradient-5)" xlink:href="#path-11"></use>
                                            </g>
                                        </g>
                                        <g id="1" transform="translate(1.101805, 6.611224)" fill-rule="nonzero">
                                            <g id="组_1" transform="translate(28.227175, 16.250000)">
                                                <circle id="椭圆_8-10" fill="url(#linearGradient-7)" cx="0.5" cy="0.5" r="1"></circle>
                                                <ellipse id="椭圆_7-10" fill="url(#linearGradient-8)" cx="0.5" cy="0.5" rx="1" ry="1"></ellipse>
                                            </g>
                                            <g id="组_2" transform="translate(14.579959, 8.388776)">
                                                <circle id="椭圆_8-10" fill="url(#linearGradient-7)" cx="0.5" cy="0.5" r="1"></circle>
                                                <ellipse id="椭圆_7-10" fill="url(#linearGradient-8)" cx="0.5" cy="0.5" rx="1" ry="1"></ellipse>
                                            </g>
                                            <g id="组_3" transform="translate(0.000000, 0.000000)">
                                                <circle id="椭圆_8-10" fill="url(#linearGradient-7)" cx="0.5" cy="0.5" r="1"></circle>
                                                <ellipse id="椭圆_7-10" fill="url(#linearGradient-8)" cx="0.5" cy="0.5" rx="1" ry="1"></ellipse>
                                            </g>
                                        </g>
                                        <g id="1备份" transform="translate(1.101805, 29.736224)" fill-rule="nonzero">
                                            <g id="组_1" transform="translate(28.227175, 16.250000)">
                                                <circle id="椭圆_8-10" fill="url(#linearGradient-7)" cx="0.5" cy="0.5" r="1"></circle>
                                                <ellipse id="椭圆_7-10" fill="url(#linearGradient-8)" cx="0.5" cy="0.5" rx="1" ry="1"></ellipse>
                                            </g>
                                            <g id="组_2" transform="translate(14.579959, 8.388776)">
                                                <circle id="椭圆_8-10" fill="url(#linearGradient-7)" cx="0.5" cy="0.5" r="1"></circle>
                                                <ellipse id="椭圆_7-10" fill="url(#linearGradient-8)" cx="0.5" cy="0.5" rx="1" ry="1"></ellipse>
                                            </g>
                                            <g id="组_3" transform="translate(0.000000, 0.000000)">
                                                <circle id="椭圆_8-10" fill="url(#linearGradient-7)" cx="0.5" cy="0.5" r="1"></circle>
                                                <ellipse id="椭圆_7-10" fill="url(#linearGradient-8)" cx="0.5" cy="0.5" rx="1" ry="1"></ellipse>
                                            </g>
                                        </g>
                                    </g>
                                    <path d="M30.8668075,22.6234809 L30.4673157,22.3805091 L30.4673157,22.3805091 L1.85993608,5.72524071 C1.63530833,5.60364723 1.41051149,5.55220604 1.18554556,5.57091713 C0.960579629,5.58962822 0.789309189,5.63590686 0.671734244,5.70975304 L6.75023315,1.63552122 C7.74724492,0.967254736 9.03821122,0.926598415 10.0752969,1.5308052 L38.5126593,18.0984304 L38.5126593,18.0984304 L38.671832,18.1906894 C39.4460668,18.6394479 39.9226869,19.4665985 39.9226869,20.361486 L39.9226869,20.5231117 L39.9226869,20.5231117 L39.9521949,43.049193 C39.9325229,43.3162659 39.8614248,43.5331059 39.7389005,43.6997128 C39.6163762,43.8663197 39.4697202,43.9987469 39.2989324,44.0969944 L31.3957502,48.4836864 C31.6167919,48.338569 31.7679528,48.2072608 31.849233,48.0897617 C31.9711534,47.9135132 32.0720721,47.5991821 32.0720721,47.4761899 C32.0720721,40.0425279 32.0720721,32.5268957 32.0720721,24.9292932 L32.0720721,24.767205 C32.0720721,23.8912302 31.6152279,23.0786718 30.8668075,22.6234809 Z" id="矩形备份-74" fill="url(#linearGradient-9)" fill-rule="nonzero"></path>
                                </g>
                            </g>
                            <g id="icon_华为逆变器1" transform="translate(24.000000, 12.000000)">
                                <g id="华为逆变器1" transform="translate(20.000000, 25.000000) scale(-1, 1) translate(-20.000000, -25.000000) ">
                                    <polygon id="矩形备份-72" fill="#B8BBBC" points="4.86486486 33.703579 12.7693798 29.1870089 12.7693798 30.6808658 4.86486486 35.1993987"></polygon>
                                    <polygon id="矩形备份-73" fill="#B8BBBC" points="30.2702703 48.5041803 38.1747852 43.9876101 38.1747852 45.4814671 30.2702703 50"></polygon>
                                    <g id="逆变器1备份-2" transform="translate(0.000000, 0.263776)">
                                        <g id="矩形备份">
                                            <use fill="url(#linearGradient-1)" xlink:href="#path-12"></use>
                                            <use fill="#D2D2D2" xlink:href="#path-12"></use>
                                        </g>
                                        <path d="M1.25454113,5.61655016 L30.6679011,22.5991641 C31.3431212,22.9924173 31.7584368,23.714919 31.7584368,24.4963089 L31.7584368,24.4963089 L31.7584368,47.1061264 C31.7584368,47.3659504 31.6531223,47.6011768 31.4828518,47.7714473 C31.3125814,47.9417178 31.0773549,48.0470323 30.8175309,48.0470323 L30.8175309,48.0470323 L1.404171,31.0644183 C0.728950905,30.6711651 0.313635283,29.9486634 0.313635283,29.1672735 L0.313635283,29.1672735 L0.313635283,6.55745601 C0.313635283,6.29763204 0.418949758,6.06240558 0.589220226,5.89213511 C0.759490695,5.72186464 0.994717157,5.61655016 1.25454113,5.61655016 L1.25454113,5.61655016 Z" id="矩形" stroke="url(#linearGradient-4)" stroke-width="0.627270566" fill="url(#linearGradient-3)" fill-rule="nonzero"></path>
                                        <polygon id="矩形" fill="#DADCDE" points="1.8018018 31.6558524 4.86486486 33.4398031 4.86486486 34.9356229 1.8018018 33.1516721"></polygon>
                                        <polygon id="矩形备份-66" fill="#DADCDE" points="27.2072072 46.4564537 30.2702703 48.2404044 30.2702703 49.7319199 27.2072072 47.9479692"></polygon>
                                        <g id="编组-70" transform="translate(13.153153, 24.533984)">
                                            <path d="M1.38738739,0.191144555 L4.55855856,2.03805822 C5.31180446,2.47675424 5.92484818,3.53300686 5.94541294,4.41658798 L5.94594595,4.48312007 C5.94594595,5.37563954 5.32479145,5.73740454 4.55855856,5.2911448 L1.38738739,3.44423113 C0.634141489,3.00553512 0.0210977617,1.9492825 0.000533006144,1.06570137 L0,0.999169285 C0,0.106649813 0.621154491,-0.255115181 1.38738739,0.191144555 Z" id="矩形" fill="#3A3A3E"></path>
                                            <g id="LOGO" transform="translate(2.477477, 2.561160)" fill="#FFFFFF" fill-rule="nonzero">
                                                <path d="M0.371051776,0.00158229206 C0.39233416,0.0046153637 0.414576591,0.0113836442 0.437162803,0.0216996063 C0.448738514,0.0466276241 0.456452014,0.0714242004 0.462786152,0.096152083 L0.480133331,0.170192397 C0.488404038,0.221633235 0.495014048,0.272175475 0.496117537,0.320347163 C0.498848946,0.338381891 0.499395228,0.355234253 0.499395228,0.37186715 L0.499395228,0.422070346 L0.4998012,0.442367611 L0.4998012,0.442367611 L0.498469381,0.481963736 L0.498469381,0.481963736 L0.498302664,0.512401086 C0.499395228,0.55514546 0.49393241,0.594342734 0.494445915,0.637370851 C0.488983096,0.661510002 0.493353351,0.692175886 0.485639852,0.714500128 C0.480952754,0.709253251 0.477508447,0.703323493 0.474477948,0.697166859 L0.465798896,0.678472323 C0.422282086,0.584471147 0.382064818,0.490452192 0.34460081,0.396119865 L0.320804205,0.330559474 C0.293606684,0.253733379 0.270040625,0.17640091 0.267465817,0.105702376 C0.264954601,0.0393087875 0.303712036,-0.00219035684 0.357348069,8.93716096e-05 L0.371051776,0.00158229206 Z M0.574818563,0.112056166 C0.576639979,0.11184733 0.578533036,0.112539685 0.580471832,0.113699057 L0.62261372,0.146217602 C0.642780432,0.162254638 0.662621718,0.179810429 0.679524454,0.203005129 C0.703217427,0.237507593 0.725260197,0.275320747 0.734079491,0.313205137 C0.746745614,0.359797978 0.741795007,0.40047919 0.734079491,0.436643531 C0.723052641,0.481859389 0.702113649,0.518703978 0.681174656,0.554903731 C0.674617561,0.565805741 0.6651972,0.57396471 0.659131886,0.585729823 C0.651052087,0.601030496 0.641252872,0.614594332 0.631045659,0.627495184 L0.61559277,0.646483457 C0.591353373,0.679130507 0.564349067,0.707869697 0.537891185,0.737525432 L0.533648097,0.741431682 C0.530548452,0.744167926 0.526878907,0.7458104 0.522471082,0.738211543 C0.518099685,0.687066134 0.514755566,0.63708545 0.513094435,0.587453942 C0.510067242,0.554804512 0.509381471,0.523270948 0.509381471,0.492036673 L0.509815887,0.398415142 C0.513673645,0.358957841 0.514187284,0.317679577 0.518635181,0.279138586 L0.531097761,0.212576433 C0.535437739,0.190541296 0.540399275,0.16899614 0.547289689,0.148954167 L0.552427392,0.141200061 L0.561094999,0.123120304 C0.562722033,0.120344093 0.564560642,0.117860691 0.566791366,0.115931504 L0.574818563,0.112056166 Z M0.148642125,0.0197318289 C0.151414181,0.019861774 0.15342954,0.0224068516 0.155192668,0.0256325836 L0.160229818,0.0356172651 L0.160229818,0.0356172651 C0.245274545,0.216705896 0.320250142,0.40070453 0.384263106,0.585372469 L0.411023446,0.664550317 C0.416567558,0.681683425 0.423620067,0.699697278 0.424628996,0.715961508 L0.41259326,0.704032426 L0.41259326,0.704032426 L0.389875907,0.677326879 L0.389875907,0.677326879 C0.325274387,0.600027365 0.262394848,0.519804571 0.201485999,0.436975805 L0.167547046,0.387833904 C0.156401384,0.371302519 0.145570388,0.354506569 0.135496088,0.33710461 C0.0951988879,0.279533719 0.0674983091,0.205940831 0.0710245638,0.148416171 C0.0746207443,0.088758363 0.10397187,0.0531349658 0.137347661,0.0277891096 L0.148642125,0.0197318289 Z M0.835712378,0.425738761 L0.843763827,0.430503699 L0.866271761,0.4774206 C0.877540752,0.500955769 0.888300524,0.524666755 0.896158178,0.548826885 C0.91021325,0.586652069 0.917275749,0.624554288 0.919273627,0.659447266 C0.917765229,0.695883438 0.907685934,0.728465281 0.887037865,0.745143742 C0.873442305,0.751546846 0.862863541,0.762756502 0.848758522,0.767043008 C0.773698244,0.793684841 0.68907812,0.799001913 0.603948538,0.801605316 L0.585123532,0.802961154 C0.578762788,0.803110592 0.572212245,0.802395397 0.565159736,0.799129189 C0.566423394,0.789338739 0.569699914,0.781793352 0.573540834,0.774807379 L0.585308336,0.753842045 C0.642616021,0.649194055 0.709863217,0.556627273 0.786294865,0.47718105 C0.79670381,0.465277803 0.808231566,0.454572718 0.819389345,0.443289549 L0.835712378,0.425738761 Z M0.00349628654,0.249957926 L0.0057925976,0.242747452 C0.00661297626,0.240365529 0.00787663411,0.238692255 0.0106486899,0.239729747 L0.0202899313,0.24937621 L0.0383492687,0.272387469 C0.158741399,0.421912859 0.278624069,0.572951841 0.393971557,0.729725547 C0.397967313,0.734478563 0.400015138,0.740526762 0.401523536,0.746840851 C0.32546432,0.703022288 0.249405103,0.658009584 0.173845356,0.612695401 C0.128014035,0.586180918 0.08419058,0.534953788 0.0519747968,0.477950252 C0.0242242711,0.4254044 0.00301679582,0.367082138 0.000499469504,0.315617539 L0.000124867374,0.281674786 C0.000249734751,0.27045957 0.000998939011,0.259615336 0.00349628654,0.249957926 Z M0.88612883,0.81751114 L0.960150211,0.811999624 C0.96770219,0.810909226 0.975254169,0.809818828 0.984324535,0.817348125 L0.988522299,0.868467792 C0.989176049,0.87695529 0.989685508,0.885343973 0.989868647,0.893509955 L0.987074814,0.927562136 C0.985645932,0.944586691 0.98351939,0.960937487 0.977771495,0.97359296 C0.969720047,0.992274855 0.961658609,1.01163381 0.94755359,1.0206872 C0.932439643,1.02975424 0.919853011,1.04467832 0.90070335,1.04410323 C0.879555811,1.05184334 0.852354702,1.04029925 0.826162521,1.02462485 C0.746567061,0.971358312 0.66648212,0.917076174 0.586896649,0.86244875 C0.588894527,0.85833228 0.590892405,0.854803905 0.594958087,0.854796977 C0.689649514,0.835672506 0.787550332,0.825349429 0.88612883,0.81751114 Z M0.1459461,0.642087848 L0.173775431,0.660691109 L0.205970142,0.68069494 L0.270539375,0.725191871 C0.281289988,0.732290406 0.292024836,0.738957989 0.302728468,0.744786405 C0.333455832,0.765289602 0.364183196,0.785043473 0.394401101,0.810255192 C0.391180522,0.815511846 0.386909858,0.818390808 0.382203496,0.82021436 L0.360157472,0.825759029 C0.327809397,0.835976534 0.293605574,0.840950434 0.257896085,0.840629821 C0.222643527,0.840887739 0.178310614,0.799773987 0.148092709,0.74258625 C0.123408926,0.700259201 0.106277122,0.652417015 0.0901542459,0.605295363 C0.108621298,0.615092587 0.127328096,0.628942149 0.1459461,0.642087848 Z M0.594378702,0.893491188 C0.624606597,0.908992115 0.655313982,0.928359234 0.686051335,0.948341159 L0.717188576,0.969234619 L0.779841407,1.00738539 C0.790262526,1.01394026 0.800652116,1.02079348 0.810978648,1.02824526 C0.840187625,1.0485407 0.869406591,1.06282358 0.898625557,1.08433101 C0.888546263,1.10364595 0.872932846,1.11609136 0.855811031,1.12521997 C0.82961885,1.14228338 0.78932165,1.13471119 0.752550705,1.10331301 C0.733203255,1.08463363 0.715312257,1.06248291 0.69789164,1.03978775 L0.663385409,0.994538745 L0.617554087,0.931292474 C0.611125915,0.922114573 0.60442241,0.913042409 0.599133496,0.903378364 L0.594378702,0.893491188 Z" id="形状"></path>
                                                <path d="M0,0.749412446 C0.0182889265,0.757190993 0.0358221122,0.764073634 0.0541110386,0.7706537 L0.0536631923,0.821866927 L0.0548667794,0.848300238 L0.0548667794,0.848300238 C0.0952686806,0.865358458 0.136486782,0.881538598 0.177583965,0.896472791 L0.178794269,0.871410515 L0.178339705,0.820066764 C0.196628632,0.827857295 0.214161817,0.834739936 0.232450744,0.841308018 C0.231695003,0.903875601 0.231695003,0.966727865 0.232450744,1.02986481 L0.178339705,1.00862356 L0.178787552,0.957277164 L0.177583965,0.930977018 L0.177583965,0.930977018 C0.137182063,0.913918798 0.0959639621,0.897738658 0.0548667794,0.882804465 C0.0533552979,0.908194171 0.0541110386,0.933874634 0.0541110386,0.959857671 L0,0.938616417 L0.000566805572,0.84400922 L0,0.749412446 Z M0.182346327,0.857719108 C0.20100159,0.865497655 0.218885975,0.872380296 0.237541238,0.878960362 L0.238312116,1.00133416 L0.238312116,1.00133416 C0.238312116,1.01878402 0.253787264,1.04264814 0.275885976,1.05535714 L0.28573657,1.06006966 C0.312948586,1.0741374 0.351816287,1.08310288 0.358044986,1.06070339 L0.359279534,1.0162799 L0.358815865,0.925571864 C0.377471128,0.93335041 0.395355512,0.940233051 0.414010775,0.946813118 L0.414797071,1.06858162 L0.414797071,1.06858162 L0.41341245,1.0876998 C0.411901651,1.09701274 0.408266188,1.10511713 0.398469862,1.10823597 C0.368929793,1.11921939 0.325390567,1.10549587 0.286522866,1.0887163 L0.256800746,1.07483945 C0.24189331,1.06732286 0.227436561,1.05849897 0.215771625,1.0463875 C0.194918955,1.02690357 0.182924919,1.00341531 0.183888085,0.983949053 L0.182346327,0.857719108 Z M0.435098859,0.995371927 L0.485520971,1.01841097 C0.49141632,1.04164664 0.505167805,1.06485255 0.512361689,1.0880823 L0.5243845,1.11471811 L0.544500429,1.16778514 C0.548132269,1.17661264 0.552142308,1.18543356 0.556888453,1.19425075 C0.564744589,1.212342 0.571951459,1.23013659 0.576535287,1.24855434 L0.545101122,1.23454289 L0.529385482,1.22639927 L0.529385482,1.22639927 C0.518906305,1.20891919 0.51629625,1.19080406 0.507128593,1.173324 C0.474901393,1.15547815 0.442397934,1.14082754 0.410218929,1.12964294 L0.395859056,1.15204927 C0.393336531,1.15571012 0.390572095,1.15914902 0.387299787,1.1620882 C0.372899034,1.15670664 0.358485296,1.14952142 0.344084543,1.14294138 C0.345383078,1.12540172 0.355212988,1.11479239 0.365042897,1.10477032 C0.374859822,1.08629303 0.387299787,1.07022474 0.396467443,1.05145079 C0.403094841,1.04609264 0.407974695,1.03917253 0.412314262,1.03175085 L0.424919359,1.00904149 L0.424919359,1.00904149 L0.435098859,0.995371927 Z M0.43809717,1.16126241 C0.468599807,1.18788314 0.500416673,1.20654922 0.530919309,1.2157186 L0.50162091,1.1159341 C0.496416536,1.09941029 0.49070185,1.08286865 0.483952364,1.06620228 C0.468096236,1.08466375 0.458965293,1.11137133 0.448801481,1.13669848 L0.43809717,1.16126241 Z M0.504713936,1.04919299 L0.544002208,1.07252871 C0.546999025,1.09244169 0.550545258,1.11266903 0.556588839,1.13318122 C0.566158675,1.16847976 0.56968493,1.20199835 0.580263694,1.23729692 L0.584798877,1.23816895 L0.589617665,1.21205994 L0.603638086,1.16379795 C0.605734141,1.15558898 0.6074673,1.14709574 0.608473732,1.1380158 C0.610118765,1.12994955 0.612308868,1.12236227 0.615026771,1.11531379 L0.657851287,1.14074989 L0.677887784,1.22687574 L0.689844347,1.28587947 C0.691652986,1.29407615 0.694196684,1.30218823 0.699656885,1.30942232 L0.707071978,1.27795255 L0.707071978,1.27795255 L0.725865454,1.2184996 C0.728965755,1.20856619 0.731892647,1.19848314 0.734409973,1.18804448 L0.746796447,1.19360029 L0.772699305,1.20896517 C0.754558573,1.26105053 0.73592836,1.31222195 0.718756599,1.36548208 L0.690546561,1.34925907 C0.685844888,1.34646646 0.681143215,1.34354068 0.676441542,1.34034858 C0.674178945,1.3374946 0.673047647,1.33425491 0.672292199,1.33101075 L0.649956709,1.22892967 C0.64633796,1.21348514 0.642364402,1.19803094 0.63766273,1.18254643 L0.633650694,1.19137855 L0.628592363,1.21160329 L0.605926437,1.29786609 L0.605926437,1.29786609 C0.591321949,1.28979083 0.57721693,1.281413 0.562602452,1.27213332 L0.55511837,1.24880153 L0.544117242,1.20267851 C0.542111091,1.19498967 0.539814156,1.18727943 0.53691973,1.17951692 C0.526340966,1.14121017 0.520297385,1.10252904 0.506691836,1.06427015 L0.505144335,1.05651329 L0.504713936,1.04919299 Z M0.811215228,1.24874358 C0.82583535,1.23873646 0.84991278,1.23830984 0.875565346,1.24760337 L1.01265331,1.29607261 L1.01265331,1.32991767 C0.973366918,1.3152445 0.934080524,1.3005953 0.89479413,1.28773183 C0.865536541,1.2796565 0.847153161,1.29303114 0.845478931,1.3129858 L0.900895523,1.33404197 L1.01265331,1.37342248 L1.01265331,1.40726754 C0.958315422,1.38721891 0.903148705,1.36687361 0.848827391,1.34862863 C0.842196776,1.36559877 0.85711566,1.39148069 0.884765325,1.40621931 C0.927400179,1.4269089 0.970018457,1.43793281 1.01265331,1.45501497 L1.01265331,1.4846294 C0.966686573,1.46817633 0.921482355,1.45259543 0.875565346,1.43556092 C0.830851125,1.41583172 0.794281724,1.3789851 0.78439439,1.34369885 C0.777142155,1.3099051 0.777504767,1.27512992 0.800074176,1.25594108 L0.811215228,1.24874358 Z M0.989939479,1.3191534 C1.0120525,1.32402529 1.0347994,1.3322366 1.0570273,1.34337114 L1.05891735,1.38405982 L1.0590456,1.52591845 C1.05873847,1.53604362 1.05792035,1.54592839 1.05607958,1.55535742 L0.989921254,1.5307876 L0.990620655,1.42491753 L0.989939479,1.3191534 Z" id="形状"></path>
                                            </g>
                                            <g id="编组-65" transform="translate(3.243335, 2.400973) rotate(-8.000000) translate(-3.243335, -2.400973) translate(2.081081, 1.226984)" fill="#22FFFF">
                                                <path d="M0.13912422,0.51317974 C0.215960405,0.579692223 0.278248439,0.525072955 0.278248439,0.391184193 C0.278248439,0.25729543 0.215960405,0.0948381228 0.13912422,0.0283256407 C0.0622880348,-0.0381868414 0,0.0164324258 0,0.150321188 C0,0.284209951 0.0622880348,0.446667258 0.13912422,0.51317974 Z" id="椭圆形"></path>
                                                <path d="M0.821210553,1.11533725 C0.898046738,1.18184973 0.960334773,1.12723047 0.960334773,0.993341704 C0.960334773,0.859452941 0.898046738,0.696995634 0.821210553,0.630483152 C0.744374368,0.56397067 0.682086333,0.618589937 0.682086333,0.752478699 C0.682086333,0.886367462 0.744374368,1.04882477 0.821210553,1.11533725 Z" id="椭圆形备份-62"></path>
                                                <path d="M1.50329689,1.71749476 C1.58013307,1.78400724 1.64242111,1.72938798 1.64242111,1.59549921 C1.64242111,1.46161045 1.58013307,1.29915314 1.50329689,1.23264066 C1.4264607,1.16612818 1.36417267,1.22074745 1.36417267,1.35463621 C1.36417267,1.48852497 1.4264607,1.65098228 1.50329689,1.71749476 Z" id="椭圆形备份-63"></path>
                                                <path d="M2.18538322,2.31965227 C2.2622194,2.38616476 2.32450744,2.33154549 2.32450744,2.19765673 C2.32450744,2.06376796 2.2622194,1.90131066 2.18538322,1.83479817 C2.10854703,1.76828569 2.046259,1.82290496 2.046259,1.95679372 C2.046259,2.09068248 2.10854703,2.25313979 2.18538322,2.31965227 Z" id="椭圆形备份-64"></path>
                                            </g>
                                        </g>
                                        <g id="LOGO3" transform="translate(2.083165, 8.701212)" fill-rule="nonzero">
                                            <g id="形状">
                                                <use fill="#C71F1E" xlink:href="#path-13"></use>
                                                <use fill="url(#linearGradient-5)" xlink:href="#path-13"></use>
                                            </g>
                                        </g>
                                        <g id="1" transform="translate(1.101805, 6.611224)" fill-rule="nonzero">
                                            <g id="组_1" transform="translate(28.227175, 16.250000)">
                                                <circle id="椭圆_8-10" fill="url(#linearGradient-7)" cx="0.5" cy="0.5" r="1"></circle>
                                                <ellipse id="椭圆_7-10" fill="url(#linearGradient-8)" cx="0.5" cy="0.5" rx="1" ry="1"></ellipse>
                                            </g>
                                            <g id="组_2" transform="translate(14.579959, 8.388776)">
                                                <circle id="椭圆_8-10" fill="url(#linearGradient-7)" cx="0.5" cy="0.5" r="1"></circle>
                                                <ellipse id="椭圆_7-10" fill="url(#linearGradient-8)" cx="0.5" cy="0.5" rx="1" ry="1"></ellipse>
                                            </g>
                                            <g id="组_3" transform="translate(0.000000, 0.000000)">
                                                <circle id="椭圆_8-10" fill="url(#linearGradient-7)" cx="0.5" cy="0.5" r="1"></circle>
                                                <ellipse id="椭圆_7-10" fill="url(#linearGradient-8)" cx="0.5" cy="0.5" rx="1" ry="1"></ellipse>
                                            </g>
                                        </g>
                                        <g id="1备份" transform="translate(1.101805, 29.736224)" fill-rule="nonzero">
                                            <g id="组_1" transform="translate(28.227175, 16.250000)">
                                                <circle id="椭圆_8-10" fill="url(#linearGradient-7)" cx="0.5" cy="0.5" r="1"></circle>
                                                <ellipse id="椭圆_7-10" fill="url(#linearGradient-8)" cx="0.5" cy="0.5" rx="1" ry="1"></ellipse>
                                            </g>
                                            <g id="组_2" transform="translate(14.579959, 8.388776)">
                                                <circle id="椭圆_8-10" fill="url(#linearGradient-7)" cx="0.5" cy="0.5" r="1"></circle>
                                                <ellipse id="椭圆_7-10" fill="url(#linearGradient-8)" cx="0.5" cy="0.5" rx="1" ry="1"></ellipse>
                                            </g>
                                            <g id="组_3" transform="translate(0.000000, 0.000000)">
                                                <circle id="椭圆_8-10" fill="url(#linearGradient-7)" cx="0.5" cy="0.5" r="1"></circle>
                                                <ellipse id="椭圆_7-10" fill="url(#linearGradient-8)" cx="0.5" cy="0.5" rx="1" ry="1"></ellipse>
                                            </g>
                                        </g>
                                    </g>
                                    <path d="M30.8668075,22.6234809 L30.4673157,22.3805091 L30.4673157,22.3805091 L1.85993608,5.72524071 C1.63530833,5.60364723 1.41051149,5.55220604 1.18554556,5.57091713 C0.960579629,5.58962822 0.789309189,5.63590686 0.671734244,5.70975304 L6.75023315,1.63552122 C7.74724492,0.967254736 9.03821122,0.926598415 10.0752969,1.5308052 L38.5126593,18.0984304 L38.5126593,18.0984304 L38.671832,18.1906894 C39.4460668,18.6394479 39.9226869,19.4665985 39.9226869,20.361486 L39.9226869,20.5231117 L39.9226869,20.5231117 L39.9521949,43.049193 C39.9325229,43.3162659 39.8614248,43.5331059 39.7389005,43.6997128 C39.6163762,43.8663197 39.4697202,43.9987469 39.2989324,44.0969944 L31.3957502,48.4836864 C31.6167919,48.338569 31.7679528,48.2072608 31.849233,48.0897617 C31.9711534,47.9135132 32.0720721,47.5991821 32.0720721,47.4761899 C32.0720721,40.0425279 32.0720721,32.5268957 32.0720721,24.9292932 L32.0720721,24.767205 C32.0720721,23.8912302 31.6152279,23.0786718 30.8668075,22.6234809 Z" id="矩形备份-74" fill="url(#linearGradient-9)" fill-rule="nonzero"></path>
                                </g>
                            </g>
                        </g>
                    </g>
                </g>
            </g>
        </g>
    </g>
</svg>