<?xml version="1.0" encoding="UTF-8"?>
<svg width="80px" height="103px" viewBox="0 0 80 103" version="1.1" xmlns="http://www.w3.org/2000/svg" xmlns:xlink="http://www.w3.org/1999/xlink">
    <title>icon_负载</title>
    <defs>
        <path d="M0,0 L0,51.2480957 C0,52.0383331 1.31490958,52.6773086 2.93672526,52.6773086 L2.93672526,52.6773086 C4.55572528,52.6773086 5.87204269,52.0383331 5.87204269,51.2480957 L5.87204269,51.2480957 L5.87204269,0 L0,0 Z" id="path-1"></path>
        <linearGradient x1="0.0113770326%" y1="50.0002201%" x2="99.9597062%" y2="50.0002201%" id="linearGradient-3">
            <stop stop-color="#C1C3C3" offset="0%"></stop>
            <stop stop-color="#EDEDED" offset="100%"></stop>
        </linearGradient>
        <linearGradient x1="54.7846451%" y1="2.81441537e-12%" x2="54.7846451%" y2="100%" id="linearGradient-4">
            <stop stop-color="#F5F5F5" offset="0%"></stop>
            <stop stop-color="#D3D3D3" offset="100%"></stop>
        </linearGradient>
        <linearGradient x1="100%" y1="50%" x2="0%" y2="50%" id="linearGradient-5">
            <stop stop-color="#6E6E6E" offset="0%"></stop>
            <stop stop-color="#B4B4B4" offset="100%"></stop>
        </linearGradient>
        <path d="M0,0 L0,51.2480957 C0,52.0369194 1.31490958,52.6773086 2.93813308,52.6773086 L2.93813308,52.6773086 C4.55854093,52.6773086 5.87345051,52.0369194 5.87345051,51.2480957 L5.87345051,51.2480957 L5.87345051,0 L0,0 Z" id="path-6"></path>
        <linearGradient x1="0.0113770326%" y1="50.0002201%" x2="99.9597062%" y2="50.0002201%" id="linearGradient-8">
            <stop stop-color="#C1C3C3" offset="0%"></stop>
            <stop stop-color="#EDEDED" offset="100%"></stop>
        </linearGradient>
        <linearGradient x1="54.7846451%" y1="2.81441537e-12%" x2="54.7846451%" y2="100%" id="linearGradient-9">
            <stop stop-color="#F5F5F5" offset="0%"></stop>
            <stop stop-color="#D3D3D3" offset="100%"></stop>
        </linearGradient>
        <linearGradient x1="100%" y1="50%" x2="0%" y2="50%" id="linearGradient-10">
            <stop stop-color="#6E6E6E" offset="0%"></stop>
            <stop stop-color="#B4B4B4" offset="100%"></stop>
        </linearGradient>
        <path d="M0,0 L0,51.2480957 C0,52.0383331 1.31490958,52.6773086 2.93813308,52.6773086 L2.93813308,52.6773086 C4.55994876,52.6773086 5.87345051,52.0383331 5.87345051,51.2480957 L5.87345051,51.2480957 L5.87345051,0 L0,0 Z" id="path-11"></path>
        <linearGradient x1="50%" y1="0%" x2="50%" y2="100%" id="linearGradient-13">
            <stop stop-color="#D7D7D7" offset="0%"></stop>
            <stop stop-color="#A3A2A2" offset="100%"></stop>
        </linearGradient>
        <linearGradient x1="50%" y1="0%" x2="50%" y2="100%" id="linearGradient-14">
            <stop stop-color="#E4E4E4" offset="0%"></stop>
            <stop stop-color="#BFBFBF" offset="100%"></stop>
        </linearGradient>
        <linearGradient x1="50%" y1="0%" x2="50%" y2="100%" id="linearGradient-15">
            <stop stop-color="#D7D7D7" offset="0%"></stop>
            <stop stop-color="#A3A2A2" offset="100%"></stop>
        </linearGradient>
        <linearGradient x1="50%" y1="0%" x2="50%" y2="100%" id="linearGradient-16">
            <stop stop-color="#E4E4E4" offset="0%"></stop>
            <stop stop-color="#BFBFBF" offset="100%"></stop>
        </linearGradient>
        <linearGradient x1="50%" y1="0%" x2="50%" y2="100%" id="linearGradient-17">
            <stop stop-color="#E4E4E4" offset="0%"></stop>
            <stop stop-color="#BFBFBF" offset="100%"></stop>
        </linearGradient>
        <linearGradient x1="80.4044346%" y1="100%" x2="65.6018425%" y2="17.3290635%" id="linearGradient-18">
            <stop stop-color="#E4E4E4" offset="0%"></stop>
            <stop stop-color="#FAFAFA" offset="100%"></stop>
        </linearGradient>
        <linearGradient x1="97.276657%" y1="41.5758739%" x2="34.057667%" y2="64.4196824%" id="linearGradient-19">
            <stop stop-color="#EEEEEE" offset="0%"></stop>
            <stop stop-color="#EFEFEF" offset="100%"></stop>
        </linearGradient>
        <polygon id="path-20" points="62.6496695 34.159439 46.2048528 25.5488202 6.54076009 46.1529523 23.3699133 54.8102219"></polygon>
        <linearGradient x1="-0.000165477256%" y1="49.9998988%" x2="99.9999936%" y2="49.9998988%" id="linearGradient-21">
            <stop stop-color="#FFFFFF" offset="0%"></stop>
            <stop stop-color="#CDCDCD" offset="100%"></stop>
        </linearGradient>
        <linearGradient x1="-0.000165477256%" y1="49.9998988%" x2="99.9999936%" y2="49.9998988%" id="linearGradient-22">
            <stop stop-color="#FFFFFF" offset="0%"></stop>
            <stop stop-color="#CDCDCD" offset="100%"></stop>
        </linearGradient>
        <linearGradient x1="109.853951%" y1="100%" x2="80.7136746%" y2="17.3290635%" id="linearGradient-23">
            <stop stop-color="#E4E4E4" offset="0%"></stop>
            <stop stop-color="#FAFAFA" offset="100%"></stop>
        </linearGradient>
        <linearGradient x1="-22.6205277%" y1="21.9019944%" x2="67.4105198%" y2="50%" id="linearGradient-24">
            <stop stop-color="#E4E4E4" offset="0%"></stop>
            <stop stop-color="#BFBFBF" offset="100%"></stop>
        </linearGradient>
        <linearGradient x1="-22.7145348%" y1="21.9019944%" x2="67.4330576%" y2="50%" id="linearGradient-25">
            <stop stop-color="#E4E4E4" offset="0%"></stop>
            <stop stop-color="#BFBFBF" offset="100%"></stop>
        </linearGradient>
        <linearGradient x1="-22.6803099%" y1="21.9019944%" x2="67.4248523%" y2="50%" id="linearGradient-26">
            <stop stop-color="#E4E4E4" offset="0%"></stop>
            <stop stop-color="#BFBFBF" offset="100%"></stop>
        </linearGradient>
        <linearGradient x1="-22.6675084%" y1="21.9019944%" x2="67.4217832%" y2="50%" id="linearGradient-27">
            <stop stop-color="#E4E4E4" offset="0%"></stop>
            <stop stop-color="#BFBFBF" offset="100%"></stop>
        </linearGradient>
        <linearGradient x1="-22.7273294%" y1="21.9019944%" x2="67.4361251%" y2="50%" id="linearGradient-28">
            <stop stop-color="#E4E4E4" offset="0%"></stop>
            <stop stop-color="#BFBFBF" offset="100%"></stop>
        </linearGradient>
        <linearGradient x1="-22.6931043%" y1="21.9019944%" x2="67.4279198%" y2="50%" id="linearGradient-29">
            <stop stop-color="#E4E4E4" offset="0%"></stop>
            <stop stop-color="#BFBFBF" offset="100%"></stop>
        </linearGradient>
        <linearGradient x1="-22.7616068%" y1="21.9019944%" x2="67.444343%" y2="50%" id="linearGradient-30">
            <stop stop-color="#E4E4E4" offset="0%"></stop>
            <stop stop-color="#BFBFBF" offset="100%"></stop>
        </linearGradient>
        <linearGradient x1="-22.5864077%" y1="21.9019944%" x2="67.4023396%" y2="50%" id="linearGradient-31">
            <stop stop-color="#E4E4E4" offset="0%"></stop>
            <stop stop-color="#BFBFBF" offset="100%"></stop>
        </linearGradient>
        <linearGradient x1="58.5527392%" y1="109.5%" x2="24.985537%" y2="-13.1%" id="linearGradient-32">
            <stop stop-color="#DBDBDB" offset="0%"></stop>
            <stop stop-color="#4D4D4D" offset="100%"></stop>
        </linearGradient>
        <linearGradient x1="58.5542477%" y1="109.5%" x2="24.9811251%" y2="-13.1%" id="linearGradient-33">
            <stop stop-color="#DBDBDB" offset="0%"></stop>
            <stop stop-color="#4D4D4D" offset="100%"></stop>
        </linearGradient>
        <linearGradient x1="58.5653176%" y1="109.5%" x2="24.9487487%" y2="-13.1%" id="linearGradient-34">
            <stop stop-color="#DBDBDB" offset="0%"></stop>
            <stop stop-color="#4D4D4D" offset="100%"></stop>
        </linearGradient>
        <linearGradient x1="58.5472115%" y1="109.5%" x2="25.001704%" y2="-13.1%" id="linearGradient-35">
            <stop stop-color="#DBDBDB" offset="0%"></stop>
            <stop stop-color="#4D4D4D" offset="100%"></stop>
        </linearGradient>
        <linearGradient x1="58.5638107%" y1="109.5%" x2="24.9531558%" y2="-13.1%" id="linearGradient-36">
            <stop stop-color="#DBDBDB" offset="0%"></stop>
            <stop stop-color="#4D4D4D" offset="100%"></stop>
        </linearGradient>
        <linearGradient x1="-22.6333361%" y1="21.9019944%" x2="67.4135905%" y2="50%" id="linearGradient-37">
            <stop stop-color="#E4E4E4" offset="0%"></stop>
            <stop stop-color="#BFBFBF" offset="100%"></stop>
        </linearGradient>
        <linearGradient x1="-22.8814283%" y1="21.9019944%" x2="67.4730698%" y2="50%" id="linearGradient-38">
            <stop stop-color="#E4E4E4" offset="0%"></stop>
            <stop stop-color="#BFBFBF" offset="100%"></stop>
        </linearGradient>
        <linearGradient x1="-22.5735924%" y1="21.9019944%" x2="67.3992672%" y2="50%" id="linearGradient-39">
            <stop stop-color="#E4E4E4" offset="0%"></stop>
            <stop stop-color="#BFBFBF" offset="100%"></stop>
        </linearGradient>
        <linearGradient x1="50%" y1="0%" x2="50%" y2="100%" id="linearGradient-40">
            <stop stop-color="#E4E4E4" offset="0%"></stop>
            <stop stop-color="#BFBFBF" offset="100%"></stop>
        </linearGradient>
        <linearGradient x1="142.113997%" y1="66.4882606%" x2="-16.3678485%" y2="48.3549128%" id="linearGradient-41">
            <stop stop-color="#E2E2E2" offset="0%"></stop>
            <stop stop-color="#E7E7E7" offset="100%"></stop>
        </linearGradient>
        <linearGradient x1="50%" y1="0%" x2="50%" y2="100%" id="linearGradient-42">
            <stop stop-color="#BFBFBF" offset="0%"></stop>
            <stop stop-color="#E4E4E4" offset="100%"></stop>
        </linearGradient>
        <linearGradient x1="-0.000165477256%" y1="49.9998988%" x2="99.9999936%" y2="49.9998988%" id="linearGradient-43">
            <stop stop-color="#EFEFEF" offset="0%"></stop>
            <stop stop-color="#CDCDCD" offset="100%"></stop>
        </linearGradient>
        <linearGradient x1="100%" y1="92.5425036%" x2="-33.8573177%" y2="23.3915991%" id="linearGradient-44">
            <stop stop-color="#C1C0C0" offset="0%"></stop>
            <stop stop-color="#949494" offset="100%"></stop>
        </linearGradient>
        <linearGradient x1="50%" y1="0%" x2="50%" y2="100%" id="linearGradient-45">
            <stop stop-color="#E4E4E4" offset="0%"></stop>
            <stop stop-color="#BFBFBF" offset="100%"></stop>
        </linearGradient>
        <linearGradient x1="50%" y1="0%" x2="50%" y2="100%" id="linearGradient-46">
            <stop stop-color="#E4E4E4" offset="0%"></stop>
            <stop stop-color="#BFBFBF" offset="100%"></stop>
        </linearGradient>
        <linearGradient x1="54.1803584%" y1="124.598228%" x2="37.7735754%" y2="-29.111734%" id="linearGradient-47">
            <stop stop-color="#DBDBDB" offset="0%"></stop>
            <stop stop-color="#4D4D4D" offset="100%"></stop>
        </linearGradient>
        <linearGradient x1="114.049445%" y1="3.968509e-12%" x2="40.3856244%" y2="68.738142%" id="linearGradient-48">
            <stop stop-color="#ACACAC" offset="0%"></stop>
            <stop stop-color="#E5E5E5" offset="100%"></stop>
        </linearGradient>
        <linearGradient x1="85.5531504%" y1="5.61729735%" x2="-22.8246805%" y2="94.3827027%" id="linearGradient-49">
            <stop stop-color="#B9B9B9" offset="0%"></stop>
            <stop stop-color="#4D4D4D" offset="100%"></stop>
        </linearGradient>
        <linearGradient x1="85.5531504%" y1="5.81881427%" x2="-22.8246805%" y2="94.1811857%" id="linearGradient-50">
            <stop stop-color="#B9B9B9" offset="0%"></stop>
            <stop stop-color="#4D4D4D" offset="100%"></stop>
        </linearGradient>
        <linearGradient x1="85.5531504%" y1="5.7065547%" x2="-22.8246805%" y2="94.2934453%" id="linearGradient-51">
            <stop stop-color="#B9B9B9" offset="0%"></stop>
            <stop stop-color="#4D4D4D" offset="100%"></stop>
        </linearGradient>
        <linearGradient x1="-0.000165477256%" y1="49.9998988%" x2="99.9999936%" y2="49.9998988%" id="linearGradient-52">
            <stop stop-color="#FFFFFF" offset="0%"></stop>
            <stop stop-color="#CDCDCD" offset="100%"></stop>
        </linearGradient>
    </defs>
    <g id="光储充及工商储管理系统V1.3" stroke="none" stroke-width="1" fill="none" fill-rule="evenodd">
        <g id="3_2_1.设备监视_站点拓扑_永泰光储充示范站能量流" transform="translate(-1551.000000, -648.000000)">
            <g id="main" transform="translate(212.000000, 102.000000)">
                <g id="拓扑图" transform="translate(149.000000, 100.000000)">
                    <g id="用电设备" transform="translate(887.000000, 446.000000)">
                        <g transform="translate(263.000000, 0.000000)" id="icon_负载">
                            <g transform="translate(40.000000, 0.000000)">
                                <g id="编组" transform="translate(3.595869, 17.204677)">
                                    <mask id="mask-2" fill="white">
                                        <use xlink:href="#path-1"></use>
                                    </mask>
                                    <g id="Clip-278"></g>
                                    <path d="M0,6.86666667 L0,51.2480957 C0,52.0383331 1.31490958,52.6773086 2.93672526,52.6773086 C4.55572528,52.6773086 5.87204269,52.0383331 5.87204269,51.2480957 L5.87204269,6.86666667 L0,6.86666667 Z" id="Fill-277" fill="url(#linearGradient-3)" fill-rule="nonzero" mask="url(#mask-2)"></path>
                                </g>
                                <g id="编组" transform="translate(3.595729, 22.642555)">
                                    <path d="M5.87204269,1.42921286 C5.87204269,2.21662292 4.55572528,2.8555984 2.93672526,2.8555984 C1.31490958,2.8555984 0,2.21662292 0,1.42921286 C0,0.637561822 1.31490958,0 2.93672526,0 C4.55572528,0 5.87204269,0.637561822 5.87204269,1.42921286" id="Fill-279" fill="url(#linearGradient-4)"></path>
                                    <path d="M5.06029015,1.45536562 C5.06029015,2.0264853 4.11000753,2.31487247 2.93588056,2.31487247 C1.76738489,2.31487247 0.812878793,2.0264853 0.812878793,1.45536562 C0.812878793,0.881418616 1.76738489,0.542139598 2.93588056,0.542139598 C4.11000753,0.542139598 5.06029015,0.881418616 5.06029015,1.45536562" id="Fill-281" fill="url(#linearGradient-5)"></path>
                                </g>
                                <g id="编组" transform="translate(12.352548, 12.731848)">
                                    <mask id="mask-7" fill="white">
                                        <use xlink:href="#path-6"></use>
                                    </mask>
                                    <g id="Clip-284"></g>
                                    <path d="M0,6.86666667 L0,51.2480957 C0,52.0369194 1.31490958,52.6773086 2.93813308,52.6773086 C4.55854093,52.6773086 5.87345051,52.0369194 5.87345051,51.2480957 L5.87345051,6.86666667 L0,6.86666667 Z" id="Fill-283" fill="url(#linearGradient-8)" fill-rule="nonzero" mask="url(#mask-7)"></path>
                                </g>
                                <g id="编组" transform="translate(12.352689, 18.170999)">
                                    <path d="M5.87345051,1.4277992 C5.87345051,2.21803658 4.5571331,2.85701207 2.93813308,2.85701207 C1.31350176,2.85701207 0,2.21803658 0,1.4277992 C0,0.637561822 1.31350176,0 2.93813308,0 C4.5571331,0 5.87345051,0.637561822 5.87345051,1.4277992" id="Fill-285" fill="url(#linearGradient-9)"></path>
                                    <path d="M5.05888233,1.451266 C5.05888233,2.02804033 4.11141536,2.31360017 2.93728839,2.31360017 C1.76597707,2.31360017 0.812878793,2.02804033 0.812878793,1.451266 C0.812878793,0.88014632 1.76597707,0.538039976 2.93728839,0.538039976 C4.11141536,0.538039976 5.05888233,0.88014632 5.05888233,1.451266" id="Fill-287" fill="url(#linearGradient-10)"></path>
                                </g>
                                <g id="编组" transform="translate(26.836263, 6.671477)">
                                    <mask id="mask-12" fill="white">
                                        <use xlink:href="#path-11"></use>
                                    </mask>
                                    <g id="Clip-290"></g>
                                    <path d="M0,6.86666667 L0,51.2480957 C0,52.0383331 1.31490958,52.6773086 2.93813308,52.6773086 C4.55994876,52.6773086 5.87345051,52.0383331 5.87345051,51.2480957 L5.87345051,6.86666667 L0,6.86666667 Z" id="Fill-289" fill="url(#linearGradient-8)" fill-rule="nonzero" mask="url(#mask-12)"></path>
                                </g>
                                <g id="编组">
                                    <path d="M32.7099949,13.5382851 C32.7099949,14.3299361 31.3950853,14.9674979 29.7746774,14.9674979 C28.1514539,14.9674979 26.8365444,14.3299361 26.8365444,13.5382851 C26.8365444,12.7494613 28.1514539,12.1104859 29.7746774,12.1104859 C31.3950853,12.1104859 32.7099949,12.7494613 32.7099949,13.5382851" id="Fill-291" fill="url(#linearGradient-9)"></path>
                                    <path d="M31.8954267,13.5617519 C31.8954267,14.1385262 30.9479597,14.424086 29.7738327,14.424086 C28.6025214,14.424086 27.6494231,14.1385262 27.6494231,13.5617519 C27.6494231,12.9906322 28.6025214,12.6485258 29.7738327,12.6485258 C30.9479597,12.6485258 31.8954267,12.9906322 31.8954267,13.5617519" id="Fill-293" fill="url(#linearGradient-10)"></path>
                                    <path d="M4.49772284,19.7786158 L5.85909069,20.5716805 C5.87176112,20.6663959 5.89147069,20.754043 5.93933677,20.8233124 C6.27017591,21.298303 6.51654548,21.7393658 6.57989765,22.4702293 C6.59453904,22.6195121 6.64522078,22.7289861 6.71968915,22.7993752 L6.77980896,22.8448499 L5.41562546,22.0447169 C5.3100385,21.9825157 5.23401589,21.8623544 5.21852981,21.6771646 C5.15376981,20.9420601 4.90740024,20.5038247 4.5765611,20.0288341 C4.52728719,19.9609782 4.50898545,19.8690902 4.49772284,19.7786158 Z M7.04282607,3.11319506 L7.11656096,3.11549226 C7.17428183,3.11973325 7.23059488,3.13104255 7.28268444,3.1480065 L7.35377966,3.17627975 L7.35377966,3.17627975 L7.4206514,3.20879399 L8.78342707,4.00609968 C8.6852312,3.9477861 8.57198919,3.91491844 8.44785852,3.90868949 L8.32025228,3.91138429 C8.14286619,3.92693458 7.94999402,3.99337672 7.74726706,4.11071071 C7.54735575,4.22521738 7.36011488,4.38213393 7.18413662,4.56591006 C7.17146618,4.58004669 7.16020357,4.60125162 7.14753314,4.61680191 C6.99267227,4.78502776 6.85329748,4.97304488 6.73504009,5.17519863 C6.72377748,5.19357624 6.71673835,5.20771287 6.70688357,5.22467682 C6.45206704,5.67422152 6.29298269,6.17889906 6.29439052,6.63409841 C6.29439052,6.71184985 6.32536269,6.75850072 6.33240182,6.82635652 C6.06913834,7.00730533 5.81995312,7.23349134 5.58343833,7.48088229 C5.54683485,7.51622386 5.5116392,7.55156542 5.47644355,7.59114797 C5.25541485,7.8357116 5.05268789,8.10289383 4.87248615,8.38562634 C4.81898876,8.46761877 4.76689919,8.5496112 4.71903311,8.63301729 C4.66975919,8.71925071 4.6218931,8.80124314 4.57684267,8.88747656 C4.50645136,9.02460183 4.43746788,9.16455442 4.37693136,9.30450702 C4.36144527,9.34267591 4.34314353,9.37943113 4.32765745,9.41760002 C4.25163484,9.59996249 4.18828266,9.78373863 4.13478527,9.96751476 C4.12070701,10.008511 4.11226005,10.0495072 4.10099744,10.0890897 C4.06017049,10.243179 4.02638266,10.3944409 4.00104179,10.5471164 C3.99259483,10.5937673 3.98414788,10.6390045 3.97710875,10.682828 C3.95176788,10.8736725 3.93487396,11.0602759 3.93487396,11.2412247 C3.93487396,11.37835 3.95599136,11.4985113 3.97147744,11.6186727 C3.9799244,11.6893558 3.98133223,11.7685209 3.99541049,11.8363767 C4.0179357,11.9409877 4.05594701,12.0300485 4.08973484,12.1247639 C4.11085223,12.1841377 4.12493049,12.2519935 4.15027136,12.3057127 C4.19391397,12.3947734 4.25163484,12.4682839 4.30513223,12.5446216 L4.30988364,12.5490393 L4.31357919,12.5545173 L5.26245398,13.1100867 C5.01045311,13.4253334 4.78097745,13.7702671 4.56980354,14.1250964 C4.51489832,14.2141571 4.46562441,14.3102862 4.41494267,14.4035879 C4.22629397,14.7428669 4.04750005,15.0906279 3.90812527,15.4454572 C3.74622527,15.8540057 3.62092874,16.2667952 3.53364352,16.6767574 C3.52660439,16.7050306 3.52378874,16.7361312 3.51815744,16.7672318 C3.43791135,17.1630573 3.38863744,17.5574691 3.39145309,17.939158 C3.39145309,18.1116249 3.41820178,18.2628868 3.43650352,18.4198033 C3.45058178,18.542792 3.45339744,18.6742626 3.47733048,18.7859419 C3.50689483,18.9287218 3.55757657,19.0502968 3.602627,19.1746991 C3.635007,19.2694145 3.6561244,19.3711982 3.69554353,19.4546043 C3.75608005,19.5804203 3.83632614,19.6836176 3.91234875,19.7896423 C3.95599136,19.8490162 3.98837136,19.9239403 4.03764527,19.9776595 C4.13584114,20.0889854 4.24433174,20.1867932 4.36252314,20.2686972 L4.48067742,20.3430264 L3.12115048,19.5535607 C2.95643482,19.456018 2.80720525,19.3330293 2.67627743,19.1860084 C2.59462351,19.095534 2.53408699,18.9782 2.46651134,18.8679343 C2.42427655,18.8000785 2.37359481,18.7421184 2.33558351,18.6657806 C2.29991858,18.5894428 2.27301346,18.5030523 2.24694261,18.4154052 L2.20747133,18.2840917 L2.14312847,18.0966505 L2.11596264,17.9971182 C2.08921394,17.8713022 2.08639829,17.729936 2.0709122,17.591397 C2.05683394,17.4698221 2.0329009,17.3581427 2.03008524,17.2252584 C2.03008524,17.1983988 2.03008524,17.1715393 2.02867742,17.143266 C2.02867742,16.929803 2.04134785,16.7177536 2.06668872,16.4986359 L2.10610785,16.2272127 L2.10610785,16.2272127 L2.15819742,15.9557894 L2.1680522,15.8893473 C2.16946003,15.8794517 2.17086785,15.8723833 2.17227568,15.865315 C2.21451046,15.6645749 2.26660003,15.4624212 2.33136003,15.2630948 L2.43078775,14.9566834 L2.43078775,14.9566834 L2.54394177,14.6523925 L2.54394177,14.6495652 C2.6368583,14.4163109 2.73681395,14.1943659 2.84521656,13.9766618 C2.90856873,13.8508459 2.98318352,13.7320982 3.04935134,13.6105232 C3.10144091,13.5143942 3.15071482,13.4225061 3.20562004,13.3277907 C3.23659222,13.2783125 3.25911743,13.226007 3.29008961,13.1779425 C3.4008386,13.0017059 3.51847029,12.8304956 3.64048188,12.6643117 L3.82647135,12.4188057 L3.343587,12.1389005 C3.22673743,12.069631 3.12115048,11.9805703 3.02682613,11.8759592 C3.00993221,11.8575816 2.9986696,11.8293084 2.98318352,11.8095171 C2.90997656,11.7190427 2.84099308,11.6215 2.78749569,11.5069933 C2.76919395,11.4716517 2.76074699,11.4250009 2.74666873,11.3840047 C2.70302612,11.2751526 2.66079134,11.1663006 2.63404264,11.039071 C2.61855656,10.9669742 2.61714873,10.8793271 2.60870177,10.800162 C2.59603134,10.7026193 2.57632177,10.6107312 2.57491395,10.5032929 C2.57350612,10.4863289 2.57350612,10.4622967 2.57350612,10.4439191 C2.57209829,10.2954845 2.58195308,10.1413953 2.59743916,9.99013337 C2.60307047,9.9547918 2.61151743,9.92227756 2.6157409,9.88834966 C2.62278003,9.83745781 2.63263482,9.78656595 2.6424896,9.73284678 C2.65375221,9.67064562 2.66079134,9.60844447 2.6748696,9.54341599 C2.69035569,9.46425089 2.71569656,9.38508578 2.73540612,9.30592068 C2.74807656,9.2635108 2.75511569,9.22110092 2.76919395,9.17869105 C2.77482525,9.15748611 2.77904873,9.13769483 2.78468004,9.11507623 C2.82973047,8.97088265 2.88182004,8.82810273 2.93813308,8.68249548 C2.94517221,8.66553153 2.955027,8.64574026 2.96206613,8.62594898 C2.98036786,8.5835391 3.00007743,8.54537021 3.01837917,8.50296034 C3.05920613,8.40965861 3.09862526,8.31352955 3.14508352,8.21598683 C3.16620091,8.17499062 3.19294961,8.13540807 3.21547482,8.09158453 C3.26193309,8.00393745 3.311207,7.91911769 3.36048091,7.83147061 C3.39426874,7.77633777 3.42242526,7.71696394 3.45762091,7.66041744 C3.47169918,7.63638518 3.49422439,7.6165939 3.50830265,7.59256164 C3.68991222,7.31265645 3.8884157,7.04688788 4.10662875,6.80515158 L4.16962897,6.73941627 L4.16962897,6.73941627 L4.41137911,6.49706149 C4.59048098,6.32450631 4.77710593,6.16546927 4.9724418,6.03187815 C4.9668105,5.98758339 4.95179369,5.95208475 4.94199105,5.9111409 L4.93302267,5.84386103 C4.93302267,5.75621395 4.93865398,5.6713942 4.94710093,5.58516078 C4.95695572,5.50175469 4.9724418,5.42117592 4.98933572,5.3349425 C5.00341398,5.2670867 5.02312354,5.19923089 5.04424094,5.1271341 C5.04564876,5.12147945 5.04846441,5.1158248 5.04846441,5.11017015 C5.04987224,5.1045155 5.04987224,5.10168818 5.05128007,5.09603353 C5.07521311,5.01828208 5.10336963,4.93770332 5.13434181,4.85712455 C5.17094528,4.77089113 5.20895659,4.68324405 5.2525992,4.5984243 L5.294658,4.51996603 L5.294658,4.51996603 L5.33988442,4.44150775 L5.3764879,4.37365195 C5.39338181,4.34679236 5.40605224,4.31851911 5.42294616,4.29307318 C5.52430964,4.13191565 5.64256703,3.98489474 5.76786355,3.84635581 C5.78757312,3.82232355 5.80446703,3.79263663 5.82558442,3.77001803 C5.9804453,3.60603317 6.14656878,3.46325325 6.32113921,3.35157391 C6.34084878,3.34026461 6.36478182,3.32612798 6.38449139,3.31623234 C6.45065921,3.27947712 6.51260356,3.24554921 6.57454791,3.21868963 C6.64212356,3.19041637 6.70829139,3.16638411 6.77445922,3.1480065 L6.86280031,3.12892205 L6.86280031,3.12892205 L6.94902966,3.11831958 C6.95606879,3.11690592 6.96029226,3.11831958 6.96592357,3.11831958 L7.04282607,3.11319506 Z M9.98532341,5.41424897 L10.0914383,5.41566264 C10.1280418,5.42131729 10.159014,5.42979926 10.1928018,5.43404025 C10.2167348,5.4396949 10.2406679,5.44252222 10.2646009,5.44959054 C10.2927574,5.45665885 10.3223218,5.45807251 10.3504783,5.46655449 C10.4293166,5.48917309 10.4997079,5.52168733 10.5700992,5.56551087 L10.5700992,5.56551087 L11.9328749,6.35998924 C11.8441818,6.30768372 11.7442262,6.27375582 11.6414548,6.24830989 C11.6062592,6.23982792 11.5710635,6.23417327 11.5372757,6.22851862 C11.4415435,6.21296833 11.3444035,6.20731368 11.2402244,6.21296833 C11.227554,6.21438199 11.2148835,6.21296833 11.1993975,6.21296833 C11.0797322,6.22569129 10.9544357,6.25537821 10.8249157,6.29637442 C10.7911279,6.30768372 10.7573401,6.31757936 10.7221444,6.33312965 C10.5912166,6.38119417 10.4560653,6.43915434 10.3180983,6.51973311 C10.1604218,6.61020751 10.0140079,6.73460982 9.8647783,6.85759846 C9.80705743,6.90707665 9.74511308,6.94383188 9.68880004,6.9961374 C9.50015134,7.17001789 9.32417308,7.36651699 9.16086525,7.57715271 L9.16086525,7.57715271 L7.79808958,6.77984702 C7.96139741,6.5692113 8.1387835,6.37553952 8.32602437,6.20165903 C8.38374524,6.14935351 8.44709741,6.11118462 8.50622611,6.06170643 C8.6244835,5.96133639 8.74133307,5.85672536 8.86803742,5.77897392 C8.89478612,5.7605963 8.92435046,5.74221869 8.95673046,5.72525474 C9.05668612,5.66729457 9.15241829,5.61781638 9.24815047,5.57823383 C9.28475395,5.56126988 9.3199496,5.55420157 9.35514525,5.54006494 C9.39315656,5.52592832 9.43116786,5.51179169 9.46917917,5.50048239 C9.49733569,5.48917309 9.52830786,5.47645013 9.55787221,5.46938181 C9.65078873,5.44252222 9.74370526,5.42979926 9.8323983,5.42131729 L9.8323983,5.42131729 C9.84929222,5.41990362 9.86196265,5.42131729 9.87604091,5.42131729 C9.94924787,5.41424897 10.0224548,5.41142165 10.0914383,5.41566264 Z" id="形状结合" fill="url(#linearGradient-13)" fill-rule="nonzero"></path>
                                    <path d="M7.74726706,4.11071071 C8.55395142,3.64137474 9.20436708,4.01458166 9.20718273,4.94759896 C9.20718273,5.49185905 8.97066794,6.10256128 8.61167229,6.61854812 C8.87212012,6.83201117 9.06640012,7.15149891 9.16072447,7.57701135 C9.49860273,7.13877595 9.89279404,6.76698269 10.3179575,6.51959174 C11.5709228,5.79296918 12.5873732,6.37539816 12.5902025,7.81167934 C12.5944123,9.22816924 11.617381,10.9429419 10.3939801,11.6950104 C10.7248193,12.1487961 10.9317697,12.7679803 10.9331775,13.565286 C10.9359932,15.2970227 10.0589175,17.2888732 8.79609751,18.7209134 L8.76653316,18.8368338 C8.3047662,19.8815304 8.04713402,20.9078494 7.84581488,21.9369958 C7.7655688,22.3554399 7.53046184,22.6523091 7.2855001,22.795089 C6.96310792,22.9845198 6.62100617,22.9025273 6.58017922,22.4699466 C6.51682704,21.739083 6.27045747,21.2980203 5.93961834,20.8230297 C5.89175225,20.7537602 5.87204269,20.6661131 5.85937225,20.5728114 C4.42620528,20.7905154 3.39708439,19.8051926 3.39143561,17.939158 C3.38722961,16.334651 4.14886353,14.503958 5.26245398,13.1100867 C4.47688701,13.0295079 3.93768962,12.3707411 3.93487396,11.2412247 C3.93065049,9.65226801 4.98792789,7.74099621 6.33240182,6.82635652 C6.32536269,6.75850072 6.29439052,6.71184985 6.29439052,6.63409841 C6.29157486,5.70249477 6.946214,4.57439204 7.74726706,4.11071071" id="Fill-301" fill="url(#linearGradient-14)" fill-rule="nonzero"></path>
                                    <path d="M12.984521,16.6655894 L14.3458888,17.4572405 C14.3599671,17.5547832 14.3782688,17.6410166 14.4261349,17.7116997 C14.756974,18.1866903 15.0047514,18.6249257 15.0681036,19.3586166 C15.0816187,19.5090303 15.1329762,19.616921 15.2070391,19.6859078 L15.2666071,19.7304099 L13.9038314,18.9316905 C13.7968366,18.8723167 13.7222218,18.7493281 13.7053279,18.5641383 C13.6405679,17.831861 13.3941983,17.3907983 13.064767,16.9158077 C13.0154931,16.8465382 12.9957836,16.7560638 12.984521,16.6655894 Z M15.5296242,0.000168696825 L15.6033591,0.00246589851 C15.6624878,0.00812054882 15.717393,0.0194298494 15.7694826,0.0363938003 L15.8412817,0.0636068049 L15.8412817,0.0636068049 L15.9088573,0.0971812911 L17.2702252,0.891659659 C17.1720293,0.834406325 17.0587873,0.802598917 16.9346566,0.796237435 L16.8070504,0.798357929 C16.6310721,0.81532188 16.4367921,0.880350358 16.2340652,0.99627069 C16.0355617,1.11360468 15.846913,1.26910757 15.6723426,1.4528837 C15.6582643,1.46843399 15.6470017,1.48822527 15.6343312,1.50377555 C15.4808782,1.67341506 15.3415034,1.85860486 15.2218382,2.06358593 C15.2119834,2.08054989 15.2035365,2.09610017 15.1950895,2.11306412 C14.940273,2.56119516 14.7811886,3.0658727 14.7825965,3.52107205 C14.7825965,3.60023715 14.8121608,3.64688802 14.8206078,3.71333016 C14.5559365,3.89286531 14.3067512,4.11905132 14.0702364,4.36785593 C14.0350408,4.40602482 13.9984373,4.44136639 13.9632417,4.47812161 C13.742213,4.72127158 13.5408938,4.9884538 13.3592843,5.27118632 C13.3071947,5.35317875 13.2536973,5.43658484 13.207239,5.51999093 C13.1565573,5.60481069 13.1086912,5.68821678 13.0636408,5.7744502 C12.9932495,5.91157547 12.924266,6.0501144 12.8637295,6.19148066 C12.8482434,6.22964955 12.8299416,6.26640477 12.8144556,6.30457366 C12.7398408,6.48693614 12.6750808,6.67071227 12.6215834,6.85590207 C12.6089129,6.89548462 12.5990582,6.93648083 12.5877956,6.97747705 C12.5469686,7.12873894 12.5131808,7.2814145 12.4878399,7.43409006 C12.4808008,7.47932726 12.4723538,7.52597813 12.4639069,7.56980167 C12.438566,7.75923245 12.4216721,7.94583591 12.4216721,8.12819839 C12.4216721,8.26532366 12.4427895,8.38407131 12.4582756,8.50564629 C12.4681303,8.57774309 12.4695382,8.65690819 12.4836164,8.72335033 C12.5047338,8.82937502 12.5427451,8.91843577 12.5765329,9.0117375 C12.5976503,9.07111132 12.6131364,9.13896713 12.6370695,9.19409997 C12.6807121,9.28316071 12.7398408,9.3552575 12.7933382,9.43159528 L12.7966818,9.4365431 L12.7989695,9.44149092 L13.7492521,9.99564665 C13.4972512,10.3137207 13.2691834,10.6572407 13.0566016,11.0106564 C13.0016964,11.1011308 12.9524225,11.1972598 12.9017408,11.2905616 C12.775975,11.5167476 12.6552148,11.7460751 12.5469686,11.9793817 L12.3949234,12.3324309 C12.2745542,12.637782 12.1739827,12.947109 12.0938026,13.2550445 L12.0204416,13.5623173 L12.0063634,13.6542054 C11.9261173,14.0500309 11.8768434,14.4458564 11.8782512,14.824718 C11.8782512,15.0000122 11.9049999,15.1484467 11.9247095,15.3081906 C11.9373799,15.4297656 11.9401955,15.5612362 11.9655364,15.6729156 C11.9936929,15.8156955 12.0443747,15.9358568 12.0894251,16.0630864 C12.1218051,16.1549745 12.1443303,16.2581719 12.1823416,16.3401643 C12.2414703,16.4673939 12.3245321,16.5705913 12.3991469,16.676616 C12.4427895,16.7374035 12.4751695,16.8109139 12.5244434,16.8632194 C12.6226393,16.9745454 12.7319218,17.0731483 12.8505091,17.1560464 L12.9684755,17.231 L11.6079486,16.4405343 C11.4432329,16.3429916 11.2940034,16.2228303 11.1630755,16.0729821 C11.0814216,15.9825077 11.0208851,15.8651737 10.9519016,15.754908 C10.9110747,15.6856385 10.8603929,15.6305057 10.8223816,15.5527542 C10.7688842,15.4382476 10.7350964,15.3011223 10.6942694,15.1710653 C10.6647051,15.0749363 10.625286,14.9872892 10.6027607,14.8826782 C10.5849283,14.7997433 10.577107,14.7086406 10.5697029,14.6164907 L10.5577103,14.4783707 L10.5259039,14.2385716 L10.5168834,14.1122321 C10.5168834,14.0867861 10.5168834,14.0585129 10.5154755,14.0302396 C10.5154755,13.8181903 10.5295538,13.6033135 10.5534868,13.3841958 C10.5746042,13.2060744 10.6069842,13.0222982 10.6449955,12.8413494 C10.649219,12.8201445 10.6506268,12.7989395 10.6548503,12.7749073 C10.6562581,12.7692526 10.657666,12.759357 10.6590738,12.7522887 C10.7013086,12.5529622 10.7533981,12.3479812 10.8181581,12.1486548 L10.9177618,11.8427735 L10.9177618,11.8427735 L11.0321477,11.5379525 C11.0335555,11.5351252 11.0335555,11.5322979 11.0349634,11.5308842 C11.1250642,11.3046982 11.2236121,11.0813395 11.3334225,10.8622218 C11.3953668,10.7378195 11.4699816,10.6204855 11.5361495,10.4974969 C11.5896468,10.3999541 11.6375129,10.3080661 11.693826,10.2147643 C11.7233903,10.1652862 11.7473234,10.1129806 11.7768877,10.0663298 C11.8876367,9.88915074 12.0052684,9.71888293 12.12728,9.55259433 L12.3132695,9.30577931 L11.8303851,9.02446046 C11.7135355,8.95660466 11.6079486,8.86754391 11.5150321,8.76293288 C11.4981381,8.74455527 11.4854677,8.71769568 11.4699816,8.69649074 C11.3967747,8.60460267 11.3277912,8.50847362 11.272886,8.39396695 C11.2559921,8.35862539 11.2475451,8.31197452 11.2334668,8.27097831 C11.1898242,8.16353995 11.1475894,8.05327427 11.1208408,7.92463098 C11.1053547,7.85253418 11.1039468,7.76771443 11.0954999,7.68854933 C11.0842373,7.58959294 11.0631199,7.5005322 11.0617121,7.39026652 C11.0603042,7.37188891 11.0603042,7.35068397 11.0603042,7.32947903 C11.0588964,7.18104446 11.0687512,7.03119623 11.0856451,6.87710701 C11.0898686,6.8431791 11.0983155,6.80783754 11.102539,6.7753233 C11.1095781,6.72443145 11.1194329,6.67212593 11.1292877,6.62123408 C11.1405503,6.55761926 11.1475894,6.49400445 11.1616677,6.43321696 C11.1785616,6.35405185 11.2024947,6.27064576 11.2222042,6.19289432 C11.2348747,6.15048444 11.2433216,6.10807456 11.2559921,6.06425103 C11.2616234,6.04445975 11.2672547,6.02466847 11.272886,6.00346353 C11.3179364,5.85785629 11.370026,5.71507637 11.4249312,5.56946912 C11.4319703,5.55250517 11.4418251,5.5327139 11.4488642,5.51292262 C11.467166,5.47334007 11.4868755,5.43234385 11.5051773,5.38993398 C11.5460042,5.29521858 11.5854234,5.19908953 11.6318816,5.10296047 C11.652999,5.06196426 11.6811555,5.02096804 11.7022729,4.97997183 C11.7487312,4.89091109 11.7980051,4.80467767 11.847279,4.72127158 C11.8810669,4.66189775 11.9092234,4.60393758 11.944419,4.54880474 C11.9584973,4.52335882 11.9810225,4.50356754 11.9951008,4.48094894 C12.1767103,4.19963009 12.3766216,3.93386152 12.5934269,3.69212522 C12.6342538,3.64688802 12.6778964,3.60730547 12.721539,3.56206827 C12.9538303,3.32174563 13.1987921,3.09555962 13.4592399,2.92026546 C13.4545472,2.87502825 13.4392175,2.83984376 13.429102,2.79879519 L13.4198208,2.73083467 C13.4198208,2.64460125 13.4254521,2.55695417 13.433899,2.47213442 C13.4437538,2.38731466 13.4592399,2.30814956 13.4761338,2.22474347 C13.4916199,2.15406034 13.5099217,2.08479087 13.531039,2.01410774 C13.5324469,2.00845309 13.5338547,2.00279844 13.5352625,1.99714379 C13.5366704,1.99290281 13.5366704,1.98724816 13.539486,1.98442083 C13.5620112,1.90666939 13.5915756,1.82467696 13.6211399,1.74409819 C13.6577434,1.65786478 13.6957547,1.5702177 13.7393973,1.4868116 L13.781984,1.40711638 L13.781984,1.40711638 L13.8266825,1.32848139 L13.8646938,1.26062559 C13.8801799,1.23517966 13.8928504,1.20549275 13.9097443,1.18004682 C14.0111077,1.01747563 14.1293651,0.87045472 14.2546617,0.731915788 C14.2743712,0.707883524 14.2912651,0.67819661 14.3123825,0.655578009 C14.4672434,0.493006812 14.6333669,0.34881323 14.8079373,0.238547549 C14.8276469,0.230065573 14.8515799,0.214515285 14.8726973,0.201792322 C14.9374573,0.165037095 14.9994017,0.133936518 15.0599382,0.105663267 C15.1289217,0.077390015 15.1964973,0.0519440887 15.2612573,0.0363938003 L15.3501264,0.0166025243 L15.3501264,0.0166025243 L15.4358278,0.00529322366 L15.4527217,0.00529322366 L15.5296242,0.000168696825 Z M18.4728254,2.300021 L18.5789403,2.30390857 C18.6155438,2.3067359 18.6451082,2.3180452 18.678896,2.32228619 C18.7042369,2.32511351 18.7281699,2.33218182 18.7521029,2.33783647 C18.7788516,2.34349112 18.8098238,2.34490479 18.8365725,2.35480043 C18.9154108,2.37883269 18.9872099,2.41134693 19.0561934,2.45092948 L19.0561934,2.45092948 L20.4203769,3.24682151 C20.3316838,3.19592966 20.2317282,3.16200176 20.127549,3.13655583 C20.0937612,3.12807385 20.0585656,3.12100554 20.0233699,3.11676455 C19.9290456,3.10121427 19.8304977,3.09273229 19.7277264,3.10121427 C19.7136482,3.10121427 19.7009777,3.09838694 19.6868995,3.10121427 C19.5672343,3.11252357 19.4419377,3.14362414 19.3124177,3.18320669 C19.2786299,3.194516 19.2448421,3.2058253 19.2096464,3.21854826 C19.0787186,3.26802645 18.9435673,3.32598662 18.8056003,3.40656538 C18.6479238,3.49986711 18.5001021,3.62144209 18.3522803,3.74443074 C18.2945595,3.79249527 18.2312073,3.83066415 18.1748942,3.88296967 C17.9876534,4.05826383 17.8102673,4.25334926 17.6483673,4.46398499 L17.6483673,4.46398499 L16.2841838,3.66809296 C16.4488994,3.45604357 16.6262855,3.2623718 16.8135264,3.0884913 C16.8712473,3.03477212 16.9331916,2.99660323 16.9937281,2.94712504 C17.1119855,2.85099599 17.2288351,2.7449713 17.3555394,2.66439253 C17.3822881,2.64742858 17.4118525,2.62905096 17.4442325,2.61208701 C17.5441881,2.55271319 17.6399203,2.503235 17.7356525,2.46506611 C17.772256,2.44810216 17.8074516,2.43962018 17.8426473,2.42689722 C17.8806586,2.41417425 17.9186699,2.39862397 17.9552734,2.38731466 C17.9848377,2.37883269 18.0158099,2.36469606 18.0439664,2.35621409 C18.1368829,2.33218182 18.2297995,2.31521787 18.3184925,2.30814956 L18.3184925,2.30814956 C18.3367942,2.3067359 18.3494647,2.30814956 18.3635429,2.3067359 C18.4367499,2.29966758 18.5099569,2.29684026 18.5789403,2.30390857 Z" id="形状结合" fill="url(#linearGradient-15)" fill-rule="nonzero"></path>
                                    <path d="M16.2340652,0.99627069 C17.0407495,0.526934714 17.692573,0.900141634 17.6953887,1.83315893 C17.6953887,2.37883269 17.4588739,2.99094858 17.0998782,3.5041081 C17.3589182,3.71757115 17.5531982,4.03988622 17.6475226,4.46398499 C17.9854008,4.02716325 18.3795922,3.65395633 18.8061635,3.40656538 C20.0591287,2.68135648 21.0741713,3.2623718 21.0784084,4.70006664 C21.0826183,6.11514288 20.1041791,7.83132925 18.8807782,8.58339774 C19.2116174,9.0343561 19.4185678,9.65495397 19.4199756,10.4522597 C19.4227913,12.1825827 18.5457156,14.1772605 17.2828956,15.6064734 L17.2533313,15.7223937 C16.7915643,16.7699177 16.5339321,17.7948231 16.332613,18.8239694 C16.2523669,19.2424136 16.0172599,19.5392827 15.7722982,19.6834763 C15.449906,19.8700797 15.1092121,19.789501 15.0683852,19.3583339 C15.0036252,18.6260567 14.7572556,18.1864076 14.4264164,17.711417 C14.3785504,17.6407339 14.3588408,17.5545004 14.3461704,17.4583714 C12.9130034,17.6774891 11.8838825,16.6921663 11.8782434,14.824718 C11.8754355,13.2216246 12.6356616,11.3895179 13.7492521,9.99564665 C12.9636851,9.91789521 12.4244877,9.25771478 12.4216721,8.12819839 C12.4174486,6.54065531 13.474726,4.62796985 14.8206078,3.71333016 C14.8121608,3.64688802 14.7825965,3.60023715 14.7825965,3.52107205 C14.778373,2.59088208 15.4330121,1.45995201 16.2340652,0.99627069" id="Fill-309" fill="url(#linearGradient-16)" fill-rule="nonzero"></path>
                                    <polygon id="Fill-311" fill="url(#linearGradient-17)" fill-rule="nonzero" points="0 86.4662266 23.105242 98.4979088 23.105242 56.492339 0 44.4620705"></polygon>
                                    <polygon id="Fill-313" fill="url(#linearGradient-18)" fill-rule="nonzero" points="69.3044635 74.3010947 23.105242 98.4973433 23.105242 56.4917735 69.3044635 32.2969386"></polygon>
                                    <polygon id="Fill-315" fill="url(#linearGradient-19)" fill-rule="nonzero" points="69.3044635 32.2970799 23.105242 56.4919149 0 44.4333731 46.2020371 20.2696387"></polygon>
                                    <path d="M23.5927722,53.4398174 L23.1478992,53.6773127 L23.5927722,53.4398174 Z" id="Fill-317" fill="#D0F1FF"></path>
                                    <g id="Fill-319">
                                        <use fill="#B9B9B9" xlink:href="#path-20"></use>
                                        <use fill="#E5E5E5" xlink:href="#path-20"></use>
                                    </g>
                                    <polygon id="Fill-321" fill="#D2D2D2" points="3.23842239 44.4622118 6.8143007 46.2914912 46.2052751 25.5488202 46.2052751 21.946808"></polygon>
                                    <polygon id="Fill-323" fill="#CACBCC" points="46.2052751 21.9472321 46.2052751 25.5492443 62.6500919 34.1598631 66.292138 32.2966558"></polygon>
                                    <polygon id="Fill-325" fill="#CACBCC" points="14.6426585 47.7590143 20.3936282 50.7870796 20.3936282 47.6247164 14.6426585 44.5938238"></polygon>
                                    <polygon id="Fill-327" fill="#D7D7D7" points="25.7038075 47.9840694 20.3948952 50.7859487 20.3948952 47.6249991 25.7038075 44.8259472"></polygon>
                                    <polygon id="Fill-329" fill="url(#linearGradient-21)" points="25.7038075 44.8253818 20.3948952 47.6244337 14.6425178 44.5779908 19.9542457 41.7959029"></polygon>
                                    <polygon id="Fill-331" fill="#CACBCC" points="24.0238486 42.7669477 29.7734104 45.7950129 29.7734104 42.6326497 24.0238486 39.6045845"></polygon>
                                    <polygon id="Fill-333" fill="#D7D7D7" points="35.0842936 42.9948301 29.7739735 45.793882 29.7739735 42.6329325 35.0842936 39.8324669"></polygon>
                                    <polygon id="Fill-335" fill="url(#linearGradient-22)" points="35.0842936 39.8320428 29.7739735 42.6325084 24.0244117 39.5860655 29.3361396 36.8025639"></polygon>
                                    <polygon id="Fill-337" fill="url(#linearGradient-23)" fill-rule="nonzero" points="78.735209 86.0065035 46.2425825 102.998728 46.2425825 87.7820637 62.4903036 69.8144124 78.735209 70.7870122"></polygon>
                                    <polygon id="Fill-339" fill="url(#linearGradient-24)" fill-rule="nonzero" points="56.5440685 85.3688004 53.123051 87.2419033 53.123051 84.7453752 56.5440685 82.8694449"></polygon>
                                    <polygon id="Fill-341" fill="#CDCDCD" points="55.7960905 84.9615242 56.5436461 85.3615907 56.5436461 82.8693035 55.7960905 83.2792657"></polygon>
                                    <polygon id="Fill-343" fill="#B2B2B2" points="53.1227695 87.242186 53.1227695 86.3699562 55.7962312 84.9619483 56.5437869 85.3690831"></polygon>
                                    <polygon id="Fill-345" fill="url(#linearGradient-25)" fill-rule="nonzero" points="29.2502622 61.0396674 25.8292448 62.9113567 25.8292448 60.4176559 29.2502622 58.5417256"></polygon>
                                    <polygon id="Fill-347" fill="#CDCDCD" points="28.503692 60.6352186 29.2498399 61.0310441 29.2498399 58.5429979 28.503692 58.9515464"></polygon>
                                    <polygon id="Fill-349" fill="#B2B2B2" points="25.8289632 62.9116394 25.8289632 62.0408233 28.5038328 60.6356427 29.2499806 61.0399501"></polygon>
                                    <polygon id="Fill-351" fill="url(#linearGradient-26)" fill-rule="nonzero" points="35.6286999 57.7305661 32.2062747 59.60791 32.2062747 57.1113818 35.6286999 55.2354516"></polygon>
                                    <polygon id="Fill-353" fill="#CDCDCD" points="34.8822705 57.3273895 35.6284184 57.723215 35.6284184 55.2365825 34.8822705 55.6423037"></polygon>
                                    <polygon id="Fill-355" fill="#B2B2B2" points="32.2061339 59.6080513 32.2061339 58.7315805 34.8824113 57.3278136 35.6285592 57.7307074"></polygon>
                                    <polygon id="Fill-357" fill="url(#linearGradient-27)" fill-rule="nonzero" points="41.6374425 54.4696706 38.2164251 56.3441872 38.2164251 53.8462454 41.6374425 51.9731425"></polygon>
                                    <polygon id="Fill-359" fill="#CDCDCD" points="40.8922802 54.0666354 41.6370202 54.4624609 41.6370202 51.9744148 40.8922802 52.3829633"></polygon>
                                    <polygon id="Fill-361" fill="#B2B2B2" points="38.2161435 56.3444699 38.2161435 55.4708264 40.892421 54.0670595 41.637161 54.4699533"></polygon>
                                    <polygon id="Fill-363" fill="url(#linearGradient-28)" fill-rule="nonzero" points="48.0172881 51.1633966 44.5948628 53.0379131 44.5948628 50.5399714 48.0172881 48.6668684"></polygon>
                                    <polygon id="Fill-365" fill="#CDCDCD" points="47.2694509 50.7588063 48.0170065 51.1546319 48.0170065 48.6679994 47.2694509 49.0751342"></polygon>
                                    <polygon id="Fill-367" fill="#B2B2B2" points="44.595426 53.0380545 44.595426 52.1629974 47.2688877 50.7592304 48.0178512 51.1635379"></polygon>
                                    <polygon id="Fill-369" fill="url(#linearGradient-29)" fill-rule="nonzero" points="54.0651683 48.0351026 50.6413352 49.9124465 50.6413352 47.4145048 54.0651683 45.5385745"></polygon>
                                    <polygon id="Fill-371" fill="#CDCDCD" points="53.3187389 47.6319261 54.0648867 48.0291653 54.0648867 45.5397055 53.3187389 45.9496676"></polygon>
                                    <polygon id="Fill-373" fill="#B2B2B2" points="50.6411944 49.9125879 50.6411944 49.0361171 53.3188797 47.6323502 54.0650275 48.035244"></polygon>
                                    <polygon id="Fill-375" fill="url(#linearGradient-25)" fill-rule="nonzero" points="60.4410719 44.7272736 57.0200545 46.6017902 57.0200545 44.1080894 60.4410719 42.2321591"></polygon>
                                    <polygon id="Fill-377" fill="#CDCDCD" points="59.6945017 44.3242384 60.4406496 44.7228912 60.4406496 42.2334314 59.6945017 42.6391526"></polygon>
                                    <polygon id="Fill-379" fill="#B2B2B2" points="57.0204768 46.6020729 57.0204768 45.7312567 59.6939386 44.3246625 60.4414943 44.7275563"></polygon>
                                    <polygon id="Fill-381" fill="url(#linearGradient-30)" fill-rule="nonzero" points="66.5225991 41.4624199 63.1015817 43.3355228 63.1015817 40.841822 66.5225991 38.9673054"></polygon>
                                    <polygon id="Fill-383" fill="#CDCDCD" points="65.7774368 41.0592433 66.5221768 41.4550688 66.5221768 38.9684363 65.7774368 39.3755712"></polygon>
                                    <polygon id="Fill-385" fill="#B2B2B2" points="63.1013001 43.3358055 63.1013001 42.4649894 65.7775776 41.0598088 66.5223176 41.4627026"></polygon>
                                    <polygon id="Fill-387" fill="url(#linearGradient-25)" fill-rule="nonzero" points="29.2502622 69.6030698 25.8292448 71.4775864 25.8292448 68.982472 29.2502622 67.1079554"></polygon>
                                    <polygon id="Fill-389" fill="#CDCDCD" points="28.503692 69.198621 29.2498399 69.5958602 29.2498399 67.107814 28.503692 67.5177762"></polygon>
                                    <polygon id="Fill-391" fill="#B2B2B2" points="25.8289632 71.4778691 25.8289632 70.6056393 28.5038328 69.1990451 29.2499806 69.6033526"></polygon>
                                    <polygon id="Fill-393" fill="url(#linearGradient-31)" fill-rule="nonzero" points="35.6286999 66.2967958 32.2062747 68.172726 32.2062747 65.6776116 35.6286999 63.7974404"></polygon>
                                    <polygon id="Fill-395" fill="#CDCDCD" points="34.8822705 65.8922056 35.6284184 66.2880311 35.6284184 63.7985713 34.8822705 64.2085334"></polygon>
                                    <polygon id="Fill-397" fill="#B2B2B2" points="32.2061339 68.1728674 32.2061339 67.2949829 34.8824113 65.8926297 35.6285592 66.2969372"></polygon>
                                    <polygon id="Fill-399" fill="url(#linearGradient-27)" fill-rule="nonzero" points="41.6374425 63.0344867 38.2164251 64.9090033 38.2164251 62.4124751 41.6374425 60.5379586"></polygon>
                                    <polygon id="Fill-401" fill="#CDCDCD" points="40.8922802 62.6286242 41.6370202 63.027277 41.6370202 60.5378172 40.8922802 60.9477793"></polygon>
                                    <polygon id="Fill-403" fill="#B2B2B2" points="38.2161435 64.909286 38.2161435 64.0384698 40.892421 62.6290482 41.637161 63.0347694"></polygon>
                                    <polygon id="Fill-405" fill="url(#linearGradient-32)" fill-rule="nonzero" points="15.8649332 60.9374596 19.2859506 62.8119762 19.2859506 60.3154481 15.8649332 58.4395178"></polygon>
                                    <polygon id="Fill-407" fill="#AEB0B2" points="16.6086877 60.5330107 15.8653555 60.9302499 15.8653555 58.4407901 16.6086877 58.8507523"></polygon>
                                    <polygon id="Fill-409" fill="#BCBCBC" points="19.2860914 62.8122589 19.2860914 61.9386154 16.6084061 60.5334348 15.8650739 60.9377423"></polygon>
                                    <polygon id="Fill-411" fill="url(#linearGradient-33)" fill-rule="nonzero" points="9.48635465 57.6311856 12.9087799 59.5057022 12.9087799 57.0105877 9.48635465 55.1318301"></polygon>
                                    <polygon id="Fill-413" fill="#AEB0B2" points="10.231517 57.2253231 9.48677699 57.6225622 9.48677699 55.1331024 10.231517 55.5416509"></polygon>
                                    <polygon id="Fill-415" fill="#BCBCBC" points="12.9090615 59.5058435 12.9090615 58.6307864 10.2313762 57.2256058 9.48663621 57.6313269"></polygon>
                                    <polygon id="Fill-417" fill="url(#linearGradient-34)" fill-rule="nonzero" points="3.476345 54.3676042 6.89877026 56.2421207 6.89877026 53.7470063 3.476345 51.871076"></polygon>
                                    <polygon id="Fill-419" fill="#AEB0B2" points="4.2227744 53.9644276 3.47662657 54.3616668 3.47662657 51.872207 4.2227744 52.2807555"></polygon>
                                    <polygon id="Fill-421" fill="#BCBCBC" points="6.89891105 56.2424035 6.89891105 55.3701737 4.22263362 53.9649931 3.47648578 54.3678869"></polygon>
                                    <polygon id="Fill-423" fill="url(#linearGradient-35)" fill-rule="nonzero" points="15.8649332 77.8738441 19.2859506 79.7497743 19.2859506 77.2532462 15.8649332 75.3759023"></polygon>
                                    <polygon id="Fill-425" fill="#AEB0B2" points="16.6086877 77.4693952 15.8653555 77.8680481 15.8653555 75.3771746 16.6086877 75.7857231"></polygon>
                                    <polygon id="Fill-427" fill="#BCBCBC" points="19.2860914 79.7500571 19.2860914 78.8749999 16.6084061 77.4698193 15.8650739 77.8741268"></polygon>
                                    <polygon id="Fill-429" fill="url(#linearGradient-34)" fill-rule="nonzero" points="9.48635465 74.5674287 12.9087799 76.4419453 12.9087799 73.9468308 9.48635465 72.0709006"></polygon>
                                    <polygon id="Fill-431" fill="#AEB0B2" points="10.231517 74.1615662 9.48677699 74.560219 9.48677699 72.0707592 10.231517 72.4778941"></polygon>
                                    <polygon id="Fill-433" fill="#BCBCBC" points="12.9090615 76.442228 12.9090615 75.5671709 10.2313762 74.1619903 9.48663621 74.5677114"></polygon>
                                    <polygon id="Fill-435" fill="url(#linearGradient-34)" fill-rule="nonzero" points="3.476345 71.3038473 6.89877026 73.1783639 6.89877026 70.6846631 3.476345 68.8073192"></polygon>
                                    <polygon id="Fill-437" fill="#AEB0B2" points="4.2227744 70.9008121 3.47662657 71.2980513 3.47662657 68.8085915 4.2227744 69.21714"></polygon>
                                    <polygon id="Fill-439" fill="#BCBCBC" points="6.89891105 73.1786466 6.89891105 72.3064168 4.22263362 70.9012362 3.47648578 71.30413"></polygon>
                                    <polygon id="Fill-441" fill="url(#linearGradient-36)" fill-rule="nonzero" points="15.8649332 69.5022757 19.2859506 71.3753786 19.2859506 68.8802642 15.8649332 67.0057476"></polygon>
                                    <polygon id="Fill-443" fill="#AEB0B2" points="16.6086877 69.0964132 15.8653555 69.4964797 15.8653555 67.0056062 16.6086877 67.4155684"></polygon>
                                    <polygon id="Fill-445" fill="#BCBCBC" points="19.2860914 71.3756613 19.2860914 70.5048452 16.6084061 69.0968373 15.8650739 69.5025584"></polygon>
                                    <polygon id="Fill-447" fill="url(#linearGradient-34)" fill-rule="nonzero" points="9.48635465 66.1960017 12.9087799 68.0705182 12.9087799 65.5725765 9.48635465 63.6994736"></polygon>
                                    <polygon id="Fill-449" fill="#AEB0B2" points="10.231517 65.7901391 9.48677699 66.188792 9.48677699 63.6993322 10.231517 64.1078807"></polygon>
                                    <polygon id="Fill-451" fill="#BCBCBC" points="12.9090615 68.0706596 12.9090615 67.1970161 10.2313762 65.7904219 9.48663621 66.196143"></polygon>
                                    <polygon id="Fill-453" fill="url(#linearGradient-34)" fill-rule="nonzero" points="3.476345 62.9336925 6.89877026 64.8067954 6.89877026 62.311681 3.476345 60.4357508"></polygon>
                                    <polygon id="Fill-455" fill="#AEB0B2" points="4.2227744 62.5292437 3.47662657 62.9264829 3.47662657 60.4370231 4.2227744 60.8441579"></polygon>
                                    <polygon id="Fill-457" fill="#BCBCBC" points="6.89891105 64.8070782 6.89891105 63.9334347 4.22263362 62.5296678 3.47648578 62.9339753"></polygon>
                                    <polygon id="Fill-459" fill="url(#linearGradient-37)" fill-rule="nonzero" points="48.0172881 59.7282126 44.5948628 61.6027292 44.5948628 59.1062011 48.0172881 57.2288572"></polygon>
                                    <polygon id="Fill-461" fill="#CDCDCD" points="47.2694509 59.3223501 48.0170065 59.7181756 48.0170065 57.2301295 47.2694509 57.638678"></polygon>
                                    <polygon id="Fill-463" fill="#B2B2B2" points="44.595426 61.6028706 44.595426 60.7278135 47.2688877 59.3226328 48.0178512 59.728354"></polygon>
                                    <polygon id="Fill-465" fill="url(#linearGradient-38)" fill-rule="nonzero" points="54.0651683 56.6013324 50.6413352 58.4730216 50.6413352 55.9807345 54.0651683 54.1048043"></polygon>
                                    <polygon id="Fill-467" fill="#CDCDCD" points="53.3187389 56.1967422 54.0648867 56.595395 54.0648867 54.1045215 53.3187389 54.5116564"></polygon>
                                    <polygon id="Fill-469" fill="#B2B2B2" points="50.6411944 58.4733044 50.6411944 57.6024882 53.3188797 56.1973076 54.0650275 56.6016151"></polygon>
                                    <polygon id="Fill-471" fill="url(#linearGradient-39)" fill-rule="nonzero" points="60.4410719 53.2920897 57.0200545 55.1694336 57.0200545 52.6729055 60.4410719 50.7955616"></polygon>
                                    <polygon id="Fill-473" fill="#CDCDCD" points="59.6945017 52.8890545 60.4406496 53.28488 60.4406496 50.7968339 59.6945017 51.2039687"></polygon>
                                    <polygon id="Fill-475" fill="#B2B2B2" points="57.0204768 55.1697163 57.0204768 54.2946592 59.6939386 52.8894786 60.4414943 53.2923724"></polygon>
                                    <polygon id="Fill-477" fill="url(#linearGradient-25)" fill-rule="nonzero" points="66.5225991 50.0285082 63.1015817 51.9001975 63.1015817 49.405083 66.5225991 47.5305665"></polygon>
                                    <polygon id="Fill-479" fill="#CDCDCD" points="65.7774368 49.6226457 66.5221768 50.0198849 66.5221768 47.5318388 65.7774368 47.9389736"></polygon>
                                    <polygon id="Fill-481" fill="#B2B2B2" points="63.1013001 51.9006216 63.1013001 51.0298054 65.7775776 49.6232112 66.5223176 50.0289323"></polygon>
                                    <polygon id="Fill-483" fill="url(#linearGradient-27)" fill-rule="nonzero" points="61.3779802 82.8022959 57.9569628 84.6739852 57.9569628 82.1788707 61.3779802 80.3029405"></polygon>
                                    <polygon id="Fill-485" fill="#CDCDCD" points="60.63141 82.3978471 61.3775578 82.7936726 61.3775578 80.3042128 60.63141 80.7127613"></polygon>
                                    <polygon id="Fill-487" fill="#B2B2B2" points="57.9566812 84.6744093 57.9566812 83.8035931 60.6315508 82.3984125 61.3776986 82.80272"></polygon>
                                    <polygon id="Fill-489" fill="url(#linearGradient-31)" fill-rule="nonzero" points="66.167827 80.2856938 62.7454017 82.1616241 62.7454017 79.665096 66.167827 77.7863384"></polygon>
                                    <polygon id="Fill-491" fill="#CDCDCD" points="65.4212568 79.8839309 66.1674046 80.2783428 66.1674046 77.7874693 65.4212568 78.1960178"></polygon>
                                    <polygon id="Fill-493" fill="#B2B2B2" points="62.7452609 82.1617654 62.7452609 81.2867083 65.4215383 79.884355 66.1676862 80.2858352"></polygon>
                                    <polygon id="Fill-495" fill="url(#linearGradient-39)" fill-rule="nonzero" points="71.0003308 77.7179171 67.5793134 79.5938474 67.5793134 77.0973193 71.0003308 75.2199753"></polygon>
                                    <polygon id="Fill-497" fill="#CDCDCD" points="70.2565763 77.3119132 70.9999085 77.7105661 70.9999085 75.2211063 70.2565763 75.6310684"></polygon>
                                    <polygon id="Fill-499" fill="#B2B2B2" points="67.5791726 79.5939887 67.5791726 78.7175179 70.2568579 77.3123373 71.0001901 77.7180585"></polygon>
                                    <polygon id="Fill-501" fill="url(#linearGradient-40)" fill-rule="nonzero" points="46.2431456 87.7819224 30.396655 79.4695864 30.396655 94.6890777 46.2431456 103"></polygon>
                                    <polygon id="Fill-503" fill="url(#linearGradient-41)" fill-rule="nonzero" points="80 69.9219921 63.4003224 68.5252935 45.0549404 87.5022999 45.0549404 89.8928033 63.4003224 70.8649051 80 71.7017933"></polygon>
                                    <polygon id="Fill-505" fill="#B6B6B6" fill-rule="nonzero" points="28.9539148 81.3886334 45.055222 89.8932274 45.055222 87.502724 28.9539148 79.0009573"></polygon>
                                    <polygon id="Fill-507" fill="url(#linearGradient-42)" fill-rule="nonzero" points="45.055222 87.5030067 28.9539148 78.9998263 46.6446577 61.488788 63.400604 68.5245867"></polygon>
                                    <polygon id="Fill-509" fill="url(#linearGradient-43)" points="80 69.9219921 63.4003224 68.5252935 46.6457839 61.4880812 62.8906893 62.4635084"></polygon>
                                    <polygon id="Fill-511" fill="#BABABA" fill-rule="nonzero" points="59.9749407 86.3227399 59.9749407 95.7843835 66.8085286 92.2219538 66.8085286 82.7574828"></polygon>
                                    <polygon id="Fill-513" fill="url(#linearGradient-44)" fill-rule="nonzero" points="41.3453186 90.4960131 41.3453186 93.2413459 34.5131385 89.5969237 34.5131385 86.9392381"></polygon>
                                    <polygon id="Fill-515" fill="url(#linearGradient-45)" fill-rule="nonzero" points="35.1613017 87.9779974 37.5222261 89.2149521 37.5222261 90.535313 35.1613017 89.2813943"></polygon>
                                    <polygon id="Fill-517" fill="url(#linearGradient-46)" fill-rule="nonzero" points="40.6118412 90.8357163 40.6118412 92.1801094 38.2537325 90.9261907 38.2537325 89.5987615"></polygon>
                                </g>
                                <g id="编组" transform="translate(5.391411, 68.313103)">
                                    <polygon id="Fill-525" fill="url(#linearGradient-47)" fill-rule="nonzero" points="2.59363803 22.315512 2.59363803 12.4043236 9.21605203 15.2076165 9.23857725 18.837902"></polygon>
                                    <polygon id="Fill-527" fill="url(#linearGradient-48)" fill-rule="nonzero" points="9.2381549 18.837902 9.21562969 25.7690896 2.59321569 22.315512"></polygon>
                                    <polygon id="Fill-529" fill="#AEB0B2" points="3.34020822 21.9109217 2.59406038 22.3081609 2.59406038 12.4040409 3.34020822 12.7956254"></polygon>
                                    <polygon id="Fill-531" fill="#CDCDCD" fill-rule="nonzero" points="61.4171178 22.8621753 54.5835298 26.4274323 54.5835298 27.4721289 61.4171178 23.9082856"></polygon>
                                    <polygon id="Fill-533" fill="#CDCDCD" fill-rule="nonzero" points="61.4171178 20.7361681 54.5835298 24.2985978 54.5835298 25.3461218 61.4171178 21.7794511"></polygon>
                                    <polygon id="Fill-535" fill="#CDCDCD" fill-rule="nonzero" points="61.4171178 18.6267008 54.5835298 22.1905442 54.5835298 23.2380682 61.4171178 19.6728111"></polygon>
                                    <polygon id="Fill-537" fill="#CDCDCD" fill-rule="nonzero" points="61.4171178 16.5407003 54.5835298 20.1017164 54.5835298 21.150654 61.4171178 17.5868106"></polygon>
                                    <polygon id="Fill-539" fill="#CDCDCD" fill-rule="nonzero" points="61.4171178 14.4436733 54.5835298 18.0089303 54.5835298 19.0536269 61.4171178 15.4897836"></polygon>
                                    <polygon id="Fill-541" fill="#E7E7E7" points="32.4474353 10.0977918 29.7767892 8.72229809 38.0885945 0 40.6663241 1.39104397"></polygon>
                                    <polygon id="Fill-543" fill="url(#linearGradient-49)" fill-rule="nonzero" opacity="0.32" points="32.4081569 9.47648708 30.5822065 8.53781513 38.0859196 0.689160506 39.9090544 1.59531822"></polygon>
                                    <polygon id="Fill-545" fill="#E7E7E7" points="36.6075614 12.2321395 33.9383231 10.8552322 42.213525 2.15696636 44.8292659 3.52539173"></polygon>
                                    <polygon id="Fill-547" fill="url(#linearGradient-50)" fill-rule="nonzero" opacity="0.32" points="36.5698317 11.6108348 34.7438812 10.6721629 42.2081752 2.84612686 44.0679135 3.72966597"></polygon>
                                    <polygon id="Fill-549" fill="#E7E7E7" points="40.9156501 14.474067 38.245004 13.099987 46.4990884 4.4003075 49.0838572 5.83093403"></polygon>
                                    <polygon id="Fill-551" fill="url(#linearGradient-51)" fill-rule="nonzero" opacity="0.32" points="40.8517348 13.854176 39.0243765 12.9126767 46.5238662 5.10219097 48.3230679 6.03379461"></polygon>
                                    <polygon id="Fill-553" fill="#DEDFE0" points="9.21619282 15.2070511 6.57792669 16.5443759 6.57792669 14.7702293 9.21619282 13.4272499"></polygon>
                                    <polygon id="Fill-555" fill="#BEBEBE" points="0 13.0838712 6.57736356 16.5445172 6.57736356 14.768957 0 11.3054837"></polygon>
                                    <polygon id="Fill-557" fill="url(#linearGradient-52)" points="0 11.3057665 6.57736356 14.7692398 9.21562969 13.4220193 2.63404264 9.96420067"></polygon>
                                </g>
                            </g>
                        </g>
                    </g>
                </g>
            </g>
        </g>
    </g>
</svg>