<?xml version="1.0" encoding="UTF-8"?>
<svg width="88px" height="64px" viewBox="0 0 88 64" version="1.1" xmlns="http://www.w3.org/2000/svg" xmlns:xlink="http://www.w3.org/1999/xlink">
    <title>icon_光伏</title>
    <defs>
        <linearGradient x1="74.1912994%" y1="14.0493326%" x2="25.8979096%" y2="88.8737215%" id="linearGradient-1">
            <stop stop-color="#C5C5C5" offset="0%"></stop>
            <stop stop-color="#666666" offset="100%"></stop>
        </linearGradient>
        <linearGradient x1="28.1371222%" y1="87.5765891%" x2="73.9699097%" y2="15.351248%" id="linearGradient-2">
            <stop stop-color="#B6B6B6" offset="0%"></stop>
            <stop stop-color="#FBFBFB" offset="100%"></stop>
        </linearGradient>
        <linearGradient x1="74.1912994%" y1="14.0382324%" x2="25.8979096%" y2="88.8857242%" id="linearGradient-3">
            <stop stop-color="#C5C5C5" offset="0%"></stop>
            <stop stop-color="#666666" offset="100%"></stop>
        </linearGradient>
        <linearGradient x1="28.1371222%" y1="87.5702666%" x2="73.9699097%" y2="15.3570779%" id="linearGradient-4">
            <stop stop-color="#B6B6B6" offset="0%"></stop>
            <stop stop-color="#FBFBFB" offset="100%"></stop>
        </linearGradient>
        <linearGradient x1="28.1371222%" y1="87.5681791%" x2="73.9699097%" y2="15.3590027%" id="linearGradient-5">
            <stop stop-color="#B6B6B6" offset="0%"></stop>
            <stop stop-color="#FBFBFB" offset="100%"></stop>
        </linearGradient>
        <linearGradient x1="28.1371222%" y1="87.5716748%" x2="73.9699097%" y2="15.3557794%" id="linearGradient-6">
            <stop stop-color="#B6B6B6" offset="0%"></stop>
            <stop stop-color="#FBFBFB" offset="100%"></stop>
        </linearGradient>
        <linearGradient x1="28.1371222%" y1="87.562738%" x2="73.9699097%" y2="15.3640198%" id="linearGradient-7">
            <stop stop-color="#B6B6B6" offset="0%"></stop>
            <stop stop-color="#FBFBFB" offset="100%"></stop>
        </linearGradient>
        <linearGradient x1="74.1912994%" y1="14.0437831%" x2="25.8979096%" y2="88.8797222%" id="linearGradient-8">
            <stop stop-color="#C5C5C5" offset="0%"></stop>
            <stop stop-color="#666666" offset="100%"></stop>
        </linearGradient>
        <linearGradient x1="28.1371222%" y1="87.5623784%" x2="73.9699097%" y2="15.3643514%" id="linearGradient-9">
            <stop stop-color="#B6B6B6" offset="0%"></stop>
            <stop stop-color="#FBFBFB" offset="100%"></stop>
        </linearGradient>
    </defs>
    <g id="光储充及工商储管理系统V1.3" stroke="none" stroke-width="1" fill="none" fill-rule="evenodd">
        <g id="3_2_1.设备监视_站点拓扑_永泰光储充示范站能量流" transform="translate(-371.000000, -717.000000)">
            <g id="main" transform="translate(212.000000, 102.000000)">
                <g id="拓扑图" transform="translate(149.000000, 100.000000)">
                    <g id="光伏" transform="translate(0.000000, 473.000000)">
                        <g id="光伏1" transform="translate(0.000000, 39.000000)">
                            <g id="编组" transform="translate(10.000000, 3.000000)">
                                <path d="M22.6143186,45.2673035 L14.1959629,45.2673035 L14.1959629,45.7576202 C14.1959629,46.3744702 14.6067257,46.9890607 15.4259693,47.4613012 C17.0735846,48.3990037 19.7389789,48.3990037 21.3843122,47.4613012 C22.2058378,46.9890607 22.6143186,46.3744702 22.6143186,45.7576202 L22.6143186,45.2673035 Z" id="Fill-308" fill="#939598"></path>
                                <path d="M21.384084,46.9684991 C19.7387507,47.908461 17.0733564,47.908461 15.4257411,46.9684991 C13.7849719,46.0307966 13.7849719,44.5033584 15.4257411,43.5633964 C17.0733564,42.6234344 19.7387507,42.6234344 21.384084,43.5633964 C23.0271352,44.5033584 23.0271352,46.0307966 21.384084,46.9684991" id="Fill-310" fill="#E6E7E8"></path>
                                <path d="M21.3441487,44.1904143 L15.4702404,44.1904143 L15.4702404,45.0264382 C15.4702404,45.4580073 15.7577744,45.8895764 16.3305603,46.2149478 C17.4761322,46.8702098 19.3336929,46.8702098 20.4815468,46.2149478 C21.0543327,45.8895764 21.3441487,45.4580073 21.3441487,45.0264382 L21.3441487,44.1904143 Z" id="Fill-312" fill="#939598"></path>
                                <path d="M20.4815468,45.3775682 C19.3336929,46.0350897 17.4761322,46.0350897 16.3305603,45.3775682 C15.1849885,44.7245658 15.1849885,43.66033 16.3305603,43.0028085 C17.4761322,42.345287 19.3336929,42.345287 20.4815468,43.0028085 C21.6271186,43.66033 21.6271186,44.7200467 20.4815468,45.3775682" id="Fill-314" fill="#E6E7E8"></path>
                                <path d="M20.1428957,41.315396 L16.6719499,41.315396 L16.6719499,44.04942 C16.6719499,44.3002272 16.840819,44.5555534 17.1762753,44.7453534 C17.856316,45.1339915 18.9562475,45.1339915 19.6362882,44.7453534 C19.9740265,44.5555534 20.1428957,44.3002272 20.1428957,44.04942 L20.1428957,41.315396 Z" id="Fill-316" fill="#BCBEC0"></path>
                                <path d="M19.6369728,42.0192377 C18.9569321,42.4033568 17.8570006,42.4033568 17.1769599,42.0192377 C16.4992013,41.6305996 16.4992013,41.0024519 17.1769599,40.6115543 C17.8570006,40.2274352 18.9569321,40.2274352 19.6369728,40.6115543 C20.3101674,41.0024519 20.3101674,41.6305996 19.6369728,42.0192377" id="Fill-318" fill="#E6E7E8"></path>
                                <path d="M19.1534137,33.7932147 L17.6655395,33.7932147 L17.6655395,41.2428653 C17.6655395,41.353582 17.734,41.4597796 17.880049,41.543382 C18.1698649,41.7105868 18.6399602,41.7105868 18.9320582,41.543382 C19.0781072,41.4597796 19.1534137,41.353582 19.1534137,41.2428653 L19.1534137,33.7932147 Z" id="Fill-320" fill="#939598"></path>
                                <path d="M18.9327428,34.0932795 C18.6406448,34.2604843 18.1705496,34.2604843 17.8807336,34.0932795 C17.5886356,33.9283343 17.5886356,33.6617104 17.8807336,33.4922461 C18.1705496,33.3250414 18.6406448,33.3250414 18.9327428,33.4922461 C19.2271228,33.6617104 19.2271228,33.9283343 18.9327428,34.0932795" id="Fill-322" fill="#808285"></path>
                                <polygon id="Fill-324" fill="#C6C7C9" points="9.03586914 43.916786 6.86795428 40.7737881 2.11451569 32.5423422 0.510258698 29.2999253 23.6498973 16.0726719 32.1755077 30.6895326"></polygon>
                                <polygon id="Fill-326" fill="url(#linearGradient-1)" points="9.29442151 42.8708523 1.55382445 29.5984084 23.3881501 17.121317 31.1241831 30.3960204"></polygon>
                                <path d="M11.7017198,33.056158 C12.3247101,32.6991532 13.1279796,32.9115485 13.486256,33.5283985 L13.486256,33.5283985 L15.8732444,37.6158774 C16.2315209,38.2327274 16.0147294,39.0280799 15.3940211,39.3850847 L15.3940211,39.3850847 L10.4283551,42.2230468 C9.80536481,42.5800516 9.00209531,42.3653968 8.64381885,41.7508063 L8.64381885,41.7508063 L6.2591125,37.6633274 C5.90311806,37.0464773 6.11534552,36.2488654 6.73605377,35.8941201 L6.73605377,35.8941201 Z M21.0288495,29.0642153 L21.101114,29.1747477 L23.4881024,33.2644861 C23.8239866,33.842783 23.6564456,34.5779668 23.1208628,34.9617687 L23.0088791,35.0336934 L17.7921914,38.016265 C17.208138,38.3467204 16.4676417,38.1806984 16.0802701,37.650386 L16.0076551,37.5395055 L13.6229488,33.4542861 C13.2849252,32.8738709 13.4523325,32.1405406 13.9897873,31.7569787 L14.1021721,31.6850788 L19.3142958,28.7002477 C19.8983492,28.3655557 20.6428568,28.5352848 21.0288495,29.0642153 Z M9.36709056,26.4794248 L9.4393295,26.5903042 L12.1024418,31.1545426 C12.4404653,31.7328395 12.2710524,32.4680233 11.7352272,32.8518252 L11.6232185,32.9237499 L6.65755243,35.761712 C6.07563845,36.0921674 5.33327023,35.9261453 4.9475366,35.3976948 L4.87529822,35.287212 L2.21218596,30.716195 C1.87630179,30.1400163 2.04183706,29.4069509 2.57528886,29.0234055 L2.68684522,28.9515067 L7.65479327,26.1180637 C8.23884665,25.7833717 8.98134857,25.9491289 9.36709056,26.4794248 Z M28.0132122,25.0679001 L28.0854511,25.1787795 L30.4747215,29.2707775 C30.8084663,29.8511927 30.6407916,30.584523 30.1052004,30.9680849 L29.9932162,31.0399847 L25.4063647,33.6655516 C24.7856565,34.0180374 24.274485,34.3095159 24.274485,34.3095159 C24.274485,34.3095159 24.0206573,33.873105 23.6993672,33.3168759 L23.6241105,33.1865325 L21.2348402,29.0967941 C20.9010954,28.5227338 21.06877,27.783843 21.6024809,27.4032848 L21.7140634,27.3321059 L26.3009149,24.706539 C26.8849683,24.371847 27.6274702,24.5376043 28.0132122,25.0679001 Z M16.9806591,22.1240459 L17.0532747,22.2352976 L19.7163869,26.8017956 C20.0565499,27.3779742 19.8872707,28.1130256 19.3495735,28.4968192 L19.2371637,28.5687434 L14.0227579,31.551315 C13.4387045,31.8838887 12.6962026,31.7179991 12.3104606,31.187695 L12.2382217,31.076815 L9.57510943,26.510317 C9.23494648,25.9320201 9.40623136,25.1968363 9.94041858,24.8130344 L10.0520507,24.7411097 L15.2664564,21.7630571 C15.8526492,21.4283651 16.5932792,21.5921365 16.9806591,22.1240459 Z M23.9685426,18.1302571 L24.0408066,18.2411371 L26.7016368,22.8076351 C27.037521,23.3838137 26.8699801,24.1188651 26.3343972,24.5026587 L26.2224135,24.5745828 L21.6355621,27.1956306 C21.0515087,27.5303226 20.3110125,27.3645654 19.9236409,26.8342695 L19.8510259,26.7233901 L17.1879136,22.1591517 C16.8520294,21.5808548 17.0215761,20.845671 17.5555293,20.4618691 L17.6671369,20.3899444 L22.2562704,17.7666371 C22.8381843,17.4340634 23.5825582,17.599953 23.9685426,18.1302571 Z" id="形状结合" fill="url(#linearGradient-2)"></path>
                                <polygon id="Fill-340" fill="#E6E7E8" points="8.52332842 44.2080386 0 29.5934375 0.508889488 29.2996994 9.03678194 43.91656"></polygon>
                                <path d="M50.7449536,29.1946315 L42.3243159,29.1946315 L42.3243159,29.6826887 C42.3243159,30.2972792 42.7350787,30.9163888 43.5588864,31.3863698 C45.2042197,32.3263318 47.8673319,32.3263318 49.5103832,31.3863698 C50.3341908,30.9163888 50.7449536,30.2972792 50.7449536,29.6826887 L50.7449536,29.1946315 Z" id="Fill-344" fill="#939598"></path>
                                <path d="M49.5103832,30.8937935 C47.8673319,31.8337555 45.2042197,31.8337555 43.5588864,30.8937935 C41.9158351,29.9560911 41.9158351,28.4309124 43.5588864,27.4909504 C45.2042197,26.5509885 47.8673319,26.5509885 49.5103832,27.4909504 C51.1579985,28.4309124 51.1579985,29.9560911 49.5103832,30.8937935" id="Fill-346" fill="#E6E7E8"></path>
                                <path d="M49.4702197,28.1157088 L43.5985934,28.1157088 L43.5985934,28.9539922 C43.5985934,29.3833018 43.8861274,29.8148708 44.4589133,30.1425018 C45.6067672,30.7955043 47.4643279,30.7955043 48.6121818,30.1425018 C49.1849677,29.8148708 49.4702197,29.3833018 49.4702197,28.9539922 L49.4702197,28.1157088 Z" id="Fill-348" fill="#939598"></path>
                                <path d="M48.61241,29.3006032 C47.4645561,29.9626437 45.6069954,29.9626437 44.4591415,29.3006032 C43.3135697,28.6476008 43.3135697,27.583365 44.4591415,26.9303625 C45.6069954,26.2728411 47.4645561,26.2728411 48.61241,26.9303625 C49.7579819,27.583365 49.7579819,28.6476008 48.61241,29.3006032" id="Fill-350" fill="#E6E7E8"></path>
                                <path d="M48.2691949,25.2427241 L44.7982491,25.2427241 L44.7982491,27.9767481 C44.7982491,28.2275552 44.9716823,28.4828815 45.3048565,28.6726815 C45.9848972,29.0613196 47.0802647,29.0613196 47.7625874,28.6726815 C48.1026077,28.4828815 48.2691949,28.2275552 48.2691949,27.9767481 L48.2691949,25.2427241 Z" id="Fill-352" fill="#BCBEC0"></path>
                                <path d="M47.763272,25.9465658 C47.0809493,26.3306849 45.9855818,26.3306849 45.3055411,25.9465658 C44.6277825,25.5556681 44.6277825,24.9275205 45.3055411,24.5388823 C45.9855818,24.1547633 47.0809493,24.1547633 47.763272,24.5388823 C48.4410306,24.9275205 48.4410306,25.5556681 47.763272,25.9465658" id="Fill-354" fill="#E6E7E8"></path>
                                <path d="M47.2774309,17.7205428 L45.7895567,17.7205428 L45.7895567,25.1701933 C45.7895567,25.276391 45.8625812,25.3871077 46.0063482,25.47071 C46.2961641,25.6379148 46.7708234,25.6379148 47.0583574,25.47071 C47.2066884,25.3871077 47.2774309,25.276391 47.2774309,25.1701933 L47.2774309,17.7205428 Z" id="Fill-356" fill="#939598"></path>
                                <path d="M47.059042,18.0206076 C46.771508,18.1878123 46.2968487,18.1878123 46.0070328,18.0206076 C45.7149348,17.8556623 45.7149348,17.5890385 46.0070328,17.4195742 C46.2968487,17.2523694 46.771508,17.2523694 47.059042,17.4195742 C47.353422,17.5890385 47.353422,17.8556623 47.059042,18.0206076" id="Fill-358" fill="#808285"></path>
                                <polygon id="Fill-360" fill="#C6C7C9" points="37.1621683 27.844114 34.9942535 24.6965971 30.2430969 16.4696703 28.6411219 13.2272534 51.7761965 0 60.3018069 14.6146011"></polygon>
                                <polygon id="Fill-362" fill="url(#linearGradient-3)" points="37.4250565 26.7984063 29.6844595 13.5237029 51.5165031 1.04887103 59.2502541 14.3190554"></polygon>
                                <path d="M39.830301,16.9834861 C40.4510093,16.6264813 41.2542788,16.8388765 41.6148373,17.4557266 L41.6148373,17.4557266 L43.9995436,21.545465 C44.3601021,22.1600555 44.1433106,22.9554079 43.5203203,23.3124127 L43.5203203,23.3124127 L38.5569363,26.1503749 C37.936228,26.5028606 37.1283945,26.2904653 36.770118,25.6758748 L36.770118,25.6758748 L34.3899757,21.5861364 C34.0271352,20.9738054 34.2439267,20.1761934 34.866917,19.8214482 L34.866917,19.8214482 Z M49.1551748,12.9895351 L49.2274132,13.1000422 L51.6144016,17.1920401 C51.9524252,17.770337 51.7810066,18.501549 51.246811,18.8848544 L51.1351783,18.9567284 L45.9207726,21.9393 C45.3345798,22.273992 44.5939498,22.1062488 44.2084502,21.5757048 L44.1362363,21.4648 L41.749248,17.3773211 C41.4112244,16.8011425 41.5806373,16.0660911 42.1164625,15.6822975 L42.2284713,15.6103733 L47.445159,12.6278017 C48.027073,12.2931097 48.7694412,12.4608529 49.1551748,12.9895351 Z M37.4975281,10.4069777 L37.5701927,10.5178582 L40.231023,15.0820966 C40.5669071,15.6603935 40.3993662,16.3935914 39.8637834,16.7752833 L39.7517997,16.8467849 L34.7861336,19.689266 C34.206359,20.0197214 33.4601132,19.8536994 33.0757668,19.3252488 L33.0038794,19.214766 L30.3384852,14.643749 C30.002601,14.0654521 30.1701419,13.3302683 30.7057248,12.95019 L30.8177084,12.8790607 L35.7879385,10.0410986 C36.3655737,9.71064324 37.1096802,9.8766653 37.4975281,10.4069777 Z M56.1419418,8.99522819 L56.2138041,9.1061076 L58.5985105,13.1981055 C58.936534,13.7764024 58.7671211,14.5115862 58.2312959,14.8953881 L58.1192872,14.9673128 L53.5347178,17.5883606 C52.9117275,17.9408464 52.402838,18.232325 52.402838,18.232325 C52.402838,18.232325 52.1490103,17.7978623 51.8240659,17.2437206 L51.7478995,17.1138606 L49.3609111,13.0241222 C49.025027,12.4458253 49.1925679,11.7106415 49.7281508,11.3268396 L49.8401344,11.2549149 L54.4315499,8.63386709 C55.0134639,8.2991751 55.7578378,8.46493236 56.1419418,8.99522819 Z M45.1114973,6.05174575 L45.1841379,6.16262571 L47.8449682,10.7268642 C48.1829917,11.3051611 48.0155845,12.0403449 47.4781297,12.4241467 L47.3657449,12.4960714 L42.1490571,15.474124 C41.5671431,15.8109343 40.8247749,15.6453095 40.4390413,15.1150219 L40.3668029,15.004143 L37.7014086,10.4399046 C37.3655244,9.85948938 37.5310597,9.12218729 38.0682722,8.73999068 L38.1806319,8.6684378 L43.3973197,5.68812567 C43.981373,5.35555199 44.723875,5.52144165 45.1114973,6.05174575 Z M52.0988266,2.0575852 L52.1714416,2.16846517 L54.8299898,6.73270361 C55.165874,7.31100053 54.9983331,8.04419841 54.4646306,8.42589026 L54.3530486,8.49739184 L49.7639151,11.1229587 C49.1820011,11.4576507 48.4376272,11.2918934 48.0535232,10.7615976 L47.9816609,10.6507182 L45.3162666,6.08422023 C44.9803824,5.50804161 45.1479234,4.77100431 45.6816259,4.38882425 L45.7932079,4.31727247 L50.3869054,1.69396513 C50.9709588,1.36139144 51.711455,1.5272811 52.0988266,2.0575852 Z" id="形状结合" fill="url(#linearGradient-4)"></path>
                                <polygon id="Fill-376" fill="#E6E7E8" points="36.6519096 28.1355926 28.1285812 13.518732 28.6397527 13.2272534 37.1630811 27.844114"></polygon>
                                <path d="M36.3242122,53.1028807 L27.9058565,53.1028807 L27.9058565,53.5954569 C27.9058565,54.212307 28.3189013,54.8268975 29.1381449,55.2968785 C30.7834782,56.234581 33.4511545,56.234581 35.0919237,55.2968785 C35.9134494,54.8268975 36.3242122,54.212307 36.3242122,53.5954569 L36.3242122,53.1028807 Z" id="Fill-380" fill="#939598"></path>
                                <path d="M35.0919237,54.8063358 C33.4511545,55.7462978 30.7834782,55.7462978 29.1381449,54.8063358 C27.4973757,53.8663739 27.4973757,52.3434547 29.1381449,51.4034927 C30.7834782,50.4612712 33.4511545,50.4612712 35.0919237,51.4034927 C36.737257,52.3434547 36.737257,53.8663739 35.0919237,54.8063358" id="Fill-382" fill="#E6E7E8"></path>
                                <path d="M35.0494782,52.0282511 L29.182416,52.0282511 L29.182416,52.864275 C29.182416,53.2981036 29.46995,53.7251536 30.0427359,54.0527846 C31.1860258,54.7103061 33.0458685,54.7103061 34.1914404,54.0527846 C34.7642263,53.7251536 35.0494782,53.2981036 35.0494782,52.864275 L35.0494782,52.0282511 Z" id="Fill-384" fill="#939598"></path>
                                <path d="M34.1914404,53.2131455 C33.0458685,53.870667 31.1860258,53.870667 30.0427359,53.2131455 C28.8948821,52.5578835 28.8948821,51.4959073 30.0427359,50.8406453 C31.1860258,50.1831238 33.0458685,50.1831238 34.1914404,50.8406453 C35.3370122,51.4959073 35.3370122,52.5578835 34.1914404,53.2131455" id="Fill-386" fill="#E6E7E8"></path>
                                <path d="M33.8482252,49.1552664 L30.3795614,49.1552664 L30.3795614,51.8870309 C30.3795614,52.1400975 30.5484306,52.3954238 30.8884509,52.5897428 C31.5662096,52.9738619 32.6661411,52.9738619 33.3416177,52.5897428 C33.6839201,52.3954238 33.8482252,52.1400975 33.8482252,51.8870309 L33.8482252,49.1552664 Z" id="Fill-388" fill="#BCBEC0"></path>
                                <path d="M33.3425305,49.8568486 C32.6647719,50.2432272 31.5671224,50.2432272 30.8893637,49.8568486 C30.2070411,49.4659509 30.2070411,48.8378032 30.8893637,48.4514246 C31.5671224,48.0627865 32.6647719,48.0627865 33.3425305,48.4514246 C34.0225712,48.8378032 34.0225712,49.4659509 33.3425305,49.8568486" id="Fill-390" fill="#E6E7E8"></path>
                                <path d="M32.8587432,41.6308256 L31.370869,41.6308256 L31.370869,49.0804761 C31.370869,49.1889333 31.4438935,49.29965 31.5899425,49.3832523 C31.8774765,49.5459381 32.3498537,49.5459381 32.6396697,49.3832523 C32.7857187,49.29965 32.8587432,49.1889333 32.8587432,49.0804761 L32.8587432,41.6308256 Z" id="Fill-392" fill="#939598"></path>
                                <path d="M32.6403543,41.9308903 C32.3505383,42.0980951 31.8781611,42.0980951 31.5906271,41.9308903 C31.2962471,41.7636856 31.2962471,41.4993213 31.5906271,41.329857 C31.8781611,41.1671712 32.3505383,41.1671712 32.6403543,41.329857 C32.9324523,41.4993213 32.9324523,41.7636856 32.6403543,41.9308903" id="Fill-394" fill="#808285"></path>
                                <polygon id="Fill-396" fill="#C6C7C9" points="22.7414269 51.7568823 20.575794 48.6093654 15.8223555 40.3779195 14.2226625 37.1377621 37.3600191 23.9127683 45.8833475 38.5296289"></polygon>
                                <polygon id="Fill-398" fill="url(#linearGradient-1)" points="23.0065971 50.7064296 15.263718 37.4339857 37.0980437 24.9568943 44.8340767 38.2270786"></polygon>
                                <path d="M25.4138954,40.8937688 C26.0323216,40.536764 26.8378732,40.7491593 27.1961496,41.3660093 L27.1961496,41.3660093 L29.5785739,45.4534882 C29.9391324,46.0703383 29.7223409,46.8656907 29.1016327,47.2204284 L29.1016327,47.2204284 L24.1382487,50.0629172 C23.5152584,50.4176624 22.7097069,50.2030076 22.3537124,49.5884171 L22.3537124,49.5884171 L19.9690061,45.5009382 C19.6084476,44.8840882 19.8252391,44.0887357 20.4482294,43.731731 L20.4482294,43.731731 Z M34.738343,36.8994456 L34.8110076,37.010325 L37.1934319,41.1023229 C37.5335949,41.6806198 37.36231,42.4158036 36.8281228,42.7996055 L36.7164907,42.8715302 L31.4998029,45.8518423 C30.9178889,46.184416 30.1755207,46.0205122 29.7879068,45.4885946 L29.7152667,45.3773423 L27.3328424,41.2876039 C26.9926794,40.7114252 27.1619586,39.9743879 27.6958951,39.5922079 L27.8075016,39.5206561 L33.0287534,36.5380845 C33.6063886,36.2033925 34.3504951,36.3691497 34.738343,36.8994456 Z M23.0751044,34.3170345 L23.1469411,34.427915 L25.8123353,38.9921534 C26.1460801,39.5704504 25.9784055,40.3056342 25.4465749,40.689436 L25.3353941,40.7613607 L20.367446,43.5993228 C19.785532,43.9318965 19.0431638,43.764021 18.6574302,43.2353304 L18.5851918,43.1248228 L15.9175155,38.5583248 C15.5837707,37.9779096 15.7514454,37.2445793 16.2870366,36.8591556 L16.3990208,36.786858 L21.3669689,33.9511554 C21.9488828,33.6207001 22.6912511,33.7867221 23.0751044,34.3170345 Z M41.7231057,32.9062557 L41.7953447,33.0163904 L44.182333,37.1106478 C44.5203566,37.6868264 44.3509437,38.4218778 43.8151185,38.8056714 L43.7031098,38.8775956 L39.1139763,41.4986434 C38.4932681,41.8533887 37.9843786,42.1448673 37.9843786,42.1448673 C37.9843786,42.1448673 37.7285832,41.7104046 37.4051849,41.1562629 L37.3294401,41.0264029 L34.9447337,36.934405 C34.6088496,36.356108 34.7743848,35.6189383 35.3097169,35.23675 L35.421675,35.1651977 L40.0108085,32.5441499 C40.5948618,32.2094579 41.3373638,32.379187 41.7231057,32.9062557 Z M30.6908065,29.9620285 L30.7633965,30.0729085 L33.4242267,34.6348874 C33.7622503,35.2153026 33.594843,35.9486329 33.0592686,36.3340566 L32.9472854,36.4063542 L27.7305977,39.3889259 C27.1508231,39.7214995 26.4045772,39.553624 26.0183505,39.0267952 L25.9460614,38.9166853 L23.2829492,34.3479279 C22.947065,33.7696309 23.114606,33.0364331 23.6501888,32.6510176 L23.7621725,32.5787206 L28.9788602,29.5984084 C29.565053,29.2658348 30.3036773,29.4317244 30.6908065,29.9620285 Z M37.6799655,25.9682409 L37.7529822,26.0787479 L40.4115304,30.6429864 C40.749554,31.2212833 40.5801411,31.9564671 40.0461962,32.340269 L39.9345891,32.4121937 L35.3431737,35.0332415 C34.7655385,35.3679335 34.0194263,35.2021762 33.633208,34.6718804 L33.5609194,34.561001 L30.8978072,29.9967625 C30.561923,29.4163473 30.7314696,28.683017 31.2654229,28.2994551 L31.3770305,28.2275552 L35.9661639,25.6065074 C36.5502173,25.2718154 37.2907136,25.4395586 37.6799655,25.9682409 Z" id="形状结合" fill="url(#linearGradient-5)"></path>
                                <polygon id="Fill-412" fill="#E6E7E8" points="22.23094 52.0436159 13.7076116 37.4290148 14.2210651 37.1375362 22.7421115 51.7566563"></polygon>
                                <path d="M63.1823953,35.9555792 L57.306205,35.9555792 L57.306205,36.7938626 C57.306205,37.2231721 57.596021,37.6502222 58.1665249,37.9801127 C59.3143788,38.6353746 61.1719395,38.6353746 62.3197934,37.9801127 C62.8925793,37.6502222 63.1823953,37.2231721 63.1823953,36.7938626 L63.1823953,35.9555792 Z" id="Fill-420" fill="#939598"></path>
                                <path d="M62.3200216,37.138214 C61.1721677,37.7957355 59.314607,37.7957355 58.1667531,37.138214 C57.0234633,36.4852116 57.0234633,35.4209758 58.1667531,34.7657138 C59.314607,34.1104519 61.1721677,34.1104519 62.3200216,34.7657138 C63.4655934,35.4209758 63.4655934,36.4852116 62.3200216,37.138214" id="Fill-422" fill="#E6E7E8"></path>
                                <path d="M61.9813705,33.0783013 L58.5081426,33.0783013 L58.5081426,35.8123254 C58.5081426,36.065392 58.6792938,36.3184587 59.0147501,36.5150373 C59.6947908,36.8991564 60.7947223,36.8991564 61.472481,36.5150373 C61.8102193,36.3184587 61.9813705,36.065392 61.9813705,35.8123254 L61.9813705,33.0783013 Z" id="Fill-424" fill="#BCBEC0"></path>
                                <path d="M61.4731656,33.7844026 C60.7954069,34.1685217 59.6954754,34.1685217 59.0154347,33.7844026 C58.3376761,33.3912454 58.3376761,32.7630977 59.0154347,32.3767191 C59.6954754,31.988081 60.7954069,31.988081 61.4731656,32.3767191 C62.1486422,32.7630977 62.1486422,33.3912454 61.4731656,33.7844026" id="Fill-426" fill="#E6E7E8"></path>
                                <path d="M60.9918885,25.5581536 L59.5017323,25.5581536 L59.5017323,33.0078042 C59.5017323,33.1140018 59.5724747,33.2247185 59.7162417,33.3083209 C60.0083397,33.4710066 60.478435,33.4710066 60.770533,33.3083209 C60.916582,33.2247185 60.9918885,33.1140018 60.9918885,33.0078042 L60.9918885,25.5581536 Z" id="Fill-428" fill="#939598"></path>
                                <path d="M60.7712176,25.8582184 C60.4791196,26.0254232 60.0090243,26.0254232 59.7169263,25.8582184 C59.4271103,25.6910136 59.4271103,25.4266493 59.7169263,25.2549255 C60.0090243,25.0899802 60.4791196,25.0899802 60.7712176,25.2549255 C61.0633156,25.4266493 61.0633156,25.6910136 60.7712176,25.8582184" id="Fill-430" fill="#808285"></path>
                                <polygon id="Fill-432" fill="#C6C7C9" points="50.8743439 35.6819508 48.704147 32.5366934 43.9507085 24.3052476 42.3487335 21.0605711 65.4883721 7.84009631 74.0139825 22.4524379"></polygon>
                                <polygon id="Fill-434" fill="url(#linearGradient-1)" points="51.1328963 34.6317241 43.3922992 21.3615397 65.2243429 8.88218877 72.9626579 22.1568922"></polygon>
                                <path d="M53.5401946,24.8188374 C54.1631849,24.4640921 54.9641724,24.6764874 55.3247308,25.2933374 L55.3247308,25.2933374 L57.7117192,29.3808163 C58.0699956,29.9976663 57.8532042,30.7930188 57.2324959,31.1455045 L57.2324959,31.1455045 L52.2645478,33.9879857 C51.6438396,34.3404714 50.8405701,34.1280762 50.4800116,33.5112261 L50.4800116,33.5112261 L48.0975873,29.4237472 C47.7415928,28.8114162 47.9538203,28.0138043 48.5745286,27.659059 L48.5745286,27.659059 Z M62.8669482,20.8267736 L62.9395888,20.937653 L65.3265772,25.029651 C65.6624614,25.6037113 65.4949204,26.3426021 64.9593376,26.7231603 L64.8473539,26.7943392 L59.6283841,29.7769108 C59.0443307,30.1116028 58.3058402,29.9438597 57.9187193,29.4151774 L57.8461299,29.3046703 L55.4614236,25.2149319 C55.1234,24.6387533 55.2908072,23.901716 55.8263817,23.5195359 L55.9383648,23.4479842 L61.1527706,20.4654125 C61.736824,20.1307205 62.4793259,20.2964778 62.8669482,20.8267736 Z M51.2055653,18.2445637 L51.2778043,18.355469 L53.9409165,22.9197075 C54.2768007,23.4937678 54.1072541,24.2326586 53.5733009,24.6132168 L53.4616933,24.6843957 L48.4960272,27.5223578 C47.9119738,27.8591681 47.1714776,27.6915573 46.7859863,27.1628833 L46.713773,27.0523768 L44.0506607,22.4813598 C43.7126372,21.9051812 43.8800444,21.1681439 44.4137386,20.7859638 L44.52532,20.7144121 L49.4932681,17.8787095 C50.0773214,17.5461358 50.8198234,17.7140113 51.2055653,18.2445637 Z M69.8514588,16.8328385 L69.9236977,16.9437184 L72.3106861,21.0357164 C72.6465702,21.611895 72.4770236,22.3489323 71.9430704,22.7329741 L71.8314628,22.8049236 L67.2446113,25.4259715 C66.6216211,25.7807167 66.1127316,26.0699358 66.1127316,26.0699358 C66.1127316,26.0699358 65.8589039,25.6354731 65.5376137,25.0795224 L65.4623571,24.9492119 L63.0730867,20.857214 C62.7372026,20.2831537 62.9067492,19.5462487 63.4407024,19.164077 L63.55231,19.0925257 L68.1391615,16.4692184 C68.7232148,16.1366447 69.4657168,16.3025344 69.8514588,16.8328385 Z M58.8191339,13.8858584 L58.8917495,13.9959434 L61.5525797,18.5624414 C61.8927427,19.1428566 61.7234635,19.8761869 61.1857663,20.2616106 L61.0733564,20.3339082 L55.8612327,23.3164799 C55.2771793,23.6469353 54.5326717,23.4809132 54.146679,22.9543244 L54.0744145,22.8442394 L51.4113022,18.2754819 C51.0732786,17.6950666 51.2446972,16.9637223 51.7770125,16.5785468 L51.8882435,16.5062746 L57.1049312,13.5237029 C57.691124,13.1932476 58.431754,13.3592696 58.8191339,13.8858584 Z M65.8067886,9.89519549 L65.8790532,10.006076 L68.5398834,14.5703144 C68.8757676,15.1486114 68.7082266,15.8837952 68.1726438,16.267597 L68.0606601,16.3395217 L63.4738087,18.9605695 C62.8897553,19.2910249 62.1472534,19.1269888 61.7615114,18.5969246 L61.6892725,18.4860695 L59.0261602,13.9218311 C58.690276,13.3435341 58.857817,12.6083504 59.3933998,12.2264103 L59.5053835,12.1548833 L64.0922349,9.52931644 C64.6762883,9.19886106 65.4207959,9.36488311 65.8067886,9.89519549 Z" id="形状结合" fill="url(#linearGradient-6)"></path>
                                <polygon id="Fill-448" fill="#E6E7E8" points="50.3618032 35.9686844 41.8384748 21.3540833 42.3473643 21.0603452 50.8752567 35.6817249"></polygon>
                                <path d="M50.3170757,61.1015956 L41.896438,61.1015956 L41.896438,61.5919123 C41.896438,62.2087624 42.3072008,62.8256124 43.1310084,63.2933339 C44.7763417,64.2355554 47.439454,64.2355554 49.0825052,63.2933339 C49.9063129,62.8256124 50.3170757,62.2087624 50.3170757,61.5919123 L50.3170757,61.1015956 Z" id="Fill-452" fill="#939598"></path>
                                <path d="M49.0825052,62.8073103 C47.439454,63.7450127 44.7763417,63.7450127 43.1310084,62.8073103 C41.4879572,61.8650888 41.4879572,60.3421696 43.1310084,59.3999481 C44.7763417,58.4622456 47.439454,58.4622456 49.0825052,59.3999481 C50.7301205,60.3421696 50.7301205,61.8650888 49.0825052,62.8073103" id="Fill-454" fill="#E6E7E8"></path>
                                <path d="M49.0423418,60.026966 L43.1707155,60.026966 L43.1707155,60.8652494 C43.1707155,61.294559 43.4559675,61.721609 44.0310354,62.0514995 C45.1788893,62.7067614 47.03645,62.7067614 48.1820219,62.0514995 C48.7548078,61.721609 49.0423418,61.294559 49.0423418,60.8652494 L49.0423418,60.026966 Z" id="Fill-456" fill="#939598"></path>
                                <path d="M48.1822501,61.2141199 C47.0366782,61.8693819 45.1791175,61.8693819 44.0312636,61.2141199 C42.8856918,60.558858 42.8856918,59.4968817 44.0312636,58.8371007 C45.1791175,58.1818387 47.0366782,58.1818387 48.1822501,58.8371007 C49.3278219,59.4968817 49.3278219,60.558858 48.1822501,61.2141199" id="Fill-458" fill="#E6E7E8"></path>
                                <path d="M47.8413169,57.1496882 L44.3703711,57.1496882 L44.3703711,59.8837122 C44.3703711,60.1390384 44.5415223,60.3898456 44.8769786,60.5864241 C45.5570193,60.9728027 46.6523868,60.9728027 47.3347095,60.5864241 C47.6747298,60.3898456 47.8413169,60.1390384 47.8413169,59.8837122 L47.8413169,57.1496882 Z" id="Fill-460" fill="#BCBEC0"></path>
                                <path d="M47.3353941,57.8535299 C46.6530714,58.242168 45.5577039,58.242168 44.8776632,57.8535299 C44.1999046,57.4648918 44.1999046,56.8367441 44.8776632,56.448106 C45.5577039,56.0617274 46.6530714,56.0617274 47.3353941,56.448106 C48.0131527,56.8367441 48.0131527,57.4648918 47.3353941,57.8535299" id="Fill-462" fill="#E6E7E8"></path>
                                <path d="M46.8495529,49.6318 L45.3616787,49.6318 L45.3616787,57.079191 C45.3616787,57.1899077 45.4347032,57.2961053 45.5784702,57.3842268 C45.8682862,57.544653 46.3406634,57.544653 46.6304794,57.3842268 C46.7788104,57.2961053 46.8495529,57.1899077 46.8495529,57.079191 L46.8495529,49.6318 Z" id="Fill-464" fill="#939598"></path>
                                <path d="M46.631164,49.9318648 C46.341348,50.09681 45.8689708,50.09681 45.5791548,49.9318648 C45.2870568,49.7624005 45.2870568,49.4980362 45.5791548,49.3263123 C45.8689708,49.1636266 46.341348,49.1636266 46.631164,49.3263123 C46.9255441,49.4980362 46.9255441,49.7624005 46.631164,49.9318648" id="Fill-466" fill="#808285"></path>
                                <polygon id="Fill-468" fill="#C6C7C9" points="36.7342904 59.7533377 34.5663755 56.6103398 29.815219 48.3788939 28.213244 45.1342175 51.3483186 31.9092236 59.873929 46.5260843"></polygon>
                                <polygon id="Fill-470" fill="url(#linearGradient-3)" points="36.9971786 58.7051445 29.2565815 45.4327006 51.0886252 32.9556092 58.8223762 46.2303126"></polygon>
                                <path d="M39.4024231,48.8902242 C40.0231313,48.5354789 40.8264008,48.7501337 41.1869593,49.3669838 L41.1869593,49.3669838 L43.5716657,53.4544626 C43.9322241,54.0713127 43.7154326,54.8666651 43.0924424,55.2191509 L43.0924424,55.2191509 L38.1290584,58.0593725 C37.5083501,58.4118583 36.7005166,58.199463 36.3422401,57.582613 L36.3422401,57.582613 L33.9620978,53.4951341 C33.5992573,52.8828031 33.8160488,52.0851911 34.4390391,51.7304458 L34.4390391,51.7304458 Z M48.7272718,44.8985571 L48.7995353,45.0090399 L51.1865237,49.1010378 C51.5224078,49.6793347 51.3528612,50.4145185 50.8170277,50.7964586 L50.7050184,50.8679855 L45.4928946,53.8505572 C44.9067019,54.1810126 44.1640662,54.0149905 43.7801962,53.4884017 L43.7083584,53.3783167 L41.32137,49.2885783 C40.9833465,48.7102814 41.1527594,47.9770835 41.6885846,47.591668 L41.8005933,47.519371 L47.0172811,44.5345398 C47.5970557,44.2040844 48.3412959,44.3701065 48.7272718,44.8985571 Z M37.0677699,42.3181852 L37.1400328,42.4291154 L39.803145,46.9910943 C40.1390292,47.5672729 39.9714883,48.3043102 39.4359054,48.6864903 L39.3239217,48.7580421 L34.3582557,51.5960042 C33.7784811,51.9328145 33.0322353,51.7632178 32.6478889,51.2342955 L32.5760015,51.1237637 L29.9106072,46.5550062 C29.574723,45.9767093 29.742264,45.2415255 30.2778468,44.8595854 L30.3898305,44.7880584 L35.3600606,41.9523558 C35.9376958,41.6176638 36.6818023,41.7873929 37.0677699,42.3181852 Z M55.7140639,40.9046225 L55.7859262,41.0151053 L58.1706325,45.1093627 C58.5086561,45.6876596 58.3392432,46.4228434 57.803418,46.8029217 L57.6914092,46.874051 L53.1068398,49.4973583 C52.5227864,49.8320503 51.7802845,49.6643071 51.3926622,49.133763 L51.3200216,49.0228583 L48.9330332,44.9308603 C48.597149,44.3568 48.76469,43.6198951 49.3002728,43.2339997 L49.4122565,43.1616531 L54.003672,40.5406052 C54.585586,40.2101499 55.3299599,40.3761719 55.7140639,40.9046225 Z M44.681739,37.9587104 L44.753978,38.0695898 L47.4170902,42.6360878 C47.7551138,43.2122664 47.5877065,43.9493037 47.0502518,44.3314838 L46.9378669,44.4030355 L41.7211792,47.3856072 C41.1392652,47.7202992 40.396897,47.5545419 40.0111633,47.0242461 L39.938925,46.9133667 L37.2735307,42.3468687 C36.9376465,41.7685718 37.1031818,41.033388 37.6403942,40.6495861 L37.752754,40.5776614 L42.9694417,37.5973493 C43.5534951,37.2626573 44.295997,37.4284146 44.681739,37.9587104 Z M51.6690433,33.9672066 L51.7412817,34.0776888 L54.4021119,38.6441868 C54.7379961,39.2224837 54.5684494,39.9556816 54.0363766,40.3373734 L53.9251706,40.408875 L49.3360372,43.0299228 C48.7519838,43.3646148 48.0094819,43.1988575 47.6256202,42.6685617 L47.553783,42.5576823 L44.8861067,37.9934438 C44.5523619,37.4151469 44.7200366,36.6799631 45.2537474,36.2961613 L45.36533,36.2242366 L49.9590274,33.6054483 C50.5409414,33.2728746 51.2833096,33.4387643 51.6690433,33.9672066 Z" id="形状结合" fill="url(#linearGradient-7)"></path>
                                <polygon id="Fill-484" fill="#E6E7E8" points="36.2240317 60.0423308 27.7007033 45.4277297 28.2118748 45.1339915 36.7352032 59.7531117"></polygon>
                                <path d="M78.4433749,45.0266641 L70.0250192,45.0266641 L70.0250192,45.5192404 C70.0250192,46.1360904 70.438064,46.7529405 71.2573076,47.2206619 C72.9003589,48.1606239 75.5680352,48.1606239 77.2156505,47.2206619 C78.0326121,46.7529405 78.4433749,46.1360904 78.4433749,45.5192404 L78.4433749,45.0266641 Z" id="Fill-488" fill="#939598"></path>
                                <path d="M77.2154223,46.7301193 C75.567807,47.6723408 72.9001307,47.6723408 71.2570794,46.7301193 C69.6140282,45.7878978 69.6140282,44.2672381 71.2570794,43.3272762 C72.9001307,42.3873142 75.567807,42.3873142 77.2154223,43.3272762 C78.8561915,44.2672381 78.8561915,45.7878978 77.2154223,46.7301193" id="Fill-490" fill="#E6E7E8"></path>
                                <path d="M77.170923,43.9542941 L71.2992967,43.9542941 L71.2992967,44.7903179 C71.2992967,45.221887 71.5868307,45.6489371 72.1596166,45.9788276 C73.3051885,46.63183 75.1627492,46.63183 76.3106031,45.9788276 C76.883389,45.6489371 77.170923,45.221887 77.170923,44.7903179 L77.170923,43.9542941 Z" id="Fill-492" fill="#939598"></path>
                                <path d="M76.3108313,45.1391884 C75.1629774,45.7921909 73.3054167,45.7921909 72.1598448,45.1391884 C71.016555,44.4839265 71.016555,43.4196907 72.1598448,42.7644287 C73.3054167,42.1091668 75.1629774,42.1091668 76.3108313,42.7644287 C77.4564031,43.4196907 77.4564031,44.481667 76.3108313,45.1391884" id="Fill-494" fill="#E6E7E8"></path>
                                <path d="M75.971952,41.0792758 L72.5010062,41.0792758 L72.5010062,43.8110402 C72.5010062,44.0641069 72.6698753,44.3194331 73.0076136,44.5137522 C73.6830903,44.8978713 74.7853038,44.8978713 75.4607804,44.5137522 C75.8030828,44.3194331 75.971952,44.0641069 75.971952,43.8110402 L75.971952,41.0792758 Z" id="Fill-496" fill="#BCBEC0"></path>
                                <path d="M75.4616933,41.7808579 C74.7862166,42.1672365 73.6840031,42.1672365 73.0085264,41.7808579 C72.3284858,41.3922198 72.3284858,40.7618126 73.0085264,40.375434 C73.6840031,39.9890554 74.7862166,39.9890554 75.4616933,40.375434 C76.1417339,40.7618126 76.1417339,41.3922198 75.4616933,41.7808579" id="Fill-498" fill="#E6E7E8"></path>
                                <path d="M74.9804162,33.5548349 L73.4902599,33.5548349 L73.4902599,41.006745 C73.4902599,41.1129427 73.5632844,41.2213998 73.7047694,41.3072617 C74.0014314,41.472207 74.4692447,41.472207 74.7590606,41.3072617 C74.9073917,41.2213998 74.9804162,41.1129427 74.9804162,41.006745 L74.9804162,33.5548349 Z" id="Fill-500" fill="#939598"></path>
                                <path d="M74.7597452,33.8548997 C74.4699293,34.024364 74.0021161,34.024364 73.705454,33.8548997 C73.415638,33.692214 73.415638,33.4233306 73.705454,33.2538663 C74.0021161,33.0889211 74.4699293,33.0889211 74.7597452,33.2538663 C75.0518432,33.4233306 75.0518432,33.692214 74.7597452,33.8548997" id="Fill-502" fill="#808285"></path>
                                <polygon id="Fill-504" fill="#C6C7C9" points="64.8649254 43.6786321 62.6970106 40.5356343 57.94129 32.3064479 56.339315 29.0617715 79.4789536 15.8367776 88 30.4513788"></polygon>
                                <polygon id="Fill-506" fill="url(#linearGradient-8)" points="65.1257598 42.6326985 57.3851627 29.3602546 79.2172064 16.8831632 86.9532394 30.1533475"></polygon>
                                <path d="M67.5307761,32.8177782 C68.1514843,32.4607734 68.9570359,32.6731687 69.3175943,33.2900187 L69.3175943,33.2900187 L71.7023007,37.3820167 C72.0582951,37.9943477 71.8415036,38.7919596 71.2253594,39.1467049 L71.2253594,39.1467049 L66.2551293,41.984667 C65.6344211,42.3416718 64.8334336,42.1292765 64.4728751,41.5124265 L64.4728751,41.5124265 L62.0881688,37.4226881 C61.7298923,36.8080976 61.9444018,36.0127451 62.5673921,35.6557403 L62.5673921,35.6557403 Z M76.8579063,28.825488 L76.9301703,28.9363679 L79.3148767,33.0306254 C79.6507608,33.6046857 79.4832199,34.3396047 78.9495174,34.72339 L78.8379354,34.7953136 L73.6189656,37.7756257 C73.0370516,38.1081994 72.2946834,37.9442957 71.9070695,37.412378 L71.8344294,37.3011257 L69.4520051,33.2113873 C69.1161209,32.6352087 69.2836618,31.9021432 69.815484,31.516736 L69.9266643,31.4444395 L75.1456341,28.4618679 C75.7275481,28.1292942 76.471922,28.2951839 76.8579063,28.825488 Z M65.1984032,26.241045 L65.2706678,26.3519244 L67.929216,30.9161628 C68.2672396,31.4944598 68.0978267,32.2296435 67.5657621,32.6134454 L67.4545568,32.6853701 L62.4888907,35.5233322 C61.9048374,35.8580242 61.1643411,35.692267 60.7750892,35.1619711 L60.7020725,35.0510917 L58.0412422,30.4778152 C57.7010793,29.9037549 57.8703585,29.16685 58.404295,28.7846782 L58.5159015,28.713127 L63.4838496,25.8796839 C64.0679029,25.5449919 64.8124105,25.7107492 65.1984032,26.241045 Z M83.8422941,24.8302651 L83.9145074,24.9403998 L86.2992137,29.0346572 C86.6393767,29.6108358 86.4700975,30.3458872 85.936161,30.7296808 L85.8245545,30.801605 L81.233139,33.4226528 C80.6147128,33.7796576 80.1012593,34.0666171 80.1012593,34.0666171 C80.1012593,34.0666171 79.8493992,33.636051 79.5265631,33.0806569 L79.4508848,32.9504123 L77.0661785,28.8584143 C76.7281549,28.2801174 76.8975678,27.5449336 77.4296323,27.1611318 L77.5408377,27.0892071 L82.1322532,24.4681592 C82.7163066,24.1334673 83.4568028,24.3031963 83.8422941,24.8302651 Z M72.8103453,21.8860385 L72.8825592,21.9969179 L75.5433894,26.5634158 C75.881413,27.1395945 75.7120001,27.8726599 75.1780552,28.2580671 L75.0664481,28.3303636 L69.8497604,31.3129352 C69.2678463,31.6476272 68.5214668,31.48187 68.1371121,30.9515741 L68.0652242,30.8406947 L65.4021119,26.2741968 C65.0662277,25.6937815 65.2357744,24.9604513 65.7678473,24.5768894 L65.8790532,24.5049895 L71.0980229,21.5246774 C71.6842157,21.1899854 72.4248457,21.3557426 72.8103453,21.8860385 Z M79.7976239,17.8926723 L79.8698629,18.0027573 L82.5329751,22.5715148 C82.8667199,23.1455751 82.6990452,23.88248 82.1634541,24.2646518 L82.0514698,24.336203 L77.4646184,26.9572509 C76.8827044,27.2919429 76.1363248,27.1261856 75.7500898,26.5958898 L75.6778001,26.4850104 L73.0192519,21.9185124 C72.6812283,21.3423338 72.8486356,20.6072824 73.3842101,20.2234888 L73.4961932,20.1515646 L78.0853266,17.5305168 C78.66938,17.2000614 79.4118819,17.3660835 79.7976239,17.8926723 Z" id="形状结合" fill="url(#linearGradient-9)"></path>
                                <polygon id="Fill-520" fill="#E6E7E8" points="64.3523847 43.9698848 55.8267743 29.3530241 56.3379458 29.0615455 64.8658382 43.6784062"></polygon>
                            </g>
                        </g>
                    </g>
                </g>
            </g>
        </g>
    </g>
</svg>