<?xml version="1.0" encoding="UTF-8"?>
<svg width="42px" height="42px" viewBox="0 0 42 42" version="1.1" xmlns="http://www.w3.org/2000/svg" xmlns:xlink="http://www.w3.org/1999/xlink">
    <title>icon_小标题</title>
    <defs>
        <filter x="-109.4%" y="-109.4%" width="318.8%" height="318.8%" filterUnits="objectBoundingBox" id="filter-1">
            <feOffset dx="0" dy="0" in="SourceAlpha" result="shadowOffsetOuter1"></feOffset>
            <feGaussianBlur stdDeviation="4.5" in="shadowOffsetOuter1" result="shadowBlurOuter1"></feGaussianBlur>
            <feColorMatrix values="0 0 0 0 0.20784314   0 0 0 0 0.729411781   0 0 0 0 1  0 0 0 0.800000012 0" type="matrix" in="shadowBlurOuter1" result="shadowMatrixOuter1"></feColorMatrix>
            <feMerge>
                <feMergeNode in="shadowMatrixOuter1"></feMergeNode>
                <feMergeNode in="SourceGraphic"></feMergeNode>
            </feMerge>
        </filter>
        <linearGradient x1="50%" y1="0%" x2="50%" y2="99.9997%" id="linearGradient-2">
            <stop stop-color="#E2FCFF" offset="0%"></stop>
            <stop stop-color="#159AFF" offset="100%"></stop>
        </linearGradient>
    </defs>
    <g id="能源云系统V1.0" stroke="none" stroke-width="1" fill="none" fill-rule="evenodd">
        <g id="1_1.站控系统（站点）首页全屏展示" transform="translate(-11.000000, -71.000000)">
            <g id="左边G1" transform="translate(24.000000, 80.000000)">
                <g id="icon_小标题" filter="url(#filter-1)" transform="translate(0.000000, 4.000000)">
                    <rect id="矩形" x="0" y="0" width="16" height="16"></rect>
                    <g id="g" fill="url(#linearGradient-2)">
                        <path d="M14.168352,10.879781 C15.1739627,11.4486926 15.676768,11.7331483 15.676768,11.7331483 C16.107744,11.7331483 16.107744,12.1598371 15.676768,12.3731789 C11.1617712,14.5404673 8.79677284,15.6757137 8.58177299,15.7789179 L8.565648,15.7866582 C8.350176,16 8.134672,16 7.9192,16 C7.703696,16 7.488208,15.7866582 7.27272,15.7866582 C2.531984,13.5110053 0.161616,12.3731789 0.161616,12.3731789 C-0.053872,12.1598371 -0.053872,11.7331483 0.161616,11.7331483 C0.736250667,11.4486926 1.11934044,11.2590554 1.31088533,11.1642368 L1.40282688,11.1187239 C1.43730496,11.1016565 1.454544,11.0931229 1.454544,11.0931229 C1.88552,10.879781 1.88552,10.879781 2.101008,11.0931229 C2.30343612,11.0931229 6.68937875,13.1640515 7.22026462,13.4150731 L7.27272,13.439888 C7.488208,13.6532349 7.703696,13.6532349 7.9192,13.6532349 C8.134672,13.6532349 8.565664,13.439888 8.565664,13.439888 C8.565664,13.439888 9.63419954,12.9550191 10.7998747,12.4060355 L11.2690229,12.1840199 C12.52162,11.588179 13.737376,10.9832195 13.737376,10.879781 L13.737376,10.879781 Z M2.101008,6.82614142 C2.30343612,6.82614142 6.68937875,8.89707486 7.22026462,9.14809709 L7.27272,9.17291199 L7.27272,9.17291199 C7.488208,9.38625154 7.703696,9.38625154 7.9192,9.38625154 L8.565664,9.38625154 C8.565664,9.38625154 9.63419954,8.90138264 10.7998747,8.35239862 L11.2690229,8.13038288 C12.4619725,7.56291488 13.6215062,6.98717582 13.7292328,6.8442751 L13.737376,6.82614142 L14.168352,6.82614142 C15.1739627,7.39505703 15.676768,7.67951484 15.676768,7.67951484 C16.107744,7.67951484 16.107744,8.10619901 15.676768,8.10619901 C11.2746461,10.2193047 8.9163665,11.3513257 8.60192922,11.5022618 L8.565648,11.5196775 C8.350176,11.733017 8.134672,11.733017 7.9192,11.733017 C7.703696,11.733017 7.488208,11.5196775 7.27272,11.5196775 C2.870608,9.40657177 0.512333714,8.27455084 0.197897143,8.12361472 L0.161616,8.10619901 C-0.053872,8.10619901 -0.053872,7.67951484 0.161616,7.46617021 C0.736250667,7.18171297 1.11934044,6.99207481 1.31088533,6.89725573 L1.40282688,6.85174257 C1.43730496,6.83467513 1.454544,6.82614142 1.454544,6.82614142 C1.88552,6.61280186 1.88552,6.61280186 2.101008,6.82614142 Z M8.01154696,-4.20323498e-15 C8.19624424,0.00373198265 8.38096,0.0298558612 8.565664,0.212723011 C13.3064,2.34614749 15.676768,3.41285973 15.676768,3.41285973 C16.107744,3.62619706 16.107744,3.83954206 15.676768,4.05288707 C11.2746461,6.16599005 8.9163665,7.29800951 8.60192922,7.44894543 L8.56967925,7.46442604 C8.350176,7.67973685 8.134672,7.67973685 7.9192,7.67973685 C7.703696,7.67973685 7.488208,7.46636112 7.27272,7.46636112 C2.75773333,5.29907601 0.392740317,4.16383143 0.177740952,4.06062738 L0.161616,4.05288707 C-0.053872,4.05288707 -0.053872,3.62619706 0.161616,3.41285973 C4.902352,1.27943525 7.27272,0.212723011 7.27272,0.212723011 C7.457424,0.0298558612 7.642128,0.00373198265 7.82684208,-4.30120177e-15 L8.01154696,-4.20323498e-15 Z" id="形状结合"></path>
                    </g>
                </g>
            </g>
        </g>
    </g>
</svg>