<?xml version="1.0" encoding="UTF-8"?>
<svg width="218px" height="160px" viewBox="0 0 218 160" version="1.1" xmlns="http://www.w3.org/2000/svg" xmlns:xlink="http://www.w3.org/1999/xlink">
    <title>icon_风机EN</title>
    <defs>
        <filter x="-4.1%" y="-7.2%" width="108.3%" height="114.4%" filterUnits="objectBoundingBox" id="filter-1">
            <feGaussianBlur stdDeviation="2.75726967" in="SourceGraphic"></feGaussianBlur>
        </filter>
        <linearGradient x1="57.6119%" y1="35.5124963%" x2="32.3596%" y2="66.6848673%" id="linearGradient-2">
            <stop stop-color="#1463AC" offset="0%"></stop>
            <stop stop-color="#0E3962" offset="100%"></stop>
        </linearGradient>
        <linearGradient x1="0%" y1="33.5951398%" x2="100%" y2="73.0911919%" id="linearGradient-3">
            <stop stop-color="#074989" offset="0%"></stop>
            <stop stop-color="#052C52" offset="99.6273935%"></stop>
        </linearGradient>
        <linearGradient x1="77.3038%" y1="116.462426%" x2="-58422.7173%" y2="-27636.173%" id="linearGradient-4">
            <stop stop-color="#006AB4" offset="0%"></stop>
            <stop stop-color="#003364" offset="100%"></stop>
        </linearGradient>
        <linearGradient x1="94.6053%" y1="43.1644343%" x2="4.6801%" y2="40.3344315%" id="linearGradient-5">
            <stop stop-color="#0C3257" offset="0%"></stop>
            <stop stop-color="#1969B5" offset="100%"></stop>
        </linearGradient>
        <linearGradient x1="100%" y1="50%" x2="-4.35%" y2="50.9647095%" id="linearGradient-6">
            <stop stop-color="#4AAEDB" offset="1.08529637%"></stop>
            <stop stop-color="#3DAAF8" stop-opacity="0" offset="100%"></stop>
        </linearGradient>
        <polygon id="path-7" points="0.155031189 57.5704276 99.9062054 0 199.90747 57.8195924 99.9062054 115.140855"></polygon>
        <filter x="-3.8%" y="-6.5%" width="107.5%" height="113.0%" filterUnits="objectBoundingBox" id="filter-8">
            <feGaussianBlur stdDeviation="7.5" in="SourceAlpha" result="shadowBlurInner1"></feGaussianBlur>
            <feOffset dx="0" dy="0" in="shadowBlurInner1" result="shadowOffsetInner1"></feOffset>
            <feComposite in="shadowOffsetInner1" in2="SourceAlpha" operator="arithmetic" k2="-1" k3="1" result="shadowInnerInner1"></feComposite>
            <feColorMatrix values="0 0 0 0 0.0392156877   0 0 0 0 0.53725493   0 0 0 0 1  0 0 0 0.600000024 0" type="matrix" in="shadowInnerInner1"></feColorMatrix>
        </filter>
        <filter x="-5.5%" y="-9.1%" width="111.0%" height="118.2%" filterUnits="objectBoundingBox" id="filter-9">
            <feGaussianBlur stdDeviation="1.83817978" in="SourceGraphic"></feGaussianBlur>
        </filter>
        <linearGradient x1="0.0101%" y1="50.0143%" x2="100.0123%" y2="50.0143%" id="linearGradient-10">
            <stop stop-color="#04335F" offset="0%"></stop>
            <stop stop-color="#04335F" offset="0.999999978%"></stop>
            <stop stop-color="#379BFA" offset="49.3999988%"></stop>
            <stop stop-color="#3699F7" offset="50.1999974%"></stop>
            <stop stop-color="#002141" offset="100%"></stop>
        </linearGradient>
        <linearGradient x1="171.4276%" y1="217.217867%" x2="-40070.9869%" y2="-35987.3457%" id="linearGradient-11">
            <stop stop-color="#2071BE" offset="0%"></stop>
            <stop stop-color="#2071BE" offset="0.999999978%"></stop>
            <stop stop-color="#002141" offset="100%"></stop>
        </linearGradient>
        <linearGradient x1="71.1766%" y1="68.2236264%" x2="28.7855%" y2="31.8004857%" id="linearGradient-12">
            <stop stop-color="#2071BE" offset="0%"></stop>
            <stop stop-color="#2071BE" offset="0.999999978%"></stop>
            <stop stop-color="#002141" offset="100%"></stop>
        </linearGradient>
        <linearGradient x1="50.0142%" y1="99.9938%" x2="50.0142%" y2="-0.0062%" id="linearGradient-13">
            <stop stop-color="#00DCFF" offset="0%"></stop>
            <stop stop-color="#014380" offset="100%"></stop>
        </linearGradient>
        <linearGradient x1="64.3034243%" y1="99.9736%" x2="35.8847583%" y2="0.2899%" id="linearGradient-14">
            <stop stop-color="#00F7AA" offset="0%"></stop>
            <stop stop-color="#00F7AA" offset="2.19999999%"></stop>
            <stop stop-color="#FFFFFF" offset="100%"></stop>
        </linearGradient>
        <linearGradient x1="64.9763258%" y1="99.9747%" x2="35.2112048%" y2="0.2907%" id="linearGradient-15">
            <stop stop-color="#00EAFF" offset="0%"></stop>
            <stop stop-color="#00EAFF" offset="1.79999992%"></stop>
            <stop stop-color="#FFFFFF" offset="100%"></stop>
        </linearGradient>
        <linearGradient x1="68.5195616%" y1="99.9785%" x2="31.6673577%" y2="0.2948%" id="linearGradient-16">
            <stop stop-color="#DFE620" offset="0%"></stop>
            <stop stop-color="#FFFFFF" offset="100%"></stop>
        </linearGradient>
        <linearGradient x1="84.9297%" y1="55.7140538%" x2="34.0261%" y2="37.9550466%" id="linearGradient-17">
            <stop stop-color="#101826" stop-opacity="0" offset="0%"></stop>
            <stop stop-color="#00FFAF" offset="100%"></stop>
        </linearGradient>
        <linearGradient x1="100%" y1="50%" x2="34.0261%" y2="37.9550466%" id="linearGradient-18">
            <stop stop-color="#101826" stop-opacity="0" offset="0%"></stop>
            <stop stop-color="#00FCFF" offset="100%"></stop>
        </linearGradient>
        <linearGradient x1="87.152%" y1="50%" x2="34.0261%" y2="37.9550466%" id="linearGradient-19">
            <stop stop-color="#101826" stop-opacity="0" offset="0%"></stop>
            <stop stop-color="#FFF600" offset="100%"></stop>
        </linearGradient>
        <linearGradient x1="50.0234%" y1="100.0006%" x2="50.0234%" y2="0.0123%" id="linearGradient-20">
            <stop stop-color="#2071BE" offset="0%"></stop>
            <stop stop-color="#2071BE" offset="0.999999978%"></stop>
            <stop stop-color="#002141" offset="100%"></stop>
        </linearGradient>
        <linearGradient x1="50.0234%" y1="100.0053%" x2="50.0234%" y2="0.0209%" id="linearGradient-21">
            <stop stop-color="#48A6FF" offset="0%"></stop>
            <stop stop-color="#18598D" offset="100%"></stop>
        </linearGradient>
        <linearGradient x1="50.0234%" y1="100.0053%" x2="50.0234%" y2="0.0209%" id="linearGradient-22">
            <stop stop-color="#399CFF" offset="0.763358781%"></stop>
            <stop stop-color="#033863" offset="100%"></stop>
        </linearGradient>
        <linearGradient x1="50.0072%" y1="100.0316%" x2="50.0072%" y2="0.0968%" id="linearGradient-23">
            <stop stop-color="#074784" offset="0%"></stop>
            <stop stop-color="#074784" offset="0.999999978%"></stop>
            <stop stop-color="#002141" offset="100%"></stop>
        </linearGradient>
        <linearGradient x1="50.0072%" y1="100.0523%" x2="50.0072%" y2="0.0995%" id="linearGradient-24">
            <stop stop-color="#3C84C8" offset="0%"></stop>
            <stop stop-color="#18598D" offset="100%"></stop>
        </linearGradient>
        <linearGradient x1="50.0072%" y1="100.0523%" x2="50.0072%" y2="0.0995%" id="linearGradient-25">
            <stop stop-color="#00F6FF" offset="0%"></stop>
            <stop stop-color="#18598D" offset="100%"></stop>
        </linearGradient>
        <linearGradient x1="49.9832%" y1="100.0241%" x2="49.9832%" y2="0%" id="linearGradient-26">
            <stop stop-color="#00CCFF" offset="0%"></stop>
            <stop stop-color="#0E1624" stop-opacity="0" offset="100%"></stop>
        </linearGradient>
        <filter x="-41.6%" y="-74.8%" width="183.2%" height="249.5%" filterUnits="objectBoundingBox" id="filter-27">
            <feGaussianBlur stdDeviation="2.04773259" in="SourceGraphic"></feGaussianBlur>
        </filter>
        <path d="M0.00350556998,0 C0.00140836616,0.863423381 0.571847805,1.72754476 1.71342575,2.38645476 C3.98399842,3.69520079 7.6541051,3.69520079 9.90859921,2.38715276 C11.0292051,1.73661873 11.5898576,0.886457311 11.5919548,0.0342018962 L11.5919548,0.0342018962 L11.5884595,1.33526995 C11.5856632,2.18752536 11.0250107,3.03768678 9.90510387,3.68752281 C7.64991069,4.99626884 3.98050308,4.99626884 1.70993041,3.68682481 C0.567653397,3.02861281 -0.00278604148,2.16449143 0,1.30106805 L0,1.30106805" id="path-28"></path>
        <linearGradient x1="100%" y1="52.7860717%" x2="0%" y2="53.0023741%" id="linearGradient-30">
            <stop stop-color="#18689C" offset="0%"></stop>
            <stop stop-color="#66C1FD" offset="48.9383042%"></stop>
            <stop stop-color="#18689C" offset="100%"></stop>
        </linearGradient>
        <linearGradient x1="50%" y1="0%" x2="50%" y2="100%" id="linearGradient-31">
            <stop stop-color="#338DC5" offset="0%"></stop>
            <stop stop-color="#90D3FF" offset="100%"></stop>
        </linearGradient>
        <linearGradient x1="50%" y1="0%" x2="50%" y2="100%" id="linearGradient-32">
            <stop stop-color="#5BABDE" stop-opacity="0" offset="0%"></stop>
            <stop stop-color="#AFE0FF" offset="100%"></stop>
        </linearGradient>
        <path d="M9.88042677,0.98129779 C12.1509994,2.29004382 12.1642817,4.41195738 9.90838949,5.72070341 C7.65389538,7.02944944 3.98448777,7.02944944 1.7139151,5.72000541 C-0.555958502,4.41195738 -0.567842657,2.28934582 1.68665145,0.98129779 C3.94254369,-0.327448239 7.61125224,-0.326750241 9.88042677,0.98129779" id="path-33"></path>
        <filter x="-65.6%" y="-113.4%" width="231.2%" height="326.8%" filterUnits="objectBoundingBox" id="filter-34">
            <feGaussianBlur stdDeviation="7.5" in="SourceAlpha" result="shadowBlurInner1"></feGaussianBlur>
            <feOffset dx="0" dy="0" in="shadowBlurInner1" result="shadowOffsetInner1"></feOffset>
            <feComposite in="shadowOffsetInner1" in2="SourceAlpha" operator="arithmetic" k2="-1" k3="1" result="shadowInnerInner1"></feComposite>
            <feColorMatrix values="0 0 0 0 0.235294119   0 0 0 0 0.68235296   0 0 0 0 0.992156863  0 0 0 1 0" type="matrix" in="shadowInnerInner1"></feColorMatrix>
        </filter>
        <path d="M0.00489898002,0 L0.00946535417,0.0925878147 C0.0466403681,0.462640431 0.310714316,0.827020106 0.801137363,1.11051463 L0.801137363,1.11051463 L0.949100923,1.18983113 C2.01144929,1.71860779 3.61434563,1.69216896 4.61595111,1.11051463 L4.61595111,1.11051463 L4.73167024,1.03913871 C5.1760369,0.747287271 5.39831568,0.381321612 5.39960627,0.0153559534 L5.39960627,0.0153559534 L5.39471279,5.4045976 L5.38978559,5.49604645 C5.351656,5.86150123 5.09244657,6.22082559 4.61105763,6.50045428 L4.61105763,6.50045428 L4.46391716,6.57967992 C3.40708499,7.10785088 1.80452229,7.08144233 0.796243888,6.50045428 L0.796243888,6.50045428 L0.678067677,6.42792731 C0.224369085,6.13138274 -0.00128508252,5.75971745 0,5.38924165 L0,5.38924165 L0.00489898002,0 Z" id="path-35"></path>
        <linearGradient x1="80.1201454%" y1="67.1735%" x2="19.8798546%" y2="68.5068%" id="linearGradient-37">
            <stop stop-color="#1A73AD" offset="0%"></stop>
            <stop stop-color="#66C1FD" offset="48.9383042%"></stop>
            <stop stop-color="#18689C" offset="100%"></stop>
        </linearGradient>
        <linearGradient x1="50%" y1="0%" x2="50%" y2="100%" id="linearGradient-38">
            <stop stop-color="#338DC5" offset="0%"></stop>
            <stop stop-color="#90D3FF" offset="100%"></stop>
        </linearGradient>
        <linearGradient x1="50%" y1="0%" x2="50%" y2="100%" id="linearGradient-39">
            <stop stop-color="#5BABDE" stop-opacity="0" offset="0%"></stop>
            <stop stop-color="#AFE0FF" offset="100%"></stop>
        </linearGradient>
        <path d="M4.60336789,0.457014113 C5.65965954,1.06566827 5.66665022,2.05333527 4.61595111,2.66338542 C3.56665013,3.27203957 1.85742902,3.27203957 0.801137363,2.66338542 C-0.256552429,2.05333527 -0.260746837,1.06566827 0.78855414,0.457014113 C1.83925325,-0.152338038 3.54567809,-0.152338038 4.60336789,0.457014113" id="path-40"></path>
        <filter x="-140.9%" y="-243.6%" width="381.7%" height="587.2%" filterUnits="objectBoundingBox" id="filter-41">
            <feGaussianBlur stdDeviation="7.5" in="SourceAlpha" result="shadowBlurInner1"></feGaussianBlur>
            <feOffset dx="0" dy="0" in="shadowBlurInner1" result="shadowOffsetInner1"></feOffset>
            <feComposite in="shadowOffsetInner1" in2="SourceAlpha" operator="arithmetic" k2="-1" k3="1" result="shadowInnerInner1"></feComposite>
            <feColorMatrix values="0 0 0 0 0.235294119   0 0 0 0 0.68235296   0 0 0 0 0.992156863  0 0 0 1 0" type="matrix" in="shadowInnerInner1"></feColorMatrix>
        </filter>
        <path d="M1.53673992,0.139599576 C1.36616735,0.235225286 1.27878385,0.361562903 1.27598758,0.489296516 L1.27598758,0.489296516 C0.850255208,17.7752141 0.425920969,19.1391019 0.000188593399,36.4243215 L0.000188593399,36.4243215 C-0.006802086,36.7188766 0.180548122,37.0155257 0.562938285,37.244469 L0.562938285,37.244469 C1.32911675,37.7016576 2.58953624,37.7142216 3.37738581,37.2723889 L3.37738581,37.2723889 C3.78424335,37.0448416 3.98627398,36.7398165 3.98068144,36.4361875 L3.98068144,36.4361875 C3.65351765,19.1481759 3.32635385,17.7814961 2.99919005,0.494182501 L2.99919005,0.494182501 C2.99709285,0.371334873 2.91600097,0.247789248 2.75521534,0.15146554 L2.75521534,0.15146554 C2.5860409,0.0509538454 2.36024196,0 2.13514208,0 L2.13514208,0 C1.91913009,0 1.70381716,0.0460678602 1.53673992,0.139599576" id="path-42"></path>
        <linearGradient x1="14.1408158%" y1="37.7192015%" x2="83.2801087%" y2="37.7192015%" id="linearGradient-44">
            <stop stop-color="#007DB7" offset="0%"></stop>
            <stop stop-color="#A4DCF8" offset="100%"></stop>
        </linearGradient>
        <linearGradient x1="13.9973%" y1="38.2438855%" x2="87.6939721%" y2="60.039056%" id="linearGradient-45">
            <stop stop-color="#81D1FC" offset="0%"></stop>
            <stop stop-color="#3CA8E1" offset="100%"></stop>
        </linearGradient>
        <linearGradient x1="44.7090573%" y1="1.80154438e-14%" x2="61.2036323%" y2="100%" id="linearGradient-46">
            <stop stop-color="#40ACE7" offset="0%"></stop>
            <stop stop-color="#0C6D9F" offset="100%"></stop>
        </linearGradient>
        <linearGradient x1="13.9973%" y1="4.99340761%" x2="99.9999%" y2="95.0065924%" id="linearGradient-47">
            <stop stop-color="#59C3FE" offset="0%"></stop>
            <stop stop-color="#0D71A6" offset="100%"></stop>
        </linearGradient>
        <linearGradient x1="0%" y1="-3.7983691%" x2="94.8326%" y2="101.906525%" id="linearGradient-48">
            <stop stop-color="#51AEE2" offset="0%"></stop>
            <stop stop-color="#2689BF" offset="100%"></stop>
        </linearGradient>
        <linearGradient x1="12.5105003%" y1="78.596742%" x2="119.884484%" y2="50%" id="linearGradient-49">
            <stop stop-color="#6FCAFE" offset="0%"></stop>
            <stop stop-color="#9EDBFD" offset="100%"></stop>
        </linearGradient>
        <path d="M0,0.640064058 L2.21115189,2.51488637 C2.23561927,2.5365243 2.26218385,2.55537025 2.2894475,2.5707262 L2.2894475,2.5707262 L2.31880836,2.58817615 C2.42296948,2.65239195 2.54810264,2.67751988 2.68791623,2.66355992 L2.68791623,2.66355992 L13.4283961,1.57956921 C13.6164453,1.47207753 13.9079567,0.63936606 13.7632496,0.57026427 L13.7632496,0.57026427 L13.7254999,0.547928338 C13.7192083,0.544438348 13.7115186,0.542344355 13.7038288,0.541646357 L13.7038288,0.541646357 L0.236284964,0 L0,0.640064058 Z" id="path-50"></path>
        <linearGradient x1="75.7198713%" y1="50%" x2="16.5754611%" y2="50%" id="linearGradient-52">
            <stop stop-color="#AFE0FF" offset="0%"></stop>
            <stop stop-color="#AFE0FF" offset="0%"></stop>
            <stop stop-color="#61C0FD" offset="100%"></stop>
        </linearGradient>
        <path d="M0.937595038,0.137505583 C0.410497812,0.449510636 -0.0089429521,1.19287838 0.000144931115,1.79594855 L0.000144931115,1.79594855 C0.00503840669,2.09329565 0.112694869,2.30129902 0.283267447,2.39901872 L0.283267447,2.39901872 L1.73942596,3.23312619 C1.7429213,3.23522018 1.74501851,3.24220016 1.74921292,3.24429416 L1.74921292,3.24429416 L2.33433278,3.57933314 C2.1637602,3.48161344 2.05610374,3.27361007 2.05121027,2.97696097 L2.05121027,2.97696097 C2.04282145,2.3724948 2.46156315,1.62982506 2.9879613,1.31782 L2.9879613,1.31782 C3.25640339,1.15937448 3.49967904,1.14262253 3.67654323,1.24313423 L3.67654323,1.24313423 L3.10190938,0.914377226 C3.11029819,0.917867215 3.12078421,0.919263211 3.12917303,0.924149196 L3.12917303,0.924149196 L1.62477882,0.0621218115 C1.55277482,0.0209399365 1.46888667,0 1.3766097,0 L1.3766097,0 C1.24448586,0 1.09488532,0.0439738666 0.937595038,0.137505583" id="path-53"></path>
        <linearGradient x1="65.7094085%" y1="9.0122986%" x2="18.4484455%" y2="71.219069%" id="linearGradient-55">
            <stop stop-color="#FFFFFF" offset="0%"></stop>
            <stop stop-color="#0A6CA5" offset="100%"></stop>
        </linearGradient>
        <path d="M0.93687491,0.137505583 C0.410476752,0.449510636 -0.00826494423,1.19218038 0.000123871044,1.79664655 L0.000123871044,1.79664655 C0.00501734662,2.09329565 0.112673809,2.30129902 0.283246387,2.39901872 L0.283246387,2.39901872 C0.40418514,2.46253653 0.629984085,2.58049817 0.950157201,2.57770618 L0.950157201,2.57770618 C1.20182166,2.57561219 1.4276206,2.51349037 1.63943819,2.38785076 L1.63943819,2.38785076 C2.14416524,2.09050366 2.31054341,1.56630725 2.30075646,1.20753634 L2.30075646,1.20753634 C2.29236764,0.926941188 2.19449813,0.404140774 1.62545683,0.0628198094 L1.62545683,0.0628198094 C1.55275376,0.0209399365 1.46886561,0 1.37658864,0 L1.37658864,0 C1.2444648,0 1.09486426,0.0439738666 0.93687491,0.137505583" id="path-56"></path>
        <radialGradient cx="57.110432%" cy="23.670579%" fx="57.110432%" fy="23.670579%" r="73.1737268%" gradientTransform="translate(0.571104,0.236706),scale(1.000000,0.892700),rotate(109.815737),translate(-0.571104,-0.236706)" id="radialGradient-58">
            <stop stop-color="#F6FCFF" offset="0%"></stop>
            <stop stop-color="#207BB0" offset="100%"></stop>
        </radialGradient>
        <path d="M0.426433119,0.107491674 C0.217411805,0.228245308 -0.000697391926,0.422288719 0,0.555606314 L0,0.555606314 L0.0789963532,18.0509232 L0.120241362,18.0739572 L0.617977735,17.787778 L1.97347047,13.2842957 C2.04407633,13.0476744 2.07273812,12.8215231 2.05386328,12.6198017 L2.05386328,12.6198017 L0.838883203,0.0851557417 C0.837485068,0.0600278179 0.824901845,0.0446718645 0.807425146,0.035597892 L0.807425146,0.035597892 C0.807425146,0.035597892 0.808124214,0.0348998941 0.808124214,0.0348998941 L0.808124214,0.0348998941 C0.808823282,0.0348998941 0.810221418,0.0348998941 0.810920486,0.0348998941 L0.810920486,0.0348998941 L0.76897641,0.0111679661 C0.756393187,0.00348998941 0.738916488,0 0.718643518,0 L0.718643518,0 C0.648037656,0 0.538983057,0.0425778708 0.426433119,0.107491674" id="path-59"></path>
        <linearGradient x1="50.2502184%" y1="-4.33634117%" x2="49.7454969%" y2="112.268968%" id="linearGradient-61">
            <stop stop-color="#C7E9FF" offset="0%"></stop>
            <stop stop-color="#7DCCFF" offset="100%"></stop>
        </linearGradient>
        <path d="M9.48984728,2.72219174 C9.30808962,2.86528131 9.14101238,3.05025075 8.99630531,3.26663009 L8.99630531,3.26663009 L0.0363515329,16.821749 C0.011884155,16.8573469 0.00069906794,16.8971327 0,16.9397106 L0,16.9397106 L0,16.9522746 C0.0034953397,17.0953641 0.118142482,17.2579976 0.243974711,17.3305894 L0.243974711,17.3305894 L0.285219719,17.3543213 C0.278928108,17.3508314 0.273335564,17.3438514 0.267743021,17.3396634 L0.267743021,17.3396634 C0.34254329,17.3892212 0.423635171,17.4108592 0.487949422,17.3731673 L0.487949422,17.3731673 C0.506824256,17.3626973 0.525000023,17.3466434 0.540379517,17.3264014 L0.540379517,17.3264014 L13.2585225,0.344810954 L12.985886,0.023731928 L12.9453401,0 L9.48984728,2.72219174 Z" id="path-62"></path>
        <linearGradient x1="75.7198713%" y1="50%" x2="19.7293549%" y2="50%" id="linearGradient-64">
            <stop stop-color="#75C8FD" offset="0%"></stop>
            <stop stop-color="#A9DEFF" offset="100%"></stop>
            <stop stop-color="#AFE0FF" offset="100%"></stop>
        </linearGradient>
        <filter x="-41.6%" y="-74.8%" width="183.2%" height="249.5%" filterUnits="objectBoundingBox" id="filter-65">
            <feGaussianBlur stdDeviation="2.04773259" in="SourceGraphic"></feGaussianBlur>
        </filter>
        <path d="M0.00420016919,0 C0.00140389744,0.863423381 0.571843336,1.72754476 1.71412035,2.38575676 C3.98469302,3.69520079 7.65410063,3.69520079 9.90859474,2.38645476 C11.0292006,1.73661873 11.5898531,0.885759313 11.5926494,0.0342018962 L11.5926494,0.0342018962 L11.588455,1.33526995 C11.5863578,2.18682737 11.0257053,3.03768678 9.9050994,3.68752281 C7.65060529,4.99557084 3.98119768,4.99626884 1.70992594,3.68682481 C0.568347996,3.02861281 -0.00209144226,2.16449143 0,1.30106805 L0,1.30106805" id="path-66"></path>
        <linearGradient x1="100%" y1="52.7854255%" x2="0%" y2="53.0016778%" id="linearGradient-68">
            <stop stop-color="#18689C" offset="0%"></stop>
            <stop stop-color="#66C1FD" offset="48.9383042%"></stop>
            <stop stop-color="#18689C" offset="100%"></stop>
        </linearGradient>
        <linearGradient x1="50%" y1="0%" x2="50%" y2="100%" id="linearGradient-69">
            <stop stop-color="#338DC5" offset="0%"></stop>
            <stop stop-color="#90D3FF" offset="100%"></stop>
        </linearGradient>
        <linearGradient x1="50%" y1="0%" x2="50%" y2="100%" id="linearGradient-70">
            <stop stop-color="#5BABDE" stop-opacity="0" offset="0%"></stop>
            <stop stop-color="#AFE0FF" offset="100%"></stop>
        </linearGradient>
        <path d="M9.88084174,0.98129779 C12.1514144,2.29004382 12.1646967,4.41195738 9.90880446,5.72070341 C7.65431035,7.02875144 3.98490274,7.02944944 1.713631,5.72000541 C-0.55554353,4.41195738 -0.567427685,2.28934582 1.68706642,0.98129779 C3.94295866,-0.327448239 7.61166721,-0.326750241 9.88084174,0.98129779" id="path-71"></path>
        <filter x="-65.6%" y="-113.4%" width="231.2%" height="326.8%" filterUnits="objectBoundingBox" id="filter-72">
            <feGaussianBlur stdDeviation="7.5" in="SourceAlpha" result="shadowBlurInner1"></feGaussianBlur>
            <feOffset dx="0" dy="0" in="shadowBlurInner1" result="shadowOffsetInner1"></feOffset>
            <feComposite in="shadowOffsetInner1" in2="SourceAlpha" operator="arithmetic" k2="-1" k3="1" result="shadowInnerInner1"></feComposite>
            <feColorMatrix values="0 0 0 0 0.235294119   0 0 0 0 0.68235296   0 0 0 0 0.992156863  0 0 0 1 0" type="matrix" in="shadowInnerInner1"></feColorMatrix>
        </filter>
        <path d="M0.00489898004,0 L0.0093164403,0.0927368183 C0.0459454366,0.463338429 0.310069023,0.827718104 0.801137363,1.11121263 L0.801137363,1.11121263 L0.949009863,1.19052913 C2.01075022,1.71930579 3.61364656,1.69286696 4.61525204,1.11121263 L4.61525204,1.11121263 L4.73112009,1.03983671 C5.17603276,0.747985269 5.39826191,0.38201961 5.3989072,0.0160539513 L5.3989072,0.0160539513 L5.39401373,5.4052956 L5.38909798,5.49674444 C5.35105621,5.86219923 5.0923928,6.22152359 4.61035857,6.50115228 L4.61035857,6.50115228 L4.46330495,6.58037792 C3.40702288,7.10854888 1.80382322,7.08214033 0.79554482,6.50115228 L0.79554482,6.50115228 L0.677517842,6.42862531 C0.224369085,6.13208073 -0.00128508251,5.76041545 0,5.38993965 L0,5.38993965 L0.00489898004,0 Z" id="path-73"></path>
        <linearGradient x1="80.1063053%" y1="67.1735%" x2="19.8936947%" y2="68.5068%" id="linearGradient-75">
            <stop stop-color="#1A73AD" offset="0%"></stop>
            <stop stop-color="#66C1FD" offset="48.9383042%"></stop>
            <stop stop-color="#18689C" offset="100%"></stop>
        </linearGradient>
        <path d="M4.60301835,0.457014113 C5.65931001,1.06566827 5.66630069,2.05333527 4.61560158,2.66338542 C3.5663006,3.27203957 1.85707949,3.27203957 0.800787829,2.66338542 C-0.256901963,2.05333527 -0.261096371,1.06566827 0.788204606,0.457014113 C1.83890372,-0.152338038 3.54532856,-0.152338038 4.60301835,0.457014113" id="path-76"></path>
        <filter x="-140.9%" y="-243.6%" width="381.7%" height="587.2%" filterUnits="objectBoundingBox" id="filter-77">
            <feGaussianBlur stdDeviation="7.5" in="SourceAlpha" result="shadowBlurInner1"></feGaussianBlur>
            <feOffset dx="0" dy="0" in="shadowBlurInner1" result="shadowOffsetInner1"></feOffset>
            <feComposite in="shadowOffsetInner1" in2="SourceAlpha" operator="arithmetic" k2="-1" k3="1" result="shadowInnerInner1"></feComposite>
            <feColorMatrix values="0 0 0 0 0.235294119   0 0 0 0 0.68235296   0 0 0 0 0.992156863  0 0 0 1 0" type="matrix" in="shadowInnerInner1"></feColorMatrix>
        </filter>
        <path d="M0.571292362,0 C0.381145883,4.21171922 0.190999403,8.75777943 0.000153855786,16.489502 L0.000153855786,16.489502 C-0.00613775567,16.7847551 0.180513384,17.0807062 0.563602615,17.3096495 L0.563602615,17.3096495 C1.32978108,17.7668381 2.5895015,17.7794021 3.37805014,17.3375694 L3.37805014,17.3375694 C3.78490768,17.1100221 3.98623925,16.804997 3.9806467,16.5013679 L3.9806467,16.5013679 C3.8345415,8.76266542 3.68773724,4.21451121 3.54163204,0 L3.54163204,0 L0.571292362,0 Z" id="path-78"></path>
        <linearGradient x1="14.1408158%" y1="37.7192015%" x2="83.2801087%" y2="37.7192015%" id="linearGradient-80">
            <stop stop-color="#007DB7" offset="0%"></stop>
            <stop stop-color="#A4DCF8" offset="100%"></stop>
        </linearGradient>
        <linearGradient x1="44.7103841%" y1="1.80154438e-14%" x2="61.2008228%" y2="100%" id="linearGradient-81">
            <stop stop-color="#40ACE7" offset="0%"></stop>
            <stop stop-color="#0C6D9F" offset="100%"></stop>
        </linearGradient>
        <path d="M0,0.640064058 L2.21115189,2.51558437 C2.23631834,2.5365243 2.26288292,2.55537025 2.29014657,2.5714242 L2.29014657,2.5714242 L2.32160463,2.58957214 C2.42506668,2.65239195 2.54950078,2.67821787 2.68791623,2.66355992 L2.68791623,2.66355992 L13.4290951,1.58026721 C13.623436,1.46858754 13.9303268,0.575848253 13.7450738,0.566076283 L13.7450738,0.566076283 C13.7534626,0.566076283 13.7604533,0.568868274 13.7660459,0.571660266 L13.7660459,0.571660266 L13.7254999,0.548626336 C13.7192083,0.545136346 13.7122176,0.542344355 13.7038288,0.542344355 L13.7038288,0.542344355 L0.236284964,0 L0,0.640064058 Z" id="path-82"></path>
        <linearGradient x1="75.7198713%" y1="50%" x2="16.5754611%" y2="50%" id="linearGradient-84">
            <stop stop-color="#AFE0FF" offset="0%"></stop>
            <stop stop-color="#AFE0FF" offset="0%"></stop>
            <stop stop-color="#61C0FD" offset="100%"></stop>
        </linearGradient>
        <path d="M0.936896207,0.137505583 C0.40979898,0.450208634 -0.00894271571,1.19218038 0.000145167504,1.79664655 L0.000145167504,1.79664655 C0.00433957514,2.09329565 0.111996038,2.30199702 0.282568615,2.39901872 L0.282568615,2.39901872 L1.73872713,3.23312619 C1.74292154,3.23591818 1.74501874,3.24220016 1.74921315,3.24499216 L1.74921315,3.24499216 L2.33433302,3.57933314 C2.16376044,3.48231144 2.05610398,3.27361007 2.0512105,2.97696097 L2.0512105,2.97696097 C2.04212262,2.3731928 2.46156338,1.63052305 2.98796154,1.31782 L2.98796154,1.31782 C3.25570456,1.15937448 3.49967927,1.14192454 3.67584439,1.24313423 L3.67584439,1.24313423 L3.10190962,0.914377226 C3.11029843,0.918565213 3.12078445,0.919961209 3.12917326,0.924847194 L3.12917326,0.924847194 L1.62477906,0.0628198094 C1.55207599,0.0216379344 1.46818784,0 1.37591087,0 L1.37591087,0 C1.24378703,0 1.09418649,0.0439738666 0.936896207,0.137505583" id="path-85"></path>
        <linearGradient x1="65.7094085%" y1="8.9967124%" x2="18.4484455%" y2="71.2271378%" id="linearGradient-87">
            <stop stop-color="#FFFFFF" offset="0%"></stop>
            <stop stop-color="#0A6CA5" offset="100%"></stop>
        </linearGradient>
        <path d="M0.936895971,0.137505583 C0.410497812,0.450208634 -0.00894295126,1.19287838 0.000144931958,1.79664655 L0.000144931958,1.79664655 C0.00503840754,2.09329565 0.11269487,2.30199702 0.283267447,2.39901872 L0.283267447,2.39901872 C0.404206201,2.46253653 0.630005145,2.58049817 0.949479194,2.57770618 L0.949479194,2.57770618 C1.20184272,2.57561219 1.4269426,2.51418837 1.63945925,2.38854875 L1.63945925,2.38854875 C2.14348723,2.09050366 2.31056447,1.56700525 2.30007845,1.20823433 L2.30007845,1.20823433 C2.29238871,0.927639186 2.19382013,0.404838772 1.62477882,0.0628198094 L1.62477882,0.0628198094 C1.55277483,0.0216379344 1.46888667,0 1.3766097,0 L1.3766097,0 C1.2437868,0 1.09488533,0.0439738666 0.936895971,0.137505583" id="path-88"></path>
        <radialGradient cx="57.110432%" cy="23.670579%" fx="57.110432%" fy="23.670579%" r="73.1912368%" gradientTransform="translate(0.571104,0.236706),scale(1.000000,0.892458),rotate(109.810798),translate(-0.571104,-0.236706)" id="radialGradient-90">
            <stop stop-color="#F6FCFF" offset="0%"></stop>
            <stop stop-color="#207BB0" offset="100%"></stop>
        </radialGradient>
        <path d="M0.426431443,0.107491674 C0.218109197,0.22754731 0,0.422288719 0,0.555606314 L0,0.555606314 L0.0789946772,18.0502252 L0.120938754,18.0739572 L0.617976059,17.787778 L1.97416786,13.2842957 C2.04407466,13.0469764 2.07343551,12.8215231 2.05386161,12.6191037 L2.05386161,12.6191037 L0.838881527,0.0844577438 C0.83818246,0.05932982 0.824900169,0.0446718645 0.80742347,0.0348998941 L0.80742347,0.0348998941 C0.80742347,0.0348998941 0.808122538,0.0348998941 0.808122538,0.0348998941 L0.808122538,0.0348998941 C0.809520674,0.0348998941 0.810219742,0.0348998941 0.81091881,0.0348998941 L0.81091881,0.0348998941 L0.769673801,0.0104699682 C0.757090579,0.00348998941 0.73961388,0 0.71934091,0 L0.71934091,0 C0.648735048,0 0.538981381,0.0425778708 0.426431443,0.107491674" id="path-91"></path>
        <linearGradient x1="50.250285%" y1="-4.33634117%" x2="49.7454292%" y2="112.268968%" id="linearGradient-93">
            <stop stop-color="#C7E9FF" offset="0%"></stop>
            <stop stop-color="#7DCCFF" offset="100%"></stop>
        </linearGradient>
        <path d="M9.48970271,2.72079575 C9.30794505,2.86458331 9.14086781,3.05025075 8.99685982,3.26593209 L8.99685982,3.26593209 L0.0362069668,16.821749 C-0.0707504279,16.9774025 0.0774519753,17.2335677 0.243830145,17.3305894 L0.243830145,17.3305894 L0.285774221,17.3543213 C0.27948261,17.3508314 0.273890066,17.3438514 0.267598455,17.3389654 L0.267598455,17.3389654 C0.343097792,17.3892212 0.423490605,17.4108592 0.487804856,17.3731673 L0.487804856,17.3731673 C0.507378758,17.3626973 0.524855457,17.3466434 0.540234951,17.3257034 L0.540234951,17.3257034 L13.259077,0.344112956 L12.9864405,0.023731928 L12.9458946,0 L9.48970271,2.72079575 Z" id="path-94"></path>
        <linearGradient x1="75.7198713%" y1="50%" x2="19.7293549%" y2="50%" id="linearGradient-96">
            <stop stop-color="#75C8FD" offset="0%"></stop>
            <stop stop-color="#A9DEFF" offset="100%"></stop>
            <stop stop-color="#AFE0FF" offset="100%"></stop>
        </linearGradient>
    </defs>
    <g id="能源云系统V2.0" stroke="none" stroke-width="1" fill="none" fill-rule="evenodd">
        <g id="1_8.站控系统（站点）首页全屏_风机_V2.2" transform="translate(-647.000000, -625.000000)">
            <g id="2D视图" transform="translate(474.000000, 253.000000)">
                <g id="系统能流图" transform="translate(0.000000, 52.000000)">
                    <g id="能流图（全都有）" transform="translate(40.000000, 86.000000)">
                        <g id="中间2" transform="translate(142.000000, 0.000000)">
                            <g id="icon_风机EN" transform="translate(0.000000, 234.000000)">
                                <g id="组合-14" transform="translate(0.000000, 21.969973)">
                                    <polygon id="形状_2_拷贝_2-3" fill="#000000" opacity="0.5" filter="url(#filter-1)" points="0 71.4571052 99.8388 13.884183 200 71.7785924 99.8388 129.030027"></polygon>
                                    <polygon id="形状_2_拷贝-3" fill="url(#linearGradient-2)" opacity="0.800000012" points="0.155031189 67.5393228 99.9062054 9.96890521 199.90747 68.0378079 99.9062054 125.358983"></polygon>
                                    <polygon id="形状_3_拷贝-3" fill="url(#linearGradient-3)" points="0.155031189 67.5393447 99.9062489 125.358983 99.9062489 115.140875 0.155031189 57.5704276"></polygon>
                                    <polygon id="形状_4_拷贝-3" fill-opacity="0.600000024" fill="url(#linearGradient-4)" points="199.907592 68.0378109 99.9063709 125.358983 99.9063709 115.14089 199.907592 57.8196502"></polygon>
                                    <g id="形状_2-3">
                                        <use fill-opacity="0.899999976" fill="url(#linearGradient-5)" fill-rule="evenodd" xlink:href="#path-7"></use>
                                        <use fill="black" fill-opacity="1" filter="url(#filter-8)" xlink:href="#path-7"></use>
                                        <path stroke="url(#linearGradient-6)" stroke-width="0.749503125" d="M99.9060353,0.432784663 L199.15635,57.8181867 L99.9068445,114.708538 L0.904738782,57.5704276 L99.9060353,0.432784663 Z" stroke-linejoin="square"></path>
                                    </g>
                                </g>
                                <g id="底座样式02" transform="translate(49.500604, 16.459089)">
                                    <path d="M2.22136889,72.0801076 C0.121359122,70.858887 -0.60360487,68.1922226 0.621375768,66.0738675 C0.996388253,65.4009562 1.57138735,64.8526468 2.22136889,64.4788408 C2.22136889,64.4788408 16.9298912,55.9969523 46.3469358,39.0331753 C48.6469321,37.7123335 51.4969669,37.7123335 53.7970635,39.0331753 C53.7970635,39.0331753 68.5555741,47.5649046 98.0725953,64.6283632 C100.172605,65.8495234 100.897569,68.5161878 99.6725884,70.6346034 C99.2726152,71.3075147 98.7225768,71.855824 98.0475343,72.2296301 C98.0475343,72.2296301 83.2890237,80.6699644 53.7720025,97.5506331 C51.4720061,98.8715353 48.6469321,98.8466149 46.3469358,97.5257127 C46.3469358,97.5257127 31.6384135,89.0438443 2.22136889,72.0801076 L2.22136889,72.0801076 Z" id="形状_17_拷贝_16" fill="#093259" opacity="0.600000024" filter="url(#filter-9)"></path>
                                    <path d="M98.1475582,43.9180112 L53.8970058,18.3477155 C51.5969898,17.026845 48.7470266,17.026845 46.4469104,18.3477155 C46.4469104,18.3477155 31.7384208,26.8213028 2.32144163,43.7684773 C0.946423336,44.5410079 0.096395624,46.0114123 0.120851085,47.5815549 C0.120851085,47.5815549 0.120851085,51.8764802 0.120851085,60.4663308 C0.096395624,62.0364734 0.946423336,63.5068778 2.32144163,64.2794818 C2.32144163,64.2794818 17.0299312,72.7530446 46.4469104,89.7001702 C48.7470266,91.0210407 51.5720332,91.0210407 53.8720492,89.7251047 C53.8720492,89.7251047 68.6305522,81.3013621 98.1475582,64.4538769 C99.5225765,63.6813462 100.372604,62.2108685 100.348149,60.6407993 C100.348149,60.6407993 100.348149,56.3458739 100.348149,47.7560233 C100.372604,46.1858808 99.5225765,44.7154764 98.1475582,43.9180112 C98.1475582,43.9180112 98.1475582,43.9180112 98.1475582,43.9180112 Z" id="形状_26" fill="url(#linearGradient-10)"></path>
                                    <path d="M2.19644542,51.7934203 C0.096334446,50.5721916 -0.628629876,47.9055258 0.596351321,45.7871606 C0.971363977,45.1142325 1.54636333,44.5659319 2.19644542,44.1921099 C2.19644542,44.1921099 16.904941,35.7102395 46.3219322,18.7464988 C48.6219296,17.4255682 51.4719657,17.4255682 53.7720633,18.7464988 C53.7720633,18.7464988 68.5305807,27.2782202 98.0476153,44.3416629 C100.147626,45.562831 100.87259,48.2294969 99.6476092,50.3479226 C99.2476358,51.0207902 98.6975972,51.5690908 98.0225543,51.9429128 C98.0225543,51.9429128 83.264037,60.3832608 53.7470023,77.2639568 C51.4719657,78.584827 48.6469906,78.584827 46.3468929,77.2639568 C46.3468929,77.2639568 31.6300771,68.773778 2.19644542,51.7934203 L2.19644542,51.7934203 Z" id="形状_17_拷贝_8" fill-opacity="0.800000012" fill="url(#linearGradient-11)"></path>
                                    <path d="M2.19644542,64.254567 C0.096334446,63.0333384 -0.628629876,60.3666725 0.596351321,58.2483073 C0.971363977,57.5753792 1.54636333,57.0270786 2.19644542,56.6532566 C2.19644542,56.6532566 16.904941,48.1713862 46.3219322,31.2076456 C48.6219296,29.8867149 51.4719657,29.8867149 53.7720633,31.2076456 C53.7720633,31.2076456 68.5305807,39.7393669 98.0476153,56.8028096 C100.147626,58.0239778 100.87259,60.6906436 99.6476092,62.8090693 C99.2476358,63.4819369 98.6975972,64.0302375 98.0225543,64.4040595 C98.0225543,64.4040595 83.264037,72.8444075 53.7470023,89.7251035 C51.4719657,91.0459737 48.6469906,91.0459737 46.3468929,89.7251035 C46.3468929,89.7251035 31.6300771,81.2349247 2.19644542,64.254567 L2.19644542,64.254567 Z" id="形状_17_拷贝_9" fill="url(#linearGradient-11)" opacity="0.100000001"></path>
                                    <path d="M2.19637469,52.0426429 C0.09636492,50.8214143 -0.628599071,48.1547484 0.596381567,46.0363832 C0.971394052,45.3634551 1.54639315,44.8151546 2.19637469,44.4413325 C2.19637469,44.4413325 16.904897,35.9594622 46.3219416,18.9957215 C48.6219379,17.6748513 51.4719727,17.6748513 53.7720693,18.9957215 C53.7720693,18.9957215 68.5305799,27.5274428 98.0476011,44.5908855 C100.147611,45.8120537 100.872575,48.4787195 99.6475942,50.5971452 C99.247621,51.2700128 98.6975826,51.8183134 98.0225401,52.1921354 C98.0225401,52.1921354 83.2723832,60.6324834 53.7720693,77.5131795 C51.4719727,78.8340496 48.6469989,78.8340496 46.3470025,77.5131795 C46.3470025,77.5131795 31.6301266,69.0230006 2.19637469,52.0426429 L2.19637469,52.0426429 Z" id="形状_17_拷贝_11" stroke="url(#linearGradient-13)" stroke-width="0.749503125" fill-opacity="0" fill="url(#linearGradient-12)"></path>
                                    <polygon id="矩形_3" fill="url(#linearGradient-14)" points="60.272098 77.9368596 60.272098 81.8745757 56.247055 84.2421891 56.247055 80.304473"></polygon>
                                    <polygon id="矩形_3_拷贝" fill="url(#linearGradient-15)" points="67.2721835 74.1985202 67.2721835 78.1362363 63.2471405 80.5038497 63.2471405 76.5661336"></polygon>
                                    <polygon id="矩形_3_拷贝_2" fill="url(#linearGradient-16)" points="74.0222659 70.4601807 74.0222659 74.3978968 69.9972229 76.7655102 69.9972229 72.8277941"></polygon>
                                    <polygon id="形状_27" fill="url(#linearGradient-17)" opacity="0.400000006" points="63.3721395 87.0584018 67.6221939 84.566178 60.3721104 81.5755039 56.3720565 83.8185081"></polygon>
                                    <polygon id="形状_27_拷贝" fill="url(#linearGradient-18)" opacity="0.400000006" points="70.3722249 83.3200624 74.6222793 80.8278385 67.3721958 77.8371645 63.372142 80.0801687"></polygon>
                                    <polygon id="形状_27_拷贝_2" fill="url(#linearGradient-19)" opacity="0.400000006" points="77.1223073 79.5817229 81.3723617 77.0894991 74.1222782 74.098825 70.1222244 76.3418292"></polygon>
                                    <path d="M12.3214676,49.5005548 C10.6714771,48.5535251 10.0964709,46.4351529 11.0464606,44.7653587 C11.3464948,44.2419939 11.7965066,43.818329 12.3214676,43.4943163 C12.3214676,43.4943163 23.9216309,36.806835 47.1219574,23.4318724 C48.9469877,22.3851428 51.1719844,22.3851428 52.9970147,23.4318724 C52.9970147,23.4318724 64.6388164,30.1608913 87.9224199,43.6189292 C89.5724104,44.5659589 90.1474957,46.6843311 89.1724438,48.3541253 C88.8724096,48.8774901 88.4223978,49.3261157 87.8974368,49.6251677 C87.8974368,49.6251677 76.2556351,56.2794157 52.9720316,69.5879117 C51.1969675,70.6346413 48.9719707,70.6346413 47.1469405,69.5879117 C47.1469405,69.5879117 35.5384496,62.8921261 12.3214676,49.5005548 L12.3214676,49.5005548 Z" id="形状_17_拷贝_13" stroke="url(#linearGradient-21)" stroke-width="0.533339844" fill-opacity="0.800000012" fill="url(#linearGradient-20)"></path>
                                    <path d="M12.3214676,43.7684343 C10.6714771,42.8214046 10.0964709,40.7030324 11.0464606,39.0332382 C11.3464948,38.5098734 11.7965066,38.0861608 12.3214676,37.7621958 C12.3214676,37.7621958 23.9216309,31.0747145 47.1219574,17.6997519 C48.9469877,16.6530223 51.1719844,16.6530223 52.9970147,17.6997519 C52.9970147,17.6997519 64.6388164,24.4287708 87.9224199,37.8868087 C89.5724104,38.8338384 90.1474957,40.9522106 89.1724438,42.6220048 C88.8724096,43.1454173 88.4223978,43.5939953 87.8974368,43.8930472 C87.8974368,43.8930472 76.2556351,50.5472952 52.9720316,63.8557912 C51.1969675,64.9025208 48.9719707,64.9025208 47.1469405,63.8557912 C47.1469405,63.8557912 35.5384496,57.1600056 12.3214676,43.7684343 L12.3214676,43.7684343 Z" id="形状_17_拷贝_12" stroke="url(#linearGradient-22)" stroke-width="0.9993375" fill-opacity="0.800000012" fill="url(#linearGradient-20)"></path>
                                    <g id="编组-24" transform="translate(27.000000, 0.000000)">
                                        <path d="M1.00542942,45.791712 C0.0513706278,45.2355848 -0.28716043,43.9996936 0.26683293,43.0109919 C0.451482053,42.7020261 0.697665554,42.4548367 1.00542942,42.2694516 C1.00542942,42.2694516 7.75564642,38.3455282 21.2560804,30.4976813 C22.3024408,29.8797497 23.6258438,29.8797497 24.6722042,30.4976813 C24.6722042,30.4976813 31.4429326,34.4422062 44.9843895,42.3312559 C45.9384023,42.8873832 46.2769794,44.1232743 45.723032,45.1119761 C45.5383369,45.4209698 45.2921534,45.6681313 44.9843895,45.8535164 C44.9843895,45.8535164 38.2136611,49.746547 24.6722042,57.5326081 C23.6258438,58.1505397 22.3024408,58.1505397 21.2560804,57.5634823 C21.2560804,57.5634823 14.5058634,53.6395589 1.00542942,45.791712 L1.00542942,45.791712 Z" id="形状_17_拷贝_15" stroke="url(#linearGradient-24)" stroke-width="0.65655527" fill-opacity="0.800000012" fill="url(#linearGradient-23)" opacity="0.600000024"></path>
                                        <path d="M1.00542942,41.1571552 C0.0513706278,40.601028 -0.28716043,39.3651368 0.26683293,38.3764351 C0.451482053,38.0674693 0.697665554,37.8202798 1.00542942,37.6348948 C1.00542942,37.6348948 7.75564642,33.7109713 21.2560804,25.8631245 C22.3024408,25.2451929 23.6258438,25.2451929 24.6722042,25.8631245 C24.6722042,25.8631245 31.4429326,29.8076494 44.9843895,37.6966991 C45.9384023,38.2528264 46.2769794,39.4887175 45.723032,40.4774193 C45.5383369,40.786413 45.2921534,41.0335745 44.9843895,41.2189596 C44.9843895,41.2189596 38.2136611,45.1119901 24.6722042,52.8980513 C23.6258438,53.5159829 22.3024408,53.5159829 21.2560804,52.9289255 C21.2560804,52.9289255 14.5058634,49.0050021 1.00542942,41.1571552 L1.00542942,41.1571552 Z" id="形状_17_拷贝_14" stroke="url(#linearGradient-25)" stroke-width="0.65655527" fill-opacity="0.800000012" fill="url(#linearGradient-23)"></path>
                                        <path d="M44.9536474,40.8459215 L24.6414768,52.524996 C23.5950782,53.1429471 22.302506,53.1429471 21.2253472,52.524996 C21.2253472,52.524996 14.4853839,48.6113587 1.00545728,40.784084 C0.451497771,40.4751085 0.0821914313,39.8881026 0.0206250482,39.2392592 C0.0206250482,39.2392592 0.0206250482,26.1595062 0.0206250482,0 L46,0 L45.9692398,39.2392592 C45.9384796,39.9189949 45.5383671,40.5060537 44.9536474,40.8459215 C44.9536474,40.8459215 44.9536474,40.8459215 44.9536474,40.8459215 Z" id="矩形_4" fill="url(#linearGradient-26)" opacity="0.600000024"></path>
                                    </g>
                                </g>
                                <g id="icon_风力发电机" transform="translate(94.000000, 33.000000) scale(-1, 1) translate(-94.000000, -33.000000) translate(71.000000, 0.000000)">
                                    <path d="M15.0685792,64.7971489 C12.1847075,66.4009504 7.50853751,66.4009504 4.61843714,64.7971489 C1.73923693,63.1918471 1.73923693,60.5888578 4.61843714,58.9865566 C7.50853751,57.3827551 12.1847075,57.3827551 15.0685792,58.9865566 C17.954008,60.5888578 17.954008,63.1918471 15.0685792,64.7971489" id="投影" fill="#005F7C" opacity="0.670000017" filter="url(#filter-27)"></path>
                                    <g id="编组" transform="translate(3.930849, 51.204950)">
                                        <g transform="translate(0.000000, 4.494949)">
                                            <g transform="translate(0.000000, 3.333969)">
                                                <mask id="mask-29" fill="white">
                                                    <use xlink:href="#path-28"></use>
                                                </mask>
                                                <g id="Clip-2"></g>
                                                <path d="M9.90859921,2.38715276 C7.6541051,3.69520079 3.98399842,3.69520079 1.71342575,2.38645476 C0.571847805,1.72754476 0.00140836616,0.863423381 0.00350556998,0 L0,1.30106805 C-0.00278604148,2.16449143 0.567653397,3.02861281 1.70993041,3.68682481 C3.98050308,4.99626884 7.64991069,4.99626884 9.90510387,3.68752281 C11.0250107,3.03768678 11.5856632,2.18752536 11.5884595,1.33526995 L11.5919548,0.0342018962 C11.5898576,0.886457311 11.0292051,1.73661873 9.90859921,2.38715276" id="Fill-1" fill="url(#linearGradient-30)" mask="url(#mask-29)"></path>
                                            </g>
                                            <g id="Fill-3">
                                                <use fill="url(#linearGradient-31)" fill-rule="evenodd" xlink:href="#path-33"></use>
                                                <use fill="black" fill-opacity="1" filter="url(#filter-34)" xlink:href="#path-33"></use>
                                                <use stroke="url(#linearGradient-32)" stroke-width="0.2" xlink:href="#path-33"></use>
                                            </g>
                                            <path d="M6.03932807,0.0142915241 C4.47061961,-0.026890351 2.88093912,0.288604692 1.68693108,0.981716589 C0.282503585,1.79628012 -0.229214147,2.92564069 0.123116094,3.9789195 L6.03932807,3.9789195 L6.03932807,0.0142915241 Z" id="Fill-5" fill="#2E91D5"></path>
                                        </g>
                                        <g transform="translate(3.087788, 0.000000)">
                                            <g transform="translate(0.000000, 1.552522)">
                                                <mask id="mask-36" fill="white">
                                                    <use xlink:href="#path-35"></use>
                                                </mask>
                                                <g id="Clip-8"></g>
                                                <path d="M0,5.38924165 C-0.00139263143,5.79059043 0.263554118,6.19333521 0.796243888,6.50045428 L0.796243888,6.50045428 C1.85253554,7.10910843 3.56105759,7.10910843 4.61105763,6.50045428 L4.61105763,6.50045428 C5.13256232,6.1975232 5.39331466,5.8010604 5.39471279,5.4045976 L5.39471279,5.4045976 L5.39960627,0.0153559534 C5.39820813,0.411818751 5.13745579,0.808281548 4.61595111,1.11051463 L4.61595111,1.11051463 C3.56665013,1.71986678 1.85742902,1.71986678 0.801137363,1.11051463 L0.801137363,1.11051463 C0.269845729,0.803395563 0.00419991208,0.401348782 0.00489898002,0 L0.00489898002,0 L0,5.38924165 Z" id="Fill-7" fill="url(#linearGradient-37)" mask="url(#mask-36)"></path>
                                            </g>
                                            <g id="Fill-9">
                                                <use fill="url(#linearGradient-38)" fill-rule="evenodd" xlink:href="#path-40"></use>
                                                <use fill="black" fill-opacity="1" filter="url(#filter-41)" xlink:href="#path-40"></use>
                                                <use stroke="url(#linearGradient-39)" stroke-width="0.2" xlink:href="#path-40"></use>
                                            </g>
                                            <path d="M3.0415802,1.86955243 C3.04857088,1.68807298 3.0590569,1.50659353 3.09121403,1.32930207 C3.1681115,0.901429365 3.26458288,0.478442648 3.3512673,0.0526639402 C2.46065474,-0.076465668 1.4826587,0.054059936 0.788484233,0.456804714 C-0.179025795,1.01869301 -0.239145638,1.89956634 0.586453599,2.51171048 L2.89827128,2.51171048 C2.91504891,2.29044515 2.96468273,2.0768578 3.0415802,1.86955243" id="Fill-11" fill="#2E91D5"></path>
                                        </g>
                                    </g>
                                    <g id="编组" transform="translate(7.774146, 16.162839)">
                                        <mask id="mask-43" fill="white">
                                            <use xlink:href="#path-42"></use>
                                        </mask>
                                        <g id="Clip-14"></g>
                                        <path d="M1.53673992,0.139599576 C1.36616735,0.235225286 1.27878385,0.361562903 1.27598758,0.489296516 L1.27598758,0.489296516 C0.850255208,17.7752141 0.425920969,19.1391019 0.000188593399,36.4243215 L0.000188593399,36.4243215 C-0.006802086,36.7188766 0.180548122,37.0155257 0.562938285,37.244469 L0.562938285,37.244469 C1.32911675,37.7016576 2.58953624,37.7142216 3.37738581,37.2723889 L3.37738581,37.2723889 C3.78424335,37.0448416 3.98627398,36.7398165 3.98068144,36.4361875 L3.98068144,36.4361875 C3.65351765,19.1481759 3.32635385,17.7814961 2.99919005,0.494182501 L2.99919005,0.494182501 C2.99709285,0.371334873 2.91600097,0.247789248 2.75521534,0.15146554 L2.75521534,0.15146554 C2.5860409,0.0509538454 2.36024196,0 2.13514208,0 L2.13514208,0 C1.91913009,0 1.70381716,0.0460678602 1.53673992,0.139599576" id="Fill-13" fill="url(#linearGradient-44)" mask="url(#mask-43)"></path>
                                    </g>
                                    <g id="编组" transform="translate(4.974424, 12.771641)">
                                        <path d="M5.5552866,3.54308195 C5.22322932,3.34485055 4.67795633,3.33926657 4.33681118,3.53051799 C3.99496695,3.72176941 3.98727721,4.03726445 4.31933448,4.23549585 C4.65139175,4.43372725 5.19666474,4.43931123 5.5378099,4.24805981 C5.87965412,4.05680839 5.88734387,3.74131335 5.5552866,3.54308195" id="Fill-15" fill="#DADADA"></path>
                                        <g>
                                            <path d="M4.64342238,0.323915715 C3.98629851,-0.0550971355 3.3913917,-0.0899970296 2.96146491,0.159188214 L0.691591313,1.47631022 C1.1215181,1.22712497 1.71642491,1.26202487 2.37354878,1.64103772 L5.37884185,3.37346846 L7.64871545,2.05634646 L4.64342238,0.323915715 Z" id="Fill-17" fill="url(#linearGradient-45)"></path>
                                            <path d="M7.64857563,2.05634646 L5.37870203,3.37346846 C5.97221071,3.71548743 6.45247039,4.54610491 6.45037319,5.22665284 L6.44547971,7.00654744 C6.44408157,7.30878052 6.33712418,7.52236788 6.1644544,7.62218157 L8.434328,6.30505957 C8.60699778,6.20524587 8.71465424,5.99165852 8.71535331,5.68942544 L8.72025363,3.90953084 C8.72234399,3.2289829 8.24208431,2.39836542 7.64857563,2.05634646" id="Fill-19" fill="url(#linearGradient-46)"></path>
                                            <path d="M7.64857563,2.05634646 L5.37870203,3.37346846 C5.97221071,3.71548743 6.45247039,4.54610491 6.45037319,5.22665284 L8.72025363,3.90953084 C8.72234399,3.2289829 8.24208431,2.39836542 7.64857563,2.05634646" id="Fill-21" fill="url(#linearGradient-47)"></path>
                                            <path d="M5.37863213,3.37339866 L2.37333906,1.64096792 C1.06608201,0.887828204 0.00559594395,1.49438836 0.000702468376,2.99438581 L0,3.29103491 C-0.00139473544,3.90108506 0.428532047,4.6451508 0.960522749,4.95157188 L5.47580257,7.55440598 C6.01058954,7.86292104 6.4433126,7.61652779 6.4454098,7.00647764 L6.45031012,5.22658304 C6.45240048,4.54603511 5.97214081,3.71541763 5.37863213,3.37339866" id="Fill-23" stroke="url(#linearGradient-49)" stroke-width="0.2" fill="url(#linearGradient-48)"></path>
                                        </g>
                                        <path d="M6.73076934,6.23281679 C6.73076934,6.86520287 7.17537655,7.12206609 7.72484395,6.80587305 C8.27291321,6.48968001 8.71821949,5.71978834 8.71821949,5.08740226 C8.71821949,4.45431818 8.27291321,4.19815296 7.72484395,4.514346 C7.17537655,4.83053904 6.73076934,5.60043071 6.73076934,6.23281679" id="Fill-25" fill="#64AED8"></path>
                                        <path d="M3.77566934,4.20820413 C3.49674123,4.04766462 3.27024322,4.17749222 3.27024322,4.49926925 C3.27024322,4.82174427 3.49674123,5.21262308 3.77566934,5.37386059 C4.05459745,5.53440011 4.28109546,5.4038745 4.28109546,5.08209748 C4.28109546,4.76032046 4.05459745,4.36874364 3.77566934,4.20820413 L3.77566934,4.20820413 Z M2.86058941,4.49787325 L0.692080661,3.24775904 L0.692080661,3.54091815 L2.86058941,4.79103236 L2.86058941,4.49787325 Z M2.86058941,4.10629644 L0.692080661,2.85618223 L0.692080661,2.56302312 L2.86058941,3.81313733 L2.86058941,4.10629644 Z" id="Fill-27" fill="#053F5E"></path>
                                    </g>
                                    <g id="编组" transform="translate(14.569275, 18.707739)">
                                        <mask id="mask-51" fill="white">
                                            <use xlink:href="#path-50"></use>
                                        </mask>
                                        <g id="Clip-30"></g>
                                        <path d="M0,0.640064058 L2.21115189,2.51488637 C2.23561927,2.5365243 2.26218385,2.55537025 2.2894475,2.5707262 L2.2894475,2.5707262 L2.31880836,2.58817615 C2.42296948,2.65239195 2.54810264,2.67751988 2.68791623,2.66355992 L2.68791623,2.66355992 L13.4283961,1.57956921 C13.6164453,1.47207753 13.9079567,0.63936606 13.7632496,0.57026427 L13.7632496,0.57026427 L13.7254999,0.547928338 C13.7192083,0.544438348 13.7115186,0.542344355 13.7038288,0.541646357 L13.7038288,0.541646357 L0.236284964,0 L0,0.640064058 Z" id="Fill-29" fill="url(#linearGradient-52)" mask="url(#mask-51)"></path>
                                    </g>
                                    <g id="编组" transform="translate(11.800122, 17.213326)">
                                        <mask id="mask-54" fill="white">
                                            <use xlink:href="#path-53"></use>
                                        </mask>
                                        <g id="Clip-32"></g>
                                        <path d="M0.937595038,0.137505583 C0.410497812,0.449510636 -0.0089429521,1.19287838 0.000144931115,1.79594855 L0.000144931115,1.79594855 C0.00503840669,2.09329565 0.112694869,2.30129902 0.283267447,2.39901872 L0.283267447,2.39901872 L1.73942596,3.23312619 C1.7429213,3.23522018 1.74501851,3.24220016 1.74921292,3.24429416 L1.74921292,3.24429416 L2.33433278,3.57933314 C2.1637602,3.48161344 2.05610374,3.27361007 2.05121027,2.97696097 L2.05121027,2.97696097 C2.04282145,2.3724948 2.46156315,1.62982506 2.9879613,1.31782 L2.9879613,1.31782 C3.25640339,1.15937448 3.49967904,1.14262253 3.67654323,1.24313423 L3.67654323,1.24313423 L3.10190938,0.914377226 C3.11029819,0.917867215 3.12078421,0.919263211 3.12917303,0.924149196 L3.12917303,0.924149196 L1.62477882,0.0621218115 C1.55277482,0.0209399365 1.46888667,0 1.3766097,0 L1.3766097,0 C1.24448586,0 1.09488532,0.0439738666 0.937595038,0.137505583" id="Fill-31" fill="url(#linearGradient-55)" mask="url(#mask-54)"></path>
                                    </g>
                                    <g id="编组" transform="translate(13.851208, 18.393640)">
                                        <mask id="mask-57" fill="white">
                                            <use xlink:href="#path-56"></use>
                                        </mask>
                                        <g id="Clip-34"></g>
                                        <path d="M0.93687491,0.137505583 C0.410476752,0.449510636 -0.00826494423,1.19218038 0.000123871044,1.79664655 L0.000123871044,1.79664655 C0.00501734662,2.09329565 0.112673809,2.30129902 0.283246387,2.39901872 L0.283246387,2.39901872 C0.40418514,2.46253653 0.629984085,2.58049817 0.950157201,2.57770618 L0.950157201,2.57770618 C1.20182166,2.57561219 1.4276206,2.51349037 1.63943819,2.38785076 L1.63943819,2.38785076 C2.14416524,2.09050366 2.31054341,1.56630725 2.30075646,1.20753634 L2.30075646,1.20753634 C2.29236764,0.926941188 2.19449813,0.404140774 1.62545683,0.0628198094 L1.62545683,0.0628198094 C1.55275376,0.0209399365 1.46886561,0 1.37658864,0 L1.37658864,0 C1.2444648,0 1.09486426,0.0439738666 0.93687491,0.137505583" id="Fill-33" fill="url(#radialGradient-58)" mask="url(#mask-57)"></path>
                                    </g>
                                    <g id="编组" transform="translate(13.541643, 0.000000)">
                                        <mask id="mask-60" fill="white">
                                            <use xlink:href="#path-59"></use>
                                        </mask>
                                        <g id="Clip-36"></g>
                                        <path d="M0.426433119,0.107491674 C0.217411805,0.228245308 -0.000697391926,0.422288719 0,0.555606314 L0,0.555606314 L0.0789963532,18.0509232 L0.120241362,18.0739572 L0.617977735,17.787778 L1.97347047,13.2842957 C2.04407633,13.0476744 2.07273812,12.8215231 2.05386328,12.6198017 L2.05386328,12.6198017 L0.838883203,0.0851557417 C0.837485068,0.0600278179 0.824901845,0.0446718645 0.807425146,0.035597892 L0.807425146,0.035597892 C0.807425146,0.035597892 0.808124214,0.0348998941 0.808124214,0.0348998941 L0.808124214,0.0348998941 C0.808823282,0.0348998941 0.810221418,0.0348998941 0.810920486,0.0348998941 L0.810920486,0.0348998941 L0.76897641,0.0111679661 C0.756393187,0.00348998941 0.738916488,0 0.718643518,0 L0.718643518,0 C0.648037656,0 0.538983057,0.0425778708 0.426433119,0.107491674" id="Fill-35" fill="url(#linearGradient-61)" mask="url(#mask-60)"></path>
                                    </g>
                                    <g id="编组" transform="translate(0.000000, 19.861530)">
                                        <mask id="mask-63" fill="white">
                                            <use xlink:href="#path-62"></use>
                                        </mask>
                                        <g id="Clip-38"></g>
                                        <path d="M9.48984728,2.72219174 C9.30808962,2.86528131 9.14101238,3.05025075 8.99630531,3.26663009 L8.99630531,3.26663009 L0.0363515329,16.821749 C0.011884155,16.8573469 0.00069906794,16.8971327 0,16.9397106 L0,16.9397106 L0,16.9522746 C0.0034953397,17.0953641 0.118142482,17.2579976 0.243974711,17.3305894 L0.243974711,17.3305894 L0.285219719,17.3543213 C0.278928108,17.3508314 0.273335564,17.3438514 0.267743021,17.3396634 L0.267743021,17.3396634 C0.34254329,17.3892212 0.423635171,17.4108592 0.487949422,17.3731673 L0.487949422,17.3731673 C0.506824256,17.3626973 0.525000023,17.3466434 0.540379517,17.3264014 L0.540379517,17.3264014 L13.2585225,0.344810954 L12.985886,0.023731928 L12.9453401,0 L9.48984728,2.72219174 Z" id="Fill-37" fill="url(#linearGradient-64)" mask="url(#mask-63)"></path>
                                    </g>
                                    <path d="M32.3359283,54.3730439 C29.4520566,55.9768454 24.7758867,55.9768454 21.8857863,54.3730439 C19.0065861,52.7677421 19.0065861,50.1647528 21.8857863,48.5624515 C24.7758867,46.9586501 29.4520566,46.9586501 32.3359283,48.5624515 C35.2213572,50.1647528 35.2213572,52.7677421 32.3359283,54.3730439" id="投影" fill="#005F7C" opacity="0.670000017" filter="url(#filter-65)"></path>
                                    <g id="编组" transform="translate(14.913316, 18.648160)">
                                        <g transform="translate(6.645934, 26.962808)">
                                            <g transform="translate(0.000000, 3.334039)">
                                                <mask id="mask-67" fill="white">
                                                    <use xlink:href="#path-66"></use>
                                                </mask>
                                                <g id="Clip-42"></g>
                                                <path d="M9.90859474,2.38645476 C7.65410063,3.69520079 3.98469302,3.69520079 1.71412035,2.38575676 C0.571843336,1.72754476 0.00140389744,0.863423381 0.00420016919,0 L-2.48358823e-15,1.30106805 C-0.00209144226,2.16449143 0.568347996,3.02861281 1.70992594,3.68682481 C3.98119768,4.99626884 7.65060529,4.99557084 9.9050994,3.68752281 C11.0257053,3.03768678 11.5863578,2.18682737 11.588455,1.33526995 L11.5926494,0.0342018962 C11.5898531,0.885759313 11.0292006,1.73661873 9.90859474,2.38645476" id="Fill-41" fill="url(#linearGradient-68)" mask="url(#mask-67)"></path>
                                            </g>
                                            <g id="Fill-43">
                                                <use fill="url(#linearGradient-69)" fill-rule="evenodd" xlink:href="#path-71"></use>
                                                <use fill="black" fill-opacity="1" filter="url(#filter-72)" xlink:href="#path-71"></use>
                                                <use stroke="url(#linearGradient-70)" stroke-width="0.2" xlink:href="#path-71"></use>
                                            </g>
                                            <path d="M6.03967313,0.0142915241 C4.47096468,-0.026890351 2.88128418,0.287906694 1.68727614,0.981018591 C0.28284865,1.79628012 -0.228869082,2.92564069 0.12346116,3.9789195 L6.03967313,3.9789195 L6.03967313,0.0142915241 Z" id="Fill-45" fill="#2E91D5"></path>
                                        </g>
                                        <g transform="translate(9.734416, 22.467859)">
                                            <g transform="translate(0.000000, 1.551894)">
                                                <mask id="mask-74" fill="white">
                                                    <use xlink:href="#path-73"></use>
                                                </mask>
                                                <g id="Clip-48"></g>
                                                <path d="M0,5.38993965 C-0.00139263142,5.79128843 0.263554118,6.19403321 0.79554482,6.50115228 L0.79554482,6.50115228 C1.85183648,7.10980643 3.56105759,7.10980643 4.61035857,6.50115228 L4.61035857,6.50115228 C5.13256232,6.1982212 5.39261559,5.8017584 5.39401373,5.4052956 L5.39401373,5.4052956 L5.3989072,0.0160539513 C5.39820813,0.412516748 5.13745579,0.808979546 4.61525204,1.11121263 L4.61525204,1.11121263 C3.56595106,1.72056478 1.85672995,1.72056478 0.801137363,1.11121263 L0.801137363,1.11121263 C0.269146661,0.804093561 0.00350084416,0.40204678 0.00489898004,0 L0.00489898004,0 L0,5.38993965 Z" id="Fill-47" fill="url(#linearGradient-75)" mask="url(#mask-74)"></path>
                                            </g>
                                            <g id="Fill-49">
                                                <use fill="url(#linearGradient-38)" fill-rule="evenodd" xlink:href="#path-76"></use>
                                                <use fill="black" fill-opacity="1" filter="url(#filter-77)" xlink:href="#path-76"></use>
                                                <use stroke="url(#linearGradient-39)" stroke-width="0.2" xlink:href="#path-76"></use>
                                            </g>
                                            <path d="M3.04123067,1.86955243 C3.04822135,1.68807298 3.05870737,1.50659353 3.09086449,1.32930207 C3.16776197,0.901429365 3.26423334,0.478442648 3.35091777,0.0526639402 C2.46030521,-0.076465668 1.48230916,0.054059936 0.7881347,0.456804714 C-0.179375329,1.01869301 -0.239495172,1.89956634 0.586104065,2.51171048 L2.89792174,2.51171048 C2.91469937,2.29044515 2.9643332,2.0768578 3.04123067,1.86955243" id="Fill-51" fill="#2E91D5"></path>
                                        </g>
                                    </g>
                                    <g id="编组" transform="translate(25.402577, 26.008797)">
                                        <mask id="mask-79" fill="white">
                                            <use xlink:href="#path-78"></use>
                                        </mask>
                                        <g id="Clip-54"></g>
                                        <path d="M0.571292362,0 C0.381145883,4.21171922 0.190999403,8.75777943 0.000153855786,16.489502 L0.000153855786,16.489502 C-0.00613775567,16.7847551 0.180513384,17.0807062 0.563602615,17.3096495 L0.563602615,17.3096495 C1.32978108,17.7668381 2.5895015,17.7794021 3.37805014,17.3375694 L3.37805014,17.3375694 C3.78490768,17.1100221 3.98623925,16.804997 3.9806467,16.5013679 L3.9806467,16.5013679 C3.8345415,8.76266542 3.68773724,4.21451121 3.54163204,0 L3.54163204,0 L0.571292362,0 Z" id="Fill-53" fill="url(#linearGradient-80)" mask="url(#mask-79)"></path>
                                    </g>
                                    <g id="编组" transform="translate(22.603170, 22.705268)">
                                        <g>
                                            <path d="M4.64342237,0.323915715 C3.98629851,-0.0550971355 3.39139169,-0.0899970296 2.96146491,0.159188214 L0.691591308,1.47631022 C1.12151809,1.22712497 1.71642491,1.26202487 2.37354877,1.64103772 L5.37884184,3.37346846 L7.64871544,2.05634646 L4.64342237,0.323915715 Z" id="Fill-55" fill="url(#linearGradient-45)"></path>
                                            <path d="M7.64857563,2.05627666 L5.37870203,3.37339866 C5.97221071,3.71541763 6.45247038,4.54603511 6.45037318,5.22658304 L6.4454797,7.00647764 C6.44408157,7.30871072 6.33712417,7.52229808 6.16445439,7.62280977 L8.43432799,6.30498977 C8.60699777,6.20517607 8.71465424,5.99158872 8.7153533,5.68935564 L8.72025362,3.90946104 C8.72234398,3.2289131 8.24208431,2.39829562 7.64857563,2.05627666" id="Fill-57" fill="url(#linearGradient-81)"></path>
                                            <path d="M7.64857563,2.05627666 L5.37870203,3.37339866 C5.97221071,3.71541763 6.45247038,4.54603511 6.45037318,5.22658304 L8.72025362,3.90946104 C8.72234398,3.2289131 8.24208431,2.39829562 7.64857563,2.05627666" id="Fill-59" fill="url(#linearGradient-47)"></path>
                                            <path d="M5.37863212,3.37339866 L2.37333905,1.64096792 C1.066082,0.887828204 0.00559593846,1.49438836 0.000702462878,2.99438581 L0,3.29103491 C-0.00139474094,3.90108506 0.42923111,4.6451508 0.960522744,4.95157188 L5.47580257,7.55440598 C6.01058954,7.86292104 6.44331259,7.61652779 6.4454098,7.00647764 L6.45031012,5.22658304 C6.45240048,4.54603511 5.9721408,3.71541763 5.37863212,3.37339866" id="Fill-61" stroke="url(#linearGradient-49)" stroke-width="0.2" fill="url(#linearGradient-48)"></path>
                                        </g>
                                        <path d="M6.73076933,6.23281679 C6.73076933,6.86590087 7.17537654,7.12206609 7.72484394,6.80587305 C8.27291321,6.48898201 8.71821948,5.71978834 8.71821948,5.08740226 C8.71821948,4.45431818 8.27291321,4.19815296 7.72484394,4.514346 C7.17537654,4.83053904 6.73076933,5.60043071 6.73076933,6.23281679" id="Fill-63" fill="#64AED8"></path>
                                        <path d="M3.77566934,4.20820413 C3.49674123,4.04696662 3.27024322,4.17749222 3.27024322,4.49926925 C3.27024322,4.82174427 3.49674123,5.21262308 3.77566934,5.37386059 C4.05459744,5.53440011 4.28109546,5.4038745 4.28109546,5.08209748 C4.28109546,4.76032046 4.05459744,4.36944164 3.77566934,4.20820413 L3.77566934,4.20820413 Z M2.8605894,4.49787325 L0.692080655,3.24775904 L0.692080655,3.54091815 L2.8605894,4.79103236 L2.8605894,4.49787325 Z M2.8605894,4.10629644 L0.692080655,2.85618223 L0.692080655,2.56302312 L2.8605894,3.81313733 L2.8605894,4.10629644 Z" id="Fill-65" fill="#053F5E"></path>
                                    </g>
                                    <g id="编组" transform="translate(32.197671, 28.640947)">
                                        <mask id="mask-83" fill="white">
                                            <use xlink:href="#path-82"></use>
                                        </mask>
                                        <g id="Clip-68"></g>
                                        <path d="M0,0.640064058 L2.21115189,2.51558437 C2.23631834,2.5365243 2.26288292,2.55537025 2.29014657,2.5714242 L2.29014657,2.5714242 L2.32160463,2.58957214 C2.42506668,2.65239195 2.54950078,2.67821787 2.68791623,2.66355992 L2.68791623,2.66355992 L13.4290951,1.58026721 C13.623436,1.46858754 13.9303268,0.575848253 13.7450738,0.566076283 L13.7450738,0.566076283 C13.7534626,0.566076283 13.7604533,0.568868274 13.7660459,0.571660266 L13.7660459,0.571660266 L13.7254999,0.548626336 C13.7192083,0.545136346 13.7122176,0.542344355 13.7038288,0.542344355 L13.7038288,0.542344355 L0.236284964,0 L0,0.640064058 Z" id="Fill-67" fill="url(#linearGradient-84)" mask="url(#mask-83)"></path>
                                    </g>
                                    <g id="编组" transform="translate(29.429217, 27.146534)">
                                        <mask id="mask-86" fill="white">
                                            <use xlink:href="#path-85"></use>
                                        </mask>
                                        <g id="Clip-70"></g>
                                        <path d="M0.936896207,0.137505583 C0.40979898,0.450208634 -0.00894271571,1.19218038 0.000145167504,1.79664655 L0.000145167504,1.79664655 C0.00433957514,2.09329565 0.111996038,2.30199702 0.282568615,2.39901872 L0.282568615,2.39901872 L1.73872713,3.23312619 C1.74292154,3.23591818 1.74501874,3.24220016 1.74921315,3.24499216 L1.74921315,3.24499216 L2.33433302,3.57933314 C2.16376044,3.48231144 2.05610398,3.27361007 2.0512105,2.97696097 L2.0512105,2.97696097 C2.04212262,2.3731928 2.46156338,1.63052305 2.98796154,1.31782 L2.98796154,1.31782 C3.25570456,1.15937448 3.49967927,1.14192454 3.67584439,1.24313423 L3.67584439,1.24313423 L3.10190962,0.914377226 C3.11029843,0.918565213 3.12078445,0.919961209 3.12917326,0.924847194 L3.12917326,0.924847194 L1.62477906,0.0628198094 C1.55207599,0.0216379344 1.46818784,0 1.37591087,0 L1.37591087,0 C1.24378703,0 1.09418649,0.0439738666 0.936896207,0.137505583" id="Fill-69" fill="url(#linearGradient-87)" mask="url(#mask-86)"></path>
                                    </g>
                                    <g id="编组" transform="translate(31.480283, 28.326848)">
                                        <mask id="mask-89" fill="white">
                                            <use xlink:href="#path-88"></use>
                                        </mask>
                                        <g id="Clip-72"></g>
                                        <path d="M0.936895971,0.137505583 C0.410497812,0.450208634 -0.00894295126,1.19287838 0.000144931958,1.79664655 L0.000144931958,1.79664655 C0.00503840754,2.09329565 0.11269487,2.30199702 0.283267447,2.39901872 L0.283267447,2.39901872 C0.404206201,2.46253653 0.630005145,2.58049817 0.949479194,2.57770618 L0.949479194,2.57770618 C1.20184272,2.57561219 1.4269426,2.51418837 1.63945925,2.38854875 L1.63945925,2.38854875 C2.14348723,2.09050366 2.31056447,1.56700525 2.30007845,1.20823433 L2.30007845,1.20823433 C2.29238871,0.927639186 2.19382013,0.404838772 1.62477882,0.0628198094 L1.62477882,0.0628198094 C1.55277483,0.0216379344 1.46888667,0 1.3766097,0 L1.3766097,0 C1.2437868,0 1.09488533,0.0439738666 0.936895971,0.137505583" id="Fill-71" fill="url(#radialGradient-90)" mask="url(#mask-89)"></path>
                                    </g>
                                    <g id="编组" transform="translate(31.170041, 9.933906)">
                                        <mask id="mask-92" fill="white">
                                            <use xlink:href="#path-91"></use>
                                        </mask>
                                        <g id="Clip-74"></g>
                                        <path d="M0.426431443,0.107491674 C0.218109197,0.22754731 0,0.422288719 0,0.555606314 L0,0.555606314 L0.0789946772,18.0502252 L0.120938754,18.0739572 L0.617976059,17.787778 L1.97416786,13.2842957 C2.04407466,13.0469764 2.07343551,12.8215231 2.05386161,12.6191037 L2.05386161,12.6191037 L0.838881527,0.0844577438 C0.83818246,0.05932982 0.824900169,0.0446718645 0.80742347,0.0348998941 L0.80742347,0.0348998941 C0.80742347,0.0348998941 0.808122538,0.0348998941 0.808122538,0.0348998941 L0.808122538,0.0348998941 C0.809520674,0.0348998941 0.810219742,0.0348998941 0.81091881,0.0348998941 L0.81091881,0.0348998941 L0.769673801,0.0104699682 C0.757090579,0.00348998941 0.73961388,0 0.71934091,0 L0.71934091,0 C0.648735048,0 0.538981381,0.0425778708 0.426431443,0.107491674" id="Fill-73" fill="url(#linearGradient-93)" mask="url(#mask-92)"></path>
                                    </g>
                                    <g id="编组" transform="translate(17.628541, 29.795436)">
                                        <mask id="mask-95" fill="white">
                                            <use xlink:href="#path-94"></use>
                                        </mask>
                                        <g id="Clip-76"></g>
                                        <path d="M9.48970271,2.72079575 C9.30794505,2.86458331 9.14086781,3.05025075 8.99685982,3.26593209 L8.99685982,3.26593209 L0.0362069668,16.821749 C-0.0707504279,16.9774025 0.0774519753,17.2335677 0.243830145,17.3305894 L0.243830145,17.3305894 L0.285774221,17.3543213 C0.27948261,17.3508314 0.273890066,17.3438514 0.267598455,17.3389654 L0.267598455,17.3389654 C0.343097792,17.3892212 0.423490605,17.4108592 0.487804856,17.3731673 L0.487804856,17.3731673 C0.507378758,17.3626973 0.524855457,17.3466434 0.540234951,17.3257034 L0.540234951,17.3257034 L13.259077,0.344112956 L12.9864405,0.023731928 L12.9458946,0 L9.48970271,2.72079575 Z" id="Fill-75" fill="url(#linearGradient-96)" mask="url(#mask-95)"></path>
                                    </g>
                                </g>
                                <text id="Windpower" transform="translate(62.945299, 102.922037) rotate(31.999989) translate(-62.945299, -102.922037) " font-family="PingFangSC-Semibold, PingFang SC" font-size="12" font-weight="500" line-spacing="18" fill="#ACD9FF">
                                    <tspan x="30.9592989" y="106.922037">Windpower</tspan>
                                </text>
                            </g>
                        </g>
                    </g>
                </g>
            </g>
        </g>
    </g>
</svg>