<?xml version="1.0" encoding="UTF-8"?>
<svg width="109px" height="115px" viewBox="0 0 109 115" version="1.1" xmlns="http://www.w3.org/2000/svg" xmlns:xlink="http://www.w3.org/1999/xlink">
    <title>icon_风力发电机</title>
    <defs>
        <filter x="-5.6%" y="-9.3%" width="111.3%" height="118.7%" filterUnits="objectBoundingBox" id="filter-1">
            <feGaussianBlur stdDeviation="1.82430802" in="SourceGraphic"></feGaussianBlur>
        </filter>
        <linearGradient x1="0.0078%" y1="49.9998%" x2="99.9872%" y2="49.9998%" id="linearGradient-2">
            <stop stop-color="#002A4D" offset="0%"></stop>
            <stop stop-color="#1773C3" offset="52.6000023%"></stop>
            <stop stop-color="#1772C1" offset="53.2999992%"></stop>
            <stop stop-color="#002A4D" offset="100%"></stop>
        </linearGradient>
        <linearGradient x1="171.4315%" y1="217.612335%" x2="-40070.9778%" y2="-36075.1053%" id="linearGradient-3">
            <stop stop-color="#2071BE" offset="0%"></stop>
            <stop stop-color="#2071BE" offset="0.999999978%"></stop>
            <stop stop-color="#002141" offset="100%"></stop>
        </linearGradient>
        <linearGradient x1="171.4276%" y1="217.573298%" x2="-40070.9869%" y2="-36063.945%" id="linearGradient-4">
            <stop stop-color="#2071BE" offset="0%"></stop>
            <stop stop-color="#2071BE" offset="0.999999978%"></stop>
            <stop stop-color="#002141" offset="100%"></stop>
        </linearGradient>
        <linearGradient x1="49.9915%" y1="99.9034%" x2="49.9915%" y2="0%" id="linearGradient-5">
            <stop stop-color="#C7E4FF" offset="0%"></stop>
            <stop stop-color="#216CB4" stop-opacity="0" offset="100%"></stop>
        </linearGradient>
        <linearGradient x1="49.9915%" y1="99.96%" x2="49.9915%" y2="0.0376%" id="linearGradient-6">
            <stop stop-color="#0084FF" offset="0%"></stop>
            <stop stop-color="#216CB4" stop-opacity="0" offset="100%"></stop>
        </linearGradient>
        <linearGradient x1="50%" y1="0%" x2="50%" y2="100%" id="linearGradient-7">
            <stop stop-color="#064682" offset="0%"></stop>
            <stop stop-color="#03182B" offset="100%"></stop>
        </linearGradient>
        <linearGradient x1="-0.0077%" y1="49.9976%" x2="100.0047%" y2="49.9976%" id="linearGradient-8">
            <stop stop-color="#002141" offset="0%"></stop>
            <stop stop-color="#2E7CC7" offset="50.7522702%"></stop>
            <stop stop-color="#002141" offset="100%"></stop>
        </linearGradient>
        <radialGradient cx="50%" cy="4.0774%" fx="50%" fy="4.0774%" r="95.9226%" gradientTransform="translate(0.500000,0.040774),scale(0.586096,1.000000),rotate(90.000000),scale(1.000000,1.702688),translate(-0.500000,-0.040774)" id="radialGradient-9">
            <stop stop-color="#001020" offset="0%"></stop>
            <stop stop-color="#004180" offset="99.2366433%"></stop>
        </radialGradient>
        <linearGradient x1="218.7468%" y1="281.489197%" x2="-40022.4426%" y2="-33911.0281%" id="linearGradient-10">
            <stop stop-color="#00AEFF" offset="0%"></stop>
            <stop stop-color="#002141" offset="100%"></stop>
        </linearGradient>
        <linearGradient x1="50%" y1="0%" x2="50%" y2="100%" id="linearGradient-11">
            <stop stop-color="#1AB2FF" offset="0%"></stop>
            <stop stop-color="#8AD7FF" offset="100%"></stop>
        </linearGradient>
        <linearGradient x1="50%" y1="0%" x2="50%" y2="100%" id="linearGradient-12">
            <stop stop-color="#0095FF" offset="0%"></stop>
            <stop stop-color="#0095C4" offset="99.662596%"></stop>
        </linearGradient>
        <linearGradient x1="50%" y1="0%" x2="50%" y2="100%" id="linearGradient-13">
            <stop stop-color="#2C4C69" offset="0%"></stop>
            <stop stop-color="#00B9FF" offset="100%"></stop>
        </linearGradient>
        <linearGradient x1="50.0036%" y1="100.0101%" x2="50.0036%" y2="0%" id="linearGradient-14">
            <stop stop-color="#37D5FC" offset="0%"></stop>
            <stop stop-color="#000000" stop-opacity="0" offset="100%"></stop>
        </linearGradient>
        <linearGradient x1="37.3647%" y1="66.0402677%" x2="62.6353%" y2="33.9597323%" id="linearGradient-15">
            <stop stop-color="#04294D" stop-opacity="0" offset="0%"></stop>
            <stop stop-color="#43FF85" offset="100%"></stop>
        </linearGradient>
        <linearGradient x1="50.0043%" y1="100.0782%" x2="50.0043%" y2="0%" id="linearGradient-16">
            <stop stop-color="#DCF2FF" offset="0%"></stop>
            <stop stop-color="#0C4B87" stop-opacity="0" offset="100%"></stop>
        </linearGradient>
        <filter x="-41.6%" y="-75.9%" width="183.2%" height="251.8%" filterUnits="objectBoundingBox" id="filter-17">
            <feGaussianBlur stdDeviation="2.04773259" in="SourceGraphic"></feGaussianBlur>
        </filter>
        <path d="M0.00350556998,0 C0.00140836616,0.850341208 0.571847805,1.70136984 1.71342575,2.35029635 C3.98399842,3.6392129 7.6541051,3.6392129 9.90859921,2.35098378 C11.0292051,1.71030633 11.5898576,0.873026139 11.5919548,0.0336836857 L11.5919548,0.0336836857 L11.5884595,1.31503859 C11.5856632,2.15438104 11.0250107,2.99166123 9.90510387,3.63165125 C7.64991069,4.9205678 3.98050308,4.9205678 1.70993041,3.63096383 C0.567653397,2.98272474 -0.00278604148,2.13169611 0,1.2813549 L0,1.2813549" id="path-18"></path>
        <linearGradient x1="100%" y1="52.7022849%" x2="0%" y2="52.9120824%" id="linearGradient-20">
            <stop stop-color="#18689C" offset="0%"></stop>
            <stop stop-color="#66C1FD" offset="48.9383042%"></stop>
            <stop stop-color="#18689C" offset="100%"></stop>
        </linearGradient>
        <linearGradient x1="50%" y1="0%" x2="50%" y2="100%" id="linearGradient-21">
            <stop stop-color="#338DC5" offset="0%"></stop>
            <stop stop-color="#90D3FF" offset="100%"></stop>
        </linearGradient>
        <linearGradient x1="50%" y1="0%" x2="50%" y2="100%" id="linearGradient-22">
            <stop stop-color="#5BABDE" stop-opacity="0" offset="0%"></stop>
            <stop stop-color="#AFE0FF" offset="100%"></stop>
        </linearGradient>
        <path d="M9.88042677,0.966429642 C12.1509994,2.25534619 12.1642817,4.34510954 9.90838949,5.63402609 C7.65389538,6.92294263 3.98448777,6.92294263 1.7139151,5.63333867 C-0.555958502,4.34510954 -0.567842657,2.25465876 1.68665145,0.966429642 C3.94254369,-0.322486902 7.61125224,-0.32179948 9.88042677,0.966429642" id="path-23"></path>
        <filter x="-65.6%" y="-115.1%" width="231.2%" height="330.3%" filterUnits="objectBoundingBox" id="filter-24">
            <feGaussianBlur stdDeviation="7.5" in="SourceAlpha" result="shadowBlurInner1"></feGaussianBlur>
            <feOffset dx="0" dy="0" in="shadowBlurInner1" result="shadowOffsetInner1"></feOffset>
            <feComposite in="shadowOffsetInner1" in2="SourceAlpha" operator="arithmetic" k2="-1" k3="1" result="shadowInnerInner1"></feComposite>
            <feColorMatrix values="0 0 0 0 0.235294119   0 0 0 0 0.68235296   0 0 0 0 0.992156863  0 0 0 1 0" type="matrix" in="shadowInnerInner1"></feColorMatrix>
        </filter>
        <path d="M0.00489898002,0 L0.00946535417,0.091184969 C0.0466403681,0.455630727 0.310714316,0.814489499 0.801137363,1.09368865 L0.801137363,1.09368865 L0.949100923,1.17180339 C2.01144929,1.69256828 3.61434563,1.66653003 4.61595111,1.09368865 L4.61595111,1.09368865 L4.73167024,1.02339418 C5.1760369,0.735964737 5.39831568,0.375544012 5.39960627,0.0151232875 L5.39960627,0.0151232875 L5.39471279,5.32270976 L5.38978559,5.41277301 C5.351656,5.77269061 5.09244657,6.12657066 4.61105763,6.40196255 L4.61105763,6.40196255 L4.46391716,6.4799878 C3.40708499,7.00015617 1.80452229,6.97414775 0.796243888,6.40196255 L0.796243888,6.40196255 L0.678067677,6.33053447 C0.224369085,6.038483 -0.00128508252,5.672449 0,5.30758647 L0,5.30758647 L0.00489898002,0 Z" id="path-25"></path>
        <linearGradient x1="81.0540481%" y1="67.1735%" x2="18.9459519%" y2="68.5068%" id="linearGradient-27">
            <stop stop-color="#1A73AD" offset="0%"></stop>
            <stop stop-color="#66C1FD" offset="48.9383042%"></stop>
            <stop stop-color="#18689C" offset="100%"></stop>
        </linearGradient>
        <linearGradient x1="50%" y1="0%" x2="50%" y2="100%" id="linearGradient-28">
            <stop stop-color="#338DC5" offset="0%"></stop>
            <stop stop-color="#90D3FF" offset="100%"></stop>
        </linearGradient>
        <linearGradient x1="50%" y1="0%" x2="50%" y2="100%" id="linearGradient-29">
            <stop stop-color="#5BABDE" stop-opacity="0" offset="0%"></stop>
            <stop stop-color="#AFE0FF" offset="100%"></stop>
        </linearGradient>
        <path d="M4.60336789,0.450089657 C5.65965954,1.04952178 5.66665022,2.02222413 4.61595111,2.6230311 C3.56665013,3.22246322 1.85742902,3.22246322 0.801137363,2.6230311 C-0.256552429,2.02222413 -0.260746837,1.04952178 0.78855414,0.450089657 C1.83925325,-0.150029886 3.54567809,-0.150029886 4.60336789,0.450089657" id="path-30"></path>
        <filter x="-140.9%" y="-247.3%" width="381.7%" height="594.7%" filterUnits="objectBoundingBox" id="filter-31">
            <feGaussianBlur stdDeviation="7.5" in="SourceAlpha" result="shadowBlurInner1"></feGaussianBlur>
            <feOffset dx="0" dy="0" in="shadowBlurInner1" result="shadowOffsetInner1"></feOffset>
            <feComposite in="shadowOffsetInner1" in2="SourceAlpha" operator="arithmetic" k2="-1" k3="1" result="shadowInnerInner1"></feComposite>
            <feColorMatrix values="0 0 0 0 0.235294119   0 0 0 0 0.68235296   0 0 0 0 0.992156863  0 0 0 1 0" type="matrix" in="shadowInnerInner1"></feColorMatrix>
        </filter>
        <path d="M1.53673992,0.137484431 C1.36616735,0.231661267 1.27878385,0.356084677 1.27598758,0.481882932 L1.27598758,0.481882932 C0.850255208,17.5058926 0.425920969,18.8491155 0.000188593399,35.8724378 L0.000188593399,35.8724378 C-0.006802086,36.16253 0.180548122,36.4546844 0.562938285,36.6801589 L0.562938285,36.6801589 C1.32911675,37.1304204 2.58953624,37.142794 3.37738581,36.7076558 L3.37738581,36.7076558 C3.78424335,36.4835561 3.98627398,36.1831527 3.98068144,35.884124 L3.98068144,35.884124 C3.65351765,18.858052 3.32635385,17.5120794 2.99919005,0.486694887 L2.99919005,0.486694887 C2.99709285,0.365708587 2.91600097,0.244034866 2.75521534,0.149170608 L2.75521534,0.149170608 C2.5860409,0.0501818175 2.36024196,0 2.13514208,0 L2.13514208,0 C1.91913009,0 1.70381716,0.0453698624 1.53673992,0.137484431" id="path-32"></path>
        <linearGradient x1="14.1408158%" y1="37.7192015%" x2="83.2801087%" y2="37.7192015%" id="linearGradient-34">
            <stop stop-color="#007DB7" offset="0%"></stop>
            <stop stop-color="#A4DCF8" offset="100%"></stop>
        </linearGradient>
        <linearGradient x1="13.9973%" y1="38.5974325%" x2="87.6939721%" y2="59.7371469%" id="linearGradient-35">
            <stop stop-color="#81D1FC" offset="0%"></stop>
            <stop stop-color="#3CA8E1" offset="100%"></stop>
        </linearGradient>
        <linearGradient x1="44.5450068%" y1="1.80154438e-14%" x2="61.5510112%" y2="100%" id="linearGradient-36">
            <stop stop-color="#40ACE7" offset="0%"></stop>
            <stop stop-color="#0C6D9F" offset="100%"></stop>
        </linearGradient>
        <linearGradient x1="13.9973%" y1="6.34691165%" x2="99.9999%" y2="93.6530883%" id="linearGradient-37">
            <stop stop-color="#59C3FE" offset="0%"></stop>
            <stop stop-color="#0D71A6" offset="100%"></stop>
        </linearGradient>
        <linearGradient x1="0%" y1="-2.18046589%" x2="94.8326%" y2="100.345516%" id="linearGradient-38">
            <stop stop-color="#51AEE2" offset="0%"></stop>
            <stop stop-color="#2689BF" offset="100%"></stop>
        </linearGradient>
        <linearGradient x1="12.5105003%" y1="77.736739%" x2="119.884484%" y2="50%" id="linearGradient-39">
            <stop stop-color="#6FCAFE" offset="0%"></stop>
            <stop stop-color="#9EDBFD" offset="100%"></stop>
        </linearGradient>
        <path d="M0,0.630366118 L2.21115189,2.47678203 C2.23561927,2.49809212 2.26218385,2.51665252 2.2894475,2.5317758 L2.2894475,2.5317758 L2.31880836,2.54896136 C2.42296948,2.6122042 2.54810264,2.63695139 2.68791623,2.62320295 L2.68791623,2.62320295 L13.4283961,1.55563634 C13.6164453,1.44977333 13.9079567,0.629678696 13.7632496,0.561623902 L13.7632496,0.561623902 L13.7254999,0.539626393 C13.7192083,0.536189282 13.7115186,0.534127016 13.7038288,0.533439594 L13.7038288,0.533439594 L0.236284964,0 L0,0.630366118 Z" id="path-40"></path>
        <linearGradient x1="75.7198713%" y1="50%" x2="16.5754611%" y2="50%" id="linearGradient-42">
            <stop stop-color="#AFE0FF" offset="0%"></stop>
            <stop stop-color="#AFE0FF" offset="0%"></stop>
            <stop stop-color="#61C0FD" offset="100%"></stop>
        </linearGradient>
        <path d="M0.937595038,0.135422165 C0.410497812,0.442699869 -0.0089429521,1.17480447 0.000144931115,1.76873721 L0.000144931115,1.76873721 C0.00503840669,2.06157905 0.112694869,2.26643085 0.283267447,2.36266995 L0.283267447,2.36266995 L1.73942596,3.18413943 C1.7429213,3.1862017 1.74501851,3.19307592 1.74921292,3.19513819 L1.74921292,3.19513819 L2.33433278,3.52510082 C2.1637602,3.42886172 2.05610374,3.22400992 2.05121027,2.9318555 L2.05121027,2.9318555 C2.04282145,2.33654791 2.46156315,1.60513074 2.9879613,1.29785303 L2.9879613,1.29785303 C3.25640339,1.1418082 3.49967904,1.12531007 3.67654323,1.22429886 L3.67654323,1.22429886 L3.10190938,0.900523026 C3.11029819,0.903960136 3.12078421,0.905334981 3.12917303,0.910146936 L3.12917303,0.910146936 L1.62477882,0.061180572 C1.55277482,0.0206226647 1.46888667,0 1.3766097,0 L1.3766097,0 C1.24448586,0 1.09488532,0.0433075959 0.937595038,0.135422165" id="path-43"></path>
        <linearGradient x1="65.7094085%" y1="10.2449407%" x2="18.4484455%" y2="70.5809381%" id="linearGradient-45">
            <stop stop-color="#FFFFFF" offset="0%"></stop>
            <stop stop-color="#0A6CA5" offset="100%"></stop>
        </linearGradient>
        <path d="M0.93687491,0.135422165 C0.410476752,0.442699869 -0.00826494423,1.17411704 0.000123871044,1.76942463 L0.000123871044,1.76942463 C0.00501734662,2.06157905 0.112673809,2.26643085 0.283246387,2.36266995 L0.283246387,2.36266995 C0.40418514,2.42522537 0.629984085,2.54139971 0.950157201,2.53865003 L0.950157201,2.53865003 C1.20182166,2.53658776 1.4276206,2.47540719 1.63943819,2.3516712 L1.63943819,2.3516712 C2.14416524,2.05882936 2.31054341,1.54257532 2.30075646,1.18924033 L2.30075646,1.18924033 C2.29236764,0.912896624 2.19449813,0.398017429 1.62545683,0.0618679941 L1.62545683,0.0618679941 C1.55275376,0.0206226647 1.46886561,0 1.37658864,0 L1.37658864,0 C1.2444648,0 1.09486426,0.0433075959 0.93687491,0.135422165" id="path-46"></path>
        <radialGradient cx="57.110432%" cy="23.670579%" fx="57.110432%" fy="23.670579%" r="72.1933092%" gradientTransform="translate(0.571104,0.236706),scale(1.000000,0.906433),rotate(110.096362),translate(-0.571104,-0.236706)" id="radialGradient-48">
            <stop stop-color="#F6FCFF" offset="0%"></stop>
            <stop stop-color="#207BB0" offset="100%"></stop>
        </radialGradient>
        <path d="M0.426433119,0.105863012 C0.217411805,0.224787045 -0.000697391926,0.415890405 0,0.547188037 L0,0.547188037 L0.0789963532,17.7774244 L0.120241362,17.8001093 L0.617977735,17.5182662 L1.97347047,13.0830185 C2.04407633,12.8499824 2.07273812,12.6272576 2.05386328,12.4285926 L2.05386328,12.4285926 L0.838883203,0.0838655031 C0.837485068,0.0591183055 0.824901845,0.043995018 0.807425146,0.03505853 L0.807425146,0.03505853 C0.807425146,0.03505853 0.808124214,0.0343711078 0.808124214,0.0343711078 L0.808124214,0.0343711078 C0.808823282,0.0343711078 0.810221418,0.0343711078 0.810920486,0.0343711078 L0.810920486,0.0343711078 L0.76897641,0.0109987545 C0.756393187,0.00343711078 0.738916488,0 0.718643518,0 L0.718643518,0 C0.648037656,0 0.538983057,0.0419327516 0.426433119,0.105863012" id="path-49"></path>
        <linearGradient x1="50.2579766%" y1="-4.33634117%" x2="49.7376058%" y2="112.268968%" id="linearGradient-51">
            <stop stop-color="#C7E9FF" offset="0%"></stop>
            <stop stop-color="#7DCCFF" offset="100%"></stop>
        </linearGradient>
        <path d="M9.48984728,2.68094641 C9.30808962,2.82186795 9.14101238,3.00403483 8.99630531,3.21713569 L8.99630531,3.21713569 L0.0363515329,16.566874 C0.011884155,16.6019325 0.00069906794,16.6411156 0,16.6830483 L0,16.6830483 L0,16.6954219 C0.0034953397,16.8363435 0.118142482,16.9965128 0.243974711,17.0680047 L0.243974711,17.0680047 L0.285219719,17.0913771 C0.278928108,17.08794 0.273335564,17.0810658 0.267743021,17.0769412 L0.267743021,17.0769412 C0.34254329,17.1257482 0.423635171,17.1470583 0.487949422,17.1099375 L0.487949422,17.1099375 C0.506824256,17.0996262 0.525000023,17.0838154 0.540379517,17.0638802 L0.540379517,17.0638802 L13.2585225,0.339586546 L12.985886,0.0233723533 L12.9453401,0 L9.48984728,2.68094641 Z" id="path-52"></path>
        <linearGradient x1="75.7198713%" y1="50%" x2="19.7293549%" y2="50%" id="linearGradient-54">
            <stop stop-color="#75C8FD" offset="0%"></stop>
            <stop stop-color="#A9DEFF" offset="100%"></stop>
            <stop stop-color="#AFE0FF" offset="100%"></stop>
        </linearGradient>
        <filter x="-41.6%" y="-75.9%" width="183.2%" height="251.8%" filterUnits="objectBoundingBox" id="filter-55">
            <feGaussianBlur stdDeviation="2.04773259" in="SourceGraphic"></feGaussianBlur>
        </filter>
        <path d="M0.00420016919,0 C0.00140389744,0.850341208 0.571843336,1.70136984 1.71412035,2.34960893 C3.98469302,3.6392129 7.65410063,3.6392129 9.90859474,2.35029635 C11.0292006,1.71030633 11.5898531,0.872338717 11.5926494,0.0336836857 L11.5926494,0.0336836857 L11.588455,1.31503859 C11.5863578,2.15369362 11.0257053,2.99166123 9.9050994,3.63165125 C7.65060529,4.91988038 3.98119768,4.9205678 1.70992594,3.63096383 C0.568347996,2.98272474 -0.00209144226,2.13169611 0,1.2813549 L0,1.2813549" id="path-56"></path>
        <linearGradient x1="100%" y1="52.7016581%" x2="0%" y2="52.9114069%" id="linearGradient-58">
            <stop stop-color="#18689C" offset="0%"></stop>
            <stop stop-color="#66C1FD" offset="48.9383042%"></stop>
            <stop stop-color="#18689C" offset="100%"></stop>
        </linearGradient>
        <linearGradient x1="50%" y1="0%" x2="50%" y2="100%" id="linearGradient-59">
            <stop stop-color="#338DC5" offset="0%"></stop>
            <stop stop-color="#90D3FF" offset="100%"></stop>
        </linearGradient>
        <linearGradient x1="50%" y1="0%" x2="50%" y2="100%" id="linearGradient-60">
            <stop stop-color="#5BABDE" stop-opacity="0" offset="0%"></stop>
            <stop stop-color="#AFE0FF" offset="100%"></stop>
        </linearGradient>
        <path d="M9.88084174,0.966429642 C12.1514144,2.25534619 12.1646967,4.34510954 9.90880446,5.63402609 C7.65431035,6.92225521 3.98490274,6.92294263 1.713631,5.63333867 C-0.55554353,4.34510954 -0.567427685,2.25465876 1.68706642,0.966429642 C3.94295866,-0.322486902 7.61166721,-0.32179948 9.88084174,0.966429642" id="path-61"></path>
        <filter x="-65.6%" y="-115.1%" width="231.2%" height="330.3%" filterUnits="objectBoundingBox" id="filter-62">
            <feGaussianBlur stdDeviation="7.5" in="SourceAlpha" result="shadowBlurInner1"></feGaussianBlur>
            <feOffset dx="0" dy="0" in="shadowBlurInner1" result="shadowOffsetInner1"></feOffset>
            <feComposite in="shadowOffsetInner1" in2="SourceAlpha" operator="arithmetic" k2="-1" k3="1" result="shadowInnerInner1"></feComposite>
            <feColorMatrix values="0 0 0 0 0.235294119   0 0 0 0 0.68235296   0 0 0 0 0.992156863  0 0 0 1 0" type="matrix" in="shadowInnerInner1"></feColorMatrix>
        </filter>
        <path d="M0.00489898004,0 L0.0093164403,0.091331715 C0.0459454366,0.456318149 0.310069023,0.815176921 0.801137363,1.09437607 L0.801137363,1.09437607 L0.949009863,1.17249081 C2.01075022,1.6932557 3.61364656,1.66721746 4.61525204,1.09437607 L4.61525204,1.09437607 L4.73112009,1.0240816 C5.17603276,0.736652159 5.39826191,0.376231434 5.3989072,0.0158107096 L5.3989072,0.0158107096 L5.39401373,5.32339718 L5.38909798,5.41346044 C5.35105621,5.77337803 5.0923928,6.12725808 4.61035857,6.40264997 L4.61035857,6.40264997 L4.46330495,6.48067522 C3.40702288,7.00084359 1.80382322,6.97483518 0.79554482,6.40264997 L0.79554482,6.40264997 L0.677517842,6.33122189 C0.224369085,6.03917042 -0.00128508251,5.67313643 0,5.3082739 L0,5.3082739 L0.00489898004,0 Z" id="path-63"></path>
        <linearGradient x1="81.0397789%" y1="67.1735%" x2="18.9602211%" y2="68.5068%" id="linearGradient-65">
            <stop stop-color="#1A73AD" offset="0%"></stop>
            <stop stop-color="#66C1FD" offset="48.9383042%"></stop>
            <stop stop-color="#18689C" offset="100%"></stop>
        </linearGradient>
        <path d="M4.60301835,0.450089657 C5.65931001,1.04952178 5.66630069,2.02222413 4.61560158,2.6230311 C3.5663006,3.22246322 1.85707949,3.22246322 0.800787829,2.6230311 C-0.256901963,2.02222413 -0.261096371,1.04952178 0.788204606,0.450089657 C1.83890372,-0.150029886 3.54532856,-0.150029886 4.60301835,0.450089657" id="path-66"></path>
        <filter x="-140.9%" y="-247.3%" width="381.7%" height="594.7%" filterUnits="objectBoundingBox" id="filter-67">
            <feGaussianBlur stdDeviation="7.5" in="SourceAlpha" result="shadowBlurInner1"></feGaussianBlur>
            <feOffset dx="0" dy="0" in="shadowBlurInner1" result="shadowOffsetInner1"></feOffset>
            <feComposite in="shadowOffsetInner1" in2="SourceAlpha" operator="arithmetic" k2="-1" k3="1" result="shadowInnerInner1"></feComposite>
            <feColorMatrix values="0 0 0 0 0.235294119   0 0 0 0 0.68235296   0 0 0 0 0.992156863  0 0 0 1 0" type="matrix" in="shadowInnerInner1"></feColorMatrix>
        </filter>
        <path d="M0.571292362,0 C0.381145883,4.14790529 0.190999403,8.6250858 0.000153855786,16.239661 L0.000153855786,16.239661 C-0.00613775567,16.5304406 0.180513384,16.8219076 0.563602615,17.0473821 L0.563602615,17.0473821 C1.32978108,17.4976436 2.5895015,17.5100172 3.37805014,17.074879 L3.37805014,17.074879 C3.78490768,16.8507793 3.98623925,16.5503758 3.9806467,16.2513472 L3.9806467,16.2513472 C3.8345415,8.62989776 3.68773724,4.15065498 3.54163204,0 L3.54163204,0 L0.571292362,0 Z" id="path-68"></path>
        <linearGradient x1="14.1408158%" y1="37.7192015%" x2="83.2801087%" y2="37.7192015%" id="linearGradient-70">
            <stop stop-color="#007DB7" offset="0%"></stop>
            <stop stop-color="#A4DCF8" offset="100%"></stop>
        </linearGradient>
        <linearGradient x1="44.5463747%" y1="1.80154438e-14%" x2="61.5481146%" y2="100%" id="linearGradient-71">
            <stop stop-color="#40ACE7" offset="0%"></stop>
            <stop stop-color="#0C6D9F" offset="100%"></stop>
        </linearGradient>
        <path d="M0,0.630366118 L2.21115189,2.47746945 C2.23631834,2.49809212 2.26288292,2.51665252 2.29014657,2.53246323 L2.29014657,2.53246323 L2.32160463,2.5503362 C2.42506668,2.6122042 2.54950078,2.63763882 2.68791623,2.62320295 L2.68791623,2.62320295 L13.4290951,1.55632376 C13.623436,1.44633622 13.9303268,0.567123279 13.7450738,0.557499369 L13.7450738,0.557499369 C13.7534626,0.557499369 13.7604533,0.560249058 13.7660459,0.562998747 L13.7660459,0.562998747 L13.7254999,0.540313815 C13.7192083,0.536876705 13.7122176,0.534127016 13.7038288,0.534127016 L13.7038288,0.534127016 L0.236284964,0 L0,0.630366118 Z" id="path-72"></path>
        <linearGradient x1="75.7198713%" y1="50%" x2="16.5754611%" y2="50%" id="linearGradient-74">
            <stop stop-color="#AFE0FF" offset="0%"></stop>
            <stop stop-color="#AFE0FF" offset="0%"></stop>
            <stop stop-color="#61C0FD" offset="100%"></stop>
        </linearGradient>
        <path d="M0.936896207,0.135422165 C0.40979898,0.443387291 -0.00894271571,1.17411704 0.000145167504,1.76942463 L0.000145167504,1.76942463 C0.00433957514,2.06157905 0.111996038,2.26711827 0.282568615,2.36266995 L0.282568615,2.36266995 L1.73872713,3.18413943 C1.74292154,3.18688912 1.74501874,3.19307592 1.74921315,3.19582561 L1.74921315,3.19582561 L2.33433302,3.52510082 C2.16376044,3.42954914 2.05610398,3.22400992 2.0512105,2.9318555 L2.0512105,2.9318555 C2.04212262,2.33723533 2.46156338,1.60581816 2.98796154,1.29785303 L2.98796154,1.29785303 C3.25570456,1.1418082 3.49967927,1.12462265 3.67584439,1.22429886 L3.67584439,1.22429886 L3.10190962,0.900523026 C3.11029843,0.904647558 3.12078445,0.906022403 3.12917326,0.910834358 L3.12917326,0.910834358 L1.62477906,0.0618679941 C1.55207599,0.0213100869 1.46818784,0 1.37591087,0 L1.37591087,0 C1.24378703,0 1.09418649,0.0433075959 0.936896207,0.135422165" id="path-75"></path>
        <linearGradient x1="65.7094085%" y1="10.2298232%" x2="18.4484455%" y2="70.5887643%" id="linearGradient-77">
            <stop stop-color="#FFFFFF" offset="0%"></stop>
            <stop stop-color="#0A6CA5" offset="100%"></stop>
        </linearGradient>
        <path d="M0.936895971,0.135422165 C0.410497812,0.443387291 -0.00894295126,1.17480447 0.000144931958,1.76942463 L0.000144931958,1.76942463 C0.00503840754,2.06157905 0.11269487,2.26711827 0.283267447,2.36266995 L0.283267447,2.36266995 C0.404206201,2.42522537 0.630005145,2.54139971 0.949479194,2.53865003 L0.949479194,2.53865003 C1.20184272,2.53658776 1.4269426,2.47609461 1.63945925,2.35235862 L1.63945925,2.35235862 C2.14348723,2.05882936 2.31056447,1.54326274 2.30007845,1.18992775 L2.30007845,1.18992775 C2.29238871,0.913584047 2.19382013,0.398704851 1.62477882,0.0618679941 L1.62477882,0.0618679941 C1.55277483,0.0213100869 1.46888667,0 1.3766097,0 L1.3766097,0 C1.2437868,0 1.09488533,0.0433075959 0.936895971,0.135422165" id="path-78"></path>
        <radialGradient cx="57.110432%" cy="23.670579%" fx="57.110432%" fy="23.670579%" r="72.2105232%" gradientTransform="translate(0.571104,0.236706),scale(1.000000,0.906188),rotate(110.091364),translate(-0.571104,-0.236706)" id="radialGradient-80">
            <stop stop-color="#F6FCFF" offset="0%"></stop>
            <stop stop-color="#207BB0" offset="100%"></stop>
        </radialGradient>
        <path d="M0.426431443,0.105863012 C0.218109197,0.224099623 0,0.415890405 0,0.547188037 L0,0.547188037 L0.0789946772,17.776737 L0.120938754,17.8001093 L0.617976059,17.5182662 L1.97416786,13.0830185 C2.04407466,12.849295 2.07343551,12.6272576 2.05386161,12.4279052 L2.05386161,12.4279052 L0.838881527,0.083178081 C0.83818246,0.0584308833 0.824900169,0.043995018 0.80742347,0.0343711078 L0.80742347,0.0343711078 C0.80742347,0.0343711078 0.808122538,0.0343711078 0.808122538,0.0343711078 L0.808122538,0.0343711078 C0.809520674,0.0343711078 0.810219742,0.0343711078 0.81091881,0.0343711078 L0.81091881,0.0343711078 L0.769673801,0.0103113324 C0.757090579,0.00343711078 0.73961388,0 0.71934091,0 L0.71934091,0 C0.648735048,0 0.538981381,0.0419327516 0.426431443,0.105863012" id="path-81"></path>
        <linearGradient x1="50.2580453%" y1="-4.33634117%" x2="49.737536%" y2="112.268968%" id="linearGradient-83">
            <stop stop-color="#C7E9FF" offset="0%"></stop>
            <stop stop-color="#7DCCFF" offset="100%"></stop>
        </linearGradient>
        <path d="M9.48970271,2.67957157 C9.30794505,2.82118053 9.14086781,3.00403483 8.99685982,3.21644827 L8.99685982,3.21644827 L0.0362069668,16.566874 C-0.0707504279,16.7201691 0.0774519753,16.9724531 0.243830145,17.0680047 L0.243830145,17.0680047 L0.285774221,17.0913771 C0.27948261,17.08794 0.273890066,17.0810658 0.267598455,17.0762538 L0.267598455,17.0762538 C0.343097792,17.1257482 0.423490605,17.1470583 0.487804856,17.1099375 L0.487804856,17.1099375 C0.507378758,17.0996262 0.524855457,17.0838154 0.540234951,17.0631928 L0.540234951,17.0631928 L13.259077,0.338899123 L12.9864405,0.0233723533 L12.9458946,0 L9.48970271,2.67957157 Z" id="path-84"></path>
        <linearGradient x1="75.7198713%" y1="50%" x2="19.7293549%" y2="50%" id="linearGradient-86">
            <stop stop-color="#75C8FD" offset="0%"></stop>
            <stop stop-color="#A9DEFF" offset="100%"></stop>
            <stop stop-color="#AFE0FF" offset="100%"></stop>
        </linearGradient>
    </defs>
    <g id="能源云系统V2.0" stroke="none" stroke-width="1" fill="none" fill-rule="evenodd">
        <g id="1_7.站控系统（站点）首页全屏_风光柴储充_V2.2" transform="translate(-736.000000, -613.000000)">
            <g id="2D视图" transform="translate(474.000000, 253.000000)">
                <g id="系统能流图" transform="translate(0.000000, 52.000000)">
                    <g id="能流图（全都有）" transform="translate(20.000000, 70.000000)">
                        <g id="中间2" transform="translate(126.000000, 0.000000)">
                            <g id="icon_风光柴" transform="translate(0.000000, 203.000000)">
                                <g id="icon_风力发电机" transform="translate(122.160694, 35.000000)">
                                    <g id="底座样式04" transform="translate(0.000000, 9.000000)">
                                        <path d="M2.12625833,74.6297251 C0.0933381298,73.446316 -0.608535721,70.8621203 0.577399103,68.8092595 C0.940420566,68.1571853 1.49698877,67.6258504 2.12625833,67.263574 C2.12625833,67.263574 16.3647237,59.0440189 44.8416544,42.6049087 C47.0681214,41.3249199 49.8271816,41.3249199 52.0536485,42.6049087 C52.0536485,42.6049087 66.3485731,50.8808166 94.9384223,67.4326324 C96.9713425,68.6160415 97.6732163,71.2002372 96.4872815,73.253098 C96.100091,73.9051722 95.5675948,74.4365071 94.9142532,74.7987835 C94.9142532,74.7987835 80.6273526,82.9780726 52.0535514,99.3366509 C49.8270845,100.616698 47.0923875,100.592539 44.8658235,99.3124913 C44.8658235,99.3124913 30.6193018,91.0849026 2.12625833,74.6297251 L2.12625833,74.6297251 Z" id="形状_17_拷贝_7" fill="#000000" opacity="0.400000006" filter="url(#filter-1)"></path>
                                        <path d="M94.986793,55.4051709 L52.1261872,30.6016573 C49.8996723,29.3216534 47.1406878,29.2974815 44.9141729,30.6016573 C44.9141729,30.6016573 30.6837725,38.8211948 2.22297163,55.2602697 C0.891894503,56.0089476 0.0927048919,57.433918 0.0927048919,58.9554456 C0.0927048919,58.9554456 0.0927048919,61.1854298 0.0927048919,65.6453981 C0.0690309493,67.1669257 0.891894503,68.5918308 2.22297163,69.3405086 C2.22297163,69.3405086 16.4614574,77.5600679 44.938429,93.9991864 C47.1649439,95.2791903 49.8996723,95.2791903 52.1261872,94.023293 C52.1261872,94.023293 66.4049705,85.8440204 94.9625369,69.4854751 C96.2936141,68.7367973 97.1170598,67.3118269 97.0923186,65.7902993 C97.0923186,65.7902993 97.0923186,63.5603151 97.0923186,59.1003468 L97.1170598,59.1003468 C97.1407337,57.5788191 96.3178702,56.1538487 94.986793,55.4051709 C94.986793,55.4051709 94.986793,55.4051709 94.986793,55.4051709 Z" id="形状_18" fill="url(#linearGradient-2)"></path>
                                        <path d="M2.12615509,69.316449 C0.0932558211,68.1329855 -0.608540327,65.5488096 0.577293319,63.4959403 C0.940321442,62.8439008 1.49694516,62.3125354 2.12615509,61.9502782 C2.12615509,61.9502782 16.3646337,53.7307291 44.8415909,37.2916308 C47.0680858,36.0115927 49.8270413,36.0115927 52.0536332,37.2916308 C52.0536332,37.2916308 66.3405026,45.559477 94.9142415,62.0951694 C96.9471407,63.2785743 97.6489369,65.8627502 96.4631032,67.9156194 C96.075815,68.5677176 95.5434514,69.099083 94.8899814,69.4613402 C94.8899814,69.4613402 80.6031119,77.6406255 52.0293731,93.9991961 C49.8270413,95.3033925 47.0923459,95.2792342 44.865754,93.9991961 C44.865754,93.9991961 30.619221,85.7716137 2.12615509,69.316449 L2.12615509,69.316449 Z" id="形状_17_拷贝" stroke="#52AFFF" stroke-width="0.5" fill-opacity="0.800000012" fill="url(#linearGradient-3)" opacity="0.200000003"></path>
                                        <path d="M2.12615509,62.4815911 C0.0932558211,61.2981344 -0.608540327,58.7139469 0.577293319,56.6611015 C0.940321442,56.0089867 1.49694516,55.4776447 2.12615509,55.1153848 C2.12615509,55.1153848 16.3646337,46.8958536 44.8415909,30.4567914 C47.0680858,29.1767163 49.8270413,29.1767163 52.0536332,30.4567914 C52.0536332,30.4567914 66.3405026,38.7246317 94.9142415,55.2603122 C96.9471407,56.4437103 97.6489369,59.0278978 96.4631032,61.0808018 C96.075815,61.732858 95.5434514,62.2642 94.8899814,62.6264599 C94.8899814,62.6264599 80.6031119,70.805753 52.0293731,87.1643391 C49.8270413,88.4443555 47.0923459,88.4443555 44.865754,87.1643391 C44.865754,87.1643391 30.619221,78.9367564 2.12615509,62.4815911 L2.12615509,62.4815911 Z" id="形状_17" stroke="#2885DF" stroke-width="0.5" fill-opacity="0.800000012" fill="url(#linearGradient-4)"></path>
                                        <path d="M95.059472,62.6506451 L52.1988412,87.1884707 C49.9723005,88.4685107 47.2375599,88.4685107 45.0110191,87.1643466 C45.0110191,87.1643466 30.764505,78.9367548 2.27147665,62.4815711" id="形状_17_拷贝_5" stroke="url(#linearGradient-5)" stroke-width="0.72604053"></path>
                                        <path d="M95.059472,69.7512016 L52.1988412,94.2890271 C49.9723005,95.5690671 47.2375599,95.5690671 45.0110191,94.264903 C45.0110191,94.264903 30.764505,86.0373112 2.27147665,69.5821276" id="形状_17_拷贝_6" stroke="url(#linearGradient-6)" stroke-width="0.72604053" opacity="0.400000006"></path>
                                        <path d="M51.7389623,33.9099778 C50.7708901,33.354514 49.681873,33.064698 48.5444266,33.088866 C47.4310667,33.064698 46.3178776,33.354514 45.3498054,33.9099778 C45.3498054,33.9099778 32.5956918,41.2681274 7.08746465,55.9844265 C5.8774171,56.6847983 5.46598214,58.2305001 6.16782168,59.413932 C6.38562511,59.8003198 6.7002016,60.1143038 7.08746465,60.3316658 C7.08746465,60.3316658 19.8415782,67.6897986 45.3498054,82.4060643 C46.3178776,82.9615783 47.4069802,83.2513943 48.5444266,83.2272262 C49.6577011,83.2513943 50.7708901,82.9615783 51.7389623,82.4060643 C51.7389623,82.4060643 64.4930759,75.0479315 90.0013031,60.3316658 C91.2113506,59.6312939 91.5986137,58.0614241 90.8726022,56.8779922 C90.6547988,56.5157725 90.3401369,56.2017885 90.0013031,55.9844265 C90.0013031,55.9844265 77.2471895,48.6262769 51.7389623,33.9099778 L51.7389623,33.9099778 Z" id="形状_19_拷贝_10" stroke="#1775CD" stroke-width="0.5" fill="url(#linearGradient-7)" opacity="0.600000024"></path>
                                        <path d="M51.7389561,33.9103906 C50.7709198,33.3549267 49.6818255,33.0651107 48.5444106,33.0892788 C47.4310706,33.0651107 46.3179014,33.3549267 45.3498651,33.9103906 C45.3498651,33.9103906 32.5957297,41.2685401 7.08745898,55.9848392 C5.87739223,56.6852111 5.4659832,58.2309129 6.16782874,59.4143447 C6.38561344,59.8007326 6.7002103,60.1147165 7.08745898,60.3320785 C7.08745898,60.3320785 19.8415944,67.6902114 45.3498651,82.4064771 C46.3179014,82.9619911 47.4069103,83.251807 48.5444106,83.227639 C49.6576652,83.251807 50.7709198,82.9619911 51.7389561,82.4064771 C51.7389561,82.4064771 64.4930915,75.0483442 90.0013622,60.3320785 C91.1871832,59.6075386 91.5501862,58.0377189 90.8241803,56.8542871 C90.6063956,56.4920172 90.3159591,56.2022012 90.0013622,55.9848392 C90.0013622,55.9848392 77.2472268,48.6266897 51.7389561,33.9103906 L51.7389561,33.9103906 Z" id="形状_19" opacity="0.600000024"></path>
                                        <path d="M80.1997469,43.0396887 L50.8435197,26.0612379 C50.0932226,25.6265115 49.2462546,25.4091229 48.399221,25.4332941 C47.5279378,25.4091229 46.6809043,25.6265115 45.9548568,26.0612379 C45.9548568,26.0612379 36.1694477,31.7207215 16.5986296,43.0396887 C15.9693841,43.4019523 15.6063603,44.0540166 15.63061,44.7785944 C15.63061,44.7785944 15.63061,48.7716183 15.63061,56.757666 C15.6063603,57.4580727 15.9693841,58.1343081 16.5986296,58.4965717 C16.5986296,58.4965717 26.3840605,64.1560553 45.9549224,75.4750225 C46.7051539,75.9097489 47.5521875,76.1271375 48.399221,76.1029663 C49.2704387,76.1271375 50.1175378,75.9097489 50.8435853,75.4750225 C50.8435853,75.4750225 60.6289943,69.8155389 80.1998125,58.4965717 C80.8291235,58.1343081 81.1921473,57.4822438 81.1678976,56.757666 C81.1678976,56.7093744 81.1678976,56.6852539 81.1678976,56.6369115 C81.1678976,56.5886198 81.1678976,56.5644993 81.1678976,56.516157 C81.1678976,56.4678653 81.1678976,56.4437448 81.1678976,56.3954025 C81.1678976,56.3471108 81.1678976,56.3229396 81.1678976,56.2746479 C81.1678976,56.2263563 81.1678976,56.2021851 81.1678976,56.1538934 C81.1678976,56.1056017 81.1678976,56.0814306 81.1678976,56.0331389 C81.1678976,55.9848472 81.1678976,55.960676 81.1678976,55.9123844 C81.1678976,55.8640927 81.1678976,55.8399215 81.1678976,55.7916299 C81.1678976,55.7433382 81.1678976,55.719167 81.1678976,55.6708753 C81.1678976,55.6225837 81.1678976,55.5984125 81.1678976,55.5501208 C81.1678976,55.5018291 81.1678976,55.477658 81.1678976,55.4293663 C81.1678976,55.3810746 81.1678976,55.3569034 81.1678976,55.3086118 C81.1678976,55.2603201 81.1678976,55.2361489 81.1678976,55.1878572 C81.1678976,55.1395149 81.1678976,55.1153944 81.1678976,55.0671027 C81.1678976,55.0187604 81.1678976,54.9946399 81.1678976,54.9463482 C81.1678976,54.8980058 81.1678976,54.8738853 81.1678976,54.8255937 C81.1678976,54.7772513 81.1678976,54.7531308 81.1678976,54.7048391 C81.1678976,54.6564968 81.1678976,54.6323763 81.1678976,54.5840339 C81.1678976,54.5357423 81.1678976,54.5116218 81.1678976,54.4632794 C81.1678976,54.4149877 81.1678976,54.3908672 81.1678976,54.3425249 C81.1678976,54.2942332 81.1678976,54.2701127 81.1678976,54.2217704 C81.1678976,54.1734787 81.1678976,54.1493582 81.1678976,54.1010159 C81.1678976,54.0527242 81.1678976,54.028553 81.1678976,53.9802613 C81.1678976,53.9319697 81.1678976,53.9077985 81.1678976,53.8595068 C81.1678976,53.8112151 81.1678976,53.787044 81.1678976,53.7387523 C81.1678976,53.6904606 81.1678976,53.6662894 81.1678976,53.6179978 C81.1678976,53.5697061 81.1678976,53.5455349 81.1678976,53.4972432 C81.1678976,53.4489516 81.1678976,53.4247804 81.1678976,53.3764887 C81.1678976,53.328197 81.1678976,53.3040259 81.1678976,53.2557342 C81.1678976,53.2074425 81.1678976,53.1832713 81.1678976,53.1349797 C81.1678976,53.086688 81.1678976,53.0625168 81.1678976,53.0142251 C81.1678976,52.9658828 81.1678976,52.9417623 81.1678976,52.8934706 C81.1678976,52.8451283 81.1678976,52.8210078 81.1678976,52.7727161 C81.1678976,52.7243738 81.1678976,52.7002533 81.1678976,52.6519616 C81.1678976,52.6036192 81.1678976,52.5794987 81.1678976,52.5312071 C81.1678976,52.4828647 81.1678976,52.4587442 81.1678976,52.4104525 C81.1678976,52.3621102 81.1678976,52.3379897 81.1678976,52.2896473 C81.1678976,52.2413557 81.1678976,52.2172352 81.1678976,52.1688928 C81.1678976,52.1206011 81.1678976,52.0964806 81.1678976,52.0481383 C81.1678976,51.9998466 81.1678976,51.9757261 81.1678976,51.9273838 C81.1678976,51.8790921 81.1678976,51.8549716 81.1678976,51.8066292 C81.1678976,51.7583376 81.1678976,51.7341664 81.1678976,51.6858747 C81.1678976,51.637583 81.1678976,51.6134119 81.1678976,51.5651202 C81.1678976,51.5168285 81.1678976,51.4926573 81.1678976,51.4443657 C81.1678976,51.396074 81.1678976,51.3719028 81.1678976,51.3236111 C81.1678976,51.2753195 81.1678976,51.2511483 81.1678976,51.2028566 C81.1678976,51.154565 81.1678976,51.1303938 81.1678976,51.0821021 C81.1678976,51.0338104 81.1678976,51.0096393 81.1678976,50.9613476 C81.1678976,50.9130559 81.1678976,50.8888847 81.1678976,50.8405931 C81.1678976,50.7923014 81.1678976,50.7681302 81.1678976,50.7198385 C81.1678976,50.6715469 81.1678976,50.6473757 81.1678976,50.599084 C81.1678976,50.5507417 81.1678976,50.5266212 81.1678976,50.4783295 C81.1678976,50.4299871 81.1678976,50.4058666 81.1678976,50.357575 C81.1678976,50.3092326 81.1678976,50.2851121 81.1678976,50.2368204 C81.1678976,50.1884781 81.1678976,50.1643576 81.1678976,50.1160659 C81.1678976,50.0677236 81.1678976,50.0436031 81.1678976,49.9952607 C81.1678976,49.946969 81.1678976,49.9228485 81.1678976,49.8745062 C81.1678976,49.8262145 81.1678976,49.802094 81.1678976,49.7537517 C81.1678976,49.70546 81.1678976,49.6813395 81.1678976,49.6329972 C81.1678976,49.5847055 81.1678976,49.560585 81.1678976,49.5122426 C81.1678976,49.463951 81.1678976,49.4398305 81.1678976,49.3914881 C81.1678976,49.3431964 81.1678976,49.3190253 81.1678976,49.2707336 C81.1678976,49.2224419 81.1678976,49.1982707 81.1678976,49.1499791 C81.1678976,49.1016874 81.1678976,49.0775162 81.1678976,49.0292245 C81.1678976,48.9809329 81.1678976,48.9567617 81.1678976,48.90847 C81.1678976,48.8601783 81.1678976,48.8360072 81.1678976,48.7877155 C81.1678976,48.7394238 81.1678976,48.7152526 81.1678976,48.666961 C81.1678976,48.6186693 81.1678976,48.5944981 81.1678976,48.5462064 C81.1678976,48.4979148 81.1678976,48.4737436 81.1678976,48.4254519 C81.1678976,48.3771602 81.1678976,48.3529891 81.1678976,48.3046974 C81.1678976,48.256355 81.1678976,48.2322345 81.1678976,48.1839429 C81.1678976,48.1356005 81.1678976,48.11148 81.1678976,48.0631884 C81.1678976,48.014846 81.1678976,47.9907255 81.1678976,47.9424338 C81.1678976,47.8940915 81.1678976,47.869971 81.1678976,47.8216793 C81.1678976,47.773337 81.1678976,47.7492165 81.1678976,47.7008741 C81.1678976,47.6525824 81.1678976,47.6284619 81.1678976,47.5801196 C81.1678976,47.5318279 81.1678976,47.5077074 81.1678976,47.4593651 C81.1678976,47.4110734 81.1678976,47.3869529 81.1678976,47.3386105 C81.1678976,47.2903189 81.1678976,47.2661984 81.1678976,47.217856 C81.1678976,47.1695643 81.1678976,47.1454438 81.1678976,47.0971015 C81.1678976,47.0488098 81.1678976,47.0246386 81.1678976,46.976347 C81.1678976,46.9280553 81.1678976,46.9038841 81.1678976,46.8555924 C81.1678976,46.8073008 81.1678976,46.7831296 81.1678976,46.7348379 C81.1678976,46.6865462 81.1678976,46.6623751 81.1678976,46.6140834 C81.1678976,46.5657917 81.1678976,46.5416206 81.1678976,46.4933289 C81.1678976,46.4450372 81.1678976,46.420866 81.1678976,46.3725744 C81.1678976,46.3242827 81.1678976,46.3001115 81.1678976,46.2518198 C81.1678976,46.2035282 81.1678976,46.179357 81.1678976,46.1310653 C81.1678976,46.0827736 81.1678976,46.0586025 81.1678976,46.0103108 C81.1678976,45.9619684 81.1678976,45.9378479 81.1678976,45.8895563 C81.1678976,45.8412139 81.1678976,45.8170934 81.1678976,45.7688017 C81.1678976,45.7204594 81.1678976,45.6963389 81.1678976,45.6480472 C81.1678976,45.5997049 81.1678976,45.5755844 81.1678976,45.5272927 C81.1678976,45.4789503 81.1678976,45.4548298 81.1678976,45.4065382 C81.1678976,45.3581958 81.1678976,45.3340753 81.1678976,45.285733 C81.1678976,45.2374413 81.1678976,45.2133208 81.1678976,45.1649784 C81.1678976,45.1166868 81.1678976,45.0925663 81.1678976,45.0442239 C81.1678976,44.9959323 81.1678976,44.9718118 81.1678976,44.9234694 C81.1678976,44.8751777 81.1678321,44.8268861 81.1678321,44.7785944 C81.1920817,44.0540166 80.829058,43.4019523 80.1997469,43.0396887 C80.1997469,43.0396887 80.1997469,43.0396887 80.1997469,43.0396887 Z" id="形状_24" fill="url(#linearGradient-8)"></path>
                                        <path d="M50.7681865,44.1023392 C50.0179331,43.6676241 49.1709173,43.4502473 48.3239015,43.4743875 C47.4526459,43.4502473 46.6055644,43.6675856 45.8795509,44.1023392 C45.8795509,44.1023392 36.0860759,49.7537759 16.499126,61.0566494 C15.5794563,61.5879635 15.2648636,62.7713694 15.7972866,63.6891568 C15.9666372,63.978954 16.2086417,64.2204709 16.499126,64.3895289 C16.499126,64.3895289 26.2926009,70.0409656 45.8795509,81.3438391 C46.6298042,81.7785927 47.47682,81.9959309 48.3239015,81.9717908 C49.1951572,81.9959309 50.0421729,81.7785927 50.7924263,81.3438391 C50.7924263,81.3438391 60.5859013,75.6924024 80.1728512,64.3895289 C81.1166951,63.8823549 81.5039417,62.7714079 81.0199327,61.8053403 C80.8020367,61.4913644 80.5116838,61.2015672 80.1486114,61.0566494 C80.1486114,61.0566494 70.3551364,55.4052126 50.7681865,44.1023392 L50.7681865,44.1023392 Z" id="形状_19_拷贝_13" stroke="#1C5F9F" stroke-width="0.5" fill="url(#radialGradient-9)" opacity="0.550000012"></path>
                                        <path d="M50.9887974,25.9887649 C50.2385435,25.5540114 49.3915293,25.3366732 48.5444494,25.3608133 C47.6732122,25.3366732 46.8261323,25.5540499 46.1001013,25.9887649 C46.1001013,25.9887649 36.3066262,31.6402006 16.719676,42.9430719 C15.799993,43.4743859 15.4853577,44.6577916 16.0178679,45.5755788 C16.1872314,45.8653759 16.4292636,46.1068928 16.719676,46.2759507 C16.719676,46.2759507 26.5131511,51.9273864 46.1001013,63.2302577 C46.8503552,63.6650112 47.6974351,63.8823494 48.5444494,63.8581708 C49.4157522,63.8823494 50.2627664,63.6649727 51.0129547,63.2302577 C51.0129547,63.2302577 60.8064298,57.5788221 80.39338,46.2759507 C81.3372203,45.7687769 81.6760785,44.6095113 81.1678568,43.667584 C80.9742705,43.3777868 80.7080153,43.1121298 80.3692228,42.9430719 C80.3692228,42.9430719 70.5757477,37.2916362 50.9887974,25.9887649 L50.9887974,25.9887649 Z" id="形状_19_拷贝_11" stroke="url(#linearGradient-11)" stroke-width="0.5" fill-opacity="0.800000012" fill="url(#linearGradient-10)"></path>
                                        <path d="M50.9887974,38.3059953 C50.2385435,37.8712418 49.3915293,37.6539036 48.5444494,37.6780438 C47.6732122,37.6539036 46.8261323,37.8712803 46.1001013,38.3059953 C46.1001013,38.3059953 36.3066262,43.957431 16.719676,55.2603023 C15.799993,55.7916163 15.4853577,56.975022 16.0178679,57.8928092 C16.1872314,58.1826063 16.4292636,58.4241232 16.719676,58.5931812 C16.719676,58.5931812 26.5131511,64.2446168 46.1001013,75.5474881 C46.8503552,75.9822416 47.6974351,76.1995798 48.5444494,76.1754012 C49.4157522,76.1995798 50.2627664,75.9822031 51.0129547,75.5474881 C51.0129547,75.5474881 60.8064298,69.8960525 80.39338,58.5931812 C81.3372203,58.0860073 81.6760785,56.9267417 81.1678568,55.9848144 C80.9742705,55.6950173 80.7080153,55.4293603 80.3692228,55.2603023 C80.3692228,55.2603023 70.5757477,49.6088666 50.9887974,38.3059953 L50.9887974,38.3059953 Z" id="形状_19_拷贝_12" fill="url(#linearGradient-12)" opacity="0.200000003"></path>
                                        <path d="M50.9888348,32.5096516 C50.2385753,32.0748981 49.3914679,31.8575599 48.5444261,31.8817 C47.6731888,31.8575599 46.826147,32.0749366 46.1000831,32.5096516 C46.1000831,32.5096516 36.3066022,38.1610872 16.7196405,49.4639586 C15.800012,49.9952726 15.485404,51.1786783 16.0178378,52.0964655 C16.1872723,52.3862626 16.4292937,52.6277795 16.7196405,52.7968374 C16.7196405,52.7968374 26.5131214,58.4482731 46.1000831,69.7511444 C46.8503426,70.1858979 47.6973843,70.4032361 48.5444261,70.3790575 C49.4157291,70.4032361 50.2627709,70.1858594 51.0129648,69.7511444 C51.0129648,69.7511444 60.8064456,64.0997088 80.3934073,52.7968374 C81.3130358,52.2413448 81.6034483,51.0579776 81.0468189,50.1401904 C80.8774499,49.8745334 80.6354286,49.6571567 80.3692117,49.4639586 C80.3692117,49.4639586 70.5757528,43.8125229 50.9888348,32.5096516 L50.9888348,32.5096516 Z" id="形状_19_拷贝_14" fill="url(#linearGradient-13)" opacity="0.200000003"></path>
                                        <path d="M80.5188044,46.0084967 L51.1384033,62.9627743 C50.3881119,63.3974928 49.5410895,63.6148521 48.6698513,63.5907505 C47.8228288,63.6148521 46.9757406,63.3974928 46.225515,62.9627743 C46.225515,62.9627743 36.432048,57.3113484 16.8451139,46.0084967 C16.4336447,45.7669723 16.1190382,45.3805205 15.9738099,44.9216368 C15.9738099,44.9216368 15.9092786,44.9216368 15.7802161,44.9216368 L15.7802161,0 L81.5837022,0 L81.5837022,44.9216368 L81.3901084,44.9216368 C81.2448801,45.3805205 80.9302736,45.7669723 80.5188044,46.0084967 C80.5188044,46.0084967 80.5188044,46.0084967 80.5188044,46.0084967 Z" id="矩形_2" fill="url(#linearGradient-14)" opacity="0.600000024"></path>
                                        <polygon id="矩形_1" fill="#43FF85" points="44.6238158 64.5827469 44.6238158 66.5148633 40.9209969 64.4136875 40.9209969 62.4815711"></polygon>
                                        <polygon id="矩形_1_拷贝_2" fill="#43FF85" points="39.299518 61.6845751 39.299518 63.6166914 35.5966991 61.5155156 35.5966991 59.5833993"></polygon>
                                        <polygon id="矩形_1_拷贝_3" fill="#43FF85" points="39.299518 67.4809188 39.299518 69.4130351 35.5966991 67.3118593 35.5966991 65.379743"></polygon>
                                        <polygon id="形状_25" fill="url(#linearGradient-15)" opacity="0.300000012" points="30.3692127 70.3307888 34.2414254 72.5044155 39.3237135 69.6062415 35.6935141 67.4326147"></polygon>
                                        <polygon id="形状_25_拷贝" fill="url(#linearGradient-15)" opacity="0.300000012" points="35.6935104 73.4704749 39.5657231 75.6441017 44.6480112 72.7459276 41.0178118 70.5723009"></polygon>
                                        <polygon id="形状_25_拷贝_2" fill="url(#linearGradient-15)" opacity="0.300000012" points="30.3692127 64.534445 34.2414254 66.7080718 39.3237135 63.8098977 35.6935141 61.636271"></polygon>
                                        <polygon id="形状_25_拷贝_2-2" fill="url(#linearGradient-15)" opacity="0.300000012" points="35.6935104 67.6741312 39.5657231 69.8477579 44.6480112 66.9495839 41.0178118 64.7759572"></polygon>
                                        <polygon id="矩形_1_拷贝" fill="#43FF85" points="44.6238158 70.620605 44.6238158 72.5527213 40.9209969 70.4515455 40.9209969 68.5194292"></polygon>
                                        <path d="M7.06772878,60.3785805 L45.3300711,82.4529996 C46.2980904,83.0084801 47.387164,83.298287 48.5246592,83.2741536 C49.6378607,83.298287 50.7511451,83.0084801 51.7192474,82.4529996 C51.7192474,82.4529996 64.4733615,75.0948599 89.9815896,60.3785805" id="形状_19_拷贝_4" stroke="url(#linearGradient-16)" stroke-width="0.5"></path>
                                    </g>
                                    <g transform="translate(43.372896, 32.500000) scale(-1, 1) translate(-43.372896, -32.500000) translate(20.372896, 0.000000)">
                                        <path d="M15.0685792,63.8153739 C12.1847075,65.3948754 7.50853751,65.3948754 4.61843714,63.8153739 C1.73923693,62.2343949 1.73923693,59.6708448 4.61843714,58.0928209 C7.50853751,56.5133194 12.1847075,56.5133194 15.0685792,58.0928209 C17.954008,59.6708448 17.954008,62.2343949 15.0685792,63.8153739" id="投影" fill="#005F7C" opacity="0.670000017" filter="url(#filter-17)"></path>
                                        <g id="编组" transform="translate(3.930849, 50.429118)">
                                            <g transform="translate(0.000000, 4.426844)">
                                                <g transform="translate(0.000000, 3.283455)">
                                                    <mask id="mask-19" fill="white">
                                                        <use xlink:href="#path-18"></use>
                                                    </mask>
                                                    <g id="Clip-2"></g>
                                                    <path d="M9.90859921,2.35098378 C7.6541051,3.6392129 3.98399842,3.6392129 1.71342575,2.35029635 C0.571847805,1.70136984 0.00140836616,0.850341208 0.00350556998,0 L0,1.2813549 C-0.00278604148,2.13169611 0.567653397,2.98272474 1.70993041,3.63096383 C3.98050308,4.9205678 7.64991069,4.9205678 9.90510387,3.63165125 C11.0250107,2.99166123 11.5856632,2.15438104 11.5884595,1.31503859 L11.5919548,0.0336836857 C11.5898576,0.873026139 11.0292051,1.71030633 9.90859921,2.35098378" id="Fill-1" fill="url(#linearGradient-20)" mask="url(#mask-19)"></path>
                                                </g>
                                                <g id="Fill-3">
                                                    <use fill="url(#linearGradient-21)" fill-rule="evenodd" xlink:href="#path-23"></use>
                                                    <use fill="black" fill-opacity="1" filter="url(#filter-24)" xlink:href="#path-23"></use>
                                                    <use stroke="url(#linearGradient-22)" stroke-width="0.2" xlink:href="#path-23"></use>
                                                </g>
                                                <path d="M6.03932807,0.0140749859 C4.47061961,-0.0264829214 2.88093912,0.284231894 1.68693108,0.966842095 C0.282503585,1.76906375 -0.229214147,2.8813128 0.123116094,3.91863284 L6.03932807,3.91863284 L6.03932807,0.0140749859 Z" id="Fill-5" fill="#2E91D5"></path>
                                            </g>
                                            <g transform="translate(3.087788, 0.000000)">
                                                <g transform="translate(0.000000, 1.528999)">
                                                    <mask id="mask-26" fill="white">
                                                        <use xlink:href="#path-25"></use>
                                                    </mask>
                                                    <g id="Clip-8"></g>
                                                    <path d="M0,5.30758647 C-0.00139263143,5.70285421 0.263554118,6.0994968 0.796243888,6.40196255 L0.796243888,6.40196255 C1.85253554,7.00139467 3.56105759,7.00139467 4.61105763,6.40196255 L4.61105763,6.40196255 C5.13256232,6.10362133 5.39331466,5.71316555 5.39471279,5.32270976 L5.39471279,5.32270976 L5.39960627,0.0151232875 C5.39820813,0.405579073 5.13745579,0.796034858 4.61595111,1.09368865 L4.61595111,1.09368865 C3.56665013,1.69380819 1.85742902,1.69380819 0.801137363,1.09368865 L0.801137363,1.09368865 C0.269845729,0.791222903 0.00419991208,0.39526774 0.00489898002,0 L0.00489898002,0 L0,5.30758647 Z" id="Fill-7" fill="url(#linearGradient-27)" mask="url(#mask-26)"></path>
                                                </g>
                                                <g id="Fill-9">
                                                    <use fill="url(#linearGradient-28)" fill-rule="evenodd" xlink:href="#path-30"></use>
                                                    <use fill="black" fill-opacity="1" filter="url(#filter-31)" xlink:href="#path-30"></use>
                                                    <use stroke="url(#linearGradient-29)" stroke-width="0.2" xlink:href="#path-30"></use>
                                                </g>
                                                <path d="M3.0415802,1.84122588 C3.04857088,1.66249612 3.0590569,1.48376635 3.09121403,1.30916113 C3.1681115,0.887771345 3.26458288,0.471193517 3.3512673,0.0518660017 C2.46065474,-0.0753070973 1.4826587,0.0532408461 0.788484233,0.449883431 C-0.179025795,1.00325827 -0.239145638,1.87078503 0.586453599,2.47365426 L2.89827128,2.47365426 C2.91504891,2.25574144 2.96468273,2.04539026 3.0415802,1.84122588" id="Fill-11" fill="#2E91D5"></path>
                                            </g>
                                        </g>
                                        <g id="编组" transform="translate(7.774146, 15.917947)">
                                            <mask id="mask-33" fill="white">
                                                <use xlink:href="#path-32"></use>
                                            </mask>
                                            <g id="Clip-14"></g>
                                            <path d="M1.53673992,0.137484431 C1.36616735,0.231661267 1.27878385,0.356084677 1.27598758,0.481882932 L1.27598758,0.481882932 C0.850255208,17.5058926 0.425920969,18.8491155 0.000188593399,35.8724378 L0.000188593399,35.8724378 C-0.006802086,36.16253 0.180548122,36.4546844 0.562938285,36.6801589 L0.562938285,36.6801589 C1.32911675,37.1304204 2.58953624,37.142794 3.37738581,36.7076558 L3.37738581,36.7076558 C3.78424335,36.4835561 3.98627398,36.1831527 3.98068144,35.884124 L3.98068144,35.884124 C3.65351765,18.858052 3.32635385,17.5120794 2.99919005,0.486694887 L2.99919005,0.486694887 C2.99709285,0.365708587 2.91600097,0.244034866 2.75521534,0.149170608 L2.75521534,0.149170608 C2.5860409,0.0501818175 2.36024196,0 2.13514208,0 L2.13514208,0 C1.91913009,0 1.70381716,0.0453698624 1.53673992,0.137484431" id="Fill-13" fill="url(#linearGradient-34)" mask="url(#mask-33)"></path>
                                        </g>
                                        <g id="编组" transform="translate(4.974424, 12.578132)">
                                            <path d="M5.5552866,3.48939889 C5.22322932,3.294171 4.67795633,3.28867162 4.33681118,3.47702529 C3.99496695,3.66537896 3.98727721,3.97609378 4.31933448,4.17132167 C4.65139175,4.36654956 5.19666474,4.37204894 5.5378099,4.18369527 C5.87965412,3.9953416 5.88734387,3.68462678 5.5552866,3.48939889" id="Fill-15" fill="#DADADA"></path>
                                            <g>
                                                <path d="M4.64342238,0.319007901 C3.98629851,-0.0542623304 3.3913917,-0.0886334383 2.96146491,0.156776272 L0.691591313,1.45394188 C1.1215181,1.20853217 1.71642491,1.24290328 2.37354878,1.61617351 L5.37884185,3.3223553 L7.64871545,2.02518969 L4.64342238,0.319007901 Z" id="Fill-17" fill="url(#linearGradient-35)"></path>
                                                <path d="M7.64857563,2.02518969 L5.37870203,3.3223553 C5.97221071,3.65919216 6.45247039,4.47722453 6.45037319,5.14746113 L6.44547971,6.90038763 C6.44408157,7.19804142 6.33712418,7.4083926 6.1644544,7.50669397 L8.434328,6.20952836 C8.60699778,6.11122699 8.71465424,5.90087581 8.71535331,5.60322202 L8.72025363,3.85029552 C8.72234399,3.18005892 8.24208431,2.36202655 7.64857563,2.02518969" id="Fill-19" fill="url(#linearGradient-36)"></path>
                                                <path d="M7.64857563,2.02518969 L5.37870203,3.3223553 C5.97221071,3.65919216 6.45247039,4.47722453 6.45037319,5.14746113 L8.72025363,3.85029552 C8.72234399,3.18005892 8.24208431,2.36202655 7.64857563,2.02518969" id="Fill-21" fill="url(#linearGradient-37)"></path>
                                                <path d="M5.37863213,3.32228656 L2.37333906,1.61610477 C1.06608201,0.874376261 0.00559594395,1.47174612 0.000702468376,2.94901633 L0,3.24117075 C-0.00139473544,3.84197771 0.428532047,4.57476973 0.960522749,4.87654806 L5.47580257,7.43994528 C6.01058954,7.74378588 6.4433126,7.50112585 6.4454098,6.90031889 L6.45031012,5.14739239 C6.45240048,4.47715579 5.97214081,3.65912342 5.37863213,3.32228656" id="Fill-23" stroke="url(#linearGradient-39)" stroke-width="0.1" fill="url(#linearGradient-38)"></path>
                                            </g>
                                            <path d="M6.73076934,6.13838017 C6.73076934,6.76118464 7.17537655,7.014156 7.72484395,6.70275376 C8.27291321,6.39135152 8.71821949,5.63312488 8.71821949,5.01032041 C8.71821949,4.38682851 8.27291321,4.13454458 7.72484395,4.44594682 C7.17537655,4.75734906 6.73076934,5.5155757 6.73076934,6.13838017" id="Fill-25" fill="#64AED8"></path>
                                            <path d="M3.77566934,4.14444346 C3.49674123,3.98633637 3.27024322,4.11419689 3.27024322,4.4310985 C3.27024322,4.74868754 3.49674123,5.13364395 3.77566934,5.29243846 C4.05459745,5.45054556 4.28109546,5.32199762 4.28109546,5.005096 C4.28109546,4.68819439 4.05459745,4.30255056 3.77566934,4.14444346 L3.77566934,4.14444346 Z M2.86058941,4.42972366 L0.692080661,3.19855057 L0.692080661,3.48726788 L2.86058941,4.71844096 L2.86058941,4.42972366 Z M2.86058941,4.04407983 L0.692080661,2.81290674 L0.692080661,2.52418944 L2.86058941,3.75536252 L2.86058941,4.04407983 Z" id="Fill-27" fill="#053F5E"></path>
                                        </g>
                                        <g id="编组" transform="translate(14.569275, 18.424289)">
                                            <mask id="mask-41" fill="white">
                                                <use xlink:href="#path-40"></use>
                                            </mask>
                                            <g id="Clip-30"></g>
                                            <path d="M0,0.630366118 L2.21115189,2.47678203 C2.23561927,2.49809212 2.26218385,2.51665252 2.2894475,2.5317758 L2.2894475,2.5317758 L2.31880836,2.54896136 C2.42296948,2.6122042 2.54810264,2.63695139 2.68791623,2.62320295 L2.68791623,2.62320295 L13.4283961,1.55563634 C13.6164453,1.44977333 13.9079567,0.629678696 13.7632496,0.561623902 L13.7632496,0.561623902 L13.7254999,0.539626393 C13.7192083,0.536189282 13.7115186,0.534127016 13.7038288,0.533439594 L13.7038288,0.533439594 L0.236284964,0 L0,0.630366118 Z" id="Fill-29" fill="url(#linearGradient-42)" mask="url(#mask-41)"></path>
                                        </g>
                                        <g id="编组" transform="translate(11.800122, 16.952518)">
                                            <mask id="mask-44" fill="white">
                                                <use xlink:href="#path-43"></use>
                                            </mask>
                                            <g id="Clip-32"></g>
                                            <path d="M0.937595038,0.135422165 C0.410497812,0.442699869 -0.0089429521,1.17480447 0.000144931115,1.76873721 L0.000144931115,1.76873721 C0.00503840669,2.06157905 0.112694869,2.26643085 0.283267447,2.36266995 L0.283267447,2.36266995 L1.73942596,3.18413943 C1.7429213,3.1862017 1.74501851,3.19307592 1.74921292,3.19513819 L1.74921292,3.19513819 L2.33433278,3.52510082 C2.1637602,3.42886172 2.05610374,3.22400992 2.05121027,2.9318555 L2.05121027,2.9318555 C2.04282145,2.33654791 2.46156315,1.60513074 2.9879613,1.29785303 L2.9879613,1.29785303 C3.25640339,1.1418082 3.49967904,1.12531007 3.67654323,1.22429886 L3.67654323,1.22429886 L3.10190938,0.900523026 C3.11029819,0.903960136 3.12078421,0.905334981 3.12917303,0.910146936 L3.12917303,0.910146936 L1.62477882,0.061180572 C1.55277482,0.0206226647 1.46888667,0 1.3766097,0 L1.3766097,0 C1.24448586,0 1.09488532,0.0433075959 0.937595038,0.135422165" id="Fill-31" fill="url(#linearGradient-45)" mask="url(#mask-44)"></path>
                                        </g>
                                        <g id="编组" transform="translate(13.851208, 18.114949)">
                                            <mask id="mask-47" fill="white">
                                                <use xlink:href="#path-46"></use>
                                            </mask>
                                            <g id="Clip-34"></g>
                                            <path d="M0.93687491,0.135422165 C0.410476752,0.442699869 -0.00826494423,1.17411704 0.000123871044,1.76942463 L0.000123871044,1.76942463 C0.00501734662,2.06157905 0.112673809,2.26643085 0.283246387,2.36266995 L0.283246387,2.36266995 C0.40418514,2.42522537 0.629984085,2.54139971 0.950157201,2.53865003 L0.950157201,2.53865003 C1.20182166,2.53658776 1.4276206,2.47540719 1.63943819,2.3516712 L1.63943819,2.3516712 C2.14416524,2.05882936 2.31054341,1.54257532 2.30075646,1.18924033 L2.30075646,1.18924033 C2.29236764,0.912896624 2.19449813,0.398017429 1.62545683,0.0618679941 L1.62545683,0.0618679941 C1.55275376,0.0206226647 1.46886561,0 1.37658864,0 L1.37658864,0 C1.2444648,0 1.09486426,0.0433075959 0.93687491,0.135422165" id="Fill-33" fill="url(#radialGradient-48)" mask="url(#mask-47)"></path>
                                        </g>
                                        <g id="编组" transform="translate(13.541643, 0.000000)">
                                            <mask id="mask-50" fill="white">
                                                <use xlink:href="#path-49"></use>
                                            </mask>
                                            <g id="Clip-36"></g>
                                            <path d="M0.426433119,0.105863012 C0.217411805,0.224787045 -0.000697391926,0.415890405 0,0.547188037 L0,0.547188037 L0.0789963532,17.7774244 L0.120241362,17.8001093 L0.617977735,17.5182662 L1.97347047,13.0830185 C2.04407633,12.8499824 2.07273812,12.6272576 2.05386328,12.4285926 L2.05386328,12.4285926 L0.838883203,0.0838655031 C0.837485068,0.0591183055 0.824901845,0.043995018 0.807425146,0.03505853 L0.807425146,0.03505853 C0.807425146,0.03505853 0.808124214,0.0343711078 0.808124214,0.0343711078 L0.808124214,0.0343711078 C0.808823282,0.0343711078 0.810221418,0.0343711078 0.810920486,0.0343711078 L0.810920486,0.0343711078 L0.76897641,0.0109987545 C0.756393187,0.00343711078 0.738916488,0 0.718643518,0 L0.718643518,0 C0.648037656,0 0.538983057,0.0419327516 0.426433119,0.105863012" id="Fill-35" fill="url(#linearGradient-51)" mask="url(#mask-50)"></path>
                                        </g>
                                        <g id="编组" transform="translate(0.000000, 19.560597)">
                                            <mask id="mask-53" fill="white">
                                                <use xlink:href="#path-52"></use>
                                            </mask>
                                            <g id="Clip-38"></g>
                                            <path d="M9.48984728,2.68094641 C9.30808962,2.82186795 9.14101238,3.00403483 8.99630531,3.21713569 L8.99630531,3.21713569 L0.0363515329,16.566874 C0.011884155,16.6019325 0.00069906794,16.6411156 0,16.6830483 L0,16.6830483 L0,16.6954219 C0.0034953397,16.8363435 0.118142482,16.9965128 0.243974711,17.0680047 L0.243974711,17.0680047 L0.285219719,17.0913771 C0.278928108,17.08794 0.273335564,17.0810658 0.267743021,17.0769412 L0.267743021,17.0769412 C0.34254329,17.1257482 0.423635171,17.1470583 0.487949422,17.1099375 L0.487949422,17.1099375 C0.506824256,17.0996262 0.525000023,17.0838154 0.540379517,17.0638802 L0.540379517,17.0638802 L13.2585225,0.339586546 L12.985886,0.0233723533 L12.9453401,0 L9.48984728,2.68094641 Z" id="Fill-37" fill="url(#linearGradient-54)" mask="url(#mask-53)"></path>
                                        </g>
                                        <path d="M32.3359283,53.5492099 C29.4520566,55.1287113 24.7758867,55.1287113 21.8857863,53.5492099 C19.0065861,51.9682308 19.0065861,49.4046807 21.8857863,47.8266568 C24.7758867,46.2471554 29.4520566,46.2471554 32.3359283,47.8266568 C35.2213572,49.4046807 35.2213572,51.9682308 32.3359283,53.5492099" id="投影" fill="#005F7C" opacity="0.670000017" filter="url(#filter-55)"></path>
                                        <g id="编组" transform="translate(14.913316, 18.365612)">
                                            <g transform="translate(6.645934, 26.554281)">
                                                <g transform="translate(0.000000, 3.283524)">
                                                    <mask id="mask-57" fill="white">
                                                        <use xlink:href="#path-56"></use>
                                                    </mask>
                                                    <g id="Clip-42"></g>
                                                    <path d="M9.90859474,2.35029635 C7.65410063,3.6392129 3.98469302,3.6392129 1.71412035,2.34960893 C0.571843336,1.70136984 0.00140389744,0.850341208 0.00420016919,0 L-2.48358823e-15,1.2813549 C-0.00209144226,2.13169611 0.568347996,2.98272474 1.70992594,3.63096383 C3.98119768,4.9205678 7.65060529,4.91988038 9.9050994,3.63165125 C11.0257053,2.99166123 11.5863578,2.15369362 11.588455,1.31503859 L11.5926494,0.0336836857 C11.5898531,0.872338717 11.0292006,1.71030633 9.90859474,2.35029635" id="Fill-41" fill="url(#linearGradient-58)" mask="url(#mask-57)"></path>
                                                </g>
                                                <g id="Fill-43">
                                                    <use fill="url(#linearGradient-59)" fill-rule="evenodd" xlink:href="#path-61"></use>
                                                    <use fill="black" fill-opacity="1" filter="url(#filter-62)" xlink:href="#path-61"></use>
                                                    <use stroke="url(#linearGradient-60)" stroke-width="0.2" xlink:href="#path-61"></use>
                                                </g>
                                                <path d="M6.03967313,0.0140749859 C4.47096468,-0.0264829214 2.88128418,0.283544471 1.68727614,0.966154673 C0.28284865,1.76906375 -0.228869082,2.8813128 0.12346116,3.91863284 L6.03967313,3.91863284 L6.03967313,0.0140749859 Z" id="Fill-45" fill="#2E91D5"></path>
                                            </g>
                                            <g transform="translate(9.734416, 22.127437)">
                                                <g transform="translate(0.000000, 1.528380)">
                                                    <mask id="mask-64" fill="white">
                                                        <use xlink:href="#path-63"></use>
                                                    </mask>
                                                    <g id="Clip-48"></g>
                                                    <path d="M0,5.3082739 C-0.00139263142,5.70354164 0.263554118,6.10018422 0.79554482,6.40264997 L0.79554482,6.40264997 C1.85183648,7.00208209 3.56105759,7.00208209 4.61035857,6.40264997 L4.61035857,6.40264997 C5.13256232,6.10430875 5.39261559,5.71385297 5.39401373,5.32339718 L5.39401373,5.32339718 L5.3989072,0.0158107096 C5.39820813,0.406266495 5.13745579,0.79672228 4.61525204,1.09437607 L4.61525204,1.09437607 C3.56595106,1.69449562 1.85672995,1.69449562 0.801137363,1.09437607 L0.801137363,1.09437607 C0.269146661,0.791910325 0.00350084416,0.395955162 0.00489898004,0 L0.00489898004,0 L0,5.3082739 Z" id="Fill-47" fill="url(#linearGradient-65)" mask="url(#mask-64)"></path>
                                                </g>
                                                <g id="Fill-49">
                                                    <use fill="url(#linearGradient-28)" fill-rule="evenodd" xlink:href="#path-66"></use>
                                                    <use fill="black" fill-opacity="1" filter="url(#filter-67)" xlink:href="#path-66"></use>
                                                    <use stroke="url(#linearGradient-29)" stroke-width="0.2" xlink:href="#path-66"></use>
                                                </g>
                                                <path d="M3.04123067,1.84122588 C3.04822135,1.66249612 3.05870737,1.48376635 3.09086449,1.30916113 C3.16776197,0.887771345 3.26423334,0.471193517 3.35091777,0.0518660017 C2.46030521,-0.0753070973 1.48230916,0.0532408461 0.7881347,0.449883431 C-0.179375329,1.00325827 -0.239495172,1.87078503 0.586104065,2.47365426 L2.89792174,2.47365426 C2.91469937,2.25574144 2.9643332,2.04539026 3.04123067,1.84122588" id="Fill-51" fill="#2E91D5"></path>
                                            </g>
                                        </g>
                                        <g id="编组" transform="translate(25.402577, 25.614724)">
                                            <mask id="mask-69" fill="white">
                                                <use xlink:href="#path-68"></use>
                                            </mask>
                                            <g id="Clip-54"></g>
                                            <path d="M0.571292362,0 C0.381145883,4.14790529 0.190999403,8.6250858 0.000153855786,16.239661 L0.000153855786,16.239661 C-0.00613775567,16.5304406 0.180513384,16.8219076 0.563602615,17.0473821 L0.563602615,17.0473821 C1.32978108,17.4976436 2.5895015,17.5100172 3.37805014,17.074879 L3.37805014,17.074879 C3.78490768,16.8507793 3.98623925,16.5503758 3.9806467,16.2513472 L3.9806467,16.2513472 C3.8345415,8.62989776 3.68773724,4.15065498 3.54163204,0 L3.54163204,0 L0.571292362,0 Z" id="Fill-53" fill="url(#linearGradient-70)" mask="url(#mask-69)"></path>
                                        </g>
                                        <g id="编组" transform="translate(22.603170, 22.361249)">
                                            <g>
                                                <path d="M4.64342237,0.319007901 C3.98629851,-0.0542623304 3.39139169,-0.0886334383 2.96146491,0.156776272 L0.691591308,1.45394188 C1.12151809,1.20853217 1.71642491,1.24290328 2.37354877,1.61617351 L5.37884184,3.3223553 L7.64871544,2.02518969 L4.64342237,0.319007901 Z" id="Fill-55" fill="url(#linearGradient-35)"></path>
                                                <path d="M7.64857563,2.02512095 L5.37870203,3.32228656 C5.97221071,3.65912342 6.45247038,4.47715579 6.45037318,5.14739239 L6.4454797,6.90031889 C6.44408157,7.19797268 6.33712417,7.40832386 6.16445439,7.50731265 L8.43432799,6.20945962 C8.60699777,6.11115825 8.71465424,5.90080707 8.7153533,5.60315328 L8.72025362,3.85022678 C8.72234398,3.17999018 8.24208431,2.36195781 7.64857563,2.02512095" id="Fill-57" fill="url(#linearGradient-71)"></path>
                                                <path d="M7.64857563,2.02512095 L5.37870203,3.32228656 C5.97221071,3.65912342 6.45247038,4.47715579 6.45037318,5.14739239 L8.72025362,3.85022678 C8.72234398,3.17999018 8.24208431,2.36195781 7.64857563,2.02512095" id="Fill-59" fill="url(#linearGradient-37)"></path>
                                                <path d="M5.37863212,3.32228656 L2.37333905,1.61610477 C1.066082,0.874376261 0.00559593846,1.47174612 0.000702462878,2.94901633 L0,3.24117075 C-0.00139474094,3.84197771 0.42923111,4.57476973 0.960522744,4.87654806 L5.47580257,7.43994528 C6.01058954,7.74378588 6.44331259,7.50112585 6.4454098,6.90031889 L6.45031012,5.14739239 C6.45240048,4.47715579 5.9721408,3.65912342 5.37863212,3.32228656" id="Fill-61" stroke="url(#linearGradient-39)" stroke-width="0.1" fill="url(#linearGradient-38)"></path>
                                            </g>
                                            <path d="M6.73076933,6.13838017 C6.73076933,6.76187207 7.17537654,7.014156 7.72484394,6.70275376 C8.27291321,6.3906641 8.71821948,5.63312488 8.71821948,5.01032041 C8.71821948,4.38682851 8.27291321,4.13454458 7.72484394,4.44594682 C7.17537654,4.75734906 6.73076933,5.5155757 6.73076933,6.13838017" id="Fill-63" fill="#64AED8"></path>
                                            <path d="M3.77566934,4.14444346 C3.49674123,3.98564894 3.27024322,4.11419689 3.27024322,4.4310985 C3.27024322,4.74868754 3.49674123,5.13364395 3.77566934,5.29243846 C4.05459744,5.45054556 4.28109546,5.32199762 4.28109546,5.005096 C4.28109546,4.68819439 4.05459744,4.30323798 3.77566934,4.14444346 L3.77566934,4.14444346 Z M2.8605894,4.42972366 L0.692080655,3.19855057 L0.692080655,3.48726788 L2.8605894,4.71844096 L2.8605894,4.42972366 Z M2.8605894,4.04407983 L0.692080655,2.81290674 L0.692080655,2.52418944 L2.8605894,3.75536252 L2.8605894,4.04407983 Z" id="Fill-65" fill="#053F5E"></path>
                                        </g>
                                        <g id="编组" transform="translate(32.197671, 28.206993)">
                                            <mask id="mask-73" fill="white">
                                                <use xlink:href="#path-72"></use>
                                            </mask>
                                            <g id="Clip-68"></g>
                                            <path d="M0,0.630366118 L2.21115189,2.47746945 C2.23631834,2.49809212 2.26288292,2.51665252 2.29014657,2.53246323 L2.29014657,2.53246323 L2.32160463,2.5503362 C2.42506668,2.6122042 2.54950078,2.63763882 2.68791623,2.62320295 L2.68791623,2.62320295 L13.4290951,1.55632376 C13.623436,1.44633622 13.9303268,0.567123279 13.7450738,0.557499369 L13.7450738,0.557499369 C13.7534626,0.557499369 13.7604533,0.560249058 13.7660459,0.562998747 L13.7660459,0.562998747 L13.7254999,0.540313815 C13.7192083,0.536876705 13.7122176,0.534127016 13.7038288,0.534127016 L13.7038288,0.534127016 L0.236284964,0 L0,0.630366118 Z" id="Fill-67" fill="url(#linearGradient-74)" mask="url(#mask-73)"></path>
                                        </g>
                                        <g id="编组" transform="translate(29.429217, 26.735223)">
                                            <mask id="mask-76" fill="white">
                                                <use xlink:href="#path-75"></use>
                                            </mask>
                                            <g id="Clip-70"></g>
                                            <path d="M0.936896207,0.135422165 C0.40979898,0.443387291 -0.00894271571,1.17411704 0.000145167504,1.76942463 L0.000145167504,1.76942463 C0.00433957514,2.06157905 0.111996038,2.26711827 0.282568615,2.36266995 L0.282568615,2.36266995 L1.73872713,3.18413943 C1.74292154,3.18688912 1.74501874,3.19307592 1.74921315,3.19582561 L1.74921315,3.19582561 L2.33433302,3.52510082 C2.16376044,3.42954914 2.05610398,3.22400992 2.0512105,2.9318555 L2.0512105,2.9318555 C2.04212262,2.33723533 2.46156338,1.60581816 2.98796154,1.29785303 L2.98796154,1.29785303 C3.25570456,1.1418082 3.49967927,1.12462265 3.67584439,1.22429886 L3.67584439,1.22429886 L3.10190962,0.900523026 C3.11029843,0.904647558 3.12078445,0.906022403 3.12917326,0.910834358 L3.12917326,0.910834358 L1.62477906,0.0618679941 C1.55207599,0.0213100869 1.46818784,0 1.37591087,0 L1.37591087,0 C1.24378703,0 1.09418649,0.0433075959 0.936896207,0.135422165" id="Fill-69" fill="url(#linearGradient-77)" mask="url(#mask-76)"></path>
                                        </g>
                                        <g id="编组" transform="translate(31.480283, 27.897653)">
                                            <mask id="mask-79" fill="white">
                                                <use xlink:href="#path-78"></use>
                                            </mask>
                                            <g id="Clip-72"></g>
                                            <path d="M0.936895971,0.135422165 C0.410497812,0.443387291 -0.00894295126,1.17480447 0.000144931958,1.76942463 L0.000144931958,1.76942463 C0.00503840754,2.06157905 0.11269487,2.26711827 0.283267447,2.36266995 L0.283267447,2.36266995 C0.404206201,2.42522537 0.630005145,2.54139971 0.949479194,2.53865003 L0.949479194,2.53865003 C1.20184272,2.53658776 1.4269426,2.47609461 1.63945925,2.35235862 L1.63945925,2.35235862 C2.14348723,2.05882936 2.31056447,1.54326274 2.30007845,1.18992775 L2.30007845,1.18992775 C2.29238871,0.913584047 2.19382013,0.398704851 1.62477882,0.0618679941 L1.62477882,0.0618679941 C1.55277483,0.0213100869 1.46888667,0 1.3766097,0 L1.3766097,0 C1.2437868,0 1.09488533,0.0433075959 0.936895971,0.135422165" id="Fill-71" fill="url(#radialGradient-80)" mask="url(#mask-79)"></path>
                                        </g>
                                        <g id="编组" transform="translate(31.170041, 9.783392)">
                                            <mask id="mask-82" fill="white">
                                                <use xlink:href="#path-81"></use>
                                            </mask>
                                            <g id="Clip-74"></g>
                                            <path d="M0.426431443,0.105863012 C0.218109197,0.224099623 0,0.415890405 0,0.547188037 L0,0.547188037 L0.0789946772,17.776737 L0.120938754,17.8001093 L0.617976059,17.5182662 L1.97416786,13.0830185 C2.04407466,12.849295 2.07343551,12.6272576 2.05386161,12.4279052 L2.05386161,12.4279052 L0.838881527,0.083178081 C0.83818246,0.0584308833 0.824900169,0.043995018 0.80742347,0.0343711078 L0.80742347,0.0343711078 C0.80742347,0.0343711078 0.808122538,0.0343711078 0.808122538,0.0343711078 L0.808122538,0.0343711078 C0.809520674,0.0343711078 0.810219742,0.0343711078 0.81091881,0.0343711078 L0.81091881,0.0343711078 L0.769673801,0.0103113324 C0.757090579,0.00343711078 0.73961388,0 0.71934091,0 L0.71934091,0 C0.648735048,0 0.538981381,0.0419327516 0.426431443,0.105863012" id="Fill-73" fill="url(#linearGradient-83)" mask="url(#mask-82)"></path>
                                        </g>
                                        <g id="编组" transform="translate(17.628541, 29.343990)">
                                            <mask id="mask-85" fill="white">
                                                <use xlink:href="#path-84"></use>
                                            </mask>
                                            <g id="Clip-76"></g>
                                            <path d="M9.48970271,2.67957157 C9.30794505,2.82118053 9.14086781,3.00403483 8.99685982,3.21644827 L8.99685982,3.21644827 L0.0362069668,16.566874 C-0.0707504279,16.7201691 0.0774519753,16.9724531 0.243830145,17.0680047 L0.243830145,17.0680047 L0.285774221,17.0913771 C0.27948261,17.08794 0.273890066,17.0810658 0.267598455,17.0762538 L0.267598455,17.0762538 C0.343097792,17.1257482 0.423490605,17.1470583 0.487804856,17.1099375 L0.487804856,17.1099375 C0.507378758,17.0996262 0.524855457,17.0838154 0.540234951,17.0631928 L0.540234951,17.0631928 L13.259077,0.338899123 L12.9864405,0.0233723533 L12.9458946,0 L9.48970271,2.67957157 Z" id="Fill-75" fill="url(#linearGradient-86)" mask="url(#mask-85)"></path>
                                        </g>
                                    </g>
                                </g>
                            </g>
                        </g>
                    </g>
                </g>
            </g>
        </g>
    </g>
</svg>