<?xml version="1.0" encoding="UTF-8"?>
<svg width="218px" height="202px" viewBox="0 0 218 202" version="1.1" xmlns="http://www.w3.org/2000/svg" xmlns:xlink="http://www.w3.org/1999/xlink">
    <title>icon_负载</title>
    <defs>
        <filter x="-4.1%" y="-7.2%" width="108.3%" height="114.4%" filterUnits="objectBoundingBox" id="filter-1">
            <feGaussianBlur stdDeviation="2.75726967" in="SourceGraphic"></feGaussianBlur>
        </filter>
        <linearGradient x1="57.6119%" y1="35.5083121%" x2="32.3596%" y2="66.6896862%" id="linearGradient-2">
            <stop stop-color="#1463AC" offset="0%"></stop>
            <stop stop-color="#0E3962" offset="100%"></stop>
        </linearGradient>
        <linearGradient x1="0%" y1="33.5904018%" x2="100%" y2="73.0978611%" id="linearGradient-3">
            <stop stop-color="#074989" offset="0%"></stop>
            <stop stop-color="#052C52" offset="99.6273935%"></stop>
        </linearGradient>
        <linearGradient x1="77.3038%" y1="116.481622%" x2="-58422.7173%" y2="-27644.1693%" id="linearGradient-4">
            <stop stop-color="#006AB4" offset="0%"></stop>
            <stop stop-color="#003364" offset="100%"></stop>
        </linearGradient>
        <linearGradient x1="94.6054%" y1="43.1624601%" x2="4.6801%" y2="40.33164%" id="linearGradient-5">
            <stop stop-color="#0C3257" offset="0%"></stop>
            <stop stop-color="#1969B5" offset="100%"></stop>
        </linearGradient>
        <linearGradient x1="100%" y1="50%" x2="-4.35%" y2="50.9649881%" id="linearGradient-6">
            <stop stop-color="#4AAEDB" offset="1.08529637%"></stop>
            <stop stop-color="#3DAAF8" stop-opacity="0" offset="100%"></stop>
        </linearGradient>
        <polygon id="path-7" points="0.155031189 57.5787407 99.9062054 0 199.90747 57.8279414 99.9062054 115.157481"></polygon>
        <filter x="-3.8%" y="-6.5%" width="107.5%" height="113.0%" filterUnits="objectBoundingBox" id="filter-8">
            <feGaussianBlur stdDeviation="7.5" in="SourceAlpha" result="shadowBlurInner1"></feGaussianBlur>
            <feOffset dx="0" dy="0" in="shadowBlurInner1" result="shadowOffsetInner1"></feOffset>
            <feComposite in="shadowOffsetInner1" in2="SourceAlpha" operator="arithmetic" k2="-1" k3="1" result="shadowInnerInner1"></feComposite>
            <feColorMatrix values="0 0 0 0 0.0392156877   0 0 0 0 0.53725493   0 0 0 0 1  0 0 0 0.600000024 0" type="matrix" in="shadowInnerInner1"></feColorMatrix>
        </filter>
        <filter x="-5.5%" y="-9.1%" width="111.0%" height="118.2%" filterUnits="objectBoundingBox" id="filter-9">
            <feGaussianBlur stdDeviation="1.83817978" in="SourceGraphic"></feGaussianBlur>
        </filter>
        <linearGradient x1="0.0101%" y1="50.0143%" x2="100.0124%" y2="50.0143%" id="linearGradient-10">
            <stop stop-color="#04335F" offset="0%"></stop>
            <stop stop-color="#04335F" offset="0.999999978%"></stop>
            <stop stop-color="#379BFA" offset="49.3999988%"></stop>
            <stop stop-color="#3699F7" offset="50.1999974%"></stop>
            <stop stop-color="#002141" offset="100%"></stop>
        </linearGradient>
        <linearGradient x1="171.4276%" y1="217.266162%" x2="-40070.9869%" y2="-35997.7539%" id="linearGradient-11">
            <stop stop-color="#2071BE" offset="0%"></stop>
            <stop stop-color="#2071BE" offset="0.999999978%"></stop>
            <stop stop-color="#002141" offset="100%"></stop>
        </linearGradient>
        <linearGradient x1="71.1766%" y1="68.2288897%" x2="28.7855%" y2="31.7952294%" id="linearGradient-12">
            <stop stop-color="#2071BE" offset="0%"></stop>
            <stop stop-color="#2071BE" offset="0.999999978%"></stop>
            <stop stop-color="#002141" offset="100%"></stop>
        </linearGradient>
        <linearGradient x1="50.0141%" y1="99.9938%" x2="50.0141%" y2="-0.0062%" id="linearGradient-13">
            <stop stop-color="#00DCFF" offset="0%"></stop>
            <stop stop-color="#014380" offset="100%"></stop>
        </linearGradient>
        <linearGradient x1="64.2992944%" y1="99.9736%" x2="35.8888338%" y2="0.2899%" id="linearGradient-14">
            <stop stop-color="#00F7AA" offset="0%"></stop>
            <stop stop-color="#00F7AA" offset="2.19999999%"></stop>
            <stop stop-color="#FFFFFF" offset="100%"></stop>
        </linearGradient>
        <linearGradient x1="64.9720016%" y1="99.9747%" x2="35.2154749%" y2="0.2907%" id="linearGradient-15">
            <stop stop-color="#00EAFF" offset="0%"></stop>
            <stop stop-color="#00EAFF" offset="1.79999992%"></stop>
            <stop stop-color="#FFFFFF" offset="100%"></stop>
        </linearGradient>
        <linearGradient x1="68.5142144%" y1="99.9785%" x2="31.672651%" y2="0.2948%" id="linearGradient-16">
            <stop stop-color="#DFE620" offset="0%"></stop>
            <stop stop-color="#FFFFFF" offset="100%"></stop>
        </linearGradient>
        <linearGradient x1="84.9297%" y1="55.7157041%" x2="34.0261%" y2="37.9515678%" id="linearGradient-17">
            <stop stop-color="#101826" stop-opacity="0" offset="0%"></stop>
            <stop stop-color="#00FFAF" offset="100%"></stop>
        </linearGradient>
        <linearGradient x1="100%" y1="50%" x2="34.0261%" y2="37.9515678%" id="linearGradient-18">
            <stop stop-color="#101826" stop-opacity="0" offset="0%"></stop>
            <stop stop-color="#00FCFF" offset="100%"></stop>
        </linearGradient>
        <linearGradient x1="87.152%" y1="50%" x2="34.0261%" y2="37.9515678%" id="linearGradient-19">
            <stop stop-color="#101826" stop-opacity="0" offset="0%"></stop>
            <stop stop-color="#FFF600" offset="100%"></stop>
        </linearGradient>
        <linearGradient x1="50.0235%" y1="100.0006%" x2="50.0235%" y2="0.0123%" id="linearGradient-20">
            <stop stop-color="#2071BE" offset="0%"></stop>
            <stop stop-color="#2071BE" offset="0.999999978%"></stop>
            <stop stop-color="#002141" offset="100%"></stop>
        </linearGradient>
        <linearGradient x1="50.0235%" y1="100.0053%" x2="50.0235%" y2="0.0209%" id="linearGradient-21">
            <stop stop-color="#48A6FF" offset="0%"></stop>
            <stop stop-color="#18598D" offset="100%"></stop>
        </linearGradient>
        <linearGradient x1="50.0235%" y1="100.0053%" x2="50.0235%" y2="0.0209%" id="linearGradient-22">
            <stop stop-color="#399CFF" offset="0.763358781%"></stop>
            <stop stop-color="#033863" offset="100%"></stop>
        </linearGradient>
        <linearGradient x1="50.0071%" y1="100.0316%" x2="50.0071%" y2="0.0968%" id="linearGradient-23">
            <stop stop-color="#074784" offset="0%"></stop>
            <stop stop-color="#074784" offset="0.999999978%"></stop>
            <stop stop-color="#002141" offset="100%"></stop>
        </linearGradient>
        <linearGradient x1="50.0072%" y1="100.0523%" x2="50.0072%" y2="0.0995%" id="linearGradient-24">
            <stop stop-color="#3C84C8" offset="0%"></stop>
            <stop stop-color="#18598D" offset="100%"></stop>
        </linearGradient>
        <linearGradient x1="50.0072%" y1="100.0523%" x2="50.0072%" y2="0.0995%" id="linearGradient-25">
            <stop stop-color="#00F6FF" offset="0%"></stop>
            <stop stop-color="#18598D" offset="100%"></stop>
        </linearGradient>
        <linearGradient x1="49.9832%" y1="100.0241%" x2="49.9832%" y2="0%" id="linearGradient-26">
            <stop stop-color="#00CCFF" offset="0%"></stop>
            <stop stop-color="#0E1624" stop-opacity="0" offset="100%"></stop>
        </linearGradient>
        <filter x="-16.5%" y="-26.0%" width="133.1%" height="151.9%" filterUnits="objectBoundingBox" id="filter-27">
            <feGaussianBlur stdDeviation="2.06956484" in="SourceGraphic"></feGaussianBlur>
        </filter>
        <linearGradient x1="100%" y1="46.6110755%" x2="0.0001%" y2="45.6732205%" id="linearGradient-28">
            <stop stop-color="#208FB6" offset="0%"></stop>
            <stop stop-color="#9CD8F4" offset="41.6691892%"></stop>
            <stop stop-color="#AFE5FF" offset="47.51252%"></stop>
            <stop stop-color="#9BD7F2" offset="53.3822889%"></stop>
            <stop stop-color="#208FB6" offset="100%"></stop>
        </linearGradient>
        <linearGradient x1="407.9246%" y1="970.9696%" x2="407.9246%" y2="870.9543%" id="linearGradient-29">
            <stop stop-color="#3E8DD2" offset="0%"></stop>
            <stop stop-color="#0D538F" stop-opacity="0" offset="100%"></stop>
        </linearGradient>
        <linearGradient x1="50.0004%" y1="54.3823589%" x2="50.0005%" y2="45.5007968%" id="linearGradient-30">
            <stop stop-color="#FFFFFF" offset="0.54%"></stop>
            <stop stop-color="#FFFFFF" offset="100%"></stop>
        </linearGradient>
        <linearGradient x1="50%" y1="0%" x2="50%" y2="100%" id="linearGradient-31">
            <stop stop-color="#086797" offset="0%"></stop>
            <stop stop-color="#C5E4F4" offset="100%"></stop>
        </linearGradient>
        <linearGradient x1="14.1408158%" y1="37.7192015%" x2="83.2801087%" y2="37.7192015%" id="linearGradient-32">
            <stop stop-color="#0385B0" offset="0%"></stop>
            <stop stop-color="#A4DCF8" offset="100%"></stop>
        </linearGradient>
        <linearGradient x1="49.8760543%" y1="69.4458525%" x2="50.0894117%" y2="34.8308555%" id="linearGradient-33">
            <stop stop-color="#8FD7FF" offset="0.68%"></stop>
            <stop stop-color="#A1E3FF" offset="25.3%"></stop>
            <stop stop-color="#C0F7FF" offset="73.09%"></stop>
            <stop stop-color="#CBFFFF" offset="100%"></stop>
        </linearGradient>
        <linearGradient x1="-35.0698074%" y1="28.7447337%" x2="109.074795%" y2="64.7591603%" id="linearGradient-34">
            <stop stop-color="#FB6583" offset="0.54%"></stop>
            <stop stop-color="#FC7688" offset="13.02%"></stop>
            <stop stop-color="#FDA797" offset="52.77%"></stop>
            <stop stop-color="#FFC6A0" offset="83.02%"></stop>
            <stop stop-color="#FFD1A3" offset="100%"></stop>
        </linearGradient>
        <linearGradient x1="48.4642511%" y1="70.4310861%" x2="52.0591429%" y2="22.6496089%" id="linearGradient-35">
            <stop stop-color="#130CB5" offset="0.54%"></stop>
            <stop stop-color="#285ECB" offset="28.23%"></stop>
            <stop stop-color="#3AA3DD" offset="53.8%"></stop>
            <stop stop-color="#47D5EB" offset="75%"></stop>
            <stop stop-color="#4FF4F3" offset="91.02%"></stop>
            <stop stop-color="#52FFF6" offset="100%"></stop>
        </linearGradient>
        <linearGradient x1="49.8698538%" y1="63.1481787%" x2="50.0445178%" y2="39.833771%" id="linearGradient-36">
            <stop stop-color="#8FD7FF" offset="0.68%"></stop>
            <stop stop-color="#A1E3FF" offset="25.3%"></stop>
            <stop stop-color="#C0F7FF" offset="73.09%"></stop>
            <stop stop-color="#CBFFFF" offset="100%"></stop>
        </linearGradient>
        <linearGradient x1="-35.4330727%" y1="30.9859683%" x2="108.700615%" y2="59.1527784%" id="linearGradient-37">
            <stop stop-color="#FB6583" offset="0.54%"></stop>
            <stop stop-color="#FC7688" offset="13.02%"></stop>
            <stop stop-color="#FDA797" offset="52.77%"></stop>
            <stop stop-color="#FFC6A0" offset="83.02%"></stop>
            <stop stop-color="#FFD1A3" offset="100%"></stop>
        </linearGradient>
        <linearGradient x1="49.8756376%" y1="69.4441064%" x2="50.0885783%" y2="34.8291093%" id="linearGradient-38">
            <stop stop-color="#8FD7FF" offset="0.68%"></stop>
            <stop stop-color="#A1E3FF" offset="25.3%"></stop>
            <stop stop-color="#C0F7FF" offset="73.09%"></stop>
            <stop stop-color="#CBFFFF" offset="100%"></stop>
        </linearGradient>
        <linearGradient x1="-35.0706959%" y1="28.7441179%" x2="109.078416%" y2="64.7610358%" id="linearGradient-39">
            <stop stop-color="#FB6583" offset="0.54%"></stop>
            <stop stop-color="#FC7688" offset="13.02%"></stop>
            <stop stop-color="#FDA797" offset="52.77%"></stop>
            <stop stop-color="#FFC6A0" offset="83.02%"></stop>
            <stop stop-color="#FFD1A3" offset="100%"></stop>
        </linearGradient>
        <linearGradient x1="48.4632647%" y1="70.4321212%" x2="51.7725972%" y2="26.443983%" id="linearGradient-40">
            <stop stop-color="#130CB5" offset="0.54%"></stop>
            <stop stop-color="#285ECB" offset="28.23%"></stop>
            <stop stop-color="#3AA3DD" offset="53.8%"></stop>
            <stop stop-color="#47D5EB" offset="75%"></stop>
            <stop stop-color="#4FF4F3" offset="91.02%"></stop>
            <stop stop-color="#52FFF6" offset="100%"></stop>
        </linearGradient>
        <linearGradient x1="49.8727649%" y1="63.1467165%" x2="50.0474289%" y2="39.8325177%" id="linearGradient-41">
            <stop stop-color="#8FD7FF" offset="0.68%"></stop>
            <stop stop-color="#A1E3FF" offset="25.3%"></stop>
            <stop stop-color="#C0F7FF" offset="73.09%"></stop>
            <stop stop-color="#CBFFFF" offset="100%"></stop>
        </linearGradient>
        <linearGradient x1="-35.4390386%" y1="30.9847457%" x2="108.700767%" y2="59.1542523%" id="linearGradient-42">
            <stop stop-color="#FB6583" offset="0.54%"></stop>
            <stop stop-color="#FC7688" offset="13.02%"></stop>
            <stop stop-color="#FDA797" offset="52.77%"></stop>
            <stop stop-color="#FFC6A0" offset="83.02%"></stop>
            <stop stop-color="#FFD1A3" offset="100%"></stop>
        </linearGradient>
        <linearGradient x1="52.5294322%" y1="112.165669%" x2="50.3530364%" y2="38.5368093%" id="linearGradient-43">
            <stop stop-color="#6AB8FF" offset="0%"></stop>
            <stop stop-color="#FFFFFF" stop-opacity="0" offset="100%"></stop>
        </linearGradient>
        <linearGradient x1="52.3425525%" y1="111.769044%" x2="50.3714816%" y2="38.7243038%" id="linearGradient-44">
            <stop stop-color="#6AB8FF" offset="0%"></stop>
            <stop stop-color="#FFFFFF" stop-opacity="0" offset="100%"></stop>
        </linearGradient>
        <linearGradient x1="45.5236842%" y1="-4.08980807%" x2="53.4009912%" y2="100%" id="linearGradient-45">
            <stop stop-color="#B0FFDA" offset="0%"></stop>
            <stop stop-color="#016C3C" offset="100%"></stop>
        </linearGradient>
    </defs>
    <g id="首页" stroke="none" stroke-width="1" fill="none" fill-rule="evenodd">
        <g id="1_4.站控系统（站点）首页全屏展示" transform="translate(-1031.000000, -583.000000)">
            <g id="2D视图" transform="translate(474.000000, 253.000000)">
                <g id="系统能流图" transform="translate(0.000000, 52.000000)">
                    <g id="能流图（无充电桩）" transform="translate(40.000000, 86.000000)">
                        <g id="中间2" transform="translate(167.000000, 0.000000)">
                            <g id="icon_负载" transform="translate(359.000000, 192.000000)">
                                <g id="组合-14" transform="translate(0.000000, 63.951341)">
                                    <polygon id="形状_2_拷贝_2-3" fill="#000000" opacity="0.5" filter="url(#filter-1)" points="0 71.4674235 99.8388 13.8861878 200 71.7889571 99.8388 129.048659"></polygon>
                                    <polygon id="形状_2_拷贝-3" fill="url(#linearGradient-2)" opacity="0.800000012" points="0.155031189 67.5490754 99.9062054 9.9703447 199.90747 68.0476325 99.9062054 125.377085"></polygon>
                                    <polygon id="形状_3_拷贝-3" fill="url(#linearGradient-3)" points="0.155031189 67.5490973 99.9062489 125.377085 99.9062489 115.157501 0.155031189 57.5787407"></polygon>
                                    <polygon id="形状_4_拷贝-3" fill-opacity="0.600000024" fill="url(#linearGradient-4)" points="199.907592 68.0476355 99.9063709 125.377085 99.9063709 115.157516 199.907592 57.8279993"></polygon>
                                    <g id="形状_2-3">
                                        <use fill-opacity="0.899999976" fill="url(#linearGradient-5)" fill-rule="evenodd" xlink:href="#path-7"></use>
                                        <use fill="black" fill-opacity="1" filter="url(#filter-8)" xlink:href="#path-7"></use>
                                        <path stroke="url(#linearGradient-6)" stroke-width="0.749503125" d="M99.9060353,0.4328003 L199.156432,57.8265359 L99.9068446,114.725148 L0.904657588,57.5787407 L99.9060353,0.4328003 Z" stroke-linejoin="square"></path>
                                    </g>
                                </g>
                                <g id="底座样式02" transform="translate(52.000635, 60.440961)">
                                    <path d="M2.22136889,70.0892163 C0.121359122,68.8678193 -0.60360487,66.2007698 0.621375768,64.0821089 C0.996388253,63.4091004 1.57138735,62.8607119 2.22136889,62.4868519 C2.22136889,62.4868519 16.9298912,54.0037386 46.3469358,37.037512 C48.6469321,35.7164795 51.4969669,35.7164795 53.7970635,37.037512 C53.7970635,37.037512 68.5555741,45.5704733 98.0725953,62.6363959 C100.172605,63.8577324 100.897569,66.5247818 99.6725884,68.6435033 C99.2726152,69.3165118 98.7225768,69.8649003 98.0475343,70.2387603 C98.0475343,70.2387603 83.2890237,78.6803134 53.7720025,95.5634197 C51.4720061,96.8845126 48.6469321,96.8595886 46.3469358,95.5384957 C46.3469358,95.5384957 31.6384135,87.0554025 2.22136889,70.0892163 L2.22136889,70.0892163 Z" id="形状_17_拷贝_16" fill="#093259" opacity="0.600000024" filter="url(#filter-9)"></path>
                                    <path d="M98.1475582,41.9230533 L53.8970058,16.3490653 C51.5969898,15.0280041 48.7470266,15.0280041 46.4469104,16.3490653 C46.4469104,16.3490653 31.7384208,24.8238761 2.32144163,41.7734978 C0.946423336,42.54614 0.096395624,44.0167567 0.120851085,45.587126 C0.120851085,45.587126 0.120851085,49.8826715 0.120851085,58.4737625 C0.096395624,60.0441318 0.946423336,61.5147485 2.32144163,62.287464 C2.32144163,62.287464 17.0299312,70.7622504 46.4469104,87.7118232 C48.7470266,89.0328844 51.5720332,89.0328844 53.8720492,87.7367613 C53.8720492,87.7367613 68.6305522,79.3118023 98.1475582,62.4618843 C99.5225765,61.6892421 100.372604,60.218552 100.348149,58.6482561 C100.348149,58.6482561 100.348149,54.3527106 100.348149,45.7616196 C100.372604,44.1912503 99.5225765,42.7206336 98.1475582,41.9230533 C98.1475582,41.9230533 98.1475582,41.9230533 98.1475582,41.9230533 Z" id="形状_26" fill="url(#linearGradient-10)"></path>
                                    <path d="M2.19644542,49.7995996 C0.096334446,48.5781946 -0.628629876,45.9111437 0.596351321,43.7924726 C0.971363977,43.1194473 1.54636333,42.5710676 2.19644542,42.1971916 C2.19644542,42.1971916 16.904941,33.7140964 46.3219322,16.7479062 C48.6219296,15.4267848 51.4719657,15.4267848 53.7720633,16.7479062 C53.7720633,16.7479062 68.5305807,25.2808595 98.0476153,42.3467662 C100.147626,43.5681107 100.87259,46.2351615 99.6476092,48.3538932 C99.2476358,49.0268579 98.6975972,49.5752377 98.0225543,49.9491137 C98.0225543,49.9491137 83.264037,58.3906805 53.7470023,75.273814 C51.4719657,76.5948749 48.6469906,76.5948749 46.3468929,75.273814 C46.3468929,75.273814 31.6300771,66.7824092 2.19644542,49.7995996 L2.19644542,49.7995996 Z" id="形状_17_拷贝_8" fill-opacity="0.800000012" fill="url(#linearGradient-11)"></path>
                                    <path d="M2.19644542,62.2625457 C0.096334446,61.0411407 -0.628629876,58.3740898 0.596351321,56.2554187 C0.971363977,55.5823934 1.54636333,55.0340137 2.19644542,54.6601377 C2.19644542,54.6601377 16.904941,46.1770425 46.3219322,29.2108523 C48.6219296,27.8897309 51.4719657,27.8897309 53.7720633,29.2108523 C53.7720633,29.2108523 68.5305807,37.7438056 98.0476153,54.8097123 C100.147626,56.0310567 100.87259,58.6981076 99.6476092,60.8168393 C99.2476358,61.489804 98.6975972,62.0381838 98.0225543,62.4120598 C98.0225543,62.4120598 83.264037,70.8536266 53.7470023,87.7367601 C51.4719657,89.057821 48.6469906,89.057821 46.3468929,87.7367601 C46.3468929,87.7367601 31.6300771,79.2453553 2.19644542,62.2625457 L2.19644542,62.2625457 Z" id="形状_17_拷贝_9" fill="url(#linearGradient-11)" opacity="0.100000001"></path>
                                    <path d="M2.19634417,50.0488582 C0.096334402,48.8274532 -0.628629589,46.1604023 0.596351049,44.0417312 C0.971363534,43.3687059 1.54636263,42.8203262 2.19634417,42.4464502 C2.19634417,42.4464502 16.9048665,33.9633551 46.321911,16.9971648 C48.6219074,15.6761039 51.4719422,15.6761039 53.7720388,16.9971648 C53.7720388,16.9971648 68.5305494,25.5301182 98.0475705,42.5960248 C100.14758,43.8173693 100.872544,46.4844202 99.6475637,48.6031518 C99.2475905,49.2761165 98.6975521,49.8244963 98.0225096,50.1983723 C98.0225096,50.1983723 83.2723526,58.6399391 53.7720388,75.5230727 C51.4719422,76.8441335 48.6469684,76.8441335 46.346972,75.5230727 C46.346972,75.5230727 31.6300961,67.0316678 2.19634417,50.0488582 L2.19634417,50.0488582 Z" id="形状_17_拷贝_11" stroke="url(#linearGradient-13)" stroke-width="0.749503125" fill-opacity="0" fill="url(#linearGradient-12)"></path>
                                    <polygon id="矩形_3" fill="url(#linearGradient-14)" points="60.2720675 75.946814 60.2720675 79.8850987 56.2470245 82.253054 56.2470245 78.3147693"></polygon>
                                    <polygon id="矩形_3_拷贝" fill="url(#linearGradient-15)" points="67.272153 72.2079347 67.272153 76.1462195 63.24711 78.5141747 63.24711 74.57589"></polygon>
                                    <polygon id="矩形_3_拷贝_2" fill="url(#linearGradient-16)" points="74.0222354 68.4690555 74.0222354 72.4073402 69.9971923 74.7752955 69.9971923 70.8370108"></polygon>
                                    <polygon id="形状_27" fill="url(#linearGradient-17)" opacity="0.400000006" points="63.372109 85.0696733 67.6221634 82.5770896 60.3720799 79.5859837 56.372026 81.8293118"></polygon>
                                    <polygon id="形状_27_拷贝" fill="url(#linearGradient-18)" opacity="0.400000006" points="70.3721944 81.3307941 74.6222488 78.8382104 67.3721653 75.8471045 63.3721115 78.0904325"></polygon>
                                    <polygon id="形状_27_拷贝_2" fill="url(#linearGradient-19)" opacity="0.400000006" points="77.1222768 77.5919148 81.3723312 75.0993311 74.1222477 72.1082252 70.1221939 74.3515533"></polygon>
                                    <path d="M12.3214982,47.506403 C10.6715077,46.5592366 10.0965014,44.4405585 11.0464911,42.7705231 C11.3465253,42.2470828 11.7965371,41.8233567 12.3214982,41.4992972 C12.3214982,41.4992972 23.9216614,34.8108503 47.1219879,21.4339563 C48.9470182,20.3870756 51.172015,20.3870756 52.9970452,21.4339563 C52.9970452,21.4339563 64.6388469,28.1639469 87.9224504,41.6239281 C89.5724409,42.5710946 90.1475262,44.6897726 89.1724744,46.359808 C88.8724401,46.8832483 88.4224284,47.3319388 87.8974673,47.6310339 C87.8974673,47.6310339 76.2556656,54.2862428 52.9720621,67.5966605 C51.196998,68.6435412 48.9720013,68.6435412 47.146971,67.5966605 C47.146971,67.5966605 35.5384801,60.899908 12.3214982,47.506403 L12.3214982,47.506403 Z" id="形状_17_拷贝_13" stroke="url(#linearGradient-21)" stroke-width="0.533339844" fill-opacity="0.800000012" fill="url(#linearGradient-20)"></path>
                                    <path d="M12.3214982,41.7734548 C10.6715077,40.8262884 10.0965014,38.7076103 11.0464911,37.0375749 C11.3465253,36.5141346 11.7965371,36.0903608 12.3214982,35.766349 C12.3214982,35.766349 23.9216614,29.0779021 47.1219879,15.7010081 C48.9470182,14.6541274 51.172015,14.6541274 52.9970452,15.7010081 C52.9970452,15.7010081 64.6388469,22.4309987 87.9224504,35.8909799 C89.5724409,36.8381464 90.1475262,38.9568244 89.1724744,40.6268598 C88.8724401,41.1503479 88.4224284,41.5989906 87.8974673,41.8980857 C87.8974673,41.8980857 76.2556656,48.5532946 52.9720621,61.8637123 C51.196998,62.910593 48.9720013,62.910593 47.146971,61.8637123 C47.146971,61.8637123 35.5384801,55.1669598 12.3214982,41.7734548 L12.3214982,41.7734548 Z" id="形状_17_拷贝_12" stroke="url(#linearGradient-22)" stroke-width="0.9993375" fill-opacity="0.800000012" fill="url(#linearGradient-20)"></path>
                                    <path d="M32.2717148,43.9419752 C31.4967037,43.4933254 31.2217047,42.4962834 31.6717303,41.6986588 C31.8217264,41.449404 32.0217088,41.2499866 32.2717148,41.1004291 C32.2717148,41.1004291 37.7551216,37.9348458 48.7219354,31.603679 C49.5719258,31.1051693 50.6469664,31.1051693 51.4969568,31.603679 C51.4969568,31.603679 56.9970257,34.7858824 67.9971636,41.1502891 C68.7721373,41.5989388 69.0471738,42.5959809 68.5971854,43.3936054 C68.447152,43.6428829 68.2471696,43.8422777 67.9971636,43.9918352 C67.9971636,43.9918352 62.4970947,47.132496 51.4969568,53.4138178 C50.6469664,53.9123276 49.5719258,53.9123276 48.7219354,53.4387253 C48.7219354,53.4387253 43.2385285,50.2731419 32.2717148,43.9419752 L32.2717148,43.9419752 Z" id="形状_17_拷贝_15" stroke="url(#linearGradient-24)" stroke-width="0.533339844" fill-opacity="0.800000012" fill="url(#linearGradient-23)" opacity="0.600000024"></path>
                                    <path d="M32.2717148,40.2030959 C31.4967037,39.7544462 31.2217047,38.7574042 31.6717303,37.9597796 C31.8217264,37.7105247 32.0217088,37.5111073 32.2717148,37.3615499 C32.2717148,37.3615499 37.7551216,34.1959665 48.7219354,27.8647998 C49.5719258,27.36629 50.6469664,27.36629 51.4969568,27.8647998 C51.4969568,27.8647998 56.9970257,31.0470031 67.9971636,37.4114099 C68.7721373,37.8600596 69.0471738,38.8571016 68.5971854,39.6547262 C68.447152,39.9040036 68.2471696,40.1033985 67.9971636,40.2529559 C67.9971636,40.2529559 62.4970947,43.3936168 51.4969568,49.6749386 C50.6469664,50.1734483 49.5719258,50.1734483 48.7219354,49.699846 C48.7219354,49.699846 43.2385285,46.5342626 32.2717148,40.2030959 L32.2717148,40.2030959 Z" id="形状_17_拷贝_14" stroke="url(#linearGradient-25)" stroke-width="0.533339844" fill-opacity="0.800000012" fill="url(#linearGradient-23)"></path>
                                    <path d="M51.4720265,49.3739802 C50.6220051,49.8725057 49.5720093,49.8725057 48.6970004,49.3739802 C48.6970004,49.3739802 43.2219229,46.216695 32.2717679,39.9021247 C31.8217697,39.652862 31.5217709,39.1793012 31.4717587,38.6558538 C31.4717587,38.6558538 31.4717587,25.7705692 31.4717587,0 L68.8222055,0 L68.797218,38.6558538 C68.7722306,39.2042232 68.447207,39.6778267 67.9722214,39.9520114 L51.4720265,49.3739802 Z" id="矩形_4" fill="url(#linearGradient-26)" opacity="0.600000024"></path>
                                </g>
                                <g id="其他负载备份-2" transform="translate(81.000000, 0.000000)">
                                    <path d="M2.53983107,97.1945632 C2.46763338,97.0687022 2.43151765,96.9331564 2.43151765,96.7879469 C2.43151765,96.6427162 2.46763338,96.5071703 2.53983107,96.3813306 C2.61206254,96.2554696 2.71071357,96.1560878 2.83588551,96.0831638 C2.83588551,96.0831638 8.46619156,92.4828014 19.7268037,85.2820765 C20.1743482,85.0199673 20.6218928,85.0199673 21.0694374,85.2820765 C21.0694374,85.2820765 27.2449467,89.0747496 39.5959654,96.6600959 C39.8659719,96.8172252 40.0006374,97.0524296 40,97.3656879 C39.9993873,97.6789035 39.8637759,97.9135545 39.5931613,98.0696196 C39.5931613,98.0696196 33.9390146,101.649271 22.6307212,108.808575 C22.1854739,109.064745 21.7407335,109.063809 21.2965336,108.805744 C21.2965336,108.805744 15.1429842,105.034732 2.83588551,97.4927088 C2.71071357,97.419806 2.61206254,97.3204029 2.53983107,97.1945632 Z" id="形状_7_拷贝_9" fill-opacity="0.2" fill="#000000" filter="url(#filter-27)"></path>
                                    <path d="M21.0811885,87.4264955 L3.46354988,77.3249607 L3.46354988,94.887828 C3.46354988,95.5756944 3.83135988,96.2112754 4.42805733,96.5538492 L20.3083272,105.674929 L20.3083272,105.674929 C20.7863965,105.950995 21.375562,105.950786 21.8534221,105.674301 L36.3480232,97.2768514 C36.9286107,96.9411793 37.2859597,96.321493 37.2859597,95.6509853 L37.2859597,78.7274637 L37.2859597,78.5708167 L21.0811885,87.4264955 Z" id="Path备份-12" stroke="url(#linearGradient-29)" stroke-width="1.13443827" fill="url(#linearGradient-28)"></path>
                                    <path d="M9.73975256,81.6006497 L12.2625358,83.0062898 L14.7777871,84.4251058 L19.7959457,87.2842793 L19.8013854,87.2876256 C20.004748,87.4147836 20.2447241,87.5086882 20.4842818,87.5685026 C20.7259317,87.6285262 20.9763689,87.6517409 21.2245047,87.6373102 C21.4732681,87.6262257 21.7188932,87.5685026 21.951965,87.4804541 C22.0099192,87.4572393 22.0689194,87.4365343 22.1260367,87.4112282 L22.293204,87.3256893 C22.4049279,87.2721491 22.5158148,87.2006227 22.6271203,87.138926 L25.2980318,85.6059187 L27.9750107,84.0831594 L30.6605676,82.5754583 L28.0147626,84.1515487 L25.3601703,85.71279 L22.6997198,87.2637835 C22.5869499,87.3269442 22.4821303,87.3957517 22.3626653,87.4543114 L22.1875476,87.5448696 C22.1277104,87.5718489 22.0653627,87.594227 22.0044794,87.6189057 C21.7588543,87.7128103 21.4985838,87.7753436 21.2341288,87.7885195 C20.9703015,87.8050417 20.7041728,87.7816178 20.447459,87.7190845 C20.1896991,87.6557146 19.9449108,87.561601 19.7135127,87.4147836 L19.7189525,87.4181299 L14.7194145,84.5263303 L12.2259222,83.0696597 L9.73975256,81.6006497 Z" id="Path" fill="url(#linearGradient-30)"></path>
                                    <path d="M3.91086375,76.7402011 C3.91086375,76.7402011 14.9811496,70.7597997 18.4782737,68.8543114 C19.3772951,68.3642929 20.1873976,68.5533568 20.6357576,68.8112283 C24.1950202,70.8576779 34.6296936,76.8571112 37.0769482,78.2642153 C37.4098183,78.4555797 37.2717327,78.751515 37.1631471,78.8142574 C33.475423,80.9475008 22.4120414,87.3470218 22.4120414,87.3470218 C21.5912686,87.821773 20.5796865,87.8234461 19.7574491,87.3514137 L3.89161544,78.2292886 C3.31249254,77.8969628 3.32316279,77.057887 3.91086375,76.7402011 Z" id="Path" fill="url(#linearGradient-31)"></path>
                                    <path d="M17.1647861,35.0415674 L12.9186519,35.0415674 L11.7767253,76.5787438 C15.0257136,78.6492448 18.274702,76.5787438 18.274702,76.5787438 L17.1647861,35.0415674 Z" id="Path" fill="url(#linearGradient-32)"></path>
                                    <path d="M12.4512529,34.882829 L12.4512529,34.882829 C12.4554373,34.5178771 12.7023177,34.1529251 13.1914757,33.8737212 C14.1739762,33.3128037 15.7619613,33.3098757 16.7383943,33.8672378 C17.2285984,34.1470692 17.4712945,34.5149491 17.4673193,34.882829 L17.4675285,34.882829 L17.4719221,35.4351717 L17.4719221,35.4351717 C17.4761065,35.8325406 17.2620738,36.2334648 16.7316993,36.5363017 C15.7491988,37.0972193 14.1612137,37.1001472 13.1847807,36.5427851 C12.6537785,36.2397391 12.4633877,35.8356777 12.4556465,35.4353808 L12.4556465,35.4353808 L12.4512529,34.882829 Z" id="Path" fill="url(#linearGradient-33)"></path>
                                    <path d="M13.180387,35.8986293 C14.1568201,36.4559914 15.7448052,36.4530634 16.7273056,35.8921459 C17.7098061,35.3312284 17.7148274,34.4248091 16.7383943,33.867447 C15.7619613,33.3100848 14.1739762,33.3130128 13.1914757,33.8739304 C12.2089753,34.4348479 12.203954,35.3412672 13.180387,35.8986293 Z" id="Path" fill="url(#linearGradient-34)"></path>
                                    <path d="M16.4664074,35.6733839 C15.6410317,36.1063068 14.298044,36.103588 13.4668102,35.6669005 C12.6355763,35.230213 12.6311827,34.5254061 13.4565584,34.0924832 C14.2821433,33.6595603 15.6249217,33.6622791 16.4561556,34.0989666 C17.2873895,34.5354449 17.2919923,35.2402518 16.4664074,35.6733839 Z" id="Path" fill="url(#linearGradient-35)"></path>
                                    <path d="M17.8893174,45.8307595 L17.8893174,45.8307595 C17.892665,45.5172563 17.7388877,45.2039624 17.4292411,44.9320784 L17.4627164,46.1883914 C14.8190036,48.3910698 12.6460374,46.3672074 12.6460374,46.3672074 L12.6575445,44.906354 C12.3209084,45.1843031 12.1487197,45.5074267 12.145163,45.8307595 L12.1449538,45.8307595 L12.1501843,46.4634125 C12.1589716,46.9218507 12.3769795,47.3844717 12.9851841,47.7316466 C14.1032596,48.3699465 15.9218059,48.3666002 17.0469949,47.7243267 C17.6543626,47.37757 17.89936,46.9182953 17.8945479,46.4634125 L17.8893174,45.8307595 Z" id="Path" fill="url(#linearGradient-36)"></path>
                                    <path d="M17.4290319,44.9322875 L17.4572767,45.9894979 C16.9082815,46.76123 16.0197212,46.9672344 15.0255044,46.9684893 C13.6028036,46.9703715 12.807765,46.3515218 12.6573353,45.9894979 L12.6573353,44.906354 C11.8823818,45.5465362 11.9874106,46.4274402 12.9797444,46.9937954 C14.0978198,47.6320953 15.9163662,47.628749 17.0415551,46.9864754 C18.0221726,46.4268128 18.1516802,45.5666137 17.4290319,44.9322875 Z" id="Path" fill="url(#linearGradient-37)"></path>
                                    <path d="M26.7431192,39.5678079 L22.496985,39.5678079 L21.3550584,81.1049843 C24.6040467,83.1754853 27.853035,81.1049843 27.853035,81.1049843 L26.7431192,39.5678079 Z" id="Path" fill="url(#linearGradient-32)"></path>
                                    <path d="M22.0295859,39.4090695 L22.0295859,39.4090695 C22.0337703,39.0441176 22.2806508,38.6791656 22.7698088,38.3999617 C23.7523092,37.8390442 25.3402944,37.8361162 26.3167274,38.3934783 C26.8069315,38.6733097 27.0496275,39.0411896 27.0456523,39.4090695 L27.0458615,39.4090695 L27.0502552,39.9614122 L27.0502552,39.9614122 C27.0544396,40.3587811 26.8404068,40.7597053 26.3100323,41.0625422 C25.3275319,41.6234598 23.7395467,41.6263877 22.7631137,41.0690256 C22.2321116,40.7659796 22.0417207,40.3619182 22.0339796,39.9616213 L22.0339796,39.9616213 L22.0295859,39.4090695 Z" id="Path" fill="url(#linearGradient-38)"></path>
                                    <path d="M22.7585109,40.4246606 C23.7349439,40.9820228 25.322929,40.9790948 26.3054295,40.4181773 C27.2879299,39.8572597 27.2929512,38.9508404 26.3165182,38.3934783 C25.3400851,37.8361162 23.7521,37.8390442 22.7695996,38.3999617 C21.7873084,38.9606701 21.7822871,39.8672985 22.7585109,40.4246606 Z" id="Path" fill="url(#linearGradient-39)"></path>
                                    <path d="M26.0447405,40.1994152 C25.2191556,40.6323382 23.8763771,40.6296193 23.0451432,40.1929319 C22.2139094,39.7564535 22.2095157,39.0514375 23.0348914,38.6185146 C23.8604763,38.1855917 25.203464,38.1883105 26.0344886,38.624998 C26.8657225,39.0614763 26.8703254,39.7664923 26.0447405,40.1994152 Z" id="Path" fill="url(#linearGradient-40)"></path>
                                    <path d="M27.4674412,50.357 L27.4674412,50.357 C27.4707888,50.0434968 27.3170116,49.7302029 27.0073649,49.4583189 L27.0408402,50.7146319 C24.3971274,52.9173103 22.2241612,50.8934479 22.2241612,50.8934479 L22.2356683,49.4325945 C21.8990322,49.7105436 21.7268436,50.0336672 21.7232868,50.357 L21.7230776,50.357 L21.7283081,50.989653 C21.7370954,51.4480912 21.9551034,51.9107122 22.5633079,52.2578871 C23.6813834,52.896187 25.4999297,52.8928407 26.6251187,52.2505672 C27.2324864,51.9038105 27.4774838,51.4445358 27.4726718,50.989653 L27.4674412,50.357 Z" id="Path" fill="url(#linearGradient-41)"></path>
                                    <path d="M27.0073649,49.4583189 L27.0356097,50.5155292 C26.4866146,51.2872614 25.5980543,51.4932658 24.6040467,51.4945206 C23.1813459,51.4964029 22.386098,50.877344 22.2358775,50.5155292 L22.2358775,49.4323854 C21.4609241,50.0725675 21.5659529,50.9534715 22.5582866,51.5198267 C23.6763621,52.1581266 25.4949085,52.1547804 26.6200974,51.5125068 C27.6002964,50.9528441 27.7300132,50.0928542 27.0073649,49.4583189 Z" id="Path" fill="url(#linearGradient-42)"></path>
                                    <path d="M12.8644638,35.0415674 C12.8644638,35.0415674 10.7090721,34.3560015 9.68200765,31.1147264 C8.65494321,27.8734514 12.3669369,25.414993 8.1536504,19.4281082 C3.94057309,13.4412234 -0.5319379,11.3370507 0.0515786437,4.54225225 C0.635095187,-2.25254618 11.3302484,0.171613032 14.1905046,1.7152865 C17.0509701,3.25895996 23.5393225,9.28683648 21.7230776,15.6068837 C19.9070419,21.9269309 18.5646819,24.296295 19.8145663,26.2948513 C21.5377081,29.0496632 19.1496629,34.0427075 17.062268,35.0413582 C16.6731175,36.3348985 13.2015183,36.3231865 12.8644638,35.0415674 Z" id="Path" fill="url(#linearGradient-43)" opacity="0.7"></path>
                                    <path d="M22.4488642,39.6834631 C22.4488642,39.6834631 20.2934725,38.9978973 19.2664081,35.7566222 C18.2393437,32.5153471 21.9513374,30.0568887 17.7380509,24.0700039 C13.5249735,18.0831191 12.0422264,15.7666678 12.6255337,8.97166023 C13.2088411,2.17665266 26.7866371,3.49027047 29.6468933,5.03394393 C32.5071496,6.5776174 34.1509966,13.6286142 32.3349609,19.9486614 C30.5189252,26.2687086 27.4527958,29.7649272 28.7028895,31.7634834 C30.4260312,34.5182953 28.7342726,38.6843942 26.6466684,39.6830449 C26.2573087,40.9767942 22.7859188,40.9648732 22.4488642,39.6834631 Z" id="Path" fill="url(#linearGradient-44)" opacity="0.7"></path>
                                    <path d="M16.9647711,103.739533 L6.26668888,97.5943282 L6.26668888,85.3844379 C6.26668888,85.0878752 6.5882611,84.902785 6.84476568,85.0516937 L16.0172106,90.3174586 C16.6032378,90.6539673 16.9647711,91.2780455 16.9647711,91.9535726 L16.9647711,103.739533 Z" id="Path备份" fill="url(#linearGradient-45)"></path>
                                </g>
                                <text id="负载" transform="translate(139.271277, 143.089008) rotate(-31.000000) translate(-139.271277, -143.089008) " font-family="PingFangSC-Semibold, PingFang SC" font-size="12" font-weight="500" line-spacing="18" fill="#ACD9FF">
                                    <tspan x="127.271277" y="147.089008">负载</tspan>
                                </text>
                            </g>
                        </g>
                    </g>
                </g>
            </g>
        </g>
    </g>
</svg>