<?xml version="1.0" encoding="UTF-8"?>
<svg width="218px" height="170px" viewBox="0 0 218 170" version="1.1" xmlns="http://www.w3.org/2000/svg" xmlns:xlink="http://www.w3.org/1999/xlink">
    <title>icon_市电</title>
    <defs>
        <filter x="-4.1%" y="-7.2%" width="108.3%" height="114.3%" filterUnits="objectBoundingBox" id="filter-1">
            <feGaussianBlur stdDeviation="2.75726967" in="SourceGraphic"></feGaussianBlur>
        </filter>
        <linearGradient x1="57.6119%" y1="35.4707511%" x2="32.3596%" y2="66.7329441%" id="linearGradient-2">
            <stop stop-color="#1463AC" offset="0%"></stop>
            <stop stop-color="#0E3962" offset="100%"></stop>
        </linearGradient>
        <linearGradient x1="0%" y1="33.5478698%" x2="100%" y2="73.1577283%" id="linearGradient-3">
            <stop stop-color="#074989" offset="0%"></stop>
            <stop stop-color="#052C52" offset="99.6273935%"></stop>
        </linearGradient>
        <linearGradient x1="77.3038%" y1="116.653935%" x2="-58422.7173%" y2="-27715.9497%" id="linearGradient-4">
            <stop stop-color="#006AB4" offset="0%"></stop>
            <stop stop-color="#003364" offset="100%"></stop>
        </linearGradient>
        <linearGradient x1="94.6053%" y1="43.1447379%" x2="4.6801%" y2="40.3065806%" id="linearGradient-5">
            <stop stop-color="#0C3257" offset="0%"></stop>
            <stop stop-color="#1969B5" offset="100%"></stop>
        </linearGradient>
        <linearGradient x1="100%" y1="50%" x2="-4.35%" y2="50.9674893%" id="linearGradient-6">
            <stop stop-color="#4AAEDB" offset="1.08529637%"></stop>
            <stop stop-color="#3DAAF8" stop-opacity="0" offset="100%"></stop>
        </linearGradient>
        <polygon id="path-7" points="0.155031189 57.6533114 99.9062054 0 199.90747 57.902835 99.9062054 115.306623"></polygon>
        <filter x="-3.8%" y="-6.5%" width="107.5%" height="113.0%" filterUnits="objectBoundingBox" id="filter-8">
            <feGaussianBlur stdDeviation="7.5" in="SourceAlpha" result="shadowBlurInner1"></feGaussianBlur>
            <feOffset dx="0" dy="0" in="shadowBlurInner1" result="shadowOffsetInner1"></feOffset>
            <feComposite in="shadowOffsetInner1" in2="SourceAlpha" operator="arithmetic" k2="-1" k3="1" result="shadowInnerInner1"></feComposite>
            <feColorMatrix values="0 0 0 0 0.0392156877   0 0 0 0 0.53725493   0 0 0 0 1  0 0 0 0.600000024 0" type="matrix" in="shadowInnerInner1"></feColorMatrix>
        </filter>
        <filter x="-5.5%" y="-9.1%" width="111.0%" height="118.2%" filterUnits="objectBoundingBox" id="filter-9">
            <feGaussianBlur stdDeviation="1.83817978" in="SourceGraphic"></feGaussianBlur>
        </filter>
        <linearGradient x1="0.0101%" y1="50.0143%" x2="100.0123%" y2="50.0143%" id="linearGradient-10">
            <stop stop-color="#04335F" offset="0%"></stop>
            <stop stop-color="#04335F" offset="0.999999978%"></stop>
            <stop stop-color="#379BFA" offset="49.3999988%"></stop>
            <stop stop-color="#3699F7" offset="50.1999974%"></stop>
            <stop stop-color="#002141" offset="100%"></stop>
        </linearGradient>
        <linearGradient x1="171.4276%" y1="217.699699%" x2="-40070.9869%" y2="-36091.1859%" id="linearGradient-11">
            <stop stop-color="#2071BE" offset="0%"></stop>
            <stop stop-color="#2071BE" offset="0.999999978%"></stop>
            <stop stop-color="#002141" offset="100%"></stop>
        </linearGradient>
        <linearGradient x1="71.1766%" y1="68.2761371%" x2="28.7855%" y2="31.7480445%" id="linearGradient-12">
            <stop stop-color="#2071BE" offset="0%"></stop>
            <stop stop-color="#2071BE" offset="0.999999978%"></stop>
            <stop stop-color="#002141" offset="100%"></stop>
        </linearGradient>
        <linearGradient x1="50.0142%" y1="99.9938%" x2="50.0142%" y2="-0.0062%" id="linearGradient-13">
            <stop stop-color="#00DCFF" offset="0%"></stop>
            <stop stop-color="#014380" offset="100%"></stop>
        </linearGradient>
        <linearGradient x1="64.2623279%" y1="99.9736%" x2="35.925314%" y2="0.2899%" id="linearGradient-14">
            <stop stop-color="#00F7AA" offset="0%"></stop>
            <stop stop-color="#00F7AA" offset="2.19999999%"></stop>
            <stop stop-color="#FFFFFF" offset="100%"></stop>
        </linearGradient>
        <linearGradient x1="64.933296%" y1="99.9747%" x2="35.2536958%" y2="0.2907%" id="linearGradient-15">
            <stop stop-color="#00EAFF" offset="0%"></stop>
            <stop stop-color="#00EAFF" offset="1.79999992%"></stop>
            <stop stop-color="#FFFFFF" offset="100%"></stop>
        </linearGradient>
        <linearGradient x1="68.4663515%" y1="99.9785%" x2="31.7200308%" y2="0.2948%" id="linearGradient-16">
            <stop stop-color="#DFE620" offset="0%"></stop>
            <stop stop-color="#FFFFFF" offset="100%"></stop>
        </linearGradient>
        <linearGradient x1="84.9297%" y1="55.7305187%" x2="34.0261%" y2="37.9203395%" id="linearGradient-17">
            <stop stop-color="#101826" stop-opacity="0" offset="0%"></stop>
            <stop stop-color="#00FFAF" offset="100%"></stop>
        </linearGradient>
        <linearGradient x1="100%" y1="50%" x2="34.0261%" y2="37.9203395%" id="linearGradient-18">
            <stop stop-color="#101826" stop-opacity="0" offset="0%"></stop>
            <stop stop-color="#00FCFF" offset="100%"></stop>
        </linearGradient>
        <linearGradient x1="87.152%" y1="50%" x2="34.0261%" y2="37.9203395%" id="linearGradient-19">
            <stop stop-color="#101826" stop-opacity="0" offset="0%"></stop>
            <stop stop-color="#FFF600" offset="100%"></stop>
        </linearGradient>
        <linearGradient x1="50.0234%" y1="100.0006%" x2="50.0234%" y2="0.0123%" id="linearGradient-20">
            <stop stop-color="#2071BE" offset="0%"></stop>
            <stop stop-color="#2071BE" offset="0.999999978%"></stop>
            <stop stop-color="#002141" offset="100%"></stop>
        </linearGradient>
        <linearGradient x1="50.0234%" y1="100.0053%" x2="50.0234%" y2="0.0209%" id="linearGradient-21">
            <stop stop-color="#48A6FF" offset="0%"></stop>
            <stop stop-color="#18598D" offset="100%"></stop>
        </linearGradient>
        <linearGradient x1="50.0234%" y1="100.0053%" x2="50.0234%" y2="0.0209%" id="linearGradient-22">
            <stop stop-color="#399CFF" offset="0.763358781%"></stop>
            <stop stop-color="#033863" offset="100%"></stop>
        </linearGradient>
        <linearGradient x1="50.0072%" y1="100.0316%" x2="50.0072%" y2="0.0968%" id="linearGradient-23">
            <stop stop-color="#074784" offset="0%"></stop>
            <stop stop-color="#074784" offset="0.999999978%"></stop>
            <stop stop-color="#002141" offset="100%"></stop>
        </linearGradient>
        <linearGradient x1="50.0072%" y1="100.0523%" x2="50.0072%" y2="0.0995%" id="linearGradient-24">
            <stop stop-color="#3C84C8" offset="0%"></stop>
            <stop stop-color="#18598D" offset="100%"></stop>
        </linearGradient>
        <linearGradient x1="50.0072%" y1="100.0523%" x2="50.0072%" y2="0.0995%" id="linearGradient-25">
            <stop stop-color="#00F6FF" offset="0%"></stop>
            <stop stop-color="#18598D" offset="100%"></stop>
        </linearGradient>
        <linearGradient x1="49.9832%" y1="100.0241%" x2="49.9832%" y2="0%" id="linearGradient-26">
            <stop stop-color="#00CCFF" offset="0%"></stop>
            <stop stop-color="#0E1624" stop-opacity="0" offset="100%"></stop>
        </linearGradient>
        <linearGradient x1="47.1030821%" y1="6.01079023%" x2="65.1053083%" y2="109.540418%" id="linearGradient-27">
            <stop stop-color="#55FFB5" offset="0.54%"></stop>
            <stop stop-color="#6DFFCB" offset="58.8%"></stop>
            <stop stop-color="#78FFD6" offset="100%"></stop>
        </linearGradient>
        <linearGradient x1="41.5417001%" y1="30.5984518%" x2="94.1038492%" y2="76.2604467%" id="linearGradient-28">
            <stop stop-color="#55FFB5" offset="0.54%"></stop>
            <stop stop-color="#6DFFCB" offset="58.8%"></stop>
            <stop stop-color="#78FFD6" offset="100%"></stop>
        </linearGradient>
        <linearGradient x1="47.1029206%" y1="6.01079023%" x2="65.1061505%" y2="109.540418%" id="linearGradient-29">
            <stop stop-color="#55FFB5" offset="0.54%"></stop>
            <stop stop-color="#6DFFCB" offset="58.8%"></stop>
            <stop stop-color="#78FFD6" offset="100%"></stop>
        </linearGradient>
        <linearGradient x1="41.5417001%" y1="30.6012347%" x2="94.1038492%" y2="76.2566799%" id="linearGradient-30">
            <stop stop-color="#55FFB5" offset="0.54%"></stop>
            <stop stop-color="#6DFFCB" offset="58.8%"></stop>
            <stop stop-color="#78FFD6" offset="100%"></stop>
        </linearGradient>
        <linearGradient x1="28.1218566%" y1="110.213295%" x2="52.7782969%" y2="37.596172%" id="linearGradient-31">
            <stop stop-color="#4C83FF" offset="0%"></stop>
            <stop stop-color="#2AFADF" offset="100%"></stop>
        </linearGradient>
        <linearGradient x1="56.5474064%" y1="101.049467%" x2="34.3014829%" y2="-71.5728002%" id="linearGradient-32">
            <stop stop-color="#52E5E7" offset="0.68%"></stop>
            <stop stop-color="#130CB7" offset="100%"></stop>
        </linearGradient>
        <path d="M12.9497266,0.000465808051 L12.9617944,0.00140777101 C12.9774883,0.00206605843 12.9932341,0.00462726164 13.0087209,0.00858155138 C13.009912,0.0102989131 13.0115756,0.0107581693 13.0132351,0.011232061 C13.0294369,0.0142394774 13.044927,0.0200513847 13.0599203,0.027382207 L13.0718127,0.0350568584 L13.0718127,0.0350568584 C13.083159,0.0398752651 13.0939136,0.0468886868 13.1042679,0.054794646 C13.1125821,0.0615451714 13.1206988,0.0681677951 13.128437,0.0752564694 L13.151,0.1 L13.16,0.113 L13.1554126,0.105753143 L13.1453566,0.0921720311 C13.1575546,0.105487099 13.1685259,0.120131777 13.1780012,0.136031222 L13.1794894,0.141966687 L15.637,4.446 L20.3460261,3.59989154 C20.3572699,3.59787017 20.3684535,3.59655092 20.3795366,3.5958998 L20.4035368,3.59520791 L20.4035368,3.59520791 C20.4205488,3.59630034 20.4314714,3.59750628 20.4422093,3.59933696 L20.475,3.607 L20.477,3.608 L20.5313789,3.63100937 L20.5313789,3.63100937 L24.5600914,5.8849584 C24.5976368,5.90416918 24.6305409,5.93170592 24.6561605,5.96534095 L24.6649204,5.9776297 L24.6649204,5.9776297 L24.6729366,5.99015705 C24.6784223,5.9989849 24.6835418,6.00861305 24.6881042,6.018567 L24.7071268,6.07584977 L24.7071268,6.07584977 L24.7136772,6.13662086 L24.7136772,7.35522915 C24.7136772,7.37610607 24.7113846,7.3966543 24.7069784,7.41656187 L24.7064061,7.41981663 L24.6893195,7.47024805 C24.6847331,7.48094571 24.6813093,7.48762349 24.6776388,7.49412475 L24.6670504,7.51107389 L24.6670504,7.51107389 L24.6555777,7.52718339 C24.649607,7.53514917 24.6427999,7.54304941 24.6355982,7.55053379 L24.61,7.574 L24.573524,7.59950571 L24.573524,7.59950571 L17.334,11.804 L17.334,36.453 L25.7520394,60.4675122 C25.803526,60.6143908 25.7269787,60.775474 25.5810662,60.8273015 C25.4513662,60.8733703 25.3105167,60.8176068 25.2446574,60.7014886 L25.2236436,60.6551962 L23.617,56.075 L15.4195708,60.8361467 L13.164,62.09 L13.1645001,67.9668808 C13.1645001,68.0346675 13.1407424,68.0968694 13.1011512,68.145508 L13.0921731,68.1554221 L13.0921731,68.1554221 L13.0833977,68.1647322 C13.074884,68.1740401 13.0651804,68.1826826 13.0549146,68.1906252 L13.0384791,68.2020253 L13.0384791,68.2020253 C13.0265796,68.2103309 13.0140041,68.2173705 13.0008841,68.2234202 C12.9924295,68.2270634 12.9838529,68.230534 12.9750791,68.2335781 C12.9644252,68.2374644 12.9532314,68.2405697 12.941781,68.2429714 C12.9390061,68.2434306 12.9365579,68.2439122 12.9340986,68.2443615 L12.8874466,68.2488873 L12.8837388,68.2489042 C12.7462012,68.2489042 12.6318133,68.1491355 12.6080938,68.017574 L12.6035809,67.9668808 L12.603,62.091 L10.3435231,60.8335961 L2.149,56.075 L0.544438245,60.6551939 C0.498673513,60.785753 0.367150691,60.861143 0.236009078,60.8398853 L0.187017082,60.8273023 C0.057316697,60.7812345 -0.0175773822,60.6488408 0.00354051704,60.5168309 L0.0160407706,60.4675145 L8.432,36.456 L8.432,16.673 L5.64552083,18.2919317 L5.63537066,18.2975525 C5.62462494,18.3032246 5.61351447,18.3082096 5.60211262,18.3124629 L5.64552083,18.2919317 C5.62152537,18.3058682 5.59676036,18.3157746 5.57181957,18.3219962 C5.55939606,18.3249268 5.54713613,18.3271085 5.53471936,18.3284509 C5.52726522,18.3293524 5.52018943,18.329814 5.51313696,18.3300005 C5.50121836,18.3302969 5.48853952,18.3298224 5.47582317,18.3284367 C5.46439155,18.3271415 5.45373732,18.3252932 5.44325003,18.3228438 C5.42049906,18.3176084 5.39726358,18.309018 5.37458854,18.29695 L5.42393579,18.3175978 C5.40871024,18.3128733 5.39392206,18.3068657 5.37973815,18.2996722 L5.37458854,18.29695 L1.33633397,16.1477315 C1.24454378,16.0988794 1.18712069,16.0029328 1.18712069,15.8984153 L1.18712069,15.8984153 L1.18712069,14.5702779 L1.18712069,14.5702779 C1.18712069,14.5484597 1.1896321,14.5269066 1.19449153,14.5060089 C1.19594981,14.4984401 1.19809967,14.4905535 1.20056696,14.4828375 C1.20447068,14.4718716 1.20876941,14.4609418 1.21372987,14.4503174 C1.21703574,14.4422749 1.22093313,14.4348498 1.22513556,14.4276485 C1.22857717,14.4224984 1.23201552,14.4170119 1.2356442,14.4116427 L1.24454466,14.3987218 C1.25024526,14.3912774 1.25629991,14.3841463 1.26267596,14.3773478 L1.27165749,14.3683964 L8.54,7.231 L12.6815817,0.162090582 C12.6948837,0.132850391 12.712918,0.107134257 12.7343594,0.0853021824 L12.7427804,0.077718308 L12.7427804,0.077718308 C12.7511635,0.0692296754 12.7603838,0.0616560169 12.7700222,0.0547070914 C12.8129263,0.0215493399 12.8629303,0.00426028597 12.9135316,0.000697429983 L12.9497266,0.000465808051 L12.9497266,0.000465808051 Z M17.178,56.192 L13.164,56.313 L13.164,61.133 L17.178,56.192 Z M8.589,56.192 L12.603,61.133 L12.603,56.313 L8.589,56.192 Z M22.573,56.03 L17.92,56.17 L14.021,60.97 L15.1440478,60.345037 L22.573,56.03 Z M3.196,56.03 L10.6190257,60.3424752 L11.746,60.969 L7.847,56.17 L3.196,56.03 Z M20.744,51.803 L15.4235688,54.8937413 L13.988,55.722 L17.649,55.612 L20.744,51.803 Z M5.024,51.804 L8.118,55.612 L11.778,55.722 L10.3440376,54.8934841 L5.024,51.804 Z M3.843,51.242 L2.372,55.439 L7.375,55.59 L3.843,51.242 Z M21.923,51.242 L18.392,55.59 L23.395,55.439 L21.923,51.242 Z M13.163,50.406 L13.163,55.17 L16.422,50.653 L13.163,50.406 Z M12.603,50.406 L9.345,50.653 L12.603,55.168 L12.603,50.406 Z M8.689,50.703 L4.765,51.001 L10.6236091,54.4046711 L11.886,55.134 L8.689,50.703 Z M17.078,50.703 L13.881,55.134 L15.1439937,54.4049304 L21.003,51.001 L17.078,50.703 Z M5.554,46.359 L4.108,50.485 L8.301,50.166 L5.554,46.359 Z M20.212,46.36 L17.465,50.166 L21.657,50.485 L20.212,46.36 Z M6.512,46.728 L8.957,50.117 L11.957,49.889 L10.3440203,48.9534015 L6.512,46.728 Z M19.254,46.728 L15.4239776,48.9534588 L13.811,49.889 L16.809,50.117 L19.254,46.728 Z M9.535,45.182 L6.27,45.936 L10.6239716,48.4648086 L12.062,49.299 L9.535,45.182 Z M16.233,45.181 L13.706,49.298 L15.1440262,48.4648659 L19.496,45.935 L16.233,45.181 Z M13.164,44.473 L13.163,49.109 L15.656,45.048 L13.164,44.473 Z M12.603,44.473 L10.111,45.049 L12.603,49.108 L12.603,44.473 Z M18.502,41.483 L16.543,44.675 L19.892,45.448 L18.502,41.483 Z M7.264,41.483 L5.874,45.448 L9.223,44.675 L7.264,41.483 Z M8.04,41.675 L9.8,44.542 L12.112,44.008 L10.3440156,43.0127853 L8.04,41.675 Z M17.727,41.675 L15.4207437,43.0146626 L13.655,44.008 L15.967,44.542 L17.727,41.675 Z M15.41,40.103 L13.603,43.391 L15.143991,42.5242415 L17.872,40.939 L15.41,40.103 Z M10.358,40.103 L7.895,40.939 L10.6207576,42.522358 L12.164,43.391 L10.358,40.103 Z M13.164,39.342 L13.164,43.025 L14.87,39.92 L13.164,39.342 Z M12.603,39.342 L10.897,39.92 L12.603,43.025 L12.603,39.342 Z M17.002,37.205 L15.685,39.602 L18.134,40.433 L17.002,37.205 Z M8.764,37.203 L7.632,40.433 L10.082,39.602 L8.764,37.203 Z M16.319,37.279 L13.56,38.881 L15.145,39.419 L16.319,37.279 Z M9.447,37.279 L10.622,39.419 L12.206,38.881 L9.447,37.279 Z M15.078,36.015 L13.76,38.092 L16.397,36.56 L15.078,36.015 Z M10.688,36.015 L9.369,36.56 L12.006,38.092 L10.688,36.015 Z M12.603,35.222 L11.215,35.797 L12.603,37.984 L12.603,35.222 Z M13.163,35.222 L13.163,37.984 L14.552,35.797 L13.163,35.222 Z M16.774,33.344 L15.385,35.532 L16.774,36.106 L16.774,33.344 Z M8.992,33.342 L8.992,36.104 L10.381,35.531 L8.992,33.342 Z M16.2,33.2 L13.517,34.758 L14.858,35.314 L16.2,33.2 Z M9.566,33.2 L10.908,35.313 L12.249,34.758 L9.566,33.2 Z M15.078,31.867 L13.735,33.981 L16.42,32.422 L15.078,31.867 Z M10.688,31.867 L9.347,32.422 L12.029,33.98 L10.688,31.867 Z M12.603,31.074 L11.215,31.649 L12.603,33.836 L12.603,31.074 Z M13.163,31.074 L13.163,33.836 L14.552,31.649 L13.163,31.074 Z M16.774,29.196 L15.385,31.384 L16.774,31.958 L16.774,29.196 Z M8.992,29.195 L8.992,31.958 L10.381,31.384 L8.992,29.195 Z M16.2,29.052 L13.517,30.611 L14.858,31.166 L16.2,29.052 Z M9.567,29.053 L10.908,31.166 L12.249,30.611 L9.567,29.053 Z M15.078,27.719 L13.736,29.833 L16.421,28.274 L15.078,27.719 Z M10.688,27.719 L9.346,28.274 L12.029,29.832 L10.688,27.719 Z M12.603,26.926 L11.214,27.501 L12.603,29.689 L12.603,26.926 Z M13.164,26.926 L13.164,29.688 L14.552,27.501 L13.164,26.926 Z M8.992,25.047 L8.992,27.81 L10.381,27.236 L8.992,25.047 Z M16.774,25.048 L15.385,27.236 L16.774,27.81 L16.774,25.048 Z M9.567,24.905 L10.908,27.018 L12.249,26.463 L9.567,24.905 Z M16.2,24.905 L13.517,26.463 L14.858,27.018 L16.2,24.905 Z M10.688,23.571 L9.346,24.126 L12.029,25.684 L10.688,23.571 Z M15.078,23.571 L13.736,25.684 L16.42,24.126 L15.078,23.571 Z M12.603,22.779 L11.215,23.353 L12.603,25.541 L12.603,22.779 Z M13.164,22.779 L13.164,25.54 L14.552,23.353 L13.164,22.779 Z M16.774,20.899 L15.384,23.088 L16.774,23.663 L16.774,20.899 Z M8.992,20.899 L8.992,23.663 L10.382,23.088 L8.992,20.899 Z M16.2,20.757 L13.517,22.315 L14.858,22.871 L16.2,20.757 Z M9.567,20.757 L10.908,22.87 L12.249,22.315 L9.567,20.757 Z M10.688,19.423 L9.346,19.978 L12.029,21.536 L10.688,19.423 Z M15.078,19.423 L13.737,21.536 L16.42,19.978 L15.078,19.423 Z M12.603,18.631 L11.215,19.205 L12.603,21.393 L12.603,18.631 Z M13.164,18.631 L13.164,21.392 L14.552,19.205 L13.164,18.631 Z M16.774,16.753 L15.385,18.94 L16.774,19.515 L16.774,16.753 Z M8.992,16.752 L8.992,19.515 L10.381,18.94 L8.992,16.752 Z M16.2,16.609 L13.517,18.167 L14.858,18.723 L16.2,16.609 Z M9.567,16.609 L10.908,18.722 L12.249,18.167 L9.567,16.609 Z M2.538,15.491 L1.947,15.834 L5.2251192,17.5792553 L5.2251192,16.9949135 L2.538,15.491 Z M8.432,14.349 L5.78544551,16.9480985 L5.78544551,17.55895 L8.432,16.021 L8.432,14.349 Z M15.078,15.276 L13.736,17.389 L16.42,15.831 L15.078,15.276 Z M10.728,15.339 L9.614,15.986 L12.029,17.389 L10.728,15.339 Z M12.603,14.484 L11.215,15.058 L12.603,17.245 L12.603,14.484 Z M13.164,14.484 L13.164,17.244 L14.551,15.058 L13.164,14.484 Z M8.432,12.068 L3.104,15.163 L5.459,16.48 L8.432,13.561 L8.432,12.068 Z M9.459,13.34 L8.992,13.799 L8.992,15.367 L10.381,14.793 L9.459,13.34 Z M16.774,12.603 L15.384,14.793 L16.774,15.367 L16.774,12.603 Z M8.432,8.124 L1.932,14.507 L2.532,14.843 L8.432,11.416 L8.432,8.124 Z M16.198,12.463 L13.517,14.02 L14.858,14.575 L16.198,12.463 Z M10.061,12.749 L9.869,12.937 L10.908,14.575 L10.958,14.554 L12.064,13.912 L10.061,12.749 Z M11.081,11.747 L10.477,12.34 L12.03,13.241 L11.081,11.747 Z M15.079,11.128 L13.738,13.241 L16.42,11.683 L15.079,11.128 Z M12.603,10.335 L12.459,10.395 L11.491,11.345 L12.603,13.097 L12.603,10.335 Z M13.164,10.336 L13.164,13.097 L14.552,10.91 L13.164,10.336 Z M10.688,11.128 L9.346,11.683 L9.973,12.047 L10.773,11.262 L10.688,11.128 Z M16.774,8.457 L15.385,10.645 L16.774,11.219 L16.774,8.457 Z M9.126,8.667 L9.126,11.164 L10.381,10.645 L9.126,8.667 Z M22.676,6.738 L17.3343311,7.69846503 L17.3343311,11.1520601 L23.853,7.365 L22.676,6.738 Z M16.185,8.337 L13.572,9.895 L14.859,10.427 L15.523,9.381 L16.185,8.337 Z M9.567,8.315 L10.908,10.427 L12.144,9.916 L12.212,9.85 L10.564,8.893 L9.567,8.315 Z M12.6505635,1.32541737 L9.126,7.34 L9.126,7.407 L12.606,9.427 L12.6505635,1.32541737 Z M15.347,5.07 L13.2960594,5.43949912 L13.2960594,8.8930942 L16.476,7.046 L15.347,5.07 Z M20.303,5.475 L17.517,7.093 L21.871,6.31 L20.303,5.475 Z M24.152942,6.4733779 L23.572,6.577 L24.152942,6.88625257 L24.152942,6.4733779 Z M20.1146702,4.21384795 L15.934,4.965 L16.961,6.764 L20.1146702,4.9329944 L20.1146702,4.21384795 Z M20.675,4.357 L20.675,5.036 L22.767,6.149 L23.608,5.998 L20.675,4.357 Z M13.2220963,1.34967094 L13.241,4.877 L15.051,4.551 L13.2220963,1.34967094 Z" id="path-33"></path>
        <path d="M13.1878082,0.000465808051 L13.199876,0.00140777101 C13.2155699,0.00206605843 13.2313157,0.00462726164 13.2468025,0.00858155138 C13.2479936,0.0102989131 13.2496572,0.0107581693 13.2513167,0.011232061 C13.2675185,0.0142394774 13.2830086,0.0200513847 13.2980018,0.027382207 L13.3098943,0.0350568584 L13.3098943,0.0350568584 C13.3212406,0.0398752651 13.3319952,0.0468886868 13.3423495,0.054794646 C13.3506637,0.0615451714 13.3587804,0.0681677951 13.3665185,0.0752564694 L13.3890816,0.1 L13.3980816,0.113 L13.3934942,0.105753143 L13.3834382,0.0921720311 C13.3956361,0.105487099 13.4066075,0.120131777 13.4160828,0.136031222 L13.417571,0.141966687 L15.8750816,4.446 L20.5841077,3.59989154 C20.5953515,3.59787017 20.6065351,3.59655092 20.6176182,3.5958998 L20.6416184,3.59520791 L20.6416184,3.59520791 C20.6586304,3.59630034 20.669553,3.59750628 20.6802909,3.59933696 L20.7130816,3.607 L20.7150816,3.608 L20.7694605,3.63100937 L20.7694605,3.63100937 L24.798173,5.8849584 C24.8357184,5.90416918 24.8686225,5.93170592 24.8942421,5.96534095 L24.903002,5.9776297 L24.903002,5.9776297 L24.9110182,5.99015705 C24.9165039,5.9989849 24.9216234,6.00861305 24.9261858,6.018567 L24.9452084,6.07584977 L24.9452084,6.07584977 L24.9517588,6.13662086 L24.9517588,7.35522915 C24.9517588,7.37610607 24.9494662,7.3966543 24.94506,7.41656187 L24.9444877,7.41981663 L24.9274011,7.47024805 C24.9228146,7.48094571 24.9193909,7.48762349 24.9157204,7.49412475 L24.905132,7.51107389 L24.905132,7.51107389 L24.8936593,7.52718339 C24.8876886,7.53514917 24.8808815,7.54304941 24.8736798,7.55053379 L24.8480816,7.574 L24.8116055,7.59950571 L24.8116055,7.59950571 L17.5720816,11.804 L17.5720816,36.453 L25.990121,60.4675122 C26.0416076,60.6143908 25.9650603,60.775474 25.8191478,60.8273015 C25.6894478,60.8733703 25.5485983,60.8176068 25.482739,60.7014886 L25.4617252,60.6551962 L23.8550816,56.075 L15.6576524,60.8361467 L13.4020816,62.09 L13.4025817,67.9668808 C13.4025817,68.0346675 13.378824,68.0968694 13.3392328,68.145508 L13.3302547,68.1554221 L13.3302547,68.1554221 L13.3214793,68.1647322 C13.3129656,68.1740401 13.303262,68.1826826 13.2929962,68.1906252 L13.2765607,68.2020253 L13.2765607,68.2020253 C13.2646612,68.2103309 13.2520857,68.2173705 13.2389657,68.2234202 C13.2305111,68.2270634 13.2219345,68.230534 13.2131607,68.2335781 C13.2025068,68.2374644 13.1913129,68.2405697 13.1798626,68.2429714 C13.1770877,68.2434306 13.1746395,68.2439122 13.1721802,68.2443615 L13.1255282,68.2488873 L13.1218204,68.2489042 C12.9842828,68.2489042 12.8698949,68.1491355 12.8461754,68.017574 L12.8416625,67.9668808 L12.8410816,62.091 L10.5816047,60.8335961 L2.38708159,56.075 L0.782519832,60.6551939 C0.7367551,60.785753 0.605232278,60.861143 0.474090664,60.8398853 L0.425098669,60.8273023 C0.295398284,60.7812345 0.220504205,60.6488408 0.241622104,60.5168309 L0.254122357,60.4675145 L8.67008159,36.456 L8.67008159,16.673 L5.88360242,18.2919317 L5.87345224,18.2975525 C5.86270653,18.3032246 5.85159606,18.3082096 5.84019421,18.3124629 L5.88360242,18.2919317 C5.85960696,18.3058682 5.83484195,18.3157746 5.80990116,18.3219962 C5.79747765,18.3249268 5.78521772,18.3271085 5.77280095,18.3284509 C5.76534681,18.3293524 5.75827102,18.329814 5.75121855,18.3300005 C5.73929995,18.3302969 5.72662111,18.3298224 5.71390476,18.3284367 C5.70247314,18.3271415 5.69181891,18.3252932 5.68133162,18.3228438 C5.65858065,18.3176084 5.63534517,18.309018 5.61267012,18.29695 L5.66201737,18.3175978 C5.64679183,18.3128733 5.63200365,18.3068657 5.61781973,18.2996722 L5.61267012,18.29695 L1.57441555,16.1477315 C1.48262536,16.0988794 1.42520227,16.0029328 1.42520227,15.8984153 L1.42520227,15.8984153 L1.42520227,14.5702779 L1.42520227,14.5702779 C1.42520227,14.5484597 1.42771369,14.5269066 1.43257312,14.5060089 C1.4340314,14.4984401 1.43618126,14.4905535 1.43864855,14.4828375 C1.44255226,14.4718716 1.446851,14.4609418 1.45181146,14.4503174 C1.45511733,14.4422749 1.45901472,14.4348498 1.46321715,14.4276485 C1.46665875,14.4224984 1.47009711,14.4170119 1.47372579,14.4116427 L1.48262625,14.3987218 C1.48832684,14.3912774 1.49438149,14.3841463 1.50075755,14.3773478 L1.50973908,14.3683964 L8.77808159,7.231 L12.9196633,0.162090582 C12.9329653,0.132850391 12.9509996,0.107134257 12.972441,0.0853021824 L12.980862,0.077718308 L12.980862,0.077718308 C12.9892451,0.0692296754 12.9984653,0.0616560169 13.0081038,0.0547070914 C13.0510079,0.0215493399 13.1010119,0.00426028597 13.1516132,0.000697429983 L13.1878082,0.000465808051 L13.1878082,0.000465808051 Z M17.4160816,56.192 L13.4020816,56.313 L13.4020816,61.133 L17.4160816,56.192 Z M8.82708159,56.192 L12.8410816,61.133 L12.8410816,56.313 L8.82708159,56.192 Z M22.8110816,56.03 L18.1580816,56.17 L14.2590816,60.97 L15.3821294,60.345037 L22.8110816,56.03 Z M3.43408159,56.03 L10.8571073,60.3424752 L11.9840816,60.969 L8.08508159,56.17 L3.43408159,56.03 Z M20.9820816,51.803 L15.6616504,54.8937413 L14.2260816,55.722 L17.8870816,55.612 L20.9820816,51.803 Z M5.26208159,51.804 L8.35608159,55.612 L12.0160816,55.722 L10.5821192,54.8934841 L5.26208159,51.804 Z M4.08108159,51.242 L2.61008159,55.439 L7.61308159,55.59 L4.08108159,51.242 Z M22.1610816,51.242 L18.6300816,55.59 L23.6330816,55.439 L22.1610816,51.242 Z M13.4010816,50.406 L13.4010816,55.17 L16.6600816,50.653 L13.4010816,50.406 Z M12.8410816,50.406 L9.58308159,50.653 L12.8410816,55.168 L12.8410816,50.406 Z M8.92708159,50.703 L5.00308159,51.001 L10.8616907,54.4046711 L12.1240816,55.134 L8.92708159,50.703 Z M17.3160816,50.703 L14.1190816,55.134 L15.3820752,54.4049304 L21.2410816,51.001 L17.3160816,50.703 Z M5.79208159,46.359 L4.34608159,50.485 L8.53908159,50.166 L5.79208159,46.359 Z M20.4500816,46.36 L17.7030816,50.166 L21.8950816,50.485 L20.4500816,46.36 Z M6.75008159,46.728 L9.19508159,50.117 L12.1950816,49.889 L10.5821018,48.9534015 L6.75008159,46.728 Z M19.4920816,46.728 L15.6620591,48.9534588 L14.0490816,49.889 L17.0470816,50.117 L19.4920816,46.728 Z M9.77308159,45.182 L6.50808159,45.936 L10.8620532,48.4648086 L12.3000816,49.299 L9.77308159,45.182 Z M16.4710816,45.181 L13.9440816,49.298 L15.3821077,48.4648659 L19.7340816,45.935 L16.4710816,45.181 Z M13.4020816,44.473 L13.4010816,49.109 L15.8940816,45.048 L13.4020816,44.473 Z M12.8410816,44.473 L10.3490816,45.049 L12.8410816,49.108 L12.8410816,44.473 Z M18.7400816,41.483 L16.7810816,44.675 L20.1300816,45.448 L18.7400816,41.483 Z M7.50208159,41.483 L6.11208159,45.448 L9.46108159,44.675 L7.50208159,41.483 Z M8.27808159,41.675 L10.0380816,44.542 L12.3500816,44.008 L10.5820972,43.0127853 L8.27808159,41.675 Z M17.9650816,41.675 L15.6588253,43.0146626 L13.8930816,44.008 L16.2050816,44.542 L17.9650816,41.675 Z M15.6480816,40.103 L13.8410816,43.391 L15.3820726,42.5242415 L18.1100816,40.939 L15.6480816,40.103 Z M10.5960816,40.103 L8.13308159,40.939 L10.8588392,42.522358 L12.4020816,43.391 L10.5960816,40.103 Z M13.4020816,39.342 L13.4020816,43.025 L15.1080816,39.92 L13.4020816,39.342 Z M12.8410816,39.342 L11.1350816,39.92 L12.8410816,43.025 L12.8410816,39.342 Z M17.2400816,37.205 L15.9230816,39.602 L18.3720816,40.433 L17.2400816,37.205 Z M9.00208159,37.203 L7.87008159,40.433 L10.3200816,39.602 L9.00208159,37.203 Z M16.5570816,37.279 L13.7980816,38.881 L15.3830816,39.419 L16.5570816,37.279 Z M9.68508159,37.279 L10.8600816,39.419 L12.4440816,38.881 L9.68508159,37.279 Z M15.3160816,36.015 L13.9980816,38.092 L16.6350816,36.56 L15.3160816,36.015 Z M10.9260816,36.015 L9.60708159,36.56 L12.2440816,38.092 L10.9260816,36.015 Z M12.8410816,35.222 L11.4530816,35.797 L12.8410816,37.984 L12.8410816,35.222 Z M13.4010816,35.222 L13.4010816,37.984 L14.7900816,35.797 L13.4010816,35.222 Z M17.0120816,33.344 L15.6230816,35.532 L17.0120816,36.106 L17.0120816,33.344 Z M9.23008159,33.342 L9.23008159,36.104 L10.6190816,35.531 L9.23008159,33.342 Z M16.4380816,33.2 L13.7550816,34.758 L15.0960816,35.314 L16.4380816,33.2 Z M9.80408159,33.2 L11.1460816,35.313 L12.4870816,34.758 L9.80408159,33.2 Z M15.3160816,31.867 L13.9730816,33.981 L16.6580816,32.422 L15.3160816,31.867 Z M10.9260816,31.867 L9.58508159,32.422 L12.2670816,33.98 L10.9260816,31.867 Z M12.8410816,31.074 L11.4530816,31.649 L12.8410816,33.836 L12.8410816,31.074 Z M13.4010816,31.074 L13.4010816,33.836 L14.7900816,31.649 L13.4010816,31.074 Z M17.0120816,29.196 L15.6230816,31.384 L17.0120816,31.958 L17.0120816,29.196 Z M9.23008159,29.195 L9.23008159,31.958 L10.6190816,31.384 L9.23008159,29.195 Z M16.4380816,29.052 L13.7550816,30.611 L15.0960816,31.166 L16.4380816,29.052 Z M9.80508159,29.053 L11.1460816,31.166 L12.4870816,30.611 L9.80508159,29.053 Z M15.3160816,27.719 L13.9740816,29.833 L16.6590816,28.274 L15.3160816,27.719 Z M10.9260816,27.719 L9.58408159,28.274 L12.2670816,29.832 L10.9260816,27.719 Z M12.8410816,26.926 L11.4520816,27.501 L12.8410816,29.689 L12.8410816,26.926 Z M13.4020816,26.926 L13.4020816,29.688 L14.7900816,27.501 L13.4020816,26.926 Z M9.23008159,25.047 L9.23008159,27.81 L10.6190816,27.236 L9.23008159,25.047 Z M17.0120816,25.048 L15.6230816,27.236 L17.0120816,27.81 L17.0120816,25.048 Z M9.80508159,24.905 L11.1460816,27.018 L12.4870816,26.463 L9.80508159,24.905 Z M16.4380816,24.905 L13.7550816,26.463 L15.0960816,27.018 L16.4380816,24.905 Z M10.9260816,23.571 L9.58408159,24.126 L12.2670816,25.684 L10.9260816,23.571 Z M15.3160816,23.571 L13.9740816,25.684 L16.6580816,24.126 L15.3160816,23.571 Z M12.8410816,22.779 L11.4530816,23.353 L12.8410816,25.541 L12.8410816,22.779 Z M13.4020816,22.779 L13.4020816,25.54 L14.7900816,23.353 L13.4020816,22.779 Z M17.0120816,20.899 L15.6220816,23.088 L17.0120816,23.663 L17.0120816,20.899 Z M9.23008159,20.899 L9.23008159,23.663 L10.6200816,23.088 L9.23008159,20.899 Z M16.4380816,20.757 L13.7550816,22.315 L15.0960816,22.871 L16.4380816,20.757 Z M9.80508159,20.757 L11.1460816,22.87 L12.4870816,22.315 L9.80508159,20.757 Z M10.9260816,19.423 L9.58408159,19.978 L12.2670816,21.536 L10.9260816,19.423 Z M15.3160816,19.423 L13.9750816,21.536 L16.6580816,19.978 L15.3160816,19.423 Z M12.8410816,18.631 L11.4530816,19.205 L12.8410816,21.393 L12.8410816,18.631 Z M13.4020816,18.631 L13.4020816,21.392 L14.7900816,19.205 L13.4020816,18.631 Z M17.0120816,16.753 L15.6230816,18.94 L17.0120816,19.515 L17.0120816,16.753 Z M9.23008159,16.752 L9.23008159,19.515 L10.6190816,18.94 L9.23008159,16.752 Z M16.4380816,16.609 L13.7550816,18.167 L15.0960816,18.723 L16.4380816,16.609 Z M9.80508159,16.609 L11.1460816,18.722 L12.4870816,18.167 L9.80508159,16.609 Z M2.77608159,15.491 L2.18508159,15.834 L5.46320078,17.5792553 L5.46320078,16.9949135 L2.77608159,15.491 Z M8.67008159,14.349 L6.02352709,16.9480985 L6.02352709,17.55895 L8.67008159,16.021 L8.67008159,14.349 Z M15.3160816,15.276 L13.9740816,17.389 L16.6580816,15.831 L15.3160816,15.276 Z M10.9660816,15.339 L9.85208159,15.986 L12.2670816,17.389 L10.9660816,15.339 Z M12.8410816,14.484 L11.4530816,15.058 L12.8410816,17.245 L12.8410816,14.484 Z M13.4020816,14.484 L13.4020816,17.244 L14.7890816,15.058 L13.4020816,14.484 Z M8.67008159,12.068 L3.34208159,15.163 L5.69708159,16.48 L8.67008159,13.561 L8.67008159,12.068 Z M9.69708159,13.34 L9.23008159,13.799 L9.23008159,15.367 L10.6190816,14.793 L9.69708159,13.34 Z M17.0120816,12.603 L15.6220816,14.793 L17.0120816,15.367 L17.0120816,12.603 Z M8.67008159,8.124 L2.17008159,14.507 L2.77008159,14.843 L8.67008159,11.416 L8.67008159,8.124 Z M16.4360816,12.463 L13.7550816,14.02 L15.0960816,14.575 L16.4360816,12.463 Z M10.2990816,12.749 L10.1070816,12.937 L11.1460816,14.575 L11.1960816,14.554 L12.3020816,13.912 L10.2990816,12.749 Z M11.3190816,11.747 L10.7150816,12.34 L12.2680816,13.241 L11.3190816,11.747 Z M15.3170816,11.128 L13.9760816,13.241 L16.6580816,11.683 L15.3170816,11.128 Z M12.8410816,10.335 L12.6970816,10.395 L11.7290816,11.345 L12.8410816,13.097 L12.8410816,10.335 Z M13.4020816,10.336 L13.4020816,13.097 L14.7900816,10.91 L13.4020816,10.336 Z M10.9260816,11.128 L9.58408159,11.683 L10.2110816,12.047 L11.0110816,11.262 L10.9260816,11.128 Z M17.0120816,8.457 L15.6230816,10.645 L17.0120816,11.219 L17.0120816,8.457 Z M9.36408159,8.667 L9.36408159,11.164 L10.6190816,10.645 L9.36408159,8.667 Z M22.9140816,6.738 L17.5724127,7.69846503 L17.5724127,11.1520601 L24.0910816,7.365 L22.9140816,6.738 Z M16.4230816,8.337 L13.8100816,9.895 L15.0970816,10.427 L15.7610816,9.381 L16.4230816,8.337 Z M9.80508159,8.315 L11.1460816,10.427 L12.3820816,9.916 L12.4500816,9.85 L10.8020816,8.893 L9.80508159,8.315 Z M12.888645,1.32541737 L9.36408159,7.34 L9.36408159,7.407 L12.8440816,9.427 L12.888645,1.32541737 Z M15.5850816,5.07 L13.534141,5.43949912 L13.534141,8.8930942 L16.7140816,7.046 L15.5850816,5.07 Z M20.5410816,5.475 L17.7550816,7.093 L22.1090816,6.31 L20.5410816,5.475 Z M24.3910235,6.4733779 L23.8100816,6.577 L24.3910235,6.88625257 L24.3910235,6.4733779 Z M20.3527518,4.21384795 L16.1720816,4.965 L17.1990816,6.764 L20.3527518,4.9329944 L20.3527518,4.21384795 Z M20.9130816,4.357 L20.9130816,5.036 L23.0050816,6.149 L23.8460816,5.998 L20.9130816,4.357 Z M13.4601779,1.34967094 L13.4790816,4.877 L15.2890816,4.551 L13.4601779,1.34967094 Z" id="path-34"></path>
    </defs>
    <g id="能源云系统V2.0" stroke="none" stroke-width="1" fill="none" fill-rule="evenodd">
        <g id="1_4.站控系统（站点）首页全屏展示" transform="translate(-647.000000, -391.000000)">
            <g id="2D视图" transform="translate(474.000000, 253.000000)">
                <g id="系统能流图" transform="translate(0.000000, 52.000000)">
                    <g id="能流图" transform="translate(40.000000, 86.000000)">
                        <g id="icon_市电" transform="translate(142.000000, 0.000000)">
                            <g id="编组">
                                <g id="组合-14" transform="translate(0.000000, 31.784209)">
                                    <polygon id="形状_2_拷贝_2-3" fill="#000000" opacity="0.5" filter="url(#filter-1)" points="0 71.5599817 99.8388 13.904172 200 71.8819317 99.8388 129.215791"></polygon>
                                    <polygon id="形状_2_拷贝-3" fill="url(#linearGradient-2)" opacity="0.800000012" points="0.155031189 67.6365588 99.9062054 9.98325739 199.90747 68.1357616 99.9062054 125.539462"></polygon>
                                    <polygon id="形状_3_拷贝-3" fill="url(#linearGradient-3)" points="0.155031189 67.6365808 99.9062489 125.539462 99.9062489 115.306643 0.155031189 57.6533114"></polygon>
                                    <polygon id="形状_4_拷贝-3" fill-opacity="0.600000024" fill="url(#linearGradient-4)" points="199.907592 68.1357646 99.9063709 125.539462 99.9063709 115.306658 199.907592 57.9028929"></polygon>
                                    <g id="形状_2-3">
                                        <use fill-opacity="0.899999976" fill="url(#linearGradient-5)" fill-rule="evenodd" xlink:href="#path-7"></use>
                                        <use fill="black" fill-opacity="1" filter="url(#filter-8)" xlink:href="#path-7"></use>
                                        <path stroke="url(#linearGradient-6)" stroke-width="0.749503125" d="M99.9060351,0.432940644 L199.157161,57.9014298 L99.9068452,114.87415 L0.903930432,57.6533114 L99.9060351,0.432940644 Z" stroke-linejoin="square"></path>
                                    </g>
                                </g>
                                <g id="底座样式02" transform="translate(49.500604, 35.278349)">
                                    <path d="M2.22136889,63.1709238 C0.121359122,61.9479449 -0.60360487,59.2774413 0.621375768,57.1560364 C0.996388253,56.4821563 1.57138735,55.9330576 2.22136889,55.5587134 C2.22136889,55.5587134 16.9298912,47.0646136 46.3469358,30.0764139 C48.6469321,28.7536705 51.4969669,28.7536705 53.7970635,30.0764139 C53.7970635,30.0764139 68.5555741,38.6204263 98.0725953,55.7084511 C100.172605,56.9313694 100.897569,59.601873 99.6725884,61.7233384 C99.2726152,62.3972185 98.7225768,62.9463173 98.0475343,63.3206614 C98.0475343,63.3206614 83.2890237,71.7731473 53.7720025,88.678119 C51.4720061,90.0009229 48.6469321,89.9759667 46.3469358,88.6531627 C46.3469358,88.6531627 31.6384135,80.1590831 2.22136889,63.1709238 L2.22136889,63.1709238 Z" id="形状_17_拷贝_16" fill="#093259" opacity="0.600000024" filter="url(#filter-9)"></path>
                                    <path d="M98.1475582,34.9682824 L53.8970058,9.36117337 C51.5969898,8.03840122 48.7470266,8.03840122 46.4469104,9.36117337 C46.4469104,9.36117337 31.7384208,17.84696 2.32144163,34.8185333 C0.946423336,35.5921761 0.096395624,37.0646975 0.120851085,38.6371005 C0.120851085,38.6371005 0.120851085,42.9382092 0.120851085,51.5404267 C0.096395624,53.1128297 0.946423336,54.5853511 2.32144163,55.3590674 C2.32144163,55.3590674 17.0299312,63.8448295 46.4469104,80.8163538 C48.7470266,82.139126 51.5720332,82.139126 53.8720492,80.8413243 C53.8720492,80.8413243 68.6305522,72.405454 98.1475582,55.5337135 C99.5225765,54.7600707 100.372604,53.2874759 100.348149,51.7151463 C100.348149,51.7151463 100.348149,47.4140376 100.348149,38.8118202 C100.372604,37.2394171 99.5225765,35.7668958 98.1475582,34.9682824 C98.1475582,34.9682824 98.1475582,34.9682824 98.1475582,34.9682824 Z" id="形状_26" fill="url(#linearGradient-10)"></path>
                                    <path d="M2.19644542,42.8550298 C0.096334446,41.6320429 -0.628629876,38.9615379 0.596351321,36.8401229 C0.971363977,36.166226 1.54636333,35.617136 2.19644542,35.2427758 C2.19644542,35.2427758 16.904941,26.7486941 46.3219322,9.76053082 C48.6219296,8.43769843 51.4719657,8.43769843 53.7720633,9.76053082 C53.7720633,9.76053082 68.5305807,18.3045353 98.0476153,35.3925441 C100.147626,36.6154704 100.87259,39.2859754 99.6476092,41.407451 C99.2476358,42.0812873 98.6975972,42.6303773 98.0225543,43.0047375 C98.0225543,43.0047375 83.264037,51.457237 53.7470023,68.3622361 C51.4719657,69.6850079 48.6469906,69.6850079 46.3468929,68.3622361 C46.3468929,68.3622361 31.6300771,59.859834 2.19644542,42.8550298 L2.19644542,42.8550298 Z" id="形状_17_拷贝_8" fill-opacity="0.800000012" fill="url(#linearGradient-11)"></path>
                                    <path d="M2.19644542,55.3341167 C0.096334446,54.1111299 -0.628629876,51.4406249 0.596351321,49.3192098 C0.971363977,48.6453129 1.54636333,48.096223 2.19644542,47.7218628 C2.19644542,47.7218628 16.904941,39.2277811 46.3219322,22.2396178 C48.6219296,20.9167854 51.4719657,20.9167854 53.7720633,22.2396178 C53.7720633,22.2396178 68.5305807,30.7836222 98.0476153,47.8716311 C100.147626,49.0945573 100.87259,51.7650623 99.6476092,53.886538 C99.2476358,54.5603743 98.6975972,55.1094642 98.0225543,55.4838245 C98.0225543,55.4838245 83.264037,63.936324 53.7470023,80.8413231 C51.4719657,82.1640949 48.6469906,82.1640949 46.3468929,80.8413231 C46.3468929,80.8413231 31.6300771,72.338921 2.19644542,55.3341167 L2.19644542,55.3341167 Z" id="形状_17_拷贝_9" fill="url(#linearGradient-11)" opacity="0.100000001"></path>
                                    <path d="M2.19637469,43.1046112 C0.09636492,41.8816244 -0.628599071,39.2111193 0.596381567,37.0897043 C0.971394052,36.4158074 1.54639315,35.8667175 2.19637469,35.4923572 C2.19637469,35.4923572 16.904897,26.9982756 46.3219416,10.0101123 C48.6219379,8.68734045 51.4719727,8.68734045 53.7720693,10.0101123 C53.7720693,10.0101123 68.5305799,18.5541167 98.0476011,35.6421255 C100.147611,36.8650518 100.872575,39.5355568 99.6475942,41.6570324 C99.247621,42.3308687 98.6975826,42.8799587 98.0225401,43.2543189 C98.0225401,43.2543189 83.2723832,51.7068185 53.7720693,68.6118175 C51.4719727,69.9345893 48.6469989,69.9345893 46.3470025,68.6118175 C46.3470025,68.6118175 31.6301266,60.1094154 2.19637469,43.1046112 L2.19637469,43.1046112 Z" id="形状_17_拷贝_11" stroke="url(#linearGradient-13)" stroke-width="0.749503125" fill-opacity="0" fill="url(#linearGradient-12)"></path>
                                    <polygon id="矩形_3" fill="url(#linearGradient-14)" points="60.272098 69.0361077 60.272098 72.9794929 56.247055 75.3505149 56.247055 71.4071297"></polygon>
                                    <polygon id="矩形_3_拷贝" fill="url(#linearGradient-15)" points="67.2721835 65.2923862 67.2721835 69.2357714 63.2471405 71.6067934 63.2471405 67.6634082"></polygon>
                                    <polygon id="矩形_3_拷贝_2" fill="url(#linearGradient-16)" points="74.0222659 61.5486646 74.0222659 65.4920499 69.9972229 67.8630719 69.9972229 63.9196867"></polygon>
                                    <polygon id="形状_27" fill="url(#linearGradient-17)" opacity="0.400000006" points="63.3721395 78.1707821 67.6221939 75.6749703 60.3721104 72.6799905 56.3720565 74.926224"></polygon>
                                    <polygon id="形状_27_拷贝" fill="url(#linearGradient-18)" opacity="0.400000006" points="70.3722249 74.4270606 74.6222793 71.9312487 67.3721958 68.936269 63.372142 71.1825024"></polygon>
                                    <polygon id="形状_27_拷贝_2" fill="url(#linearGradient-19)" opacity="0.400000006" points="77.1223073 70.6833391 81.3723617 68.1875272 74.1222782 65.1925475 70.1222244 67.4387809"></polygon>
                                    <path d="M12.3214676,40.5588632 C10.6714771,39.6104701 10.0964709,37.4890481 11.0464606,35.8168499 C11.3464948,35.2927316 11.7965066,34.8684568 12.3214676,34.5439776 C12.3214676,34.5439776 23.9216309,27.8468684 47.1219574,14.4526499 C48.9469877,13.4044133 51.1719844,13.4044133 52.9970147,14.4526499 C52.9970147,14.4526499 64.6388164,21.1913566 87.9224199,34.6687699 C89.5724104,35.617163 90.1474957,37.738585 89.1724438,39.4107832 C88.8724096,39.9349015 88.4223978,40.3841731 87.8974368,40.6836556 C87.8974368,40.6836556 76.2556351,47.3474836 52.9720316,60.6751398 C51.1969675,61.7233764 48.9719707,61.7233764 47.1469405,60.6751398 C47.1469405,60.6751398 35.5384496,53.9697143 12.3214676,40.5588632 L12.3214676,40.5588632 Z" id="形状_17_拷贝_13" stroke="url(#linearGradient-21)" stroke-width="0.533339844" fill-opacity="0.800000012" fill="url(#linearGradient-20)"></path>
                                    <path d="M12.3214676,34.8184902 C10.6714771,33.8700971 10.0964709,31.7486751 11.0464606,30.0764769 C11.3464948,29.5523586 11.7965066,29.128036 12.3214676,28.8036046 C12.3214676,28.8036046 23.9216309,22.1064954 47.1219574,8.71227688 C48.9469877,7.66404034 51.1719844,7.66404034 52.9970147,8.71227688 C52.9970147,8.71227688 64.6388164,15.4509836 87.9224199,28.9283969 C89.5724104,29.87679 90.1474957,31.998212 89.1724438,33.6704102 C88.8724096,34.1945763 88.4223978,34.6438001 87.8974368,34.9432826 C87.8974368,34.9432826 76.2556351,41.6071106 52.9720316,54.9347668 C51.1969675,55.9830034 48.9719707,55.9830034 47.1469405,54.9347668 C47.1469405,54.9347668 35.5384496,48.2293413 12.3214676,34.8184902 L12.3214676,34.8184902 Z" id="形状_17_拷贝_12" stroke="url(#linearGradient-22)" stroke-width="0.9993375" fill-opacity="0.800000012" fill="url(#linearGradient-20)"></path>
                                    <path d="M32.2717453,36.9898191 C31.4967343,36.5405883 31.2217352,35.542255 31.6717608,34.7435974 C31.821757,34.4940197 32.0217393,34.294344 32.2717453,34.1445929 C32.2717453,34.1445929 37.7551522,30.9749098 48.7219659,24.6355435 C49.5719563,24.1363881 50.6469969,24.1363881 51.4969873,24.6355435 C51.4969873,24.6355435 56.9970562,27.8218681 67.9971942,34.1945175 C68.7721678,34.6437483 69.0472043,35.6420816 68.5972159,36.4407391 C68.4471825,36.6903394 68.2472001,36.8899925 67.9971942,37.0397436 C67.9971942,37.0397436 62.4971252,40.184472 51.4969873,46.4739288 C50.6469969,46.9730842 49.5719563,46.9730842 48.7219659,46.4988685 C48.7219659,46.4988685 43.238559,43.3291854 32.2717453,36.9898191 L32.2717453,36.9898191 Z" id="形状_17_拷贝_15" stroke="url(#linearGradient-24)" stroke-width="0.533339844" fill-opacity="0.800000012" fill="url(#linearGradient-23)" opacity="0.600000024"></path>
                                    <path d="M32.2717453,33.2460975 C31.4967343,32.7968668 31.2217352,31.7985335 31.6717608,30.9998759 C31.821757,30.7502982 32.0217393,30.5506225 32.2717453,30.4008714 C32.2717453,30.4008714 37.7551522,27.2311882 48.7219659,20.891822 C49.5719563,20.3926666 50.6469969,20.3926666 51.4969873,20.891822 C51.4969873,20.891822 56.9970562,24.0781466 67.9971942,30.450796 C68.7721678,30.9000267 69.0472043,31.89836 68.5972159,32.6970176 C68.4471825,32.9466179 68.2472001,33.146271 67.9971942,33.2960221 C67.9971942,33.2960221 62.4971252,36.4407505 51.4969873,42.7302073 C50.6469969,43.2293626 49.5719563,43.2293626 48.7219659,42.755147 C48.7219659,42.755147 43.238559,39.5854638 32.2717453,33.2460975 L32.2717453,33.2460975 Z" id="形状_17_拷贝_14" stroke="url(#linearGradient-25)" stroke-width="0.533339844" fill-opacity="0.800000012" fill="url(#linearGradient-23)"></path>
                                    <path d="M67.9722214,32.9946879 L51.4720265,42.4288591 C50.6220051,42.9280302 49.5720093,42.9280302 48.6970004,42.4288591 C48.6970004,42.4288591 43.2219229,39.2674849 32.2717679,32.9447365 C31.8217697,32.695151 31.5217709,32.220977 31.4717587,31.6968516 C31.4717587,31.6968516 31.4717587,21.1312344 31.4717587,0 L68.8222055,0 L68.797218,31.6968516 C68.7722306,32.2459312 68.447207,32.7201481 67.9722214,32.9946879 C67.9722214,32.9946879 67.9722214,32.9946879 67.9722214,32.9946879 Z" id="矩形_4" fill="url(#linearGradient-26)" opacity="0.600000024"></path>
                                    <path d="M59.172048,16.8735802 C59.172048,17.4975343 58.6720429,18.0216563 58.0220401,18.0216563 C57.3970315,18.0216563 56.8720321,17.5224935 56.8720321,16.8735802 C56.8720321,16.2496261 57.3970315,15.7255041 58.0220401,15.7255041 C58.6470487,15.7255041 59.172048,16.2246669 59.172048,16.8735802 C59.172048,16.8735802 59.172048,16.8735802 59.172048,16.8735802 Z" id="椭圆_2" fill="#00FFC6" opacity="0.460000008"></path>
                                    <path d="M52.7219876,30.00155 C52.7219876,30.4507935 52.3719772,30.8002136 51.9219748,30.8002136 C51.4719723,30.8002136 51.1219619,30.4508015 51.1219619,30.00155 C51.1219619,29.5772583 51.4719723,29.2028863 51.9219748,29.2028863 C52.3719772,29.2028863 52.7219876,29.5522985 52.7219876,30.00155 C52.7219876,30.00155 52.7219876,30.00155 52.7219876,30.00155 Z" id="椭圆_2_拷贝" fill="#00FFC6" opacity="0.460000008"></path>
                                    <path d="M46.196914,20.4425993 C46.196914,20.8918428 45.8469036,21.2412629 45.3969012,21.2412629 C44.9468988,21.2412629 44.5968884,20.8918508 44.5968884,20.4425993 C44.5968884,19.9933478 44.9468988,19.6439357 45.3969012,19.6439357 C45.8469036,19.6439357 46.196914,19.9933478 46.196914,20.4425993 C46.196914,20.4425993 46.196914,20.4425993 46.196914,20.4425993 Z" id="椭圆_2_拷贝_2" fill="#00FFC6" opacity="0.680000007"></path>
                                </g>
                                <g id="Group" transform="translate(84.188678, 0.000000)">
                                    <g id="编组" transform="translate(2.973240, 6.567492)">
                                        <g id="1" transform="translate(19.593230, 5.064746)">
                                            <path d="M1.6265207,2.75323211 L0.852287699,2.70784026 L0.7745179,2.70784026 L0.000515898668,2.75323211 C0.000515898668,2.75323211 0.0173788551,3.45448184 0.342549015,3.77385141 C0.367342951,3.80258924 0.399990867,3.83001025 0.44133976,3.85386808 C0.447499744,3.8573538 0.454429726,3.85983254 0.46058971,3.86331826 C0.469367688,3.86788843 0.477914666,3.8732332 0.486769643,3.87726115 L0.494469623,3.8791202 C0.574626416,3.91482948 0.666949178,3.93527905 0.762582931,3.94039144 L0.7745179,3.94333494 L0.7745179,3.94116604 C0.800697832,3.94225049 0.826338766,3.94225049 0.852287699,3.94116604 L0.852287699,3.94333494 L0.864838666,3.94039144 C0.959009423,3.93504667 1.05063919,3.91482948 1.12964098,3.87997226 L1.14003596,3.87726115 C1.15235592,3.87160653 1.16405989,3.86494493 1.17560986,3.85820587 C1.17822786,3.8565792 1.18146185,3.85549475 1.18415684,3.85386808 C1.22281074,3.83132708 1.25407266,3.80638481 1.2780966,3.7797384 C1.60942674,3.46307995 1.6265207,2.75323211 1.6265207,2.75323211" id="Fill-2350" fill="#2B8E93"></path>
                                            <path d="M1.6262358,0.918510894 L1.6262358,2.75354969 L1.6254658,2.75354969 C1.6254658,2.87384582 1.54615601,2.99522639 1.38730542,3.08709453 C1.06983524,3.27137301 0.555630565,3.27137301 0.237929386,3.08709453 C0.0798487938,2.99522639 0,2.87384582 0.00107799722,2.75354969 L0,2.75354969 L0,0.918510894 C0,0.797904925 0.0798487938,0.677298955 0.237929386,0.584888601 C0.555630565,0.400377735 1.06983524,0.400377735 1.38730542,0.584888601 C1.54530901,0.677298955 1.6254658,0.797904925 1.6254658,0.918510894 L1.6262358,0.918510894 Z" id="Fill-2352" fill="url(#linearGradient-27)" fill-rule="nonzero"></path>
                                            <path d="M1.6262358,0.918510894 L1.6262358,2.52356952 L1.6254658,2.52356952 C1.6254658,2.6449501 1.54615601,2.76555607 1.38730542,2.85827626 C1.06983524,3.04247729 0.555630565,3.04247729 0.237929386,2.85827626 C0.0798487938,2.76555607 0,2.6449501 0.00107799722,2.52356952 L0,2.52356952 L0,0.918510894 C0,0.797904925 0.0798487938,0.677298955 0.237929386,0.584888601 C0.555630565,0.400377735 1.06983524,0.400377735 1.38730542,0.584888601 C1.54530901,0.677298955 1.6254658,0.797904925 1.6254658,0.918510894 L1.6262358,0.918510894 Z" id="Fill-2354" fill="#4BCAD9"></path>
                                            <path d="M1.6262358,0.918510894 L1.6262358,1.05391181 L1.6254658,1.05391181 C1.6254658,1.17529239 1.54615601,1.29558852 1.38730542,1.38854109 C1.06983524,1.57250974 0.555630565,1.57250974 0.237929386,1.38854109 C0.0798487938,1.29558852 0,1.17529239 0.00107799722,1.05391181 L0,1.05391181 L0,0.918510894 C0,0.797904925 0.0798487938,0.677298955 0.237929386,0.584888601 C0.555630565,0.400377735 1.06983524,0.400377735 1.38730542,0.584888601 C1.54530901,0.677298955 1.6254658,0.797904925 1.6254658,0.918510894 L1.6262358,0.918510894 Z" id="Fill-2356" fill="url(#linearGradient-28)" fill-rule="nonzero"></path>
                                            <path d="M1.38116853,0.794976918 C1.38193853,0.783125465 1.38193853,0.771583853 1.38116853,0.75980986 L1.38116853,0.330601334 L0.244574468,0.330601334 L0.244574468,0.776928626 L0.244574468,0.77754831 L0.244574468,0.79683597 L0.246191464,0.79683597 C0.253891444,0.874761214 0.308638303,0.951292169 0.411202038,1.01093674 C0.633346464,1.14014082 0.993782533,1.14014082 1.21592696,1.01093674 C1.3184137,0.951292169 1.37316055,0.874761214 1.38086053,0.79683597 L1.38116853,0.79683597 L1.38116853,0.794976918 Z" id="Fill-2358" fill="#4BCAD9"></path>
                                            <path d="M1.21589616,0.096903062 C1.43804059,0.225797303 1.43804059,0.435095523 1.21589616,0.564222145 C0.993751733,0.693193846 0.633315664,0.693193846 0.411171238,0.564222145 C0.189026812,0.435095523 0.189026812,0.225797303 0.411171238,0.096903062 C0.633315664,-0.0323010207 0.993520734,-0.0323010207 1.21589616,0.096903062" id="Fill-2360" fill="#5EE4EA"></path>
                                        </g>
                                        <g id="2" transform="translate(23.454739, 7.036441)">
                                            <path d="M1.6264822,2.75323211 L0.852249199,2.70784026 L0.7745564,2.70784026 L0.000554398568,2.75323211 C0.000554398568,2.75323211 0.0173403552,3.45448184 0.342510515,3.77385141 C0.367381451,3.80258924 0.399952367,3.83001025 0.44130126,3.85394554 C0.447461244,3.85743126 0.454391226,3.85983254 0.460551211,3.86331826 C0.469329188,3.86788843 0.477876166,3.8732332 0.486731143,3.87726115 L0.494431123,3.87919766 C0.574587916,3.91490694 0.666910678,3.93527905 0.762544431,3.94039144 L0.7745564,3.94333494 L0.7745564,3.94124351 C0.800659332,3.94225049 0.826300266,3.94225049 0.852249199,3.94124351 L0.852249199,3.94333494 L0.864800167,3.94039144 C0.959047923,3.93504667 1.05060069,3.91490694 1.12960248,3.87997226 L1.13999746,3.87726115 C1.15231742,3.87160653 1.16409839,3.86494493 1.17557136,3.85820587 C1.17818936,3.8565792 1.18142335,3.85549475 1.18411834,3.85394554 C1.22284924,3.83132708 1.25403416,3.80638481 1.2780581,3.77981586 C1.60938824,3.46315742 1.6264822,2.75323211 1.6264822,2.75323211" id="Fill-2546" fill="#2B8E93"></path>
                                            <path d="M1.6262358,0.918510894 L1.6262358,2.75347223 L1.6253888,2.75347223 C1.6253888,2.87384582 1.54615601,2.99522639 1.38722842,3.08709453 C1.06983524,3.27137301 0.555553565,3.27137301 0.237852386,3.08709453 C0.0798487938,2.99522639 0,2.87384582 0.00107799722,2.75347223 L0,2.75347223 L0,0.918510894 C0,0.797904925 0.0798487938,0.677298955 0.237852386,0.584888601 C0.555553565,0.400377735 1.06983524,0.400377735 1.38722842,0.584888601 C1.54530901,0.677298955 1.6253888,0.797904925 1.6253888,0.918510894 L1.6262358,0.918510894 Z" id="Fill-2548" fill="url(#linearGradient-27)" fill-rule="nonzero"></path>
                                            <path d="M1.6262358,0.918510894 L1.6262358,2.52356952 L1.6253888,2.52356952 C1.6253888,2.64502756 1.54615601,2.76563353 1.38722842,2.85827626 C1.06983524,3.04247729 0.555553565,3.04247729 0.237852386,2.85827626 C0.0798487938,2.76563353 0,2.64502756 0.00107799722,2.52356952 L0,2.52356952 L0,0.918510894 C0,0.797904925 0.0798487938,0.677298955 0.237852386,0.584888601 C0.555553565,0.400377735 1.06983524,0.400377735 1.38722842,0.584888601 C1.54530901,0.677298955 1.6253888,0.797904925 1.6253888,0.918510894 L1.6262358,0.918510894 Z" id="Fill-2550" fill="#4BCAD9"></path>
                                            <path d="M1.6262358,0.918510894 L1.6262358,1.05391181 L1.6253888,1.05391181 C1.6253888,1.17529239 1.54615601,1.29558852 1.38722842,1.38854109 C1.06983524,1.57250974 0.555553565,1.57250974 0.237852386,1.38854109 C0.0798487938,1.29558852 0,1.17529239 0.00107799722,1.05391181 L0,1.05391181 L0,0.918510894 C0,0.797904925 0.0798487938,0.677298955 0.237852386,0.584888601 C0.555553565,0.400377735 1.06983524,0.400377735 1.38722842,0.584888601 C1.54530901,0.677298955 1.6253888,0.797904925 1.6253888,0.918510894 L1.6262358,0.918510894 Z" id="Fill-2552" fill="url(#linearGradient-28)" fill-rule="nonzero"></path>
                                            <path d="M1.38113773,0.794969172 C1.38190773,0.783117719 1.38190773,0.771576107 1.38113773,0.759802114 L1.38113773,0.330593588 L0.244543668,0.330593588 L0.244543668,0.776998341 L0.244543668,0.777540564 L0.244543668,0.796905684 L0.246160664,0.796905684 C0.253860644,0.874753468 0.308607503,0.951284423 0.411171238,1.01092899 C0.633315664,1.14013308 0.993751733,1.14013308 1.21589616,1.01092899 C1.3183829,0.951284423 1.37312975,0.874753468 1.38082973,0.796905684 L1.38113773,0.796905684 L1.38113773,0.794969172 Z" id="Fill-2554" fill="#4BCAD9"></path>
                                            <path d="M1.21586536,0.096903062 C1.43800979,0.225874763 1.43800979,0.435018062 1.21586536,0.564222145 C0.993720934,0.693193846 0.633284864,0.693193846 0.411140438,0.564222145 C0.188996012,0.435018062 0.188996012,0.225874763 0.411140438,0.096903062 C0.633284864,-0.0323010207 0.993489934,-0.0323010207 1.21586536,0.096903062" id="Fill-2556" fill="#5EE4EA"></path>
                                        </g>
                                        <g id="3" transform="translate(4.692251, 17.703686)">
                                            <path d="M1.6265053,2.75323211 L0.852272299,2.70784026 L0.7745795,2.70784026 L0.000500498708,2.75323211 C0.000500498708,2.75323211 0.0173634552,3.45448184 0.342533615,3.77385141 C0.367404551,3.80258924 0.399975467,3.83001025 0.44132436,3.85386808 C0.447484344,3.8573538 0.454414326,3.85983254 0.460574311,3.86331826 C0.469352288,3.86788843 0.477899266,3.8732332 0.486677243,3.87726115 L0.494454223,3.8791202 C0.574534016,3.91482948 0.666933778,3.93527905 0.762490531,3.94039144 L0.7745795,3.94333494 L0.7745795,3.94116604 C0.800682432,3.94225049 0.826323366,3.94225049 0.852272299,3.94116604 L0.852272299,3.94333494 L0.864823266,3.94039144 C0.958994023,3.93504667 1.05062379,3.91482948 1.12962558,3.87997226 L1.14002056,3.87726115 C1.15234052,3.87160653 1.16404449,3.86494493 1.17559446,3.85820587 C1.17821246,3.8565792 1.18144645,3.85549475 1.18406444,3.85386808 C1.22279534,3.83132708 1.25405726,3.80638481 1.2780812,3.7797384 C1.60941134,3.46307995 1.6265053,2.75323211 1.6265053,2.75323211" id="Fill-2516" fill="#2B8E93"></path>
                                            <path d="M1.6262358,0.918510894 L1.6262358,2.75347223 L1.6254658,2.75347223 C1.6254658,2.87384582 1.54615601,2.99522639 1.38730542,3.08709453 C1.06983524,3.27137301 0.555630565,3.27137301 0.237929386,3.08709453 C0.0798487938,2.99522639 0,2.87384582 0.00107799722,2.75347223 L0,2.75347223 L0,0.918510894 C0,0.797904925 0.0798487938,0.677298955 0.237929386,0.584888601 C0.555630565,0.400377735 1.06983524,0.400377735 1.38730542,0.584888601 C1.54530901,0.677298955 1.6254658,0.797904925 1.6254658,0.918510894 L1.6262358,0.918510894 Z" id="Fill-2518" fill="url(#linearGradient-27)" fill-rule="nonzero"></path>
                                            <path d="M1.6262358,0.918510894 L1.6262358,2.52356952 L1.6254658,2.52356952 C1.6254658,2.6449501 1.54615601,2.76555607 1.38730542,2.85827626 C1.06983524,3.04247729 0.555630565,3.04247729 0.237929386,2.85827626 C0.0798487938,2.76555607 0,2.6449501 0.00107799722,2.52356952 L0,2.52356952 L0,0.918510894 C0,0.797904925 0.0798487938,0.677298955 0.237929386,0.584888601 C0.555630565,0.400377735 1.06983524,0.400377735 1.38730542,0.584888601 C1.54530901,0.677298955 1.6254658,0.797904925 1.6254658,0.918510894 L1.6262358,0.918510894 Z" id="Fill-2520" fill="#4BCAD9"></path>
                                            <path d="M1.6262358,0.918510894 L1.6262358,1.05391181 L1.6254658,1.05391181 C1.6254658,1.17529239 1.54615601,1.29558852 1.38730542,1.38854109 C1.06983524,1.57250974 0.555630565,1.57250974 0.237929386,1.38854109 C0.0798487938,1.29558852 0,1.17529239 0.00107799722,1.05391181 L0,1.05391181 L0,0.918510894 C0,0.797904925 0.0798487938,0.677298955 0.237929386,0.584888601 C0.555630565,0.400377735 1.06983524,0.400377735 1.38730542,0.584888601 C1.54530901,0.677298955 1.6254658,0.797904925 1.6254658,0.918510894 L1.6262358,0.918510894 Z" id="Fill-2522" fill="url(#linearGradient-28)" fill-rule="nonzero"></path>
                                            <path d="M1.38113773,0.794961426 C1.38198473,0.783109973 1.38198473,0.771568361 1.38113773,0.759794368 L1.38113773,0.330585842 L0.244543668,0.330585842 L0.244543668,0.776913134 L0.244543668,0.777532818 L0.244543668,0.796820478 L0.246160664,0.796820478 C0.253937644,0.874745722 0.308684503,0.951276677 0.411171238,1.01092125 C0.633315664,1.14012533 0.993751733,1.14012533 1.21589616,1.01092125 C1.3183829,0.951276677 1.37312975,0.874745722 1.38082973,0.796820478 L1.38113773,0.796820478 L1.38113773,0.794961426 Z" id="Fill-2524" fill="#4BCAD9"></path>
                                            <path d="M1.21586536,0.096903062 C1.43800979,0.225797303 1.43800979,0.435018062 1.21586536,0.564222145 C0.993720934,0.693193846 0.633284864,0.693193846 0.411140438,0.564222145 C0.188996012,0.435018062 0.188996012,0.225797303 0.411140438,0.096903062 C0.633284864,-0.0323010207 0.993489934,-0.0323010207 1.21586536,0.096903062" id="Fill-2526" fill="#5EE4EA"></path>
                                        </g>
                                        <g id="4" transform="translate(0.830773, 15.731968)">
                                            <path d="M1.626513,2.75323211 L0.852202999,2.70784026 L0.7745102,2.70784026 L0.000508198688,2.75323211 C0.000508198688,2.75323211 0.0173711551,3.45448184 0.342541315,3.77385141 C0.367412251,3.80258924 0.399906167,3.83001025 0.44133206,3.85394554 C0.447492044,3.85743126 0.454422026,3.85983254 0.46058201,3.86331826 C0.469359988,3.86788843 0.477906966,3.8732332 0.486684943,3.87726115 L0.494461923,3.87919766 C0.574541716,3.91490694 0.666941478,3.93527905 0.762498231,3.94039144 L0.7745102,3.94333494 L0.7745102,3.94124351 C0.800690132,3.94225049 0.826331066,3.94225049 0.852202999,3.94124351 L0.852202999,3.94333494 L0.864753967,3.94039144 C0.959001723,3.93504667 1.05063149,3.91490694 1.12963328,3.87997226 L1.14002826,3.87726115 C1.15234822,3.87168399 1.16405219,3.86494493 1.17552516,3.85820587 C1.17822016,3.8565792 1.18145415,3.85557221 1.18407214,3.85394554 C1.22280304,3.83132708 1.25406496,3.80638481 1.2780889,3.77981586 C1.60941904,3.46307995 1.626513,2.75323211 1.626513,2.75323211" id="Fill-2528" fill="#2B8E93"></path>
                                            <path d="M1.6262358,0.918510894 L1.6262358,2.75347223 L1.6254658,2.75347223 C1.6254658,2.87384582 1.54615601,2.99522639 1.38730542,3.08709453 C1.06983524,3.27137301 0.555630565,3.27137301 0.237929386,3.08709453 C0.0798487938,2.99522639 0,2.87384582 0.00107799722,2.75347223 L0,2.75347223 L0,0.918510894 C0,0.797904925 0.0798487938,0.677298955 0.237929386,0.584966062 C0.555630565,0.400455196 1.06983524,0.400455196 1.38730542,0.584966062 C1.54530901,0.677298955 1.6254658,0.797904925 1.6254658,0.918510894 L1.6262358,0.918510894 Z" id="Fill-2530" fill="url(#linearGradient-29)" fill-rule="nonzero"></path>
                                            <path d="M1.6262358,0.918510894 L1.6262358,2.52356952 L1.6254658,2.52356952 C1.6254658,2.64502756 1.54615601,2.76563353 1.38730542,2.85827626 C1.06983524,3.04247729 0.555630565,3.04247729 0.237929386,2.85827626 C0.0798487938,2.76563353 0,2.64502756 0.00107799722,2.52356952 L0,2.52356952 L0,0.918510894 C0,0.797904925 0.0798487938,0.677298955 0.237929386,0.584966062 C0.555630565,0.400455196 1.06983524,0.400455196 1.38730542,0.584966062 C1.54530901,0.677298955 1.6254658,0.797904925 1.6254658,0.918510894 L1.6262358,0.918510894 Z" id="Fill-2532" fill="#4BCAD9"></path>
                                            <path d="M1.6262358,0.918510894 L1.6262358,1.05391181 L1.6254658,1.05391181 C1.6254658,1.17529239 1.54615601,1.29558852 1.38730542,1.38854109 C1.06983524,1.57250974 0.555630565,1.57250974 0.237929386,1.38854109 C0.0798487938,1.29558852 0,1.17529239 0.00107799722,1.05391181 L0,1.05391181 L0,0.918510894 C0,0.797904925 0.0798487938,0.677298955 0.237929386,0.584966062 C0.555630565,0.400455196 1.06983524,0.400455196 1.38730542,0.584966062 C1.54530901,0.677298955 1.6254658,0.797904925 1.6254658,0.918510894 L1.6262358,0.918510894 Z" id="Fill-2534" fill="url(#linearGradient-30)" fill-rule="nonzero"></path>
                                            <path d="M1.38113773,0.794961426 C1.38190773,0.783187433 1.38190773,0.771568361 1.38113773,0.759794368 L1.38113773,0.330585842 L0.244543668,0.330585842 L0.244543668,0.776990595 L0.244543668,0.777532818 L0.244543668,0.796820478 L0.246160664,0.796820478 C0.253937644,0.874745722 0.308607503,0.951276677 0.411171238,1.01092125 C0.633315664,1.14012533 0.993751733,1.14012533 1.21589616,1.01092125 C1.3183829,0.951276677 1.37312975,0.874745722 1.38082973,0.796820478 L1.38113773,0.796820478 L1.38113773,0.794961426 Z" id="Fill-2536" fill="#4BCAD9"></path>
                                            <path d="M1.21586536,0.096903062 C1.43800979,0.225797303 1.43800979,0.435018062 1.21586536,0.564299605 C0.993720934,0.693193846 0.633284864,0.693193846 0.411140438,0.564299605 C0.188996012,0.435018062 0.188996012,0.225797303 0.411140438,0.096903062 C0.633284864,-0.0323010207 0.993489934,-0.0323010207 1.21586536,0.096903062" id="Fill-2538" fill="#5EE4EA"></path>
                                        </g>
                                        <g id="输电塔">
                                            <g id="形状结合">
                                                <use fill="url(#linearGradient-31)" xlink:href="#path-33"></use>
                                                <use fill="url(#linearGradient-32)" xlink:href="#path-33"></use>
                                            </g>
                                            <g id="形状结合备份-5">
                                                <use fill="url(#linearGradient-31)" xlink:href="#path-34"></use>
                                                <use fill="url(#linearGradient-32)" xlink:href="#path-34"></use>
                                            </g>
                                        </g>
                                    </g>
                                </g>
                            </g>
                            <text id="市电" transform="translate(63.945299, 113.851817) rotate(31.999989) translate(-63.945299, -113.851817) " font-family="PingFangSC-Semibold, PingFang SC" font-size="12" font-weight="500" line-spacing="18" fill="#ACD9FF">
                                <tspan x="51.9452989" y="117.851817">市电</tspan>
                            </text>
                        </g>
                    </g>
                </g>
            </g>
        </g>
    </g>
</svg>