<?xml version="1.0" encoding="UTF-8"?>
<svg width="218px" height="160px" viewBox="0 0 218 160" version="1.1" xmlns="http://www.w3.org/2000/svg" xmlns:xlink="http://www.w3.org/1999/xlink">
    <title>icon_柴发EN</title>
    <defs>
        <filter x="-4.1%" y="-7.2%" width="108.3%" height="114.4%" filterUnits="objectBoundingBox" id="filter-1">
            <feGaussianBlur stdDeviation="2.75726967" in="SourceGraphic"></feGaussianBlur>
        </filter>
        <linearGradient x1="57.6119%" y1="35.5124963%" x2="32.3596%" y2="66.6848673%" id="linearGradient-2">
            <stop stop-color="#1463AC" offset="0%"></stop>
            <stop stop-color="#0E3962" offset="100%"></stop>
        </linearGradient>
        <linearGradient x1="0%" y1="33.5951398%" x2="100%" y2="73.0911919%" id="linearGradient-3">
            <stop stop-color="#074989" offset="0%"></stop>
            <stop stop-color="#052C52" offset="99.6273935%"></stop>
        </linearGradient>
        <linearGradient x1="77.3038%" y1="116.462426%" x2="-58422.7173%" y2="-27636.173%" id="linearGradient-4">
            <stop stop-color="#006AB4" offset="0%"></stop>
            <stop stop-color="#003364" offset="100%"></stop>
        </linearGradient>
        <linearGradient x1="94.6053%" y1="43.1644343%" x2="4.6801%" y2="40.3344315%" id="linearGradient-5">
            <stop stop-color="#0C3257" offset="0%"></stop>
            <stop stop-color="#1969B5" offset="100%"></stop>
        </linearGradient>
        <linearGradient x1="100%" y1="50%" x2="-4.35%" y2="50.9647095%" id="linearGradient-6">
            <stop stop-color="#4AAEDB" offset="1.08529637%"></stop>
            <stop stop-color="#3DAAF8" stop-opacity="0" offset="100%"></stop>
        </linearGradient>
        <polygon id="path-7" points="0.155031189 57.5704276 99.9062054 0 199.90747 57.8195924 99.9062054 115.140855"></polygon>
        <filter x="-3.8%" y="-6.5%" width="107.5%" height="113.0%" filterUnits="objectBoundingBox" id="filter-8">
            <feGaussianBlur stdDeviation="7.5" in="SourceAlpha" result="shadowBlurInner1"></feGaussianBlur>
            <feOffset dx="0" dy="0" in="shadowBlurInner1" result="shadowOffsetInner1"></feOffset>
            <feComposite in="shadowOffsetInner1" in2="SourceAlpha" operator="arithmetic" k2="-1" k3="1" result="shadowInnerInner1"></feComposite>
            <feColorMatrix values="0 0 0 0 0.0392156877   0 0 0 0 0.53725493   0 0 0 0 1  0 0 0 0.600000024 0" type="matrix" in="shadowInnerInner1"></feColorMatrix>
        </filter>
        <filter x="-5.5%" y="-9.1%" width="111.0%" height="118.2%" filterUnits="objectBoundingBox" id="filter-9">
            <feGaussianBlur stdDeviation="1.83817978" in="SourceGraphic"></feGaussianBlur>
        </filter>
        <linearGradient x1="0.0101%" y1="50.0143%" x2="100.0123%" y2="50.0143%" id="linearGradient-10">
            <stop stop-color="#04335F" offset="0%"></stop>
            <stop stop-color="#04335F" offset="0.999999978%"></stop>
            <stop stop-color="#379BFA" offset="49.3999988%"></stop>
            <stop stop-color="#3699F7" offset="50.1999974%"></stop>
            <stop stop-color="#002141" offset="100%"></stop>
        </linearGradient>
        <linearGradient x1="171.4276%" y1="217.217867%" x2="-40070.9869%" y2="-35987.3457%" id="linearGradient-11">
            <stop stop-color="#2071BE" offset="0%"></stop>
            <stop stop-color="#2071BE" offset="0.999999978%"></stop>
            <stop stop-color="#002141" offset="100%"></stop>
        </linearGradient>
        <linearGradient x1="71.1766%" y1="68.2236264%" x2="28.7855%" y2="31.8004857%" id="linearGradient-12">
            <stop stop-color="#2071BE" offset="0%"></stop>
            <stop stop-color="#2071BE" offset="0.999999978%"></stop>
            <stop stop-color="#002141" offset="100%"></stop>
        </linearGradient>
        <linearGradient x1="50.0142%" y1="99.9938%" x2="50.0142%" y2="-0.0062%" id="linearGradient-13">
            <stop stop-color="#00DCFF" offset="0%"></stop>
            <stop stop-color="#014380" offset="100%"></stop>
        </linearGradient>
        <linearGradient x1="64.3034243%" y1="99.9736%" x2="35.8847583%" y2="0.2899%" id="linearGradient-14">
            <stop stop-color="#00F7AA" offset="0%"></stop>
            <stop stop-color="#00F7AA" offset="2.19999999%"></stop>
            <stop stop-color="#FFFFFF" offset="100%"></stop>
        </linearGradient>
        <linearGradient x1="64.9763258%" y1="99.9747%" x2="35.2112048%" y2="0.2907%" id="linearGradient-15">
            <stop stop-color="#00EAFF" offset="0%"></stop>
            <stop stop-color="#00EAFF" offset="1.79999992%"></stop>
            <stop stop-color="#FFFFFF" offset="100%"></stop>
        </linearGradient>
        <linearGradient x1="68.5195616%" y1="99.9785%" x2="31.6673577%" y2="0.2948%" id="linearGradient-16">
            <stop stop-color="#DFE620" offset="0%"></stop>
            <stop stop-color="#FFFFFF" offset="100%"></stop>
        </linearGradient>
        <linearGradient x1="84.9297%" y1="55.7140538%" x2="34.0261%" y2="37.9550466%" id="linearGradient-17">
            <stop stop-color="#101826" stop-opacity="0" offset="0%"></stop>
            <stop stop-color="#00FFAF" offset="100%"></stop>
        </linearGradient>
        <linearGradient x1="100%" y1="50%" x2="34.0261%" y2="37.9550466%" id="linearGradient-18">
            <stop stop-color="#101826" stop-opacity="0" offset="0%"></stop>
            <stop stop-color="#00FCFF" offset="100%"></stop>
        </linearGradient>
        <linearGradient x1="87.152%" y1="50%" x2="34.0261%" y2="37.9550466%" id="linearGradient-19">
            <stop stop-color="#101826" stop-opacity="0" offset="0%"></stop>
            <stop stop-color="#FFF600" offset="100%"></stop>
        </linearGradient>
        <linearGradient x1="50.0234%" y1="100.0006%" x2="50.0234%" y2="0.0123%" id="linearGradient-20">
            <stop stop-color="#2071BE" offset="0%"></stop>
            <stop stop-color="#2071BE" offset="0.999999978%"></stop>
            <stop stop-color="#002141" offset="100%"></stop>
        </linearGradient>
        <linearGradient x1="50.0234%" y1="100.0053%" x2="50.0234%" y2="0.0209%" id="linearGradient-21">
            <stop stop-color="#48A6FF" offset="0%"></stop>
            <stop stop-color="#18598D" offset="100%"></stop>
        </linearGradient>
        <linearGradient x1="50.0234%" y1="100.0053%" x2="50.0234%" y2="0.0209%" id="linearGradient-22">
            <stop stop-color="#399CFF" offset="0.763358781%"></stop>
            <stop stop-color="#033863" offset="100%"></stop>
        </linearGradient>
        <linearGradient x1="50.0072%" y1="100.0316%" x2="50.0072%" y2="0.0968%" id="linearGradient-23">
            <stop stop-color="#074784" offset="0%"></stop>
            <stop stop-color="#074784" offset="0.999999978%"></stop>
            <stop stop-color="#002141" offset="100%"></stop>
        </linearGradient>
        <linearGradient x1="50.0072%" y1="100.0523%" x2="50.0072%" y2="0.0995%" id="linearGradient-24">
            <stop stop-color="#3C84C8" offset="0%"></stop>
            <stop stop-color="#18598D" offset="100%"></stop>
        </linearGradient>
        <linearGradient x1="50.0072%" y1="100.0523%" x2="50.0072%" y2="0.0995%" id="linearGradient-25">
            <stop stop-color="#00F6FF" offset="0%"></stop>
            <stop stop-color="#18598D" offset="100%"></stop>
        </linearGradient>
        <linearGradient x1="49.9832%" y1="100.0241%" x2="49.9832%" y2="0%" id="linearGradient-26">
            <stop stop-color="#00CCFF" offset="0%"></stop>
            <stop stop-color="#0E1624" stop-opacity="0" offset="100%"></stop>
        </linearGradient>
        <filter x="-14.6%" y="-27.0%" width="129.3%" height="153.9%" filterUnits="objectBoundingBox" id="filter-27">
            <feGaussianBlur stdDeviation="2.26283884" in="SourceGraphic"></feGaussianBlur>
        </filter>
        <linearGradient x1="50%" y1="0%" x2="50%" y2="100%" id="linearGradient-28">
            <stop stop-color="#C7F2F8" offset="0%"></stop>
            <stop stop-color="#075988" offset="100%"></stop>
        </linearGradient>
        <linearGradient x1="82%" y1="38.3425432%" x2="36%" y2="67.4862027%" id="linearGradient-29">
            <stop stop-color="#3988B2" offset="0%"></stop>
            <stop stop-color="#7AB7CD" offset="100%"></stop>
        </linearGradient>
        <linearGradient x1="452%" y1="2047.0589%" x2="452%" y2="1947.0589%" id="linearGradient-30">
            <stop stop-color="#D1F1FF" offset="0%"></stop>
            <stop stop-color="#0C656E" stop-opacity="0" offset="100%"></stop>
        </linearGradient>
        <linearGradient x1="50%" y1="0%" x2="50%" y2="100%" id="linearGradient-31">
            <stop stop-color="#C7F2F8" offset="0%"></stop>
            <stop stop-color="#075988" offset="100%"></stop>
        </linearGradient>
        <linearGradient x1="82%" y1="38.8984093%" x2="36%" y2="66.6524027%" id="linearGradient-32">
            <stop stop-color="#3988B2" offset="0%"></stop>
            <stop stop-color="#7AB7CD" offset="100%"></stop>
        </linearGradient>
        <linearGradient x1="452%" y1="2047.0589%" x2="452%" y2="1947.0589%" id="linearGradient-33">
            <stop stop-color="#D1F1FF" offset="0%"></stop>
            <stop stop-color="#0C656E" stop-opacity="0" offset="100%"></stop>
        </linearGradient>
        <linearGradient x1="82.9852155%" y1="11.5725112%" x2="36.8520503%" y2="44.556166%" id="linearGradient-34">
            <stop stop-color="#F3FFFF" offset="0%"></stop>
            <stop stop-color="#01A2CB" offset="100%"></stop>
        </linearGradient>
        <linearGradient x1="48.7680833%" y1="17.7074479%" x2="52.5534571%" y2="79.0481597%" id="linearGradient-35">
            <stop stop-color="#2483A5" offset="0%"></stop>
            <stop stop-color="#1D5573" offset="100%"></stop>
        </linearGradient>
        <linearGradient x1="452%" y1="2047.0589%" x2="452%" y2="1947.0589%" id="linearGradient-36">
            <stop stop-color="#D1F1FF" offset="0%"></stop>
            <stop stop-color="#0C656E" stop-opacity="0" offset="100%"></stop>
        </linearGradient>
        <linearGradient x1="46.9286764%" y1="41.787535%" x2="21.7231949%" y2="92.2440295%" id="linearGradient-37">
            <stop stop-color="#227897" offset="0%"></stop>
            <stop stop-color="#103F58" offset="100%"></stop>
        </linearGradient>
        <linearGradient x1="452%" y1="2047.0589%" x2="452%" y2="1947.0589%" id="linearGradient-38">
            <stop stop-color="#D1F1FF" offset="0%"></stop>
            <stop stop-color="#0C656E" stop-opacity="0" offset="100%"></stop>
        </linearGradient>
        <linearGradient x1="89.1647361%" y1="37.2823133%" x2="10.5837181%" y2="64.2891091%" id="linearGradient-39">
            <stop stop-color="#5197D1" offset="0%"></stop>
            <stop stop-color="#2A5781" offset="100%"></stop>
        </linearGradient>
        <linearGradient x1="100%" y1="17.6951105%" x2="3.83294631%" y2="75.9060522%" id="linearGradient-40">
            <stop stop-color="#21486A" offset="0%"></stop>
            <stop stop-color="#1B3955" offset="100%"></stop>
        </linearGradient>
        <path d="M11.2472883,0.211590096 L0,6.702185 C0.543636117,6.39785249 1.29001895,6.44662813 2.11406409,6.92270585 L2.11406409,6.92270585 C3.77864902,7.88241807 5.12708651,10.2188399 5.12708651,12.1389513 L5.12708651,12.1389513 C5.12708651,13.0876718 4.79788083,13.7574781 4.26386659,14.0769242 L4.26386659,14.0769242 L15.5475806,7.56571991 C16.0815948,7.24627382 16.4101132,6.57646751 16.4101132,5.62706 L16.4101132,5.62706 C16.4101132,3.70694857 15.0609885,1.37121374 13.3970908,0.411501519 L13.3970908,0.411501519 C12.9139351,0.13190032 12.4568959,0 12.0514024,0 L12.0514024,0 C11.7517496,0 11.4802752,0.0728199682 11.2472883,0.211590096" id="path-41"></path>
        <linearGradient x1="49.7433818%" y1="41.3408825%" x2="60.4072151%" y2="57.2127399%" id="linearGradient-43">
            <stop stop-color="#041C25" offset="0%"></stop>
            <stop stop-color="#164959" offset="100%"></stop>
        </linearGradient>
        <linearGradient x1="93.545694%" y1="29.7602139%" x2="20.7280112%" y2="70.0582885%" id="linearGradient-44">
            <stop stop-color="#B0FFDA" offset="0%"></stop>
            <stop stop-color="#016C3C" offset="100%"></stop>
        </linearGradient>
        <linearGradient x1="81.1366993%" y1="16.6667%" x2="65.3922532%" y2="80.4333951%" id="linearGradient-45">
            <stop stop-color="#2880A0" offset="0%"></stop>
            <stop stop-color="#174963" offset="100%"></stop>
        </linearGradient>
        <linearGradient x1="452%" y1="2047.0589%" x2="452%" y2="1947.0589%" id="linearGradient-46">
            <stop stop-color="#D1F1FF" offset="0%"></stop>
            <stop stop-color="#0C656E" stop-opacity="0" offset="100%"></stop>
        </linearGradient>
        <linearGradient x1="50%" y1="0%" x2="50%" y2="100%" id="linearGradient-47">
            <stop stop-color="#C7F2F8" offset="0%"></stop>
            <stop stop-color="#075988" offset="100%"></stop>
        </linearGradient>
        <linearGradient x1="82%" y1="38.1680768%" x2="36%" y2="67.7479026%" id="linearGradient-48">
            <stop stop-color="#45A6D9" offset="0%"></stop>
            <stop stop-color="#B1EAFF" offset="100%"></stop>
        </linearGradient>
        <linearGradient x1="452%" y1="2047.0589%" x2="452%" y2="1947.0589%" id="linearGradient-49">
            <stop stop-color="#D1F1FF" offset="0%"></stop>
            <stop stop-color="#0C656E" stop-opacity="0" offset="100%"></stop>
        </linearGradient>
        <linearGradient x1="82%" y1="40.174986%" x2="36%" y2="64.7375357%" id="linearGradient-50">
            <stop stop-color="#3988B2" offset="0%"></stop>
            <stop stop-color="#B1EAFF" offset="100%"></stop>
        </linearGradient>
        <linearGradient x1="452%" y1="2047.0589%" x2="452%" y2="1947.0589%" id="linearGradient-51">
            <stop stop-color="#D1F1FF" offset="0%"></stop>
            <stop stop-color="#0C656E" stop-opacity="0" offset="100%"></stop>
        </linearGradient>
        <linearGradient x1="82%" y1="38.8909988%" x2="36%" y2="66.6635184%" id="linearGradient-52">
            <stop stop-color="#45A6D9" offset="0%"></stop>
            <stop stop-color="#B1EAFF" offset="100%"></stop>
        </linearGradient>
        <linearGradient x1="452%" y1="2047.0589%" x2="452%" y2="1947.0589%" id="linearGradient-53">
            <stop stop-color="#D1F1FF" offset="0%"></stop>
            <stop stop-color="#0C656E" stop-opacity="0" offset="100%"></stop>
        </linearGradient>
        <linearGradient x1="82%" y1="38.8917298%" x2="36%" y2="66.662422%" id="linearGradient-54">
            <stop stop-color="#45A6D9" offset="0%"></stop>
            <stop stop-color="#B1EAFF" offset="100%"></stop>
        </linearGradient>
        <linearGradient x1="452%" y1="2047.0589%" x2="452%" y2="1947.0589%" id="linearGradient-55">
            <stop stop-color="#D1F1FF" offset="0%"></stop>
            <stop stop-color="#0C656E" stop-opacity="0" offset="100%"></stop>
        </linearGradient>
        <linearGradient x1="51.4457745%" y1="16.6667%" x2="50.7147105%" y2="80.4333951%" id="linearGradient-56">
            <stop stop-color="#2880A0" offset="0%"></stop>
            <stop stop-color="#174963" offset="100%"></stop>
        </linearGradient>
        <linearGradient x1="452%" y1="2047.0589%" x2="452%" y2="1947.0589%" id="linearGradient-57">
            <stop stop-color="#D1F1FF" offset="0%"></stop>
            <stop stop-color="#0C656E" stop-opacity="0" offset="100%"></stop>
        </linearGradient>
        <linearGradient x1="82%" y1="38.8708756%" x2="36%" y2="66.6937033%" id="linearGradient-58">
            <stop stop-color="#3988B2" offset="0%"></stop>
            <stop stop-color="#B1EAFF" offset="100%"></stop>
        </linearGradient>
        <linearGradient x1="452%" y1="2047.0589%" x2="452%" y2="1947.0589%" id="linearGradient-59">
            <stop stop-color="#D1F1FF" offset="0%"></stop>
            <stop stop-color="#0C656E" stop-opacity="0" offset="100%"></stop>
        </linearGradient>
        <linearGradient x1="79.9021166%" y1="16.6667%" x2="28.1172724%" y2="128.838277%" id="linearGradient-60">
            <stop stop-color="#3EA7CE" offset="0%"></stop>
            <stop stop-color="#2A89AB" offset="100%"></stop>
        </linearGradient>
        <linearGradient x1="452%" y1="2047.0589%" x2="452%" y2="1947.0589%" id="linearGradient-61">
            <stop stop-color="#D1F1FF" offset="0%"></stop>
            <stop stop-color="#0C656E" stop-opacity="0" offset="100%"></stop>
        </linearGradient>
        <linearGradient x1="89.1647361%" y1="37.6218846%" x2="10.5837181%" y2="63.9075798%" id="linearGradient-62">
            <stop stop-color="#5197D1" offset="0%"></stop>
            <stop stop-color="#2A5781" offset="100%"></stop>
        </linearGradient>
        <linearGradient x1="100%" y1="21.9055543%" x2="3.83294631%" y2="72.529598%" id="linearGradient-63">
            <stop stop-color="#2F5D83" offset="0%"></stop>
            <stop stop-color="#15334F" offset="100%"></stop>
        </linearGradient>
        <linearGradient x1="89.1647361%" y1="37.297754%" x2="10.5837181%" y2="64.2717606%" id="linearGradient-64">
            <stop stop-color="#5197D1" offset="0%"></stop>
            <stop stop-color="#2A5781" offset="100%"></stop>
        </linearGradient>
        <linearGradient x1="91.4328766%" y1="34.7709462%" x2="10.5837181%" y2="66.1225706%" id="linearGradient-65">
            <stop stop-color="#3F7DB1" offset="0%"></stop>
            <stop stop-color="#245078" offset="100%"></stop>
        </linearGradient>
        <linearGradient x1="82%" y1="38.8921479%" x2="36%" y2="66.6617948%" id="linearGradient-66">
            <stop stop-color="#45A6D9" offset="0%"></stop>
            <stop stop-color="#B1EAFF" offset="100%"></stop>
        </linearGradient>
        <linearGradient x1="452%" y1="2047.0589%" x2="452%" y2="1947.0589%" id="linearGradient-67">
            <stop stop-color="#D1F1FF" offset="0%"></stop>
            <stop stop-color="#0C656E" stop-opacity="0" offset="100%"></stop>
        </linearGradient>
        <linearGradient x1="50%" y1="0%" x2="50%" y2="100%" id="linearGradient-68">
            <stop stop-color="#C7F2F8" offset="0%"></stop>
            <stop stop-color="#075988" offset="100%"></stop>
        </linearGradient>
        <path d="M20.436182,0 C20.5310262,0.108542972 20.6121249,0.236321406 20.6712307,0.369595688 L20.6712307,0.369595688 L0.235048738,12.1671175 C0.175942915,12.0331563 0.0948442278,11.9053778 0,11.7975218 L0,11.7975218 L20.436182,0 Z" id="path-69"></path>
        <linearGradient x1="0.193612764%" y1="50.0008548%" x2="100.001323%" y2="50.0008548%" id="linearGradient-71">
            <stop stop-color="#092F40" offset="0%"></stop>
            <stop stop-color="#10475F" offset="100%"></stop>
        </linearGradient>
        <linearGradient x1="91.4328766%" y1="36.5027968%" x2="10.5837181%" y2="64.2891091%" id="linearGradient-72">
            <stop stop-color="#528DBF" offset="0%"></stop>
            <stop stop-color="#356693" offset="100%"></stop>
        </linearGradient>
        <linearGradient x1="100%" y1="17.6951105%" x2="3.83294631%" y2="75.9060522%" id="linearGradient-73">
            <stop stop-color="#2F5D83" offset="0%"></stop>
            <stop stop-color="#15334F" offset="100%"></stop>
        </linearGradient>
        <linearGradient x1="50%" y1="0%" x2="50%" y2="100%" id="linearGradient-74">
            <stop stop-color="#C7F2F8" offset="0%"></stop>
            <stop stop-color="#075988" offset="100%"></stop>
        </linearGradient>
        <linearGradient x1="52.6480601%" y1="12.2857317%" x2="45.6148709%" y2="80.9495148%" id="linearGradient-75">
            <stop stop-color="#F3FFFF" offset="0%"></stop>
            <stop stop-color="#01A2CB" offset="100%"></stop>
        </linearGradient>
        <linearGradient x1="50%" y1="0%" x2="50%" y2="100%" id="linearGradient-76">
            <stop stop-color="#4FBCE8" offset="0%"></stop>
            <stop stop-color="#0D649B" offset="100%"></stop>
        </linearGradient>
        <linearGradient x1="50%" y1="0%" x2="50%" y2="100%" id="linearGradient-77">
            <stop stop-color="#4FBCE8" offset="0%"></stop>
            <stop stop-color="#0D649B" offset="100%"></stop>
        </linearGradient>
        <linearGradient x1="50%" y1="0%" x2="50%" y2="100%" id="linearGradient-78">
            <stop stop-color="#4FBCE8" offset="0%"></stop>
            <stop stop-color="#0D649B" offset="100%"></stop>
        </linearGradient>
        <linearGradient x1="50%" y1="0%" x2="50%" y2="100%" id="linearGradient-79">
            <stop stop-color="#4FBCE8" offset="0%"></stop>
            <stop stop-color="#0D649B" offset="100%"></stop>
        </linearGradient>
        <linearGradient x1="50%" y1="0%" x2="50%" y2="100%" id="linearGradient-80">
            <stop stop-color="#D8F4FE" offset="0%"></stop>
            <stop stop-color="#42BCE3" offset="100%"></stop>
        </linearGradient>
        <linearGradient x1="50%" y1="0%" x2="50%" y2="100%" id="linearGradient-81">
            <stop stop-color="#D8F4FE" offset="0%"></stop>
            <stop stop-color="#42BCE3" offset="100%"></stop>
        </linearGradient>
        <linearGradient x1="49.9999%" y1="15.5950039%" x2="69.0819%" y2="74.4604384%" id="linearGradient-82">
            <stop stop-color="#B0383A" offset="0%"></stop>
            <stop stop-color="#FD8A8A" offset="100%"></stop>
        </linearGradient>
        <linearGradient x1="38.3131596%" y1="15.8536%" x2="62.5196617%" y2="98.8484116%" id="linearGradient-83">
            <stop stop-color="#9A3737" offset="0%"></stop>
            <stop stop-color="#B24444" offset="100%"></stop>
        </linearGradient>
        <linearGradient x1="60.8086939%" y1="4.16331579%" x2="23.8576536%" y2="82.247361%" id="linearGradient-84">
            <stop stop-color="#55BBED" offset="0%"></stop>
            <stop stop-color="#226D92" offset="100%"></stop>
        </linearGradient>
        <linearGradient x1="50%" y1="0%" x2="50%" y2="100%" id="linearGradient-85">
            <stop stop-color="#1C5469" offset="0%"></stop>
            <stop stop-color="#092431" offset="100%"></stop>
        </linearGradient>
        <linearGradient x1="70.0415656%" y1="13.475982%" x2="47.5157071%" y2="92.2342401%" id="linearGradient-86">
            <stop stop-color="#21718E" offset="0%"></stop>
            <stop stop-color="#174963" offset="100%"></stop>
        </linearGradient>
        <linearGradient x1="452%" y1="2047.0589%" x2="452%" y2="1947.0589%" id="linearGradient-87">
            <stop stop-color="#D1F1FF" offset="0%"></stop>
            <stop stop-color="#0C656E" stop-opacity="0" offset="100%"></stop>
        </linearGradient>
        <linearGradient x1="10.2523148%" y1="25.9255637%" x2="100%" y2="25.9255637%" id="linearGradient-88">
            <stop stop-color="#61C1E7" offset="0%"></stop>
            <stop stop-color="#95DBFF" offset="100%"></stop>
            <stop stop-color="#73C8F3" offset="100%"></stop>
            <stop stop-color="#73C8F3" offset="100%"></stop>
        </linearGradient>
        <path d="M0.000317512074,0.927424124 C0.0154376064,1.60753515 0.500655177,1.87477069 1.08827702,1.53128028 L1.08827702,1.53128028 L1.22023421,1.4550254 C0.704089173,1.75660999 0.277290148,1.52166254 0.264231885,0.923989219 L0.264231885,0.923989219 C0.258733669,0.662936503 0.332272309,0.375778515 0.460105834,0.107855991 L0.460105834,0.107855991 L0.223682541,0 C0.0786670915,0.304332509 -0.00586798104,0.630648404 0.000317512074,0.927424124" id="path-89"></path>
        <linearGradient x1="42.2415986%" y1="12.9241729%" x2="59.1742091%" y2="144.827261%" id="linearGradient-91">
            <stop stop-color="#51B0D6" offset="0%"></stop>
            <stop stop-color="#73C8F3" offset="100%"></stop>
        </linearGradient>
        <path d="M0.924719865,0.140831071 C0.401014781,0.456842253 -0.0134132575,1.20152948 0.000332282801,1.80607261 L0.000332282801,1.80607261 C0.013390546,2.40992876 0.448436895,2.64281526 0.972141979,2.32749106 L0.972141979,2.32749106 C1.49653434,2.01147988 1.91096238,1.26610567 1.89790411,0.662936503 L1.89790411,0.662936503 C1.88828224,0.241130272 1.67316453,0 1.36663898,0 L1.36663898,0 C1.23330724,0 1.08348085,0.0453407349 0.924719865,0.140831071" id="path-92"></path>
        <linearGradient x1="68.928865%" y1="16.6667%" x2="42.3362929%" y2="98.1083377%" id="linearGradient-94">
            <stop stop-color="#74D1F3" offset="0%"></stop>
            <stop stop-color="#4DA0CC" offset="100%"></stop>
        </linearGradient>
        <linearGradient x1="452%" y1="2047.0589%" x2="452%" y2="1947.0589%" id="linearGradient-95">
            <stop stop-color="#D1F1FF" offset="0%"></stop>
            <stop stop-color="#0C656E" stop-opacity="0" offset="100%"></stop>
        </linearGradient>
        <linearGradient x1="68.9281871%" y1="16.6667%" x2="41.7189181%" y2="100%" id="linearGradient-96">
            <stop stop-color="#4FB3E8" offset="0%"></stop>
            <stop stop-color="#7DD6F6" offset="100%"></stop>
        </linearGradient>
        <linearGradient x1="452%" y1="2047.0589%" x2="452%" y2="1947.0589%" id="linearGradient-97">
            <stop stop-color="#D1F1FF" offset="0%"></stop>
            <stop stop-color="#0C656E" stop-opacity="0" offset="100%"></stop>
        </linearGradient>
        <path d="M2.50042804,0.269983467 C1.08463739,1.12321366 -0.0342495852,3.13812844 0.000801542451,4.7703949 L0.000801542451,4.7703949 C0.00561248154,4.97305425 0.0276053459,5.15991303 0.0660928587,5.33165824 L0.0660928587,5.33165824 C0.475022681,5.6483564 1.08463739,5.64011263 1.75816886,5.23410696 L1.75816886,5.23410696 C2.95471814,4.51346407 3.89972404,2.81181255 3.86948385,1.43304202 L3.86948385,1.43304202 C3.8529892,0.680111024 3.54715093,0.182049921 3.07911528,0 L3.07911528,0 C2.89217593,0.0625152557 2.69973837,0.150448802 2.50042804,0.269983467 M0.624161793,3.38887645 C0.609728976,2.70189561 1.08051373,1.85347429 1.6763829,1.49418331 L1.6763829,1.49418331 C2.27293935,1.13489234 2.76846607,1.40075392 2.78289889,2.08773475 L2.78289889,2.08773475 C2.79801898,2.77471558 2.32723423,3.62313691 1.73067778,3.98242789 L1.73067778,3.98242789 C1.55061121,4.09097086 1.37947923,4.14249442 1.22827829,4.14249442 L1.22827829,4.14249442 C0.879141565,4.14249442 0.634470948,3.86838907 0.624161793,3.38887645" id="path-98"></path>
        <linearGradient x1="65.5307111%" y1="16.6667%" x2="43.2053139%" y2="100%" id="linearGradient-100">
            <stop stop-color="#49AFD3" offset="0%"></stop>
            <stop stop-color="#276A8E" offset="100%"></stop>
        </linearGradient>
        <linearGradient x1="452%" y1="2047.0589%" x2="452%" y2="1947.0589%" id="linearGradient-101">
            <stop stop-color="#D1F1FF" offset="0%"></stop>
            <stop stop-color="#0C656E" stop-opacity="0" offset="100%"></stop>
        </linearGradient>
        <linearGradient x1="0%" y1="50%" x2="100%" y2="50%" id="linearGradient-102">
            <stop stop-color="#D4F8F8" offset="0%"></stop>
            <stop stop-color="#20B6DD" offset="100%"></stop>
        </linearGradient>
        <linearGradient x1="50%" y1="0%" x2="50%" y2="100%" id="linearGradient-103">
            <stop stop-color="#ADE2FF" offset="0%"></stop>
            <stop stop-color="#196692" offset="100%"></stop>
        </linearGradient>
        <linearGradient x1="50%" y1="0%" x2="50%" y2="100%" id="linearGradient-104">
            <stop stop-color="#61C0FD" offset="0%"></stop>
            <stop stop-color="#AFE0FF" offset="100%"></stop>
        </linearGradient>
        <linearGradient x1="50%" y1="0%" x2="50%" y2="100%" id="linearGradient-105">
            <stop stop-color="#FFE393" offset="0%"></stop>
            <stop stop-color="#FFA212" offset="99.2366433%"></stop>
        </linearGradient>
        <linearGradient x1="50%" y1="0%" x2="50%" y2="100%" id="linearGradient-106">
            <stop stop-color="#FFE393" offset="0%"></stop>
            <stop stop-color="#FFA212" offset="99.2366433%"></stop>
        </linearGradient>
    </defs>
    <g id="能源云系统V2.0" stroke="none" stroke-width="1" fill="none" fill-rule="evenodd">
        <g id="1_9.站控系统（站点）首页全屏_柴发_V2.2" transform="translate(-647.000000, -625.000000)">
            <g id="2D视图" transform="translate(474.000000, 253.000000)">
                <g id="系统能流图" transform="translate(0.000000, 52.000000)">
                    <g id="能流图（全都有）" transform="translate(40.000000, 86.000000)">
                        <g id="中间2" transform="translate(142.000000, 0.000000)">
                            <g id="icon_柴发EN" transform="translate(0.000000, 234.000000)">
                                <g id="组合-14" transform="translate(0.000000, 21.969973)">
                                    <polygon id="形状_2_拷贝_2-3" fill="#000000" opacity="0.5" filter="url(#filter-1)" points="0 71.4571052 99.8388 13.884183 200 71.7785924 99.8388 129.030027"></polygon>
                                    <polygon id="形状_2_拷贝-3" fill="url(#linearGradient-2)" opacity="0.800000012" points="0.155031189 67.5393228 99.9062054 9.96890521 199.90747 68.0378079 99.9062054 125.358983"></polygon>
                                    <polygon id="形状_3_拷贝-3" fill="url(#linearGradient-3)" points="0.155031189 67.5393447 99.9062489 125.358983 99.9062489 115.140875 0.155031189 57.5704276"></polygon>
                                    <polygon id="形状_4_拷贝-3" fill-opacity="0.600000024" fill="url(#linearGradient-4)" points="199.907592 68.0378109 99.9063709 125.358983 99.9063709 115.14089 199.907592 57.8196502"></polygon>
                                    <g id="形状_2-3">
                                        <use fill-opacity="0.899999976" fill="url(#linearGradient-5)" fill-rule="evenodd" xlink:href="#path-7"></use>
                                        <use fill="black" fill-opacity="1" filter="url(#filter-8)" xlink:href="#path-7"></use>
                                        <path stroke="url(#linearGradient-6)" stroke-width="0.749503125" d="M99.9060353,0.432784663 L199.15635,57.8181867 L99.9068445,114.708538 L0.904738782,57.5704276 L99.9060353,0.432784663 Z" stroke-linejoin="square"></path>
                                    </g>
                                </g>
                                <g id="底座样式02" transform="translate(49.500604, 16.459089)">
                                    <path d="M2.22136889,72.0801076 C0.121359122,70.858887 -0.60360487,68.1922226 0.621375768,66.0738675 C0.996388253,65.4009562 1.57138735,64.8526468 2.22136889,64.4788408 C2.22136889,64.4788408 16.9298912,55.9969523 46.3469358,39.0331753 C48.6469321,37.7123335 51.4969669,37.7123335 53.7970635,39.0331753 C53.7970635,39.0331753 68.5555741,47.5649046 98.0725953,64.6283632 C100.172605,65.8495234 100.897569,68.5161878 99.6725884,70.6346034 C99.2726152,71.3075147 98.7225768,71.855824 98.0475343,72.2296301 C98.0475343,72.2296301 83.2890237,80.6699644 53.7720025,97.5506331 C51.4720061,98.8715353 48.6469321,98.8466149 46.3469358,97.5257127 C46.3469358,97.5257127 31.6384135,89.0438443 2.22136889,72.0801076 L2.22136889,72.0801076 Z" id="形状_17_拷贝_16" fill="#093259" opacity="0.600000024" filter="url(#filter-9)"></path>
                                    <path d="M98.1475582,43.9180112 L53.8970058,18.3477155 C51.5969898,17.026845 48.7470266,17.026845 46.4469104,18.3477155 C46.4469104,18.3477155 31.7384208,26.8213028 2.32144163,43.7684773 C0.946423336,44.5410079 0.096395624,46.0114123 0.120851085,47.5815549 C0.120851085,47.5815549 0.120851085,51.8764802 0.120851085,60.4663308 C0.096395624,62.0364734 0.946423336,63.5068778 2.32144163,64.2794818 C2.32144163,64.2794818 17.0299312,72.7530446 46.4469104,89.7001702 C48.7470266,91.0210407 51.5720332,91.0210407 53.8720492,89.7251047 C53.8720492,89.7251047 68.6305522,81.3013621 98.1475582,64.4538769 C99.5225765,63.6813462 100.372604,62.2108685 100.348149,60.6407993 C100.348149,60.6407993 100.348149,56.3458739 100.348149,47.7560233 C100.372604,46.1858808 99.5225765,44.7154764 98.1475582,43.9180112 C98.1475582,43.9180112 98.1475582,43.9180112 98.1475582,43.9180112 Z" id="形状_26" fill="url(#linearGradient-10)"></path>
                                    <path d="M2.19644542,51.7934203 C0.096334446,50.5721916 -0.628629876,47.9055258 0.596351321,45.7871606 C0.971363977,45.1142325 1.54636333,44.5659319 2.19644542,44.1921099 C2.19644542,44.1921099 16.904941,35.7102395 46.3219322,18.7464988 C48.6219296,17.4255682 51.4719657,17.4255682 53.7720633,18.7464988 C53.7720633,18.7464988 68.5305807,27.2782202 98.0476153,44.3416629 C100.147626,45.562831 100.87259,48.2294969 99.6476092,50.3479226 C99.2476358,51.0207902 98.6975972,51.5690908 98.0225543,51.9429128 C98.0225543,51.9429128 83.264037,60.3832608 53.7470023,77.2639568 C51.4719657,78.584827 48.6469906,78.584827 46.3468929,77.2639568 C46.3468929,77.2639568 31.6300771,68.773778 2.19644542,51.7934203 L2.19644542,51.7934203 Z" id="形状_17_拷贝_8" fill-opacity="0.800000012" fill="url(#linearGradient-11)"></path>
                                    <path d="M2.19644542,64.254567 C0.096334446,63.0333384 -0.628629876,60.3666725 0.596351321,58.2483073 C0.971363977,57.5753792 1.54636333,57.0270786 2.19644542,56.6532566 C2.19644542,56.6532566 16.904941,48.1713862 46.3219322,31.2076456 C48.6219296,29.8867149 51.4719657,29.8867149 53.7720633,31.2076456 C53.7720633,31.2076456 68.5305807,39.7393669 98.0476153,56.8028096 C100.147626,58.0239778 100.87259,60.6906436 99.6476092,62.8090693 C99.2476358,63.4819369 98.6975972,64.0302375 98.0225543,64.4040595 C98.0225543,64.4040595 83.264037,72.8444075 53.7470023,89.7251035 C51.4719657,91.0459737 48.6469906,91.0459737 46.3468929,89.7251035 C46.3468929,89.7251035 31.6300771,81.2349247 2.19644542,64.254567 L2.19644542,64.254567 Z" id="形状_17_拷贝_9" fill="url(#linearGradient-11)" opacity="0.100000001"></path>
                                    <path d="M2.19637469,52.0426429 C0.09636492,50.8214143 -0.628599071,48.1547484 0.596381567,46.0363832 C0.971394052,45.3634551 1.54639315,44.8151546 2.19637469,44.4413325 C2.19637469,44.4413325 16.904897,35.9594622 46.3219416,18.9957215 C48.6219379,17.6748513 51.4719727,17.6748513 53.7720693,18.9957215 C53.7720693,18.9957215 68.5305799,27.5274428 98.0476011,44.5908855 C100.147611,45.8120537 100.872575,48.4787195 99.6475942,50.5971452 C99.247621,51.2700128 98.6975826,51.8183134 98.0225401,52.1921354 C98.0225401,52.1921354 83.2723832,60.6324834 53.7720693,77.5131795 C51.4719727,78.8340496 48.6469989,78.8340496 46.3470025,77.5131795 C46.3470025,77.5131795 31.6301266,69.0230006 2.19637469,52.0426429 L2.19637469,52.0426429 Z" id="形状_17_拷贝_11" stroke="url(#linearGradient-13)" stroke-width="0.749503125" fill-opacity="0" fill="url(#linearGradient-12)"></path>
                                    <polygon id="矩形_3" fill="url(#linearGradient-14)" points="60.272098 77.9368596 60.272098 81.8745757 56.247055 84.2421891 56.247055 80.304473"></polygon>
                                    <polygon id="矩形_3_拷贝" fill="url(#linearGradient-15)" points="67.2721835 74.1985202 67.2721835 78.1362363 63.2471405 80.5038497 63.2471405 76.5661336"></polygon>
                                    <polygon id="矩形_3_拷贝_2" fill="url(#linearGradient-16)" points="74.0222659 70.4601807 74.0222659 74.3978968 69.9972229 76.7655102 69.9972229 72.8277941"></polygon>
                                    <polygon id="形状_27" fill="url(#linearGradient-17)" opacity="0.400000006" points="63.3721395 87.0584018 67.6221939 84.566178 60.3721104 81.5755039 56.3720565 83.8185081"></polygon>
                                    <polygon id="形状_27_拷贝" fill="url(#linearGradient-18)" opacity="0.400000006" points="70.3722249 83.3200624 74.6222793 80.8278385 67.3721958 77.8371645 63.372142 80.0801687"></polygon>
                                    <polygon id="形状_27_拷贝_2" fill="url(#linearGradient-19)" opacity="0.400000006" points="77.1223073 79.5817229 81.3723617 77.0894991 74.1222782 74.098825 70.1222244 76.3418292"></polygon>
                                    <path d="M12.3214676,49.5005548 C10.6714771,48.5535251 10.0964709,46.4351529 11.0464606,44.7653587 C11.3464948,44.2419939 11.7965066,43.818329 12.3214676,43.4943163 C12.3214676,43.4943163 23.9216309,36.806835 47.1219574,23.4318724 C48.9469877,22.3851428 51.1719844,22.3851428 52.9970147,23.4318724 C52.9970147,23.4318724 64.6388164,30.1608913 87.9224199,43.6189292 C89.5724104,44.5659589 90.1474957,46.6843311 89.1724438,48.3541253 C88.8724096,48.8774901 88.4223978,49.3261157 87.8974368,49.6251677 C87.8974368,49.6251677 76.2556351,56.2794157 52.9720316,69.5879117 C51.1969675,70.6346413 48.9719707,70.6346413 47.1469405,69.5879117 C47.1469405,69.5879117 35.5384496,62.8921261 12.3214676,49.5005548 L12.3214676,49.5005548 Z" id="形状_17_拷贝_13" stroke="url(#linearGradient-21)" stroke-width="0.533339844" fill-opacity="0.800000012" fill="url(#linearGradient-20)"></path>
                                    <path d="M12.3214676,43.7684343 C10.6714771,42.8214046 10.0964709,40.7030324 11.0464606,39.0332382 C11.3464948,38.5098734 11.7965066,38.0861608 12.3214676,37.7621958 C12.3214676,37.7621958 23.9216309,31.0747145 47.1219574,17.6997519 C48.9469877,16.6530223 51.1719844,16.6530223 52.9970147,17.6997519 C52.9970147,17.6997519 64.6388164,24.4287708 87.9224199,37.8868087 C89.5724104,38.8338384 90.1474957,40.9522106 89.1724438,42.6220048 C88.8724096,43.1454173 88.4223978,43.5939953 87.8974368,43.8930472 C87.8974368,43.8930472 76.2556351,50.5472952 52.9720316,63.8557912 C51.1969675,64.9025208 48.9719707,64.9025208 47.1469405,63.8557912 C47.1469405,63.8557912 35.5384496,57.1600056 12.3214676,43.7684343 L12.3214676,43.7684343 Z" id="形状_17_拷贝_12" stroke="url(#linearGradient-22)" stroke-width="0.9993375" fill-opacity="0.800000012" fill="url(#linearGradient-20)"></path>
                                    <g id="编组-24" transform="translate(27.000000, 0.000000)">
                                        <path d="M1.00542942,45.791712 C0.0513706278,45.2355848 -0.28716043,43.9996936 0.26683293,43.0109919 C0.451482053,42.7020261 0.697665554,42.4548367 1.00542942,42.2694516 C1.00542942,42.2694516 7.75564642,38.3455282 21.2560804,30.4976813 C22.3024408,29.8797497 23.6258438,29.8797497 24.6722042,30.4976813 C24.6722042,30.4976813 31.4429326,34.4422062 44.9843895,42.3312559 C45.9384023,42.8873832 46.2769794,44.1232743 45.723032,45.1119761 C45.5383369,45.4209698 45.2921534,45.6681313 44.9843895,45.8535164 C44.9843895,45.8535164 38.2136611,49.746547 24.6722042,57.5326081 C23.6258438,58.1505397 22.3024408,58.1505397 21.2560804,57.5634823 C21.2560804,57.5634823 14.5058634,53.6395589 1.00542942,45.791712 L1.00542942,45.791712 Z" id="形状_17_拷贝_15" stroke="url(#linearGradient-24)" stroke-width="0.65655527" fill-opacity="0.800000012" fill="url(#linearGradient-23)" opacity="0.600000024"></path>
                                        <path d="M1.00542942,41.1571552 C0.0513706278,40.601028 -0.28716043,39.3651368 0.26683293,38.3764351 C0.451482053,38.0674693 0.697665554,37.8202798 1.00542942,37.6348948 C1.00542942,37.6348948 7.75564642,33.7109713 21.2560804,25.8631245 C22.3024408,25.2451929 23.6258438,25.2451929 24.6722042,25.8631245 C24.6722042,25.8631245 31.4429326,29.8076494 44.9843895,37.6966991 C45.9384023,38.2528264 46.2769794,39.4887175 45.723032,40.4774193 C45.5383369,40.786413 45.2921534,41.0335745 44.9843895,41.2189596 C44.9843895,41.2189596 38.2136611,45.1119901 24.6722042,52.8980513 C23.6258438,53.5159829 22.3024408,53.5159829 21.2560804,52.9289255 C21.2560804,52.9289255 14.5058634,49.0050021 1.00542942,41.1571552 L1.00542942,41.1571552 Z" id="形状_17_拷贝_14" stroke="url(#linearGradient-25)" stroke-width="0.65655527" fill-opacity="0.800000012" fill="url(#linearGradient-23)"></path>
                                        <path d="M44.9536474,40.8459215 L24.6414768,52.524996 C23.5950782,53.1429471 22.302506,53.1429471 21.2253472,52.524996 C21.2253472,52.524996 14.4853839,48.6113587 1.00545728,40.784084 C0.451497771,40.4751085 0.0821914313,39.8881026 0.0206250482,39.2392592 C0.0206250482,39.2392592 0.0206250482,26.1595062 0.0206250482,0 L46,0 L45.9692398,39.2392592 C45.9384796,39.9189949 45.5383671,40.5060537 44.9536474,40.8459215 C44.9536474,40.8459215 44.9536474,40.8459215 44.9536474,40.8459215 Z" id="矩形_4" fill="url(#linearGradient-26)" opacity="0.600000024"></path>
                                    </g>
                                </g>
                                <g id="icon_柴油发电机备份" transform="translate(74.000000, 24.000000)">
                                    <polygon id="Fill-1" fill="#074263" opacity="0.670000017" filter="url(#filter-27)" points="0 33.8681626 19.2891166 45 35.4504356 35.6728612 39.0153415 37.7303688 46.3891365 33.4752096 42.8235434 31.417015 43.6297193 30.951929 24.3419772 19.8200916"></polygon>
                                    <g id="编组" transform="translate(4.611079, 0.000000)">
                                        <path d="M17.2237118,34.8791236 C17.1048128,34.9615613 16.9859139,35.043999 16.8656404,35.1243757 L22.2676378,38.2412078 L22.2676378,37.7898614 L17.2237118,34.8791236 Z" id="Fill-2" fill="url(#linearGradient-28)"></path>
                                        <polygon id="Fill-4" fill="#449995" points="24.8102878 36.7739541 22.2673628 38.2413452 22.2673628 37.7899988 24.8102878 36.3219207"></polygon>
                                        <path d="M19.5783228,33.3028461 C18.7714596,33.7802977 18.0030839,34.3401871 17.2237118,34.8794671 L22.2676378,37.7895179 L24.8105627,36.3221268 L19.5783228,33.3028461 Z" id="Fill-6" stroke="url(#linearGradient-30)" stroke-width="0.52173913" fill="url(#linearGradient-29)"></path>
                                        <polygon id="Fill-8" fill="url(#linearGradient-31)" points="32.759265 31.7349497 15.826134 21.9626474 15.826134 22.4146808 32.759265 32.1862961"></polygon>
                                        <polygon id="Fill-10" fill="#449995" points="35.3022587 30.7190425 32.7593337 32.1864335 32.7593337 31.7350871 35.3022587 30.2670091"></polygon>
                                        <polygon id="Fill-12" stroke="url(#linearGradient-33)" stroke-width="0.52173913" fill="url(#linearGradient-32)" points="32.759265 31.7349497 15.826134 21.9626474 18.3690589 20.4952563 35.3021899 30.2675587"></polygon>
                                        <path d="M18.6231452,40.3271564 C18.3399871,40.3271564 18.0575162,40.2529624 17.7997874,40.1038876 C17.2843296,39.8071119 16.9764295,39.2740148 16.9764295,38.6790894 C16.9764295,38.4242195 17.1826126,38.2174382 17.4382796,38.2174382 C17.6932594,38.2174382 17.8994425,38.4242195 17.8994425,38.6790894 C17.8994425,38.9401421 18.0348361,39.1744025 18.2616375,39.3049289 C18.4870644,39.4354553 18.7578515,39.4361422 18.9846529,39.3049289 L35.5136651,29.7662 C36.5267114,29.1808924 37.1555699,28.0920278 37.1555699,26.9234734 L37.1555699,12.421308 C37.1555699,10.5011966 35.5768946,8.02875255 33.6367116,6.90897379 L24.1598488,1.4392324 C23.2169048,0.895830564 22.3523103,0.771487034 21.7853067,1.09780293 C21.2210523,1.42411882 21.1021534,2.10766475 21.1021534,2.62427434 L21.1021534,17.1264397 C21.1021534,18.6233709 20.2966647,20.018629 18.9990857,20.7681251 L2.46938631,30.306854 C1.9553031,30.6043167 1.34019017,30.6050036 0.823357861,30.306854 C0.307900102,30.0093913 0,29.4762941 0,28.8813687 C0,28.6264988 0.206183104,28.4197176 0.461850153,28.4197176 C0.716829924,28.4197176 0.923013028,28.6264988 0.923013028,28.8813687 C0.923013028,29.1431084 1.0584066,29.3773689 1.28520801,29.5078953 C1.51132215,29.6391086 1.78210929,29.6384216 2.00822343,29.5078953 L18.5372356,19.9684794 C19.5502819,19.3838587 20.1791404,18.2949941 20.1791404,17.1264397 L20.1791404,2.62427434 C20.1791404,1.5505233 20.5860084,0.725459318 21.3241439,0.299531202 C22.185302,-0.196468959 23.3866622,-0.0721254283 24.6210117,0.640273695 L34.0985617,6.1093281 C36.3308374,7.39810414 38.0785829,10.1700718 38.0785829,12.421308 L38.0785829,26.9234734 C38.0785829,28.4210916 37.2730942,29.8156627 35.9755152,30.5651588 L19.4458158,40.1038876 C19.1880869,40.2529624 18.9056161,40.3271564 18.6231452,40.3271564" id="Fill-14" fill="url(#linearGradient-34)"></path>
                                        <path d="M15.203461,33.7173703 C15.2048355,33.7166833 15.2055228,33.7159963 15.2068974,33.7153094 L5.33416308,28.0174903 L5.33416308,28.4695237 L14.8130876,33.9399521 C14.9422957,33.8643842 15.0749402,33.7943122 15.203461,33.7173703" id="Fill-16" fill="#449995"></path>
                                        <path d="M17.5454949,32.1296889 L7.87688184,26.5500306 L5.3339569,28.0174216 L15.2066912,33.7152407 C16.010118,33.2309192 16.7688718,32.66416 17.5454949,32.1296889" id="Fill-18" fill="#4FB2AA"></path>
                                        <polygon id="Fill-20" stroke="url(#linearGradient-36)" stroke-width="0.52173913" fill="url(#linearGradient-35)" points="8.79460284 33.4820107 3.40085284 30.3693005 3.40085284 20.2761781 8.79460284 23.3888883"></polygon>
                                        <polygon id="Fill-22" stroke="url(#linearGradient-38)" stroke-width="0.52173913" fill="url(#linearGradient-37)" points="24.6552381 24.3288155 8.7942592 33.4821481 8.7942592 23.3890257 24.6552381 14.2356931"></polygon>
                                        <polygon id="Fill-24" fill="#5F5F64" points="8.79460284 23.3886822 3.40085284 20.275972 19.2618317 11.1226394 24.6555817 14.2353496"></polygon>
                                        <polygon id="Fill-26" fill="#565757" points="0.871948346 20.1852219 0.383981667 19.9021858 0.366799742 13.9048431 0.854766421 14.1885662"></polygon>
                                        <polygon id="Fill-28" fill="url(#linearGradient-39)" points="0.854972604 14.1884975 0.367005925 13.9054614 20.2107551 2.4534909 20.6987218 2.73652701"></polygon>
                                        <polygon id="Fill-30" fill="url(#linearGradient-40)" points="20.6986531 2.7366644 20.715835 8.73332009 0.872085801 20.1852906 0.854903876 14.1886349"></polygon>
                                        <path d="M22.719866,31.6262006 C22.719866,33.5469991 21.3707413,34.3253483 19.7068436,33.3649491 C18.042946,32.4045499 16.6938212,30.0695021 16.6938212,28.1487037 C16.6938212,26.2279053 18.042946,25.449556 19.7068436,26.4099552 C21.3707413,27.3703544 22.719866,29.7054022 22.719866,31.6262006" id="Fill-32" fill="#B9BDBD"></path>
                                    </g>
                                    <g id="编组" transform="translate(22.203858, 19.487318)">
                                        <mask id="mask-42" fill="white">
                                            <use xlink:href="#path-41"></use>
                                        </mask>
                                        <g id="Clip-35"></g>
                                        <path d="M11.2472883,0.211590096 L0,6.702185 C0.543636117,6.39785249 1.29001895,6.44662813 2.11406409,6.92270585 L2.11406409,6.92270585 C3.77864902,7.88241807 5.12708651,10.2188399 5.12708651,12.1389513 L5.12708651,12.1389513 C5.12708651,13.0876718 4.79788083,13.7574781 4.26386659,14.0769242 L4.26386659,14.0769242 L15.5475806,7.56571991 C16.0815948,7.24627382 16.4101132,6.57646751 16.4101132,5.62706 L16.4101132,5.62706 C16.4101132,3.70694857 15.0609885,1.37121374 13.3970908,0.411501519 L13.3970908,0.411501519 C12.9139351,0.13190032 12.4568959,0 12.0514024,0 L12.0514024,0 C11.7517496,0 11.4802752,0.0728199682 11.2472883,0.211590096" id="Fill-34" fill="url(#linearGradient-43)" mask="url(#mask-42)"></path>
                                    </g>
                                    <g id="编组" transform="translate(4.610735, 2.808948)">
                                        <polygon id="Fill-80" fill="#4A93B6" points="7.03998462 13.6558605 25.6727517 2.90873238 26.1339146 3.17459396 7.5011475 13.9217221"></polygon>
                                        <polygon id="Fill-108" fill="#4A93B6" points="6.12274472 14.187515 7.05125597 13.648235 7.51104429 13.9134096 6.58253304 14.4526896"></polygon>
                                        <polygon id="Fill-120" fill="#4A93B6" points="10.6942365 16.8257275 11.6227477 16.2864475 12.0832233 16.5523091 11.1553994 17.0915891"></polygon>
                                        <polygon id="Fill-36" fill="url(#linearGradient-44)" points="33.2530735 22.8486945 21.0271027 29.9039877 21.0271027 30.1011512 33.2530735 23.045858"></polygon>
                                        <path d="M22.0308708,22.7420064 L18.6824572,20.8095293 C18.0226713,20.4289419 17.4254276,20.3939059 16.9938176,20.6446539 L10.2550665,24.5590707 C10.6866765,24.3083227 11.2839202,24.3433587 11.9437061,24.7239461 L15.2921197,26.6564232 C16.6034443,27.4127891 17.6618509,29.2490888 17.6577272,30.7522029 L17.6508544,33.3015888 C17.6487926,34.0483369 17.3848782,34.5738773 16.9587665,34.8205034 L23.6975176,30.9060866 C24.1236293,30.6594605 24.3868564,30.1339202 24.3896055,29.387172 L24.3964903,26.8377861 C24.400602,25.3346721 23.3421954,23.4990593 22.0308708,22.7420064" id="Fill-38" stroke="url(#linearGradient-46)" stroke-width="0.52173913" fill="url(#linearGradient-45)"></path>
                                        <path d="M15.2921884,26.6564232 C16.603513,27.4134761 17.6619196,29.2490888 17.6578079,30.7522029 L17.6509232,33.3015888 C17.6461122,34.8047028 16.5808328,35.4119939 15.2695083,34.654941 L11.9210947,32.7224639 C10.6097702,31.966098 9.55067628,30.1332332 9.55478794,28.6294321 L9.56235999,26.0800463 C9.56648365,24.5769322 10.6324503,23.9668932 11.9437748,24.7239461 L15.2921884,26.6564232 Z" id="Fill-40" fill="url(#linearGradient-47)"></path>
                                        <path d="M22.0308708,22.7420064 L18.6824572,20.8095293 C18.0226713,20.4289419 17.4254276,20.3939059 16.9938176,20.6446539 L10.2550665,24.5590707 C10.6866765,24.3083227 11.2839202,24.3433587 11.9437061,24.7239461 L15.2921197,26.6564232 C15.9807713,27.0541851 16.5945097,27.7514706 17.0268069,28.5394376 L23.7751799,24.6449433 C23.3428826,23.8487325 22.7250206,23.1425162 22.0308708,22.7420064" id="Fill-42" stroke="url(#linearGradient-49)" stroke-width="0.52173913" fill="url(#linearGradient-48)"></path>
                                        <path d="M15.7697772,29.7863079 L11.2062579,27.1524233 L11.2062579,27.3949276 L15.7697772,30.0288121 L15.7697772,29.7863079 Z M15.7697772,29.2964905 L11.2062579,26.663293 L11.2062579,26.9057972 L15.7697772,29.5396817 L15.7697772,29.2964905 Z M15.7697772,28.8073602 L11.2062579,26.1734757 L11.2062579,26.4159799 L15.7697772,29.0498644 L15.7697772,28.8073602 Z M15.7697772,28.5600471 L11.2062579,25.9261626 L11.2062579,25.6836583 L15.7697772,28.3175428 L15.7697772,28.5600471 Z" id="Fill-44" fill="#316A82"></path>
                                        <path d="M15.7697772,33.3275567 L11.2062579,30.6936721 L11.2062579,30.9361764 L15.7697772,33.5700609 L15.7697772,33.3275567 Z M15.7697772,32.8377393 L11.2062579,30.2038548 L11.2062579,30.447046 L15.7697772,33.0802436 L15.7697772,32.8377393 Z M15.7697772,32.348609 L11.2062579,29.7147245 L11.2062579,29.9572287 L15.7697772,32.5911132 L15.7697772,32.348609 Z M15.7697772,31.8587916 L11.2062579,29.2249071 L11.2062579,29.4674114 L15.7697772,32.1012959 L15.7697772,31.8587916 Z" id="Fill-46" fill="#316A82"></path>
                                        <polygon id="Fill-48" fill="#66BAE3" points="25.6317213 2.58076773 26.5602325 2.04148778 26.558858 2.39047404 25.631034 2.92906701"></polygon>
                                        <path d="M23.1670085,0.0833863086 C22.9979383,-0.0141649696 22.8453628,-0.0230957204 22.7347112,0.040793497 L21.8068872,0.58007345 C21.9168516,0.516184233 22.0701143,0.525114984 22.2384972,0.622666262 L25.6315838,2.58056163 L26.5600951,2.04128168 L23.1670085,0.0833863086 Z" id="Fill-50" stroke="url(#linearGradient-51)" stroke-width="0.52173913" fill="url(#linearGradient-50)"></path>
                                        <polygon id="Fill-52" fill="#4A93B6" points="25.6306904 2.9294105 26.5592016 2.39013055 27.0189899 2.65599213 26.0904787 3.19527208"></polygon>
                                        <polygon id="Fill-90" fill="#4A93B6" points="11.6123699 16.2945539 30.245137 5.54742575 30.7062998 5.81328734 12.0735327 16.5604155"></polygon>
                                        <polygon id="Fill-56" fill="#66BAE3" points="26.5457997 3.10830031 27.4743109 2.56902036 27.4729364 2.91800662 26.5451124 3.45728657"></polygon>
                                        <polygon id="Fill-58" fill="#4A93B6" points="26.5448375 3.45701178 27.4733488 2.91773183 27.9331371 3.18290643 27.0046258 3.72218638"></polygon>
                                        <path d="M27.020227,2.30693717 L27.4738299,2.56867687 L26.5847701,3.08593717 L26.588892,3.08844656 L7.95612488,13.8355747 L7.95277014,13.8329372 L7.03806025,14.3666796 L6.58377014,14.1042529 L7.51228139,13.564973 L7.51377014,13.5659372 L26.0947701,2.84793717 L26.0917158,2.84621712 L27.020227,2.30693717 Z" id="形状结合" stroke="url(#linearGradient-53)" stroke-width="0.52173913" fill="url(#linearGradient-52)"></path>
                                        <polygon id="Fill-60" fill="#66BAE3" points="30.2031443 5.21898022 31.1316556 4.67970027 31.130281 5.02868653 30.2024571 5.5672795"></polygon>
                                        <polygon id="Fill-62" fill="#4A93B6" points="30.2021821 5.56762299 31.1306934 5.02834304 31.591169 5.29420462 30.663345 5.83348457"></polygon>
                                        <path d="M31.5925435,4.94563055 L32.0468336,5.20737024 L31.1570867,5.72463055 L31.1612085,5.72713994 L12.5284414,16.4742681 L12.5260867,16.4726305 L11.6103768,17.005373 L11.1560867,16.7429463 L12.0845979,16.2036663 L12.0860867,16.2046305 L30.6670867,5.48663055 L30.6640323,5.4849105 L31.5925435,4.94563055 Z" id="形状结合" stroke="url(#linearGradient-55)" stroke-width="0.52173913" fill="url(#linearGradient-54)"></path>
                                        <polygon id="Fill-66" fill="#66BAE3" points="31.1181162 5.74699369 32.0466275 5.20771373 32.0452529 5.5567 31.1174289 6.09597995"></polygon>
                                        <polygon id="Fill-68" fill="#4A93B6" points="31.117154 6.09570516 32.0456653 5.5564252 32.5054536 5.8215998 31.5769423 6.36087976"></polygon>
                                        <path d="M35.7367552,9.11093273 L35.7415661,13.3839535 C35.7408789,13.5756212 35.6728384,13.7102694 35.5635614,13.7741586 L36.4920726,13.2348787 C36.6013497,13.1709894 36.6693901,13.0363412 36.6693901,12.8453605 L36.6652664,8.57165277 L35.7367552,9.11093273 Z" id="Fill-70" stroke="url(#linearGradient-57)" stroke-width="0.52173913" fill="url(#linearGradient-56)"></path>
                                        <polygon id="Fill-72" stroke="url(#linearGradient-59)" stroke-width="0.52173913" fill="url(#linearGradient-58)" points="31.5781794 6.01244308 32.5066907 5.47316313 36.0592256 7.52311393 35.1307143 8.06239388"></polygon>
                                        <path d="M36.5601818,8.11680277 C36.501076,7.9828415 36.4199773,7.85506307 36.325133,7.74720708 C36.2447216,7.65583863 36.1546883,7.57820979 36.0591568,7.52325133 L35.1306456,8.06253128 C35.2261771,8.11748975 35.3162104,8.19511858 35.3966218,8.28648703 C35.491466,8.39434302 35.5725647,8.52212146 35.6316705,8.65608272 C35.6983364,8.80653152 35.7368239,8.96453711 35.7368239,9.11086403 L36.6653352,8.57158408 C36.6653352,8.42594414 36.6268477,8.26725157 36.5601818,8.11680277" id="Fill-74" stroke="url(#linearGradient-61)" stroke-width="0.52173913" fill="url(#linearGradient-60)"></path>
                                        <polygon id="Fill-76" fill="#66BAE3" points="7.04101554 13.307149 25.6737826 2.56002091 25.6730954 2.90900717 7.03964099 13.6561353"></polygon>
                                        <path d="M22.2816582,0.602606422 C22.1125881,0.505055143 21.9600126,0.496124393 21.849361,0.56001361 L3.21659387,11.3071418 C3.32724547,11.2432525 3.47982097,11.2521833 3.64889112,11.3497346 L7.04129045,13.306943 L25.6740575,2.56050179 L22.2816582,0.602606422 Z" id="Fill-78" fill="url(#linearGradient-62)"></path>
                                        <polygon id="Fill-84" fill="#66BAE3" points="7.95598743 13.8352312 26.5887545 3.08810307 26.5880672 3.43708934 7.95461287 14.1842175"></polygon>
                                        <polygon id="Fill-86" fill="#4A93B6" points="7.95495651 14.183874 26.5877236 3.43674585 27.0475119 3.70260743 8.41474483 14.4490486"></polygon>
                                        <polygon id="Fill-88" fill="#66BAE3" points="11.613332 15.9458424 30.2460991 5.19871428 30.2454119 5.54770055 11.6126448 16.2948287"></polygon>
                                        <polygon id="Fill-94" fill="#66BAE3" points="12.5283039 16.4739246 31.161071 5.72679645 31.1603838 6.07578271 12.5276167 16.8222239"></polygon>
                                        <polygon id="Fill-96" fill="#4A93B6" points="12.5273417 16.8225674 31.1601088 6.07543922 31.6198972 6.3413008 12.9871301 17.0884289"></polygon>
                                        <path d="M17.1461182,19.8373827 L17.1502418,24.1117775 C17.1502418,24.3027582 17.0822014,24.4374064 16.9736117,24.5006086 L35.6063787,13.7541675 C35.7149685,13.6902783 35.7830089,13.55563 35.7830089,13.3646493 L35.7788853,9.09025461 L17.1461182,19.8373827 Z" id="Fill-98" fill="url(#linearGradient-63)"></path>
                                        <polygon id="Fill-100" fill="url(#linearGradient-64)" points="12.9882984 16.739374 31.6210655 5.99224584 35.1736004 8.04288363 16.5408333 18.7893248"></polygon>
                                        <path d="M35.6738693,8.63485501 C35.6147635,8.50158073 35.5336648,8.3738023 35.4388206,8.2659463 C35.3590965,8.17457785 35.2690632,8.097636 35.1735317,8.04267753 L16.5407646,18.7898057 C16.6362961,18.8447641 16.7263294,18.921706 16.8060535,19.0130744 C16.9008977,19.1209304 16.9819964,19.2480219 17.0411023,19.3819832 C17.1077681,19.532432 17.1462556,19.6911245 17.1462556,19.8374514 L35.7790227,9.0903233 C35.7790227,8.94399639 35.7405352,8.78530381 35.6738693,8.63485501" id="Fill-102" fill="url(#linearGradient-65)"></path>
                                        <polygon id="Fill-104" fill="#66BAE3" points="6.12377564 13.8388035 7.05228688 13.2995236 7.05091233 13.6485098 6.12308836 14.1877898"></polygon>
                                        <path d="M3.65906282,11.3414221 C3.48999267,11.2438708 3.33741717,11.2349401 3.22676557,11.2988293 L2.29894161,11.8381092 C2.40890593,11.77422 2.5621687,11.7831508 2.73055157,11.880702 L6.12363818,13.8385974 L7.05214943,13.2993175 L3.65906282,11.3414221 Z" id="Fill-106" stroke="url(#linearGradient-51)" stroke-width="0.52173913" fill="url(#linearGradient-50)"></path>
                                        <polygon id="Fill-112" fill="#66BAE3" points="7.03785407 14.3663361 7.96636531 13.8270561 7.96499076 14.1760424 7.03716679 14.7153224"></polygon>
                                        <polygon id="Fill-114" fill="#4A93B6" points="7.03689188 14.7150476 7.96540312 14.1757676 8.42519144 14.4416292 7.4966802 14.9802222"></polygon>
                                        <path d="M31.1315181,4.67970027 C30.5150306,4.32384419 27.9343055,2.83446975 27.9343055,2.83446975 L7.49812348,14.6319916 L10.6953361,16.4772221 L31.1315181,4.67970027 Z" id="Fill-116" stroke="url(#linearGradient-67)" stroke-width="0.52173913" fill="url(#linearGradient-66)"></path>
                                        <polygon id="Fill-118" fill="#66BAE3" points="10.6951987 16.477016 11.6237099 15.9377361 11.6223354 16.2867223 10.6945114 16.8260023"></polygon>
                                        <polygon id="Fill-124" fill="#66BAE3" points="11.6101706 17.0050295 12.5386818 16.4657495 12.5373073 16.8147358 11.6094833 17.3540157"></polygon>
                                        <polygon id="Fill-126" fill="#4A93B6" points="11.6092084 17.3537409 12.5377196 16.814461 12.997508 17.0803226 12.0689967 17.6189155"></polygon>
                                        <path d="M16.2288096,20.3689685 L16.2336205,24.6426763 C16.2329332,24.8336569 16.1648928,24.9683052 16.0556157,25.0321944 L16.984127,24.4929145 C17.093404,24.4290252 17.1614445,24.294377 17.1614445,24.1033963 L17.1573208,19.8296886 L16.2288096,20.3689685 Z" id="Fill-128" stroke="url(#linearGradient-57)" stroke-width="0.52173913" fill="url(#linearGradient-56)"></path>
                                        <polygon id="Fill-130" stroke="url(#linearGradient-59)" stroke-width="0.52173913" fill="url(#linearGradient-58)" points="12.0702338 17.2705476 12.9987451 16.7312676 16.5512799 18.7812184 15.6227687 19.3204984"></polygon>
                                        <path d="M15.6227687,19.3207045 C15.9581599,19.5144331 16.2296343,19.983641 16.228947,20.3690372 L16.2330707,24.642058 C16.2323834,25.0274542 15.9588471,25.1833989 15.623456,24.9896703 L2.73151376,17.5496679 C2.3954353,17.3559393 2.12464816,16.8860444 2.12602271,16.5006481 L2.12121177,12.2276274 C2.12258633,11.8422311 2.3954353,11.6869735 2.73082648,11.880702 L6.12391309,13.8385974 L6.12253854,14.1875837 L6.58301414,14.4527583 L6.58370142,14.104459 L7.03799152,14.3661987 L7.03661697,14.715185 L7.49709257,14.9803596 L7.49777984,14.6320603 L10.6949925,16.4772908 L10.6943052,16.8255901 L11.1554681,17.0914517 L11.1561554,16.7431524 L11.6104455,17.0048921 L11.6090709,17.3538783 L12.0695465,17.6190529 L12.0702338,17.2707537 L15.6227687,19.3207045 Z" id="Fill-132" fill="url(#linearGradient-68)"></path>
                                        <path d="M17.0522361,19.3749072 C16.9931303,19.240946 16.9120316,19.1131676 16.8171874,19.0053116 C16.736776,18.9139431 16.6467427,18.8363143 16.5512112,18.7813558 L15.6227,19.3206358 C15.7182315,19.3755942 15.8082648,19.4532231 15.8886762,19.5445915 C15.9835204,19.6524475 16.0646191,19.7802259 16.1237249,19.9141872 C16.1903908,20.064636 16.2288783,20.2226416 16.2288783,20.3689685 L17.1573895,19.8296886 C17.1573895,19.6833616 17.118902,19.5253561 17.0522361,19.3749072" id="Fill-134" stroke="url(#linearGradient-61)" stroke-width="0.52173913" fill="url(#linearGradient-60)"></path>
                                        <g transform="translate(15.888676, 7.746932)">
                                            <mask id="mask-70" fill="white">
                                                <use xlink:href="#path-69"></use>
                                            </mask>
                                            <g id="Clip-137"></g>
                                            <path d="M20.6712307,0.369595688 C20.6121249,0.236321406 20.5310262,0.108542972 20.436182,0 L0,11.7975218 C0.0948442278,11.9053778 0.175942915,12.0331563 0.235048738,12.1671175 L20.6712307,0.369595688 Z" id="Fill-136" fill="url(#linearGradient-71)" mask="url(#mask-70)"></path>
                                        </g>
                                        <polygon id="Fill-138" fill="#565757" points="17.8310585 27.1632089 17.3430918 26.8794859 17.3259099 20.8828302 17.8138765 21.1665533"></polygon>
                                        <polygon id="Fill-140" fill="url(#linearGradient-72)" points="17.8140827 21.1664846 17.326116 20.8827615 37.1698652 9.43147798 37.6578319 9.71451409"></polygon>
                                        <polygon id="Fill-142" fill="url(#linearGradient-73)" points="37.6577632 9.71465148 37.6749451 15.7113072 17.8311959 27.1632776 17.814014 21.166622"></polygon>
                                        <polygon id="Fill-144" fill="url(#linearGradient-74)" points="18.4153814 21.2830652 32.7684745 12.9994503 32.7794709 17.3775792 18.4263778 25.6605071"></polygon>
                                        <path d="M17.4382796,36.3311742 C17.1832999,36.3311742 16.9764295,36.12508 16.9764295,35.8702101 L16.9764295,21.2574408 C16.9764295,19.3380164 15.3977542,16.8648854 13.4582585,15.7451066 L3.98070846,10.2753652 C3.03845167,9.7319634 2.17316991,9.60830685 1.60616638,9.93462275 C1.04191195,10.2609386 0.923013028,10.9444846 0.923013028,11.4604072 L0.923013028,26.0724895 C0.923013028,26.3273594 0.716829924,26.5334536 0.461850153,26.5334536 C0.206870381,26.5334536 0,26.3273594 0,26.0724895 L0,11.4604072 C0,10.3873431 0.406867992,9.56227914 1.1450035,9.13566404 C2.00684888,8.64035086 3.20752182,8.76469439 4.44187133,9.47640653 L13.9194213,14.9461479 C16.1516971,16.234237 17.8994425,19.0068916 17.8994425,21.2574408 L17.8994425,35.8702101 C17.8994425,36.12508 17.6932594,36.3311742 17.4382796,36.3311742" id="Fill-146" fill="url(#linearGradient-75)"></path>
                                        <path d="M31.4445041,15.6064052 L31.8073863,15.8173083 C31.7207894,15.7671587 31.6149488,15.7492972 31.4960498,15.7692197 L31.1338549,15.5583165 C31.2520665,15.5390811 31.3579072,15.5562556 31.4445041,15.6064052" id="Fill-148" fill="url(#linearGradient-76)"></path>
                                        <path d="M30.638603,17.8160103 L30.2757208,17.6051072 C30.1760656,17.5474008 30.102527,17.4457277 30.065414,17.3083315 C29.9458278,16.8487413 30.2138658,16.2174059 30.6145483,15.8430014 L30.9774306,16.0532175 C30.5767481,16.4283091 30.3087101,17.0589575 30.4282963,17.5192346 C30.464722,17.6566308 30.5389479,17.758304 30.638603,17.8160103" id="Fill-150" fill="url(#linearGradient-77)"></path>
                                        <path d="M31.1054703,14.6313046 L31.4683526,14.8422077 C31.4532325,14.833277 31.4319269,14.8346509 31.4078722,14.8483905 L31.0456772,14.6374874 C31.0697319,14.6237478 31.0903502,14.6223739 31.1054703,14.6313046" id="Fill-152" fill="url(#linearGradient-76)"></path>
                                        <polygon id="Fill-154" fill="url(#linearGradient-78)" points="30.9771557 16.0534236 30.6142734 15.8425205 30.6122116 14.9899773 30.9744066 15.2001934"></polygon>
                                        <polygon id="Fill-156" fill="url(#linearGradient-79)" points="31.0599039 15.0493324 30.6970216 14.8384293 31.045471 14.6378309 31.4083533 14.8480471"></polygon>
                                        <path d="M30.9747502,15.2005369 L30.611868,14.9896338 C30.611868,14.9333014 30.6476064,14.8673512 30.6970903,14.838498 L31.0599726,15.0494011 C31.0104886,15.0775674 30.9747502,15.1442045 30.9747502,15.2005369" id="Fill-158" fill="url(#linearGradient-76)"></path>
                                        <path d="M31.4081471,14.8483218 C31.4576311,14.8201556 31.4940567,14.8442 31.4940567,14.9012194 L31.4961186,15.7688762 C31.8157024,15.7173526 32.0431911,15.9296297 32.0445695,16.3370093 C32.0459402,16.8577408 31.678247,17.4931981 31.2246442,17.7549377 C31.1524801,17.7968436 31.0775669,17.8291317 31.0019664,17.8497411 C30.725681,17.925996 30.5016287,17.7947826 30.4287774,17.5193033 C30.3085039,17.0590262 30.5765419,16.4283778 30.9772244,16.0532862 L30.9744753,15.200743 C30.9744753,15.1437236 31.010901,15.0777734 31.0596977,15.0496072 L31.4081471,14.8483218 Z" id="Fill-160" fill="url(#linearGradient-80)"></path>
                                        <path d="M29.036904,16.9958239 L29.3997862,17.206727 C29.3131893,17.1565774 29.2073487,17.1394029 29.0884497,17.1586384 L28.7262548,16.9477353 C28.8444664,16.9284998 28.9503071,16.9456743 29.036904,16.9958239" id="Fill-162" fill="url(#linearGradient-76)"></path>
                                        <path d="M28.2310029,19.2054978 L27.8681207,18.9945947 C27.7691528,18.9368883 27.6949269,18.8352151 27.6578139,18.6978189 C27.5382277,18.2382288 27.8062657,17.6068934 28.2069482,17.2324888 L28.5698305,17.442705 C28.169148,17.8177965 27.90111,18.4484449 28.0206962,18.9087221 C28.0571219,19.0461182 28.1313478,19.1477914 28.2310029,19.2054978" id="Fill-164" fill="url(#linearGradient-77)"></path>
                                        <path d="M28.6978702,16.020792 L29.0607525,16.2316951 C29.0456324,16.2227644 29.0243268,16.2241384 29.0002721,16.237878 L28.6380771,16.0269749 C28.6614445,16.0132352 28.6827501,16.0118613 28.6978702,16.020792" id="Fill-166" fill="url(#linearGradient-76)"></path>
                                        <polygon id="Fill-168" fill="url(#linearGradient-78)" points="28.5695556 17.4428424 28.2066733 17.2319392 28.2046115 16.379396 28.5668065 16.5896122"></polygon>
                                        <polygon id="Fill-170" fill="url(#linearGradient-79)" points="28.652235 16.4388199 28.2893528 16.2279168 28.6378022 16.0273184 29.0006845 16.2375345"></polygon>
                                        <path d="M28.5670814,16.5899557 L28.2041991,16.3790525 C28.2041991,16.3227201 28.2399375,16.2567699 28.2894215,16.2279168 L28.6523037,16.4388199 C28.6028198,16.4669861 28.5670814,16.5336232 28.5670814,16.5899557" id="Fill-172" fill="url(#linearGradient-76)"></path>
                                        <path d="M29.000547,16.2378093 C29.050031,16.2096431 29.0857694,16.2336874 29.0864566,16.2907068 L29.0885185,17.1583636 C29.407415,17.10684 29.635591,17.3191171 29.6369694,17.7264967 C29.6383401,18.2472282 29.2706469,18.8826855 28.817044,19.1444252 C28.74488,19.186331 28.6699668,19.2186191 28.5943663,19.2392285 C28.3180809,19.3154834 28.0940286,19.1842701 28.02049,18.9087908 C27.9009038,18.4485136 28.1689418,17.8178652 28.5696243,17.4427737 L28.5668752,16.5902304 C28.5668752,16.533211 28.6033009,16.4672609 28.6520976,16.4390947 L29.000547,16.2378093 Z" id="Fill-174" fill="url(#linearGradient-81)"></path>
                                        <polygon id="Fill-176" fill="#225368" points="25.3982533 19.2848441 25.3982533 20.8394817 26.1776254 20.3901962 26.1776254 18.8348716"></polygon>
                                        <polygon id="Fill-178" fill="#D84C4B" points="25.6739888 19.4811832 26.3069709 19.1136484 26.6231184 20.3557098 25.9901362 20.7239315"></polygon>
                                        <polygon id="Fill-180" fill="url(#linearGradient-82)" points="25.4790083 19.3686557 26.1119905 19.001121 26.3071771 19.1130989 25.674195 19.4813206"></polygon>
                                        <polygon id="Fill-182" fill="url(#linearGradient-83)" points="25.6739888 19.4811832 25.9901362 20.7239315 25.4753658 20.670347 25.4788021 19.3685183"></polygon>
                                        <polygon id="Fill-184" fill="#225368" points="23.5855602 20.3309785 23.5855602 21.8863031 24.3649323 21.4363306 24.3649323 19.881006"></polygon>
                                        <polygon id="Fill-186" fill="#D84C4B" points="23.8612957 20.5272489 24.4942778 20.1597142 24.8104252 21.4024625 24.1774431 21.7699972"></polygon>
                                        <polygon id="Fill-188" fill="url(#linearGradient-82)" points="23.6663152 20.4147214 24.2992973 20.0471867 24.494484 20.1591646 23.8615019 20.5273863"></polygon>
                                        <polygon id="Fill-190" fill="url(#linearGradient-83)" points="23.8612957 20.5272489 24.1774431 21.7699972 23.6626726 21.7170997 23.666109 20.414584"></polygon>
                                        <polygon id="Fill-192" fill="#225368" points="21.772867 21.3770442 21.772867 22.9323688 22.5529264 22.4823963 22.5529264 20.9270717"></polygon>
                                        <polygon id="Fill-194" fill="#D84C4B" points="22.0486026 21.5733833 22.6815847 21.2058486 22.9977321 22.4479099 22.36475 22.8161316"></polygon>
                                        <polygon id="Fill-196" fill="url(#linearGradient-82)" points="21.8536221 21.4608558 22.4866042 21.0933211 22.6817909 21.205299 22.0488088 21.5735207"></polygon>
                                        <polygon id="Fill-198" fill="url(#linearGradient-83)" points="22.0486026 21.5733833 22.36475 22.8161316 21.8499795 22.7625471 21.8534159 21.4607185"></polygon>
                                        <polygon id="Fill-200" fill="#225368" points="19.9601739 22.4231786 19.9601739 23.9778162 20.739546 23.5285308 20.739546 21.9732062"></polygon>
                                        <polygon id="Fill-202" fill="#D84C4B" points="20.2359095 22.6195177 20.8688916 22.251983 21.185039 23.4940443 20.5520569 23.862266"></polygon>
                                        <polygon id="Fill-204" fill="url(#linearGradient-82)" points="20.040929 22.5069903 20.6739111 22.1394555 20.8690978 22.2514334 20.2361156 22.6196551"></polygon>
                                        <polygon id="Fill-206" fill="url(#linearGradient-83)" points="20.2359095 22.6195177 20.5520569 23.862266 20.0372864 23.8093685 20.0407228 22.5068529"></polygon>
                                        <path d="M27.1400881,17.4391327 L18.8845167,22.2033447 L18.8845167,22.3695941 L27.1400881,17.605382 L27.1400881,17.4391327 Z M27.1400881,17.0351879 L18.8845167,21.800087 L18.8845167,21.6338376 L27.1400881,16.8696256 L27.1400881,17.0351879 Z" id="Fill-208" fill="#316A82"></path>
                                        <g transform="translate(33.050580, 20.544812)">
                                            <path d="M0.700494446,4.51286971 C1.09499145,3.6204816 1.63587846,2.76793839 2.26954787,2.04660852 C2.80424938,1.4379435 3.40561677,0.922707876 4.041348,0.555860111 C5.16848231,-0.0947107368 6.18977595,-0.154478069 6.9265369,0.273510989 L9.15675081,1.56915684 C8.41998985,1.1404808 7.39869621,1.20093511 6.27156191,1.85150596 C5.63583067,2.21835373 5.03446329,2.73358935 4.49976177,3.34225437 C3.86609237,4.06358424 3.32520536,4.91612745 2.93070835,5.80851556 C2.48604012,6.81425549 2.22762397,7.86945805 2.23037308,8.84428385 C2.23380946,10.1213812 2.68535046,11.0206391 3.41317681,11.4431323 L1.18227563,10.1481735 C0.455136552,9.72499328 0.00359555488,8.82642235 0.000137455401,7.548638 C-0.00258993823,6.5738122 0.255826219,5.51860964 0.700494446,4.51286971" id="Fill-210" fill="url(#linearGradient-84)"></path>
                                            <path d="M2.23023562,8.84400906 C2.22748651,7.86987024 2.48658995,6.8139807 2.9305709,5.80824076 L0.70035699,4.51259491 C0.255688763,5.51833485 -0.00272739363,6.57422439 0,7.54836321 C0.00345809948,8.82614756 0.454999097,9.72540547 1.18282545,10.1478987 L3.41303936,11.4435445 C2.685213,11.0203643 2.23367201,10.1217934 2.23023562,8.84400906" id="Fill-212" fill="url(#linearGradient-85)"></path>
                                            <path d="M6.27135573,1.85157466 C8.51050424,0.559363714 10.3317883,1.59670477 10.3386847,4.16463912 C10.3462211,6.73669536 8.53730804,9.86864097 6.29747225,11.1608519 C4.05832375,12.4530629 2.23772694,11.4157218 2.23014737,8.84435255 C2.22329412,6.27573122 4.03220722,3.1437856 6.27135573,1.85157466" id="Fill-214" stroke="url(#linearGradient-87)" stroke-width="0.52173913" fill="url(#linearGradient-86)"></path>
                                        </g>
                                        <path d="M39.325647,23.7111303 C40.9325007,22.7837061 42.2390143,23.5283934 42.2445258,25.370876 C42.2493234,27.2161065 40.9510572,29.4639078 39.3442035,30.3906449 C37.7380371,31.318069 36.4315235,30.5740688 36.4260079,28.7281513 C36.4205271,26.8856687 37.7187934,24.6385544 39.325647,23.7111303" id="Fill-216" fill="#153D52"></path>
                                        <path d="M39.5586339,25.7854002 L39.5606958,25.9385969 C39.573754,26.5424531 39.1600133,27.2885142 38.6363082,27.6038385 C38.63081,27.6072734 38.6253118,27.6107083 38.6198135,27.6134562 L38.4885436,27.690398 C38.4940418,27.6869631 38.5002273,27.6835282 38.5064128,27.6794063 C39.1029693,27.3201154 39.573754,26.472381 39.5586339,25.7854002" id="Fill-218" fill="#DFDFDF"></path>
                                        <path d="M38.6416002,25.0970454 L38.7543136,25.3340538 C39.201731,25.1561257 39.5488059,25.4006909 39.5604896,25.9385969 L39.5584278,25.7854002 C39.5453695,25.1726133 39.1494979,24.895073 38.6416002,25.0970454" id="Fill-220" fill="url(#linearGradient-88)"></path>
                                    </g>
                                    <g id="编组" transform="translate(42.010177, 28.967654)">
                                        <mask id="mask-90" fill="white">
                                            <use xlink:href="#path-89"></use>
                                        </mask>
                                        <g id="Clip-223"></g>
                                        <path d="M0.000317512074,0.927424124 C0.0154376064,1.60753515 0.500655177,1.87477069 1.08827702,1.53128028 L1.08827702,1.53128028 L1.22023421,1.4550254 C0.704089173,1.75660999 0.277290148,1.52166254 0.264231885,0.923989219 L0.264231885,0.923989219 C0.258733669,0.662936503 0.332272309,0.375778515 0.460105834,0.107855991 L0.460105834,0.107855991 L0.223682541,0 C0.0786670915,0.304332509 -0.00586798104,0.630648404 0.000317512074,0.927424124" id="Fill-222" fill="url(#linearGradient-91)" mask="url(#mask-90)"></path>
                                    </g>
                                    <path d="M43.0627845,28.0008654 C43.1273886,27.9623945 43.190618,27.9307934 43.252473,27.906062 L43.3651864,28.1430704 C43.3108915,28.1643668 43.2559094,28.1918461 43.1988654,28.2261951 C42.9012744,28.4054971 42.6387346,28.7235692 42.4703517,29.0759904 L42.2339284,28.9674474 C42.4256787,28.5669376 42.7239569,28.2048987 43.0627845,28.0008654" id="Fill-224" fill="#B5EBFF"></path>
                                    <g id="编组" transform="translate(42.274077, 28.085570)">
                                        <mask id="mask-93" fill="white">
                                            <use xlink:href="#path-92"></use>
                                        </mask>
                                        <g id="Clip-227"></g>
                                        <path d="M0.924719865,0.140831071 C0.401014781,0.456842253 -0.0134132575,1.20152948 0.000332282801,1.80607261 L0.000332282801,1.80607261 C0.013390546,2.40992876 0.448436895,2.64281526 0.972141979,2.32749106 L0.972141979,2.32749106 C1.49653434,2.01147988 1.91096238,1.26610567 1.89790411,0.662936503 L1.89790411,0.662936503 C1.88828224,0.241130272 1.67316453,0 1.36663898,0 L1.36663898,0 C1.23330724,0 1.08348085,0.0453407349 0.924719865,0.140831071" id="Fill-226" stroke="url(#linearGradient-95)" stroke-width="0.52173913" fill="url(#linearGradient-94)" mask="url(#mask-93)"></path>
                                    </g>
                                    <path d="M43.8869671,26.7760473 C42.4704892,27.6292775 41.3516022,29.6441922 41.3873406,31.2764587 C41.423079,32.9080382 42.6003845,33.5393736 44.0161752,32.6861434 C45.4326531,31.8329132 46.5515401,29.8179984 46.5158017,28.1857319 C46.4800633,26.5541525 45.303445,25.9228171 43.8869671,26.7760473 M46.6745627,28.0902416 C46.7123629,29.8234942 45.524061,31.9627526 44.0202988,32.8688803 C42.5165367,33.775008 41.2663799,33.1052017 41.2285796,31.371949 C41.1907794,29.6386964 42.3790813,27.4994381 43.8828434,26.5933104 C45.3866055,25.6871827 46.6367624,26.356989 46.6745627,28.0902416" id="Fill-230" stroke="url(#linearGradient-97)" stroke-width="0.52173913" fill="url(#linearGradient-96)"></path>
                                    <g id="编组" transform="translate(41.386333, 26.506201)">
                                        <mask id="mask-99" fill="white">
                                            <use xlink:href="#path-98"></use>
                                        </mask>
                                        <g id="Clip-233"></g>
                                        <path d="M2.50042804,0.269983467 C1.08463739,1.12321366 -0.0342495852,3.13812844 0.000801542451,4.7703949 L0.000801542451,4.7703949 C0.00561248154,4.97305425 0.0276053459,5.15991303 0.0660928587,5.33165824 L0.0660928587,5.33165824 C0.475022681,5.6483564 1.08463739,5.64011263 1.75816886,5.23410696 L1.75816886,5.23410696 C2.95471814,4.51346407 3.89972404,2.81181255 3.86948385,1.43304202 L3.86948385,1.43304202 C3.8529892,0.680111024 3.54715093,0.182049921 3.07911528,0 L3.07911528,0 C2.89217593,0.0625152557 2.69973837,0.150448802 2.50042804,0.269983467 M0.624161793,3.38887645 C0.609728976,2.70189561 1.08051373,1.85347429 1.6763829,1.49418331 L1.6763829,1.49418331 C2.27293935,1.13489234 2.76846607,1.40075392 2.78289889,2.08773475 L2.78289889,2.08773475 C2.79801898,2.77471558 2.32723423,3.62313691 1.73067778,3.98242789 L1.73067778,3.98242789 C1.55061121,4.09097086 1.37947923,4.14249442 1.22827829,4.14249442 L1.22827829,4.14249442 C0.879141565,4.14249442 0.634470948,3.86838907 0.624161793,3.38887645" id="Fill-232" stroke="url(#linearGradient-101)" stroke-width="0.52173913" fill="url(#linearGradient-100)" mask="url(#mask-99)"></path>
                                    </g>
                                    <g id="编组" transform="translate(5.087677, 3.907506)">
                                        <path d="M17.0027808,30.4779531 L0.415350097,20.9048752 C0.282705634,20.8286203 0.113635489,20.8746481 0.0373477401,21.0065484 C-0.0396272853,21.1391357 0.00642027455,21.308133 0.138377461,21.3843878 L16.7258082,30.9574657 C16.7697939,30.982197 16.817216,30.9945627 16.8639508,30.9945627 C16.9601696,30.9945627 17.052952,30.9444131 17.1044978,30.8557926 C17.1807855,30.7232053 17.1354253,30.554895 17.0027808,30.4779531" id="Fill-234" fill="url(#linearGradient-102)"></path>
                                        <path d="M19.6153956,2.22188189 C18.9006275,2.63407039 17.7418785,2.63407039 17.0271104,2.22188189 C16.3123423,1.80969339 16.3123423,1.14057406 17.0271104,0.728385561 C17.7418785,0.316197062 18.9006275,0.316197062 19.6153956,0.728385561 C20.3301637,1.14057406 20.3301637,1.80969339 19.6153956,2.22188189" id="Fill-236" fill="#5F5F64"></path>
                                        <path d="M20.1513342,1.4653099 L20.1513342,3.18001406 C20.1554579,3.45343243 19.9767659,3.72753778 19.6152582,3.93637995 C18.9004901,4.34925543 17.741741,4.34925543 17.0269729,3.93637995 C16.6743998,3.73303363 16.4957078,3.46648506 16.4915842,3.19924952 L16.4915842,1.48454536 C16.4957078,1.75178091 16.6743998,2.01832947 17.0269729,2.2216758 C17.741741,2.63455128 18.9004901,2.63455128 19.6152582,2.2216758 C19.9767659,2.0135206 20.1554579,1.73872827 20.1513342,1.4653099" id="Fill-238" fill="#23517B"></path>
                                        <path d="M20.5888548,0.905077031 C20.5881675,1.03422943 20.3379987,1.10155355 20.3393732,1.37703286 L20.3379987,1.98981977 C20.3063839,1.9994375 20.2740819,2.00699429 20.2390308,2.01111617 C19.82529,2.05714389 19.5029571,2.2357589 19.3964292,2.46452352 C19.3655017,2.53184764 19.2816539,2.58818007 19.1682532,2.6122244 C18.837673,2.68367041 18.7813163,2.48238502 18.2191237,2.48169804 C17.7084768,2.48238502 17.6363127,2.65550419 17.3359727,2.57581442 C17.2878633,2.56344876 17.2514376,2.54902216 17.2232593,2.53253462 C17.0631237,2.43979221 17.1607171,2.29071737 16.8225768,2.09492783 C16.6823723,2.01455108 16.5153639,1.96027959 16.3373592,1.93280036 C16.3243009,1.93073941 16.3139918,1.92661753 16.3016208,1.92386961 L16.3036826,1.25337631 C16.3036826,1.1427724 16.2535114,1.03216849 16.1545435,0.933930226 C16.1215542,0.901642127 16.1050596,0.864545162 16.1050596,0.827448197 L16.1029977,1.58793598 C16.1029977,1.62503294 16.1194924,1.66144293 16.1524817,1.69441801 C16.2232712,1.76449005 16.2686315,1.84211889 16.2885625,1.92112168 C16.242515,1.90944301 16.1999038,1.89501641 16.1669145,1.87578095 C16.0947504,1.8345621 16.0555756,1.77822967 16.0562629,1.72121026 L16.0541922,2.48169804 C16.0535138,2.53871745 16.0926886,2.59504988 16.1648527,2.63626873 C16.2095257,2.662374 16.2665697,2.68229644 16.3352974,2.69260116 C16.5133021,2.72076737 16.6803104,2.77503886 16.8205149,2.85541561 C17.1586552,3.05120515 17.0610619,3.20027999 17.2211974,3.2930224 C17.2493758,3.30882296 17.2858015,3.32324956 17.3339109,3.3363022 C17.6342509,3.41530499 17.706415,3.24218582 18.2163745,3.24218582 C18.7792544,3.24218582 18.8356111,3.44415819 19.1661914,3.37271218 C19.2795921,3.34798087 19.3627526,3.29233542 19.3943673,3.22432432 C19.5008953,2.99624668 19.8232282,2.81763167 20.236969,2.77160395 C20.3489951,2.7592383 20.4500248,2.71595851 20.5022579,2.64863438 C20.5269999,2.61634628 20.537309,2.58886705 20.537309,2.56344876 L20.5393709,1.80296098 C20.5393709,1.82837927 20.5290617,1.8558585 20.5043197,1.8881466 C20.4740795,1.92730451 20.4259701,1.95753167 20.3696134,1.97882807 C20.4369666,1.82837927 20.586793,1.76517703 20.586793,1.66556481 L20.5888548,0.905077031 Z" id="Fill-240" fill="url(#linearGradient-103)"></path>
                                        <path d="M20.5634255,0.830058724 C20.5414327,0.796396664 20.5139416,0.771665354 20.4816396,0.753116871 C20.3428096,0.672740114 20.1132591,0.701593309 19.8204791,0.532596024 C19.4789024,0.335432525 19.5806194,0.188418627 19.4204839,0.0956762146 C19.3923055,0.0791886747 19.3551926,0.0640750963 19.3070832,0.0517094414 C19.0060558,-0.0279803352 18.934579,0.145825815 18.4239322,0.145825815 C17.8617396,0.145825815 17.8046956,-0.0561465493 17.4741154,0.0152994573 C17.1682771,0.0812496172 17.324289,0.235820304 16.9669049,0.443288516 C16.5710334,0.673427095 16.2837516,0.55389243 16.1387361,0.738690274 C16.0892522,0.801205529 16.0947504,0.874712478 16.1545435,0.93379283 C16.3621012,1.13988708 16.3552284,1.40025282 16.1181178,1.60428612 C16.0170881,1.69084571 16.0438919,1.80488453 16.1669145,1.87633053 C16.2115875,1.90174882 16.2693188,1.92167127 16.3373592,1.93266296 C16.5153639,1.96082917 16.6823723,2.01441368 16.8225768,2.09547742 C17.1607171,2.29057997 17.0631237,2.43965481 17.2232593,2.53239723 C17.2514376,2.54888477 17.2878633,2.56331136 17.3359727,2.57567702 C17.6363127,2.6553668 17.7084768,2.48224763 18.2191237,2.48156065 C18.7813163,2.48224763 18.837673,2.68421999 19.1682532,2.612087 C19.2816539,2.58804267 19.3655017,2.53171025 19.3964292,2.46438612 C19.5029571,2.23562151 19.82529,2.05700649 20.2390308,2.01097878 C20.3510569,1.99861312 20.4520867,1.95602031 20.5043197,1.88800921 C20.6404006,1.71489004 20.3414351,1.67229722 20.3393732,1.37689547 C20.3373114,1.05332749 20.683699,1.01760449 20.5634255,0.830058724" id="Fill-242" fill="url(#linearGradient-104)"></path>
                                        <path d="M34.95858,14.4148986 C34.1097929,14.9047159 33.4183922,14.614123 33.4183922,13.7657017 C33.4183922,12.9172804 34.1097929,11.8270418 34.95858,11.3372245 C35.8080544,10.8467201 36.4994551,11.138687 36.4994551,11.9877953 C36.4994551,12.8362166 35.8080544,13.9243943 34.95858,14.4148986" id="Fill-244" fill="#1E3C4B"></path>
                                        <path d="M36.3700408,12.0616457 C36.3700408,12.840682 35.7384333,13.8368042 34.9590611,14.2867767 C34.179689,14.7367491 33.5473941,14.4695136 33.5473941,13.6904773 C33.5473941,12.911441 34.179689,11.9153188 34.9590611,11.4653464 C35.7384333,11.0153739 36.3700408,11.2826095 36.3700408,12.0616457" id="Fill-246" fill="url(#linearGradient-105)"></path>
                                        <path d="M35.1396088,11.5719658 L34.7595446,11.8014174 C34.6701986,12.4073345 34.5609216,13.1506478 34.5210595,13.4247531 C34.7602319,13.1396561 34.9114328,12.9603541 35.1533543,12.6718221 L34.8963127,14.1886758 C35.3437301,12.4066475 35.3121153,12.532365 35.3959631,12.1984923 C35.1389215,12.5048858 35.3066171,12.3049744 34.7650428,12.9493624 L35.1396088,11.5719658 Z" id="Fill-248" fill="#183747"></path>
                                        <path d="M5.52298667,16.6232672 C5.61508179,16.6768517 5.69824231,16.6761647 5.74428987,16.6239542 C5.79033743,16.5703696 5.79033743,16.4748793 5.74428987,16.3677103 L4.41990707,13.3106456 C4.37317223,13.2041636 4.29069899,13.1086732 4.19860387,13.0550887 C4.10582147,13.0015042 4.02334823,13.0021912 3.97730067,13.0550887 L2.65291787,14.5836211 C2.60687031,14.6372056 2.60687031,14.7333829 2.65291787,14.8398649 C2.69896543,14.94566 2.78143867,15.0411503 2.87353379,15.0947348 L5.52298667,16.6232672 Z" id="Fill-250" fill="#363633"></path>
                                        <path d="M5.53370819,16.3376892 L4.20932539,13.2799376 C4.18114703,13.2153614 4.11104478,13.1748295 4.08286642,13.2071176 L2.75848362,14.7363369 C2.73030526,14.768625 2.76535639,14.8490018 2.8217131,14.8812899 L5.47047871,16.4105092 C5.52683542,16.4427973 5.56188655,16.4022654 5.53370819,16.3376892" id="Fill-252" fill="url(#linearGradient-106)"></path>
                                        <path d="M3.94176845,15.190706 C3.94176845,15.2882573 4.02080531,15.4132878 4.11839864,15.4696203 C4.21599198,15.5259527 4.29502883,15.4922906 4.29502883,15.3947394 C4.29502883,15.2971881 4.21599198,15.1721576 4.11839864,15.1158251 C4.02080531,15.0594927 3.94176845,15.0931548 3.94176845,15.190706 L3.94176845,15.190706 Z M4.04142362,14.8740079 C4.00980887,14.8554594 3.98369235,14.8163015 3.98163052,14.7840134 L3.90877915,13.8538413 C3.8833499,13.5591266 4.35619649,13.8002568 4.32801813,14.0956586 L4.25516677,14.942019 C4.25310494,14.9715592 4.22698841,14.9804899 4.19537367,14.9626284 L4.04142362,14.8740079 Z" id="Fill-254" fill="#363633"></path>
                                    </g>
                                </g>
                                <text id="Diesel-Generator" transform="translate(60.945299, 100.922037) rotate(29.999989) translate(-60.945299, -100.922037) " font-family="PingFangSC-Semibold, PingFang SC" font-size="12" font-weight="500" line-spacing="18" fill="#ACD9FF">
                                    <tspan x="12.9812989" y="104.922037">Diesel Generator </tspan>
                                </text>
                            </g>
                        </g>
                    </g>
                </g>
            </g>
        </g>
    </g>
</svg>