<?xml version="1.0" encoding="UTF-8"?>
<svg width="218px" height="158px" viewBox="0 0 218 158" version="1.1" xmlns="http://www.w3.org/2000/svg" xmlns:xlink="http://www.w3.org/1999/xlink">
    <title>icon_光伏(置灰）</title>
    <defs>
        <filter x="-4.1%" y="-7.2%" width="108.3%" height="114.4%" filterUnits="objectBoundingBox" id="filter-1">
            <feGaussianBlur stdDeviation="2.75726967" in="SourceGraphic"></feGaussianBlur>
        </filter>
        <linearGradient x1="57.6119%" y1="35.5124963%" x2="32.3596%" y2="66.6848673%" id="linearGradient-2">
            <stop stop-color="#1463AC" offset="0%"></stop>
            <stop stop-color="#0E3962" offset="100%"></stop>
        </linearGradient>
        <linearGradient x1="0%" y1="33.5951398%" x2="100%" y2="73.0911919%" id="linearGradient-3">
            <stop stop-color="#074989" offset="0%"></stop>
            <stop stop-color="#052C52" offset="99.6273935%"></stop>
        </linearGradient>
        <linearGradient x1="77.3038%" y1="116.462426%" x2="-58422.7173%" y2="-27636.173%" id="linearGradient-4">
            <stop stop-color="#006AB4" offset="0%"></stop>
            <stop stop-color="#003364" offset="100%"></stop>
        </linearGradient>
        <linearGradient x1="94.6053%" y1="43.1644343%" x2="4.6801%" y2="40.3344315%" id="linearGradient-5">
            <stop stop-color="#0C3257" offset="0%"></stop>
            <stop stop-color="#1969B5" offset="100%"></stop>
        </linearGradient>
        <linearGradient x1="100%" y1="50%" x2="-4.35%" y2="50.9647095%" id="linearGradient-6">
            <stop stop-color="#4AAEDB" offset="1.08529637%"></stop>
            <stop stop-color="#3DAAF8" stop-opacity="0" offset="100%"></stop>
        </linearGradient>
        <polygon id="path-7" points="0.155031189 57.5704276 99.9062054 0 199.90747 57.8195924 99.9062054 115.140855"></polygon>
        <filter x="-3.8%" y="-6.5%" width="107.5%" height="113.0%" filterUnits="objectBoundingBox" id="filter-8">
            <feGaussianBlur stdDeviation="7.5" in="SourceAlpha" result="shadowBlurInner1"></feGaussianBlur>
            <feOffset dx="0" dy="0" in="shadowBlurInner1" result="shadowOffsetInner1"></feOffset>
            <feComposite in="shadowOffsetInner1" in2="SourceAlpha" operator="arithmetic" k2="-1" k3="1" result="shadowInnerInner1"></feComposite>
            <feColorMatrix values="0 0 0 0 0.0392156877   0 0 0 0 0.53725493   0 0 0 0 1  0 0 0 0.600000024 0" type="matrix" in="shadowInnerInner1"></feColorMatrix>
        </filter>
        <filter x="-5.5%" y="-9.1%" width="111.0%" height="118.2%" filterUnits="objectBoundingBox" id="filter-9">
            <feGaussianBlur stdDeviation="1.83817978" in="SourceGraphic"></feGaussianBlur>
        </filter>
        <linearGradient x1="0.0101%" y1="50.0143%" x2="100.0123%" y2="50.0143%" id="linearGradient-10">
            <stop stop-color="#04335F" offset="0%"></stop>
            <stop stop-color="#04335F" offset="0.999999978%"></stop>
            <stop stop-color="#379BFA" offset="49.3999988%"></stop>
            <stop stop-color="#3699F7" offset="50.1999974%"></stop>
            <stop stop-color="#002141" offset="100%"></stop>
        </linearGradient>
        <linearGradient x1="171.4276%" y1="217.217867%" x2="-40070.9869%" y2="-35987.3457%" id="linearGradient-11">
            <stop stop-color="#2071BE" offset="0%"></stop>
            <stop stop-color="#2071BE" offset="0.999999978%"></stop>
            <stop stop-color="#002141" offset="100%"></stop>
        </linearGradient>
        <linearGradient x1="71.1766%" y1="68.2236264%" x2="28.7855%" y2="31.8004857%" id="linearGradient-12">
            <stop stop-color="#2071BE" offset="0%"></stop>
            <stop stop-color="#2071BE" offset="0.999999978%"></stop>
            <stop stop-color="#002141" offset="100%"></stop>
        </linearGradient>
        <linearGradient x1="50.0142%" y1="99.9938%" x2="50.0142%" y2="-0.0062%" id="linearGradient-13">
            <stop stop-color="#00DCFF" offset="0%"></stop>
            <stop stop-color="#014380" offset="100%"></stop>
        </linearGradient>
        <linearGradient x1="50.0234%" y1="100.0006%" x2="50.0234%" y2="0.0123%" id="linearGradient-14">
            <stop stop-color="#2071BE" offset="0%"></stop>
            <stop stop-color="#2071BE" offset="0.999999978%"></stop>
            <stop stop-color="#002141" offset="100%"></stop>
        </linearGradient>
        <linearGradient x1="50.0234%" y1="100.0053%" x2="50.0234%" y2="0.0209%" id="linearGradient-15">
            <stop stop-color="#48A6FF" offset="0%"></stop>
            <stop stop-color="#18598D" offset="100%"></stop>
        </linearGradient>
        <linearGradient x1="50.0234%" y1="100.0053%" x2="50.0234%" y2="0.0209%" id="linearGradient-16">
            <stop stop-color="#399CFF" offset="0.763358781%"></stop>
            <stop stop-color="#033863" offset="100%"></stop>
        </linearGradient>
        <linearGradient x1="50.0072%" y1="100.0316%" x2="50.0072%" y2="0.0968%" id="linearGradient-17">
            <stop stop-color="#074784" offset="0%"></stop>
            <stop stop-color="#074784" offset="0.999999978%"></stop>
            <stop stop-color="#002141" offset="100%"></stop>
        </linearGradient>
        <linearGradient x1="50.0072%" y1="100.0523%" x2="50.0072%" y2="0.0995%" id="linearGradient-18">
            <stop stop-color="#3C84C8" offset="0%"></stop>
            <stop stop-color="#18598D" offset="100%"></stop>
        </linearGradient>
        <linearGradient x1="50.0072%" y1="100.0523%" x2="50.0072%" y2="0.0995%" id="linearGradient-19">
            <stop stop-color="#00F6FF" offset="0%"></stop>
            <stop stop-color="#18598D" offset="100%"></stop>
        </linearGradient>
        <filter x="-30.0%" y="-54.5%" width="160.0%" height="209.1%" filterUnits="objectBoundingBox" id="filter-20">
            <feGaussianBlur stdDeviation="2" in="SourceGraphic"></feGaussianBlur>
        </filter>
        <linearGradient x1="100%" y1="52.045315%" x2="0%" y2="52.2041072%" id="linearGradient-21">
            <stop stop-color="#5B5B5B" offset="0%"></stop>
            <stop stop-color="#B2B2B2" offset="48.9383042%"></stop>
            <stop stop-color="#5B5B5B" offset="100%"></stop>
        </linearGradient>
        <linearGradient x1="50%" y1="0%" x2="50%" y2="100%" id="linearGradient-22">
            <stop stop-color="#7E7E7E" offset="0%"></stop>
            <stop stop-color="#C8C8C8" offset="100%"></stop>
        </linearGradient>
        <linearGradient x1="100%" y1="53.1701833%" x2="0%" y2="53.416307%" id="linearGradient-23">
            <stop stop-color="#5B5B5B" offset="0%"></stop>
            <stop stop-color="#B2B2B2" offset="48.9383042%"></stop>
            <stop stop-color="#5B5B5B" offset="100%"></stop>
        </linearGradient>
        <linearGradient x1="50%" y1="0%" x2="50%" y2="100%" id="linearGradient-24">
            <stop stop-color="#7E7E7E" offset="0%"></stop>
            <stop stop-color="#C8C8C8" offset="100%"></stop>
        </linearGradient>
        <linearGradient x1="93.1905948%" y1="67.1735%" x2="6.80940516%" y2="68.5068%" id="linearGradient-25">
            <stop stop-color="#5B5B5B" offset="0%"></stop>
            <stop stop-color="#B2B2B2" offset="48.9383042%"></stop>
            <stop stop-color="#5B5B5B" offset="100%"></stop>
        </linearGradient>
        <linearGradient x1="50%" y1="0%" x2="50%" y2="100%" id="linearGradient-26">
            <stop stop-color="#7E7E7E" offset="0%"></stop>
            <stop stop-color="#C8C8C8" offset="100%"></stop>
        </linearGradient>
        <linearGradient x1="14.1408158%" y1="37.7192015%" x2="83.2801087%" y2="37.7192015%" id="linearGradient-27">
            <stop stop-color="#6C6C6C" offset="0%"></stop>
            <stop stop-color="#D2D2D2" offset="100%"></stop>
        </linearGradient>
        <linearGradient x1="-17.4916033%" y1="51.5872759%" x2="129.083169%" y2="48.2080679%" id="linearGradient-28">
            <stop stop-color="#7E7E7E" offset="0%"></stop>
            <stop stop-color="#989898" offset="0%"></stop>
            <stop stop-color="#9A9A9A" offset="0%"></stop>
            <stop stop-color="#BBBBBB" offset="20.027219%"></stop>
            <stop stop-color="#D5D5D5" offset="58.59%"></stop>
            <stop stop-color="#E9E9E9" offset="76.16%"></stop>
            <stop stop-color="#F4F4F4" offset="90.57%"></stop>
            <stop stop-color="#F8F8F8" offset="100%"></stop>
        </linearGradient>
        <linearGradient x1="69.2703686%" y1="8.95853103%" x2="30.3996496%" y2="97.0331614%" id="linearGradient-29">
            <stop stop-color="#B0B0B0" offset="0%"></stop>
            <stop stop-color="#D8D8D8" offset="100%"></stop>
        </linearGradient>
        <polygon id="path-30" points="0 0 16.8499532 0 16.8499532 27.8750339 0 27.8750339"></polygon>
        <linearGradient x1="68.2717124%" y1="35.9525%" x2="31.7282876%" y2="80.3071%" id="linearGradient-32">
            <stop stop-color="#464646" offset="0%"></stop>
            <stop stop-color="#A3A3A3" offset="100%"></stop>
        </linearGradient>
    </defs>
    <g id="能源云系统V2.0" stroke="none" stroke-width="1" fill="none" fill-rule="evenodd">
        <g id="1_4.站控系统（站点）首页全屏展示" transform="translate(-647.000000, -627.000000)">
            <g id="2D视图" transform="translate(474.000000, 253.000000)">
                <g id="系统能流图" transform="translate(0.000000, 52.000000)">
                    <g id="能流图(无光伏）" transform="translate(40.000000, 86.000000)">
                        <g id="中间2" transform="translate(142.000000, 0.000000)">
                            <g id="icon_光伏(置灰）" transform="translate(0.000000, 236.000000)">
                                <g id="组合-14" transform="translate(0.000000, 19.969973)">
                                    <polygon id="形状_2_拷贝_2-3" fill="#000000" opacity="0.5" filter="url(#filter-1)" points="0 71.4571052 99.8388 13.884183 200 71.7785924 99.8388 129.030027"></polygon>
                                    <polygon id="形状_2_拷贝-3" fill="url(#linearGradient-2)" opacity="0.800000012" points="0.155031189 67.5393228 99.9062054 9.96890521 199.90747 68.0378079 99.9062054 125.358983"></polygon>
                                    <polygon id="形状_3_拷贝-3" fill="url(#linearGradient-3)" points="0.155031189 67.5393447 99.9062489 125.358983 99.9062489 115.140875 0.155031189 57.5704276"></polygon>
                                    <polygon id="形状_4_拷贝-3" fill-opacity="0.600000024" fill="url(#linearGradient-4)" points="199.907592 68.0378109 99.9063709 125.358983 99.9063709 115.14089 199.907592 57.8196502"></polygon>
                                    <g id="形状_2-3">
                                        <use fill-opacity="0.899999976" fill="url(#linearGradient-5)" fill-rule="evenodd" xlink:href="#path-7"></use>
                                        <use fill="black" fill-opacity="1" filter="url(#filter-8)" xlink:href="#path-7"></use>
                                        <path stroke="url(#linearGradient-6)" stroke-width="0.749503125" d="M99.9060353,0.432784663 L199.15635,57.8181867 L99.9068445,114.708538 L0.904738782,57.5704276 L99.9060353,0.432784663 Z" stroke-linejoin="square"></path>
                                    </g>
                                </g>
                                <g id="底座样式02" transform="translate(49.500604, 23.459089)">
                                    <path d="M2.22136889,63.0801076 C0.121359122,61.858887 -0.60360487,59.1922226 0.621375768,57.0738675 C0.996388253,56.4009562 1.57138735,55.8526468 2.22136889,55.4788408 C2.22136889,55.4788408 16.9298912,46.9969523 46.3469358,30.0331753 C48.6469321,28.7123335 51.4969669,28.7123335 53.7970635,30.0331753 C53.7970635,30.0331753 68.5555741,38.5649046 98.0725953,55.6283632 C100.172605,56.8495234 100.897569,59.5161878 99.6725884,61.6346034 C99.2726152,62.3075147 98.7225768,62.855824 98.0475343,63.2296301 C98.0475343,63.2296301 83.2890237,71.6699644 53.7720025,88.5506331 C51.4720061,89.8715353 48.6469321,89.8466149 46.3469358,88.5257127 C46.3469358,88.5257127 31.6384135,80.0438443 2.22136889,63.0801076 L2.22136889,63.0801076 Z" id="形状_17_拷贝_16" fill="#093259" opacity="0.600000024" filter="url(#filter-9)"></path>
                                    <path d="M98.1475582,34.9180112 L53.8970058,9.34771551 C51.5969898,8.02684501 48.7470266,8.02684501 46.4469104,9.34771551 C46.4469104,9.34771551 31.7384208,17.8213028 2.32144163,34.7684773 C0.946423336,35.5410079 0.096395624,37.0114123 0.120851085,38.5815549 C0.120851085,38.5815549 0.120851085,42.8764802 0.120851085,51.4663308 C0.096395624,53.0364734 0.946423336,54.5068778 2.32144163,55.2794818 C2.32144163,55.2794818 17.0299312,63.7530446 46.4469104,80.7001702 C48.7470266,82.0210407 51.5720332,82.0210407 53.8720492,80.7251047 C53.8720492,80.7251047 68.6305522,72.3013621 98.1475582,55.4538769 C99.5225765,54.6813462 100.372604,53.2108685 100.348149,51.6407993 C100.348149,51.6407993 100.348149,47.3458739 100.348149,38.7560233 C100.372604,37.1858808 99.5225765,35.7154764 98.1475582,34.9180112 C98.1475582,34.9180112 98.1475582,34.9180112 98.1475582,34.9180112 Z" id="形状_26" fill="url(#linearGradient-10)"></path>
                                    <path d="M2.19644542,42.7934203 C0.096334446,41.5721916 -0.628629876,38.9055258 0.596351321,36.7871606 C0.971363977,36.1142325 1.54636333,35.5659319 2.19644542,35.1921099 C2.19644542,35.1921099 16.904941,26.7102395 46.3219322,9.74649883 C48.6219296,8.42556818 51.4719657,8.42556818 53.7720633,9.74649883 C53.7720633,9.74649883 68.5305807,18.2782202 98.0476153,35.3416629 C100.147626,36.562831 100.87259,39.2294969 99.6476092,41.3479226 C99.2476358,42.0207902 98.6975972,42.5690908 98.0225543,42.9429128 C98.0225543,42.9429128 83.264037,51.3832608 53.7470023,68.2639568 C51.4719657,69.584827 48.6469906,69.584827 46.3468929,68.2639568 C46.3468929,68.2639568 31.6300771,59.773778 2.19644542,42.7934203 L2.19644542,42.7934203 Z" id="形状_17_拷贝_8" fill-opacity="0.800000012" fill="url(#linearGradient-11)"></path>
                                    <path d="M2.19644542,55.254567 C0.096334446,54.0333384 -0.628629876,51.3666725 0.596351321,49.2483073 C0.971363977,48.5753792 1.54636333,48.0270786 2.19644542,47.6532566 C2.19644542,47.6532566 16.904941,39.1713862 46.3219322,22.2076456 C48.6219296,20.8867149 51.4719657,20.8867149 53.7720633,22.2076456 C53.7720633,22.2076456 68.5305807,30.7393669 98.0476153,47.8028096 C100.147626,49.0239778 100.87259,51.6906436 99.6476092,53.8090693 C99.2476358,54.4819369 98.6975972,55.0302375 98.0225543,55.4040595 C98.0225543,55.4040595 83.264037,63.8444075 53.7470023,80.7251035 C51.4719657,82.0459737 48.6469906,82.0459737 46.3468929,80.7251035 C46.3468929,80.7251035 31.6300771,72.2349247 2.19644542,55.254567 L2.19644542,55.254567 Z" id="形状_17_拷贝_9" fill="url(#linearGradient-11)" opacity="0.100000001"></path>
                                    <path d="M2.19637469,43.0426429 C0.09636492,41.8214143 -0.628599071,39.1547484 0.596381567,37.0363832 C0.971394052,36.3634551 1.54639315,35.8151546 2.19637469,35.4413325 C2.19637469,35.4413325 16.904897,26.9594622 46.3219416,9.99572147 C48.6219379,8.67485131 51.4719727,8.67485131 53.7720693,9.99572147 C53.7720693,9.99572147 68.5305799,18.5274428 98.0476011,35.5908855 C100.147611,36.8120537 100.872575,39.4787195 99.6475942,41.5971452 C99.247621,42.2700128 98.6975826,42.8183134 98.0225401,43.1921354 C98.0225401,43.1921354 83.2723832,51.6324834 53.7720693,68.5131795 C51.4719727,69.8340496 48.6469989,69.8340496 46.3470025,68.5131795 C46.3470025,68.5131795 31.6301266,60.0230006 2.19637469,43.0426429 L2.19637469,43.0426429 Z" id="形状_17_拷贝_11" stroke="url(#linearGradient-13)" stroke-width="0.749503125" fill-opacity="0" fill="url(#linearGradient-12)"></path>
                                    <polygon id="矩形_3" fill-opacity="0.295454545" fill="#000000" points="60.272098 68.9368596 60.272098 72.8745757 56.247055 75.2421891 56.247055 71.304473"></polygon>
                                    <polygon id="矩形_3_拷贝" fill-opacity="0.295454545" fill="#000000" points="67.2721835 65.1985202 67.2721835 69.1362363 63.2471405 71.5038497 63.2471405 67.5661336"></polygon>
                                    <polygon id="矩形_3_拷贝_2" fill-opacity="0.295454545" fill="#000000" points="74.0222659 61.4601807 74.0222659 65.3978968 69.9972229 67.7655102 69.9972229 63.8277941"></polygon>
                                    <path d="M12.3214676,40.5005548 C10.6714771,39.5535251 10.0964709,37.4351529 11.0464606,35.7653587 C11.3464948,35.2419939 11.7965066,34.818329 12.3214676,34.4943163 C12.3214676,34.4943163 23.9216309,27.806835 47.1219574,14.4318724 C48.9469877,13.3851428 51.1719844,13.3851428 52.9970147,14.4318724 C52.9970147,14.4318724 64.6388164,21.1608913 87.9224199,34.6189292 C89.5724104,35.5659589 90.1474957,37.6843311 89.1724438,39.3541253 C88.8724096,39.8774901 88.4223978,40.3261157 87.8974368,40.6251677 C87.8974368,40.6251677 76.2556351,47.2794157 52.9720316,60.5879117 C51.1969675,61.6346413 48.9719707,61.6346413 47.1469405,60.5879117 C47.1469405,60.5879117 35.5384496,53.8921261 12.3214676,40.5005548 L12.3214676,40.5005548 Z" id="形状_17_拷贝_13" stroke="url(#linearGradient-15)" stroke-width="0.533339844" fill-opacity="0.800000012" fill="url(#linearGradient-14)"></path>
                                    <path d="M12.3214676,34.7684343 C10.6714771,33.8214046 10.0964709,31.7030324 11.0464606,30.0332382 C11.3464948,29.5098734 11.7965066,29.0861608 12.3214676,28.7621958 C12.3214676,28.7621958 23.9216309,22.0747145 47.1219574,8.69975189 C48.9469877,7.65302232 51.1719844,7.65302232 52.9970147,8.69975189 C52.9970147,8.69975189 64.6388164,15.4287708 87.9224199,28.8868087 C89.5724104,29.8338384 90.1474957,31.9522106 89.1724438,33.6220048 C88.8724096,34.1454173 88.4223978,34.5939953 87.8974368,34.8930472 C87.8974368,34.8930472 76.2556351,41.5472952 52.9720316,54.8557912 C51.1969675,55.9025208 48.9719707,55.9025208 47.1469405,54.8557912 C47.1469405,54.8557912 35.5384496,48.1600056 12.3214676,34.7684343 L12.3214676,34.7684343 Z" id="形状_17_拷贝_12" stroke="url(#linearGradient-16)" stroke-width="0.9993375" fill-opacity="0.800000012" fill="url(#linearGradient-14)"></path>
                                    <path d="M32.2717453,36.9366416 C31.4967343,36.4880566 31.2217352,35.4911586 31.6717608,34.6936491 C31.821757,34.4444303 32.0217393,34.2450416 32.2717453,34.0955058 C32.2717453,34.0955058 37.7551522,30.9303795 48.7219659,24.6001268 C49.5719563,24.101689 50.6469969,24.101689 51.4969873,24.6001268 C51.4969873,24.6001268 56.9970562,27.7818707 67.9971942,34.1453586 C68.7721678,34.5939435 69.0472043,35.5908416 68.5972159,36.388351 C68.4471825,36.6375924 68.2472001,36.8369585 67.9971942,36.9864944 C67.9971942,36.9864944 62.4971252,40.1267018 51.4969873,46.4071167 C50.6469969,46.9055545 49.5719563,46.9055545 48.7219659,46.4320206 C48.7219659,46.4320206 43.238559,43.2668942 32.2717453,36.9366416 L32.2717453,36.9366416 Z" id="形状_17_拷贝_15" stroke="url(#linearGradient-18)" stroke-width="0.533339844" fill-opacity="0.800000012" fill="url(#linearGradient-17)" opacity="0.600000024"></path>
                                    <path d="M32.2717453,33.1983021 C31.4967343,32.7497172 31.2217352,31.7528191 31.6717608,30.9553097 C31.821757,30.7060908 32.0217393,30.5067022 32.2717453,30.3571663 C32.2717453,30.3571663 37.7551522,27.19204 48.7219659,20.8617873 C49.5719563,20.3633496 50.6469969,20.3633496 51.4969873,20.8617873 C51.4969873,20.8617873 56.9970562,24.0435313 67.9971942,30.4070191 C68.7721678,30.8556041 69.0472043,31.8525021 68.5972159,32.6500116 C68.4471825,32.899253 68.2472001,33.0986191 67.9971942,33.2481549 C67.9971942,33.2481549 62.4971252,36.3883624 51.4969873,42.6687773 C50.6469969,43.167215 49.5719563,43.167215 48.7219659,42.6936811 C48.7219659,42.6936811 43.238559,39.5285548 32.2717453,33.1983021 L32.2717453,33.1983021 Z" id="形状_17_拷贝_14" stroke="url(#linearGradient-19)" stroke-width="0.533339844" fill-opacity="0.800000012" fill="url(#linearGradient-17)"></path>
                                    <path d="M67.9722214,32.9472539 L51.4720265,42.3678623 C50.6220051,42.8663158 49.5720093,42.8663158 48.6970004,42.3678623 C48.6970004,42.3678623 43.2219229,39.211033 32.2717679,32.8973743 C31.8217697,32.6481476 31.5217709,32.1746553 31.4717587,31.6512834 C31.4717587,31.6512834 31.4717587,21.1008556 31.4717587,0 L68.8222055,0 L68.797218,31.6512834 C68.7722306,32.1995737 68.447207,32.6731087 67.9722214,32.9472539 C67.9722214,32.9472539 67.9722214,32.9472539 67.9722214,32.9472539 Z" id="矩形_4" opacity="0.600000024"></path>
                                </g>
                                <g id="光伏" opacity="0.900000036" transform="translate(64.805460, 0.000000)">
                                    <g id="光伏1" transform="translate(0.172610, 0.000000)">
                                        <path d="M41.0703557,60.3896193 C37.1662714,62.5367936 30.8358366,62.5367936 26.9233202,60.3896193 C23.0255599,58.2404364 23.0255599,54.7555464 26.9233202,52.6103807 C30.8358366,50.4632064 37.1662714,50.4632064 41.0703557,52.6103807 C44.9765481,54.7555464 44.9765481,58.2404364 41.0703557,60.3896193" id="投影" fill="#3B3B3B" filter="url(#filter-20)"></path>
                                        <path d="M42.1739526,54.5822277 L26.4750225,54.5822277 L26.4750225,55.5006613 C26.4750225,56.6524 27.242923,57.8024957 28.7704491,58.6814974 C31.8437058,60.4395009 36.8135442,60.4395009 39.8768711,58.6814974 C41.4110171,57.8024957 42.1739526,56.6524 42.1739526,55.5006613 L42.1739526,54.5822277 Z" id="Fill-415" fill="url(#linearGradient-21)"></path>
                                        <path d="M39.8773676,57.7655283 C36.8123857,59.5218888 31.8425473,59.5218888 28.7709456,57.7655283 C25.7109285,56.0075249 25.7109285,53.1569306 28.7709456,51.4022131 C31.8425473,49.6458527 36.8123857,49.6458527 39.8773676,51.4022131 C42.9440045,53.1569306 42.9440045,56.0075249 39.8773676,57.7655283" id="Fill-3备份" fill="url(#linearGradient-22)"></path>
                                        <path d="M39.7997501,52.5718604 L28.850549,52.5718604 L28.850549,54.1359906 C28.850549,54.9410576 29.3867554,55.7444816 30.4558581,56.3606043 C32.5907538,57.5813487 36.0595454,57.5813487 38.196096,56.3606043 C39.2668537,55.7444816 39.7997501,54.9410576 39.7997501,54.1359906 L39.7997501,52.5718604 Z" id="Fill-5" fill="url(#linearGradient-23)"></path>
                                        <path d="M38.1965924,54.789245 C36.0600419,56.0149184 32.5895953,56.0149184 30.4546997,54.789245 C28.3181491,53.5635715 28.3181491,51.577192 30.4546997,50.3498755 C32.5895953,49.1242021 36.0600419,49.1242021 38.1965924,50.3498755 C40.333143,51.577192 40.333143,53.5619285 38.1965924,54.789245" id="Fill-7" fill="url(#linearGradient-24)"></path>
                                        <path d="M37.5630746,47.19352 L31.0888795,47.19352 L31.0888795,52.3065169 C31.0888795,52.7780562 31.4049765,53.2528814 32.0355154,53.615983 C33.2999032,54.3405433 35.3503959,54.3405433 36.6164387,53.615983 C37.2502875,53.2528814 37.5630746,52.7780562 37.5630746,52.3065169 L37.5630746,47.19352 Z" id="Fill-9" fill="url(#linearGradient-25)"></path>
                                        <path d="M36.6159422,48.5077508 C35.3498995,49.2323111 33.2994067,49.2323111 32.0350189,48.5077508 C30.7722861,47.7815475 30.7722861,46.6068069 32.0350189,45.8806036 C33.2994067,45.1576863 35.3498995,45.1576863 36.6159422,45.8806036 C37.88033,46.6068069 37.88033,47.7815475 36.6159422,48.5077508" id="Fill-11" fill="url(#linearGradient-26)"></path>
                                        <path d="M35.7158106,33.1319571 L32.9387914,33.1319571 L32.9387914,47.059616 C32.9387914,47.2617043 33.072843,47.4670785 33.3442561,47.6215199 C33.8837723,47.9336888 34.7658648,47.9336888 35.3070361,47.6215199 C35.5784491,47.4670785 35.7158106,47.2617043 35.7158106,47.059616 L35.7158106,33.1319571 Z" id="Fill-13" fill="url(#linearGradient-27)"></path>
                                        <path d="M35.3068706,33.695011 C34.7656993,34.0055369 33.8852618,34.0055369 33.3440906,33.695011 C32.7996094,33.3844852 32.7996094,32.8817291 33.3440906,32.5679173 C33.8852618,32.2590344 34.7656993,32.2590344 35.3068706,32.5679173 C35.8513517,32.8817291 35.8513517,33.3844852 35.3068706,33.695011" id="Fill-15" fill="#828282"></path>
                                        <polygon id="Fill-17" fill="url(#linearGradient-28)" points="16.8502842 52.0615466 12.8072222 46.1829145 3.94161309 30.789705 0.954414186 24.7303436 44.1041299 0 60 27.3246309"></polygon>
                                        <polygon id="Fill-19" fill="#333333" points="17.3383313 50.100962 2.90378903 25.2868257 43.6157519 1.95795579 58.0469843 26.7720921"></polygon>
                                        <path d="M21.82426,31.7505278 C22.9843855,31.0867583 24.4821223,31.4843628 25.1540352,32.6361015 L25.1540352,32.6361015 L29.599252,40.279309 C30.2695099,41.4326906 29.8673551,42.9196001 28.7072297,43.5833696 L28.7072297,43.5833696 L19.4493955,48.8918828 C18.2876151,49.5556523 16.7898783,49.1580478 16.1196204,48.0063091 L16.1196204,48.0063091 L11.6744036,40.3631016 C11.0024907,39.2113629 11.4046455,37.7244535 12.5680808,37.059041 L12.5680808,37.059041 Z M39.2627769,24.3548771 L39.3505945,24.4949026 L43.7991212,32.1413961 C44.4414517,33.2451456 44.1003954,34.6582259 43.0483341,35.3582738 L42.9070989,35.4454567 L33.1792568,41.0217779 C32.0658839,41.6594649 30.6439677,41.3193651 29.938946,40.2762297 L29.8511365,40.1362042 L25.4042648,32.4913537 C24.7603483,31.3876042 25.1028585,29.9760328 26.1550437,29.2746646 L26.2962871,29.1872931 L36.0241293,23.6093289 C37.1343302,22.9716419 38.5576341,23.3117417 39.2627769,24.3548771 Z M17.5144125,19.51644 L17.6064345,19.6623648 L22.569653,28.1944319 C23.2103975,29.3013306 22.8723149,30.714542 21.8205042,31.4131493 L21.6792857,31.5001355 L12.4214516,36.8070057 C11.3080787,37.4478418 9.88768238,37.1063643 9.18133083,36.0631086 L9.09333135,35.923075 L4.12514791,27.3811499 C3.4812314,26.2774003 3.82374159,24.8673379 4.87447018,24.1660955 L5.01551523,24.0787323 L14.2766593,18.7767911 C15.3879275,18.1418811 16.8065736,18.4780581 17.5144125,19.51644 Z M52.2849523,16.8784492 L52.3767677,17.0243738 L56.8269493,24.6757962 C57.4692798,25.7779713 57.1282235,27.1924949 56.0761622,27.8926658 L55.9349271,27.9798569 L47.378795,32.8825506 C46.2170146,33.5496061 45.2687238,34.0934371 45.2687238,34.0934371 C45.2687238,34.0934371 44.7755922,33.245543 44.1565979,32.1770025 L44.0523298,31.9969769 L39.6004932,24.3504835 C38.9613347,23.2467339 39.3025232,21.8336536 40.3516768,21.1321596 L40.4925155,21.0447798 L49.0486475,16.1404431 C50.1599157,15.5039616 51.5785618,15.8400703 52.2849523,16.8784492 Z M31.7129168,11.3726123 L31.8051453,11.5185371 L36.7700188,20.0555332 C37.4123493,21.1577082 37.0712929,22.5707229 36.0192317,23.2736602 L35.8779965,23.3612368 L26.1518093,28.937558 C25.0421241,29.5740396 23.6220326,29.2379308 22.9126168,28.199552 L22.8203792,28.0536273 L17.8538507,19.5133452 C17.2131062,18.4095956 17.5542286,16.9965154 18.604836,16.2950214 L18.7458729,16.2076416 L28.4753701,10.6329634 C29.5850553,9.99805341 31.0036326,10.3342305 31.7129168,11.3726123 Z M44.7438483,3.90664333 L44.8362833,4.05277296 L49.7961919,12.5848401 C50.4385225,13.6885897 50.0959462,15.100161 49.0452148,15.8044213 L48.9041697,15.8921867 L40.3480376,20.7948804 C39.2399354,21.431362 37.8199128,21.0952533 37.1133966,20.0568744 L37.0215724,19.9109497 L32.0550439,11.3755966 C31.4142994,10.271847 31.7554218,8.85876676 32.8060293,8.15871886 L32.9470662,8.07153595 L41.5065081,3.16884226 C42.6146103,2.53078917 44.0331188,2.86682955 44.7438483,3.90664333 Z" id="形状结合" fill="url(#linearGradient-29)"></path>
                                        <g id="编组" transform="translate(0.000000, 24.730508)">
                                            <mask id="mask-31" fill="white">
                                                <use xlink:href="#path-30"></use>
                                            </mask>
                                            <g id="Clip-34"></g>
                                            <polygon id="Fill-33" fill="url(#linearGradient-32)" mask="url(#mask-31)" points="15.8933876 27.8750339 -0.00082747892 0.543830969 0.955738153 0 16.8499532 27.3312029"></polygon>
                                        </g>
                                    </g>
                                </g>
                                <text id="光伏" opacity="0.400000006" transform="translate(63.945299, 101.922037) rotate(31.999989) translate(-63.945299, -101.922037) " font-family="PingFangSC-Semibold, PingFang SC" font-size="12" font-weight="500" line-spacing="18" fill="#ACD9FF">
                                    <tspan x="51.9452989" y="105.922037">光伏</tspan>
                                </text>
                            </g>
                        </g>
                    </g>
                </g>
            </g>
        </g>
    </g>
</svg>