<?xml version="1.0" encoding="UTF-8"?>
<svg width="109px" height="106px" viewBox="0 0 109 106" version="1.1" xmlns="http://www.w3.org/2000/svg" xmlns:xlink="http://www.w3.org/1999/xlink">
    <title>icon_光伏_置灰状态</title>
    <defs>
        <filter x="-5.6%" y="-9.3%" width="111.3%" height="118.7%" filterUnits="objectBoundingBox" id="filter-1">
            <feGaussianBlur stdDeviation="1.82430802" in="SourceGraphic"></feGaussianBlur>
        </filter>
        <linearGradient x1="0.0078%" y1="49.9998%" x2="99.9872%" y2="49.9998%" id="linearGradient-2">
            <stop stop-color="#002A4D" offset="0%"></stop>
            <stop stop-color="#1773C3" offset="52.6000023%"></stop>
            <stop stop-color="#1772C1" offset="53.2999992%"></stop>
            <stop stop-color="#002A4D" offset="100%"></stop>
        </linearGradient>
        <linearGradient x1="171.4315%" y1="218.017129%" x2="-40070.9778%" y2="-36162.3496%" id="linearGradient-3">
            <stop stop-color="#2071BE" offset="0%"></stop>
            <stop stop-color="#2071BE" offset="0.999999978%"></stop>
            <stop stop-color="#002141" offset="100%"></stop>
        </linearGradient>
        <linearGradient x1="171.4276%" y1="217.977997%" x2="-40070.9869%" y2="-36151.1624%" id="linearGradient-4">
            <stop stop-color="#2071BE" offset="0%"></stop>
            <stop stop-color="#2071BE" offset="0.999999978%"></stop>
            <stop stop-color="#002141" offset="100%"></stop>
        </linearGradient>
        <linearGradient x1="49.9915%" y1="99.9034%" x2="49.9915%" y2="0%" id="linearGradient-5">
            <stop stop-color="#C7E4FF" offset="0%"></stop>
            <stop stop-color="#216CB4" stop-opacity="0" offset="100%"></stop>
        </linearGradient>
        <linearGradient x1="49.9915%" y1="99.96%" x2="49.9915%" y2="0.0376%" id="linearGradient-6">
            <stop stop-color="#0084FF" offset="0%"></stop>
            <stop stop-color="#216CB4" stop-opacity="0" offset="100%"></stop>
        </linearGradient>
        <linearGradient x1="50%" y1="0%" x2="50%" y2="100%" id="linearGradient-7">
            <stop stop-color="#064682" offset="0%"></stop>
            <stop stop-color="#03182B" offset="100%"></stop>
        </linearGradient>
        <linearGradient x1="-0.0077%" y1="49.9976%" x2="100.0047%" y2="49.9976%" id="linearGradient-8">
            <stop stop-color="#002141" offset="0%"></stop>
            <stop stop-color="#2E7CC7" offset="50.7522702%"></stop>
            <stop stop-color="#002141" offset="100%"></stop>
        </linearGradient>
        <radialGradient cx="50%" cy="4.0774%" fx="50%" fy="4.0774%" r="95.9226%" gradientTransform="translate(0.500000,0.040774),scale(0.586803,1.000000),rotate(90.000000),scale(1.000000,1.702688),translate(-0.500000,-0.040774)" id="radialGradient-9">
            <stop stop-color="#001020" offset="0%"></stop>
            <stop stop-color="#004180" offset="99.2366433%"></stop>
        </radialGradient>
        <linearGradient x1="218.7468%" y1="282.048257%" x2="-40022.4426%" y2="-33993.046%" id="linearGradient-10">
            <stop stop-color="#00AEFF" offset="0%"></stop>
            <stop stop-color="#002141" offset="100%"></stop>
        </linearGradient>
        <linearGradient x1="50%" y1="0%" x2="50%" y2="100%" id="linearGradient-11">
            <stop stop-color="#1AB2FF" offset="0%"></stop>
            <stop stop-color="#8AD7FF" offset="100%"></stop>
        </linearGradient>
        <linearGradient x1="50%" y1="0%" x2="50%" y2="100%" id="linearGradient-12">
            <stop stop-color="#0095FF" offset="0%"></stop>
            <stop stop-color="#0095C4" offset="99.662596%"></stop>
        </linearGradient>
        <linearGradient x1="50%" y1="0%" x2="50%" y2="100%" id="linearGradient-13">
            <stop stop-color="#2C4C69" offset="0%"></stop>
            <stop stop-color="#00B9FF" offset="100%"></stop>
        </linearGradient>
        <linearGradient x1="50.0036%" y1="100.0101%" x2="50.0036%" y2="0%" id="linearGradient-14">
            <stop stop-color="#37D5FC" offset="0%"></stop>
            <stop stop-color="#000000" stop-opacity="0" offset="100%"></stop>
        </linearGradient>
        <linearGradient x1="37.3647%" y1="66.0790059%" x2="62.6353%" y2="33.9209941%" id="linearGradient-15">
            <stop stop-color="#04294D" stop-opacity="0" offset="0%"></stop>
            <stop stop-color="#43FF85" offset="100%"></stop>
        </linearGradient>
        <linearGradient x1="50.0043%" y1="100.0782%" x2="50.0043%" y2="0%" id="linearGradient-16">
            <stop stop-color="#DCF2FF" offset="0%"></stop>
            <stop stop-color="#0C4B87" stop-opacity="0" offset="100%"></stop>
        </linearGradient>
        <filter x="-38.3%" y="-69.6%" width="176.6%" height="239.2%" filterUnits="objectBoundingBox" id="filter-17">
            <feGaussianBlur stdDeviation="2.04773259" in="SourceGraphic"></feGaussianBlur>
        </filter>
        <linearGradient x1="100%" y1="52.0465232%" x2="0%" y2="52.2054092%" id="linearGradient-18">
            <stop stop-color="#5B5B5B" offset="0%"></stop>
            <stop stop-color="#B2B2B2" offset="48.9383042%"></stop>
            <stop stop-color="#5B5B5B" offset="100%"></stop>
        </linearGradient>
        <linearGradient x1="50%" y1="0%" x2="50%" y2="100%" id="linearGradient-19">
            <stop stop-color="#7E7E7E" offset="0%"></stop>
            <stop stop-color="#C8C8C8" offset="100%"></stop>
        </linearGradient>
        <linearGradient x1="50%" y1="0%" x2="50%" y2="100%" id="linearGradient-20">
            <stop stop-color="#9E9E9E" stop-opacity="0" offset="0%"></stop>
            <stop stop-color="#D8D8D8" offset="100%"></stop>
        </linearGradient>
        <linearGradient x1="100%" y1="53.172056%" x2="0%" y2="53.4183251%" id="linearGradient-21">
            <stop stop-color="#5B5B5B" offset="0%"></stop>
            <stop stop-color="#B2B2B2" offset="48.9383042%"></stop>
            <stop stop-color="#5B5B5B" offset="100%"></stop>
        </linearGradient>
        <linearGradient x1="50%" y1="0%" x2="50%" y2="100%" id="linearGradient-22">
            <stop stop-color="#7E7E7E" offset="0%"></stop>
            <stop stop-color="#C8C8C8" offset="100%"></stop>
        </linearGradient>
        <linearGradient x1="50%" y1="0%" x2="50%" y2="100%" id="linearGradient-23">
            <stop stop-color="#9E9E9E" stop-opacity="0" offset="0%"></stop>
            <stop stop-color="#D8D8D8" offset="100%"></stop>
        </linearGradient>
        <linearGradient x1="93.1650959%" y1="67.1735%" x2="6.83490411%" y2="68.5068%" id="linearGradient-24">
            <stop stop-color="#5B5B5B" offset="0%"></stop>
            <stop stop-color="#B2B2B2" offset="48.9383042%"></stop>
            <stop stop-color="#5B5B5B" offset="100%"></stop>
        </linearGradient>
        <linearGradient x1="50%" y1="0%" x2="50%" y2="100%" id="linearGradient-25">
            <stop stop-color="#7E7E7E" offset="0%"></stop>
            <stop stop-color="#C8C8C8" offset="100%"></stop>
        </linearGradient>
        <linearGradient x1="50%" y1="0%" x2="50%" y2="100%" id="linearGradient-26">
            <stop stop-color="#9E9E9E" stop-opacity="0" offset="0%"></stop>
            <stop stop-color="#D8D8D8" offset="100%"></stop>
        </linearGradient>
        <linearGradient x1="14.1408158%" y1="37.7192015%" x2="83.2801087%" y2="37.7192015%" id="linearGradient-27">
            <stop stop-color="#6C6C6C" offset="0%"></stop>
            <stop stop-color="#D2D2D2" offset="100%"></stop>
        </linearGradient>
        <linearGradient x1="-17.4916033%" y1="51.5882136%" x2="129.083169%" y2="48.2070093%" id="linearGradient-28">
            <stop stop-color="#7E7E7E" offset="0%"></stop>
            <stop stop-color="#989898" offset="0%"></stop>
            <stop stop-color="#9A9A9A" offset="0%"></stop>
            <stop stop-color="#BBBBBB" offset="20.027219%"></stop>
            <stop stop-color="#D5D5D5" offset="58.59%"></stop>
            <stop stop-color="#E9E9E9" offset="76.16%"></stop>
            <stop stop-color="#F4F4F4" offset="90.57%"></stop>
            <stop stop-color="#F8F8F8" offset="100%"></stop>
        </linearGradient>
        <linearGradient x1="69.2703686%" y1="8.93428657%" x2="30.3996496%" y2="97.0609453%" id="linearGradient-29">
            <stop stop-color="#B0B0B0" offset="0%"></stop>
            <stop stop-color="#D8D8D8" offset="100%"></stop>
        </linearGradient>
        <polygon id="path-30" points="0 0 13.5127527 0 13.5127527 22.3608738 0 22.3608738"></polygon>
        <linearGradient x1="68.2609251%" y1="35.9525%" x2="31.7390749%" y2="80.3071%" id="linearGradient-32">
            <stop stop-color="#464646" offset="0%"></stop>
            <stop stop-color="#A3A3A3" offset="100%"></stop>
        </linearGradient>
    </defs>
    <g id="能源云系统V2.0" stroke="none" stroke-width="1" fill="none" fill-rule="evenodd">
        <g id="1_8.站控系统（站点）首页全屏_风光柴储充（风光柴置灰状态）_V2.2" transform="translate(-661.000000, -578.000000)">
            <g id="2D视图" transform="translate(474.000000, 253.000000)">
                <g id="系统能流图" transform="translate(0.000000, 52.000000)">
                    <g id="能流图（全都有）" transform="translate(40.000000, 70.000000)">
                        <g id="中间2" transform="translate(106.000000, 0.000000)">
                            <g id="icon_风光柴" transform="translate(0.000000, 203.000000)">
                                <g id="icon_光伏_置灰状态" transform="translate(47.000000, 0.000000)">
                                    <g id="底座样式04">
                                        <path d="M2.12369545,74.6297251 C0.093225625,73.446316 -0.607802224,70.8621203 0.576703136,68.8092595 C0.939287033,68.1571853 1.49518438,67.6258504 2.12369545,67.263574 C2.12369545,67.263574 16.3449985,59.0440189 44.7876047,42.6049087 C47.011388,41.3249199 49.7671225,41.3249199 51.9909058,42.6049087 C51.9909058,42.6049087 66.2686,50.8808166 94.8239885,67.4326324 C96.8544584,68.6160415 97.5554862,71.2002372 96.3709808,73.253098 C95.984257,73.9051722 95.4524027,74.4365071 94.7998486,74.7987835 C94.7998486,74.7987835 80.5301687,82.9780726 51.9908088,99.3366509 C49.7670256,100.616698 47.0356249,100.592539 44.8117446,99.3124913 C44.8117446,99.3124913 30.5823949,91.0849026 2.12369545,74.6297251 L2.12369545,74.6297251 Z" id="形状_17_拷贝_7" fill="#000000" opacity="0.400000006" filter="url(#filter-1)"></path>
                                        <path d="M94.872301,55.4051709 L52.0633571,30.6016573 C49.8395259,29.3216534 47.0838669,29.2974815 44.8600357,30.6016573 C44.8600357,30.6016573 30.6467879,38.8211948 2.22029218,55.2602697 C0.890819461,56.0089476 0.0925931503,57.433918 0.0925931503,58.9554456 C0.0925931503,58.9554456 0.0925931503,61.1854298 0.0925931503,65.6453981 C0.068947743,67.1669257 0.890819461,68.5918308 2.22029218,69.3405086 C2.22029218,69.3405086 16.4416156,77.5600679 44.8842626,93.9991864 C47.1080938,95.2791903 49.8395259,95.2791903 52.0633571,94.023293 C52.0633571,94.023293 66.3249294,85.8440204 94.8480741,69.4854751 C96.1775468,68.7367973 97,67.3118269 96.9752886,65.7902993 C96.9752886,65.7902993 96.9752886,63.5603151 96.9752886,59.1003468 L97,59.1003468 C97.0236454,57.5788191 96.2017737,56.1538487 94.872301,55.4051709 C94.872301,55.4051709 94.872301,55.4051709 94.872301,55.4051709 Z" id="形状_18" fill="url(#linearGradient-2)"></path>
                                        <path d="M2.12359233,69.316449 C0.0931434154,68.1329855 -0.607806824,65.5488096 0.57659748,63.4959403 C0.939188029,62.8439008 1.49514082,62.3125354 2.12359233,61.9502782 C2.12359233,61.9502782 16.3449086,53.7307291 44.7875412,37.2916308 C47.0113524,36.0115927 49.7669824,36.0115927 51.9908905,37.2916308 C51.9908905,37.2916308 66.2605393,45.559477 94.7998368,62.0951694 C96.8302858,63.2785743 97.531236,65.8627502 96.3468317,67.9156194 C95.9600103,68.5677176 95.4282884,69.099083 94.775606,69.4613402 C94.775606,69.4613402 80.5059572,77.6406255 51.9666596,93.9991961 C49.7669824,95.3033925 47.0355833,95.2792342 44.8116752,93.9991961 C44.8116752,93.9991961 30.5823142,85.7716137 2.12359233,69.316449 L2.12359233,69.316449 Z" id="形状_17_拷贝" stroke="#52AFFF" stroke-width="0.5" fill-opacity="0.800000012" fill="url(#linearGradient-3)" opacity="0.200000003"></path>
                                        <path d="M2.12359233,62.4815911 C0.0931434154,61.2981344 -0.607806824,58.7139469 0.57659748,56.6611015 C0.939188029,56.0089867 1.49514082,55.4776447 2.12359233,55.1153848 C2.12359233,55.1153848 16.3449086,46.8958536 44.7875412,30.4567914 C47.0113524,29.1767163 49.7669824,29.1767163 51.9908905,30.4567914 C51.9908905,30.4567914 66.2605393,38.7246317 94.7998368,55.2603122 C96.8302858,56.4437103 97.531236,59.0278978 96.3468317,61.0808018 C95.9600103,61.732858 95.4282884,62.2642 94.775606,62.6264599 C94.775606,62.6264599 80.5059572,70.805753 51.9666596,87.1643391 C49.7669824,88.4443555 47.0355833,88.4443555 44.8116752,87.1643391 C44.8116752,87.1643391 30.5823142,78.9367564 2.12359233,62.4815911 L2.12359233,62.4815911 Z" id="形状_17" stroke="#2885DF" stroke-width="0.5" fill-opacity="0.800000012" fill="url(#linearGradient-4)"></path>
                                        <path d="M94.9448924,62.6506451 L52.1359235,87.1884707 C49.9120665,88.4685107 47.1806222,88.4685107 44.9567652,87.1643466 C44.9567652,87.1643466 30.7274231,78.9367548 2.26873873,62.4815711" id="形状_17_拷贝_5" stroke="url(#linearGradient-5)" stroke-width="0.72604053"></path>
                                        <path d="M94.9448924,69.7512016 L52.1359235,94.2890271 C49.9120665,95.5690671 47.1806222,95.5690671 44.9567652,94.264903 C44.9567652,94.264903 30.7274231,86.0373112 2.26873873,69.5821276" id="形状_17_拷贝_6" stroke="url(#linearGradient-6)" stroke-width="0.72604053" opacity="0.400000006"></path>
                                        <path d="M51.6765989,33.9099778 C50.7096936,33.354514 49.6219891,33.064698 48.4859137,33.088866 C47.3738958,33.064698 46.2620485,33.354514 45.2951431,33.9099778 C45.2951431,33.9099778 32.5564027,41.2681274 7.07892179,55.9844265 C5.87033277,56.6847983 5.45939373,58.2305001 6.16038731,59.413932 C6.37792822,59.8003198 6.69212553,60.1143038 7.07892179,60.3316658 C7.07892179,60.3316658 19.8176622,67.6897986 45.2951431,82.4060643 C46.2620485,82.9615783 47.3498383,83.2513943 48.4859137,83.2272262 C49.5978463,83.2513943 50.7096936,82.9615783 51.6765989,82.4060643 C51.6765989,82.4060643 64.4153394,75.0479315 89.8928203,60.3316658 C91.1014093,59.6312939 91.4882055,58.0614241 90.7630692,56.8779922 C90.5455283,56.5157725 90.2312457,56.2017885 89.8928203,55.9844265 C89.8928203,55.9844265 77.1540798,48.6262769 51.6765989,33.9099778 L51.6765989,33.9099778 Z" id="形状_19_拷贝_10" stroke="#1775CD" stroke-width="0.5" fill="url(#linearGradient-7)" opacity="0.600000024"></path>
                                        <path d="M51.6765927,33.9103906 C50.7097232,33.3549267 49.6219417,33.0651107 48.4858977,33.0892788 C47.3738997,33.0651107 46.2620723,33.3549267 45.2952028,33.9103906 C45.2952028,33.9103906 32.5564406,41.2685401 7.07891613,55.9848392 C5.87030793,56.6852111 5.45939479,58.2309129 6.16039437,59.4143447 C6.37791656,59.8007326 6.69213422,60.1147165 7.07891613,60.3320785 C7.07891613,60.3320785 19.8176784,67.6902114 45.2952028,82.4064771 C46.2620723,82.9619911 47.3497685,83.251807 48.4858977,83.227639 C49.5978105,83.251807 50.7097232,82.9619911 51.6765927,82.4064771 C51.6765927,82.4064771 64.4153549,75.0483442 89.8928793,60.3320785 C91.077271,59.6075386 91.4398364,58.0377189 90.7147056,56.8542871 C90.4971834,56.4920172 90.207097,56.2022012 89.8928793,55.9848392 C89.8928793,55.9848392 77.1541171,48.6266897 51.6765927,33.9103906 L51.6765927,33.9103906 Z" id="形状_19" opacity="0.600000024"></path>
                                        <path d="M80.1030784,43.0396887 L50.7822357,26.0612379 C50.0328429,25.6265115 49.1868958,25.4091229 48.3408832,25.4332941 C47.4706502,25.4091229 46.6246376,25.6265115 45.8994653,26.0612379 C45.8994653,26.0612379 36.125851,31.7207215 16.5786225,43.0396887 C15.9501354,43.4019523 15.5875493,44.0540166 15.6117697,44.7785944 C15.6117697,44.7785944 15.6117697,48.7716183 15.6117697,56.757666 C15.5875493,57.4580727 15.9501354,58.1343081 16.5786225,58.4965717 C16.5786225,58.4965717 26.3522586,64.1560553 45.8995307,75.4750225 C46.648858,75.9097489 47.4948706,76.1271375 48.3408832,76.1029663 C49.2110507,76.1271375 50.0571288,75.9097489 50.7823011,75.4750225 C50.7823011,75.4750225 60.5559154,69.8155389 80.1031439,58.4965717 C80.7316964,58.1343081 81.0942826,57.4822438 81.0700622,56.757666 C81.0700622,56.7093744 81.0700622,56.6852539 81.0700622,56.6369115 C81.0700622,56.5886198 81.0700622,56.5644993 81.0700622,56.516157 C81.0700622,56.4678653 81.0700622,56.4437448 81.0700622,56.3954025 C81.0700622,56.3471108 81.0700622,56.3229396 81.0700622,56.2746479 C81.0700622,56.2263563 81.0700622,56.2021851 81.0700622,56.1538934 C81.0700622,56.1056017 81.0700622,56.0814306 81.0700622,56.0331389 C81.0700622,55.9848472 81.0700622,55.960676 81.0700622,55.9123844 C81.0700622,55.8640927 81.0700622,55.8399215 81.0700622,55.7916299 C81.0700622,55.7433382 81.0700622,55.719167 81.0700622,55.6708753 C81.0700622,55.6225837 81.0700622,55.5984125 81.0700622,55.5501208 C81.0700622,55.5018291 81.0700622,55.477658 81.0700622,55.4293663 C81.0700622,55.3810746 81.0700622,55.3569034 81.0700622,55.3086118 C81.0700622,55.2603201 81.0700622,55.2361489 81.0700622,55.1878572 C81.0700622,55.1395149 81.0700622,55.1153944 81.0700622,55.0671027 C81.0700622,55.0187604 81.0700622,54.9946399 81.0700622,54.9463482 C81.0700622,54.8980058 81.0700622,54.8738853 81.0700622,54.8255937 C81.0700622,54.7772513 81.0700622,54.7531308 81.0700622,54.7048391 C81.0700622,54.6564968 81.0700622,54.6323763 81.0700622,54.5840339 C81.0700622,54.5357423 81.0700622,54.5116218 81.0700622,54.4632794 C81.0700622,54.4149877 81.0700622,54.3908672 81.0700622,54.3425249 C81.0700622,54.2942332 81.0700622,54.2701127 81.0700622,54.2217704 C81.0700622,54.1734787 81.0700622,54.1493582 81.0700622,54.1010159 C81.0700622,54.0527242 81.0700622,54.028553 81.0700622,53.9802613 C81.0700622,53.9319697 81.0700622,53.9077985 81.0700622,53.8595068 C81.0700622,53.8112151 81.0700622,53.787044 81.0700622,53.7387523 C81.0700622,53.6904606 81.0700622,53.6662894 81.0700622,53.6179978 C81.0700622,53.5697061 81.0700622,53.5455349 81.0700622,53.4972432 C81.0700622,53.4489516 81.0700622,53.4247804 81.0700622,53.3764887 C81.0700622,53.328197 81.0700622,53.3040259 81.0700622,53.2557342 C81.0700622,53.2074425 81.0700622,53.1832713 81.0700622,53.1349797 C81.0700622,53.086688 81.0700622,53.0625168 81.0700622,53.0142251 C81.0700622,52.9658828 81.0700622,52.9417623 81.0700622,52.8934706 C81.0700622,52.8451283 81.0700622,52.8210078 81.0700622,52.7727161 C81.0700622,52.7243738 81.0700622,52.7002533 81.0700622,52.6519616 C81.0700622,52.6036192 81.0700622,52.5794987 81.0700622,52.5312071 C81.0700622,52.4828647 81.0700622,52.4587442 81.0700622,52.4104525 C81.0700622,52.3621102 81.0700622,52.3379897 81.0700622,52.2896473 C81.0700622,52.2413557 81.0700622,52.2172352 81.0700622,52.1688928 C81.0700622,52.1206011 81.0700622,52.0964806 81.0700622,52.0481383 C81.0700622,51.9998466 81.0700622,51.9757261 81.0700622,51.9273838 C81.0700622,51.8790921 81.0700622,51.8549716 81.0700622,51.8066292 C81.0700622,51.7583376 81.0700622,51.7341664 81.0700622,51.6858747 C81.0700622,51.637583 81.0700622,51.6134119 81.0700622,51.5651202 C81.0700622,51.5168285 81.0700622,51.4926573 81.0700622,51.4443657 C81.0700622,51.396074 81.0700622,51.3719028 81.0700622,51.3236111 C81.0700622,51.2753195 81.0700622,51.2511483 81.0700622,51.2028566 C81.0700622,51.154565 81.0700622,51.1303938 81.0700622,51.0821021 C81.0700622,51.0338104 81.0700622,51.0096393 81.0700622,50.9613476 C81.0700622,50.9130559 81.0700622,50.8888847 81.0700622,50.8405931 C81.0700622,50.7923014 81.0700622,50.7681302 81.0700622,50.7198385 C81.0700622,50.6715469 81.0700622,50.6473757 81.0700622,50.599084 C81.0700622,50.5507417 81.0700622,50.5266212 81.0700622,50.4783295 C81.0700622,50.4299871 81.0700622,50.4058666 81.0700622,50.357575 C81.0700622,50.3092326 81.0700622,50.2851121 81.0700622,50.2368204 C81.0700622,50.1884781 81.0700622,50.1643576 81.0700622,50.1160659 C81.0700622,50.0677236 81.0700622,50.0436031 81.0700622,49.9952607 C81.0700622,49.946969 81.0700622,49.9228485 81.0700622,49.8745062 C81.0700622,49.8262145 81.0700622,49.802094 81.0700622,49.7537517 C81.0700622,49.70546 81.0700622,49.6813395 81.0700622,49.6329972 C81.0700622,49.5847055 81.0700622,49.560585 81.0700622,49.5122426 C81.0700622,49.463951 81.0700622,49.4398305 81.0700622,49.3914881 C81.0700622,49.3431964 81.0700622,49.3190253 81.0700622,49.2707336 C81.0700622,49.2224419 81.0700622,49.1982707 81.0700622,49.1499791 C81.0700622,49.1016874 81.0700622,49.0775162 81.0700622,49.0292245 C81.0700622,48.9809329 81.0700622,48.9567617 81.0700622,48.90847 C81.0700622,48.8601783 81.0700622,48.8360072 81.0700622,48.7877155 C81.0700622,48.7394238 81.0700622,48.7152526 81.0700622,48.666961 C81.0700622,48.6186693 81.0700622,48.5944981 81.0700622,48.5462064 C81.0700622,48.4979148 81.0700622,48.4737436 81.0700622,48.4254519 C81.0700622,48.3771602 81.0700622,48.3529891 81.0700622,48.3046974 C81.0700622,48.256355 81.0700622,48.2322345 81.0700622,48.1839429 C81.0700622,48.1356005 81.0700622,48.11148 81.0700622,48.0631884 C81.0700622,48.014846 81.0700622,47.9907255 81.0700622,47.9424338 C81.0700622,47.8940915 81.0700622,47.869971 81.0700622,47.8216793 C81.0700622,47.773337 81.0700622,47.7492165 81.0700622,47.7008741 C81.0700622,47.6525824 81.0700622,47.6284619 81.0700622,47.5801196 C81.0700622,47.5318279 81.0700622,47.5077074 81.0700622,47.4593651 C81.0700622,47.4110734 81.0700622,47.3869529 81.0700622,47.3386105 C81.0700622,47.2903189 81.0700622,47.2661984 81.0700622,47.217856 C81.0700622,47.1695643 81.0700622,47.1454438 81.0700622,47.0971015 C81.0700622,47.0488098 81.0700622,47.0246386 81.0700622,46.976347 C81.0700622,46.9280553 81.0700622,46.9038841 81.0700622,46.8555924 C81.0700622,46.8073008 81.0700622,46.7831296 81.0700622,46.7348379 C81.0700622,46.6865462 81.0700622,46.6623751 81.0700622,46.6140834 C81.0700622,46.5657917 81.0700622,46.5416206 81.0700622,46.4933289 C81.0700622,46.4450372 81.0700622,46.420866 81.0700622,46.3725744 C81.0700622,46.3242827 81.0700622,46.3001115 81.0700622,46.2518198 C81.0700622,46.2035282 81.0700622,46.179357 81.0700622,46.1310653 C81.0700622,46.0827736 81.0700622,46.0586025 81.0700622,46.0103108 C81.0700622,45.9619684 81.0700622,45.9378479 81.0700622,45.8895563 C81.0700622,45.8412139 81.0700622,45.8170934 81.0700622,45.7688017 C81.0700622,45.7204594 81.0700622,45.6963389 81.0700622,45.6480472 C81.0700622,45.5997049 81.0700622,45.5755844 81.0700622,45.5272927 C81.0700622,45.4789503 81.0700622,45.4548298 81.0700622,45.4065382 C81.0700622,45.3581958 81.0700622,45.3340753 81.0700622,45.285733 C81.0700622,45.2374413 81.0700622,45.2133208 81.0700622,45.1649784 C81.0700622,45.1166868 81.0700622,45.0925663 81.0700622,45.0442239 C81.0700622,44.9959323 81.0700622,44.9718118 81.0700622,44.9234694 C81.0700622,44.8751777 81.0699967,44.8268861 81.0699967,44.7785944 C81.0942171,44.0540166 80.7316309,43.4019523 80.1030784,43.0396887 C80.1030784,43.0396887 80.1030784,43.0396887 80.1030784,43.0396887 Z" id="形状_24" fill="url(#linearGradient-8)"></path>
                                        <path d="M50.7069932,44.1023392 C49.9576441,43.6676241 49.1116493,43.4502473 48.2656544,43.4743875 C47.395449,43.4502473 46.5493885,43.6675856 45.8242501,44.1023392 C45.8242501,44.1023392 36.0425796,49.7537759 16.4792388,61.0566494 C15.5606776,61.5879635 15.2464641,62.7713694 15.7782454,63.6891568 C15.9473919,63.978954 16.1891047,64.2204709 16.4792388,64.3895289 C16.4792388,64.3895289 26.2609092,70.0409656 45.8242501,81.3438391 C46.5735992,81.7785927 47.419594,81.9959309 48.2656544,81.9717908 C49.1358599,81.9959309 49.9818548,81.7785927 50.7312038,81.3438391 C50.7312038,81.3438391 60.5128743,75.6924024 80.0762151,64.3895289 C81.0189213,63.8823549 81.4057012,62.7714079 80.9222756,61.8053403 C80.7046422,61.4913644 80.4146393,61.2015672 80.0520045,61.0566494 C80.0520045,61.0566494 70.270334,55.4052126 50.7069932,44.1023392 L50.7069932,44.1023392 Z" id="形状_19_拷贝_13" stroke="#1C5F9F" stroke-width="0.5" fill="url(#radialGradient-9)" opacity="0.550000012"></path>
                                        <path d="M50.9273382,25.9887649 C50.1779886,25.5540114 49.3319953,25.3366732 48.4859365,25.3608133 C47.6157494,25.3366732 46.7696906,25.5540499 46.0445347,25.9887649 C46.0445347,25.9887649 36.2628641,31.6402006 16.699523,42.9430719 C15.7809485,43.4743859 15.4666925,44.6577916 15.9985608,45.5755788 C16.1677202,45.8653759 16.4094606,46.1068928 16.699523,46.2759507 C16.699523,46.2759507 26.4811936,51.9273864 46.0445347,63.2302577 C46.7938843,63.6650112 47.6399432,63.8823494 48.4859365,63.8581708 C49.3561891,63.8823494 50.2021824,63.6649727 50.9514664,63.2302577 C50.9514664,63.2302577 60.733137,57.5788221 80.2964781,46.2759507 C81.2391807,45.7687769 81.5776305,44.6095113 81.0700214,43.667584 C80.8766684,43.3777868 80.6107342,43.1121298 80.27235,42.9430719 C80.27235,42.9430719 70.4906794,37.2916362 50.9273382,25.9887649 L50.9273382,25.9887649 Z" id="形状_19_拷贝_11" stroke="url(#linearGradient-11)" stroke-width="0.5" fill-opacity="0.800000012" fill="url(#linearGradient-10)"></path>
                                        <path d="M50.9273382,38.3059953 C50.1779886,37.8712418 49.3319953,37.6539036 48.4859365,37.6780438 C47.6157494,37.6539036 46.7696906,37.8712803 46.0445347,38.3059953 C46.0445347,38.3059953 36.2628641,43.957431 16.699523,55.2603023 C15.7809485,55.7916163 15.4666925,56.975022 15.9985608,57.8928092 C16.1677202,58.1826063 16.4094606,58.4241232 16.699523,58.5931812 C16.699523,58.5931812 26.4811936,64.2446168 46.0445347,75.5474881 C46.7938843,75.9822416 47.6399432,76.1995798 48.4859365,76.1754012 C49.3561891,76.1995798 50.2021824,75.9822031 50.9514664,75.5474881 C50.9514664,75.5474881 60.733137,69.8960525 80.2964781,58.5931812 C81.2391807,58.0860073 81.5776305,56.9267417 81.0700214,55.9848144 C80.8766684,55.6950173 80.6107342,55.4293603 80.27235,55.2603023 C80.27235,55.2603023 70.4906794,49.6088666 50.9273382,38.3059953 L50.9273382,38.3059953 Z" id="形状_19_拷贝_12" fill="url(#linearGradient-12)" opacity="0.200000003"></path>
                                        <path d="M50.9273755,32.5096516 C50.1780204,32.0748981 49.3319341,31.8575599 48.4859133,31.8817 C47.615726,31.8575599 46.7697052,32.0749366 46.0445165,32.5096516 C46.0445165,32.5096516 36.2628402,38.1610872 16.6994876,49.4639586 C15.7809675,49.9952726 15.4667387,51.1786783 15.9985307,52.0964655 C16.1677611,52.3862626 16.4094907,52.6277795 16.6994876,52.7968374 C16.6994876,52.7968374 26.4811639,58.4482731 46.0445165,69.7511444 C46.7938716,70.1858979 47.6398924,70.4032361 48.4859133,70.3790575 C49.356166,70.4032361 50.2021868,70.1858594 50.9514765,69.7511444 C50.9514765,69.7511444 60.7331528,64.0997088 80.2965054,52.7968374 C81.2150254,52.2413448 81.5050878,51.0579776 80.9491294,50.1401904 C80.7799645,49.8745334 80.5382349,49.6571567 80.272339,49.4639586 C80.272339,49.4639586 70.4906845,43.8125229 50.9273755,32.5096516 L50.9273755,32.5096516 Z" id="形状_19_拷贝_14" fill="url(#linearGradient-13)" opacity="0.200000003"></path>
                                        <path d="M80.4217513,46.0084967 L51.0767638,62.9627743 C50.3273768,63.3974928 49.4813753,63.6148521 48.6111872,63.5907505 C47.7651857,63.6148521 46.9191185,63.3974928 46.1697972,62.9627743 C46.1697972,62.9627743 36.3881347,57.3113484 16.8248097,46.0084967 C16.4138364,45.7669723 16.0996092,45.3805205 15.9545559,44.9216368 C15.9545559,44.9216368 15.8901024,44.9216368 15.7611954,44.9216368 L15.7611954,0 L81.4853656,0 L81.4853656,44.9216368 L81.2920051,44.9216368 C81.1469518,45.3805205 80.8327246,45.7669723 80.4217513,46.0084967 C80.4217513,46.0084967 80.4217513,46.0084967 80.4217513,46.0084967 Z" id="矩形_2" fill="url(#linearGradient-14)" opacity="0.600000024"></path>
                                        <polygon id="矩形_1" fill="#43FF85" points="44.5700286 64.5827469 44.5700286 66.5148633 40.8716729 64.4136875 40.8716729 62.4815711"></polygon>
                                        <polygon id="矩形_1_拷贝_2" fill="#43FF85" points="39.2521485 61.6845751 39.2521485 63.6166914 35.5537927 61.5155156 35.5537927 59.5833993"></polygon>
                                        <polygon id="矩形_1_拷贝_3" fill="#43FF85" points="39.2521485 67.4809188 39.2521485 69.4130351 35.5537927 67.3118593 35.5537927 65.379743"></polygon>
                                        <polygon id="形状_25" fill="url(#linearGradient-15)" opacity="0.300000012" points="30.3326072 70.3307888 34.2001526 72.5044155 39.2763147 69.6062415 35.650491 67.4326147"></polygon>
                                        <polygon id="形状_25_拷贝" fill="url(#linearGradient-15)" opacity="0.300000012" points="35.6504874 73.4704749 39.5180327 75.6441017 44.5941949 72.7459276 40.9683711 70.5723009"></polygon>
                                        <polygon id="形状_25_拷贝_2" fill="url(#linearGradient-15)" opacity="0.300000012" points="30.3326072 64.534445 34.2001526 66.7080718 39.2763147 63.8098977 35.650491 61.636271"></polygon>
                                        <polygon id="形状_25_拷贝_2-2" fill="url(#linearGradient-15)" opacity="0.300000012" points="35.6504874 67.6741312 39.5180327 69.8477579 44.5941949 66.9495839 40.9683711 64.7759572"></polygon>
                                        <polygon id="矩形_1_拷贝" fill="#43FF85" points="44.5700286 70.620605 44.5700286 72.5527213 40.8716729 70.4515455 40.8716729 68.5194292"></polygon>
                                        <path d="M7.05920972,60.3785805 L45.2754326,82.4529996 C46.2422851,83.0084801 47.330046,83.298287 48.4661702,83.2741536 C49.5780299,83.298287 50.6899724,83.0084801 51.6569077,82.4529996 C51.6569077,82.4529996 64.3956487,75.0948599 89.8731306,60.3785805" id="形状_19_拷贝_4" stroke="url(#linearGradient-16)" stroke-width="0.5"></path>
                                    </g>
                                    <g id="光伏" transform="translate(51.310973, 26.500000) scale(-1, 1) translate(-51.310973, -26.500000) translate(26.341107, 1.000000)">
                                        <g id="光伏1备份" transform="translate(0.138424, 0.000000)">
                                            <path d="M32.9362077,48.4435161 C29.8053429,50.1659425 24.728676,50.1659425 21.591049,48.4435161 C18.4652558,46.7194785 18.4652558,43.9239596 21.591049,42.2031445 C24.728676,40.4807181 29.8053429,40.4807181 32.9362077,42.2031445 C36.0687631,43.9239596 36.0687631,46.7194785 32.9362077,48.4435161" id="投影" fill="#005F7C" opacity="0.670000017" filter="url(#filter-17)"></path>
                                            <path d="M33.8212328,43.7849263 L21.2315386,43.7849263 L21.2315386,44.5216779 C21.2315386,45.445583 21.8473533,46.36817 23.0723467,47.0732901 C25.5369326,48.4835303 29.5224747,48.4835303 31.9790975,47.0732901 C33.2093997,46.36817 33.8212328,45.445583 33.8212328,44.5216779 L33.8212328,43.7849263 Z" id="Fill-415" fill="url(#linearGradient-18)"></path>
                                            <path d="M31.9794957,46.3385154 C29.5215457,47.7474376 25.5360036,47.7474376 23.0727449,46.3385154 C20.6187764,44.9282752 20.6187764,42.6415774 23.0727449,41.2339732 C25.5360036,39.8250509 29.5215457,39.8250509 31.9794957,41.2339732 C34.4387728,42.6415774 34.4387728,44.9282752 31.9794957,46.3385154" id="Fill-3备份" stroke="url(#linearGradient-20)" stroke-width="0.2" fill="url(#linearGradient-19)"></path>
                                            <path d="M31.9172506,42.1722442 L23.1365825,42.1722442 L23.1365825,43.4269625 C23.1365825,44.0727735 23.5665911,44.7172664 24.4239538,45.2115095 C26.1360248,46.1907697 28.9178084,46.1907697 30.6312066,45.2115095 C31.4898964,44.7172664 31.9172506,44.0727735 31.9172506,43.4269625 L31.9172506,42.1722442 Z" id="Fill-5" fill="url(#linearGradient-21)"></path>
                                            <path d="M30.6316047,43.950992 C28.9182065,44.9342062 26.1350957,44.9342062 24.4230247,43.950992 C22.7096265,42.9677778 22.7096265,41.3743382 24.4230247,40.389806 C26.1350957,39.4065918 28.9182065,39.4065918 30.6316047,40.389806 C32.3450029,41.3743382 32.3450029,42.9664598 30.6316047,43.950992" id="Fill-7" stroke="url(#linearGradient-23)" stroke-width="0.2" fill="url(#linearGradient-22)"></path>
                                            <path d="M30.1235576,37.8578318 L24.9316027,37.8578318 L24.9316027,41.9593902 C24.9316027,42.3376508 25.1850954,42.7185475 25.6907536,43.0098214 C26.7047243,43.5910512 28.3491088,43.5910512 29.3644067,43.0098214 C29.8727193,42.7185475 30.1235576,42.3376508 30.1235576,41.9593902 L30.1235576,37.8578318 Z" id="Fill-9" fill="url(#linearGradient-24)"></path>
                                            <path d="M29.3640086,38.9120852 C28.3487107,39.493315 26.7043262,39.493315 25.6903554,38.9120852 C24.6777119,38.3295374 24.6777119,37.3871806 25.6903554,36.8046328 C26.7043262,36.2247209 28.3487107,36.2247209 29.3640086,36.8046328 C30.3779793,37.3871806 30.3779793,38.3295374 29.3640086,38.9120852" id="Fill-11" stroke="url(#linearGradient-26)" stroke-width="0.2" fill="url(#linearGradient-25)"></path>
                                            <path d="M28.6421517,26.5778873 L26.4151322,26.5778873 L26.4151322,37.7504163 C26.4151322,37.912528 26.5226343,38.0772757 26.7402929,38.201166 C27.1729558,38.4515825 27.8803464,38.4515825 28.3143365,38.201166 C28.5319952,38.0772757 28.6421517,37.912528 28.6421517,37.7504163 L28.6421517,26.5778873 Z" id="Fill-13" fill="url(#linearGradient-27)"></path>
                                            <path d="M28.3142038,27.0295596 C27.8802137,27.2786581 27.1741503,27.2786581 26.7401602,27.0295596 C26.3035157,26.7804611 26.3035157,26.3771587 26.7401602,26.1254243 C27.1741503,25.8776437 27.8802137,25.8776437 28.3142038,26.1254243 C28.7508483,26.3771587 28.7508483,26.7804611 28.3142038,27.0295596" id="Fill-15" fill="#828282"></path>
                                            <polygon id="Fill-17" fill="url(#linearGradient-28)" points="13.5130181 41.7628791 10.2707007 37.0471414 3.16096087 24.6989729 0.765388644 19.8382572 35.3691308 0 48.1167603 21.91935"></polygon>
                                            <polygon id="Fill-19" fill="#333333" points="13.9044055 40.1901318 2.32868201 20.2846575 34.977478 1.57063853 46.5505471 21.4761128"></polygon>
                                            <path d="M17.5018781,25.4697285 C18.4322361,24.937264 19.6333402,25.2562155 20.172178,26.1801205 L20.172178,26.1801205 L23.7370019,32.3113703 C24.2745125,33.2365933 23.9520061,34.4293666 23.0216482,34.9618311 L23.0216482,34.9618311 L15.597365,39.2202292 C14.6656799,39.7526938 13.4645758,39.4337422 12.9270651,38.5098372 L12.9270651,38.5098372 L9.36224132,32.3785874 C8.82340347,31.4546824 9.14590987,30.2619091 10.0789222,29.7281266 L10.0789222,29.7281266 Z M31.4717452,19.5153633 L31.5570521,19.6493905 L35.1245303,25.7832763 C35.6351654,26.660986 35.3708329,27.7825389 34.5443195,28.3490216 L34.4091766,28.433737 L26.6079724,32.9069662 C25.7228715,33.4140595 24.59462,33.150371 24.0242973,32.3306013 L23.9389997,32.1965742 L20.3728487,26.0640063 C19.8609527,25.1862966 20.12642,24.0659332 20.95305,23.4984394 L21.0882024,23.4135456 L28.8894066,18.9389985 C29.7719858,18.4319051 30.901309,18.6955936 31.4717452,19.5153633 Z M14.0339229,15.6387938 L14.1194098,15.7728115 L18.0996431,22.6170894 C18.6090174,23.4973033 18.3470174,24.6189813 17.5207405,25.1843404 L17.3856166,25.2688681 L9.96133346,29.5259483 C9.07623256,30.0355458 7.94917887,29.770793 7.37783805,28.9509107 L7.29236075,28.8168742 L3.30814589,21.9646885 C2.79624993,21.0869788 3.06171716,19.9678049 3.88720928,19.40043 L4.0221724,19.3155458 L11.4491099,15.0624195 C12.3342108,14.5565782 13.4624623,14.8191399 14.0339229,15.6387938 Z M41.918042,13.5226429 L42.0033396,13.6566605 L45.572145,19.7945002 C46.0827801,20.6709579 45.8184476,21.7936376 44.9919342,22.3602362 L44.8567913,22.444961 L37.9952354,26.3778177 C37.0635502,26.9129182 36.3030722,27.3491701 36.3030722,27.3491701 C36.3030722,27.3491701 35.9127599,26.677866 35.4209276,25.8286234 L35.3275899,25.6674257 L31.7574573,19.5335399 C31.2493438,18.6558301 31.5138024,17.5342773 32.3380463,16.9666645 L32.472811,16.8817612 L39.3343669,12.9475865 C40.2194678,12.4404931 41.3477193,12.7029922 41.918042,13.5226429 Z M25.4203331,9.10595496 L25.5060092,9.23997275 L29.4875697,16.0882045 C29.9982048,16.9646622 29.7338723,18.0861524 28.9073589,18.6548921 L28.772216,18.7399833 L20.972339,23.2132124 C20.0884989,23.7203058 18.9591127,23.4578067 18.3863976,22.638156 L18.3007119,22.5041384 L14.3178242,15.6532706 C13.8084499,14.7755609 14.0728454,13.654008 14.8982241,13.0863953 L15.0331779,13.0014919 L22.8357093,8.52958074 C23.7195494,8.02373944 24.8477378,8.28630112 25.4203331,9.10595496 Z M35.8704131,3.11685947 L35.9562783,3.25106491 L39.9338572,10.0953427 C40.4444923,10.9730525 40.1789621,12.0934158 39.3534668,12.6631697 L39.2185035,12.7484394 L32.3569476,16.6812962 C31.4743683,17.1883896 30.3450452,16.9258905 29.774609,16.1062398 L29.6893021,15.9722221 L25.7064144,9.12530836 C25.1970401,8.2475986 25.4614356,7.12604578 26.2868143,6.55956301 L26.4217681,6.47484761 L33.2859784,2.54199088 C34.1685576,2.03364542 35.296683,2.29608189 35.8704131,3.11685947 Z" id="形状结合" fill="url(#linearGradient-29)"></path>
                                            <g id="编组" transform="translate(0.000000, 19.838389)">
                                                <mask id="mask-31" fill="white">
                                                    <use xlink:href="#path-30"></use>
                                                </mask>
                                                <g id="Clip-34"></g>
                                                <polygon id="Fill-33" fill="url(#linearGradient-32)" mask="url(#mask-31)" points="12.7456387 22.3608738 -0.000663593414 0.436251869 0.766450393 0 13.5127527 21.9246219"></polygon>
                                            </g>
                                        </g>
                                    </g>
                                </g>
                            </g>
                        </g>
                    </g>
                </g>
            </g>
        </g>
    </g>
</svg>