<?xml version="1.0" encoding="UTF-8"?>
<svg width="48px" height="48px" viewBox="0 0 48 48" version="1.1" xmlns="http://www.w3.org/2000/svg" xmlns:xlink="http://www.w3.org/1999/xlink">
    <title>icon_充电桩_离线中备份</title>
    <g id="光储充及工商储管理系统V1.5" stroke="none" stroke-width="1" fill="none" fill-rule="evenodd">
        <g id="3_1_11.站点监视_站点概览_充电站" transform="translate(-1275.000000, -456.000000)">
            <g id="main" transform="translate(212.000000, 102.000000)">
                <g id="2" transform="translate(20.000000, 182.000000)">
                    <g id="编组-3" transform="translate(841.000000, 60.000000)">
                        <g id="4" transform="translate(186.000000, 96.000000)">
                            <g id="icon_充电桩_离线中备份" transform="translate(16.000000, 16.000000)">
                                <rect id="bg" fill-opacity="0.124508304" fill="#AEAEB8" x="0" y="0" width="48" height="48" rx="8"></rect>
                                <g id="充电桩" transform="translate(12.000000, 12.000000)" fill="#B5B5BF" fill-rule="nonzero">
                                    <path d="M23.247603,2.99399412 L20.595454,0.360360491 C20.1140966,-0.107257887 19.3463693,-0.101737754 18.8717885,0.372754035 C18.3972077,0.847245823 18.3916866,1.61482917 18.8593927,2.09609621 L20.5789343,3.81981994 L19.3099276,5.14414424 C18.8954535,5.57172589 18.8954535,6.25109713 19.3099276,6.67867878 C19.5042493,6.88804891 19.7781683,7.0053428 20.0638227,7.00150161 L21.4995274,6.99849861 L21.4995274,18.2492493 C21.4995274,18.6638775 21.1633418,19 20.7486358,19 C20.3339299,19 19.9977443,18.6638775 19.9977443,18.2492493 L19.9977443,11.2492493 C19.9975373,9.4554105 18.5435624,8.00103615 16.7493874,8 L15.9984958,8 L15.9984958,2 C15.9986951,1.46950609 15.7880059,0.960682488 15.4128195,0.585566534 C15.0376332,0.21045058 14.5287142,0 13.9981206,0 L3.49915471,0 C2.96856118,0 2.45964214,0.210450589 2.08445582,0.585566543 C1.70926951,0.960682496 1.4985803,1.46950609 1.49877958,2 L1.49877958,21.5015015 L1.24948357,21.5015015 C0.559412851,21.5015015 0,22.0608094 0,22.7507508 C0,23.4406921 0.559412851,24 1.24948357,24 L16.2522971,24 C16.9423678,24 17.5017807,23.4406921 17.5017807,22.7507508 C17.5017807,22.0608094 16.9423678,21.5015015 16.2522971,21.5015015 L15.9984958,21.5015015 L15.9984958,10.5030031 L16.7493874,10.5030031 C17.1640933,10.5030031 17.5002789,10.8391256 17.5002789,11.2537538 L17.5002789,18.2507508 C17.5001803,19.4116615 18.1195783,20.4844293 19.1251286,21.0649131 C20.1306789,21.6453969 21.3695964,21.6453969 22.3751467,21.0649131 C23.3806969,20.4844293 24,19.4116615 24,18.2507508 L24,4.78978989 C24.0005135,4.11447298 23.7293729,3.46732066 23.247603,2.99399412 Z M11.7341826,15.8228229 L7.9977461,21.1156156 C7.96221999,21.1528757 7.91294645,21.1739115 7.86145928,21.1737988 C7.8402312,21.175333 7.8192728,21.1683032 7.80326519,21.1542793 C7.71240731,21.128003 7.68011898,21.0765766 7.70602474,20.9988739 L8.30936612,17.436937 L5.68124561,17.436937 C5.62409603,17.4413375 5.57005917,17.41038 5.54495881,17.3588589 C5.50641305,17.3075576 5.51292077,17.2492493 5.56448197,17.183934 L9.61216298,11.8911412 C9.66434994,11.8134385 9.72254405,11.8006757 9.78749617,11.8536037 C9.8524483,11.8667418 9.88473663,11.918919 9.88473663,12.0093844 L9.28139525,15.5701952 L11.5971448,15.5701952 C11.6541831,15.5658348 11.7081398,15.5965978 11.7334317,15.647898 C11.7468608,15.7054049 11.7471175,15.7652028 11.7341826,15.8228229 L11.7341826,15.8228229 Z M13.498783,8.9024025 C13.4996789,9.19417698 13.384149,9.47426094 13.1777936,9.68057765 C12.9714382,9.88689435 12.6913017,10.0024026 12.3994725,10.0015068 L5.09705197,10.0015068 C4.80496149,10.0024049 4.52459553,9.88669093 4.31819641,9.68004861 C4.1117973,9.47340628 3.99644448,9.19293519 3.99773583,8.900901 L3.99773583,3.60060073 C3.99684556,3.30882625 4.11237547,3.02874229 4.31873087,2.82242559 C4.52508626,2.61610889 4.80522276,2.50060063 5.09705197,2.5014964 L12.3987216,2.5014964 C12.6905508,2.50060063 12.9706873,2.61610888 13.1770427,2.82242558 C13.3833981,3.02874228 13.498928,3.30882624 13.4980269,3.60060073 L13.498783,8.9024025 Z" id="形状"></path>
                                </g>
                            </g>
                        </g>
                    </g>
                </g>
            </g>
        </g>
    </g>
</svg>