<?xml version="1.0" encoding="UTF-8"?>
<svg width="42px" height="47px" viewBox="0 0 42 47" version="1.1" xmlns="http://www.w3.org/2000/svg" xmlns:xlink="http://www.w3.org/1999/xlink">
    <title>img_充电终端1_def</title>
    <defs>
        <path d="M15.1061055,29.3350434 C14.2187418,29.5151793 13.1221522,29.8236311 12.5141666,30.6219044 C12.3061715,30.8970435 12.1277141,31.3153041 12.2507881,31.6657054 C12.3258633,31.8803879 12.5104743,32.0679266 12.682778,32.2246201 C14.3492002,33.7570087 16.894371,34.2641035 19.0186286,33.4843373 C19.2807763,33.3856328 19.6056917,33.2449787 19.7816875,33.0043863 C19.9699908,32.7477544 19.9859904,32.3763784 19.9675293,32.1111098 C19.9035308,31.232639 19.4321573,30.3220893 18.6383299,29.5460245 C18.4364885,29.3498491 18.2223397,29.1672456 17.9995757,28.9945126 C17.0272909,29.0290592 16.0623906,29.1425695 15.1061055,29.3350434 Z M12.2077122,32.744053 C11.9726409,32.5293705 11.7154161,32.2604005 11.5886499,31.898895 C11.4052696,31.3769945 11.5431125,30.7403499 11.9554105,30.1962409 C12.7049313,29.2104289 13.9590556,28.8501572 14.9682626,28.646579 C15.6624,28.5059249 16.3614605,28.4047527 17.0642131,28.3467638 C16.7417592,28.1419518 16.4143823,27.948244 16.0906976,27.7582377 C14.7294989,26.9574968 13.7239842,26.0679217 12.829236,24.8760639 C10.6655947,21.9852534 10.0539169,18.2011664 9.7400781,14.8797572 C9.68961775,14.3418172 9.64408036,13.8001758 9.59854297,13.2585344 C9.35608715,10.3911663 9.10624688,7.42509357 8.04411807,4.7551346 C7.54074533,3.49048213 6.62384386,2.03582333 5.15680152,2.29615667 C3.55560849,2.57869854 1.73411297,3.33749002 0.404913532,4.27518356 L0,3.69899556 C1.43135088,2.690975 3.31315267,1.90750737 5.03618898,1.60275697 C6.54015353,1.3362546 7.84843038,2.36278226 8.69641039,4.49480126 C9.79669215,7.26346482 10.0514554,10.2801236 10.2976034,13.1993117 C10.3431408,13.7397193 10.3886782,14.2776593 10.4391385,14.8155992 C10.7431314,18.0370701 11.3314252,21.7039453 13.3904536,24.452868 C14.2384336,25.5818016 15.1516428,26.3899454 16.4463816,27.1512045 C17.0432906,27.5028396 17.652507,27.8618775 18.2260319,28.2838396 C19.2093933,28.2591635 20.1976777,28.3171524 21.1835007,28.4528712 C22.4253175,28.620669 23.688057,28.6922298 24.8658754,28.7440497 C26.1581526,28.8032725 28.0411852,28.8008049 29.4220757,28.146887 C29.8528348,27.9433088 30.1420587,27.7150545 30.3045164,27.4473183 C30.453436,27.2030244 30.514973,26.9007416 30.57651,26.5577432 C30.7931203,25.3288712 30.8694262,24.3257858 30.5358956,23.4140022 C30.353746,22.9130765 30.0435995,22.4664382 29.7937592,22.1320765 C28.8103978,20.8119027 27.5415046,19.6866704 26.3144566,18.5984524 C25.7027787,18.0580448 25.0701783,17.4966625 24.4745,16.9143054 L24.1581998,16.609555 C23.4628315,15.9420653 22.6763885,15.1857414 22.2727058,14.2862959 C21.8234856,13.2832106 21.6684123,11.9951158 21.8124089,10.4614933 C21.9342522,9.1561252 22.2702443,7.88160227 22.5963904,6.64902879 C23.1145321,4.68974281 24.028972,2.93403504 25.1723297,1.70516298 L25.6855484,2.18388021 C24.635727,3.31281388 23.7569785,5.00683129 23.275759,6.82916465 C22.9569973,8.03459437 22.6283897,9.27827212 22.5114694,10.5256513 C22.3785494,11.9383606 22.5139308,13.1067761 22.9139214,13.997585 C23.2597594,14.772416 23.9957421,15.4781538 24.6443422,16.1012264 L24.9655654,16.4109121 C25.5477055,16.980931 26.1741522,17.5361443 26.7796764,18.0716167 C28.03257,19.183277 29.3297702,20.3319516 30.3562075,21.7113482 C30.6343548,22.0827242 30.9801928,22.5848837 31.1955723,23.1709422 C31.6054088,24.292473 31.4724889,25.5201113 31.2669553,26.6811239 C31.1968031,27.0796437 31.116805,27.4658254 30.9038869,27.813759 C30.6675848,28.2011745 30.2811324,28.5194968 29.7211456,28.7835316 C28.2159503,29.4954384 26.3181489,29.5151793 24.8351069,29.4473199 C23.6400581,29.3942662 22.3588576,29.3227054 21.0887337,29.1487385 C20.4167495,29.0574368 19.7435346,29.0043831 19.0715504,28.9871098 C19.0900115,29.0056169 19.1097034,29.024124 19.1281645,29.0426311 C20.045066,29.939609 20.5915146,31.0105537 20.6678205,32.0605237 C20.7084349,32.6194384 20.6001298,33.0759471 20.347828,33.4214132 C20.0598348,33.8125301 19.6155376,34.0136407 19.2598537,34.1444242 C18.5201788,34.4170956 17.7337358,34.5478792 16.9460621,34.5478792 C15.2181028,34.5478792 13.4827591,33.9161699 12.2077122,32.744053 Z" id="path-1"></path>
    </defs>
    <g id="能源云系统V1.0" stroke="none" stroke-width="1" fill="none" fill-rule="evenodd">
        <g id="1.站控系统（站点）首页" transform="translate(-699.000000, -615.000000)">
            <g id="content" transform="translate(440.000000, 336.000000)">
                <g id="左边车" transform="translate(259.497908, 273.534573) scale(-1, 1) translate(-259.497908, -273.534573) translate(43.996062, 147.386359)">
                    <g id="车桩3" transform="translate(174.282884, 98.962850)">
                        <g id="img_充电终端1_def" transform="translate(0.000000, 32.728890)">
                            <g id="充电枪2" transform="translate(3.439624, 20.177591) scale(-1, 1) translate(-3.439624, -20.177591) translate(0.245795, 9.890185)">
                                <path d="M5.37884037,1.60971445 C6.21524826,3.24296541 6.13004511,6.52261703 5.12323092,11.4486693 C3.61300964,18.8377477 6.08589853,17.3509583 6.37653881,18.7355845 C6.66717908,20.1202107 1.17336026,21.4194721 0,19.8759951" id="路径-2" stroke="#6C727C" stroke-width="0.6"></path>
                                <g id="充电线备份" transform="translate(4.032681, 1.054717) scale(-1, 1) translate(-4.032681, -1.054717) translate(2.191979, 0.000000)" fill="#FFEF75">
                                    <path d="M3.55407266,0.749949374 C3.61437893,0.807938317 3.6623778,0.870862489 3.67714669,0.93872189 C3.71160741,1.0929478 3.52822712,1.30516265 3.43838308,1.41867293 C3.21192688,1.70368241 2.8390126,2.00226377 2.45132943,1.87271401 C2.30117912,1.82212791 2.17072066,1.72959236 2.03780071,1.64445966 C1.74488454,1.45568714 1.47658317,1.38782774 1.17505182,1.61114686 C1.01013263,1.73329378 0.706139796,2.09726693 0.706139796,2.09726693 C0.493221738,2.1589573 0.233535552,1.9726524 0.0944619067,1.83940121 C-0.038458037,1.71355287 -0.016304713,1.57166503 0.0698471023,1.42237435 C0.0698471023,1.42237435 0.325841068,1.1274944 0.452607311,0.980671337 C0.659371667,0.741312723 0.862443804,0.505655531 1.11966851,0.321818245 C1.17874404,0.279868797 1.24643475,0.242854578 1.31781768,0.246556 C1.34981693,0.249023615 1.3793547,0.258894073 1.4101232,0.266296917 C1.56273499,0.300843521 1.67473235,0.246556 1.81749821,0.209541781 C1.95041816,0.174995177 2.01687813,0.119473849 2.13749067,0.050380641 C2.34548577,-0.0692986661 2.55840383,0.0479130264 2.74055338,0.156488068 C2.93131811,0.269998339 3.102391,0.406950948 3.27961759,0.540202135 C3.35592349,0.59695727 3.46792085,0.667284286 3.55407266,0.749949374" id="Fill-288"></path>
                                </g>
                            </g>
                            <g id="充电枪1" transform="translate(10.249461, 11.486759)">
                                <g id="Fill-178">
                                    <use fill="#63AC2E" xlink:href="#path-1"></use>
                                    <use fill="#6C727C" xlink:href="#path-1"></use>
                                </g>
                                <path d="M28.6809239,0.749949374 C28.7412302,0.807938317 28.7892291,0.870862489 28.803998,0.93872189 C28.8384587,1.0929478 28.6550784,1.30516265 28.5652343,1.41867293 C28.3387781,1.70368241 27.9658639,2.00226377 27.5781807,1.87271401 C27.4280304,1.82212791 27.2975719,1.72959236 27.164652,1.64445966 C26.8717358,1.45568714 26.6034344,1.38782774 26.3019031,1.61114686 C26.1369839,1.73329378 25.8329911,2.09726693 25.8329911,2.09726693 C25.620073,2.1589573 25.3603868,1.9726524 25.2213132,1.83940121 C25.0883932,1.71355287 25.1105466,1.57166503 25.1966984,1.42237435 C25.1966984,1.42237435 25.4526923,1.1274944 25.5794586,0.980671337 C25.7862229,0.741312723 25.9892951,0.505655531 26.2465198,0.321818245 C26.3055953,0.279868797 26.373286,0.242854578 26.4446689,0.246556 C26.4766682,0.249023615 26.506206,0.258894073 26.5369745,0.266296917 C26.6895863,0.300843521 26.8015836,0.246556 26.9443495,0.209541781 C27.0772694,0.174995177 27.1437294,0.119473849 27.2643419,0.050380641 C27.472337,-0.0692986661 27.6852551,0.0479130264 27.8674046,0.156488068 C28.0581694,0.269998339 28.2292423,0.406950948 28.4064689,0.540202135 C28.4827748,0.59695727 28.5947721,0.667284286 28.6809239,0.749949374" id="Fill-288" fill="#FFEF75"></path>
                            </g>
                            <polygon id="投影" fill="#232327" opacity="0.400000006" points="19.3780035 35.901267 5.59423244 28.4128435 6.69660378e-13 31.5947378 13.2820053 39.4770743"></polygon>
                            <g id="充电桩" transform="translate(9.508187, 19.120894) scale(-1, 1) translate(-9.508187, -19.120894) translate(1.510221, 0.000000)">
                                <polygon id="Fill-180" fill="#CCD2D6" points="15.9958076 31.456218 15.9958076 30.1274075 4.39854247 36.8627615 4.39854247 38.2409243"></polygon>
                                <polygon id="Fill-182" fill="#8E9C9E" points="4.39915784 36.8623914 0.000492296089 34.3404893 0.000492296089 35.7013787 4.39915784 38.2417879"></polygon>
                                <polygon id="Fill-184" fill="#EBEBEB" points="15.9959306 30.126914 4.39866554 36.862268 0 34.3403659 9.58131261 26.4020498"></polygon>
                                <polygon id="Fill-186" fill="#A7B3AF" points="4.26968397 35.3485098 14.6645159 29.2596709 11.0830618 27.2004465 0.689460671 33.2892855 4.22414658 35.3188985"></polygon>
                                <polygon id="Fill-188" fill="#A7B3AF" points="4.26968397 14.2959327 14.6645159 8.20709371 11.0830618 6.14786934 0.689460671 12.2367083 4.22414658 14.2650875"></polygon>
                                <polygon id="Fill-190" fill="#63AC2E" points="13.7273072 28.4105647 13.7273072 29.5777464 4.72690396 34.8498049 4.72690396 33.6431414"></polygon>
                                <polygon id="Fill-192" fill="#447527" points="4.72641167 33.6435116 4.72641167 34.8501751 4.68702798 34.8242651 1.62617705 33.0660897 1.62617705 31.8729981 4.6082606 33.5781198"></polygon>
                                <polygon id="Fill-194" fill="#CEE3E2" points="4.26968397 35.3485098 14.6645159 29.2596709 14.6645159 30.0480737 4.26968397 36.1356789 4.22414658 35.3188985"></polygon>
                                <path d="M9.60285056,22.2173456 L9.60285056,23.7164215 L9.0440945,24.0347438 L7.97088903,24.6553488 L7.97088903,17.1439301 L9.63361907,16.1741575 L9.60285056,22.2173456 Z M4.27005319,14.2814971 L2.91008525,13.4930943 L4.13344103,33.8792921 L4.27005319,33.9545544 L14.6636543,27.9126001 L14.6636543,8.20746385 L4.27005319,14.2814971 Z" id="Fill-196" fill="#CEE3E2"></path>
                                <polygon id="Fill-198" fill="#869691" points="4.22439273 35.3182816 4.26993012 35.3478929 4.26993012 36.1362958 0.688476079 34.0758376 0.688476079 33.2886686"></polygon>
                                <polygon id="Fill-200" fill="#869691" points="2.91008525 13.4934644 4.27005319 14.2806335 4.27005319 33.9549245 4.13344103 33.8796623 0.688599153 31.9105058 0.688599153 12.2214091"></polygon>
                                <g id="英文字母" transform="translate(1.474149, 17.178353)" fill="#447527">
                                    <path d="M0.324208803,10.3367141 C0.324208803,10.4810695 0.379592113,10.6241912 0.487897253,10.7673128 C0.597433132,10.9141359 0.747583439,11.0387504 0.940809653,11.1460917 C1.34203096,11.3718784 1.54264162,11.3212923 1.54018014,10.9955672 C1.54018014,10.8524455 1.50941163,10.6858816 1.4503361,10.4958752 L1.73709858,10.657504 C1.79371263,10.8228342 1.82325039,11.0066715 1.82325039,11.2114835 C1.82571187,11.5162339 1.74940598,11.707474 1.59433271,11.7827362 C1.44049018,11.8579985 1.22264916,11.8172828 0.940809653,11.6593555 C0.660200883,11.502662 0.439898384,11.2941485 0.281132896,11.0387504 C0.123598148,10.7808847 0.0436000333,10.5032781 0.0411385528,10.2034629 C0.0411385528,10.1059921 0.0497537344,10.0159242 0.0669840974,9.93572672 C0.0829837203,9.85429544 0.113752226,9.77409797 0.156828133,9.69390049 L0.4189758,10.0097552 C0.394360996,10.0504708 0.373438412,10.0961217 0.352515828,10.1479416 C0.332823985,10.1997615 0.324208803,10.2626857 0.324208803,10.3367141" id="Fill-202"></path>
                                    <polygon id="Fill-204" points="1.78694355 8.63973555 1.78940503 9.14312892 1.02880758 8.7162316 1.0324998 9.38001992 1.79309726 9.80691724 1.79555874 10.3103106 0.0626765067 9.33683666 0.058984286 8.83344329 0.748198809 9.21962497 0.745737329 8.55707046 0.0552920653 8.16965497 0.0528305849 7.66626159"></polygon>
                                    <path d="M1.05563772,6.72684072 L0.653185664,6.64540944 C0.6298016,6.64047421 0.568264589,6.62566853 0.469805371,6.59852477 C0.371346154,6.57384862 0.304886182,6.55534151 0.272886936,6.54300344 C0.340577648,6.59729096 0.415652802,6.66021513 0.496881656,6.73054215 C0.579341251,6.80086916 0.766413764,6.96990076 1.0580992,7.23763694 L1.05563772,6.72684072 Z M1.77808222,6.88353425 L1.34116945,6.79346632 L1.34486167,7.49797028 L1.78300519,7.89772384 L1.78546667,8.40235102 L0.0415077749,6.75398448 L0.0378155542,6.07292286 L1.77562074,6.37890707 L1.77808222,6.88353425 Z" id="Fill-206"></path>
                                    <path d="M0.818474075,5.10278019 L0.818474075,4.97446423 C0.817243335,4.85478492 0.796320752,4.75854795 0.753244844,4.6820519 C0.708938196,4.60555585 0.644939705,4.54509929 0.560018629,4.49698081 C0.470174593,4.44639471 0.407406842,4.43899187 0.370484636,4.47230466 C0.333562429,4.50685127 0.315101326,4.5796459 0.315101326,4.69562378 L0.316332066,4.82023832 L0.818474075,5.10278019 Z M1.09662137,5.25823991 L1.77106701,5.63701875 L1.77352849,6.14041212 L0.0406462567,5.16693817 L0.0369540361,4.50931888 C0.0357232959,4.22924463 0.0763377231,4.04910876 0.160028058,3.96397606 C0.244949133,3.88007716 0.372946116,3.88377859 0.546480487,3.98248317 C0.765552246,4.1058639 0.919394773,4.30697449 1.00800807,4.58581493 L1.7649133,4.49451319 L1.76860552,5.03121937 L1.09539062,5.07933785 L1.09662137,5.25823991 Z" id="Fill-208"></path>
                                    <path d="M0.797551492,2.8900702 L0.792628531,2.06465312 L1.68245371,2.56434507 C1.74768294,2.83331506 1.78091293,3.10105124 1.78214367,3.365086 C1.78460515,3.67847305 1.70952999,3.87711603 1.55691821,3.96101492 C1.40430642,4.04491382 1.18400392,4.00419818 0.894779969,3.84256942 C0.616632679,3.6871097 0.398791661,3.46749201 0.240026172,3.18371633 C0.081260684,2.90117446 0.00249330993,2.58531979 3.18294884e-05,2.23738614 C-0.00119891073,2.02146986 0.0332618154,1.83639877 0.103414008,1.68093905 L0.368023155,1.98692326 C0.311409105,2.10783637 0.28310208,2.23615233 0.28433282,2.36816971 C0.28556356,2.55940984 0.34094687,2.74201332 0.45048275,2.91351253 C0.56124937,3.08747936 0.710168936,3.22689959 0.89970293,3.33300701 C1.09292914,3.44158205 1.24307945,3.48599912 1.34646163,3.46255678 C1.44861307,3.44034825 1.50030416,3.35151412 1.49907342,3.19728821 C1.49907342,3.11709074 1.49168898,3.03195803 1.47815083,2.93942249 L1.08062174,2.71610337 L1.08185248,3.04923134 L0.797551492,2.8900702 Z" id="Fill-210"></path>
                                    <polygon id="Fill-212" points="1.74657528 0.973473952 1.75272898 2.19247555 0.019846747 1.2190016 0.0124623057 0 0.291840336 0.156693526 0.295532556 0.871067947 0.70783053 1.10425752 0.704138309 0.440469202 0.984747079 0.597162728 0.9884393 1.26218486 1.46842799 1.53115485 1.46473576 0.815546618"></polygon>
                                </g>
                                <polygon id="Fill-214" fill="#63AC2E" points="13.7273072 7.34293508 13.7273072 8.51011678 4.72690396 13.7821753 4.72690396 12.5755118"></polygon>
                                <polygon id="Fill-216" fill="#447527" points="4.72641167 12.5760053 4.72641167 13.7826689 4.68702798 13.7567589 1.62617705 11.9985835 1.62617705 10.8054919 4.6082606 12.5106135"></polygon>
                                <path d="M14.6640236,5.39055843 L14.6640236,6.84398342 L4.26919167,12.8871715 L2.81937969,12.0543516 L2.71353604,10.2677986 L4.31472906,8.55650793 L11.0838003,1.27087589 C11.0838003,0.831640494 11.3102565,0.467667343 11.6277874,0.240646802 L11.838244,0.119733688 C12.1865435,-0.0468302964 12.6086874,-0.0468302964 12.9865246,0.165384557 C14.5126425,1.05866104 14.4375674,1.61880954 14.543411,2.87605917 C14.6037173,3.72491859 14.6640236,4.51208764 14.6640236,5.39055843" id="Fill-218" fill="#CEE3E2"></path>
                                <path d="M14.5247038,2.70159882 L8.68484143,6.06742511 L2.9951294,9.41967951 L1.4468582,6.18833822 L11.6213876,0.240153279 L11.8343057,0.118006357 C12.1862974,-0.0448562047 12.604749,-0.0485576266 12.98874,0.172293878 C14.1837887,0.860758346 14.5247038,1.44064777 14.5247038,2.70159882" id="Fill-220" fill="#DFF2ED"></path>
                                <path d="M4.26968397,11.4790273 L4.26968397,12.8880352 L2.81987199,12.0539815 L0.689460671,10.8423827 L0.689460671,7.35934472 C0.689460671,6.38957219 1.74666652,5.76896712 2.59218505,6.25385339 C3.81677157,6.98056588 4.2093777,7.66286131 4.31522136,8.55613779 C4.40629613,9.32850116 4.26968397,10.2526228 4.26968397,11.4790273" id="Fill-222" fill="#869691"></path>
                                <polygon id="Fill-224" fill="#447527" points="9.60285056 22.2173456 9.63361907 16.1741575 7.97088903 17.1439301 7.97088903 24.6553488 9.0440945 24.0347438 7.97088903 27.4733647 7.68412656 27.3055669 7.66935768 16.9613266 11.6126493 14.6898874 11.8994118 14.871257"></polygon>
                                <polygon id="Fill-226" fill="#63AC2E" points="11.8991657 14.8716272 11.8696279 25.2306732 7.97064288 27.472501 7.97064288 24.655719 9.04384836 24.0351139 9.60260441 23.7167916 9.60260441 22.2177158 9.63337292 16.1745277"></polygon>
                                <polygon id="Fill-228" fill="#99C977" points="7.67661905 16.9615733 7.97076596 17.1380078 11.9066732 14.8665686 11.6125263 14.6913679"></polygon>
                                <polygon id="Fill-230" fill="#447527" points="11.8991657 14.8716272 11.8696279 25.2306732 9.60260441 23.7167916 9.60260441 22.2177158 9.63337292 16.1745277"></polygon>
                                <polygon id="Fill-290" fill="#63AC2E" points="9.18636807 11.6808781 8.77776232 14.5741562 9.64051121 14.1509603 9.64051121 15.6771799 10.2164976 13.0528718 9.27251989 13.4773015"></polygon>
                            </g>
                        </g>
                    </g>
                </g>
            </g>
        </g>
    </g>
</svg>