<?xml version="1.0" encoding="UTF-8"?>
<svg width="656px" height="329px" viewBox="0 0 656 329" version="1.1" xmlns="http://www.w3.org/2000/svg" xmlns:xlink="http://www.w3.org/1999/xlink">
	<title>
		能流图转曲@2x
	</title>
	<defs>
		<radialGradient id="grad1" cx="50%" cy="50%" r="50%" fx="50%" fy="50%">
			<stop offset="0%" style="stop-color: #edb500" />
			<stop offset="100%" style="stop-color: rgba(152, 123, 30, 0.1)" />
		</radialGradient>
		<linearGradient id="grad-line" x1="0%" y1="0%" x2="100%" y2="0%">
			<stop offset="0%" style="stop-color: rgba(2,246,255,.5)" />
			<stop offset="100%" style="stop-color: rgba(2,246,255,0)" />
		</linearGradient>
	</defs>
	<g id="能源云系统V1.0" stroke="none" stroke-width="1" fill="none" fill-rule="evenodd">
		<g id="1.站控系统（站点）首页" transform="translate(-644.000000, -426.000000)">
			<g id="content" transform="translate(440.000000, 336.000000)">
				<g id="能流图和名称" transform="translate(13.000000, 77.999569)">
					<g id="能流图转曲" transform="translate(191.719352, 13.392935)">
						<g id="左向能流线" transform="translate(0.000000, 82.629329)" fill="#09E2F8" fill-rule="nonzero">
							<path d="M400.377594,67.1046489 L401.127975,68.403467 L105.656981,239.109305 C99.3218658,242.769364 91.5378307,242.818016 85.1668855,239.262882 L84.8009191,239.053779 L-0.378643068,189.2352 L0.378643068,187.940396 L85.5582052,237.758975 C91.4104371,241.181743 98.6215266,241.269085 104.545536,238.013957 L104.9066,237.810487 L400.377594,67.1046489 Z" id="路径-17备份-15">
							</path>
							<!--
							<circle cx="7" cy="191.587798" r="7" fill="url(#grad1)">
							</circle>
							<circle cx="7" cy="191.587798" r="3" fill="#edb500">
							</circle>
							-->
							<polygon id="路径-17备份-3" points="136.657928 109.701293 183.326861 136.864663 182.572302 138.161058 135.903369 110.997688">
							</polygon>
							<!--
							<circle cx="141.657928" cy="112.701293" r="7" fill="url(#grad1)">
							</circle>
							<circle cx="141.657928" cy="112.701293" r="3" fill="#edb500">
							</circle>
							-->
							<polygon id="路径-17备份-4" points="185.657928 81.7043659 232.326861 108.867735 231.572302 110.164131 184.903369 83.0007612">
							</polygon>
							<!--
							<circle cx="189.657928" cy="84.7043659" r="7" fill="url(#grad1)">
							</circle>
							<circle cx="189.657928" cy="84.7043659" r="3" fill="#edb500">
							</circle>
							-->
							<polygon id="路径-17备份-5" points="232.657928 53.7074388 280.191101 81.3738337 279.436542 82.6702289 231.903369 55.0038341">
							</polygon>
							<!--
							<circle cx="237.657928" cy="57.7074388" r="7" fill="url(#grad1)">
							</circle>
							<circle cx="237.657928" cy="57.7074388" r="3" fill="#edb500">
							</circle>
							-->
							<path d="M258.585981,-0.648698031 L259.338818,0.648698031 L231.406531,16.8569001 C230.809421,17.2033838 230.606248,17.9683176 230.952731,18.5654276 C231.0417,18.7187519 231.161996,18.8509518 231.305218,18.9537068 L231.416802,19.0251221 L304.73121,60.6436718 C307.012601,61.9387536 307.812162,64.8380572 306.51708,67.1194475 C306.146186,67.7728068 305.626301,68.3276804 305.001327,68.7398345 L304.762122,68.8876159 L145.842987,160.684155 C139.540506,164.32466 131.801589,164.392345 125.445826,160.887581 L125.080702,160.68142 L86.4078406,138.329207 L87.1584557,137.030524 L125.831317,159.382737 C131.670562,162.757715 138.840202,162.826143 144.733516,159.587679 L145.092714,159.385274 L304.011849,67.5887354 C304.512608,67.2994814 304.927119,66.8818507 305.21261,66.378936 C306.067071,64.873733 305.588898,62.9754068 304.154045,62.0472132 L303.990699,61.9481421 L230.67629,20.3295924 C230.25235,20.088933 229.9,19.7399063 229.655335,19.3182646 C228.923562,18.0571681 229.306228,16.4558057 230.500239,15.655312 L230.653694,15.5595041 L258.585981,-0.648698031 Z" id="路径-8">
							</path>
							<!--
							<circle cx="235.585981" cy="13.648698031" r="7" fill="url(#grad1)">
							</circle>
							<circle cx="235.585981" cy="13.648698031" r="3" fill="#edb500">
							</circle>
							<circle cx="94.1584557" cy="140.030524" r="7" fill="url(#grad1)">
							</circle>
							<circle cx="94.1584557" cy="140.030524" r="3" fill="#edb500">
							</circle>
							-->
						</g>
						<g id="右向能流线" transform="translate(251.107790, 0.000000)">
							<polygon id="路径-6备份-3" fill="#09E2F8" fill-rule="nonzero" transform="translate(231.182051, 157.407183) rotate(-29.153413) translate(-231.182051, -157.407183) " points="272.165089 155.999924 272.189138 157.499731 190.199014 158.814442 190.174964 157.314635">
							</polygon>
							<polygon id="路径" fill="#09E2F8" fill-rule="nonzero" transform="translate(313.333229, 151.818647) rotate(-30.000000) translate(-313.333229, -151.818647) " points="321.052448 151.068647 321.052448 152.568647 305.614009 152.568647 305.614009 151.068647">
							</polygon>
							<polygon id="路径" fill="#48FE6F" fill-rule="nonzero" transform="translate(328.055660, 143.318647) rotate(-30.000000) translate(-328.055660, -143.318647) " points="337.336441 142.568647 337.336441 144.068647 318.77488 144.068647 318.77488 142.568647">
							</polygon>
							<path d="M271.299025,134.609951 L326.99137,166.862504 C329.150468,168.112881 331.794088,168.16219 333.991784,167.009342 L334.243332,166.870986 L346.8702,159.597906 L347.618883,160.897704 L334.992016,168.170784 C332.372648,169.67954 329.167426,169.726185 326.512306,168.312047 L326.239648,168.160546 L270.547303,135.907993 L271.299025,134.609951 Z" id="路径-9备份" fill="#09E2F8" fill-rule="nonzero">
							</path>
							<polygon id="路径备份" fill="#48FE6F" fill-rule="nonzero" transform="translate(354.055660, 156.318647) rotate(-30.000000) translate(-354.055660, -156.318647) " points="363.336441 155.568647 363.336441 157.068647 344.77488 157.068647 344.77488 155.568647">
							</polygon>
							<path d="M363.294178,153.141317 C364.465751,152.555594 364.465751,151.605951 363.294178,151.020229 C362.122605,150.434507 360.22311,150.434507 359.051537,151.020229 C357.879964,151.605951 357.879964,152.555594 359.051537,153.141317 C360.22311,153.727039 362.122605,153.727039 363.294178,153.141317 Z" id="能源流向光点0-4" fill="#48FE6F">
							</path>
							<path d="M339.294178,139.167875 C340.465751,138.582153 340.465751,137.632509 339.294178,137.046787 C338.122605,136.461065 336.22311,136.461065 335.051537,137.046787 C333.879964,137.632509 333.879964,138.582153 335.051537,139.167875 C336.22311,139.753597 338.122605,139.753597 339.294178,139.167875 Z" id="能源流向光点0-4备份" fill="#48FE6F">
							</path>
							<polygon id="路径-6备份-4" fill="#09E2F8" fill-rule="nonzero" transform="translate(349.509030, 219.901737) rotate(-29.153413) translate(-349.509030, -219.901737) " points="395.491424 218.414313 395.515474 219.91412 303.526635 221.389162 303.502586 219.889355">
							</polygon>
							<path d="M19.3513243,74.9984125 L365.921734,274.521164 C370.566381,277.195116 376.264595,277.230673 380.933923,274.637221 L381.257995,274.452017 L403.38284,261.447582 L404.142928,262.740743 L382.018083,275.745179 C376.938144,278.731041 370.672532,278.823703 365.515474,276.01282 L365.173337,275.821126 L18.6029277,76.298375 L19.3513243,74.9984125 Z" id="路径-9" fill="#09E2F8" fill-rule="nonzero">
							</path>
							<polygon id="路径-6" fill="#09E2F8" fill-rule="nonzero" transform="translate(21.900635, 74.240236) rotate(-30.000000) translate(-21.900635, -74.240236) " points="46.9006351 73.4902356 46.9006351 74.9902356 -3.09936491 74.9902356 -3.09936491 73.4902356">
							</polygon>
							<polygon id="路径-17备份-5" fill="#09E2F8" fill-rule="nonzero" points="81.5501372 -0.648197639 110.070041 15.9516393 109.315482 17.2480346 80.7955782 0.648197639">
							</polygon>
							<polygon id="路径-6备份" fill="#09E2F8" fill-rule="nonzero" transform="translate(90.972432, 33.240236) rotate(-30.000000) translate(-90.972432, -33.240236) " points="107.972432 32.4902356 107.972432 33.9902356 73.9724319 33.9902356 73.9724319 32.4902356">
							</polygon>
							<polygon id="路径-6备份-2" fill="#09E2F8" fill-rule="nonzero" transform="translate(184.081637, 130.279626) rotate(-29.153413) translate(-184.081637, -130.279626) " points="225.060889 128.775138 225.088496 130.274884 143.102386 131.784114 143.074779 130.284368">
							</polygon>
							<path d="M131.397908,79.7812871 L132.149253,81.0795477 L108.735024,94.6301126 C107.181503,95.5291848 106.650968,97.5174042 107.55004,99.0709249 C107.798873,99.5008867 108.142461,99.867249 108.553578,100.142774 L108.733826,100.255215 L160.056306,129.986356 C162.820421,131.58761 166.207336,131.645865 169.017392,130.159345 L169.305981,130.000057 L211.378086,105.793833 L212.126136,107.093996 L170.05403,131.300219 C166.826095,133.157415 162.875168,133.207986 159.608601,131.454018 L159.304409,131.284297 L107.981929,101.553156 C107.263928,101.137218 106.667412,100.540448 106.251779,99.8222699 C104.976399,97.61852 105.669344,94.8162639 107.787233,93.4518701 L107.983679,93.331852 L131.397908,79.7812871 Z" id="路径-7" fill="#09E2F8" fill-rule="nonzero">
							</path>
						</g>
					</g>
				</g>
			</g>
		</g>
	</g>
</svg>
