<?xml version="1.0" encoding="UTF-8"?>
<svg width="656px" height="329px" viewBox="0 0 656 329" version="1.1" xmlns="http://www.w3.org/2000/svg" xmlns:xlink="http://www.w3.org/1999/xlink">
	<title>
		能流图备份@2x
	</title>
	<defs>
		<radialGradient id="grad1" cx="50%" cy="50%" r="50%" fx="50%" fy="50%">
			<stop offset="0%" style="stop-color: #edb500" />
			<stop offset="100%" style="stop-color: rgba(152, 123, 30, 0.1)" />
		</radialGradient>
		<linearGradient id="grad-line" x1="0%" y1="0%" x2="100%" y2="0%">
			<stop offset="0%" style="stop-color: rgba(2,246,255,.5)" />
			<stop offset="100%" style="stop-color: rgba(2,246,255,0)" />
		</linearGradient>
	</defs>
	<g id="能源云系统V1.0" stroke="none" stroke-width="1" fill="none" fill-rule="evenodd">
		<g id="1.站控系统（站点）首页" transform="translate(-644.000000, -426.000000)">
			<g id="content" transform="translate(440.000000, 336.000000)">
				<g id="能流图和名称" transform="translate(13.000000, 77.999569)">
					<g id="能流图备份" transform="translate(191.719352, 13.392935)">
						<g id="左向能流线" transform="translate(-0.000000, 82.629329)" fill="#09E2F8" fill-rule="nonzero">
							<path d="M397.127315,68.9905683 L397.87767,70.2894014 L105.656852,239.10965 C99.32179,242.769508 91.5379273,242.81808 85.1671101,239.263013 L84.801151,239.053915 L-0.378643068,189.2352 L0.378643068,187.940396 L85.5584372,237.759111 C91.4105522,241.181811 98.6214805,241.269222 104.545437,238.014275 L104.906497,237.810816 L397.127315,68.9905683 Z" id="路径-17备份-15">
							</path>
							<circle cx="6" cy="191.587798" r="10" fill="url(#grad1)">
							</circle>
							<circle cx="6" cy="191.587798" r="3" fill="#edb500">
							</circle>
							<!--
							<rect width="10" height="10" fill="url(#grad-line)">
							<animateMotion path="M397.127315,68.9905683 L397.87767,70.2894014 L105.656852,239.10965 C99.32179,242.769508 91.5379273,242.81808 85.1671101,239.263013 L84.801151,239.053915 L-0.378643068,189.2352 L0.378643068,187.940396 L85.5584372,237.759111 C91.4105522,241.181811 98.6214805,241.269222 104.545437,238.014275 L104.906497,237.810816 L397.127315,68.9905683 Z" begin="0s" dur="10s" rotate="auto" repeatCount="indefinite">
							</animateMotion>
							</rect>
							-->
							<polygon id="路径-17备份-3" points="136.657928 109.701293 183.326861 136.864663 182.572302 138.161058 135.903369 110.997688">
							</polygon>
							<circle cx="136.657928" cy="109.701293" r="10" fill="url(#grad1)">
							</circle>
							<circle cx="136.657928" cy="109.701293" r="3" fill="#edb500">
							</circle>
							<polygon id="路径-17备份-4" points="185.657928 81.7043659 232.326861 108.867735 231.572302 110.164131 184.903369 83.0007612">
							</polygon>
							<polygon id="路径-17备份-5" points="232.657928 53.7074388 280.191101 81.3738337 279.436542 82.6702289 231.903369 55.0038341">
							</polygon>
							<path d="M258.585981,-0.648698031 L259.338818,0.648698031 L231.406531,16.8569001 C230.809421,17.2033838 230.606248,17.9683176 230.952731,18.5654276 C231.0417,18.7187519 231.161996,18.8509518 231.305218,18.9537068 L231.416802,19.0251221 L304.73121,60.6436718 C307.012601,61.9387536 307.812162,64.8380572 306.51708,67.1194475 C306.146186,67.7728068 305.626301,68.3276804 305.001327,68.7398345 L304.762122,68.8876159 L145.842987,160.684155 C139.540506,164.32466 131.801589,164.392345 125.445826,160.887581 L125.080702,160.68142 L86.4078406,138.329207 L87.1584557,137.030524 L125.831317,159.382737 C131.670562,162.757715 138.840202,162.826143 144.733516,159.587679 L145.092714,159.385274 L304.011849,67.5887354 C304.512608,67.2994814 304.927119,66.8818507 305.21261,66.378936 C306.067071,64.873733 305.588898,62.9754068 304.154045,62.0472132 L303.990699,61.9481421 L230.67629,20.3295924 C230.25235,20.088933 229.9,19.7399063 229.655335,19.3182646 C228.923562,18.0571681 229.306228,16.4558057 230.500239,15.655312 L230.653694,15.5595041 L258.585981,-0.648698031 Z" id="路径-8">
							</path>
						</g>
						<g id="右向能流线" transform="translate(257.242029, 0.000000)">
							<polygon id="路径-17备份-12" fill="#09E2F8" fill-rule="nonzero" transform="translate(225.904559, 156.860627) scale(-1, 1) translate(-225.904559, -156.860627) " points="190.415898 135.336877 262.147778 177.087982 261.393219 178.384377 189.661339 136.633272">
							</polygon>
							<polygon id="路径-17备份-14" fill="#09E2F8" fill-rule="nonzero" transform="translate(307.427703, 151.709803) scale(-1, 1) rotate(-2.750487) translate(-307.427703, -151.709803) " points="300.684595 146.48113 314.982224 155.676886 314.170812 156.938476 299.873182 147.74272">
							</polygon>
							<path d="M265.164786,134.609951 L320.857131,166.862504 C323.016229,168.112881 325.659849,168.16219 327.857545,167.009342 L328.109093,166.870986 L340.735961,159.597906 L341.484644,160.897704 L328.857777,168.170784 C326.23841,169.67954 323.033187,169.726185 320.378068,168.312047 L320.105409,168.160546 L264.413064,135.907993 L265.164786,134.609951 Z" id="路径-9备份" fill="#09E2F8" fill-rule="nonzero">
							</path>
							<polygon id="路径-17备份-21" fill="#48FE6F" fill-rule="nonzero" transform="translate(321.305352, 143.576118) scale(-1, 1) translate(-321.305352, -143.576118) " points="312.221663 137.339107 331.151956 148.521633 330.389041 149.813129 311.458749 138.630603">
							</polygon>
							<polygon id="路径-17备份-20" fill="#48FE6F" fill-rule="nonzero" transform="translate(347.648711, 156.526692) scale(-1, 1) rotate(0.730723) translate(-347.648711, -156.526692) " points="339.899496 151.324205 356.13124 160.420649 355.397926 161.729179 339.166182 152.632735">
							</polygon>
							<path d="M357.159939,153.141317 C358.331512,152.555594 358.331512,151.605951 357.159939,151.020229 C355.988366,150.434507 354.088871,150.434507 352.917298,151.020229 C351.745726,151.605951 351.745726,152.555594 352.917298,153.141317 C354.088871,153.727039 355.988366,153.727039 357.159939,153.141317 Z" id="能源流向光点0-4" fill="#48FE6F">
							</path>
							<path d="M332.159939,139.142853 C333.331512,138.557131 333.331512,137.607488 332.159939,137.021766 C330.988366,136.436043 329.088871,136.436043 327.917298,137.021766 C326.745726,137.607488 326.745726,138.557131 327.917298,139.142853 C329.088871,139.728575 330.988366,139.728575 332.159939,139.142853 Z" id="能源流向光点0-4备份" fill="#48FE6F">
							</path>
							<polygon id="路径-17备份-8" fill="#09E2F8" fill-rule="nonzero" transform="translate(180.015481, 129.127534) scale(-1, 1) translate(-180.015481, -129.127534) " points="140.637743 105.340169 220.147778 151.618503 219.393219 152.914898 139.883184 106.636565">
							</polygon>
							<path d="M155.129561,63.3443691 L206.176556,92.9817347 C208.445257,94.2989193 209.216613,97.2058538 207.899429,99.4745546 C207.536023,100.100479 207.035018,100.634025 206.43572,101.035598 L206.206452,101.179924 L155.366919,131.194732 C152.117303,133.113251 148.10828,133.18345 144.801568,131.40082 L144.493666,131.22827 L96.4377788,103.255217 L97.1923865,101.95885 L145.248274,129.931903 C148.048928,131.562148 151.490609,131.604399 154.323151,130.062514 L154.604329,129.903045 L205.443862,99.8882365 C205.923606,99.6050036 206.322487,99.2032022 206.602214,98.721405 C207.471259,97.2245742 207.011551,95.3216921 205.585782,94.3796026 L205.423406,94.2789493 L154.376411,64.6415836 L155.129561,63.3443691 Z" id="路径-17备份-11" fill="#09E2F8" fill-rule="nonzero" transform="translate(152.490072, 98.016005) scale(-1, 1) translate(-152.490072, -98.016005) ">
							</path>
							<polygon id="路径-17备份-10" fill="#09E2F8" fill-rule="nonzero" transform="translate(341.879720, 220.614412) scale(-1, 1) translate(-341.879720, -220.614412) " points="303.366222 197.330073 381.147778 242.602355 380.393219 243.898751 302.611663 198.626468">
							</polygon>
							<rect width="10" height="10" fill="url(#grad1)">
								<animateMotion transform="translate(341.879720, 220.614412) scale(-1, 1) translate(-341.879720, -220.614412) " path="M303.366222 197.330073 381.147778 242.602355 380.393219 243.898751 302.611663 198.626468" begin="0s" dur="10s" rotate="auto" repeatCount="indefinite">
								</animateMotion>
							</rect>
							<path d="M13.2170854,74.9984125 L359.787495,274.521164 C364.432143,277.195116 370.130356,277.230673 374.799684,274.637221 L375.123756,274.452017 L397.248601,261.447582 L398.008689,262.740743 L375.883844,275.745179 C370.803905,278.731041 364.538293,278.823703 359.381235,276.01282 L359.039098,275.821126 L12.4686888,76.298375 L13.2170854,74.9984125 Z" id="路径-9" fill="#09E2F8" fill-rule="nonzero">
							</path>
							<polygon id="路径-17备份-2" fill="#09E2F8" fill-rule="nonzero" transform="translate(21.633632, 71.021608) scale(-1, 1) translate(-21.633632, -71.021608) " points="0.375851209 57.8445531 43.6431161 82.9006097 42.8914136 84.1986634 -0.375851209 59.1426068">
							</polygon>
							<polygon id="路径-17备份-5" fill="#09E2F8" fill-rule="nonzero" points="75.4158983 -0.648197639 103.935802 15.9516393 103.181243 17.2480346 74.6613393 0.648197639">
							</polygon>
							<polygon id="路径-17备份-16" fill="#09E2F8" fill-rule="nonzero" transform="translate(83.556395, 34.016261) scale(-1, 1) translate(-83.556395, -34.016261) " points="69.221376 24.8481747 98.6431161 41.8862931 97.8914136 43.1843469 68.4696735 26.1462284">
							</polygon>
						</g>
					</g>
				</g>
			</g>
		</g>
	</g>
</svg>
