<?xml version="1.0" encoding="UTF-8"?>
<svg width="41px" height="25px" viewBox="0 0 41 25" version="1.1" xmlns="http://www.w3.org/2000/svg" xmlns:xlink="http://www.w3.org/1999/xlink">
    <title>icon_光伏_备用</title>
    <defs>
        <linearGradient x1="13.7%" y1="65.7395145%" x2="117%" y2="-24.4326716%" id="linearGradient-1">
            <stop stop-color="#C5C5C5" offset="0%"></stop>
            <stop stop-color="#DBDBDB" offset="27.9%"></stop>
            <stop stop-color="#E6E6E6" offset="49.6%"></stop>
            <stop stop-color="#CFCFCF" offset="59.8%"></stop>
            <stop stop-color="#8B8B8B" offset="83.9%"></stop>
            <stop stop-color="#F7F7F7" offset="100%"></stop>
        </linearGradient>
        <linearGradient x1="12.8%" y1="17.0993375%" x2="77%" y2="163.62914%" id="linearGradient-2">
            <stop stop-color="#C5C5C5" offset="0%"></stop>
            <stop stop-color="#D4D4D4" offset="28.1%"></stop>
            <stop stop-color="#A7A7A7" offset="69.6%"></stop>
            <stop stop-color="#636363" offset="100%"></stop>
        </linearGradient>
        <linearGradient x1="50%" y1="0%" x2="50%" y2="100%" id="linearGradient-3">
            <stop stop-color="#EEEEEE" offset="0%"></stop>
            <stop stop-color="#E0E0E0" offset="100%"></stop>
        </linearGradient>
        <linearGradient x1="50%" y1="0%" x2="50%" y2="100%" id="linearGradient-4">
            <stop stop-color="#FFFFFF" offset="0%"></stop>
            <stop stop-color="#B4B4B4" offset="100%"></stop>
        </linearGradient>
        <linearGradient x1="50%" y1="0%" x2="50%" y2="100%" id="linearGradient-5">
            <stop stop-color="#FFFFFF" offset="0%"></stop>
            <stop stop-color="#B4B4B4" offset="100%"></stop>
        </linearGradient>
        <linearGradient x1="12.3%" y1="11.1081675%" x2="76%" y2="204.958058%" id="linearGradient-6">
            <stop stop-color="#D2D2D2" offset="0%"></stop>
            <stop stop-color="#B5B5B5" offset="61.1%"></stop>
            <stop stop-color="#0E0E0E" offset="100%"></stop>
        </linearGradient>
        <linearGradient x1="32.6%" y1="-0.77262729%" x2="59.9%" y2="248.927154%" id="linearGradient-7">
            <stop stop-color="#C5C5C5" offset="0%"></stop>
            <stop stop-color="#1F1F1F" offset="87.3%"></stop>
            <stop stop-color="#565656" offset="93.4%"></stop>
            <stop stop-color="#1A1A1A" offset="100%"></stop>
        </linearGradient>
        <linearGradient x1="18.1%" y1="53.7571744%" x2="53.9%" y2="38.7284767%" id="linearGradient-8">
            <stop stop-color="#EEEEEE" offset="0%"></stop>
            <stop stop-color="#CECECE" offset="100%"></stop>
        </linearGradient>
        <linearGradient x1="50%" y1="0%" x2="50%" y2="100%" id="linearGradient-9">
            <stop stop-color="#D2D2D2" offset="0%"></stop>
            <stop stop-color="#B3B3B3" offset="100%"></stop>
        </linearGradient>
        <linearGradient x1="37.5%" y1="-12.0441505%" x2="100%" y2="-0.77262729%" id="linearGradient-10">
            <stop stop-color="#D2D2D2" offset="0%"></stop>
            <stop stop-color="#B3B3B3" offset="100%"></stop>
        </linearGradient>
    </defs>
    <g id="光储充及工商储管理系统V1.3" stroke="none" stroke-width="1" fill="none" fill-rule="evenodd">
        <g id="3_2_6.设备监视_站点拓扑_示范站光伏发电能量流" transform="translate(-698.000000, -473.000000)">
            <g id="main" transform="translate(212.000000, 102.000000)">
                <g transform="translate(279.000000, 40.000000)" id="拓扑图">
                    <g transform="translate(0.000000, 276.000000)">
                        <g id="2备份" transform="translate(0.000000, 4.000000)">
                            <g id="编组2" transform="translate(0.000000, 52.000000)">
                                <g id="icon_光伏_备用" transform="translate(207.000000, 0.000000)">
                                    <rect id="BG" x="0" y="0" width="40" height="24"></rect>
                                    <g id="组_3164">
                                        <polygon id="路径_7945" stroke="#FFFFFF" stroke-width="0.5" fill="url(#linearGradient-1)" fill-rule="nonzero" points="27.4931141 0 0.534286736 3.19684468 11.7849696 22.1001819 40 17.0979137"></polygon>
                                        <polygon id="路径_7946" fill="url(#linearGradient-2)" fill-rule="nonzero" points="0.461408652 3.17413277 0 4.32021929 11.6380694 22.983871 39.3151519 18.1093429 39.8838756 17.049723 12.0860922 21.8404361"></polygon>
                                        <polygon id="路径_7947" stroke-opacity="0.230000004" stroke="#797A7A" stroke-width="0.5" fill="url(#linearGradient-3)" fill-rule="nonzero" opacity="0.69" points="27.147601 0.738079254 1.48376117 3.89872323 12.4512835 21.1908987 38.8805148 16.7304882"></polygon>
                                        <polygon id="路径_7948" fill="url(#linearGradient-4)" fill-rule="nonzero" points="7.54168037 16.2257535 7.57428674 20.6036173 8.48646407 20.938762 8.48646407 17.4570385"></polygon>
                                        <polygon id="路径_7949" fill="url(#linearGradient-5)" fill-rule="nonzero" points="7.57428674 20.6002739 5.80770826 21.1760264 7.36080086 21.707508 8.48406149 20.9250426"></polygon>
                                        <polygon id="路径_7950" fill="url(#linearGradient-6)" fill-rule="nonzero" points="5.80759385 21.1810991 5.80759385 21.6585103 7.35084734 22.160478 7.35084734 21.7027812"></polygon>
                                        <polygon id="路径_7951" fill="url(#linearGradient-7)" fill-rule="nonzero" points="7.35084734 21.7076233 10.6144583 21.1475501 10.9004791 21.5186649 7.35107615 22.1642825"></polygon>
                                        <polygon id="路径_7953" fill="url(#linearGradient-8)" fill-rule="nonzero" points="9.34933143 20.5337522 9.15415088 20.55681 9.15415088 20.8219743 10.687222 21.0986676 10.5820808 20.9320752"></polygon>
                                        <polygon id="路径_7954" fill="url(#linearGradient-9)" fill-rule="nonzero" points="8.48623525 17.7713159 9.16067215 18.8403895 9.16067215 20.8296987 8.48566321 20.9273484"></polygon>
                                        <polygon id="路径_7952" fill="url(#linearGradient-10)" fill-rule="nonzero" points="8.48165892 20.9185864 7.35336432 21.7078539 10.8835467 21.1025874 9.16124419 20.8227814"></polygon>
                                        <g id="组_3160" transform="translate(3.629374, 1.718496)" fill="#B7B7B7" fill-rule="nonzero">
                                            <path d="M11.4224097,14.2201886 L11.9545227,14.453418 L13.6444476,16.97271 L13.459335,17.4042362 L10.2417161,17.8590508 L9.54737218,17.5558411 L7.97334287,15.0249048 L8.18145156,14.5933786 L11.4224097,14.2201886 Z M16.0761959,13.3911464 L16.6081945,13.6240299 L18.2981194,16.143322 L18.0368109,16.526081 L14.8189632,16.9573766 L14.2011584,16.7267989 L12.6271291,14.1958627 L12.8352378,13.7643365 L16.0761959,13.3911464 Z M20.9570826,12.7009121 L21.4890812,12.934372 L23.1692814,15.3307662 L22.9841688,15.7622923 L19.7665499,16.2171069 L19.0720915,15.9138972 L17.5080157,13.5056283 L17.7161244,13.0741021 L20.9570826,12.7009121 Z M25.6109832,11.9862365 L26.1432106,12.2194658 L27.7760458,14.5842708 L27.5908187,15.015797 L24.3731999,15.4706115 L23.6789703,15.1674018 L22.1619163,12.7909527 L22.370025,12.3594265 L25.6109832,11.9862365 Z M30.2648838,11.2285581 L30.7972256,11.4617874 L32.480286,13.7055392 L32.295059,14.1370653 L29.0774401,14.5918799 L28.3832106,14.2886702 L26.8158169,12.0332743 L27.0239256,11.6017481 L30.2648838,11.2285581 Z M8.62569896,10.2264674 L9.15781194,10.4596967 L10.8477369,12.9789888 L10.6626242,13.410515 L7.44500536,13.8653295 L6.75066142,13.5621198 L5.17663211,11.0311836 L5.38474079,10.5996574 L8.62569896,10.2264674 Z M13.2794852,9.51179174 L13.8114837,9.74467523 L15.5014087,12.2639673 L15.2401001,12.6467263 L12.0222524,13.0780219 L11.4044476,12.8474442 L9.83041831,10.316508 L10.038527,9.88498177 L13.2794852,9.51179174 Z M18.1603718,8.82155737 L18.6923704,9.0550173 L20.3725706,11.4514115 L20.187458,11.8829376 L16.9698391,12.3377522 L16.2753808,12.0345425 L14.711305,9.62627358 L14.9194137,9.19474739 L18.1603718,8.82155737 Z M22.8142724,8.10688175 L23.3464998,8.3401111 L24.979335,10.7049161 L24.794108,11.1364423 L21.5764891,11.5912568 L20.8822596,11.2880471 L19.3652056,8.91159796 L19.5733143,8.48007178 L22.8142724,8.10688175 Z M27.468173,7.34920339 L28.0005148,7.58243275 L29.6835753,9.82618445 L29.4983482,10.2577106 L26.2807294,10.7125252 L25.5864998,10.4093155 L24.0191062,8.1539196 L24.2272149,7.72239342 L27.468173,7.34920339 Z M5.96799428,6.32313258 L6.50010726,6.55636193 L8.19003218,9.075654 L8.00491956,9.50718019 L4.78730068,9.96199473 L4.09295674,9.65878504 L2.51892742,7.12784879 L2.72703611,6.6963226 L5.96799428,6.32313258 Z M10.6217805,5.60845696 L11.153779,5.84134045 L12.843704,8.36063252 L12.5823954,8.74339152 L9.36454773,9.17468713 L8.74674294,8.94410942 L7.17271362,6.41317317 L7.38082231,5.98164699 L10.6217805,5.60845696 Z M15.5026671,4.91822258 L16.0346657,5.15168251 L17.7148659,7.54807667 L17.5297533,7.97960285 L14.3121344,8.43441739 L13.6176761,8.1312077 L12.0536003,5.72293879 L12.261709,5.29141261 L15.5026671,4.91822258 Z M20.2700608,4.31791351 L20.8022882,4.55114286 L22.4351233,6.91594787 L22.2498963,7.34747406 L19.0322774,7.80228859 L18.3380479,7.4990789 L16.8209939,5.12262972 L17.0291026,4.69110354 L20.2700608,4.31791351 Z M24.9239614,3.6746017 L25.4563032,3.90783105 L27.1393636,6.15158276 L26.9541366,6.58310894 L23.7365177,7.03792348 L23.0422882,6.73471379 L21.4748945,4.47931791 L21.6830032,4.04779172 L24.9239614,3.6746017 Z M3.44906686,2.30543125 L3.98117984,2.5386606 L5.67110476,5.05795267 L5.48599213,5.48947886 L2.26837326,5.9442934 L1.57402932,5.64108371 L0,3.11014746 L0.208108688,2.67862127 L3.44906686,2.30543125 Z M8.10285306,1.70512217 L8.63485163,1.93800566 L10.3247765,4.45729774 L10.063468,4.84005674 L6.84562031,5.27135235 L6.22781552,5.04077463 L4.6537862,2.50983839 L4.86189489,2.0783122 L8.10285306,1.70512217 Z M12.7567537,1.12925434 L13.2887522,1.36271427 L14.9689524,3.75910843 L14.7838398,4.19063461 L11.566221,4.64544915 L10.8717626,4.34223946 L9.30768681,1.93397055 L9.5157955,1.50244437 L12.7567537,1.12925434 Z M17.4106543,0.52894527 L17.9428817,0.762174625 L19.5757168,3.12697963 L19.3904898,3.55850582 L16.1728709,4.01332035 L15.4786414,3.71011066 L13.9615874,1.33366148 L14.1696961,0.902135295 L17.4106543,0.52894527 Z M22.0644405,0 L22.5967823,0.233229355 L24.2798427,2.47698106 L24.0946157,2.90850725 L20.8769968,3.36332179 L20.1827673,3.06011209 L18.6153736,0.804716212 L18.8234823,0.373190026 L22.0644405,0 Z" id="形状结合"></path>
                                        </g>
                                        <g id="组_3161" transform="translate(6.148302, 5.393097)"></g>
                                        <g id="组_3162" transform="translate(8.806006, 9.067699)"></g>
                                        <g id="组_3163" transform="translate(11.602717, 12.947054)"></g>
                                    </g>
                                </g>
                            </g>
                        </g>
                    </g>
                </g>
            </g>
        </g>
    </g>
</svg>