<?xml version="1.0" encoding="UTF-8"?>
<svg width="160px" height="160px" viewBox="0 0 160 160" version="1.1" xmlns="http://www.w3.org/2000/svg" xmlns:xlink="http://www.w3.org/1999/xlink">
    <title>icon_batteryPack</title>
    <defs>
        <polygon id="path-1" points="7.4812 27.9901144 7.5708 28.0518147 14.192 20.3376676 10.3812 19.0859183 12.5288 12.491248 12.4208 12.4182561 5.8084 20.0924796 9.6404 21.3607629"></polygon>
        <polygon id="path-2" points="7.4812 27.9901144 7.5708 28.0518147 14.192 20.3376676 10.3812 19.0859183 12.5288 12.491248 12.4208 12.4182561 5.8084 20.0924796 9.6404 21.3607629"></polygon>
        <polygon id="path-3" points="7.4812 27.9901144 7.5708 28.0518147 14.192 20.3376676 10.3812 19.0859183 12.5288 12.491248 12.4208 12.4182561 5.8084 20.0924796 9.6404 21.3607629"></polygon>
        <polygon id="path-4" points="7.4812 27.9901144 7.5708 28.0518147 14.192 20.3376676 10.3812 19.0859183 12.5288 12.491248 12.4208 12.4182561 5.8084 20.0924796 9.6404 21.3607629"></polygon>
        <polygon id="path-5" points="7.4812 27.9901144 7.5708 28.0518147 14.192 20.3376676 10.3812 19.0859183 12.5288 12.491248 12.4208 12.4182561 5.8084 20.0924796 9.6404 21.3607629"></polygon>
        <polygon id="path-6" points="7.4812 27.9901144 7.5708 28.0518147 14.192 20.3376676 10.3812 19.0859183 12.5288 12.491248 12.4208 12.4182561 5.8084 20.0924796 9.6404 21.3607629"></polygon>
        <polygon id="path-7" points="7.4812 27.9901144 7.5708 28.0518147 14.192 20.3376676 10.3812 19.0859183 12.5288 12.491248 12.4208 12.4182561 5.8084 20.0924796 9.6404 21.3607629"></polygon>
        <polygon id="path-8" points="7.4812 27.9901144 7.5708 28.0518147 14.192 20.3376676 10.3812 19.0859183 12.5288 12.491248 12.4208 12.4182561 5.8084 20.0924796 9.6404 21.3607629"></polygon>
        <polygon id="path-9" points="7.4812 27.9901144 7.5708 28.0518147 14.192 20.3376676 10.3812 19.0859183 12.5288 12.491248 12.4208 12.4182561 5.8084 20.0924796 9.6404 21.3607629"></polygon>
        <polygon id="path-10" points="7.4812 27.9901144 7.5708 28.0518147 14.192 20.3376676 10.3812 19.0859183 12.5288 12.491248 12.4208 12.4182561 5.8084 20.0924796 9.6404 21.3607629"></polygon>
        <polygon id="path-11" points="7.4812 27.9901144 7.5708 28.0518147 14.192 20.3376676 10.3812 19.0859183 12.5288 12.491248 12.4208 12.4182561 5.8084 20.0924796 9.6404 21.3607629"></polygon>
        <polygon id="path-12" points="7.4812 27.9901144 7.5708 28.0518147 14.192 20.3376676 10.3812 19.0859183 12.5288 12.491248 12.4208 12.4182561 5.8084 20.0924796 9.6404 21.3607629"></polygon>
        <polygon id="path-13" points="7.4812 27.9901144 7.5708 28.0518147 14.192 20.3376676 10.3812 19.0859183 12.5288 12.491248 12.4208 12.4182561 5.8084 20.0924796 9.6404 21.3607629"></polygon>
        <polygon id="path-14" points="7.4812 27.9901144 7.5708 28.0518147 14.192 20.3376676 10.3812 19.0859183 12.5288 12.491248 12.4208 12.4182561 5.8084 20.0924796 9.6404 21.3607629"></polygon>
        <polygon id="path-15" points="7.4812 27.9901144 7.5708 28.0518147 14.192 20.3376676 10.3812 19.0859183 12.5288 12.491248 12.4208 12.4182561 5.8084 20.0924796 9.6404 21.3607629"></polygon>
    </defs>
    <g id="光储充及工商储管理系统V1.3" stroke="none" stroke-width="1" fill="none" fill-rule="evenodd">
        <g id="3_2_5.设备监视_站点拓扑_示范站储能系统能量流" transform="translate(-503.000000, -809.000000)">
            <g id="main" transform="translate(212.000000, 102.000000)">
                <g transform="translate(53.000000, 40.000000)" id="拓扑图">
                    <g transform="translate(0.000000, 79.000000)">
                        <g id="电池簇1" transform="translate(238.000000, 416.000000)">
                            <g id="icon_batteryPack" transform="translate(0.000000, 172.000000)">
                                <rect id="矩形_647" x="0" y="0" width="160" height="160"></rect>
                                <g id="电池组5" transform="translate(26.000000, 23.000000)" fill-rule="nonzero">
                                    <g id="编组-1">
                                        <g id="电池备份-4" transform="translate(88.000000, 0.000000)">
                                            <path d="M17.8,4.06657221 L15.2,4.06657221 L15.2,2.21798365 C15,0.994866485 14.0128,0 12.8,0 L7.2,0 C5.9872,0 5,0.994866485 4.8,2.21798365 L4.8,4.06657221 L2.2,4.06657221 C0.9872,4.06657221 0,5.06143869 0,6.28455586 L0,34.7820163 C0,36.0051335 0.9872,37 2.2,37 L17.8,37 C19.0128,37 20,36.0051335 20,34.7820163 L20,6.28455586 C20,5.06143869 19.0128,4.06657221 17.8,4.06657221 Z M18,34.7820163 C18,34.8929155 17.91,34.9836512 17.8,35.0340599 L2.2,35.0340599 C2.09,34.9836512 2,34.8929155 2,34.7820163 L2,6.28455586 C2,6.17325341 2.09,6.08292098 2.2,5.9986376 L17.8,5.9986376 C17.91,6.08292098 18,6.17325341 18,6.28455586 L18,34.7820163 Z" id="形状" fill="#C9C9C9"></path>
                                            <g id="编组-9备份" transform="translate(3.200000, 7.300000)" fill="#00B42A">
                                                <polygon id="路径备份-5" points="0 26.4 13.6 26.4 13.6 0 0 0"></polygon>
                                            </g>
                                            <g id="路径">
                                                <use fill="#00B42A" xlink:href="#path-1"></use>
                                                <use fill="#FFFFFF" xlink:href="#path-1"></use>
                                            </g>
                                        </g>
                                        <g id="电池备份-5" transform="translate(66.000000, 0.000000)">
                                            <path d="M17.8,4.06657221 L15.2,4.06657221 L15.2,2.21798365 C15,0.994866485 14.0128,0 12.8,0 L7.2,0 C5.9872,0 5,0.994866485 4.8,2.21798365 L4.8,4.06657221 L2.2,4.06657221 C0.9872,4.06657221 0,5.06143869 0,6.28455586 L0,34.7820163 C0,36.0051335 0.9872,37 2.2,37 L17.8,37 C19.0128,37 20,36.0051335 20,34.7820163 L20,6.28455586 C20,5.06143869 19.0128,4.06657221 17.8,4.06657221 Z M18,34.7820163 C18,34.8929155 17.91,34.9836512 17.8,35.0340599 L2.2,35.0340599 C2.09,34.9836512 2,34.8929155 2,34.7820163 L2,6.28455586 C2,6.17325341 2.09,6.08292098 2.2,5.9986376 L17.8,5.9986376 C17.91,6.08292098 18,6.17325341 18,6.28455586 L18,34.7820163 Z" id="形状" fill="#C9C9C9"></path>
                                            <g id="编组-9备份" transform="translate(3.200000, 7.300000)" fill="#00B42A">
                                                <polygon id="路径备份-5" points="0 26.4 13.6 26.4 13.6 0 0 0"></polygon>
                                            </g>
                                            <g id="路径">
                                                <use fill="#00B42A" xlink:href="#path-2"></use>
                                                <use fill="#FFFFFF" xlink:href="#path-2"></use>
                                            </g>
                                        </g>
                                        <g id="电池备份-6" transform="translate(44.000000, 0.000000)">
                                            <path d="M17.8,4.06657221 L15.2,4.06657221 L15.2,2.21798365 C15,0.994866485 14.0128,0 12.8,0 L7.2,0 C5.9872,0 5,0.994866485 4.8,2.21798365 L4.8,4.06657221 L2.2,4.06657221 C0.9872,4.06657221 0,5.06143869 0,6.28455586 L0,34.7820163 C0,36.0051335 0.9872,37 2.2,37 L17.8,37 C19.0128,37 20,36.0051335 20,34.7820163 L20,6.28455586 C20,5.06143869 19.0128,4.06657221 17.8,4.06657221 Z M18,34.7820163 C18,34.8929155 17.91,34.9836512 17.8,35.0340599 L2.2,35.0340599 C2.09,34.9836512 2,34.8929155 2,34.7820163 L2,6.28455586 C2,6.17325341 2.09,6.08292098 2.2,5.9986376 L17.8,5.9986376 C17.91,6.08292098 18,6.17325341 18,6.28455586 L18,34.7820163 Z" id="形状" fill="#C9C9C9"></path>
                                            <g id="编组-9备份" transform="translate(3.200000, 7.300000)" fill="#00B42A">
                                                <polygon id="路径备份-5" points="0 26.4 13.6 26.4 13.6 0 0 0"></polygon>
                                            </g>
                                            <g id="路径">
                                                <use fill="#00B42A" xlink:href="#path-3"></use>
                                                <use fill="#FFFFFF" xlink:href="#path-3"></use>
                                            </g>
                                        </g>
                                        <g id="电池备份-7" transform="translate(22.000000, 0.000000)">
                                            <path d="M17.8,4.06657221 L15.2,4.06657221 L15.2,2.21798365 C15,0.994866485 14.0128,0 12.8,0 L7.2,0 C5.9872,0 5,0.994866485 4.8,2.21798365 L4.8,4.06657221 L2.2,4.06657221 C0.9872,4.06657221 0,5.06143869 0,6.28455586 L0,34.7820163 C0,36.0051335 0.9872,37 2.2,37 L17.8,37 C19.0128,37 20,36.0051335 20,34.7820163 L20,6.28455586 C20,5.06143869 19.0128,4.06657221 17.8,4.06657221 Z M18,34.7820163 C18,34.8929155 17.91,34.9836512 17.8,35.0340599 L2.2,35.0340599 C2.09,34.9836512 2,34.8929155 2,34.7820163 L2,6.28455586 C2,6.17325341 2.09,6.08292098 2.2,5.9986376 L17.8,5.9986376 C17.91,6.08292098 18,6.17325341 18,6.28455586 L18,34.7820163 Z" id="形状" fill="#C9C9C9"></path>
                                            <g id="编组-9备份" transform="translate(3.200000, 7.300000)" fill="#00B42A">
                                                <polygon id="路径备份-5" points="0 26.4 13.6 26.4 13.6 0 0 0"></polygon>
                                            </g>
                                            <g id="路径">
                                                <use fill="#00B42A" xlink:href="#path-4"></use>
                                                <use fill="#FFFFFF" xlink:href="#path-4"></use>
                                            </g>
                                        </g>
                                        <g id="电池备份-8">
                                            <path d="M17.8,4.06657221 L15.2,4.06657221 L15.2,2.21798365 C15,0.994866485 14.0128,0 12.8,0 L7.2,0 C5.9872,0 5,0.994866485 4.8,2.21798365 L4.8,4.06657221 L2.2,4.06657221 C0.9872,4.06657221 0,5.06143869 0,6.28455586 L0,34.7820163 C0,36.0051335 0.9872,37 2.2,37 L17.8,37 C19.0128,37 20,36.0051335 20,34.7820163 L20,6.28455586 C20,5.06143869 19.0128,4.06657221 17.8,4.06657221 Z M18,34.7820163 C18,34.8929155 17.91,34.9836512 17.8,35.0340599 L2.2,35.0340599 C2.09,34.9836512 2,34.8929155 2,34.7820163 L2,6.28455586 C2,6.17325341 2.09,6.08292098 2.2,5.9986376 L17.8,5.9986376 C17.91,6.08292098 18,6.17325341 18,6.28455586 L18,34.7820163 Z" id="形状" fill="#C9C9C9"></path>
                                            <g id="编组-9备份" transform="translate(3.200000, 7.300000)" fill="#00B42A">
                                                <polygon id="路径备份-5" points="0 26.4 13.6 26.4 13.6 0 0 0"></polygon>
                                            </g>
                                            <g id="路径">
                                                <use fill="#00B42A" xlink:href="#path-5"></use>
                                                <use fill="#FFFFFF" xlink:href="#path-5"></use>
                                            </g>
                                        </g>
                                    </g>
                                    <g id="编组-1备份-10" transform="translate(0.000000, 39.000000)">
                                        <g id="电池备份-4" transform="translate(88.000000, 0.000000)">
                                            <path d="M17.8,4.06657221 L15.2,4.06657221 L15.2,2.21798365 C15,0.994866485 14.0128,0 12.8,0 L7.2,0 C5.9872,0 5,0.994866485 4.8,2.21798365 L4.8,4.06657221 L2.2,4.06657221 C0.9872,4.06657221 0,5.06143869 0,6.28455586 L0,34.7820163 C0,36.0051335 0.9872,37 2.2,37 L17.8,37 C19.0128,37 20,36.0051335 20,34.7820163 L20,6.28455586 C20,5.06143869 19.0128,4.06657221 17.8,4.06657221 Z M18,34.7820163 C18,34.8929155 17.91,34.9836512 17.8,35.0340599 L2.2,35.0340599 C2.09,34.9836512 2,34.8929155 2,34.7820163 L2,6.28455586 C2,6.17325341 2.09,6.08292098 2.2,5.9986376 L17.8,5.9986376 C17.91,6.08292098 18,6.17325341 18,6.28455586 L18,34.7820163 Z" id="形状" fill="#C9C9C9"></path>
                                            <g id="编组-9备份" transform="translate(3.200000, 7.300000)" fill="#00B42A">
                                                <polygon id="路径备份-5" points="0 26.4 13.6 26.4 13.6 0 0 0"></polygon>
                                            </g>
                                            <g id="路径">
                                                <use fill="#00B42A" xlink:href="#path-6"></use>
                                                <use fill="#FFFFFF" xlink:href="#path-6"></use>
                                            </g>
                                        </g>
                                        <g id="电池备份-5" transform="translate(66.000000, 0.000000)">
                                            <path d="M17.8,4.06657221 L15.2,4.06657221 L15.2,2.21798365 C15,0.994866485 14.0128,0 12.8,0 L7.2,0 C5.9872,0 5,0.994866485 4.8,2.21798365 L4.8,4.06657221 L2.2,4.06657221 C0.9872,4.06657221 0,5.06143869 0,6.28455586 L0,34.7820163 C0,36.0051335 0.9872,37 2.2,37 L17.8,37 C19.0128,37 20,36.0051335 20,34.7820163 L20,6.28455586 C20,5.06143869 19.0128,4.06657221 17.8,4.06657221 Z M18,34.7820163 C18,34.8929155 17.91,34.9836512 17.8,35.0340599 L2.2,35.0340599 C2.09,34.9836512 2,34.8929155 2,34.7820163 L2,6.28455586 C2,6.17325341 2.09,6.08292098 2.2,5.9986376 L17.8,5.9986376 C17.91,6.08292098 18,6.17325341 18,6.28455586 L18,34.7820163 Z" id="形状" fill="#C9C9C9"></path>
                                            <g id="编组-9备份" transform="translate(3.200000, 7.300000)" fill="#00B42A">
                                                <polygon id="路径备份-5" points="0 26.4 13.6 26.4 13.6 0 0 0"></polygon>
                                            </g>
                                            <g id="路径">
                                                <use fill="#00B42A" xlink:href="#path-7"></use>
                                                <use fill="#FFFFFF" xlink:href="#path-7"></use>
                                            </g>
                                        </g>
                                        <g id="电池备份-6" transform="translate(44.000000, 0.000000)">
                                            <path d="M17.8,4.06657221 L15.2,4.06657221 L15.2,2.21798365 C15,0.994866485 14.0128,0 12.8,0 L7.2,0 C5.9872,0 5,0.994866485 4.8,2.21798365 L4.8,4.06657221 L2.2,4.06657221 C0.9872,4.06657221 0,5.06143869 0,6.28455586 L0,34.7820163 C0,36.0051335 0.9872,37 2.2,37 L17.8,37 C19.0128,37 20,36.0051335 20,34.7820163 L20,6.28455586 C20,5.06143869 19.0128,4.06657221 17.8,4.06657221 Z M18,34.7820163 C18,34.8929155 17.91,34.9836512 17.8,35.0340599 L2.2,35.0340599 C2.09,34.9836512 2,34.8929155 2,34.7820163 L2,6.28455586 C2,6.17325341 2.09,6.08292098 2.2,5.9986376 L17.8,5.9986376 C17.91,6.08292098 18,6.17325341 18,6.28455586 L18,34.7820163 Z" id="形状" fill="#C9C9C9"></path>
                                            <g id="编组-9备份" transform="translate(3.200000, 7.300000)" fill="#00B42A">
                                                <polygon id="路径备份-5" points="0 26.4 13.6 26.4 13.6 0 0 0"></polygon>
                                            </g>
                                            <g id="路径">
                                                <use fill="#00B42A" xlink:href="#path-8"></use>
                                                <use fill="#FFFFFF" xlink:href="#path-8"></use>
                                            </g>
                                        </g>
                                        <g id="电池备份-7" transform="translate(22.000000, 0.000000)">
                                            <path d="M17.8,4.06657221 L15.2,4.06657221 L15.2,2.21798365 C15,0.994866485 14.0128,0 12.8,0 L7.2,0 C5.9872,0 5,0.994866485 4.8,2.21798365 L4.8,4.06657221 L2.2,4.06657221 C0.9872,4.06657221 0,5.06143869 0,6.28455586 L0,34.7820163 C0,36.0051335 0.9872,37 2.2,37 L17.8,37 C19.0128,37 20,36.0051335 20,34.7820163 L20,6.28455586 C20,5.06143869 19.0128,4.06657221 17.8,4.06657221 Z M18,34.7820163 C18,34.8929155 17.91,34.9836512 17.8,35.0340599 L2.2,35.0340599 C2.09,34.9836512 2,34.8929155 2,34.7820163 L2,6.28455586 C2,6.17325341 2.09,6.08292098 2.2,5.9986376 L17.8,5.9986376 C17.91,6.08292098 18,6.17325341 18,6.28455586 L18,34.7820163 Z" id="形状" fill="#C9C9C9"></path>
                                            <g id="编组-9备份" transform="translate(3.200000, 7.300000)" fill="#00B42A">
                                                <polygon id="路径备份-5" points="0 26.4 13.6 26.4 13.6 0 0 0"></polygon>
                                            </g>
                                            <g id="路径">
                                                <use fill="#00B42A" xlink:href="#path-9"></use>
                                                <use fill="#FFFFFF" xlink:href="#path-9"></use>
                                            </g>
                                        </g>
                                        <g id="电池备份-8">
                                            <path d="M17.8,4.06657221 L15.2,4.06657221 L15.2,2.21798365 C15,0.994866485 14.0128,0 12.8,0 L7.2,0 C5.9872,0 5,0.994866485 4.8,2.21798365 L4.8,4.06657221 L2.2,4.06657221 C0.9872,4.06657221 0,5.06143869 0,6.28455586 L0,34.7820163 C0,36.0051335 0.9872,37 2.2,37 L17.8,37 C19.0128,37 20,36.0051335 20,34.7820163 L20,6.28455586 C20,5.06143869 19.0128,4.06657221 17.8,4.06657221 Z M18,34.7820163 C18,34.8929155 17.91,34.9836512 17.8,35.0340599 L2.2,35.0340599 C2.09,34.9836512 2,34.8929155 2,34.7820163 L2,6.28455586 C2,6.17325341 2.09,6.08292098 2.2,5.9986376 L17.8,5.9986376 C17.91,6.08292098 18,6.17325341 18,6.28455586 L18,34.7820163 Z" id="形状" fill="#C9C9C9"></path>
                                            <g id="编组-9备份" transform="translate(3.200000, 7.300000)" fill="#00B42A">
                                                <polygon id="路径备份-5" points="0 26.4 13.6 26.4 13.6 0 0 0"></polygon>
                                            </g>
                                            <g id="路径">
                                                <use fill="#00B42A" xlink:href="#path-10"></use>
                                                <use fill="#FFFFFF" xlink:href="#path-10"></use>
                                            </g>
                                        </g>
                                    </g>
                                    <g id="编组-1备份-11" transform="translate(0.000000, 78.000000)">
                                        <g id="电池备份-4" transform="translate(88.000000, 0.000000)">
                                            <path d="M17.8,4.06657221 L15.2,4.06657221 L15.2,2.21798365 C15,0.994866485 14.0128,0 12.8,0 L7.2,0 C5.9872,0 5,0.994866485 4.8,2.21798365 L4.8,4.06657221 L2.2,4.06657221 C0.9872,4.06657221 0,5.06143869 0,6.28455586 L0,34.7820163 C0,36.0051335 0.9872,37 2.2,37 L17.8,37 C19.0128,37 20,36.0051335 20,34.7820163 L20,6.28455586 C20,5.06143869 19.0128,4.06657221 17.8,4.06657221 Z M18,34.7820163 C18,34.8929155 17.91,34.9836512 17.8,35.0340599 L2.2,35.0340599 C2.09,34.9836512 2,34.8929155 2,34.7820163 L2,6.28455586 C2,6.17325341 2.09,6.08292098 2.2,5.9986376 L17.8,5.9986376 C17.91,6.08292098 18,6.17325341 18,6.28455586 L18,34.7820163 Z" id="形状" fill="#C9C9C9"></path>
                                            <g id="编组-9备份" transform="translate(3.200000, 7.300000)" fill="#00B42A">
                                                <polygon id="路径备份-5" points="0 26.4 13.6 26.4 13.6 0 0 0"></polygon>
                                            </g>
                                            <g id="路径">
                                                <use fill="#00B42A" xlink:href="#path-11"></use>
                                                <use fill="#FFFFFF" xlink:href="#path-11"></use>
                                            </g>
                                        </g>
                                        <g id="电池备份-5" transform="translate(66.000000, 0.000000)">
                                            <path d="M17.8,4.06657221 L15.2,4.06657221 L15.2,2.21798365 C15,0.994866485 14.0128,0 12.8,0 L7.2,0 C5.9872,0 5,0.994866485 4.8,2.21798365 L4.8,4.06657221 L2.2,4.06657221 C0.9872,4.06657221 0,5.06143869 0,6.28455586 L0,34.7820163 C0,36.0051335 0.9872,37 2.2,37 L17.8,37 C19.0128,37 20,36.0051335 20,34.7820163 L20,6.28455586 C20,5.06143869 19.0128,4.06657221 17.8,4.06657221 Z M18,34.7820163 C18,34.8929155 17.91,34.9836512 17.8,35.0340599 L2.2,35.0340599 C2.09,34.9836512 2,34.8929155 2,34.7820163 L2,6.28455586 C2,6.17325341 2.09,6.08292098 2.2,5.9986376 L17.8,5.9986376 C17.91,6.08292098 18,6.17325341 18,6.28455586 L18,34.7820163 Z" id="形状" fill="#C9C9C9"></path>
                                            <g id="编组-9备份" transform="translate(3.200000, 7.300000)" fill="#00B42A">
                                                <polygon id="路径备份-5" points="0 26.4 13.6 26.4 13.6 0 0 0"></polygon>
                                            </g>
                                            <g id="路径">
                                                <use fill="#00B42A" xlink:href="#path-12"></use>
                                                <use fill="#FFFFFF" xlink:href="#path-12"></use>
                                            </g>
                                        </g>
                                        <g id="电池备份-6" transform="translate(44.000000, 0.000000)">
                                            <path d="M17.8,4.06657221 L15.2,4.06657221 L15.2,2.21798365 C15,0.994866485 14.0128,0 12.8,0 L7.2,0 C5.9872,0 5,0.994866485 4.8,2.21798365 L4.8,4.06657221 L2.2,4.06657221 C0.9872,4.06657221 0,5.06143869 0,6.28455586 L0,34.7820163 C0,36.0051335 0.9872,37 2.2,37 L17.8,37 C19.0128,37 20,36.0051335 20,34.7820163 L20,6.28455586 C20,5.06143869 19.0128,4.06657221 17.8,4.06657221 Z M18,34.7820163 C18,34.8929155 17.91,34.9836512 17.8,35.0340599 L2.2,35.0340599 C2.09,34.9836512 2,34.8929155 2,34.7820163 L2,6.28455586 C2,6.17325341 2.09,6.08292098 2.2,5.9986376 L17.8,5.9986376 C17.91,6.08292098 18,6.17325341 18,6.28455586 L18,34.7820163 Z" id="形状" fill="#C9C9C9"></path>
                                            <g id="编组-9备份" transform="translate(3.200000, 7.300000)" fill="#00B42A">
                                                <polygon id="路径备份-5" points="0 26.4 13.6 26.4 13.6 0 0 0"></polygon>
                                            </g>
                                            <g id="路径">
                                                <use fill="#00B42A" xlink:href="#path-13"></use>
                                                <use fill="#FFFFFF" xlink:href="#path-13"></use>
                                            </g>
                                        </g>
                                        <g id="电池备份-7" transform="translate(22.000000, 0.000000)">
                                            <path d="M17.8,4.06657221 L15.2,4.06657221 L15.2,2.21798365 C15,0.994866485 14.0128,0 12.8,0 L7.2,0 C5.9872,0 5,0.994866485 4.8,2.21798365 L4.8,4.06657221 L2.2,4.06657221 C0.9872,4.06657221 0,5.06143869 0,6.28455586 L0,34.7820163 C0,36.0051335 0.9872,37 2.2,37 L17.8,37 C19.0128,37 20,36.0051335 20,34.7820163 L20,6.28455586 C20,5.06143869 19.0128,4.06657221 17.8,4.06657221 Z M18,34.7820163 C18,34.8929155 17.91,34.9836512 17.8,35.0340599 L2.2,35.0340599 C2.09,34.9836512 2,34.8929155 2,34.7820163 L2,6.28455586 C2,6.17325341 2.09,6.08292098 2.2,5.9986376 L17.8,5.9986376 C17.91,6.08292098 18,6.17325341 18,6.28455586 L18,34.7820163 Z" id="形状" fill="#C9C9C9"></path>
                                            <g id="编组-9备份" transform="translate(3.200000, 7.300000)" fill="#00B42A">
                                                <polygon id="路径备份-5" points="0 26.4 13.6 26.4 13.6 0 0 0"></polygon>
                                            </g>
                                            <g id="路径">
                                                <use fill="#00B42A" xlink:href="#path-14"></use>
                                                <use fill="#FFFFFF" xlink:href="#path-14"></use>
                                            </g>
                                        </g>
                                        <g id="电池备份-8">
                                            <path d="M17.8,4.06657221 L15.2,4.06657221 L15.2,2.21798365 C15,0.994866485 14.0128,0 12.8,0 L7.2,0 C5.9872,0 5,0.994866485 4.8,2.21798365 L4.8,4.06657221 L2.2,4.06657221 C0.9872,4.06657221 0,5.06143869 0,6.28455586 L0,34.7820163 C0,36.0051335 0.9872,37 2.2,37 L17.8,37 C19.0128,37 20,36.0051335 20,34.7820163 L20,6.28455586 C20,5.06143869 19.0128,4.06657221 17.8,4.06657221 Z M18,34.7820163 C18,34.8929155 17.91,34.9836512 17.8,35.0340599 L2.2,35.0340599 C2.09,34.9836512 2,34.8929155 2,34.7820163 L2,6.28455586 C2,6.17325341 2.09,6.08292098 2.2,5.9986376 L17.8,5.9986376 C17.91,6.08292098 18,6.17325341 18,6.28455586 L18,34.7820163 Z" id="形状" fill="#C9C9C9"></path>
                                            <g id="编组-9备份" transform="translate(3.200000, 7.300000)" fill="#00B42A">
                                                <polygon id="路径备份-5" points="0 26.4 13.6 26.4 13.6 0 0 0"></polygon>
                                            </g>
                                            <g id="路径">
                                                <use fill="#00B42A" xlink:href="#path-15"></use>
                                                <use fill="#FFFFFF" xlink:href="#path-15"></use>
                                            </g>
                                        </g>
                                    </g>
                                </g>
                            </g>
                        </g>
                    </g>
                </g>
            </g>
        </g>
    </g>
</svg>