<?xml version="1.0" encoding="UTF-8"?>
<svg width="90px" height="90px" viewBox="0 0 90 90" version="1.1" xmlns="http://www.w3.org/2000/svg" xmlns:xlink="http://www.w3.org/1999/xlink">
    <title>icon_分控箱</title>
    <defs>
        <linearGradient x1="50%" y1="0%" x2="50%" y2="100%" id="linearGradient-1">
            <stop stop-color="#F8F8F8" offset="0%"></stop>
            <stop stop-color="#D4D4D4" offset="100%"></stop>
        </linearGradient>
        <linearGradient x1="21.549196%" y1="3.5%" x2="17.3416827%" y2="111.5%" id="linearGradient-2">
            <stop stop-color="#EEEEEE" offset="0%"></stop>
            <stop stop-color="#BFBFBF" offset="100%"></stop>
        </linearGradient>
        <linearGradient x1="50%" y1="0%" x2="50%" y2="100%" id="linearGradient-3">
            <stop stop-color="#D2D2D2" offset="0%"></stop>
            <stop stop-color="#B3B3B3" offset="100%"></stop>
        </linearGradient>
        <linearGradient x1="26.3%" y1="24.2460705%" x2="-46.4%" y2="157.208218%" id="linearGradient-4">
            <stop stop-color="#FFFFFF" offset="0%"></stop>
            <stop stop-color="#808080" offset="100%"></stop>
        </linearGradient>
        <linearGradient x1="50%" y1="12.1676772%" x2="51.4%" y2="121.871431%" id="linearGradient-5">
            <stop stop-color="#D8D8D8" offset="0%"></stop>
            <stop stop-color="#868686" offset="100%"></stop>
        </linearGradient>
        <linearGradient x1="-905.625202%" y1="38.8%" x2="135.500491%" y2="36.6%" id="linearGradient-6">
            <stop stop-color="#C5C5C5" offset="0%"></stop>
            <stop stop-color="#1F1F1F" offset="87.3%"></stop>
            <stop stop-color="#565656" offset="93.4%"></stop>
            <stop stop-color="#1A1A1A" offset="100%"></stop>
        </linearGradient>
        <linearGradient x1="100.7%" y1="-0.897365917%" x2="3.4%" y2="110.532725%" id="linearGradient-7">
            <stop stop-color="#C2C2C2" offset="0%"></stop>
            <stop stop-color="#A6A6A6" offset="100%"></stop>
        </linearGradient>
        <linearGradient x1="116.61896%" y1="149.1%" x2="-0.0894436539%" y2="10.6%" id="linearGradient-8">
            <stop stop-color="#D2D2D2" offset="0%"></stop>
            <stop stop-color="#A0A0A0" offset="100%"></stop>
        </linearGradient>
        <linearGradient x1="86.7%" y1="-0.205867431%" x2="0.7%" y2="93.4789375%" id="linearGradient-9">
            <stop stop-color="#D9D9D9" offset="0%"></stop>
            <stop stop-color="#C2C2C2" offset="100%"></stop>
        </linearGradient>
        <linearGradient x1="104.9%" y1="-16.1496066%" x2="-5.9%" y2="104.109218%" id="linearGradient-10">
            <stop stop-color="#E3E3E3" offset="0%"></stop>
            <stop stop-color="#AFAFAF" offset="100%"></stop>
        </linearGradient>
        <polygon id="path-11" points="0 0 3.82288316 0 3.82288316 7.08831568 0 7.08831568"></polygon>
        <linearGradient x1="-5.19856691%" y1="-54.1%" x2="-0.0894436539%" y2="144.6%" id="linearGradient-13">
            <stop stop-color="#D1D1D1" offset="0%"></stop>
            <stop stop-color="#111111" offset="100%"></stop>
        </linearGradient>
        <linearGradient x1="-5.1%" y1="-53.9141108%" x2="0%" y2="144.431075%" id="linearGradient-14">
            <stop stop-color="#D1D1D1" offset="0%"></stop>
            <stop stop-color="#111111" offset="100%"></stop>
        </linearGradient>
        <linearGradient x1="38.9%" y1="191.047684%" x2="21.1%" y2="-63.3971469%" id="linearGradient-15">
            <stop stop-color="#FFFFFF" offset="0%"></stop>
            <stop stop-color="#D9D9D9" offset="93.7%"></stop>
            <stop stop-color="#000000" offset="100%"></stop>
        </linearGradient>
        <linearGradient x1="157.892662%" y1="28%" x2="-4.19677803%" y2="10.8%" id="linearGradient-16">
            <stop stop-color="#E8E8E8" offset="0%"></stop>
            <stop stop-color="#EBEBEB" offset="100%"></stop>
        </linearGradient>
    </defs>
    <g id="光储充及工商储管理系统V1.3" stroke="none" stroke-width="1" fill="none" fill-rule="evenodd">
        <g id="3_2_5.设备监视_站点拓扑_示范站储能系统能量流" transform="translate(-536.000000, -477.000000)">
            <g id="main" transform="translate(212.000000, 102.000000)">
                <g transform="translate(53.000000, 40.000000)" id="拓扑图">
                    <g transform="translate(0.000000, 79.000000)">
                        <g id="编组-2" transform="translate(271.000000, 256.000000)">
                            <g id="分控箱" transform="translate(0.000000, 16.000000)">
                                <polygon id="路径_11614" fill="url(#linearGradient-1)" fill-rule="nonzero" points="57.800342 0 3.52998335 10.0145858 27.5385479 35.5775011 89.9600021 20.5317467"></polygon>
                                <polygon id="路径_11615" fill="url(#linearGradient-2)" fill-rule="nonzero" points="3.52998335 10.0813023 4.74313972 28.3887144 27.9720843 56.6670248 27.6168488 35.5829197"></polygon>
                                <polygon id="投影" fill="url(#linearGradient-3)" fill-rule="nonzero" points="4.74551248 28.4537375 0 29.2854924 22.465595 58 28.2544423 56.9721596"></polygon>
                                <polygon id="路径_11617" fill="url(#linearGradient-4)" fill-rule="nonzero" points="27.6453219 35.5077367 90 20.5117656 89.2203801 36.8735621 27.7392153 57.1184618 27.9822533 56.8698836"></polygon>
                                <polyline id="路径_11618" fill="url(#linearGradient-5)" fill-rule="nonzero" points="27.5710885 35.4626946 27.6920991 57.103222 89.9830517 40.453901 89.9830517 32.8841191 89.9684762 20.4944938"></polyline>
                                <polygon id="路径_77" fill="url(#linearGradient-6)" fill-rule="nonzero" points="31.8627266 41.9941376 30.1679008 42.4015332 30.1679008 50.1220352 31.8591586 49.7288164"></polygon>
                                <polygon id="路径_77备份" fill="url(#linearGradient-6)" fill-rule="nonzero" points="88.8088764 27.092992 87.1140505 27.5003876 87.1140505 35.2208896 88.8053083 34.8276708"></polygon>
                                <polygon id="路径_11634" fill="url(#linearGradient-7)" fill-rule="nonzero" points="58.9071079 39.4350312 61.4198567 41.6417554 89.4990095 34.4053906 87.3052268 32.5271689"></polygon>
                                <polygon id="路径_11635" fill="url(#linearGradient-8)" fill-rule="nonzero" points="58.9071079 39.4350312 59.0426939 45.3192904 61.4198567 47.1297796 61.4198567 41.6417554"></polygon>
                                <polygon id="路径_11633" fill="url(#linearGradient-9)" fill-rule="nonzero" points="61.4198567 41.6417554 89.3959641 34.4416274 89.3959641 39.5174995 61.4198567 47.2835323"></polygon>
                                <polygon id="路径_11632" fill="url(#linearGradient-10)" fill-rule="nonzero" points="61.592729 43.7302864 89.0742861 36.2223143 89.0742861 39.2834838 61.592729 46.9465632"></polygon>
                                <g id="把手" transform="translate(42.669411, 37.389782)">
                                    <path d="M0.839752329,3.24228971 C0.839752329,4.18343252 1.50107339,4.56510504 2.31696257,4.09436431 C3.13285175,3.62362357 3.79417281,2.47928332 3.79417281,1.53814051 C3.79417281,0.596997699 3.13285175,0.215325174 2.31696257,0.686065911 C1.50107339,1.15646798 0.839752329,2.3011469 0.839752329,3.24228971" id="Fill-1" fill="#363333"></path>
                                    <path d="M3.37100869,0.588260209 L2.53139194,0.103972977 C2.26327049,-0.0565530008 1.89006983,-0.0365719192 1.47721024,0.201507748 C0.66132106,0.672248485 0,1.81658874 0,2.75807021 C0,3.22271502 0.161347424,3.55121755 0.423028541,3.70767958 L1.26298425,4.19196681 C1.00096417,4.03550478 0.839616743,3.70734092 0.839616743,3.24235744 C0.839616743,2.30121463 1.50127677,1.15653572 2.31682698,0.686133643 C2.72968657,0.448053976 3.10288723,0.428072894 3.37100869,0.588260209" id="Fill-3" fill="#D2D1CE"></path>
                                    <path d="M4.56348818,10.0236995 C4.49976272,9.84048312 4.36044804,9.73244981 4.21367612,9.73177249 L3.95436775,9.7307565 C4.10080071,9.73143383 4.24045436,9.83946713 4.30384085,10.0226835 C4.39061594,10.2722777 4.30282396,10.5652207 4.10859691,10.6773179 C4.0570742,10.7067815 4.00317874,10.7210054 3.94996121,10.7206667 L4.20960853,10.7216886 C4.26282607,10.7220213 4.31672153,10.7077975 4.36790527,10.6783339 C4.56247128,10.5662366 4.65026326,10.2732937 4.56348818,10.0236995" id="Fill-5" fill="#363333"></path>
                                    <path d="M2.2437122,0.566043956 L1.95321904,0.397390081 C1.09902679,0.936540622 0.404826111,2.15301596 0.379064757,3.15037673 C0.366184081,3.70578307 0.553292858,4.0945675 0.862090135,4.27371991 L0.905477677,4.29911959 C1.01360757,4.3648201 1.07157061,4.50671965 1.07190958,4.68519473 L1.09089163,5.28157922 C1.09258645,5.34016781 1.10343334,5.39807908 1.12275436,5.45361972 L2.88503431,10.5240732 C3.0612962,11.0310508 3.4487334,11.3321217 3.85481368,11.333815 L4.11446101,11.334831 C2.35828243,7.79614754 1.68136897,4.2090354 2.2437122,0.566043956" id="Fill-7" fill="#302E2D"></path>
                                    <g id="编组" transform="translate(1.364165, 4.246322)">
                                        <mask id="mask-12" fill="white">
                                            <use xlink:href="#path-11"></use>
                                        </mask>
                                        <g id="Clip-10"></g>
                                        <path d="M3.0039094,6.43187631 C3.19813644,6.31977905 3.28626739,6.02717474 3.19949231,5.77724189 C3.11237826,5.5276477 2.88459366,5.41724376 2.69002764,5.52934101 C2.49681749,5.64076094 2.40902551,5.93336525 2.4958006,6.1832981 C2.58257568,6.43289229 2.81069925,6.54329624 3.0039094,6.43187631 L3.0039094,6.43187631 Z M0,1.15720942 L1.93854185,0 L3.72997281,5.15410307 C3.97029912,5.84497437 3.72861695,6.6570868 3.19000128,6.96764022 C2.65274148,7.27785498 2.02057142,6.96933354 1.78058407,6.2788009 L0,1.15720942 Z" id="Fill-9" fill="#4F4A4A" mask="url(#mask-12)"></path>
                                    </g>
                                    <path d="M3.21616939,0.232461492 C2.91415142,0.0570343682 2.49620736,0.0817567234 2.03453679,0.348284032 C2.00741957,0.363862503 1.98064132,0.380118298 1.95318514,0.397390081 C1.56778174,0.640888346 1.21559692,1.02256087 0.941713055,1.45943537 L1.23288414,1.62741192 L3.50666255,0.401115367 L3.21616939,0.232461492 Z" id="Fill-11" fill="#4F4A4A"></path>
                                    <path d="M3.99122427,1.46590382 C3.98816258,0.412663755 3.24243919,-0.0123575576 2.32519942,0.516971774 C2.29808221,0.532550244 2.270965,0.54880604 2.24384778,0.566077822 C1.38965554,1.10522836 0.695454854,2.32170371 0.6696935,3.31906447 C0.656134893,3.89241992 0.856124347,4.28831626 1.18288678,4.45934078 C1.29982976,4.521316 1.36219936,4.66795681 1.36253832,4.85388247 L1.36423315,5.40353155 L3.31091016,4.28086569 L3.30921533,3.73121662 C3.3085374,3.54529096 3.3688732,3.32888568 3.48479929,3.13280015 C3.79868105,2.60482547 3.9929081,2.00505436 3.99122427,1.46590382" id="Fill-13" fill="#3A3737"></path>
                                    <polygon id="Fill-15" fill="#4C4646" points="4.68310899 8.81118649 3.24216802 4.6903424 1.64801479 5.61014948 3.08895576 9.7306549"></polygon>
                                    <polygon id="Fill-17" fill="#363333" points="3.24206633 4.69041013 3.15969779 4.73816153 4.57284362 8.77941995 3.06105893 9.65147563 3.08885407 9.73072264 4.6830073 8.81125422"></polygon>
                                </g>
                                <g id="组_6735" transform="translate(62.563311, 36.869498)" fill-rule="nonzero">
                                    <g id="组_6719-2" transform="translate(9.903207, 3.985379)">
                                        <polygon id="路径_11623-37" fill="#574E4E" points="0.105926618 0.348822272 1.38619809 0 1.38619809 2.06990459 0.105926618 2.41872686"></polygon>
                                        <polygon id="路径_11624-37" fill="url(#linearGradient-13)" points="0.23371649 0.319358643 0.111689026 0.350854247 0.105248687 2.41669489 0.23371649 2.38282865"></polygon>
                                        <polygon id="路径_11625-37" fill="url(#linearGradient-14)" points="0.234733385 2.26192617 0.234733385 2.38519929 1.38721499 2.07600051 1.38721499 1.96593523"></polygon>
                                    </g>
                                    <g id="组_6712-2" transform="translate(0.000000, 6.583258)">
                                        <polygon id="路径_11623-39" fill="#574E4E" points="0.105926618 0.348822272 1.38619809 0 1.38619809 2.06990459 0.105926618 2.41872686"></polygon>
                                        <polygon id="路径_11624-39" fill="url(#linearGradient-13)" points="0.23371649 0.319358643 0.111689026 0.350854247 0.105248687 2.41669489 0.23371649 2.38282865"></polygon>
                                        <polygon id="路径_11625-39" fill="url(#linearGradient-14)" points="0.234733385 2.26192617 0.234733385 2.38519929 1.38721499 2.07600051 1.38721499 1.96593523"></polygon>
                                    </g>
                                    <g id="组_6724-2" transform="translate(19.806074, 1.290981)">
                                        <polygon id="路径_11623-40" fill="#574E4E" points="0.105926618 0.348822272 1.38619809 0 1.38619809 2.06990459 0.105926618 2.41872686"></polygon>
                                        <polygon id="路径_11624-40" fill="url(#linearGradient-13)" points="0.23371649 0.319358643 0.111689026 0.350854247 0.105248687 2.41669489 0.23371649 2.38282865"></polygon>
                                        <polygon id="路径_11625-40" fill="url(#linearGradient-14)" points="0.234733385 2.26192617 0.234733385 2.38519929 1.38721499 2.07600051 1.38721499 1.96593523"></polygon>
                                    </g>
                                    <g id="组_6721-2" transform="translate(14.854471, 2.694398)">
                                        <polygon id="路径_11623-43" fill="#574E4E" points="0.105926618 0.348822272 1.38619809 0 1.38619809 2.06990459 0.105926618 2.41872686"></polygon>
                                        <polygon id="路径_11624-43" fill="url(#linearGradient-13)" points="0.23371649 0.319358643 0.111689026 0.350854247 0.105248687 2.41669489 0.23371649 2.38282865"></polygon>
                                        <polygon id="路径_11625-43" fill="url(#linearGradient-14)" points="0.234733385 2.26192617 0.234733385 2.38519929 1.38721499 2.07600051 1.38721499 1.96593523"></polygon>
                                    </g>
                                    <g id="组_6715-2" transform="translate(4.951603, 5.292277)">
                                        <polygon id="路径_11623-45" fill="#574E4E" points="0.105926618 0.348822272 1.38619809 0 1.38619809 2.06990459 0.105926618 2.41872686"></polygon>
                                        <polygon id="路径_11624-45" fill="url(#linearGradient-13)" points="0.23371649 0.319358643 0.111689026 0.350854247 0.105248687 2.41669489 0.23371649 2.38282865"></polygon>
                                        <polygon id="路径_11625-45" fill="url(#linearGradient-14)" points="0.234733385 2.26192617 0.234733385 2.38519929 1.38721499 2.07600051 1.38721499 1.96593523"></polygon>
                                    </g>
                                    <g id="组_6727-2" transform="translate(24.757678, 0.000000)">
                                        <polygon id="路径_11623-46" fill="#574E4E" points="0.105926618 0.348822272 1.38619809 0 1.38619809 2.06990459 0.105926618 2.41872686"></polygon>
                                        <polygon id="路径_11624-46" fill="url(#linearGradient-13)" points="0.23371649 0.319358643 0.111689026 0.350854247 0.105248687 2.41669489 0.23371649 2.38282865"></polygon>
                                        <polygon id="路径_11625-46" fill="url(#linearGradient-14)" points="0.234733385 2.26192617 0.234733385 2.38519929 1.38721499 2.07600051 1.38721499 1.96593523"></polygon>
                                    </g>
                                    <g id="组_6720-2" transform="translate(11.515325, 3.640282)">
                                        <polygon id="路径_11623-49" fill="#574E4E" points="0.105926618 0.348822272 1.38619809 0 1.38619809 2.06990459 0.105926618 2.41872686"></polygon>
                                        <polygon id="路径_11624-49" fill="url(#linearGradient-13)" points="0.23371649 0.319358643 0.111689026 0.350854247 0.105248687 2.41669489 0.23371649 2.38282865"></polygon>
                                        <polygon id="路径_11625-49" fill="url(#linearGradient-14)" points="0.234733385 2.26192617 0.234733385 2.38519929 1.38721499 2.07600051 1.38721499 1.96593523"></polygon>
                                    </g>
                                    <g id="组_6713-2" transform="translate(1.612118, 6.123016)">
                                        <polygon id="路径_11623-51" fill="#574E4E" points="0.105926618 0.348822272 1.38619809 0 1.38619809 2.06990459 0.105926618 2.41872686"></polygon>
                                        <polygon id="路径_11624-51" fill="url(#linearGradient-13)" points="0.23371649 0.319358643 0.111689026 0.350854247 0.105248687 2.41669489 0.23371649 2.38282865"></polygon>
                                        <polygon id="路径_11625-51" fill="url(#linearGradient-14)" points="0.234733385 2.26192617 0.234733385 2.38519929 1.38721499 2.07600051 1.38721499 1.96593523"></polygon>
                                    </g>
                                    <g id="组_6725-2" transform="translate(21.418193, 0.830739)">
                                        <polygon id="路径_11623-52" fill="#574E4E" points="0.105926618 0.348822272 1.38619809 0 1.38619809 2.06990459 0.105926618 2.41872686"></polygon>
                                        <polygon id="路径_11624-52" fill="url(#linearGradient-13)" points="0.23371649 0.319358643 0.111689026 0.350854247 0.105248687 2.41669489 0.23371649 2.38282865"></polygon>
                                        <polygon id="路径_11625-52" fill="url(#linearGradient-14)" points="0.234733385 2.26192617 0.234733385 2.38519929 1.38721499 2.07600051 1.38721499 1.96593523"></polygon>
                                    </g>
                                    <g id="组_6722-2" transform="translate(16.466589, 2.234156)">
                                        <polygon id="路径_11623-55" fill="#574E4E" points="0.105926618 0.348822272 1.38619809 0 1.38619809 2.06990459 0.105926618 2.41872686"></polygon>
                                        <polygon id="路径_11624-55" fill="url(#linearGradient-13)" points="0.23371649 0.319358643 0.111689026 0.350854247 0.105248687 2.41669489 0.23371649 2.38282865"></polygon>
                                        <polygon id="路径_11625-55" fill="url(#linearGradient-14)" points="0.234733385 2.26192617 0.234733385 2.38519929 1.38721499 2.07600051 1.38721499 1.96593523"></polygon>
                                    </g>
                                    <g id="组_6716-2" transform="translate(6.563722, 4.832035)">
                                        <polygon id="路径_11623-57" fill="#574E4E" points="0.105926618 0.348822272 1.38619809 0 1.38619809 2.06990459 0.105926618 2.41872686"></polygon>
                                        <polygon id="路径_11624-57" fill="url(#linearGradient-13)" points="0.23371649 0.319358643 0.111689026 0.350854247 0.105248687 2.41669489 0.23371649 2.38282865"></polygon>
                                        <polygon id="路径_11625-57" fill="url(#linearGradient-14)" points="0.234733385 2.26192617 0.234733385 2.38519929 1.38721499 2.07600051 1.38721499 1.96593523"></polygon>
                                    </g>
                                    <g id="组_6730-2" transform="translate(13.127443, 3.180040)">
                                        <polygon id="路径_11623-60" fill="#574E4E" points="0.105926618 0.348822272 1.38619809 0 1.38619809 2.06990459 0.105926618 2.41872686"></polygon>
                                        <polygon id="路径_11624-60" fill="url(#linearGradient-13)" points="0.23371649 0.319358643 0.111689026 0.350854247 0.105248687 2.41669489 0.23371649 2.38282865"></polygon>
                                        <polygon id="路径_11625-60" fill="url(#linearGradient-14)" points="0.234733385 2.26192617 0.234733385 2.38519929 1.38721499 2.07600051 1.38721499 1.96593523"></polygon>
                                    </g>
                                    <g id="组_6714-2" transform="translate(3.224237, 5.777919)">
                                        <polygon id="路径_11623-62" fill="#574E4E" points="0.105926618 0.348822272 1.38619809 0 1.38619809 2.06990459 0.105926618 2.41872686"></polygon>
                                        <polygon id="路径_11624-62" fill="url(#linearGradient-13)" points="0.23371649 0.319358643 0.111689026 0.350854247 0.105248687 2.41669489 0.23371649 2.38282865"></polygon>
                                        <polygon id="路径_11625-62" fill="url(#linearGradient-14)" points="0.234733385 2.26192617 0.234733385 2.38519929 1.38721499 2.07600051 1.38721499 1.96593523"></polygon>
                                    </g>
                                    <g id="组_6726-2" transform="translate(23.030311, 0.485642)">
                                        <polygon id="路径_11623-63" fill="#574E4E" points="0.105926618 0.348822272 1.38619809 0 1.38619809 2.06990459 0.105926618 2.41872686"></polygon>
                                        <polygon id="路径_11624-63" fill="url(#linearGradient-13)" points="0.23371649 0.319358643 0.111689026 0.350854247 0.105248687 2.41669489 0.23371649 2.38282865"></polygon>
                                        <polygon id="路径_11625-63" fill="url(#linearGradient-14)" points="0.234733385 2.26192617 0.234733385 2.38519929 1.38721499 2.07600051 1.38721499 1.96593523"></polygon>
                                    </g>
                                    <g id="组_6723-2" transform="translate(18.078708, 1.774252)">
                                        <polygon id="路径_11623-66" fill="#574E4E" points="0.105926618 0.348822272 1.38619809 0 1.38619809 2.06990459 0.105926618 2.41872686"></polygon>
                                        <polygon id="路径_11624-66" fill="url(#linearGradient-13)" points="0.23371649 0.319358643 0.111689026 0.350854247 0.105248687 2.41669489 0.23371649 2.38282865"></polygon>
                                        <polygon id="路径_11625-66" fill="url(#linearGradient-14)" points="0.234733385 2.26192617 0.234733385 2.38519929 1.38721499 2.07600051 1.38721499 1.96593523"></polygon>
                                    </g>
                                    <g id="组_6717-2" transform="translate(8.175840, 4.371793)">
                                        <polygon id="路径_11623-68" fill="#574E4E" points="0.105926618 0.348822272 1.38619809 0 1.38619809 2.06990459 0.105926618 2.41872686"></polygon>
                                        <polygon id="路径_11624-68" fill="url(#linearGradient-13)" points="0.23371649 0.319358643 0.111689026 0.350854247 0.105248687 2.41669489 0.23371649 2.38282865"></polygon>
                                        <polygon id="路径_11625-68" fill="url(#linearGradient-14)" points="0.234733385 2.26192617 0.234733385 2.38519929 1.38721499 2.07600051 1.38721499 1.96593523"></polygon>
                                    </g>
                                </g>
                                <g id="按钮" transform="translate(76.267165, 29.463629)">
                                    <path d="M1.3556153,0.178536384 C0.608603539,0.595964196 0,1.61555181 0,2.45088233 C0,3.28573795 0.608603539,3.62575878 1.3556153,3.20785608 C2.10311788,2.79042827 2.71172142,1.77131555 2.71172142,0.936459921 C2.71172142,0.100654517 2.10311788,-0.238891428 1.3556153,0.178536384" id="Fill-29" fill="#A7A9AC"></path>
                                    <path d="M2.09948589,1.27814287 C2.09948589,1.73688606 1.76622637,2.29535604 1.35541898,2.52377785 C0.9451024,2.75362434 0.6128245,2.56794257 0.6128245,2.10919938 C0.6128245,1.65045618 0.9451024,1.0924611 1.35541898,0.863089503 C1.76622637,0.633243017 2.09948589,0.819399675 2.09948589,1.27814287" id="Fill-43" fill="#303033"></path>
                                    <path d="M1.8943276,0.864704127 L2.41949356,1.1581858 L1.40351829,2.86018953 L0.878843143,2.56670786 C0.747797059,2.49452466 0.66877676,2.34161027 0.670739998,2.11698756 C0.667795142,1.67249105 0.987802809,1.13586599 1.38732158,0.91266796 C1.58659016,0.802018722 1.76573556,0.793945601 1.8943276,0.864704127" id="Fill-45" fill="#A84D0F"></path>
                                    <path d="M1.91400905,1.20624461 C1.51498108,1.43039242 1.1939918,1.96749237 1.19545918,2.41008932 C1.1939918,2.8560105 1.51498108,3.03551871 1.91400905,2.81184578 C2.31156459,2.5910222 2.63206307,2.05344736 2.63304468,1.60800107 C2.63157226,1.16397945 2.31058297,0.984946132 1.91400905,1.20624461" id="Fill-47" fill="#DA6F27"></path>
                                </g>
                                <g id="按钮备份" transform="translate(81.351642, 28.108979)">
                                    <path d="M1.3556153,0.178536384 C0.608603539,0.595964196 0,1.61555181 0,2.45088233 C0,3.28573795 0.608603539,3.62575878 1.3556153,3.20785608 C2.10311788,2.79042827 2.71172142,1.77131555 2.71172142,0.936459921 C2.71172142,0.100654517 2.10311788,-0.238891428 1.3556153,0.178536384" id="Fill-29" fill="#A7A9AC"></path>
                                    <path d="M2.09948589,1.27814287 C2.09948589,1.73688606 1.76622637,2.29535604 1.35541898,2.52377785 C0.9451024,2.75362434 0.6128245,2.56794257 0.6128245,2.10919938 C0.6128245,1.65045618 0.9451024,1.0924611 1.35541898,0.863089503 C1.76622637,0.633243017 2.09948589,0.819399675 2.09948589,1.27814287" id="Fill-43" fill="#303033"></path>
                                    <path d="M1.8943276,0.864704127 L2.41949356,1.1581858 L1.40351829,2.86018953 L0.878843143,2.56670786 C0.747797059,2.49452466 0.66877676,2.34161027 0.670739998,2.11698756 C0.667795142,1.67249105 0.987802809,1.13586599 1.38732158,0.91266796 C1.58659016,0.802018722 1.76573556,0.793945601 1.8943276,0.864704127" id="Fill-45" fill="#535359"></path>
                                    <path d="M1.91400905,1.20624461 C1.51498108,1.43039242 1.1939918,1.96749237 1.19545918,2.41008932 C1.1939918,2.8560105 1.51498108,3.03551871 1.91400905,2.81184578 C2.31156459,2.5910222 2.63206307,2.05344736 2.63304468,1.60800107 C2.63157226,1.16397945 2.31058297,0.984946132 1.91400905,1.20624461" id="Fill-47" fill="#303033"></path>
                                </g>
                                <g id="编组-120" transform="translate(10.856038, 2.912497)" fill-rule="nonzero">
                                    <polygon id="路径_11636" fill="url(#linearGradient-15)" points="0 8.19021149 6.25221269 7.0804148 46.1443464 0 46.6866907 0.255012787 0.416249237 8.56138548"></polygon>
                                    <polygon id="路径_11637" fill="url(#linearGradient-16)" points="0.438281974 8.50855415 0.865378097 8.50855415 19.974201 28.2996462 19.4440594 28.2996462"></polygon>
                                </g>
                            </g>
                        </g>
                    </g>
                </g>
            </g>
        </g>
    </g>
</svg>