<?xml version="1.0" encoding="UTF-8"?>
<svg width="100px" height="100px" viewBox="0 0 100 100" version="1.1" xmlns="http://www.w3.org/2000/svg" xmlns:xlink="http://www.w3.org/1999/xlink">
    <title>icon_储能pcs</title>
    <defs>
        <linearGradient x1="103.048256%" y1="32.3235272%" x2="-3.24240662e-13%" y2="32.3235272%" id="linearGradient-1">
            <stop stop-color="#C6C6C6" offset="0%"></stop>
            <stop stop-color="#7B7B7B" offset="78.6603184%"></stop>
            <stop stop-color="#A2A1A1" offset="100%"></stop>
        </linearGradient>
        <linearGradient x1="47.6507839%" y1="3.5%" x2="47.3033646%" y2="111.5%" id="linearGradient-2">
            <stop stop-color="#EEEEEE" offset="0%"></stop>
            <stop stop-color="#BFBFBF" offset="100%"></stop>
        </linearGradient>
        <linearGradient x1="50%" y1="0%" x2="50%" y2="100%" id="linearGradient-3">
            <stop stop-color="#F8F8F8" offset="0%"></stop>
            <stop stop-color="#D4D4D4" offset="100%"></stop>
        </linearGradient>
        <linearGradient x1="50%" y1="0%" x2="57.0098383%" y2="126%" id="linearGradient-4">
            <stop stop-color="#F8F8F8" offset="0%"></stop>
            <stop stop-color="#DBDBDB" offset="100%"></stop>
        </linearGradient>
        <linearGradient x1="-22.4%" y1="50%" x2="119.3%" y2="50%" id="linearGradient-5">
            <stop stop-color="#1B1B1B" offset="0%"></stop>
            <stop stop-color="#505050" offset="51.1%"></stop>
            <stop stop-color="#383838" offset="100%"></stop>
        </linearGradient>
        <linearGradient x1="-22.4%" y1="50%" x2="119.3%" y2="50%" id="linearGradient-6">
            <stop stop-color="#1B1B1B" offset="0%"></stop>
            <stop stop-color="#505050" offset="51.1%"></stop>
            <stop stop-color="#383838" offset="100%"></stop>
        </linearGradient>
        <linearGradient x1="50%" y1="48.6883051%" x2="52.3190437%" y2="51.3299831%" id="linearGradient-7">
            <stop stop-color="#8E8E90" offset="0%"></stop>
            <stop stop-color="#1B1B1E" offset="100%"></stop>
        </linearGradient>
        <linearGradient x1="50%" y1="48.6904097%" x2="52.3190437%" y2="51.3278492%" id="linearGradient-8">
            <stop stop-color="#8E8E90" offset="0%"></stop>
            <stop stop-color="#1B1B1E" offset="100%"></stop>
        </linearGradient>
        <linearGradient x1="50%" y1="48.689828%" x2="52.3190437%" y2="51.3284389%" id="linearGradient-9">
            <stop stop-color="#8E8E90" offset="0%"></stop>
            <stop stop-color="#1B1B1E" offset="100%"></stop>
        </linearGradient>
        <linearGradient x1="50%" y1="48.6886162%" x2="52.3190437%" y2="51.3296677%" id="linearGradient-10">
            <stop stop-color="#8E8E90" offset="0%"></stop>
            <stop stop-color="#1B1B1E" offset="100%"></stop>
        </linearGradient>
        <linearGradient x1="50%" y1="0%" x2="50%" y2="96.2631119%" id="linearGradient-11">
            <stop stop-color="#5F5F67" offset="0%"></stop>
            <stop stop-color="#1B1B1E" offset="100%"></stop>
        </linearGradient>
    </defs>
    <g id="光储充及工商储管理系统V1.3" stroke="none" stroke-width="1" fill="none" fill-rule="evenodd">
        <g id="3_2_5.设备监视_站点拓扑_示范站储能系统能量流" transform="translate(-529.000000, -318.000000)">
            <g id="main" transform="translate(212.000000, 102.000000)">
                <g transform="translate(53.000000, 40.000000)" id="拓扑图">
                    <g transform="translate(0.000000, 79.000000)">
                        <g id="编组1" transform="translate(104.000000, 97.000000)">
                            <g id="icon_储能pcs" transform="translate(160.000000, 0.000000)">
                                <rect id="BG" x="0" y="0" width="100" height="100"></rect>
                                <g id="icon" transform="translate(17.025768, 0.000000)">
                                    <g id="路径_11692" opacity="0.2" transform="translate(36.387100, 44.097136)">
                                        <path d="M8.74696847,4.41835049 C8.74696847,4.41835049 8.7065696,4.169399 8.62891399,3.79036475 C8.55125838,3.4113305 8.43634604,2.90490486 8.28642134,2.38816232 C8.14937381,1.88605521 7.96495683,1.39807628 7.73565005,0.930786848 C7.51884278,0.515867701 7.27016528,0.213088864 6.9927597,0.14311331 C6.6878911,0.100502452 6.38607563,0.239043941 6.21979462,0.497925251 C5.94990158,0.8391149 5.72161281,1.21119779 5.53974695,1.60632007 C5.32338855,2.03918167 5.1155588,2.50344255 4.9086268,2.90714767 C4.75445051,3.25050231 4.54182074,3.56451813 4.28019991,3.83522088 C4.09449534,4.00081443 3.87003032,4.11697915 3.6275337,4.17298749 C3.41459923,4.21819727 3.19453509,4.21819727 2.98160063,4.17298749 C2.77644711,4.12904723 2.57735171,4.06051974 2.38863497,3.96889212 C2.20459567,3.88231981 2.03761366,3.78498202 1.89487099,3.69975538 C1.68690883,3.53796214 1.50938456,3.3405139 1.37058341,3.11662577 C1.17307781,2.83448075 0.963901435,2.49357421 0.772231233,2.15894752 C0.580561031,1.82432084 0.405948131,1.50315099 0.278467248,1.26182504 C0.150986364,1.0204991 0.075126261,0.867539713 0.075126261,0.867539713" id="路径"></path>
                                        <path d="M3.22200747,4.33094141 C3.08353563,4.32325289 2.9482151,4.29878722 2.81834256,4.26356927 C2.68837006,4.22832479 2.56386053,4.18231349 2.44712111,4.13157819 C2.3302995,4.08080654 2.22126941,4.02530833 2.12234783,3.97114308 C2.02336675,3.91694533 1.93451729,3.86408824 1.8581218,3.81864246 C1.71111978,3.73122363 1.52514679,3.51507086 1.3279144,3.2381449 C1.13042601,2.96086046 0.921609394,2.62259088 0.729390211,2.29168341 C0.536921241,1.96034559 0.361131732,1.63645523 0.230156078,1.38880534 C0.0990630756,1.14093365 0.0129436031,0.969589153 -2.4917643e-17,0.943747524 L0.150263377,0.791393416 C0.153357231,0.797575391 0.232633013,0.955410234 0.358274821,1.1936562 C0.483808859,1.43169769 0.655551069,1.74986434 0.843749012,2.07708262 C1.03170798,2.40388553 1.23604364,2.73965217 1.42721932,3.01376675 C1.6181541,3.28753653 1.79600456,3.49987008 1.93145115,3.58053466 C2.00952322,3.62704433 2.09778364,3.67962165 2.19428934,3.7327722 C2.29073811,3.78589067 2.39541289,3.83957679 2.50637556,3.88834558 C2.61726396,3.93708142 2.73442482,3.98090377 2.85592601,4.01434215 C2.97734072,4.04775701 3.1030857,4.07080159 3.23123799,4.0780204 C3.31371673,4.08266653 3.39718777,4.08076205 3.48114575,4.0708525 C3.56506306,4.06094765 3.64946668,4.04304542 3.7338506,4.01569223 C3.81819428,3.9883523 3.90252041,3.95157166 3.98632471,3.90389714 C4.07009176,3.85624572 4.1533387,3.79770898 4.23556423,3.7268393 C4.3141622,3.65909842 4.39226659,3.56796388 4.47027552,3.45871024 C4.54825448,3.34949938 4.62614012,3.22218053 4.70432884,3.08202332 C4.78248888,2.94191831 4.86095243,2.78898156 4.94011718,2.62847971 C5.01925239,2.46803583 5.09908665,2.30003134 5.18001467,2.12972753 C5.24487806,1.99322721 5.31027398,1.85560547 5.37645372,1.71955753 C5.44261249,1.58355108 5.50955336,1.44911802 5.57752634,1.31895282 C5.64547791,1.18882858 5.71445945,1.06297136 5.78471881,0.944072424 C5.85495462,0.825213488 5.92646741,0.713311024 5.99950288,0.611054281 C6.07627037,0.503572296 6.1523311,0.410432696 6.22789353,0.331506345 C6.30342558,0.252611008 6.37845891,0.187918706 6.45319986,0.137300143 C6.52790999,0.0867020062 6.60232816,0.0501669671 6.67665773,0.0275653542 C6.7509569,0.00497331294 6.82516831,-0.0036964244 6.89949744,0.00142604318 C6.90863485,0.0020557373 6.9177714,0.00289338663 6.92690924,0.00393893768 C6.93604579,0.00498448873 6.94518576,0.00623783457 6.95432488,0.00769897518 C6.96346614,0.00916006233 6.97260869,0.0108288908 6.98175508,0.012705514 C6.99090277,0.0145819768 7.00005259,0.0166662879 7.00920883,0.0189581264 C7.29763711,0.0911825879 7.55424991,0.391070778 7.77725487,0.802408144 C7.99991651,1.2131086 8.18913296,1.73501926 8.34314654,2.25263916 C8.49697689,2.76963215 8.61575334,3.28255844 8.69772331,3.67644794 C8.77963506,4.07005426 8.82483964,4.34501926 8.83153912,4.3864978 L8.66181751,4.45049517 C8.66141683,4.44802345 8.65100417,4.38423783 8.63103415,4.27418466 C8.61105899,4.16411096 8.58151963,4.00773336 8.54287155,3.82008408 C8.50421062,3.63237064 8.4564247,3.41333847 8.39996755,3.17802665 C8.34348472,2.94260382 8.27831354,2.6908575 8.20490521,2.43785201 C8.10986334,2.1102838 8.01205434,1.81769912 7.91219312,1.56140377 C7.81225827,1.30491913 7.71026862,1.08478265 7.60694251,0.902305459 C7.50354276,0.719697799 7.39880911,0.574808475 7.29345903,0.468950027 C7.18803788,0.363019445 7.08200458,0.296177328 6.97608343,0.269735629 C6.96878891,0.267915206 6.96150724,0.266265093 6.95423927,0.264783312 C6.94697087,0.263301477 6.93971659,0.261987921 6.93247644,0.260840718 C6.92523544,0.259693676 6.91800856,0.25871272 6.91079624,0.257896246 C6.90358349,0.257079772 6.89638401,0.256427619 6.88919994,0.255937916 C6.74264098,0.245947511 6.60177851,0.303479074 6.46541689,0.411207622 C6.32895724,0.519015202 6.1970207,0.677081046 6.06840608,0.868030656 C5.93971012,1.05910165 5.81434892,1.28308336 5.69111058,1.52257021 C5.56780075,1.76219449 5.44662148,2.01733119 5.3263506,2.27055443 C5.24256599,2.44695755 5.15991195,2.62098092 5.07761749,2.78748989 C4.9952905,2.95406131 4.91332353,3.11311361 4.83094089,3.25950916 C4.74852615,3.40596095 4.66569402,3.53974914 4.58166841,3.65573306 C4.49760769,3.77176533 4.41234877,3.8699805 4.32511168,3.94523365 C4.23465199,4.02327123 4.14300652,4.08763521 4.05080368,4.13997683 C3.95855461,4.1923441 3.8657439,4.23267747 3.77300296,4.26262858 C3.68021408,4.29259594 3.58749412,4.31217036 3.49547451,4.32300606 C3.40340609,4.33384733 3.31203887,4.33594003 3.22200747,4.33094141 Z" id="路径" fill="#666666" fill-rule="nonzero"></path>
                                    </g>
                                    <polygon id="路径_11647" fill="url(#linearGradient-1)" fill-rule="nonzero" points="0.479848818 77.6993294 0.479848818 82.7792854 13.0959675 100 66.3075656 84.3649494 66.3075656 81.1353085 13.5812029 95.8997017"></polygon>
                                    <polygon id="路径_11646" fill="url(#linearGradient-2)" fill-rule="nonzero" points="-1.14842831e-17 78.8077242 13.6907287 96.3657568 13.6359658 11.4719537 2.72106597e-14 5.5572252"></polygon>
                                    <g id="编组" transform="translate(3.000000, 20.000000)">
                                        <path d="M7.41968292,31.2767325 L7.49256248,3.85738816 L7.41968292,31.2767325 Z" id="Fill-1" fill="#DEDEDE"></path>
                                        <path d="M1.23840862,0 L7.49190983,3.85680732 L1.23840862,0 Z" id="Fill-2" fill="#716969"></path>
                                        <polygon id="Fill-3备份" fill="#C4C0C0" points="1.0877546 27.6528438 7.34234357 31.5084894 7.41522313 4.08798342 1.16063416 0.23233779"></polygon>
                                        <polygon id="Fill-3" fill="#CCCCCC" points="-1.66296938e-13 52.1443544 6.25458896 58 6.32746852 4.57949401 0.0728795584 0.723848385"></polygon>
                                        <polygon id="路径-2" fill="#F6F6F6" points="0.0728795584 0.723848385 1.23840862 0.23233779 7.41522313 4.08798342 6.32746852 4.57949401"></polygon>
                                        <polygon id="路径-3" fill="#EAEAEA" points="6.32746852 4.57949401 7.41522313 4.08798342 7.34234357 57.5084894 6.32746852 58"></polygon>
                                    </g>
                                    <path d="" id="矩形" stroke="#979797" fill="#979797"></path>
                                    <path d="" id="矩形备份" stroke="#979797" fill="#979797"></path>
                                    <path d="" id="矩形备份-3" stroke="#979797" fill="#979797"></path>
                                    <path d="" id="矩形备份-4" stroke="#979797" fill="#B1B1B1" transform="translate(6.876924, 79.029668) rotate(-1.000000) translate(-6.876924, -79.029668) "></path>
                                    <polygon id="路径_11648" fill="url(#linearGradient-3)" fill-rule="nonzero" points="0.00493763985 5.5572252 41.896323 0 66.073701 3.9069684 13.6081354 11.653621"></polygon>
                                    <polygon id="路径_11655" fill="url(#linearGradient-4)" fill-rule="nonzero" points="13.6364146 11.6415099 13.6790579 96.2729047 66.1580898 81.1761276 66.1580898 3.9069684"></polygon>
                                    <polygon id="路径_11682" fill="url(#linearGradient-5)" fill-rule="nonzero" points="13.7203545 27.3469845 17.4428861 26.8535672 17.4428861 30.6726176 13.7203545 31.1664835"></polygon>
                                    <polygon id="路径_11685" fill="url(#linearGradient-6)" fill-rule="nonzero" points="62.777602 14.627582 66.073701 14.1341647 66.073701 17.9532151 62.777602 18.447081"></polygon>
                                    <polygon id="路径_11683" fill="url(#linearGradient-5)" fill-rule="nonzero" points="13.7203545 52.3322942 17.4428861 51.8388768 17.4428861 55.6579272 13.7203545 56.1517931"></polygon>
                                    <polygon id="路径_11686" fill="url(#linearGradient-6)" fill-rule="nonzero" points="62.777602 39.6128917 66.073701 39.1194743 66.073701 42.9385247 62.777602 43.4323906"></polygon>
                                    <polygon id="路径_11684" fill="url(#linearGradient-5)" fill-rule="nonzero" points="13.7203545 77.3171552 17.4428861 76.8237379 17.4428861 80.6427883 13.7203545 81.1366542"></polygon>
                                    <polygon id="路径_11687" fill="url(#linearGradient-6)" fill-rule="nonzero" points="62.777602 64.5982013 66.073701 64.1047839 66.073701 67.9238343 62.777602 68.4177002"></polygon>
                                    <g id="编组-6" transform="translate(22.020974, 33.902010)">
                                        <g id="编组-4" transform="translate(0.000002, 0.000249)">
                                            <g id="编组-5">
                                                <polygon id="路径" points="0 3.97425258 20.3462183 0 20.3462183 23.8248817 0 27.7991343"></polygon>
                                                <g id="PCS" transform="translate(2.233256, 5.902883)" fill="#707070" fill-rule="nonzero">
                                                    <path d="M0,1.3388581 L0,4.1948581 L0.458191604,4.1116575 L0.458191604,2.9996575 L1.23585625,2.85844547 C1.9546706,2.72791976 2.31617958,2.37027525 2.31617958,1.78627525 C2.31617958,1.20627525 1.9588742,0.983156454 1.24426344,1.11291886 L0,1.3388581 Z M0.458191604,1.6276575 L1.2064311,1.49178863 C1.42922152,1.45133329 1.59316163,1.46156427 1.69825145,1.52248157 C1.80334127,1.57539886 1.85798797,1.69347585 1.85798797,1.86947585 C1.85798797,2.04547585 1.80334127,2.18339886 1.70245504,2.28171826 C1.59736522,2.38080096 1.43342511,2.45056998 1.2064311,2.49178863 L0.458191604,2.6276575 L0.458191604,1.6276575 Z M4.04385617,0.548555564 C3.56464661,0.635572704 3.20313763,0.849217213 2.95092207,1.19901571 C2.72392807,1.50823435 2.61463466,1.87208037 2.61463466,2.29608037 C2.61463466,2.72808037 2.71972447,3.05299766 2.93831129,3.26930563 C3.18632326,3.52027045 3.55623942,3.60509932 4.04805977,3.51579226 C4.3717364,3.45701752 4.64917352,3.31863918 4.88037112,3.10065722 C5.12838309,2.86762204 5.28391602,2.57937963 5.3511735,2.2351667 L4.90559268,2.31607737 C4.84674238,2.55076369 4.74165256,2.73784639 4.59032322,2.87732549 C4.44740107,3.00727797 4.26244299,3.09286354 4.04385617,3.13255556 C3.70756876,3.19362022 3.45955679,3.13865541 3.29982027,2.96766112 C3.14849093,2.80714022 3.07282626,2.55687977 3.07282626,2.21287977 C3.07282626,1.88087977 3.14849093,1.60314022 3.30402386,1.38289782 C3.46796397,1.14112879 3.71177235,0.992856915 4.03544899,0.93408218 C4.25403581,0.894390152 4.4305867,0.906331205 4.57350885,0.972378725 C4.71643101,1.03842624 4.81311364,1.16487015 4.86355675,1.34771046 L5.30913758,1.26679978 C5.26289806,0.987196172 5.12838309,0.779622036 4.90979627,0.651314065 C4.68280226,0.51653271 4.39275437,0.485200979 4.04385617,0.548555564 Z M6.86446687,0.0363757308 C6.54499383,0.0943871575 6.28016749,0.210475577 6.06998785,0.384640989 C5.84719744,0.569096326 5.73790403,0.784942341 5.73790403,1.03694234 C5.73790403,1.28494234 5.85140103,1.45633302 6.08259863,1.54635106 C6.17507767,1.57755828 6.40207168,1.61233964 6.77198783,1.65716851 C7.10407166,1.69286716 7.30164051,1.72099167 7.368898,1.74077874 C7.55805967,1.79842987 7.6547423,1.90487378 7.6547423,2.06487378 C7.6547423,2.19287378 7.58748482,2.30508671 7.45296985,2.40151258 C7.31845488,2.49793844 7.1377004,2.57076069 6.91070639,2.61197934 C6.65849083,2.65777783 6.47353275,2.6473634 6.35162856,2.58149934 C6.2171136,2.5099252 6.13304174,2.36119137 6.099413,2.14329783 L5.64542499,2.22573512 C5.67064655,2.58115527 5.80516151,2.82072941 6.05317348,2.94369422 C6.25914952,3.04229212 6.54499383,3.06238716 6.91070639,2.99597934 C7.28902974,2.9272816 7.58328122,2.80185002 7.79346086,2.61968461 C8.00364049,2.4335192 8.10873031,2.21443649 8.10873031,1.95843649 C8.10873031,1.69443649 7.97841894,1.51409905 7.72199978,1.41266085 C7.60429919,1.36603348 7.33947285,1.3221219 6.93592795,1.27539949 C6.65428724,1.24654114 6.48193994,1.21783678 6.41468245,1.19404971 C6.26335312,1.14552881 6.19189204,1.05850505 6.19189204,0.93050505 C6.19189204,0.78650505 6.25494593,0.671055426 6.38525731,0.583392871 C6.49034712,0.508310165 6.64167646,0.452831068 6.83924532,0.41695558 C7.06623932,0.375736935 7.23438303,0.385204605 7.35208363,0.447831974 C7.46978422,0.506459343 7.54544889,0.628719795 7.58748482,0.805086712 L8.04147283,0.722649422 C8.01204768,0.41599258 7.89434708,0.20936521 7.68416745,0.0995306228 C7.48659859,-0.00859388965 7.21336507,-0.0269788537 6.86446687,0.0363757308 Z" id="形状结合"></path>
                                                </g>
                                            </g>
                                            <polygon id="路径_11689" fill="#D2D2D2" fill-rule="nonzero" points="1.65949587 23.9890551 17.8762762 20.866396 17.8762762 21.6693207 1.65949587 24.7924283"></polygon>
                                            <polygon id="路径_11690" fill="#D2D2D2" fill-rule="nonzero" points="1.65949587 21.6690964 6.04815994 20.8661718 6.04815994 21.6690964 1.65949587 22.4724696"></polygon>
                                            <polygon id="路径_11691" fill="#D2D2D2" fill-rule="nonzero" points="7.56042437 20.509117 11.9490884 19.7061924 11.9490884 20.509117 7.56042437 21.3124902"></polygon>
                                            <polygon id="路径_11689备份" fill="#D2D2D2" fill-rule="nonzero" points="1.65949587 18.9890551 17.8762762 15.866396 17.8762762 16.6693207 1.65949587 19.7924283"></polygon>
                                        </g>
                                        <path d="M19.8972887,0.544735039 L0.44887635,4.34375155 L0.44887635,27.254753 L19.8972887,23.4557399 L19.8972887,0.544735039 M20.3461651,0 L20.3461651,23.8251103 L0,27.799488 L0,3.9743829 L20.3461651,0 Z" id="形状" fill-opacity="0.159999996" fill="#707070" fill-rule="nonzero"></path>
                                    </g>
                                    <g id="编组" transform="translate(23.313786, 71.000000)">
                                        <path d="M0.755349562,8.89037687 C0.0583495623,9.29637687 -0.205650438,8.89037687 0.173349562,7.99037687 L4.50079544,0.999232873 C4.88179544,0.100232873 5.50479544,-0.259767127 5.88579544,0.200232873 L9.54879544,4.63923287 C9.92979544,5.10123287 9.66779544,5.80623287 8.96479544,6.21323287 L0.755349562,8.89037687 Z" id="Fill-1" fill="#303033"></path>
                                        <path d="M0.754849562,8.44717687 L8.96429544,5.77003287 C9.18629544,5.64303287 9.29629544,5.50903287 9.32629544,5.43003287 C9.35529544,5.35203287 9.34829544,5.20803287 9.22629544,5.06503287 L5.56329544,0.626032873 C5.45229544,0.493032873 5.31829544,0.458032873 5.19329544,0.532032873 C5.06729544,0.604032873 4.93229544,0.795032873 4.82229544,1.05303287 L0.496849562,8.04417687 C0.376849562,8.32717687 0.367849562,8.47817687 0.397849562,8.52417687 C0.425849562,8.56917687 0.537849562,8.57517687 0.754849562,8.44717687 Z" id="Fill-3" fill="#FFCE30"></path>
                                        <polygon id="Fill-5" fill="#303033" points="6 4.1845621 5.07511046 4.27939964 5.85076092 2 4 4.81378855 4.92390771 4.71977569 4.15022091 7"></polygon>
                                    </g>
                                    <g id="组_6763" opacity="0.35" transform="translate(23.680472, 53.608451)"></g>
                                    <g id="_3" opacity="0.28" transform="translate(35.600421, 41.656105) scale(-1, 1) rotate(6.023993) translate(-35.600421, -41.656105) translate(34.600421, 39.656105)"></g>
                                    <polygon id="路径_11695" fill="#8C8C8C" fill-rule="nonzero" opacity="0.14" transform="translate(30.941497, 18.133510) rotate(-179.026066) translate(-30.941497, -18.133510) " points="22.4100383 18.6535695 39.4729847 15.1908693 39.4729558 17.6134505 22.4100094 21.0761507"></polygon>
                                    <g id="编组" transform="translate(23.974232, 83.000000)">
                                        <path d="M0.1963,3.20535775 C0.0883,3.26735775 0.0003,3.21735775 0.0003,3.09335775 C0.0003,2.96735775 0.0883,2.81635775 0.1963,2.75335775 L9.9173,0.0263577531 C10.0243,-0.0356422469 10.1133,0.0153577531 10.1133,0.141357753 C10.1133,0.266357753 10.0243,0.419357753 9.9173,0.479357753 L0.1963,3.20535775 Z" id="Fill-1" fill="url(#linearGradient-7)"></path>
                                        <path d="M9.917,1.49935775 C10.024,1.43735775 10.113,1.48835775 10.113,1.61235775 C10.113,1.73635775 10.024,1.89035775 9.917,1.95135775 L0.196,4.67635775 C0.088,4.73735775 0,4.68735775 0,4.56335775 C0,4.43835775 0.088,4.28835775 0.196,4.22435775 L9.917,1.49935775 Z" id="Fill-3" fill="url(#linearGradient-8)"></path>
                                        <path d="M9.917,2.97005775 C10.024,2.90805775 10.113,2.95805775 10.113,3.08305775 C10.113,3.20805775 10.024,3.36105775 9.917,3.42405775 L0.196,6.14805775 C0.088,6.20805775 0,6.15905775 0,6.03405775 C0,5.90805775 0.088,5.75905775 0.196,5.69705775 L9.917,2.97005775 Z" id="Fill-5" fill="url(#linearGradient-9)"></path>
                                        <path d="M9.917,4.44075775 C10.024,4.37875775 10.113,4.42875775 10.113,4.55375775 C10.113,4.67775775 10.024,4.83175775 9.917,4.89375775 L0.196,7.61875775 C0.088,7.68175775 0,7.63075775 0,7.50475775 C0,7.37975775 0.088,7.22875775 0.196,7.16775775 L9.917,4.44075775 Z" id="Fill-7" fill="url(#linearGradient-10)"></path>
                                    </g>
                                    <g id="编组备份" transform="translate(48.974232, 76.000000)">
                                        <path d="M0.1963,3.20535775 C0.0883,3.26735775 0.0003,3.21735775 0.0003,3.09335775 C0.0003,2.96735775 0.0883,2.81635775 0.1963,2.75335775 L9.9173,0.0263577531 C10.0243,-0.0356422469 10.1133,0.0153577531 10.1133,0.141357753 C10.1133,0.266357753 10.0243,0.419357753 9.9173,0.479357753 L0.1963,3.20535775 Z" id="Fill-1" fill="url(#linearGradient-7)"></path>
                                        <path d="M9.917,1.49935775 C10.024,1.43735775 10.113,1.48835775 10.113,1.61235775 C10.113,1.73635775 10.024,1.89035775 9.917,1.95135775 L0.196,4.67635775 C0.088,4.73735775 0,4.68735775 0,4.56335775 C0,4.43835775 0.088,4.28835775 0.196,4.22435775 L9.917,1.49935775 Z" id="Fill-3" fill="url(#linearGradient-8)"></path>
                                        <path d="M9.917,2.97005775 C10.024,2.90805775 10.113,2.95805775 10.113,3.08305775 C10.113,3.20805775 10.024,3.36105775 9.917,3.42405775 L0.196,6.14805775 C0.088,6.20805775 0,6.15905775 0,6.03405775 C0,5.90805775 0.088,5.75905775 0.196,5.69705775 L9.917,2.97005775 Z" id="Fill-5" fill="url(#linearGradient-9)"></path>
                                        <path d="M9.917,4.44075775 C10.024,4.37875775 10.113,4.42875775 10.113,4.55375775 C10.113,4.67775775 10.024,4.83175775 9.917,4.89375775 L0.196,7.61875775 C0.088,7.68175775 0,7.63075775 0,7.50475775 C0,7.37975775 0.088,7.22875775 0.196,7.16775775 L9.917,4.44075775 Z" id="Fill-7" fill="url(#linearGradient-10)"></path>
                                    </g>
                                    <polygon id="路径_11696" fill="#8C8C8C" fill-rule="nonzero" opacity="0.1" transform="translate(26.401209, 23.394413) rotate(-179.026066) translate(-26.401209, -23.394413) " points="22.3959862 22.970509 30.4064613 21.3961843 30.4064324 23.8187655 22.3959572 25.3926416"></polygon>
                                    <polygon id="路径_11696备份-2" fill="#8C8C8C" fill-rule="nonzero" opacity="0.08" transform="translate(26.401209, 28.394413) rotate(-179.026066) translate(-26.401209, -28.394413) " points="22.3959862 27.970509 30.4064613 26.3961843 30.4064324 28.8187655 22.3959572 30.3926416"></polygon>
                                    <polygon id="路径_11696备份" fill="#8C8C8C" fill-rule="nonzero" opacity="0.1" transform="translate(35.401209, 21.766019) rotate(-179.026066) translate(-35.401209, -21.766019) " points="31.3959862 21.3421155 39.4064613 19.7677908 39.4064324 22.1903719 31.3959572 23.764248"></polygon>
                                    <path d="M47.9183901,14.1856226 L58.3116807,12.4675882 C58.8565711,12.3775165 59.3713095,12.74622 59.4613811,13.2911104 C59.4702919,13.3450164 59.4747698,13.399562 59.4747698,13.4541995 L59.4747698,21.1485538 C59.4747698,21.6379218 59.120611,22.0554001 58.6377894,22.1351767 L48.2444987,23.8524588 C47.699602,23.942492 47.1848895,23.5737523 47.0948563,23.0288555 C47.0859532,22.9749721 47.0814792,22.9204499 47.0814792,22.865836 L47.0814792,15.172234 C47.0814792,14.6828927 47.4356004,14.2654289 47.9183901,14.1856226 Z" id="路径_11697" fill="url(#linearGradient-11)"></path>
                                    <polygon id="路径_11697备份" fill="#B3B3B3" points="48.442474 15.7980137 58.3834036 14.2 58.3834036 14.9857505 48.442474 16.5828671"></polygon>
                                    <polygon id="路径_11697备份-2" fill="#B3B3B3" points="48.442474 17.3980137 54.1117806 16.3983167 54.1117806 17.1840672 48.442474 18.1828671"></polygon>
                                    <circle id="椭圆_250" fill="#3EDB9C" fill-rule="nonzero" opacity="0.9" cx="57.6408989" cy="20" r="1"></circle>
                                    <circle id="椭圆_251" fill="#FFC021" fill-rule="nonzero" opacity="0.9" cx="53.6408989" cy="20.5" r="1"></circle>
                                    <circle id="椭圆_252" fill="#F55252" fill-rule="nonzero" opacity="0.9" cx="49.6408989" cy="21" r="1"></circle>
                                    <g id="路径_11693" opacity="0.2" transform="translate(36.752447, 37.476264)"></g>
                                </g>
                            </g>
                        </g>
                    </g>
                </g>
            </g>
        </g>
    </g>
</svg>