<?xml version="1.0" encoding="UTF-8"?>
<svg width="40px" height="40px" viewBox="0 0 40 40" version="1.1" xmlns="http://www.w3.org/2000/svg" xmlns:xlink="http://www.w3.org/1999/xlink">
    <title>icon_电池簇</title>
    <g id="光储充及工商储管理系统V1.3" stroke="none" stroke-width="1" fill="none" fill-rule="evenodd">
        <g id="3_2_5.设备监视_站点拓扑_示范站储能系统能量流" transform="translate(-563.000000, -669.000000)" fill-rule="nonzero">
            <g id="main" transform="translate(212.000000, 102.000000)">
                <g transform="translate(53.000000, 40.000000)" id="拓扑图">
                    <g transform="translate(0.000000, 79.000000)">
                        <g id="电池簇1" transform="translate(238.000000, 416.000000)">
                            <g id="icon_电池簇" transform="translate(60.000000, 32.000000)">
                                <rect id="矩形" opacity="0.0268322173" x="0" y="0" width="40" height="40"></rect>
                                <g id="电池" transform="translate(9.000000, 0.000000)">
                                    <path d="M19.58,4.39629428 L16.72,4.39629428 L16.72,2.39782016 C16.5,1.07553134 15.41408,0 14.08,0 L7.92,0 C6.58592,0 5.5,1.07553134 5.28,2.39782016 L5.28,4.39629428 L2.42,4.39629428 C1.08592,4.39629428 0,5.47182561 0,6.79411444 L0,37.6021798 C0,38.9244687 1.08592,40 2.42,40 L19.58,40 C20.91408,40 22,38.9244687 22,37.6021798 L22,6.79411444 C22,5.47182561 20.91408,4.39629428 19.58,4.39629428 Z M19.8,37.6021798 C19.8,37.7220708 19.701,37.8201635 19.58,37.8746594 L2.42,37.8746594 C2.299,37.8201635 2.2,37.7220708 2.2,37.6021798 L2.2,6.79411444 C2.2,6.67378747 2.299,6.57613079 2.42,6.48501362 L19.58,6.48501362 C19.701,6.57613079 19.8,6.67378747 19.8,6.79411444 L19.8,37.6021798 Z" id="形状" fill="#C0C0C0"></path>
                                    <polygon id="路径" fill="#00B42A" points="3.52 36.5667575 18.48 36.5667575 18.48 33.5149864 3.52 33.5149864"></polygon>
                                    <polygon id="路径" fill="#00B42A" points="3.52 32.2070845 18.48 32.2070845 18.48 29.1553134 3.52 29.1553134"></polygon>
                                    <polygon id="路径" fill="#00B42A" points="8.22932 25.9352589 8.32788 26.0019619 15.6112 17.6623433 11.41932 16.3091008 13.78168 9.17972752 13.66288 9.10081744 6.38924 17.3972752 10.60444 18.7683924"></polygon>
                                </g>
                            </g>
                        </g>
                    </g>
                </g>
            </g>
        </g>
    </g>
</svg>