<?xml version="1.0" encoding="UTF-8"?>
<svg width="160px" height="160px" viewBox="0 0 160 160" version="1.1" xmlns="http://www.w3.org/2000/svg" xmlns:xlink="http://www.w3.org/1999/xlink">
    <title>icon_batteryPack</title>
    <defs>
        <linearGradient x1="50%" y1="0%" x2="50%" y2="100%" id="linearGradient-1">
            <stop stop-color="#F8F8F8" offset="0%"></stop>
            <stop stop-color="#D4D4D4" offset="100%"></stop>
        </linearGradient>
        <linearGradient x1="50%" y1="0%" x2="50%" y2="100%" id="linearGradient-2">
            <stop stop-color="#98EA94" offset="0%"></stop>
            <stop stop-color="#15B53F" offset="100%"></stop>
        </linearGradient>
        <linearGradient x1="50%" y1="0%" x2="50%" y2="100%" id="linearGradient-3">
            <stop stop-color="#A1F29C" offset="0%"></stop>
            <stop stop-color="#15B53F" offset="100%"></stop>
        </linearGradient>
    </defs>
    <g id="光储充及工商储管理系统V1.3" stroke="none" stroke-width="1" fill="none" fill-rule="evenodd">
        <g id="3_2_5.设备监视_站点拓扑_示范站储能系统能量流" transform="translate(-503.000000, -759.000000)">
            <g id="main" transform="translate(212.000000, 102.000000)">
                <g transform="translate(53.000000, 40.000000)" id="拓扑图">
                    <g transform="translate(0.000000, 79.000000)">
                        <g id="电池簇1" transform="translate(238.000000, 416.000000)">
                            <g id="icon_batteryPack" transform="translate(0.000000, 122.000000)">
                                <rect id="矩形_647" x="0" y="0" width="160" height="160"></rect>
                                <g id="储能电池2" transform="translate(0.000000, 35.000000)">
                                    <g id="编组" transform="translate(53.817520, 0.000000)">
                                        <polygon id="Fill-543" fill="url(#linearGradient-1)" fill-rule="nonzero" points="48.08445 3.47973466 23.8111658 1.62288291 7.91434109e-05 10.9666587 24.2333959 12.7809419"></polygon>
                                        <polygon id="Fill-545" fill="#DBDBDB" fill-rule="nonzero" points="26.1347372 61.8831811 1.85828729 60.0755984 0 10.9665798 24.2768456 12.7741625"></polygon>
                                        <path d="M24.4733983,58.4684422 L3.6452268,56.9178468 C3.41927236,56.9008983 3.22893246,56.7097344 3.2206224,56.491374 L1.63221414,14.5109949 C1.6242998,14.2922403 1.8007896,14.1282729 2.02713976,14.1452215 L22.8553113,15.6958169 C23.0812657,15.7127654 23.2716056,15.9039293 23.2799157,16.1226839 L24.8679282,58.103063 C24.8762383,58.3218175 24.6997484,58.4853907 24.4733983,58.4684422" id="Fill-547" fill="#DBDBDB" fill-rule="nonzero"></path>
                                        <polygon id="Fill-549" fill="#707070" fill-rule="nonzero" points="24.35405 14.8202468 0.0776001146 13.0126641 3.95717057e-05 10.9666192 24.2764895 12.7742019"></polygon>
                                        <polygon id="Fill-551" fill="#707070" fill-rule="nonzero" points="26.1396045 62.0151827 1.86315461 60.2076 1.78559407 58.1615552 26.062044 59.9691379"></polygon>
                                        <path d="M4.59130714,40.5976926 L4.35545977,40.5791675 C4.20587872,40.5677371 4.10022227,40.4762937 4.09586938,40.3548948 L3.76148847,31.5176048 C3.75436556,31.334324 3.97477996,31.1672034 4.2007344,31.1849402 L4.43658177,31.2034654 C4.58616281,31.21529 4.69181927,31.3063392 4.69617215,31.4277381 L5.03055307,40.265028 C5.03767597,40.448703 4.81726157,40.6154295 4.59130714,40.5976926" id="Fill-553" fill="#BCBCBC"></path>
                                        <path d="M22.4030462,56.1069572 L22.3713889,55.2693834 C22.3682231,55.1889763 22.2985769,55.1282769 22.1996477,55.1199997 L20.8949685,55.0108195 C20.7438046,54.9982066 20.5958064,55.1097517 20.6001593,55.2327273 L20.6322124,56.0801548 C20.6353781,56.1613502 20.7062115,56.2224438 20.8059322,56.2299327 L22.1106113,56.328865 C22.2609838,56.3402954 22.4077948,56.2291444 22.4030462,56.1069572" id="Fill-555" fill="#BCBCBC" fill-rule="nonzero"></path>
                                        <path d="M20.2317863,55.941492 L20.200129,55.1039183 C20.1969632,55.0235112 20.127317,54.9628117 20.0283878,54.9545345 L18.7237086,54.8453543 C18.5725447,54.8327414 18.4245465,54.9442866 18.4292951,55.0672621 L18.4609525,55.9146897 C18.4641182,55.995885 18.5349516,56.0569787 18.635068,56.0644676 L19.9393514,56.1633998 C20.0901196,56.1748302 20.2365349,56.0636793 20.2317863,55.941492" id="Fill-557" fill="#BCBCBC" fill-rule="nonzero"></path>
                                        <path d="M18.0605264,55.7760269 L18.028869,54.9384531 C18.0257033,54.858046 17.9560571,54.7973466 17.8571278,54.7890694 L16.5524487,54.6798892 C16.4012848,54.6672763 16.2532866,54.7788214 16.2576395,54.9017969 L16.2896926,55.7492245 C16.2928583,55.8304199 16.3636917,55.8915135 16.4638081,55.8990024 L17.7680915,55.9979346 C17.9188597,56.0093651 18.065275,55.8982141 18.0605264,55.7760269" id="Fill-559" fill="#BCBCBC" fill-rule="nonzero"></path>
                                        <polygon id="Fill-561" fill="#BCBCBC" points="16.7964874 23.1495532 16.8202304 23.7766496 7.70607522 23.1318164 7.68193648 22.4999901"></polygon>
                                        <path d="M14.7116125,21.1645626 L14.7448528,22.0454931 L10.1363319,21.7195291 L10.1090275,20.9994127 C10.1023003,20.811402 10.3258804,20.6407341 10.5577706,20.6572885 L14.4421292,20.9339834 C14.5968546,20.9450197 14.7068639,21.0392221 14.7116125,21.1645626" id="Fill-563" fill="#BCBCBC"></path>
                                        <polygon id="Fill-565" fill="#BCBCBC" points="16.8574674 24.7612816 16.8760661 25.2567311 7.7619109 24.6126862 7.7433122 24.1164484"></polygon>
                                        <polygon id="Fill-567" fill="#BCBCBC" points="16.9134614 26.2412843 16.9320601 26.7375221 7.81790486 26.0926889 7.79930616 25.5972394"></polygon>
                                        <path d="M7.85522098,27.0771238 L16.9693762,27.7211687 L17.7548746,48.485509 C17.7916762,49.450394 16.6393482,50.3289596 15.4490313,50.2442168 L10.0577821,49.8599183 C9.26159939,49.8031603 8.69691116,49.3199295 8.6723767,48.6747021 L7.85522098,27.0771238 Z" id="Fill-569" fill="#BCBCBC"></path>
                                        <path d="M16.2164454,31.3263621 L16.844844,47.9398839 C16.8673999,48.52993 16.1634193,49.0667655 15.4356956,49.0151315 L10.3804102,48.6548763 C9.89367825,48.6201908 9.54861297,48.3245766 9.53357573,47.9304242 L9.03813797,34.8358947 C9.74370148,34.8942292 10.6186319,34.8284058 11.6316676,34.4799751 C13.8472873,33.7172903 14.0368358,32.0874703 16.2164454,31.3263621" id="Fill-571" fill="url(#linearGradient-2)"></path>
                                        <polygon id="Fill-573" fill="#EFEFEF" points="26.1343811 61.8832205 49.9858309 52.5820133 48.0844104 3.47969524 24.2329606 12.7809025"></polygon>
                                        <polygon id="Fill-575" fill="#848484" fill-rule="nonzero" points="24.3124602 14.8267109 48.1635142 5.52550363 48.0843708 3.4798529 24.2333168 12.780666"></polygon>
                                        <polygon id="Fill-577" fill="#848484" fill-rule="nonzero" points="26.1396045 62.0151827 49.9906586 52.7139755 49.9115152 50.6683247 26.0604611 59.9691379"></polygon>
                                        <g id="编组-7" transform="translate(2.183567, 0.000000)">
                                            <polygon id="Fill-579" fill="#65C182" points="43.4982476 2.45139116 43.5473165 3.74421089 22.0246616 12.1365028 22.0052714 12.1349262 21.9565982 10.8444714"></polygon>
                                            <polygon id="Fill-581" fill="#4EA76A" points="21.95644 10.8443532 22.0051132 12.1352021 0.0812011398 10.4939517 0.0321322249 9.20073785"></polygon>
                                            <polygon id="Fill-583" fill="#F7F7F7" points="43.497654 2.45241596 21.9564004 10.8443138 0.0324883702 9.2018809 0.0261568974 8.35405918 21.4360325 0 43.4687667 1.60104687"></polygon>
                                            <polygon id="Fill-585" fill="#DADADA" points="21.9243077 9.99460011 21.9563608 10.8420277 0.0320530815 9.20077727 0 8.35098479"></polygon>
                                            <polygon id="Fill-587" fill="#C9C9C9" points="21.9243077 9.99460011 21.9563608 10.8420277 43.5011759 2.45052403 43.4687271 1.6011257"></polygon>
                                        </g>
                                    </g>
                                    <g transform="translate(81.517713, 1.970762)" id="编组">
                                        <polygon id="Fill-543" fill="url(#linearGradient-1)" fill-rule="nonzero" points="48.08445 3.47973466 23.8111658 1.62288291 7.91434109e-05 10.9666587 24.2333959 12.7809419"></polygon>
                                        <polygon id="Fill-545" fill="#DBDBDB" fill-rule="nonzero" points="26.1347372 61.8831811 1.85828729 60.0755984 0 10.9665798 24.2768456 12.7741625"></polygon>
                                        <path d="M24.4733983,58.4684422 L3.6452268,56.9178468 C3.41927236,56.9008983 3.22893246,56.7097344 3.2206224,56.491374 L1.63221414,14.5109949 C1.6242998,14.2922403 1.8007896,14.1282729 2.02713976,14.1452215 L22.8553113,15.6958169 C23.0812657,15.7127654 23.2716056,15.9039293 23.2799157,16.1226839 L24.8679282,58.103063 C24.8762383,58.3218175 24.6997484,58.4853907 24.4733983,58.4684422" id="Fill-547" fill="#DBDBDB" fill-rule="nonzero"></path>
                                        <polygon id="Fill-549" fill="#707070" fill-rule="nonzero" points="24.35405 14.8202468 0.0776001146 13.0126641 3.95717057e-05 10.9666192 24.2764895 12.7742019"></polygon>
                                        <polygon id="Fill-551" fill="#707070" fill-rule="nonzero" points="26.1396045 62.0151827 1.86315461 60.2076 1.78559407 58.1615552 26.062044 59.9691379"></polygon>
                                        <path d="M4.59130714,40.5976926 L4.35545977,40.5791675 C4.20587872,40.5677371 4.10022227,40.4762937 4.09586938,40.3548948 L3.76148847,31.5176048 C3.75436556,31.334324 3.97477996,31.1672034 4.2007344,31.1849402 L4.43658177,31.2034654 C4.58616281,31.21529 4.69181927,31.3063392 4.69617215,31.4277381 L5.03055307,40.265028 C5.03767597,40.448703 4.81726157,40.6154295 4.59130714,40.5976926" id="Fill-553" fill="#BCBCBC"></path>
                                        <path d="M22.4030462,56.1069572 L22.3713889,55.2693834 C22.3682231,55.1889763 22.2985769,55.1282769 22.1996477,55.1199997 L20.8949685,55.0108195 C20.7438046,54.9982066 20.5958064,55.1097517 20.6001593,55.2327273 L20.6322124,56.0801548 C20.6353781,56.1613502 20.7062115,56.2224438 20.8059322,56.2299327 L22.1106113,56.328865 C22.2609838,56.3402954 22.4077948,56.2291444 22.4030462,56.1069572" id="Fill-555" fill="#BCBCBC" fill-rule="nonzero"></path>
                                        <path d="M20.2317863,55.941492 L20.200129,55.1039183 C20.1969632,55.0235112 20.127317,54.9628117 20.0283878,54.9545345 L18.7237086,54.8453543 C18.5725447,54.8327414 18.4245465,54.9442866 18.4292951,55.0672621 L18.4609525,55.9146897 C18.4641182,55.995885 18.5349516,56.0569787 18.635068,56.0644676 L19.9393514,56.1633998 C20.0901196,56.1748302 20.2365349,56.0636793 20.2317863,55.941492" id="Fill-557" fill="#BCBCBC" fill-rule="nonzero"></path>
                                        <path d="M18.0605264,55.7760269 L18.028869,54.9384531 C18.0257033,54.858046 17.9560571,54.7973466 17.8571278,54.7890694 L16.5524487,54.6798892 C16.4012848,54.6672763 16.2532866,54.7788214 16.2576395,54.9017969 L16.2896926,55.7492245 C16.2928583,55.8304199 16.3636917,55.8915135 16.4638081,55.8990024 L17.7680915,55.9979346 C17.9188597,56.0093651 18.065275,55.8982141 18.0605264,55.7760269" id="Fill-559" fill="#BCBCBC" fill-rule="nonzero"></path>
                                        <polygon id="Fill-561" fill="#BCBCBC" points="16.7964874 23.1495532 16.8202304 23.7766496 7.70607522 23.1318164 7.68193648 22.4999901"></polygon>
                                        <path d="M14.7116125,21.1645626 L14.7448528,22.0454931 L10.1363319,21.7195291 L10.1090275,20.9994127 C10.1023003,20.811402 10.3258804,20.6407341 10.5577706,20.6572885 L14.4421292,20.9339834 C14.5968546,20.9450197 14.7068639,21.0392221 14.7116125,21.1645626" id="Fill-563" fill="#BCBCBC"></path>
                                        <polygon id="Fill-565" fill="#BCBCBC" points="16.8574674 24.7612816 16.8760661 25.2567311 7.7619109 24.6126862 7.7433122 24.1164484"></polygon>
                                        <polygon id="Fill-567" fill="#BCBCBC" points="16.9134614 26.2412843 16.9320601 26.7375221 7.81790486 26.0926889 7.79930616 25.5972394"></polygon>
                                        <path d="M7.85522098,27.0771238 L16.9693762,27.7211687 L17.7548746,48.485509 C17.7916762,49.450394 16.6393482,50.3289596 15.4490313,50.2442168 L10.0577821,49.8599183 C9.26159939,49.8031603 8.69691116,49.3199295 8.6723767,48.6747021 L7.85522098,27.0771238 Z" id="Fill-569" fill="#BCBCBC"></path>
                                        <path d="M16.2164454,31.3263621 L16.844844,47.9398839 C16.8673999,48.52993 16.1634193,49.0667655 15.4356956,49.0151315 L10.3804102,48.6548763 C9.89367825,48.6201908 9.54861297,48.3245766 9.53357573,47.9304242 L9.03813797,34.8358947 C9.74370148,34.8942292 10.6186319,34.8284058 11.6316676,34.4799751 C13.8472873,33.7172903 14.0368358,32.0874703 16.2164454,31.3263621" id="Fill-571" fill="url(#linearGradient-2)"></path>
                                        <polygon id="Fill-573" fill="#EFEFEF" points="26.1343811 61.8832205 49.9858309 52.5820133 48.0844104 3.47969524 24.2329606 12.7809025"></polygon>
                                        <polygon id="Fill-575" fill="#848484" fill-rule="nonzero" points="24.3124602 14.8267109 48.1635142 5.52550363 48.0843708 3.4798529 24.2333168 12.780666"></polygon>
                                        <polygon id="Fill-577" fill="#848484" fill-rule="nonzero" points="26.1396045 62.0151827 49.9906586 52.7139755 49.9115152 50.6683247 26.0604611 59.9691379"></polygon>
                                        <g id="编组-7" transform="translate(2.183567, 0.000000)">
                                            <polygon id="Fill-579" fill="#65C182" points="43.4982476 2.45139116 43.5473165 3.74421089 22.0246616 12.1365028 22.0052714 12.1349262 21.9565982 10.8444714"></polygon>
                                            <polygon id="Fill-581" fill="#4EA76A" points="21.95644 10.8443532 22.0051132 12.1352021 0.0812011398 10.4939517 0.0321322249 9.20073785"></polygon>
                                            <polygon id="Fill-583" fill="#F7F7F7" points="43.497654 2.45241596 21.9564004 10.8443138 0.0324883702 9.2018809 0.0261568974 8.35405918 21.4360325 0 43.4687667 1.60104687"></polygon>
                                            <polygon id="Fill-585" fill="#DADADA" points="21.9243077 9.99460011 21.9563608 10.8420277 0.0320530815 9.20077727 0 8.35098479"></polygon>
                                            <polygon id="Fill-587" fill="#C9C9C9" points="21.9243077 9.99460011 21.9563608 10.8420277 43.5011759 2.45052403 43.4687271 1.6011257"></polygon>
                                        </g>
                                    </g>
                                    <g id="编组" transform="translate(26.908760, 11.036266)">
                                        <polygon id="Fill-543" fill="url(#linearGradient-1)" fill-rule="nonzero" points="48.08445 3.47973466 23.8111658 1.62288291 7.91434109e-05 10.9666587 24.2333959 12.7809419"></polygon>
                                        <polygon id="Fill-545" fill="#DBDBDB" fill-rule="nonzero" points="26.1347372 61.8831811 1.85828729 60.0755984 0 10.9665798 24.2768456 12.7741625"></polygon>
                                        <path d="M24.4733983,58.4684422 L3.6452268,56.9178468 C3.41927236,56.9008983 3.22893246,56.7097344 3.2206224,56.491374 L1.63221414,14.5109949 C1.6242998,14.2922403 1.8007896,14.1282729 2.02713976,14.1452215 L22.8553113,15.6958169 C23.0812657,15.7127654 23.2716056,15.9039293 23.2799157,16.1226839 L24.8679282,58.103063 C24.8762383,58.3218175 24.6997484,58.4853907 24.4733983,58.4684422" id="Fill-547" fill="#DBDBDB" fill-rule="nonzero"></path>
                                        <polygon id="Fill-549" fill="#707070" fill-rule="nonzero" points="24.35405 14.8202468 0.0776001146 13.0126641 3.95717057e-05 10.9666192 24.2764895 12.7742019"></polygon>
                                        <polygon id="Fill-551" fill="#707070" fill-rule="nonzero" points="26.1396045 62.0151827 1.86315461 60.2076 1.78559407 58.1615552 26.062044 59.9691379"></polygon>
                                        <path d="M4.59130714,40.5976926 L4.35545977,40.5791675 C4.20587872,40.5677371 4.10022227,40.4762937 4.09586938,40.3548948 L3.76148847,31.5176048 C3.75436556,31.334324 3.97477996,31.1672034 4.2007344,31.1849402 L4.43658177,31.2034654 C4.58616281,31.21529 4.69181927,31.3063392 4.69617215,31.4277381 L5.03055307,40.265028 C5.03767597,40.448703 4.81726157,40.6154295 4.59130714,40.5976926" id="Fill-553" fill="#BCBCBC"></path>
                                        <path d="M22.4030462,56.1069572 L22.3713889,55.2693834 C22.3682231,55.1889763 22.2985769,55.1282769 22.1996477,55.1199997 L20.8949685,55.0108195 C20.7438046,54.9982066 20.5958064,55.1097517 20.6001593,55.2327273 L20.6322124,56.0801548 C20.6353781,56.1613502 20.7062115,56.2224438 20.8059322,56.2299327 L22.1106113,56.328865 C22.2609838,56.3402954 22.4077948,56.2291444 22.4030462,56.1069572" id="Fill-555" fill="#BCBCBC" fill-rule="nonzero"></path>
                                        <path d="M20.2317863,55.941492 L20.200129,55.1039183 C20.1969632,55.0235112 20.127317,54.9628117 20.0283878,54.9545345 L18.7237086,54.8453543 C18.5725447,54.8327414 18.4245465,54.9442866 18.4292951,55.0672621 L18.4609525,55.9146897 C18.4641182,55.995885 18.5349516,56.0569787 18.635068,56.0644676 L19.9393514,56.1633998 C20.0901196,56.1748302 20.2365349,56.0636793 20.2317863,55.941492" id="Fill-557" fill="#BCBCBC" fill-rule="nonzero"></path>
                                        <path d="M18.0605264,55.7760269 L18.028869,54.9384531 C18.0257033,54.858046 17.9560571,54.7973466 17.8571278,54.7890694 L16.5524487,54.6798892 C16.4012848,54.6672763 16.2532866,54.7788214 16.2576395,54.9017969 L16.2896926,55.7492245 C16.2928583,55.8304199 16.3636917,55.8915135 16.4638081,55.8990024 L17.7680915,55.9979346 C17.9188597,56.0093651 18.065275,55.8982141 18.0605264,55.7760269" id="Fill-559" fill="#BCBCBC" fill-rule="nonzero"></path>
                                        <polygon id="Fill-561" fill="#BCBCBC" points="16.7964874 23.1495532 16.8202304 23.7766496 7.70607522 23.1318164 7.68193648 22.4999901"></polygon>
                                        <path d="M14.7116125,21.1645626 L14.7448528,22.0454931 L10.1363319,21.7195291 L10.1090275,20.9994127 C10.1023003,20.811402 10.3258804,20.6407341 10.5577706,20.6572885 L14.4421292,20.9339834 C14.5968546,20.9450197 14.7068639,21.0392221 14.7116125,21.1645626" id="Fill-563" fill="#BCBCBC"></path>
                                        <polygon id="Fill-565" fill="#BCBCBC" points="16.8574674 24.7612816 16.8760661 25.2567311 7.7619109 24.6126862 7.7433122 24.1164484"></polygon>
                                        <polygon id="Fill-567" fill="#BCBCBC" points="16.9134614 26.2412843 16.9320601 26.7375221 7.81790486 26.0926889 7.79930616 25.5972394"></polygon>
                                        <path d="M7.85522098,27.0771238 L16.9693762,27.7211687 L17.7548746,48.485509 C17.7916762,49.450394 16.6393482,50.3289596 15.4490313,50.2442168 L10.0577821,49.8599183 C9.26159939,49.8031603 8.69691116,49.3199295 8.6723767,48.6747021 L7.85522098,27.0771238 Z" id="Fill-569" fill="#BCBCBC"></path>
                                        <path d="M16.2164454,31.3263621 L16.844844,47.9398839 C16.8673999,48.52993 16.1634193,49.0667655 15.4356956,49.0151315 L10.3804102,48.6548763 C9.89367825,48.6201908 9.54861297,48.3245766 9.53357573,47.9304242 L9.03813797,34.8358947 C9.74370148,34.8942292 10.6186319,34.8284058 11.6316676,34.4799751 C13.8472873,33.7172903 14.0368358,32.0874703 16.2164454,31.3263621" id="Fill-571" fill="url(#linearGradient-2)"></path>
                                        <polygon id="Fill-573" fill="#EFEFEF" points="26.1343811 61.8832205 49.9858309 52.5820133 48.0844104 3.47969524 24.2329606 12.7809025"></polygon>
                                        <polygon id="Fill-575" fill="#848484" fill-rule="nonzero" points="24.3124602 14.8267109 48.1635142 5.52550363 48.0843708 3.4798529 24.2333168 12.780666"></polygon>
                                        <polygon id="Fill-577" fill="#848484" fill-rule="nonzero" points="26.1396045 62.0151827 49.9906586 52.7139755 49.9115152 50.6683247 26.0604611 59.9691379"></polygon>
                                        <g id="编组-7" transform="translate(2.183567, 0.000000)">
                                            <polygon id="Fill-579" fill="#65C182" points="43.4982476 2.45139116 43.5473165 3.74421089 22.0246616 12.1365028 22.0052714 12.1349262 21.9565982 10.8444714"></polygon>
                                            <polygon id="Fill-581" fill="#4EA76A" points="21.95644 10.8443532 22.0051132 12.1352021 0.0812011398 10.4939517 0.0321322249 9.20073785"></polygon>
                                            <polygon id="Fill-583" fill="#F7F7F7" points="43.497654 2.45241596 21.9564004 10.8443138 0.0324883702 9.2018809 0.0261568974 8.35405918 21.4360325 0 43.4687667 1.60104687"></polygon>
                                            <polygon id="Fill-585" fill="#DADADA" points="21.9243077 9.99460011 21.9563608 10.8420277 0.0320530815 9.20077727 0 8.35098479"></polygon>
                                            <polygon id="Fill-587" fill="#C9C9C9" points="21.9243077 9.99460011 21.9563608 10.8420277 43.5011759 2.45052403 43.4687271 1.6011257"></polygon>
                                        </g>
                                    </g>
                                    <g id="编组" transform="translate(54.608954, 13.007028)">
                                        <polygon id="Fill-543" fill="url(#linearGradient-1)" fill-rule="nonzero" points="48.08445 3.47973466 23.8111658 1.62288291 7.91434109e-05 10.9666587 24.2333959 12.7809419"></polygon>
                                        <polygon id="Fill-545" fill="#DBDBDB" fill-rule="nonzero" points="26.1347372 61.8831811 1.85828729 60.0755984 0 10.9665798 24.2768456 12.7741625"></polygon>
                                        <path d="M24.4733983,58.4684422 L3.6452268,56.9178468 C3.41927236,56.9008983 3.22893246,56.7097344 3.2206224,56.491374 L1.63221414,14.5109949 C1.6242998,14.2922403 1.8007896,14.1282729 2.02713976,14.1452215 L22.8553113,15.6958169 C23.0812657,15.7127654 23.2716056,15.9039293 23.2799157,16.1226839 L24.8679282,58.103063 C24.8762383,58.3218175 24.6997484,58.4853907 24.4733983,58.4684422" id="Fill-547" fill="#DBDBDB" fill-rule="nonzero"></path>
                                        <polygon id="Fill-549" fill="#707070" fill-rule="nonzero" points="24.35405 14.8202468 0.0776001146 13.0126641 3.95717057e-05 10.9666192 24.2764895 12.7742019"></polygon>
                                        <polygon id="Fill-551" fill="#707070" fill-rule="nonzero" points="26.1396045 62.0151827 1.86315461 60.2076 1.78559407 58.1615552 26.062044 59.9691379"></polygon>
                                        <path d="M4.59130714,40.5976926 L4.35545977,40.5791675 C4.20587872,40.5677371 4.10022227,40.4762937 4.09586938,40.3548948 L3.76148847,31.5176048 C3.75436556,31.334324 3.97477996,31.1672034 4.2007344,31.1849402 L4.43658177,31.2034654 C4.58616281,31.21529 4.69181927,31.3063392 4.69617215,31.4277381 L5.03055307,40.265028 C5.03767597,40.448703 4.81726157,40.6154295 4.59130714,40.5976926" id="Fill-553" fill="#BCBCBC"></path>
                                        <path d="M22.4030462,56.1069572 L22.3713889,55.2693834 C22.3682231,55.1889763 22.2985769,55.1282769 22.1996477,55.1199997 L20.8949685,55.0108195 C20.7438046,54.9982066 20.5958064,55.1097517 20.6001593,55.2327273 L20.6322124,56.0801548 C20.6353781,56.1613502 20.7062115,56.2224438 20.8059322,56.2299327 L22.1106113,56.328865 C22.2609838,56.3402954 22.4077948,56.2291444 22.4030462,56.1069572" id="Fill-555" fill="#BCBCBC" fill-rule="nonzero"></path>
                                        <path d="M20.2317863,55.941492 L20.200129,55.1039183 C20.1969632,55.0235112 20.127317,54.9628117 20.0283878,54.9545345 L18.7237086,54.8453543 C18.5725447,54.8327414 18.4245465,54.9442866 18.4292951,55.0672621 L18.4609525,55.9146897 C18.4641182,55.995885 18.5349516,56.0569787 18.635068,56.0644676 L19.9393514,56.1633998 C20.0901196,56.1748302 20.2365349,56.0636793 20.2317863,55.941492" id="Fill-557" fill="#BCBCBC" fill-rule="nonzero"></path>
                                        <path d="M18.0605264,55.7760269 L18.028869,54.9384531 C18.0257033,54.858046 17.9560571,54.7973466 17.8571278,54.7890694 L16.5524487,54.6798892 C16.4012848,54.6672763 16.2532866,54.7788214 16.2576395,54.9017969 L16.2896926,55.7492245 C16.2928583,55.8304199 16.3636917,55.8915135 16.4638081,55.8990024 L17.7680915,55.9979346 C17.9188597,56.0093651 18.065275,55.8982141 18.0605264,55.7760269" id="Fill-559" fill="#BCBCBC" fill-rule="nonzero"></path>
                                        <polygon id="Fill-561" fill="#BCBCBC" points="16.7964874 23.1495532 16.8202304 23.7766496 7.70607522 23.1318164 7.68193648 22.4999901"></polygon>
                                        <path d="M14.7116125,21.1645626 L14.7448528,22.0454931 L10.1363319,21.7195291 L10.1090275,20.9994127 C10.1023003,20.811402 10.3258804,20.6407341 10.5577706,20.6572885 L14.4421292,20.9339834 C14.5968546,20.9450197 14.7068639,21.0392221 14.7116125,21.1645626" id="Fill-563" fill="#BCBCBC"></path>
                                        <polygon id="Fill-565" fill="#BCBCBC" points="16.8574674 24.7612816 16.8760661 25.2567311 7.7619109 24.6126862 7.7433122 24.1164484"></polygon>
                                        <polygon id="Fill-567" fill="#BCBCBC" points="16.9134614 26.2412843 16.9320601 26.7375221 7.81790486 26.0926889 7.79930616 25.5972394"></polygon>
                                        <path d="M7.85522098,27.0771238 L16.9693762,27.7211687 L17.7548746,48.485509 C17.7916762,49.450394 16.6393482,50.3289596 15.4490313,50.2442168 L10.0577821,49.8599183 C9.26159939,49.8031603 8.69691116,49.3199295 8.6723767,48.6747021 L7.85522098,27.0771238 Z" id="Fill-569" fill="#BCBCBC"></path>
                                        <path d="M16.2164454,31.3263621 L16.844844,47.9398839 C16.8673999,48.52993 16.1634193,49.0667655 15.4356956,49.0151315 L10.3804102,48.6548763 C9.89367825,48.6201908 9.54861297,48.3245766 9.53357573,47.9304242 L9.03813797,34.8358947 C9.74370148,34.8942292 10.6186319,34.8284058 11.6316676,34.4799751 C13.8472873,33.7172903 14.0368358,32.0874703 16.2164454,31.3263621" id="Fill-571" fill="url(#linearGradient-2)"></path>
                                        <polygon id="Fill-573" fill="#EFEFEF" points="26.1343811 61.8832205 49.9858309 52.5820133 48.0844104 3.47969524 24.2329606 12.7809025"></polygon>
                                        <polygon id="Fill-575" fill="#848484" fill-rule="nonzero" points="24.3124602 14.8267109 48.1635142 5.52550363 48.0843708 3.4798529 24.2333168 12.780666"></polygon>
                                        <polygon id="Fill-577" fill="#848484" fill-rule="nonzero" points="26.1396045 62.0151827 49.9906586 52.7139755 49.9115152 50.6683247 26.0604611 59.9691379"></polygon>
                                        <g id="编组-7" transform="translate(2.183567, 0.000000)">
                                            <polygon id="Fill-579" fill="#6ECE8C" points="43.4982476 2.45139116 43.5473165 3.74421089 22.0246616 12.1365028 22.0052714 12.1349262 21.9565982 10.8444714"></polygon>
                                            <polygon id="Fill-581" fill="#4EA76A" points="21.95644 10.8443532 22.0051132 12.1352021 0.0812011398 10.4939517 0.0321322249 9.20073785"></polygon>
                                            <polygon id="Fill-583" fill="#F7F7F7" points="43.497654 2.45241596 21.9564004 10.8443138 0.0324883702 9.2018809 0.0261568974 8.35405918 21.4360325 0 43.4687667 1.60104687"></polygon>
                                            <polygon id="Fill-585" fill="#DADADA" points="21.9243077 9.99460011 21.9563608 10.8420277 0.0320530815 9.20077727 0 8.35098479"></polygon>
                                            <polygon id="Fill-587" fill="#C9C9C9" points="21.9243077 9.99460011 21.9563608 10.8420277 43.5011759 2.45052403 43.4687271 1.6011257"></polygon>
                                        </g>
                                    </g>
                                    <g id="编组" transform="translate(0.000000, 22.072532)">
                                        <polygon id="Fill-543" fill="url(#linearGradient-1)" fill-rule="nonzero" points="48.08445 3.47973466 23.8111658 1.62288291 7.91434109e-05 10.9666587 24.2333959 12.7809419"></polygon>
                                        <polygon id="Fill-545" fill="#DBDBDB" fill-rule="nonzero" points="26.1347372 61.8831811 1.85828729 60.0755984 0 10.9665798 24.2768456 12.7741625"></polygon>
                                        <path d="M24.4733983,58.4684422 L3.6452268,56.9178468 C3.41927236,56.9008983 3.22893246,56.7097344 3.2206224,56.491374 L1.63221414,14.5109949 C1.6242998,14.2922403 1.8007896,14.1282729 2.02713976,14.1452215 L22.8553113,15.6958169 C23.0812657,15.7127654 23.2716056,15.9039293 23.2799157,16.1226839 L24.8679282,58.103063 C24.8762383,58.3218175 24.6997484,58.4853907 24.4733983,58.4684422" id="Fill-547" fill="#DBDBDB" fill-rule="nonzero"></path>
                                        <polygon id="Fill-549" fill="#707070" fill-rule="nonzero" points="24.35405 14.8202468 0.0776001146 13.0126641 3.95717057e-05 10.9666192 24.2764895 12.7742019"></polygon>
                                        <polygon id="Fill-551" fill="#707070" fill-rule="nonzero" points="26.1396045 62.0151827 1.86315461 60.2076 1.78559407 58.1615552 26.062044 59.9691379"></polygon>
                                        <path d="M4.59130714,40.5976926 L4.35545977,40.5791675 C4.20587872,40.5677371 4.10022227,40.4762937 4.09586938,40.3548948 L3.76148847,31.5176048 C3.75436556,31.334324 3.97477996,31.1672034 4.2007344,31.1849402 L4.43658177,31.2034654 C4.58616281,31.21529 4.69181927,31.3063392 4.69617215,31.4277381 L5.03055307,40.265028 C5.03767597,40.448703 4.81726157,40.6154295 4.59130714,40.5976926" id="Fill-553" fill="#BCBCBC"></path>
                                        <path d="M22.4030462,56.1069572 L22.3713889,55.2693834 C22.3682231,55.1889763 22.2985769,55.1282769 22.1996477,55.1199997 L20.8949685,55.0108195 C20.7438046,54.9982066 20.5958064,55.1097517 20.6001593,55.2327273 L20.6322124,56.0801548 C20.6353781,56.1613502 20.7062115,56.2224438 20.8059322,56.2299327 L22.1106113,56.328865 C22.2609838,56.3402954 22.4077948,56.2291444 22.4030462,56.1069572" id="Fill-555" fill="#BCBCBC" fill-rule="nonzero"></path>
                                        <path d="M20.2317863,55.941492 L20.200129,55.1039183 C20.1969632,55.0235112 20.127317,54.9628117 20.0283878,54.9545345 L18.7237086,54.8453543 C18.5725447,54.8327414 18.4245465,54.9442866 18.4292951,55.0672621 L18.4609525,55.9146897 C18.4641182,55.995885 18.5349516,56.0569787 18.635068,56.0644676 L19.9393514,56.1633998 C20.0901196,56.1748302 20.2365349,56.0636793 20.2317863,55.941492" id="Fill-557" fill="#BCBCBC" fill-rule="nonzero"></path>
                                        <path d="M18.0605264,55.7760269 L18.028869,54.9384531 C18.0257033,54.858046 17.9560571,54.7973466 17.8571278,54.7890694 L16.5524487,54.6798892 C16.4012848,54.6672763 16.2532866,54.7788214 16.2576395,54.9017969 L16.2896926,55.7492245 C16.2928583,55.8304199 16.3636917,55.8915135 16.4638081,55.8990024 L17.7680915,55.9979346 C17.9188597,56.0093651 18.065275,55.8982141 18.0605264,55.7760269" id="Fill-559" fill="#BCBCBC" fill-rule="nonzero"></path>
                                        <polygon id="Fill-561" fill="#BCBCBC" points="16.7964874 23.1495532 16.8202304 23.7766496 7.70607522 23.1318164 7.68193648 22.4999901"></polygon>
                                        <path d="M14.7116125,21.1645626 L14.7448528,22.0454931 L10.1363319,21.7195291 L10.1090275,20.9994127 C10.1023003,20.811402 10.3258804,20.6407341 10.5577706,20.6572885 L14.4421292,20.9339834 C14.5968546,20.9450197 14.7068639,21.0392221 14.7116125,21.1645626" id="Fill-563" fill="#BCBCBC"></path>
                                        <polygon id="Fill-565" fill="#BCBCBC" points="16.8574674 24.7612816 16.8760661 25.2567311 7.7619109 24.6126862 7.7433122 24.1164484"></polygon>
                                        <polygon id="Fill-567" fill="#BCBCBC" points="16.9134614 26.2412843 16.9320601 26.7375221 7.81790486 26.0926889 7.79930616 25.5972394"></polygon>
                                        <path d="M7.85522098,27.0771238 L16.9693762,27.7211687 L17.7548746,48.485509 C17.7916762,49.450394 16.6393482,50.3289596 15.4490313,50.2442168 L10.0577821,49.8599183 C9.26159939,49.8031603 8.69691116,49.3199295 8.6723767,48.6747021 L7.85522098,27.0771238 Z" id="Fill-569" fill="#BCBCBC"></path>
                                        <path d="M16.2164454,31.3263621 L16.844844,47.9398839 C16.8673999,48.52993 16.1634193,49.0667655 15.4356956,49.0151315 L10.3804102,48.6548763 C9.89367825,48.6201908 9.54861297,48.3245766 9.53357573,47.9304242 L9.03813797,34.8358947 C9.74370148,34.8942292 10.6186319,34.8284058 11.6316676,34.4799751 C13.8472873,33.7172903 14.0368358,32.0874703 16.2164454,31.3263621" id="Fill-571" fill="url(#linearGradient-3)"></path>
                                        <polygon id="Fill-573" fill="#EFEFEF" points="26.1343811 61.8832205 49.9858309 52.5820133 48.0844104 3.47969524 24.2329606 12.7809025"></polygon>
                                        <polygon id="Fill-575" fill="#848484" fill-rule="nonzero" points="24.3124602 14.8267109 48.1635142 5.52550363 48.0843708 3.4798529 24.2333168 12.780666"></polygon>
                                        <polygon id="Fill-577" fill="#848484" fill-rule="nonzero" points="26.1396045 62.0151827 49.9906586 52.7139755 49.9115152 50.6683247 26.0604611 59.9691379"></polygon>
                                        <polygon id="Fill-589" fill="#FFFFFF" opacity="0.300000012" points="24.35405 14.8267109 0.0776001146 13.0126641 1.78559407 58.0736592"></polygon>
                                        <g id="编组-7" transform="translate(2.183567, 0.000000)">
                                            <polygon id="Fill-579" fill="#65C182" points="43.4982476 2.45139116 43.5473165 3.74421089 22.0246616 12.1365028 22.0052714 12.1349262 21.9565982 10.8444714"></polygon>
                                            <polygon id="Fill-581" fill="#4EA76A" points="21.95644 10.8443532 22.0051132 12.1352021 0.0812011398 10.4939517 0.0321322249 9.20073785"></polygon>
                                            <polygon id="Fill-583" fill="#F7F7F7" points="43.497654 2.45241596 21.9564004 10.8443138 0.0324883702 9.2018809 0.0261568974 8.35405918 21.4360325 0 43.4687667 1.60104687"></polygon>
                                            <polygon id="Fill-585" fill="#DADADA" points="21.9243077 9.99460011 21.9563608 10.8420277 0.0320530815 9.20077727 0 8.35098479"></polygon>
                                            <polygon id="Fill-587" fill="#C9C9C9" points="21.9243077 9.99460011 21.9563608 10.8420277 43.5011759 2.45052403 43.4687271 1.6011257"></polygon>
                                        </g>
                                    </g>
                                    <g id="编组" transform="translate(27.700194, 24.043294)">
                                        <polygon id="Fill-543" fill="url(#linearGradient-1)" fill-rule="nonzero" points="48.08445 3.47973466 23.8111658 1.62288291 7.91434109e-05 10.9666587 24.2333959 12.7809419"></polygon>
                                        <polygon id="Fill-545" fill="#DBDBDB" fill-rule="nonzero" points="26.1347372 61.8831811 1.85828729 60.0755984 0 10.9665798 24.2768456 12.7741625"></polygon>
                                        <path d="M24.4733983,58.4684422 L3.6452268,56.9178468 C3.41927236,56.9008983 3.22893246,56.7097344 3.2206224,56.491374 L1.63221414,14.5109949 C1.6242998,14.2922403 1.8007896,14.1282729 2.02713976,14.1452215 L22.8553113,15.6958169 C23.0812657,15.7127654 23.2716056,15.9039293 23.2799157,16.1226839 L24.8679282,58.103063 C24.8762383,58.3218175 24.6997484,58.4853907 24.4733983,58.4684422" id="Fill-547" fill="#DBDBDB" fill-rule="nonzero"></path>
                                        <polygon id="Fill-549" fill="#707070" fill-rule="nonzero" points="24.35405 14.8202468 0.0776001146 13.0126641 3.95717057e-05 10.9666192 24.2764895 12.7742019"></polygon>
                                        <polygon id="Fill-551" fill="#707070" fill-rule="nonzero" points="26.1396045 62.0151827 1.86315461 60.2076 1.78559407 58.1615552 26.062044 59.9691379"></polygon>
                                        <path d="M4.59130714,40.5976926 L4.35545977,40.5791675 C4.20587872,40.5677371 4.10022227,40.4762937 4.09586938,40.3548948 L3.76148847,31.5176048 C3.75436556,31.334324 3.97477996,31.1672034 4.2007344,31.1849402 L4.43658177,31.2034654 C4.58616281,31.21529 4.69181927,31.3063392 4.69617215,31.4277381 L5.03055307,40.265028 C5.03767597,40.448703 4.81726157,40.6154295 4.59130714,40.5976926" id="Fill-553" fill="#BCBCBC"></path>
                                        <path d="M22.4030462,56.1069572 L22.3713889,55.2693834 C22.3682231,55.1889763 22.2985769,55.1282769 22.1996477,55.1199997 L20.8949685,55.0108195 C20.7438046,54.9982066 20.5958064,55.1097517 20.6001593,55.2327273 L20.6322124,56.0801548 C20.6353781,56.1613502 20.7062115,56.2224438 20.8059322,56.2299327 L22.1106113,56.328865 C22.2609838,56.3402954 22.4077948,56.2291444 22.4030462,56.1069572" id="Fill-555" fill="#BCBCBC" fill-rule="nonzero"></path>
                                        <path d="M20.2317863,55.941492 L20.200129,55.1039183 C20.1969632,55.0235112 20.127317,54.9628117 20.0283878,54.9545345 L18.7237086,54.8453543 C18.5725447,54.8327414 18.4245465,54.9442866 18.4292951,55.0672621 L18.4609525,55.9146897 C18.4641182,55.995885 18.5349516,56.0569787 18.635068,56.0644676 L19.9393514,56.1633998 C20.0901196,56.1748302 20.2365349,56.0636793 20.2317863,55.941492" id="Fill-557" fill="#BCBCBC" fill-rule="nonzero"></path>
                                        <path d="M18.0605264,55.7760269 L18.028869,54.9384531 C18.0257033,54.858046 17.9560571,54.7973466 17.8571278,54.7890694 L16.5524487,54.6798892 C16.4012848,54.6672763 16.2532866,54.7788214 16.2576395,54.9017969 L16.2896926,55.7492245 C16.2928583,55.8304199 16.3636917,55.8915135 16.4638081,55.8990024 L17.7680915,55.9979346 C17.9188597,56.0093651 18.065275,55.8982141 18.0605264,55.7760269" id="Fill-559" fill="#BCBCBC" fill-rule="nonzero"></path>
                                        <polygon id="Fill-561" fill="#BCBCBC" points="16.7964874 23.1495532 16.8202304 23.7766496 7.70607522 23.1318164 7.68193648 22.4999901"></polygon>
                                        <path d="M14.7116125,21.1645626 L14.7448528,22.0454931 L10.1363319,21.7195291 L10.1090275,20.9994127 C10.1023003,20.811402 10.3258804,20.6407341 10.5577706,20.6572885 L14.4421292,20.9339834 C14.5968546,20.9450197 14.7068639,21.0392221 14.7116125,21.1645626" id="Fill-563" fill="#BCBCBC"></path>
                                        <polygon id="Fill-565" fill="#BCBCBC" points="16.8574674 24.7612816 16.8760661 25.2567311 7.7619109 24.6126862 7.7433122 24.1164484"></polygon>
                                        <polygon id="Fill-567" fill="#BCBCBC" points="16.9134614 26.2412843 16.9320601 26.7375221 7.81790486 26.0926889 7.79930616 25.5972394"></polygon>
                                        <path d="M7.85522098,27.0771238 L16.9693762,27.7211687 L17.7548746,48.485509 C17.7916762,49.450394 16.6393482,50.3289596 15.4490313,50.2442168 L10.0577821,49.8599183 C9.26159939,49.8031603 8.69691116,49.3199295 8.6723767,48.6747021 L7.85522098,27.0771238 Z" id="Fill-569" fill="#BCBCBC"></path>
                                        <path d="M16.2164454,31.3263621 L16.844844,47.9398839 C16.8673999,48.52993 16.1634193,49.0667655 15.4356956,49.0151315 L10.3804102,48.6548763 C9.89367825,48.6201908 9.54861297,48.3245766 9.53357573,47.9304242 L9.03813797,34.8358947 C9.74370148,34.8942292 10.6186319,34.8284058 11.6316676,34.4799751 C13.8472873,33.7172903 14.0368358,32.0874703 16.2164454,31.3263621" id="Fill-571" fill="url(#linearGradient-3)"></path>
                                        <polygon id="Fill-573" fill="#EFEFEF" points="26.1343811 61.8832205 49.9858309 52.5820133 48.0844104 3.47969524 24.2329606 12.7809025"></polygon>
                                        <polygon id="Fill-575" fill="#848484" fill-rule="nonzero" points="24.3124602 14.8267109 48.1635142 5.52550363 48.0843708 3.4798529 24.2333168 12.780666"></polygon>
                                        <polygon id="Fill-577" fill="#848484" fill-rule="nonzero" points="26.1396045 62.0151827 49.9906586 52.7139755 49.9115152 50.6683247 26.0604611 59.9691379"></polygon>
                                        <polygon id="Fill-589" fill="#FFFFFF" opacity="0.300000012" points="24.35405 14.8267109 0.0776001146 13.0126641 1.78559407 58.0736592"></polygon>
                                        <g id="编组-7" transform="translate(2.183567, 0.000000)">
                                            <polygon id="Fill-579" fill="#65C182" points="43.4982476 2.45139116 43.5473165 3.74421089 22.0246616 12.1365028 22.0052714 12.1349262 21.9565982 10.8444714"></polygon>
                                            <polygon id="Fill-581" fill="#4EA76A" points="21.95644 10.8443532 22.0051132 12.1352021 0.0812011398 10.4939517 0.0321322249 9.20073785"></polygon>
                                            <polygon id="Fill-583" fill="#F7F7F7" points="43.497654 2.45241596 21.9564004 10.8443138 0.0324883702 9.2018809 0.0261568974 8.35405918 21.4360325 0 43.4687667 1.60104687"></polygon>
                                            <polygon id="Fill-585" fill="#DADADA" points="21.9243077 9.99460011 21.9563608 10.8420277 0.0320530815 9.20077727 0 8.35098479"></polygon>
                                            <polygon id="Fill-587" fill="#C9C9C9" points="21.9243077 9.99460011 21.9563608 10.8420277 43.5011759 2.45052403 43.4687271 1.6011257"></polygon>
                                        </g>
                                    </g>
                                    <g id="编组" transform="translate(82.309148, 14.977790)">
                                        <polygon id="Fill-543" fill="url(#linearGradient-1)" fill-rule="nonzero" points="48.08445 3.47973466 23.8111658 1.62288291 7.91434109e-05 10.9666587 24.2333959 12.7809419"></polygon>
                                        <polygon id="Fill-545" fill="#DBDBDB" fill-rule="nonzero" points="26.1347372 61.8831811 1.85828729 60.0755984 0 10.9665798 24.2768456 12.7741625"></polygon>
                                        <path d="M24.4733983,58.4684422 L3.6452268,56.9178468 C3.41927236,56.9008983 3.22893246,56.7097344 3.2206224,56.491374 L1.63221414,14.5109949 C1.6242998,14.2922403 1.8007896,14.1282729 2.02713976,14.1452215 L22.8553113,15.6958169 C23.0812657,15.7127654 23.2716056,15.9039293 23.2799157,16.1226839 L24.8679282,58.103063 C24.8762383,58.3218175 24.6997484,58.4853907 24.4733983,58.4684422" id="Fill-547" fill="#DBDBDB" fill-rule="nonzero"></path>
                                        <polygon id="Fill-549" fill="#707070" fill-rule="nonzero" points="24.35405 14.8202468 0.0776001146 13.0126641 3.95717057e-05 10.9666192 24.2764895 12.7742019"></polygon>
                                        <polygon id="Fill-551" fill="#707070" fill-rule="nonzero" points="26.1396045 62.0151827 1.86315461 60.2076 1.78559407 58.1615552 26.062044 59.9691379"></polygon>
                                        <path d="M4.59130714,40.5976926 L4.35545977,40.5791675 C4.20587872,40.5677371 4.10022227,40.4762937 4.09586938,40.3548948 L3.76148847,31.5176048 C3.75436556,31.334324 3.97477996,31.1672034 4.2007344,31.1849402 L4.43658177,31.2034654 C4.58616281,31.21529 4.69181927,31.3063392 4.69617215,31.4277381 L5.03055307,40.265028 C5.03767597,40.448703 4.81726157,40.6154295 4.59130714,40.5976926" id="Fill-553" fill="#BCBCBC"></path>
                                        <path d="M22.4030462,56.1069572 L22.3713889,55.2693834 C22.3682231,55.1889763 22.2985769,55.1282769 22.1996477,55.1199997 L20.8949685,55.0108195 C20.7438046,54.9982066 20.5958064,55.1097517 20.6001593,55.2327273 L20.6322124,56.0801548 C20.6353781,56.1613502 20.7062115,56.2224438 20.8059322,56.2299327 L22.1106113,56.328865 C22.2609838,56.3402954 22.4077948,56.2291444 22.4030462,56.1069572" id="Fill-555" fill="#BCBCBC" fill-rule="nonzero"></path>
                                        <path d="M20.2317863,55.941492 L20.200129,55.1039183 C20.1969632,55.0235112 20.127317,54.9628117 20.0283878,54.9545345 L18.7237086,54.8453543 C18.5725447,54.8327414 18.4245465,54.9442866 18.4292951,55.0672621 L18.4609525,55.9146897 C18.4641182,55.995885 18.5349516,56.0569787 18.635068,56.0644676 L19.9393514,56.1633998 C20.0901196,56.1748302 20.2365349,56.0636793 20.2317863,55.941492" id="Fill-557" fill="#BCBCBC" fill-rule="nonzero"></path>
                                        <path d="M18.0605264,55.7760269 L18.028869,54.9384531 C18.0257033,54.858046 17.9560571,54.7973466 17.8571278,54.7890694 L16.5524487,54.6798892 C16.4012848,54.6672763 16.2532866,54.7788214 16.2576395,54.9017969 L16.2896926,55.7492245 C16.2928583,55.8304199 16.3636917,55.8915135 16.4638081,55.8990024 L17.7680915,55.9979346 C17.9188597,56.0093651 18.065275,55.8982141 18.0605264,55.7760269" id="Fill-559" fill="#BCBCBC" fill-rule="nonzero"></path>
                                        <polygon id="Fill-561" fill="#BCBCBC" points="16.7964874 23.1495532 16.8202304 23.7766496 7.70607522 23.1318164 7.68193648 22.4999901"></polygon>
                                        <path d="M14.7116125,21.1645626 L14.7448528,22.0454931 L10.1363319,21.7195291 L10.1090275,20.9994127 C10.1023003,20.811402 10.3258804,20.6407341 10.5577706,20.6572885 L14.4421292,20.9339834 C14.5968546,20.9450197 14.7068639,21.0392221 14.7116125,21.1645626" id="Fill-563" fill="#BCBCBC"></path>
                                        <polygon id="Fill-565" fill="#BCBCBC" points="16.8574674 24.7612816 16.8760661 25.2567311 7.7619109 24.6126862 7.7433122 24.1164484"></polygon>
                                        <polygon id="Fill-567" fill="#BCBCBC" points="16.9134614 26.2412843 16.9320601 26.7375221 7.81790486 26.0926889 7.79930616 25.5972394"></polygon>
                                        <path d="M7.85522098,27.0771238 L16.9693762,27.7211687 L17.7548746,48.485509 C17.7916762,49.450394 16.6393482,50.3289596 15.4490313,50.2442168 L10.0577821,49.8599183 C9.26159939,49.8031603 8.69691116,49.3199295 8.6723767,48.6747021 L7.85522098,27.0771238 Z" id="Fill-569" fill="#BCBCBC"></path>
                                        <path d="M16.2164454,31.3263621 L16.844844,47.9398839 C16.8673999,48.52993 16.1634193,49.0667655 15.4356956,49.0151315 L10.3804102,48.6548763 C9.89367825,48.6201908 9.54861297,48.3245766 9.53357573,47.9304242 L9.03813797,34.8358947 C9.74370148,34.8942292 10.6186319,34.8284058 11.6316676,34.4799751 C13.8472873,33.7172903 14.0368358,32.0874703 16.2164454,31.3263621" id="Fill-571" fill="url(#linearGradient-2)"></path>
                                        <polygon id="Fill-573" fill="#EFEFEF" points="26.1343811 61.8832205 49.9858309 52.5820133 48.0844104 3.47969524 24.2329606 12.7809025"></polygon>
                                        <polygon id="Fill-575" fill="#848484" fill-rule="nonzero" points="24.3124602 14.8267109 48.1635142 5.52550363 48.0843708 3.4798529 24.2333168 12.780666"></polygon>
                                        <polygon id="Fill-577" fill="#848484" fill-rule="nonzero" points="26.1396045 62.0151827 49.9906586 52.7139755 49.9115152 50.6683247 26.0604611 59.9691379"></polygon>
                                        <g id="编组-7" transform="translate(2.183567, 0.000000)">
                                            <polygon id="Fill-579" fill="#65C182" points="43.4982476 2.45139116 43.5473165 3.74421089 22.0246616 12.1365028 22.0052714 12.1349262 21.9565982 10.8444714"></polygon>
                                            <polygon id="Fill-581" fill="#59B977" points="21.95644 10.8443532 22.0051132 12.1352021 0.0812011398 10.4939517 0.0321322249 9.20073785"></polygon>
                                            <polygon id="Fill-583" fill="#F7F7F7" points="43.497654 2.45241596 21.9564004 10.8443138 0.0324883702 9.2018809 0.0261568974 8.35405918 21.4360325 0 43.4687667 1.60104687"></polygon>
                                            <polygon id="Fill-585" fill="#DADADA" points="21.9243077 9.99460011 21.9563608 10.8420277 0.0320530815 9.20077727 0 8.35098479"></polygon>
                                            <polygon id="Fill-587" fill="#C9C9C9" points="21.9243077 9.99460011 21.9563608 10.8420277 43.5011759 2.45052403 43.4687271 1.6011257"></polygon>
                                        </g>
                                    </g>
                                    <g id="编组" transform="translate(110.009341, 16.948551)">
                                        <polygon id="Fill-543" fill="url(#linearGradient-1)" fill-rule="nonzero" points="48.08445 3.47973466 23.8111658 1.62288291 7.91434109e-05 10.9666587 24.2333959 12.7809419"></polygon>
                                        <polygon id="Fill-545" fill="#DBDBDB" fill-rule="nonzero" points="26.1347372 61.8831811 1.85828729 60.0755984 0 10.9665798 24.2768456 12.7741625"></polygon>
                                        <path d="M24.4733983,58.4684422 L3.6452268,56.9178468 C3.41927236,56.9008983 3.22893246,56.7097344 3.2206224,56.491374 L1.63221414,14.5109949 C1.6242998,14.2922403 1.8007896,14.1282729 2.02713976,14.1452215 L22.8553113,15.6958169 C23.0812657,15.7127654 23.2716056,15.9039293 23.2799157,16.1226839 L24.8679282,58.103063 C24.8762383,58.3218175 24.6997484,58.4853907 24.4733983,58.4684422" id="Fill-547" fill="#DBDBDB" fill-rule="nonzero"></path>
                                        <polygon id="Fill-549" fill="#707070" fill-rule="nonzero" points="24.35405 14.8202468 0.0776001146 13.0126641 3.95717057e-05 10.9666192 24.2764895 12.7742019"></polygon>
                                        <polygon id="Fill-551" fill="#707070" fill-rule="nonzero" points="26.1396045 62.0151827 1.86315461 60.2076 1.78559407 58.1615552 26.062044 59.9691379"></polygon>
                                        <path d="M4.59130714,40.5976926 L4.35545977,40.5791675 C4.20587872,40.5677371 4.10022227,40.4762937 4.09586938,40.3548948 L3.76148847,31.5176048 C3.75436556,31.334324 3.97477996,31.1672034 4.2007344,31.1849402 L4.43658177,31.2034654 C4.58616281,31.21529 4.69181927,31.3063392 4.69617215,31.4277381 L5.03055307,40.265028 C5.03767597,40.448703 4.81726157,40.6154295 4.59130714,40.5976926" id="Fill-553" fill="#BCBCBC"></path>
                                        <path d="M22.4030462,56.1069572 L22.3713889,55.2693834 C22.3682231,55.1889763 22.2985769,55.1282769 22.1996477,55.1199997 L20.8949685,55.0108195 C20.7438046,54.9982066 20.5958064,55.1097517 20.6001593,55.2327273 L20.6322124,56.0801548 C20.6353781,56.1613502 20.7062115,56.2224438 20.8059322,56.2299327 L22.1106113,56.328865 C22.2609838,56.3402954 22.4077948,56.2291444 22.4030462,56.1069572" id="Fill-555" fill="#BCBCBC" fill-rule="nonzero"></path>
                                        <path d="M20.2317863,55.941492 L20.200129,55.1039183 C20.1969632,55.0235112 20.127317,54.9628117 20.0283878,54.9545345 L18.7237086,54.8453543 C18.5725447,54.8327414 18.4245465,54.9442866 18.4292951,55.0672621 L18.4609525,55.9146897 C18.4641182,55.995885 18.5349516,56.0569787 18.635068,56.0644676 L19.9393514,56.1633998 C20.0901196,56.1748302 20.2365349,56.0636793 20.2317863,55.941492" id="Fill-557" fill="#BCBCBC" fill-rule="nonzero"></path>
                                        <path d="M18.0605264,55.7760269 L18.028869,54.9384531 C18.0257033,54.858046 17.9560571,54.7973466 17.8571278,54.7890694 L16.5524487,54.6798892 C16.4012848,54.6672763 16.2532866,54.7788214 16.2576395,54.9017969 L16.2896926,55.7492245 C16.2928583,55.8304199 16.3636917,55.8915135 16.4638081,55.8990024 L17.7680915,55.9979346 C17.9188597,56.0093651 18.065275,55.8982141 18.0605264,55.7760269" id="Fill-559" fill="#BCBCBC" fill-rule="nonzero"></path>
                                        <polygon id="Fill-561" fill="#BCBCBC" points="16.7964874 23.1495532 16.8202304 23.7766496 7.70607522 23.1318164 7.68193648 22.4999901"></polygon>
                                        <path d="M14.7116125,21.1645626 L14.7448528,22.0454931 L10.1363319,21.7195291 L10.1090275,20.9994127 C10.1023003,20.811402 10.3258804,20.6407341 10.5577706,20.6572885 L14.4421292,20.9339834 C14.5968546,20.9450197 14.7068639,21.0392221 14.7116125,21.1645626" id="Fill-563" fill="#BCBCBC"></path>
                                        <polygon id="Fill-565" fill="#BCBCBC" points="16.8574674 24.7612816 16.8760661 25.2567311 7.7619109 24.6126862 7.7433122 24.1164484"></polygon>
                                        <polygon id="Fill-567" fill="#BCBCBC" points="16.9134614 26.2412843 16.9320601 26.7375221 7.81790486 26.0926889 7.79930616 25.5972394"></polygon>
                                        <path d="M7.85522098,27.0771238 L16.9693762,27.7211687 L17.7548746,48.485509 C17.7916762,49.450394 16.6393482,50.3289596 15.4490313,50.2442168 L10.0577821,49.8599183 C9.26159939,49.8031603 8.69691116,49.3199295 8.6723767,48.6747021 L7.85522098,27.0771238 Z" id="Fill-569" fill="#BCBCBC"></path>
                                        <path d="M16.2164454,31.3263621 L16.844844,47.9398839 C16.8673999,48.52993 16.1634193,49.0667655 15.4356956,49.0151315 L10.3804102,48.6548763 C9.89367825,48.6201908 9.54861297,48.3245766 9.53357573,47.9304242 L9.03813797,34.8358947 C9.74370148,34.8942292 10.6186319,34.8284058 11.6316676,34.4799751 C13.8472873,33.7172903 14.0368358,32.0874703 16.2164454,31.3263621" id="Fill-571" fill="url(#linearGradient-2)"></path>
                                        <polygon id="Fill-573" fill="#EFEFEF" points="26.1343811 61.8832205 49.9858309 52.5820133 48.0844104 3.47969524 24.2329606 12.7809025"></polygon>
                                        <polygon id="Fill-575" fill="#848484" fill-rule="nonzero" points="24.3124602 14.8267109 48.1635142 5.52550363 48.0843708 3.4798529 24.2333168 12.780666"></polygon>
                                        <polygon id="Fill-577" fill="#848484" fill-rule="nonzero" points="26.1396045 62.0151827 49.9906586 52.7139755 49.9115152 50.6683247 26.0604611 59.9691379"></polygon>
                                        <g id="编组-7" transform="translate(2.183567, 0.000000)">
                                            <polygon id="Fill-579" fill="#65C182" points="43.4982476 2.45139116 43.5473165 3.74421089 22.0246616 12.1365028 22.0052714 12.1349262 21.9565982 10.8444714"></polygon>
                                            <polygon id="Fill-581" fill="#4EA76A" points="21.95644 10.8443532 22.0051132 12.1352021 0.0812011398 10.4939517 0.0321322249 9.20073785"></polygon>
                                            <polygon id="Fill-583" fill="#F7F7F7" points="43.497654 2.45241596 21.9564004 10.8443138 0.0324883702 9.2018809 0.0261568974 8.35405918 21.4360325 0 43.4687667 1.60104687"></polygon>
                                            <polygon id="Fill-585" fill="#DADADA" points="21.9243077 9.99460011 21.9563608 10.8420277 0.0320530815 9.20077727 0 8.35098479"></polygon>
                                            <polygon id="Fill-587" fill="#C9C9C9" points="21.9243077 9.99460011 21.9563608 10.8420277 43.5011759 2.45052403 43.4687271 1.6011257"></polygon>
                                        </g>
                                    </g>
                                    <g id="编组" transform="translate(55.400388, 26.014055)">
                                        <polygon id="Fill-543" fill="url(#linearGradient-1)" fill-rule="nonzero" points="48.08445 3.47973466 23.8111658 1.62288291 7.91434109e-05 10.9666587 24.2333959 12.7809419"></polygon>
                                        <polygon id="Fill-545" fill="#DBDBDB" fill-rule="nonzero" points="26.1347372 61.8831811 1.85828729 60.0755984 0 10.9665798 24.2768456 12.7741625"></polygon>
                                        <path d="M24.4733983,58.4684422 L3.6452268,56.9178468 C3.41927236,56.9008983 3.22893246,56.7097344 3.2206224,56.491374 L1.63221414,14.5109949 C1.6242998,14.2922403 1.8007896,14.1282729 2.02713976,14.1452215 L22.8553113,15.6958169 C23.0812657,15.7127654 23.2716056,15.9039293 23.2799157,16.1226839 L24.8679282,58.103063 C24.8762383,58.3218175 24.6997484,58.4853907 24.4733983,58.4684422" id="Fill-547" fill="#DBDBDB" fill-rule="nonzero"></path>
                                        <polygon id="Fill-549" fill="#707070" fill-rule="nonzero" points="24.35405 14.8202468 0.0776001146 13.0126641 3.95717057e-05 10.9666192 24.2764895 12.7742019"></polygon>
                                        <polygon id="Fill-551" fill="#707070" fill-rule="nonzero" points="26.1396045 62.0151827 1.86315461 60.2076 1.78559407 58.1615552 26.062044 59.9691379"></polygon>
                                        <path d="M4.59130714,40.5976926 L4.35545977,40.5791675 C4.20587872,40.5677371 4.10022227,40.4762937 4.09586938,40.3548948 L3.76148847,31.5176048 C3.75436556,31.334324 3.97477996,31.1672034 4.2007344,31.1849402 L4.43658177,31.2034654 C4.58616281,31.21529 4.69181927,31.3063392 4.69617215,31.4277381 L5.03055307,40.265028 C5.03767597,40.448703 4.81726157,40.6154295 4.59130714,40.5976926" id="Fill-553" fill="#BCBCBC"></path>
                                        <path d="M22.4030462,56.1069572 L22.3713889,55.2693834 C22.3682231,55.1889763 22.2985769,55.1282769 22.1996477,55.1199997 L20.8949685,55.0108195 C20.7438046,54.9982066 20.5958064,55.1097517 20.6001593,55.2327273 L20.6322124,56.0801548 C20.6353781,56.1613502 20.7062115,56.2224438 20.8059322,56.2299327 L22.1106113,56.328865 C22.2609838,56.3402954 22.4077948,56.2291444 22.4030462,56.1069572" id="Fill-555" fill="#BCBCBC" fill-rule="nonzero"></path>
                                        <path d="M20.2317863,55.941492 L20.200129,55.1039183 C20.1969632,55.0235112 20.127317,54.9628117 20.0283878,54.9545345 L18.7237086,54.8453543 C18.5725447,54.8327414 18.4245465,54.9442866 18.4292951,55.0672621 L18.4609525,55.9146897 C18.4641182,55.995885 18.5349516,56.0569787 18.635068,56.0644676 L19.9393514,56.1633998 C20.0901196,56.1748302 20.2365349,56.0636793 20.2317863,55.941492" id="Fill-557" fill="#BCBCBC" fill-rule="nonzero"></path>
                                        <path d="M18.0605264,55.7760269 L18.028869,54.9384531 C18.0257033,54.858046 17.9560571,54.7973466 17.8571278,54.7890694 L16.5524487,54.6798892 C16.4012848,54.6672763 16.2532866,54.7788214 16.2576395,54.9017969 L16.2896926,55.7492245 C16.2928583,55.8304199 16.3636917,55.8915135 16.4638081,55.8990024 L17.7680915,55.9979346 C17.9188597,56.0093651 18.065275,55.8982141 18.0605264,55.7760269" id="Fill-559" fill="#BCBCBC" fill-rule="nonzero"></path>
                                        <polygon id="Fill-561" fill="#BCBCBC" points="16.7964874 23.1495532 16.8202304 23.7766496 7.70607522 23.1318164 7.68193648 22.4999901"></polygon>
                                        <path d="M14.7116125,21.1645626 L14.7448528,22.0454931 L10.1363319,21.7195291 L10.1090275,20.9994127 C10.1023003,20.811402 10.3258804,20.6407341 10.5577706,20.6572885 L14.4421292,20.9339834 C14.5968546,20.9450197 14.7068639,21.0392221 14.7116125,21.1645626" id="Fill-563" fill="#BCBCBC"></path>
                                        <polygon id="Fill-565" fill="#BCBCBC" points="16.8574674 24.7612816 16.8760661 25.2567311 7.7619109 24.6126862 7.7433122 24.1164484"></polygon>
                                        <polygon id="Fill-567" fill="#BCBCBC" points="16.9134614 26.2412843 16.9320601 26.7375221 7.81790486 26.0926889 7.79930616 25.5972394"></polygon>
                                        <path d="M7.85522098,27.0771238 L16.9693762,27.7211687 L17.7548746,48.485509 C17.7916762,49.450394 16.6393482,50.3289596 15.4490313,50.2442168 L10.0577821,49.8599183 C9.26159939,49.8031603 8.69691116,49.3199295 8.6723767,48.6747021 L7.85522098,27.0771238 Z" id="Fill-569" fill="#BCBCBC"></path>
                                        <path d="M16.2164454,31.3263621 L16.844844,47.9398839 C16.8673999,48.52993 16.1634193,49.0667655 15.4356956,49.0151315 L10.3804102,48.6548763 C9.89367825,48.6201908 9.54861297,48.3245766 9.53357573,47.9304242 L9.03813797,34.8358947 C9.74370148,34.8942292 10.6186319,34.8284058 11.6316676,34.4799751 C13.8472873,33.7172903 14.0368358,32.0874703 16.2164454,31.3263621" id="Fill-571" fill="url(#linearGradient-3)"></path>
                                        <polygon id="Fill-573" fill="#EFEFEF" points="26.1343811 61.8832205 49.9858309 52.5820133 48.0844104 3.47969524 24.2329606 12.7809025"></polygon>
                                        <polygon id="Fill-575" fill="#848484" fill-rule="nonzero" points="24.3124602 14.8267109 48.1635142 5.52550363 48.0843708 3.4798529 24.2333168 12.780666"></polygon>
                                        <polygon id="Fill-577" fill="#848484" fill-rule="nonzero" points="26.1396045 62.0151827 49.9906586 52.7139755 49.9115152 50.6683247 26.0604611 59.9691379"></polygon>
                                        <polygon id="Fill-589" fill="#FFFFFF" opacity="0.300000012" points="24.35405 14.8267109 0.0776001146 13.0126641 1.78559407 58.0736592"></polygon>
                                        <g id="编组-7" transform="translate(2.183567, 0.000000)">
                                            <polygon id="Fill-579" fill="#65C182" points="43.4982476 2.45139116 43.5473165 3.74421089 22.0246616 12.1365028 22.0052714 12.1349262 21.9565982 10.8444714"></polygon>
                                            <polygon id="Fill-581" fill="#4EA76A" points="21.95644 10.8443532 22.0051132 12.1352021 0.0812011398 10.4939517 0.0321322249 9.20073785"></polygon>
                                            <polygon id="Fill-583" fill="#F7F7F7" points="43.497654 2.45241596 21.9564004 10.8443138 0.0324883702 9.2018809 0.0261568974 8.35405918 21.4360325 0 43.4687667 1.60104687"></polygon>
                                            <polygon id="Fill-585" fill="#DADADA" points="21.9243077 9.99460011 21.9563608 10.8420277 0.0320530815 9.20077727 0 8.35098479"></polygon>
                                            <polygon id="Fill-587" fill="#C9C9C9" points="21.9243077 9.99460011 21.9563608 10.8420277 43.5011759 2.45052403 43.4687271 1.6011257"></polygon>
                                        </g>
                                    </g>
                                    <g id="编组" transform="translate(83.100582, 27.984817)">
                                        <polygon id="Fill-543" fill="url(#linearGradient-1)" fill-rule="nonzero" points="48.08445 3.47973466 23.8111658 1.62288291 7.91434109e-05 10.9666587 24.2333959 12.7809419"></polygon>
                                        <polygon id="Fill-545" fill="#DBDBDB" fill-rule="nonzero" points="26.1347372 61.8831811 1.85828729 60.0755984 0 10.9665798 24.2768456 12.7741625"></polygon>
                                        <path d="M24.4733983,58.4684422 L3.6452268,56.9178468 C3.41927236,56.9008983 3.22893246,56.7097344 3.2206224,56.491374 L1.63221414,14.5109949 C1.6242998,14.2922403 1.8007896,14.1282729 2.02713976,14.1452215 L22.8553113,15.6958169 C23.0812657,15.7127654 23.2716056,15.9039293 23.2799157,16.1226839 L24.8679282,58.103063 C24.8762383,58.3218175 24.6997484,58.4853907 24.4733983,58.4684422" id="Fill-547" fill="#DBDBDB" fill-rule="nonzero"></path>
                                        <polygon id="Fill-549" fill="#707070" fill-rule="nonzero" points="24.35405 14.8202468 0.0776001146 13.0126641 3.95717057e-05 10.9666192 24.2764895 12.7742019"></polygon>
                                        <polygon id="Fill-551" fill="#707070" fill-rule="nonzero" points="26.1396045 62.0151827 1.86315461 60.2076 1.78559407 58.1615552 26.062044 59.9691379"></polygon>
                                        <path d="M4.59130714,40.5976926 L4.35545977,40.5791675 C4.20587872,40.5677371 4.10022227,40.4762937 4.09586938,40.3548948 L3.76148847,31.5176048 C3.75436556,31.334324 3.97477996,31.1672034 4.2007344,31.1849402 L4.43658177,31.2034654 C4.58616281,31.21529 4.69181927,31.3063392 4.69617215,31.4277381 L5.03055307,40.265028 C5.03767597,40.448703 4.81726157,40.6154295 4.59130714,40.5976926" id="Fill-553" fill="#BCBCBC"></path>
                                        <path d="M22.4030462,56.1069572 L22.3713889,55.2693834 C22.3682231,55.1889763 22.2985769,55.1282769 22.1996477,55.1199997 L20.8949685,55.0108195 C20.7438046,54.9982066 20.5958064,55.1097517 20.6001593,55.2327273 L20.6322124,56.0801548 C20.6353781,56.1613502 20.7062115,56.2224438 20.8059322,56.2299327 L22.1106113,56.328865 C22.2609838,56.3402954 22.4077948,56.2291444 22.4030462,56.1069572" id="Fill-555" fill="#BCBCBC" fill-rule="nonzero"></path>
                                        <path d="M20.2317863,55.941492 L20.200129,55.1039183 C20.1969632,55.0235112 20.127317,54.9628117 20.0283878,54.9545345 L18.7237086,54.8453543 C18.5725447,54.8327414 18.4245465,54.9442866 18.4292951,55.0672621 L18.4609525,55.9146897 C18.4641182,55.995885 18.5349516,56.0569787 18.635068,56.0644676 L19.9393514,56.1633998 C20.0901196,56.1748302 20.2365349,56.0636793 20.2317863,55.941492" id="Fill-557" fill="#BCBCBC" fill-rule="nonzero"></path>
                                        <path d="M18.0605264,55.7760269 L18.028869,54.9384531 C18.0257033,54.858046 17.9560571,54.7973466 17.8571278,54.7890694 L16.5524487,54.6798892 C16.4012848,54.6672763 16.2532866,54.7788214 16.2576395,54.9017969 L16.2896926,55.7492245 C16.2928583,55.8304199 16.3636917,55.8915135 16.4638081,55.8990024 L17.7680915,55.9979346 C17.9188597,56.0093651 18.065275,55.8982141 18.0605264,55.7760269" id="Fill-559" fill="#BCBCBC" fill-rule="nonzero"></path>
                                        <polygon id="Fill-561" fill="#BCBCBC" points="16.7964874 23.1495532 16.8202304 23.7766496 7.70607522 23.1318164 7.68193648 22.4999901"></polygon>
                                        <path d="M14.7116125,21.1645626 L14.7448528,22.0454931 L10.1363319,21.7195291 L10.1090275,20.9994127 C10.1023003,20.811402 10.3258804,20.6407341 10.5577706,20.6572885 L14.4421292,20.9339834 C14.5968546,20.9450197 14.7068639,21.0392221 14.7116125,21.1645626" id="Fill-563" fill="#BCBCBC"></path>
                                        <polygon id="Fill-565" fill="#BCBCBC" points="16.8574674 24.7612816 16.8760661 25.2567311 7.7619109 24.6126862 7.7433122 24.1164484"></polygon>
                                        <polygon id="Fill-567" fill="#BCBCBC" points="16.9134614 26.2412843 16.9320601 26.7375221 7.81790486 26.0926889 7.79930616 25.5972394"></polygon>
                                        <path d="M7.85522098,27.0771238 L16.9693762,27.7211687 L17.7548746,48.485509 C17.7916762,49.450394 16.6393482,50.3289596 15.4490313,50.2442168 L10.0577821,49.8599183 C9.26159939,49.8031603 8.69691116,49.3199295 8.6723767,48.6747021 L7.85522098,27.0771238 Z" id="Fill-569" fill="#BCBCBC"></path>
                                        <path d="M16.2164454,31.3263621 L16.844844,47.9398839 C16.8673999,48.52993 16.1634193,49.0667655 15.4356956,49.0151315 L10.3804102,48.6548763 C9.89367825,48.6201908 9.54861297,48.3245766 9.53357573,47.9304242 L9.03813797,34.8358947 C9.74370148,34.8942292 10.6186319,34.8284058 11.6316676,34.4799751 C13.8472873,33.7172903 14.0368358,32.0874703 16.2164454,31.3263621" id="Fill-571" fill="url(#linearGradient-3)"></path>
                                        <polygon id="Fill-573" fill="#EFEFEF" points="26.1343811 61.8832205 49.9858309 52.5820133 48.0844104 3.47969524 24.2329606 12.7809025"></polygon>
                                        <polygon id="Fill-575" fill="#848484" fill-rule="nonzero" points="24.3124602 14.8267109 48.1635142 5.52550363 48.0843708 3.4798529 24.2333168 12.780666"></polygon>
                                        <polygon id="Fill-577" fill="#848484" fill-rule="nonzero" points="26.1396045 62.0151827 49.9906586 52.7139755 49.9115152 50.6683247 26.0604611 59.9691379"></polygon>
                                        <polygon id="Fill-589" fill="#FFFFFF" opacity="0.300000012" points="24.35405 14.8267109 0.0776001146 13.0126641 1.78559407 58.0736592"></polygon>
                                        <g id="编组-7" transform="translate(2.183567, 0.000000)">
                                            <polygon id="Fill-579" fill="#65C182" points="43.4982476 2.45139116 43.5473165 3.74421089 22.0246616 12.1365028 22.0052714 12.1349262 21.9565982 10.8444714"></polygon>
                                            <polygon id="Fill-581" fill="#4EA76A" points="21.95644 10.8443532 22.0051132 12.1352021 0.0812011398 10.4939517 0.0321322249 9.20073785"></polygon>
                                            <polygon id="Fill-583" fill="#F7F7F7" points="43.497654 2.45241596 21.9564004 10.8443138 0.0324883702 9.2018809 0.0261568974 8.35405918 21.4360325 0 43.4687667 1.60104687"></polygon>
                                            <polygon id="Fill-585" fill="#DADADA" points="21.9243077 9.99460011 21.9563608 10.8420277 0.0320530815 9.20077727 0 8.35098479"></polygon>
                                            <polygon id="Fill-587" fill="#C9C9C9" points="21.9243077 9.99460011 21.9563608 10.8420277 43.5011759 2.45052403 43.4687271 1.6011257"></polygon>
                                        </g>
                                    </g>
                                </g>
                            </g>
                        </g>
                    </g>
                </g>
            </g>
        </g>
    </g>
</svg>