<?xml version="1.0" encoding="UTF-8"?>
<svg width="20px" height="20px" viewBox="0 0 20 20" version="1.1" xmlns="http://www.w3.org/2000/svg" xmlns:xlink="http://www.w3.org/1999/xlink">
    <!-- <title>icon_正在发电</title> -->
    <g id="光储充及工商储管理系统V1.3" stroke="none" stroke-width="1" fill="none" fill-rule="evenodd">
        <g id="3_3.设备监视_发电单元监视" transform="translate(-256.000000, -200.000000)">
            <g id="main" transform="translate(212.000000, 102.000000)">
                <g id="编组2" transform="translate(20.000000, 72.000000)">
                    <g id="编组-1" transform="translate(24.000000, 24.000000)">
                        <g id="icon_正在发电" transform="translate(0.000000, 2.000000)">
                            <rect id="矩形" x="0" y="0" width="20" height="20"></rect>
                            <g id="发电系统" fill="#007DFF" fill-rule="nonzero">
                                <rect id="矩形" opacity="0" x="0" y="0" width="20" height="20"></rect>
                                <path d="M12.7272747,3 C13.7272683,3 14.5454507,3.84375082 14.5454507,4.87499451 L14.5454507,4.87499451 L14.5454507,16.5937486 L19.3181813,16.5937486 C19.6818251,16.5937486 20,16.9218666 20,17.2968743 C20,17.671882 19.6818251,18 19.3181813,18 L19.3181813,18 L0.681818666,18 C0.318174942,18 0,17.67186 0,17.2968743 C0,16.9218886 0.318174942,16.5937486 0.681818666,16.5937486 L0.681818666,16.5937486 L4.99998935,16.5937486 L4.99998935,4.87499451 C4.99998935,3.84375082 5.81817175,3 6.81818666,3 L6.81818666,3 Z M4.090912,5.81250275 L4.090912,14.250011 L2.27271468,14.250011 C1.27272107,14.250011 0.454538675,13.4062602 0.454538675,12.3749945 L0.454538675,12.3749945 L0.454538675,7.68749725 C0.454538675,6.65625357 1.27272107,5.81250275 2.27271468,5.81250275 L2.27271468,5.81250275 L4.090912,5.81250275 Z M16.363648,5.81250275 C17.3636416,5.81250275 18.181824,6.65625357 18.181824,7.68749725 L18.181824,7.68749725 L18.181824,8.62500549 L18.6363627,8.62500549 C19.1363701,8.62500549 19.5454613,9.04688091 19.5454613,9.56249176 L19.5454613,9.56249176 L19.5454613,10.5 C19.5454613,11.0156328 19.1363701,11.4375082 18.6363627,11.4375082 L18.6363627,11.4375082 L18.181824,11.4375082 L18.181824,12.3749945 C18.181824,13.4062602 17.3636416,14.250011 16.363648,14.250011 L16.363648,14.250011 L15.4545493,14.250011 L15.4545493,5.81250275 Z M10.6818187,5.99999561 C10.7272661,5.67187761 10.3636437,5.57812019 10.1818112,5.85937047 L10.1818112,5.85937047 L7.27272534,9.65624918 C7.04544534,9.93749945 7.22727786,10.3125071 7.5454528,10.3125071 L7.5454528,10.3125071 L9.09090134,10.3125071 L8.81817388,13.7343782 C8.7727264,14.0624962 9.13637013,14.1562536 9.31818133,13.8750033 L9.31818133,13.8750033 L12.1818197,10.0781246 C12.4090997,9.79687431 12.2272672,9.42186662 11.9090923,9.42186662 L11.9090923,9.42186662 L10.3636437,9.42186662 Z" id="形状结合"></path>
                            </g>
                        </g>
                    </g>
                </g>
            </g>
        </g>
    </g>
</svg>
