<?xml version="1.0" encoding="UTF-8"?>
<svg width="20px" height="20px" viewBox="0 0 20 20" version="1.1" xmlns="http://www.w3.org/2000/svg" xmlns:xlink="http://www.w3.org/1999/xlink">
    <title>icon_低效发电组串</title>
    <g id="光储充及工商储管理系统V1.3" stroke="none" stroke-width="1" fill="none" fill-rule="evenodd">
        <g id="3_3.设备监视_发电单元监视" transform="translate(-973.000000, -200.000000)">
            <g id="main" transform="translate(212.000000, 102.000000)">
                <g id="编组2" transform="translate(20.000000, 72.000000)">
                    <g id="4" transform="translate(717.000000, 0.000000)">
                        <g id="编组-1" transform="translate(24.000000, 24.000000)">
                            <g id="icon_低效发电组串" transform="translate(0.000000, 2.000000)">
                                <rect id="矩形" x="0" y="0" width="20" height="20"></rect>
                                <path d="M1.66975819,19 L18.330464,19 C19.2510358,19 20,18.3362315 20,17.5202115 L20,5.71465296 C20,4.89852456 19.2510358,4.23475604 18.3302418,4.23475604 L1.66975819,4.23475604 C0.748964246,4.23475604 0,4.89852456 0,5.71465296 L0,17.5202115 C0,18.3362315 0.748964246,19 1.66975819,19 Z M14.6060801,6.93776114 L14.6060801,6.31357365 L15.3995846,6.31357365 L15.3995846,5.53897823 L16.0389199,5.53897823 L16.0389199,6.31357365 L16.8323133,6.31357365 L16.8323133,6.93776114 L16.0389199,6.93776114 L16.0389199,7.71235655 L15.3995846,7.71235655 L15.3995846,6.93776114 L14.6060801,6.93776114 L14.6060801,6.93776114 Z M5.02293654,14.8588478 L8.63513679,8.16542385 L12.5974387,8.16542385 L8.63513679,12.7582336 L12.937877,11.8788839 L7.76243738,17.5698776 L9.10664105,14.2209968 L5.02293654,14.8588478 L5.02293654,14.8588478 Z M2.99519055,6.31357365 L5.22575557,6.31357365 L5.22575557,6.93776114 L2.99519055,6.93776114 L2.99519055,6.31357365 L2.99519055,6.31357365 Z M2.54323511,2.65715361 L2.54323511,3.4456295 C2.54323511,3.80934125 2.84435361,4.10527726 3.21444836,4.10527726 L5.17443992,4.10527726 C5.54741689,4.10485895 5.84966761,3.80976949 5.85009608,3.4456295 L5.85009608,2.65715361 C5.85009608,2.30949116 5.57285824,2.02450771 5.22297875,2 L3.16613167,2 C2.81858471,2.02439927 2.54323511,2.30949116 2.54323511,2.65715361 Z M13.9490842,2.65715361 L13.9490842,3.4456295 C13.9490842,3.80934125 14.2500916,4.10527726 14.6200753,4.10527726 L16.584843,4.10527726 C16.9549377,4.10527726 17.255723,3.80934125 17.255723,3.4456295 L17.255723,2.65715361 C17.255723,2.30949116 16.9805956,2.02450771 16.6332708,2 L14.5717586,2 C14.2245449,2.02439927 13.9490842,2.30949116 13.9490842,2.65715361 Z" id="形状" fill="#007DFF" fill-rule="nonzero"></path>
                            </g>
                        </g>
                    </g>
                </g>
            </g>
        </g>
    </g>
</svg>