<?xml version="1.0" encoding="UTF-8"?>
<svg width="20px" height="20px" viewBox="0 0 20 20" version="1.1" xmlns="http://www.w3.org/2000/svg" xmlns:xlink="http://www.w3.org/1999/xlink">
    <!-- <title>icon_通信断链</title> -->
    <g id="光储充及工商储管理系统V1.3" stroke="none" stroke-width="1" fill="none" fill-rule="evenodd">
        <g id="3_3.设备监视_发电单元监视" transform="translate(-1212.000000, -200.000000)" fill-rule="nonzero">
            <g id="main" transform="translate(212.000000, 102.000000)">
                <g id="编组2" transform="translate(20.000000, 72.000000)">
                    <g id="5" transform="translate(956.000000, 0.000000)">
                        <g id="编组-1" transform="translate(24.000000, 24.000000)">
                            <g id="icon_通信断链" transform="translate(0.000000, 2.000000)">
                                <rect id="矩形" fill="#000000" opacity="0" x="0" y="0" width="20" height="20"></rect>
                                <path d="M3.28788704,0.833339844 L16.3787926,0.833339844 C18.0151574,0.833339844 18.8333398,1.65152224 18.8333398,3.28788704 L18.8333398,16.3787926 C18.8333398,18.0151574 18.0151574,18.8333398 16.3787926,18.8333398 L3.28788704,18.8333398 C1.65152224,18.8333398 0.833339844,18.0151574 0.833339844,16.3787926 L0.833339844,3.28788704 C0.833339844,1.65152224 1.65152224,0.833339844 3.28788704,0.833339844 Z" id="路径" fill="#007DFF"></path>
                                <path d="M12.4006521,13.455361 C12.6846153,13.2566083 13.0760262,13.3255128 13.2749451,13.6092728 L14.4752761,15.3225376 C14.6740592,15.6064428 14.6049159,15.9976424 14.3208402,16.1963062 C14.0367645,16.39497 13.6453302,16.3258682 13.4465471,16.0419629 L12.2462162,14.3291295 C12.1506203,14.192762 12.1131829,14.0240108 12.1421495,13.8600423 C12.1711162,13.6960738 12.2641109,13.550337 12.4006521,13.4549296 L12.4006521,13.455361 Z M15.3001897,12.0892704 L16.4381734,12.6196292 C16.752419,12.7660892 16.8883648,13.1394119 16.7418169,13.4534689 C16.595269,13.7675259 16.2217222,13.9033902 15.9074766,13.7569302 L14.7695125,13.2265714 C14.5662313,13.131832 14.428965,12.9359049 14.4094204,12.7125941 C14.3898759,12.4892833 14.4910224,12.2725149 14.674759,12.1439436 C14.8584957,12.0153722 15.0969085,11.9945309 15.3001897,12.0892704 L15.3001897,12.0892704 Z M10.6947359,15.0318304 C10.8606318,15.0173307 11.025495,15.0692989 11.1530457,15.176299 C11.2805965,15.283299 11.3603825,15.4365629 11.3748462,15.6023631 L11.4840814,16.8521669 C11.5075093,17.1932481 11.2533823,17.4902873 10.9126005,17.5201488 C10.5718188,17.5500102 10.2698475,17.3016997 10.2335274,16.9617482 L10.1238606,15.7115328 C10.1093524,15.5457333 10.1613544,15.3809661 10.2684229,15.2534914 C10.3754913,15.1260167 10.5288521,15.0462805 10.6947555,15.0318304 L10.6947359,15.0318304 Z M11.387814,4.71718515 C12.980244,3.59135917 15.1828134,3.95704894 16.3254708,5.53697799 C17.4681283,7.11690704 17.1246644,9.32176436 15.5555033,10.4797638 L15.4688685,10.5420736 L13.420592,11.9755129 C13.1461346,12.1699605 12.7670905,12.1136224 12.5611307,11.8477694 C12.3551709,11.5819164 12.395516,11.2010617 12.6526109,10.9842027 L12.7003228,10.9473815 L14.7485797,9.51437357 C15.7739603,8.79557684 16.0361218,7.38936009 15.3385635,6.34974048 C14.6410051,5.31012086 13.2397538,5.01867308 12.1851049,5.6938492 L12.1081028,5.74529695 L10.0573347,7.18040275 C9.78294709,7.37260571 9.40588887,7.3155736 9.2006996,7.05083201 C8.99551033,6.78609042 9.03452383,6.4069667 9.28933401,6.1895043 L9.33704591,6.15270269 L11.387814,4.71718515 Z M6.59070819,8.07424848 C6.86506911,7.8801457 7.24372841,7.93646494 7.44964366,8.20200078 C7.65555892,8.46753661 7.6156522,8.84805218 7.35912088,9.06514693 L7.31097738,9.10194854 L5.25142027,10.5433285 C4.22603968,11.2621252 3.96387815,12.6683419 4.6614365,13.7079616 C5.35899486,14.7475812 6.76024616,15.0390289 7.81489507,14.3638528 L7.89189721,14.3124051 L9.95229791,12.8706134 C10.226682,12.6785146 10.6036481,12.7355789 10.8088015,13.0002689 C11.0139549,13.264959 10.9750028,13.6440024 10.7202986,13.8614923 L10.6725867,13.8983135 L8.61218602,15.3405169 C7.01975602,16.4663429 4.81718662,16.1006531 3.67452918,14.520724 C2.53187173,12.940795 2.87533564,10.7359377 4.4444967,9.5779382 L4.53113146,9.5156284 L6.59070819,8.07424848 L6.59070819,8.07424848 Z M5.67914018,3.86139585 C5.81555802,3.76599381 5.98430967,3.72865861 6.14827153,3.75760359 C6.31223338,3.78654858 6.45797447,3.87940272 6.55343327,4.01573908 L7.7537642,5.72857251 C7.95266646,6.01247774 7.88361978,6.40377381 7.59954412,6.60255675 C7.31546846,6.80133968 6.92393749,6.73233442 6.72503523,6.44842919 L5.5247043,4.73516441 C5.42924499,4.59882841 5.39188737,4.430178 5.42084974,4.26631452 C5.4498121,4.10245103 5.54272198,3.95679738 5.67914018,3.86139585 L5.67914018,3.86139585 Z M4.09083617,6.29992872 L5.22921226,6.83030712 C5.54345237,6.97688077 5.67930157,7.35029131 5.53263993,7.66434289 C5.38597829,7.97839448 5.0123436,8.11416217 4.69810349,7.96758852 L3.56013938,7.43722973 C3.35678458,7.34249026 3.21945023,7.14652396 3.19986887,6.92314945 C3.18028751,6.69977494 3.28143401,6.48292811 3.46520746,6.35429308 C3.6489809,6.22565804 3.88746174,6.20477751 4.09081655,6.29951698 L4.09083617,6.29992872 Z M9.08467507,2.52500933 C9.429986,2.49480735 9.73444273,2.7500177 9.76478544,3.09511072 L9.87443256,4.3453458 C9.904597,4.69058326 9.64901185,4.99489196 9.30356714,5.02503831 C8.95812243,5.05518467 8.65363105,4.79975286 8.62346659,4.4545154 L8.51423145,3.20471167 C8.48401135,2.8596079 8.7393749,2.55533383 9.08467507,2.52500933 L9.08467507,2.52500933 Z" id="形状" fill="#FFFFFF"></path>
                            </g>
                        </g>
                    </g>
                </g>
            </g>
        </g>
    </g>
</svg>
