<?xml version="1.0" encoding="UTF-8"?>
<svg width="20px" height="20px" viewBox="0 0 20 20" version="1.1" xmlns="http://www.w3.org/2000/svg" xmlns:xlink="http://www.w3.org/1999/xlink">
    <!-- <title>icon_未发电</title> -->
    <g id="光储充及工商储管理系统V1.3" stroke="none" stroke-width="1" fill="none" fill-rule="evenodd">
        <g id="3_3.设备监视_发电单元监视" transform="translate(-495.000000, -200.000000)">
            <g id="main" transform="translate(212.000000, 102.000000)">
                <g id="编组2" transform="translate(20.000000, 72.000000)">
                    <g id="2" transform="translate(239.000000, 0.000000)">
                        <g id="编组-1" transform="translate(24.000000, 24.000000)">
                            <g id="icon_未发电" transform="translate(0.000000, 2.000000)">
                                <rect id="矩形" x="0" y="0" width="20" height="20"></rect>
                                <g id="未发电">
                                    <path d="M16,20 L4,20 C1.79,20 0,18.21 0,16 L0,4 C0,1.79 1.79,0 4,0 L16,0 C18.21,0 20,1.79 20,4 L20,16 C20,18.21 18.21,20 16,20 Z" id="路径" fill="#007DFF"></path>
                                    <path d="M16.1,14.66 L4.6,3.16 C4.34,2.9 3.92,2.9 3.66,3.16 C3.4,3.42 3.4,3.84 3.66,4.1 L15.16,15.6 C15.29,15.73 15.46,15.8 15.63,15.8 C15.8,15.8 15.97,15.73 16.1,15.6 C16.36,15.34 16.36,14.92 16.1,14.66 Z M7.03,8.36 C6.95,8.28 6.83,8.25 6.72,8.27 C6.61,8.29 6.52,8.37 6.48,8.48 L5.46,11.27 C5.42,11.37 5.45,11.49 5.51,11.58 C5.57,11.67 5.7,11.74 5.8,11.74 L5.8,11.8 L8.74,11.8 L7.38,15.97 C7.33,16.12 7.39,16.26 7.53,16.34 C7.58,16.37 7.64,16.37 7.7,16.37 C7.79,16.37 7.88,16.33 7.95,16.26 L11.08,12.83 C11.2,12.7 11.2,12.49 11.07,12.37 L7.03,8.36 Z M12.87,10.61 C12.93,10.68 13.02,10.73 13.11,10.71 C13.2,10.71 13.29,10.67 13.35,10.61 L14.96,8.95 C15.05,8.85 15.08,8.72 15.03,8.59 C14.98,8.47 14.86,8.39 14.72,8.39 L12.31,8.39 L15.1,3.55 C15.16,3.45 15.16,3.34 15.1,3.24 C15.04,3.14 14.93,3.09 14.81,3.09 L8.53,3.09 C8.38,3.09 8.25,3.16 8.21,3.3 L7.7,5 C7.67,5.12 7.7,5.24 7.78,5.32 L12.87,10.61 Z" id="形状" fill="#FFFFFF"></path>
                                </g>
                            </g>
                        </g>
                    </g>
                </g>
            </g>
        </g>
    </g>
</svg>
