<?xml version="1.0" encoding="UTF-8"?>
<svg width="20px" height="20px" viewBox="0 0 20 20" version="1.1" xmlns="http://www.w3.org/2000/svg" xmlns:xlink="http://www.w3.org/1999/xlink">
    <!-- <title>icon_自给自足比例</title> -->
    <g id="光储充及工商储管理系统V1.3" stroke="none" stroke-width="1" fill="none" fill-rule="evenodd">
        <g id="3_3.设备监视_发电单元监视" transform="translate(-1690.000000, -200.000000)" fill="#007DFF" fill-rule="nonzero">
            <g id="main" transform="translate(212.000000, 102.000000)">
                <g id="编组2" transform="translate(20.000000, 72.000000)">
                    <g id="6备份" transform="translate(1434.000000, 0.000000)">
                        <g id="编组-1" transform="translate(24.000000, 24.000000)">
                            <g id="icon_自给自足比例" transform="translate(0.000000, 2.000000)">
                                <rect id="矩形" opacity="0" x="0" y="0" width="20" height="20"></rect>
                                <path d="M16.9148393,15.7504053 L11.1571315,9.97932102 L16.9085925,4.21460725 C18.2099926,5.77782988 19,7.78347021 19,9.97932102 C19,12.174991 18.2158176,14.1860975 16.9148393,15.7504053 L16.9148393,15.7504053 Z M10.818138,1 C12.6879754,1.16920995 14.3869402,1.91767259 15.7507278,3.05557937 L10.818138,7.9994842 L10.818138,1 Z M9.42146939,10.5591967 L15.7578182,16.9100963 C14.1971665,18.2140781 12.1907032,19 9.99998996,19 C5.02941725,19 1,14.9613483 1,9.97932102 C1,5.27417907 4.59531592,1.41492611 9.18188209,1 L9.18188209,9.97932102" id="形状"></path>
                            </g>
                        </g>
                    </g>
                </g>
            </g>
        </g>
    </g>
</svg>
