<?xml version="1.0" encoding="UTF-8"?>
<svg width="20px" height="20px" viewBox="0 0 20 20" version="1.1" xmlns="http://www.w3.org/2000/svg" xmlns:xlink="http://www.w3.org/1999/xlink">
    <title>icon_自给自足电量</title>
    <g id="光储充及工商储管理系统V1.5" stroke="none" stroke-width="1" fill="none" fill-rule="evenodd">
        <g id="3_3.设备监视_发电单元监视" transform="translate(-1451.000000, -200.000000)" fill-rule="nonzero">
            <g id="main" transform="translate(212.000000, 102.000000)">
                <g id="编组2" transform="translate(20.000000, 72.000000)">
                    <g id="3" transform="translate(1195.000000, 0.000000)">
                        <g id="编组-1" transform="translate(24.000000, 24.000000)">
                            <g id="icon_自给自足电量" transform="translate(0.000000, 2.000000)">
                                <rect id="矩形" fill="#000000" opacity="0" x="0" y="0" width="20" height="20"></rect>
                                <path d="M3.46314453,2.02103516 L16.7878125,2.02103516 C17.5445703,2.02103516 18.1619727,2.63822266 18.1619727,3.39519531 L18.1619727,18.4469141 C18.1619727,19.2036719 17.5445703,19.8210742 16.7878125,19.8210742 L3.46314453,19.8210742 C2.70638672,19.8210742 2.08898438,19.2038867 2.08898438,18.4469141 L2.08898438,3.39519531 C2.08898438,2.6384375 2.70638672,2.02103516 3.46314453,2.02103516 Z M7.33941406,0.0004296875 L12.8160742,0.0004296875 C12.9169336,0.0004296875 12.9992773,0.0827929687 12.9992773,0.183652344 L12.9992773,1.4440625 C12.9992773,1.54513672 12.9169336,1.62707031 12.8160742,1.62707031 L7.33941406,1.62707031 C7.23835577,1.62695223 7.15642806,1.54512059 7.15619141,1.4440625 L7.15619141,0.183652344 C7.15619141,0.0827929687 7.23855469,0.0004296875 7.33939453,0.0004296875 L7.33941406,0.0004296875 Z M4.49947266,4.04722656 C3.89195313,4.04722656 3.94980469,3.989375 3.94980469,4.59689453 L3.94980469,17.3116797 C3.94980469,17.9193945 3.89195313,17.8613281 4.49947266,17.8613281 L15.6622461,17.8613281 C16.2697656,17.8613281 16.2119141,17.9193945 16.2119141,17.3116797 L16.2119141,4.596875 C16.2119141,3.98935547 16.2697656,4.04720703 15.6622461,4.04720703 L4.49947266,4.04720703 L4.49947266,4.04722656 Z M15.020957,5.14677731 C15.0452594,5.14677731 15.0685727,5.15640016 15.0857589,5.17358273 C15.1029452,5.19076529 15.1125781,5.21407651 15.1125781,5.23837891 L15.1125781,8.28691406 C15.1124704,8.33742792 15.0714905,8.37832031 15.0209766,8.37832031 L5.14074219,8.37832031 C5.09022822,8.37832031 5.04924833,8.33742792 5.04914063,8.28691406 L5.04914063,5.23837891 C5.04925875,5.18783777 5.09020105,5.14689547 5.14074219,5.14677731 L15.0209766,5.14677731 L15.020957,5.14677731 Z M5.04914063,9.47246094 C5.04914063,9.42193359 5.09044922,9.38085938 5.14076172,9.38064453 L15.0209961,9.38064453 C15.0715234,9.38064453 15.1125977,9.42193359 15.1125977,9.47246094 L15.1125977,12.6197266 C15.1124795,12.6702677 15.0715372,12.71121 15.0209961,12.7113281 L5.14074219,12.7113281 C5.09020105,12.71121 5.04925875,12.6702677 5.04914063,12.6197266 L5.04914063,9.47246094 L5.04914063,9.47246094 Z M5.04914063,13.8054883 C5.04914063,13.7549609 5.09044922,13.7136719 5.14076172,13.7136719 L15.0209961,13.7136719 C15.0715234,13.7136719 15.1125977,13.7549609 15.1125977,13.8054883 L15.1125977,16.6703711 C15.1125977,16.6946653 15.1029468,16.7179646 15.0857682,16.7351432 C15.0685896,16.7523218 15.0452903,16.7619727 15.0209961,16.7619727 L5.14074219,16.7619727 C5.09020105,16.7618545 5.04925875,16.7209122 5.04914063,16.6703711 L5.04914063,13.8055078 L5.04914063,13.8054883 Z" id="形状" fill="#007DFF"></path>
                            </g>
                        </g>
                    </g>
                </g>
            </g>
        </g>
    </g>
</svg>