<?xml version="1.0" encoding="UTF-8"?>
<svg width="48px" height="48px" viewBox="0 0 48 48" version="1.1" xmlns="http://www.w3.org/2000/svg" xmlns:xlink="http://www.w3.org/1999/xlink">
    <title>icon_煤炭</title>
    <g id="能源云系统V2.0" stroke="none" stroke-width="1" fill="none" fill-rule="evenodd">
        <g id="1_1.站点概览" transform="translate(-1521.000000, -475.000000)" fill="#50B5FF">
            <g id="main" transform="translate(212.000000, 116.000000)">
                <g id="5" transform="translate(1277.000000, 182.000000)">
                    <g id="icon_煤炭" transform="translate(32.000000, 177.000000)">
                        <rect id="bg" fill-opacity="0.12" x="0" y="0" width="48" height="48" rx="8"></rect>
                        <g id="煤炭" transform="translate(12.000000, 12.000000)" fill-rule="nonzero">
                            <rect id="矩形" opacity="0" x="0" y="0" width="24" height="24"></rect>
                            <path d="M24,19.0905647 L24,20 L0,20 L0,19.0905647 L24,19.0905647 Z M18.0709182,13.4370842 C19.6001029,13.4296503 20.8000677,14.6074268 20.8050441,16.1210426 C20.8099506,17.6858815 19.6383842,18.8704982 18.0811135,18.8756232 C16.5779837,18.8804047 15.3906751,17.6942548 15.36255,16.1600398 C15.3353624,14.6786202 16.5627883,13.4445888 18.0709182,13.4370842 Z M6.44670067,13.4380591 C7.95768215,13.440579 9.17088923,14.6540504 9.15932669,16.151234 C9.14776415,17.6744025 7.94686181,18.8815448 6.4515835,18.8730591 C4.89411749,18.8641297 3.70637925,17.6769184 3.70340519,16.1264676 C3.70044173,14.6554657 4.94517235,13.4355471 6.44670067,13.4380591 Z M6.45752102,15.2276858 C5.94693342,15.2140053 5.49306476,15.6382565 5.4862288,16.13547 C5.47923659,16.6316614 5.91646457,17.090153 6.4096693,17.1041086 C6.91998346,17.1188112 7.35885208,16.7004961 7.36994587,16.1889731 C7.38146934,15.668094 6.97658521,15.2415628 6.45752102,15.2276858 Z M18.1961139,15.2383392 C17.6738857,15.1802366 17.2035326,15.5469355 17.1535324,16.0515003 C17.1024385,16.56778 17.4756819,17.0342518 17.9841992,17.0889736 C18.5277947,17.1476659 18.9899056,16.7567117 19.0272885,16.2067027 C19.060648,15.711612 18.7026781,15.2945549 18.1961139,15.2383392 Z M20.6157702,9.92714115 C20.5967858,10.264317 20.5793248,10.574132 20.5573716,10.9662655 L20.5573716,10.9662655 L22.9960514,10.9662655 L22.9960514,12.0949811 L20.4970198,12.0949811 L20.3695976,13.9110999 C19.3111175,13.0452612 18.1886139,12.7339131 16.9661099,13.2070286 C15.7534497,13.6762522 15.1164164,14.6357312 14.9228611,15.9497225 C13.2172305,15.9497225 11.5412485,15.9558551 9.86553993,15.9353738 C9.7523755,15.9341551 9.58042181,15.7505305 9.53870293,15.6187186 C8.65870006,12.8423346 6.2636532,12.1598846 3.95438787,14.1214171 C3.86536415,13.4416011 3.78274669,12.8112784 3.69243389,12.121202 L3.69243389,12.121202 L1.22437899,12.121202 L1.22437899,10.9972038 L3.57841009,10.9972038 C3.56040221,10.5943382 3.54653498,10.2826362 3.53071462,9.92714115 L3.53071462,9.92714115 Z M21.3774524,8.46797199 C21.4954997,9.38841454 21.4954997,9.38975114 20.7081143,9.38975114 C14.9854785,9.39022288 9.26295984,9.39010494 3.54032402,9.39022288 L2.53172699,9.39022288 C2.51668788,9.06747438 2.50340659,8.78730038 2.48828935,8.46797199 L2.48828935,8.46797199 Z M7.67053278,5.75515487 C8.2766285,4.59318164 9.19092836,3.86351843 10.5549172,4.02139395 C11.1008955,4.08444981 11.6098034,4.5139687 12.1516802,4.55308378 C12.6911351,4.59223816 13.24934,4.26437915 13.8018418,4.25502298 C14.5181723,4.24263982 15.1528618,4.57855771 15.5823554,5.17428619 C15.8095437,5.4892903 16.0241928,5.50666604 16.3724361,5.42941868 C18.0073633,5.06613989 19.5155323,6.25323325 19.555923,7.94721079 L19.555923,7.94721079 L4.90118783,7.94728942 C4.67872617,6.41673033 5.83068304,5.50804195 7.67053278,5.75515487 Z M12.4487515,5.34926226 C11.8435542,4.8312922 11.3060915,4.79646209 10.7745273,5.25558264 C10.6753863,5.34104613 10.4855029,5.40524203 10.3684713,5.37131609 C9.10838902,5.00528548 8.19588605,5.389596 7.66189994,6.64265428 C6.81455343,6.42585063 6.13521528,6.6106153 5.63036989,7.48738263 C5.85763626,7.51592288 6.10162142,7.60496372 6.14755907,7.54359827 C6.66045137,6.85910412 7.28021901,7.05322496 7.94014303,7.31857848 C8.60772333,5.82410747 9.04463882,5.53013508 10.1952285,5.88425427 C10.6055814,6.01056254 10.8553869,6.00002702 11.1531222,5.6572689 C11.2892555,5.50061205 11.6431629,5.5372898 11.8974606,5.48166384 C12.0819534,5.44121217 12.2650399,5.39368441 12.4487515,5.34926226 Z" id="形状结合"></path>
                        </g>
                    </g>
                </g>
            </g>
        </g>
    </g>
</svg>