<?xml version="1.0" encoding="UTF-8"?>
<svg width="48px" height="48px" viewBox="0 0 48 48" version="1.1" xmlns="http://www.w3.org/2000/svg" xmlns:xlink="http://www.w3.org/1999/xlink">
    <title>icon_市电</title>
    <g id="光储充及工商储管理系统V1.3" stroke="none" stroke-width="1" fill="none" fill-rule="evenodd">
        <g id="3_1.站点概览" transform="translate(-1094.000000, -178.000000)">
            <g id="main" transform="translate(212.000000, 102.000000)">
                <g id="1" transform="translate(20.000000, 52.000000)">
                    <g id="编组3" transform="translate(838.000000, 0.000000)">
                        <g id="icon_市电1" transform="translate(24.000000, 24.000000)">
                            <rect id="bg备份" fill="#3DD598" x="0" y="0" width="48" height="48" rx="8"></rect>
                            <g id="icon_市电" transform="translate(12.000000, 12.000000)" fill-rule="nonzero">
                                <g id="输电塔">
                                    <rect id="矩形" fill="#000000" opacity="0" x="0" y="0" width="24" height="24"></rect>
                                    <g id="输电塔">
                                        <rect id="矩形" fill="#000000" opacity="0" x="0" y="0" width="24" height="24"></rect>
                                        <path d="M18.7885817,22.59375 L16.1044264,14.5912969 L18.4309247,14.5912969 L18.4309247,16.3830938 L19.8909479,16.3830938 L19.8909479,14.5912969 L20.9987648,14.5912969 L15.827022,9.89259375 L15.827022,5.09845312 L18.4309247,5.09845312 L18.4309247,6.890625 L19.8909479,6.890625 L19.8909479,5.09845312 L20.9987648,5.09845312 L15.827022,0.399796875 L15.827022,0 L7.17297798,0 L7.17297798,0.400171875 L2.00108922,5.09845312 L3.10905214,5.09845312 L3.10905214,6.890625 L4.56907532,6.890625 L4.56907532,5.09845312 L7.17297798,5.09845312 L7.17297798,9.89296875 L2.00108922,14.5912969 L3.10905214,14.5912969 L3.10905214,16.3830938 L4.56907532,16.3830938 L4.56907532,14.5912969 L6.89557358,14.5912969 L4.21141831,22.59375 L1,22.59375 L1,24 L22,24 L22,22.59375 L18.7885817,22.59375 Z M8.16185168,15.390375 L9.86307068,16.2068437 L7.50902665,17.336625 L8.16185168,15.390375 Z M8.63300116,1.40657812 L12.174336,1.40639062 L8.63300116,3.22396875 L8.63300116,1.40657812 Z M15.4909247,17.336625 L13.1368806,16.2068437 L14.8380997,15.390375 L15.4909247,17.336625 Z M16.2355365,19.556625 L17.0353859,21.9412969 L13.492153,20.59725 L16.2355365,19.556625 Z M11.5,19.8415781 L8.1842387,18.5838281 L11.5,16.9924688 L14.8157613,18.5838281 L11.5,19.8415781 Z M11.5,15.4212656 L9.77060255,14.59125 L13.2294461,14.59125 L11.5,15.4212656 Z M10.8253233,13.1850469 L14.3669988,11.3673281 L14.3669988,13.1850469 L10.8253233,13.1850469 Z M12.6372121,7.29585937 L14.3669988,5.901 L14.3669988,8.69067187 L12.6372121,7.29585937 Z M13.0874832,9.4929375 L9.91232213,9.493125 L11.5,8.21282812 L13.0874832,9.4929375 Z M11.5,6.37884375 L9.91217613,5.09845312 L13.0878239,5.09845312 L11.5,6.37884375 Z M10.8253233,3.69220312 L14.3669988,1.87448437 L14.3669988,3.69220312 L10.8253233,3.69220312 Z M10.3627879,7.29585937 L8.63300116,8.69071875 L8.63300116,5.90104687 L10.3627879,7.29585937 Z M8.63300116,10.8994219 L12.174336,10.8992344 L8.63300116,12.7167656 L8.63300116,10.8994219 Z M9.50784705,20.59725 L5.96461414,21.9412969 L6.7644635,19.556625 L9.50784705,20.59725 Z M11.5,21.3529219 L14.7710846,22.59375 L8.22891541,22.59375 L11.5,21.3529219 Z M17.3231078,13.1850469 L15.827022,13.1850469 L15.827022,11.8257656 L17.3231078,13.1850469 Z M17.3231078,3.69220312 L15.827022,3.69220312 L15.827022,2.33292187 L17.3231078,3.69220312 Z M5.67703824,3.69220312 L7.17302665,2.33320312 L7.17302665,3.69220312 L5.67703824,3.69220312 Z M7.17297798,11.8260469 L7.17297798,13.1850469 L5.67698957,13.1850469 L7.17297798,11.8260469 Z" id="形状" fill="#FFFFFF"></path>
                                    </g>
                                </g>
                            </g>
                        </g>
                    </g>
                </g>
            </g>
        </g>
    </g>
</svg>