<?xml version="1.0" encoding="UTF-8"?>
<svg width="48px" height="48px" viewBox="0 0 48 48" version="1.1" xmlns="http://www.w3.org/2000/svg" xmlns:xlink="http://www.w3.org/1999/xlink">
    <title>icon_光伏1@2x</title>
    <g id="能源云系统V2.0" stroke="none" stroke-width="1" fill="none" fill-rule="evenodd">
        <g id="3_3.站点概览1920" transform="translate(-675.000000, -192.000000)">
            <g id="main" transform="translate(212.000000, 116.000000)">
                <g id="1" transform="translate(20.000000, 52.000000)">
                    <g id="编组-1" transform="translate(419.000000, 0.000000)">
                        <g id="icon_光伏1" transform="translate(24.000000, 24.000000)">
                            <rect id="bg备份" fill="#FFC542" x="0" y="0" width="48" height="48" rx="8"></rect>
                            <g id="icon_光伏" transform="translate(12.000000, 12.000000)" fill-rule="nonzero">
                                <rect id="矩形" fill="#000000" opacity="0" x="0" y="0" width="24" height="24"></rect>
                                <path d="M23.898,13.4868 L21.8856,4.578 C21.5184961,3.33807904 20.4086914,2.46495573 19.1172,2.4 L5.0952,2.4 C3.80311372,2.47219625 2.67614017,3.30200293 2.2236,4.5144 L2.2236,4.5696 C2.2236,4.6344 0.618,11.1048 0.1476,13.4856 C-0.136619081,14.4179799 -0.0054420963,15.4276054 0.5076,16.2564 C1.02066744,16.9361982 1.79201868,17.3735578 2.6388,17.4648 L21.378,17.4648 C22.2408103,17.3794944 23.0201028,16.9123591 23.502,16.1916 C23.9775845,15.3510452 24.1189776,14.3621499 23.898,13.422 L23.898,13.4868 Z M2.6664,16.1268 C2.21071235,16.0608823 1.79604406,15.8272302 1.5036,15.4716 C1.22150126,14.9599545 1.16792227,14.3531615 1.356,13.8 C1.8456,11.5752 3.2952,5.604 3.4512,4.956 C3.69583393,4.24223327 4.35006584,3.74906498 5.1036,3.7104 L19.1172,3.7104 C19.8252,3.7584 20.4276,4.2408 20.6304,4.92 L22.6428,13.7916 C22.77,14.3592 22.6956,14.9532 22.4304,15.4716 C22.1574111,15.8636023 21.7172327,16.105878 21.24,16.1268 L2.6664,16.1268 Z M12.9228,19.9392 L16.9284,20.7612 L16.9284,21.684 L7.2084,21.684 L7.2084,20.8068 L11.076,19.9392 L11.076,18.204 L12.9228,18.204 L12.9228,19.9392 L12.9228,19.9392 Z M4.3008,4.8648 L5.3448,4.1904 L10.7808,4.1904 L11.5656,4.8924 L11.5656,7.9668 L10.7256,8.8068 L4.3104,8.8068 L3.618,7.8828 L4.3104,4.8744 L4.3008,4.8648 Z M3.084,10.4028 L4.302,9.342 L10.644,9.342 L11.568,10.3944 L11.568,14.2524 L10.5888,15.1764 L3.0828,15.1764 L2.2788,14.124 L3.0828,10.3752 L3.0828,10.4028 L3.084,10.4028 Z M19.836,4.8648 L20.3808,7.8828 L19.6884,8.8068 L13.2264,8.8068 L12.3864,8.0028 L12.3864,4.8648 L13.2072,4.1904 L18.8016,4.1904 L19.836,4.8648 Z M20.9064,10.4028 L21.7104,14.1516 L20.9064,15.204 L13.4016,15.204 L12.4236,14.28 L12.4236,10.3944 L13.3464,9.342 L19.6884,9.342 L20.9064,10.3944 L20.9064,10.4028 Z" id="形状" fill="#FFFFFF"></path>
                            </g>
                        </g>
                    </g>
                </g>
            </g>
        </g>
    </g>
</svg>