<?xml version="1.0" encoding="UTF-8"?>
<svg width="48px" height="48px" viewBox="0 0 48 48" version="1.1" xmlns="http://www.w3.org/2000/svg" xmlns:xlink="http://www.w3.org/1999/xlink">
    <title>icon_碳排放</title>
    <g id="能源云系统V2.0" stroke="none" stroke-width="1" fill="none" fill-rule="evenodd">
        <g id="1_1.站点概览" transform="translate(-1521.000000, -354.000000)">
            <g id="main" transform="translate(212.000000, 116.000000)">
                <g id="5" transform="translate(1277.000000, 182.000000)">
                    <g id="icon_碳排放" transform="translate(32.000000, 56.000000)">
                        <rect id="bg" fill="#E8EFFF" x="0" y="0" width="48" height="48" rx="8"></rect>
                        <g id="icon_碳减排管理" transform="translate(12.000000, 12.000000)" fill="#007DFF" fill-rule="nonzero">
                            <g id="碳减排管理" transform="translate(0.000000, 4.000000)">
                                <path d="M22.4736524,11.4560299 L22.4736524,11.45603 C22.0150881,13.209587 20.8684265,14.69741 19.2994755,15.5745636 L19.2994751,15.5745638 C18.2892129,15.9671528 17.1963136,16.090876 16.1252981,15.9338985 L16.1252992,15.933898 C16.8800042,15.533145 17.5907576,15.0528203 18.2457257,14.5009221 L18.2457255,14.5009222 C19.0972348,13.7541962 19.8630123,12.9128785 20.5285941,11.9928424 L20.528594,11.9928426 C20.9484558,11.3132048 21.3013964,10.5935085 21.5823383,9.84410696 L21.5823382,9.8441071 C20.6946729,11.5474522 19.4278914,13.0186629 17.8820119,14.1415939 L17.8820117,14.1415941 C17.1008718,14.6835562 16.2789323,15.1626838 15.42376,15.5745715 C15.42376,15.5745715 15.3964459,14.236156 15.42376,13.4258359 L15.4237598,13.4258915 C15.4271997,11.9705805 16.0704846,10.5923173 17.1789965,9.66521744 L17.1789968,9.66521726 C18.8986843,8.49690488 20.8103713,7.64809845 22.8243664,7.15859087 C23.0141268,7.11640161 22.9997511,7.15859087 22.9997511,7.15859087 L22.9997513,7.15858252 C22.9698606,8.60550149 22.7935568,10.0455099 22.4735988,11.4560693 L22.4736524,11.4560299 Z M16.379764,7.28511209 L16.3050099,7.34766852 L16.3050091,7.34766909 C14.5104089,8.68050402 13.3891892,10.7474675 13.2415257,12.9952048 L13.2415239,12.9953066 C13.2242403,13.9650951 13.2242415,14.935115 13.2415276,15.9049098 L5.46279043,15.9049098 L5.46279025,15.9049098 C2.54062333,15.8837692 0.143231417,13.5572175 0,10.6035128 L0,10.6035144 C0.0827071177,8.16625949 1.76845565,6.08717671 4.11434604,5.52917276 L4.11434601,5.52917309 C4.41410802,2.35336703 7.07777592,-0.054538946 10.2298079,0.000939517809 L10.2298079,0.000939518123 C12.535331,-0.018271033 14.6583518,1.26732219 15.7314211,3.33242908 L15.7314219,3.33242921 C17.540739,3.62952342 19.2214491,4.46576515 20.5588054,5.73430288 L20.5588054,5.73430304 C19.107181,5.95070031 17.7133723,6.46028172 16.4602716,7.23274822 L16.379764,7.28511209 Z" id="形状"></path>
                            </g>
                        </g>
                    </g>
                </g>
            </g>
        </g>
    </g>
</svg>