<?xml version="1.0" encoding="UTF-8"?>
<svg width="48px" height="48px" viewBox="0 0 48 48" version="1.1" xmlns="http://www.w3.org/2000/svg" xmlns:xlink="http://www.w3.org/1999/xlink">
    <title>icon_储能电池</title>
    <g id="光储充及工商储管理系统V1.3" stroke="none" stroke-width="1" fill="none" fill-rule="evenodd">
        <g id="3_1_4.站点概览_储充示范站" transform="translate(-256.000000, -178.000000)">
            <g id="main" transform="translate(212.000000, 102.000000)">
                <g id="1" transform="translate(20.000000, 52.000000)">
                    <g id="icon_电池" transform="translate(24.000000, 24.000000)">
                        <rect id="bg备份" fill="#FF974A" x="0" y="0" width="48" height="48" rx="8"></rect>
                        <g id="电池组" transform="translate(12.000000, 12.000000)" fill="#FFFFFF">
                            <rect id="矩形" fill-rule="nonzero" opacity="0" x="0" y="0" width="24" height="24"></rect>
                            <g id="-Icons-/-Energy-/-battery" transform="translate(3.999934, 0.000000)">
                                <g transform="translate(-0.000000, 0.000000)" id="Shape">
                                    <path d="M13.9603621,2.4754884 L12.5060741,2.4754884 L12.5060741,1.26419753 C12.5060741,0.567119012 11.9153251,0 11.1892016,0 L4.74640329,0 C4.02027984,0 3.42953086,0.567119012 3.42953086,1.26419753 L3.42953086,2.4754884 L1.97530864,2.4754884 C0.886123457,2.4754884 0,3.32616691 0,4.37178469 L0,21.4926854 C0,22.5383032 0.886123457,23.3889817 1.97530864,23.3889817 L13.9603621,23.3889817 C15.0495473,23.3889817 15.9356708,22.5383032 15.9356708,21.4926854 L15.9356708,4.37178469 C15.9356708,3.32616691 15.0495473,2.4754884 13.9603621,2.4754884 Z M6.1708642,20.6077472 L7.34920165,15.2340227 C7.35874897,15.1901551 7.34722634,15.1444543 7.31746502,15.1089304 C7.28895473,15.0758716 7.24339095,15.0548859 7.19730041,15.0548859 L5.11453498,15.0548859 L9.74360494,8.31778765 L8.57066667,13.38368 C8.56059259,13.4276109 8.57165432,13.4729956 8.60108642,13.5078242 C8.63144033,13.5444859 8.67529218,13.5646499 8.7225679,13.5646499 L10.8129712,13.5646499 L6.1708642,20.6077472 Z M13.9603621,5.9910321 L1.97530864,5.9910321 L1.97530864,4.37178469 L13.9603621,4.37178469 L13.9603621,5.9910321 L13.9603621,5.9910321 Z"></path>
                                </g>
                            </g>
                        </g>
                    </g>
                </g>
            </g>
        </g>
    </g>
</svg>