<?xml version="1.0" encoding="UTF-8"?>
<svg width="48px" height="48px" viewBox="0 0 48 48" version="1.1" xmlns="http://www.w3.org/2000/svg" xmlns:xlink="http://www.w3.org/1999/xlink">
    <title>icon_充电桩</title>
    <g id="光储充及工商储管理系统V1.5" stroke="none" stroke-width="1" fill="none" fill-rule="evenodd">
        <g id="3_1_11.站点监视_站点概览_充电站" transform="translate(-675.000000, -178.000000)">
            <g id="main" transform="translate(212.000000, 102.000000)">
                <g id="1" transform="translate(20.000000, 52.000000)">
                    <g id="编组-1" transform="translate(419.000000, 0.000000)">
                        <g id="icon_充电桩" transform="translate(24.000000, 24.000000)">
                            <g transform="translate(0.000000, 0.000000)">
                                <rect id="bg" fill="#007DFF" x="0" y="0" width="48" height="48" rx="8"></rect>
                                <g transform="translate(12.480000, 12.480000)">
                                    <rect id="矩形" x="0" y="0" width="23.04" height="23.04"></rect>
                                    <path d="M7.44277481,20.0220008 L9.11122663,16.2199294 L5.54751243,16.2199294 L11.4223143,10.8311895 L9.79705769,14.5728799 L13.0690974,14.5728799 L7.44277481,20.0220008 Z M5.99267921,3.8687851 C5.99267921,3.37903203 6.43535941,2.98210244 6.98151638,2.98210244 L11.6927108,2.98210244 C12.2392941,2.98210244 12.6823295,3.37903203 12.6823295,3.8687851 L12.6823295,8.56410893 C12.6823295,9.05376041 12.2392941,9.45069 11.6927108,9.45069 L6.98151638,9.45069 C6.43539494,9.45069 5.99267921,9.05376041 5.99267921,8.56410893 L5.99267921,3.8687851 Z M20.7555774,4.95347538 C20.0136565,4.35633695 18.755524,3.36226894 18.3712426,3.01762664 C18.1553019,2.82429237 17.6583434,2.71054043 17.3276654,3.02165655 C17.0118712,3.31834627 17.1497337,3.70823197 17.3824054,3.90742486 C17.7145399,4.1908057 18.461505,4.7498462 18.8876318,5.16916043 C18.5331182,5.56128122 17.9466078,5.97223085 17.5809756,6.33478764 C17.5340505,6.38013264 17.5361819,6.43191195 17.5366082,6.45741216 C17.5381711,6.66473261 17.5472294,6.8075067 17.5457374,6.89484408 C17.5440323,6.97090447 17.6438858,6.99857203 17.6880046,6.99857203 L19.5395745,6.99857203 C19.6637963,6.99857203 19.6959796,7.11052914 19.6959796,7.11052914 L19.6959796,17.7987414 C19.6959796,18.3954734 19.3340774,18.5833554 18.9625485,18.5833554 C18.5911263,18.5833554 18.1957264,18.3941865 18.1957264,17.7987414 L18.1957264,9.06012699 C18.1957264,8.26796106 18.0982529,7.90943418 17.101139,7.86165091 C16.8571001,7.84996755 15.875474,7.85843375 15.3432062,7.86165091 L15.3432062,2.28983773 C15.3432062,1.55524199 14.6786886,0.96 13.8593999,0.96 L4.86242734,0.96 C4.04221502,0.96 3.37840784,1.55520813 3.37840784,2.28983773 L3.37840784,20.1521434 L2.53070118,20.1521434 C2.19288311,20.1521434 1.92,20.3970538 1.92,20.6992973 L1.92,21.5062622 C1.92,21.8088105 2.19288311,22.08 2.53070118,22.08 L16.1665445,22.08 C16.5037587,22.08 16.7772102,21.8088105 16.7772102,21.5062622 L16.7772102,20.6992973 C16.7772102,20.3970538 16.5037587,20.1521434 16.1665445,20.1521434 L15.3433128,20.1521434 L15.3433128,9.14519543 C15.6428377,9.14610978 16.0627481,9.14519543 16.3660028,9.14519543 C16.7307469,9.14519543 16.7617935,9.46978976 16.7617935,9.46978976 L16.7617935,17.8823197 C16.7617935,20.0295188 18.742878,20.0500748 18.962584,20.0500748 C19.2582725,20.0500748 21.1199449,20.0500748 21.1199449,17.9092423 L21.1199449,5.54834486 C21.1199449,5.54834486 21.1330385,5.25751376 20.7555774,4.95347538 L20.7555774,4.95347538 Z" id="形状" fill="#FFFFFF" fill-rule="nonzero"></path>
                                </g>
                            </g>
                        </g>
                    </g>
                </g>
            </g>
        </g>
    </g>
</svg>