<?xml version="1.0" encoding="UTF-8"?>
<svg width="48px" height="48px" viewBox="0 0 48 48" version="1.1" xmlns="http://www.w3.org/2000/svg" xmlns:xlink="http://www.w3.org/1999/xlink">
    <title>icon_负载1@2x</title>
    <g id="能源云系统V2.0" stroke="none" stroke-width="1" fill="none" fill-rule="evenodd">
        <g id="3_3.站点概览1920" transform="translate(-1513.000000, -192.000000)">
            <g id="main" transform="translate(212.000000, 116.000000)">
                <g id="1" transform="translate(20.000000, 52.000000)">
                    <g id="编组4" transform="translate(1257.000000, 0.000000)">
                        <g id="icon_负载1" transform="translate(24.000000, 24.000000)">
                            <rect id="bg备份" fill="#50B5FF" x="0" y="0" width="48" height="48" rx="8"></rect>
                            <g id="icon_负载" transform="translate(12.000000, 12.000000)" fill-rule="nonzero">
                                <g id="负载均衡">
                                    <rect id="矩形" fill="#000000" opacity="0" x="0" y="0" width="24" height="24"></rect>
                                    <g id="负载" fill="#FFFFFF">
                                        <path d="M13.3341548,25 L10.6514105,25 C10.2201294,25 9.87087973,24.6535781 9.87087973,24.2257889 C9.87087973,23.7983489 10.2204815,23.4515778 10.6514105,23.4515778 L13.3341548,23.4515778 C13.7654359,23.4515778 14.1150376,23.7983489 14.1150376,24.2257889 C14.1146856,24.6532288 13.7650838,25 13.3341548,25 Z" id="路径"></path>
                                        <path d="M14.0840558,22.597047 L9.90150948,22.597047 C9.4702284,22.597047 9.12097874,22.2502759 9.12097874,21.8228359 C9.12097874,21.3953959 9.47058047,21.0486248 9.90150948,21.0486248 L14.0844079,21.0486248 C14.5153369,21.0486248 14.8649386,21.3953959 14.8649386,21.8228359 C14.8649386,22.2502759 14.5149848,22.597047 14.0840558,22.597047 Z" id="路径"></path>
                                        <path d="M11.962857,3.41917054 C11.6400123,3.41917054 11.377723,3.15935409 11.377723,2.8384249 L11.377723,0.580745645 C11.377723,0.260165668 11.6400123,0 11.962857,0 C12.2860538,0 12.5483431,0.259816452 12.5483431,0.580745645 L12.5483431,2.8384249 C12.5483431,3.15970331 12.2860538,3.41917054 11.962857,3.41917054 Z" id="路径"></path>
                                        <g id="编组" transform="translate(0.000000, 11.729106)">
                                            <path d="M23.4141619,1.16149129 L21.138054,1.16149129 C20.8148572,1.16149129 20.5529199,0.901325623 20.5529199,0.580745645 C20.5529199,0.260165668 20.8148572,0 21.138054,0 L23.4145139,0 C23.7377107,0 24,0.259816452 24,0.580745645 C24,0.901325623 23.7373586,1.16149129 23.4141619,1.16149129 Z" id="路径"></path>
                                            <path d="M2.86229811,1.16149129 L0.585486071,1.16149129 C0.26228931,1.16149129 0,0.901325623 0,0.580745645 C0,0.260165668 0.26228931,0 0.585486071,0 L2.86229811,0 C3.18549487,0 3.44778418,0.259816452 3.44778418,0.580745645 C3.44778418,0.901325623 3.18549487,1.16149129 2.86229811,1.16149129 Z" id="路径"></path>
                                        </g>
                                        <g id="编组" transform="translate(3.514765, 3.009977)">
                                            <path d="M15.6658012,2.75801799 C15.515821,2.75801799 15.3661928,2.70144505 15.2517713,2.58794996 C15.0232804,2.361309 15.0232804,1.99393412 15.2517713,1.76694394 L16.8614179,0.169980723 C17.0899089,-0.0566602411 17.4606346,-0.0566602411 17.6894776,0.169980723 C17.9179686,0.396621688 17.9179686,0.764345779 17.6894776,0.990986744 L16.079831,2.58794996 C15.9657616,2.70144505 15.8157814,2.75801799 15.6658012,2.75801799 Z" id="路径"></path>
                                            <path d="M0.585045989,17.7166709 C0.435417859,17.7166709 0.285437662,17.6604471 0.171368217,17.546952 C-0.0571227391,17.3203111 -0.0571227391,16.9529362 0.171368217,16.725946 L1.78101483,15.1289828 C2.00950579,14.9026911 2.38023148,14.9026911 2.60872244,15.1289828 C2.83756546,15.355973 2.83756546,15.7233479 2.60872244,15.9506873 L0.999075826,17.546952 C0.884654315,17.6604471 0.734674119,17.7166709 0.585045989,17.7166709 Z" id="路径"></path>
                                        </g>
                                        <g id="编组" transform="translate(2.983145, 2.826290)">
                                            <path d="M2.1946926,2.75766878 C2.04506447,2.75766878 1.89508428,2.70109584 1.78101483,2.58760075 L0.171368217,0.990986744 C-0.0571227391,0.764345779 -0.0571227391,0.396621688 0.171368217,0.169980723 C0.40021124,-0.0566602411 0.77058487,-0.0566602411 0.999075826,0.169980723 L2.60872244,1.76659473 C2.8372134,1.99323569 2.8372134,2.36095978 2.60872244,2.58760075 C2.49430093,2.70109584 2.34432073,2.75766878 2.1946926,2.75766878 Z" id="路径"></path>
                                            <path d="M17.2585486,17.6995593 C17.1085684,17.6995593 16.9589403,17.6429864 16.8445188,17.5294913 L15.2352242,15.9332265 C15.0063812,15.7065855 15.0063812,15.3388614 15.2352242,15.1118712 C15.4637152,14.8855795 15.8337367,14.8855795 16.0629318,15.1118712 L17.6722264,16.7084852 C17.9007173,16.9351262 17.9007173,17.3025011 17.6722264,17.5294913 C17.5581569,17.6429864 17.4081767,17.6995593 17.2585486,17.6995593 Z" id="路径"></path>
                                        </g>
                                        <path d="M11.9927826,5.71281901 C8.37283809,5.71281901 5.43801435,8.62388076 5.43801435,12.2148654 C5.43801435,14.5500705 6.68010386,16.5961251 8.54429433,17.7426001 C8.79461339,17.8969534 9.0090217,18.2409309 9.0090217,18.5335736 L9.0090217,19.4139463 C9.0090217,19.8417355 9.35862342,20.1881574 9.78955244,20.1881574 L14.1956608,20.1881574 C14.6269419,20.1881574 14.9761915,19.8417355 14.9761915,19.4139463 L14.9761915,18.5335736 C14.9761915,18.2409309 15.1905998,17.8973027 15.4405668,17.7426001 C17.3051094,16.5964743 18.5471989,14.5500705 18.5471989,12.2148654 C18.5471989,8.62388076 15.6120231,5.71281901 11.9927826,5.71281901 Z M11.994895,8.22856863 C10.88307,8.22856863 9.80962021,8.6937239 9.05056551,9.50495188 C8.35769925,10.2449399 7.97641157,11.207029 7.97641157,12.2145162 C7.97641157,12.534747 7.71412225,12.7949126 7.39092549,12.7949126 C7.06737667,12.7949126 6.80543942,12.534747 6.80543942,12.2145162 C6.80543942,10.9129894 7.29798002,9.67013089 8.19258021,8.71502605 C9.17238041,7.66772828 10.558465,7.06742656 11.994543,7.06742656 C12.3173877,7.06742656 12.5800294,7.32759223 12.5800294,7.64817221 C12.5803811,7.9691014 12.3180918,8.22856863 11.994895,8.22856863 Z" id="形状"></path>
                                    </g>
                                </g>
                            </g>
                        </g>
                    </g>
                </g>
            </g>
        </g>
    </g>
</svg>