<?xml version="1.0" encoding="UTF-8"?>
<svg width="48px" height="48px" viewBox="0 0 48 48" version="1.1" xmlns="http://www.w3.org/2000/svg" xmlns:xlink="http://www.w3.org/1999/xlink">
    <title>icon_其他负载</title>
    <g id="光储充及工商储管理系统V1.5" stroke="none" stroke-width="1" fill="none" fill-rule="evenodd">
        <g id="3_1_11.站点监视_站点概览_充电站" transform="translate(-1094.000000, -178.000000)">
            <g id="main" transform="translate(212.000000, 102.000000)">
                <g id="1" transform="translate(20.000000, 52.000000)">
                    <g id="编组-2" transform="translate(838.000000, 0.000000)">
                        <g id="icon_其他负载" transform="translate(24.000000, 24.000000)">
                            <rect id="bg备份" fill="#7A79FF" x="0" y="0" width="48" height="48" rx="8"></rect>
                            <g id="负载" transform="translate(12.000000, 12.000000)">
                                <rect id="矩形" x="0" y="0" width="24" height="24"></rect>
                                <g id="户用负载" transform="translate(1.000000, 1.000000)" fill="#FFFFFF" fill-rule="nonzero">
                                    <path d="M21.7080555,9.55956783 L12.2492003,0.458188705 L12.2492003,0.457229119 C11.5762,-0.152409706 10.5507715,-0.152409706 9.87777128,0.457229119 L0.292606141,9.56052742 C0.118221638,9.7173051 0.0133710058,9.93704934 0.00119248983,10.1712674 C-0.0109860262,10.4054854 0.0705086517,10.6349245 0.227692427,10.8089523 C0.384638918,10.9833701 0.604469133,11.0882184 0.838751431,11.1003978 C1.07303373,11.1125773 1.30254538,11.0310884 1.47672179,10.8738845 L1.62925302,10.7289866 L1.62925302,20.2292348 C1.62831797,20.6988787 1.81430681,21.1495798 2.14615145,21.4818188 C2.4779961,21.8140579 2.92840076,22.0005068 3.39791184,22 L18.725862,22 C19.1951877,22 19.6452892,21.8134784 19.9774495,21.4818179 C20.309323,21.1495328 20.4955627,20.6989324 20.4951604,20.2292348 L20.4951604,10.8444571 C20.8881601,11.1998248 21.4452029,11.1723166 21.7723297,10.8089523 C22.0994212,10.4461658 22.0706476,9.8868537 21.7080555,9.55956783 L21.7080555,9.55956783 Z M9.37604906,18.6542298 L10.5371411,13.9695177 L7.40753273,13.9695177 L12.2898113,7.78944652 L11.3698273,12.2582512 L14.5924894,12.1763663 L9.37604906,18.6542298 Z" id="形状"></path>
                                </g>
                            </g>
                        </g>
                    </g>
                </g>
            </g>
        </g>
    </g>
</svg>