<?xml version="1.0" encoding="UTF-8"?>
<svg width="43px" height="80px" viewBox="0 0 43 80" version="1.1" xmlns="http://www.w3.org/2000/svg" xmlns:xlink="http://www.w3.org/1999/xlink">
    <title>icon_其他设备</title>
    <defs>
        <path d="M7.46729453e-15,2.11220793 L0.00735649794,5.12415619 C1.02465507,4.54337693 1.53225343,3.77662363 1.53015807,3.01194825 L1.53015807,3.01194825 L1.52279507,0 C1.52594786,0.764675376 1.01729857,1.53142867 7.46729453e-15,2.11220793" id="path-1"></path>
        <path d="M0.00735649794,3.01298722 C0.00945835449,3.76831194 0.508649286,4.52259771 1.50598022,5.09610424 L1.50598022,5.09610424 L1.49967465,2.08415598 C0.502343716,1.51064945 0.00210185655,0.756363687 0,0 L0,0" id="path-3"></path>
        <path d="M0,0 L0.00735649794,3.01194825 C2.01568044,4.16519509 5.31244244,4.16519509 7.33442845,3.01194825 L7.33442845,3.01194825 L7.32707195,0 C5.30508594,1.15324683 2.00937487,1.15324683 0,0" id="path-5"></path>
        <path d="M0,0 L0.00735649794,3.01194825 C2.01568044,4.16519509 5.31244244,4.16519509 7.33442845,3.01194825 L7.33442845,3.01194825 L7.32707195,0 C5.30508594,1.15324683 2.00937487,1.15324683 0,0" id="path-7"></path>
        <path d="M-7.46729453e-15,2.11220793 L0.0966854015,43.4846783 C1.11398397,42.903899 1.62158233,42.1371457 1.61948698,41.3714314 L1.61948698,41.3714314 L1.523846,0 C1.52489693,0.764675376 1.01729857,1.53142867 -7.46729453e-15,2.11220793" id="path-9"></path>
        <path d="M0.0966854015,41.3724703 C0.098787258,42.127795 0.59797819,42.8820808 1.59530912,43.4545484 L1.59530912,43.4545484 L1.49967465,2.08311702 C0.501292788,1.50961049 0.00210185655,0.755324726 0,0 L0,0" id="path-11"></path>
        <path d="M0,0 L0.0966854015,41.3724703 C2.10500934,42.5257171 5.40177134,42.5257171 7.42375735,41.3724703 L7.42375735,41.3724703 L7.32602102,0 C5.30508594,1.15428579 2.00727301,1.15428579 0,0" id="path-13"></path>
        <path d="M0,0 L0.0966854015,41.3724703 C2.10500934,42.5257171 5.40177134,42.5257171 7.42375735,41.3724703 L7.42375735,41.3724703 L7.32602102,0 C5.30508594,1.15428579 2.00727301,1.15428579 0,0" id="path-15"></path>
        <path d="M0.0977363298,7.14493555 C0.0998381863,7.90026027 0.599029118,8.655585 1.59741098,9.22805257 L1.59741098,9.22805257 L1.49967465,2.08311702 C0.502343716,1.51064945 0.00315278483,0.755324726 0,0 L0,0" id="path-17"></path>
        <linearGradient x1="50%" y1="0%" x2="50%" y2="100%" id="linearGradient-19">
            <stop stop-color="#F0F0F0" offset="0%"></stop>
            <stop stop-color="#E0E0E0" offset="100%"></stop>
        </linearGradient>
        <path d="M28.0165936,0.864935123 C26.0082696,-0.288311708 22.7115076,-0.288311708 20.6905725,0.864935123 L1.5226917,11.8051956 C-0.498243377,12.9584424 -0.50875266,14.8472737 1.49852035,16.0005206 L10.3788643,21.1018196 L36.8958866,5.96623417 L28.0165936,0.864935123 Z" id="path-20"></path>
        <path d="M-7.46729453e-15,2.11220793 L0.0966854015,5.6446757 C1.11398397,5.06493541 1.62158233,4.29818211 1.62053303,3.53142881 L1.62053303,3.53142881 L1.52279507,0 C1.52489693,0.764675376 1.01624764,1.53142867 -7.46729453e-15,2.11220793" id="path-21"></path>
        <path d="M0,0 L0.0966854015,3.53246777 C2.10395841,4.6857146 5.40177134,4.6857146 7.42270642,3.53246777 L7.42270642,3.53246777 L7.32602102,0 C5.30508594,1.15428579 2.00832394,1.15428579 0,0" id="path-23"></path>
        <path d="M0,0 L0.0966854015,3.53246777 C2.10395841,4.6857146 5.40177134,4.6857146 7.42270642,3.53246777 L7.42270642,3.53246777 L7.32602102,0 C5.30508594,1.15428579 2.00832394,1.15428579 0,0" id="path-25"></path>
        <linearGradient x1="50%" y1="0%" x2="50%" y2="100%" id="linearGradient-27">
            <stop stop-color="#F0F0F0" offset="0%"></stop>
            <stop stop-color="#E0E0E0" offset="100%"></stop>
        </linearGradient>
        <path d="M1.59951284,0.382337688 C1.23168794,0.591168871 0.637913464,0.59012991 0.273241352,0.381298727 L0.273241352,0.381298727 C0.0924816884,0.277402616 0.00105092828,0.14025975 0,0.00415584444 L0,0.00415584444 L0.00630556966,0.726233815 C0.00630556966,0.863376682 0.0966854015,0.999480587 0.278495993,1.1033767 L0.278495993,1.1033767 C0.643168106,1.31324684 1.23799351,1.31324684 1.60476748,1.1033767 L1.60476748,1.1033767 C1.78867993,0.998441626 1.88116162,0.859220837 1.88116162,0.72103901 L1.88116162,0.72103901 L1.87590697,7.38226269e-15 C1.8769579,0.138181827 1.78447621,0.276363655 1.59951284,0.382337688" id="path-28"></path>
        <path d="M1.59951284,0.382337688 C1.23168794,0.591168871 0.637913464,0.59012991 0.273241352,0.381298727 L0.273241352,0.381298727 C0.0924816884,0.277402616 0.00105092828,0.14025975 0,0.00415584444 L0,0.00415584444 L0.00630556966,0.726233815 C0.00630556966,0.863376682 0.0966854015,0.999480587 0.278495993,1.1033767 L0.278495993,1.1033767 C0.643168106,1.31324684 1.23799351,1.31324684 1.60476748,1.1033767 L1.60476748,1.1033767 C1.78867993,0.998441626 1.88116162,0.859220837 1.88116162,0.72103901 L1.88116162,0.72103901 L1.87590697,7.38226269e-15 C1.8769579,0.138181827 1.78447621,0.276363655 1.59951284,0.382337688" id="path-30"></path>
        <path d="M1.59951284,0.382337688 C1.23168794,0.591168871 0.637913464,0.59012991 0.273241352,0.381298727 L0.273241352,0.381298727 C0.0924816884,0.277402616 0.00105092828,0.14025975 0,0.00415584444 L0,0.00415584444 L0.00630556966,0.726233815 C0.00630556966,0.863376682 0.0966854015,0.999480587 0.278495993,1.1033767 L0.278495993,1.1033767 C0.643168106,1.31324684 1.23799351,1.31324684 1.60476748,1.1033767 L1.60476748,1.1033767 C1.78867993,0.998441626 1.88116162,0.859220837 1.88116162,0.72103901 L1.88116162,0.72103901 L1.87590697,7.38226269e-15 C1.8769579,0.138181827 1.78447621,0.276363655 1.59951284,0.382337688" id="path-32"></path>
        <path d="M1.59846191,0.382337688 C1.23168794,0.592207832 0.637913464,0.592207832 0.272190424,0.382337688 L0.272190424,0.382337688 C0.0914307601,0.277402616 0,0.142337672 0,0.00519480554 L0,0.00519480554 L0.00525464139,0.727272776 C0.00525464139,0.863376682 0.0966854015,1.00051955 0.278495993,1.10545462 L0.278495993,1.10545462 C0.643168106,1.3142858 1.23694258,1.3142858 1.60371655,1.10545462 L1.60371655,1.10545462 C1.78867993,0.999480587 1.88116162,0.861298759 1.88011954,0.723116932 L1.88011954,0.723116932 L1.87590697,7.38226269e-15 C1.87590697,0.138181827 1.78342529,0.276363655 1.59846191,0.382337688" id="path-34"></path>
        <path d="M1.59846191,0.382337688 C1.23168794,0.592207832 0.637913464,0.592207832 0.272190424,0.382337688 L0.272190424,0.382337688 C0.0914307601,0.277402616 0,0.142337672 0,0.00519480554 L0,0.00519480554 L0.00525464139,0.727272776 C0.00525464139,0.863376682 0.0966854015,1.00051955 0.278495993,1.10545462 L0.278495993,1.10545462 C0.643168106,1.3142858 1.23694258,1.3142858 1.60371655,1.10545462 L1.60371655,1.10545462 C1.78867993,0.999480587 1.88116162,0.861298759 1.88011954,0.723116932 L1.88011954,0.723116932 L1.87590697,7.38226269e-15 C1.87590697,0.138181827 1.78342529,0.276363655 1.59846191,0.382337688" id="path-36"></path>
        <path d="M1.59846191,0.382337688 C1.23168794,0.592207832 0.637913464,0.592207832 0.272190424,0.382337688 L0.272190424,0.382337688 C0.0914307601,0.277402616 0,0.142337672 0,0.00519480554 L0,0.00519480554 L0.00525464139,0.727272776 C0.00525464139,0.863376682 0.0966854015,1.00051955 0.278495993,1.10545462 L0.278495993,1.10545462 C0.643168106,1.3142858 1.23694258,1.3142858 1.60371655,1.10545462 L1.60371655,1.10545462 C1.78867993,0.999480587 1.88116162,0.861298759 1.88011954,0.723116932 L1.88011954,0.723116932 L1.87590697,7.38226269e-15 C1.87590697,0.138181827 1.78342529,0.276363655 1.59846191,0.382337688" id="path-38"></path>
    </defs>
    <g id="光储充及工商储管理系统V1.3" stroke="none" stroke-width="1" fill="none" fill-rule="evenodd">
        <g id="3_2_7.设备监视_示范站站点拓扑_用电设备能量流" transform="translate(-1767.000000, -814.000000)">
            <g id="main" transform="translate(212.000000, 102.000000)">
                <g transform="translate(44.000000, 40.000000)" id="其他设备">
                    <g transform="translate(1494.000000, 672.000000)">
                        <g id="icon_其他设备" transform="translate(17.000000, 0.000000)">
                            <g id="编组" transform="translate(0.000000, 52.462246)">
                                <path d="M0.769766448,13.715213 L3.22158212,12.3635246 C3.60622187,12.1567713 4.12538044,12.219109 4.673965,12.5983298 C5.72068956,13.3214467 6.47945978,14.9204079 6.36911231,16.1692391 C6.31341311,16.8050833 6.04332454,17.2269015 5.65237922,17.3931353 L5.65237922,17.3941743 L3.05763731,18.8092393 L2.97671583,17.9739146 C2.96935933,17.9687198 2.96200283,17.9645639 2.95464634,17.9593691 C1.9089727,17.2362522 1.15020248,15.637291 1.25949902,14.3884598 C1.27631388,14.2024858 1.31099451,14.035213 1.36249,13.8866416 L0.769766448,13.715213 Z" id="Fill-19" fill="#282828"></path>
                                <path d="M0.0104707676,14.9573949 C-0.0988257732,16.2062261 0.659944443,17.8051873 1.70561808,18.5283042 C2.75129171,19.2503822 3.68766881,18.8244081 3.79801628,17.5755769 C3.90731282,16.3267456 3.1485426,14.7277845 2.10286897,14.0046676 C1.05719533,13.2815506 0.119767308,13.7085636 0.0104707676,14.9573949" id="Fill-21" fill="#1A1A1A"></path>
                                <path d="M0.763776157,15.4781222 C0.697567675,16.23033 1.15472148,17.192408 1.78422751,17.6277327 C2.41478448,18.0630574 2.97808204,17.806434 3.04429052,17.0542262 C3.110499,16.3030573 2.6533452,15.3399404 2.02383916,14.9046157 C1.39433312,14.469291 0.829984638,14.7259144 0.763776157,15.4781222" id="Fill-23" fill="#262626"></path>
                                <path d="M1.44824574,14.6937066 C1.32949085,14.8266936 1.2496203,15.0220183 1.22755081,15.2755248 C1.16239325,16.0277326 1.61849612,16.9908496 2.24905309,17.4261743 C2.45188225,17.566434 2.64840584,17.6339665 2.82391086,17.6360444 C2.59060478,17.8999405 2.20176132,17.9165639 1.78454279,17.6277327 C1.15503675,17.192408 0.697882954,16.23033 0.764091435,15.4781222 C0.808230423,14.9690313 1.08147177,14.6885118 1.44824574,14.6937066" id="Fill-25" fill="#333333"></path>
                                <path d="M22.3134808,1.46825113 L24.7652965,0.116562725 C25.1509872,-0.0901905356 25.6690948,-0.0278528691 26.2187303,0.351367936 C27.264404,1.07448487 28.0231742,2.67344601 27.9128267,3.92227727 C27.8571275,4.55812147 27.5870389,4.97993968 27.1971446,5.14617345 L27.1971446,5.14721241 L24.6013517,6.56227744 L24.5204302,5.72695271 C24.5130737,5.72175791 24.5057172,5.71760206 24.4983607,5.71240726 C23.4526871,4.98929033 22.6939169,3.39032918 22.8032134,2.14149793 C22.8200283,1.95552389 22.8547089,1.78825115 22.9062044,1.63967971 L22.3134808,1.46825113 Z" id="Fill-27" fill="#282828"></path>
                                <path d="M21.5541852,2.71043303 C21.4438377,3.95926428 22.2036588,5.55822543 23.2493325,6.28134236 C24.2950061,7.00342033 25.2313832,6.57744628 25.3417307,5.32861502 C25.4510272,4.07978377 24.692257,2.48082262 23.6465834,1.75770569 C22.6009097,1.03458876 21.6634817,1.46160178 21.5541852,2.71043303" id="Fill-29" fill="#1A1A1A"></path>
                                <path d="M22.3073855,3.23105644 C22.241177,3.98326428 22.6983308,4.94534227 23.3278368,5.38170594 C23.9583938,5.81599168 24.5216913,5.55936829 24.5878998,4.8081994 C24.6541083,4.05599156 24.1969545,3.09287461 23.5674485,2.65754991 C22.9379424,2.2222252 22.3735939,2.4788486 22.3073855,3.23105644" id="Fill-31" fill="#262626"></path>
                                <path d="M22.9920652,2.4466408 C22.8733103,2.58066679 22.7934398,2.77599148 22.7713703,3.02845903 C22.7051618,3.78066687 23.1623156,4.74378382 23.7928726,5.17910852 C23.9957017,5.31936827 24.1922253,5.38690074 24.3677304,5.39001763 C24.1344243,5.65287479 23.7455808,5.67053713 23.3283623,5.38170594 C22.6988562,4.94638123 22.2417024,3.98326428 22.30686,3.23105644 C22.3520499,2.7219655 22.6252913,2.441446 22.9920652,2.4466408" id="Fill-33" fill="#333333"></path>
                                <path d="M15.8463835,22.3732915 L18.2981992,21.0216031 C18.6828389,20.8148498 19.2019975,20.8771875 19.7505821,21.2564083 C20.7973066,21.9795252 21.5560768,23.5784864 21.4457294,24.8273176 C21.3900302,25.4631618 21.1199416,25.88498 20.7289963,26.0512138 L20.7289963,26.0522528 L18.1342544,27.4673178 L18.0533329,26.6319931 C18.0459764,26.6267983 18.0386199,26.6226424 18.0312634,26.6174476 C16.9855898,25.8943307 16.2268195,24.2953695 16.3361161,23.0465383 C16.3529309,22.8605643 16.3876116,22.6932915 16.4391071,22.5447201 L15.8463835,22.3732915 Z" id="Fill-35" fill="#282828"></path>
                                <path d="M15.0868776,23.6153695 C14.9775811,24.8642008 15.7363513,26.4631619 16.782025,27.1862788 C17.8276986,27.9083568 18.7640757,27.4823827 18.8744232,26.2335515 C18.9837197,24.9847202 18.2249495,23.3857591 17.1792758,22.6626422 C16.1336022,21.9395252 15.1961742,22.3665382 15.0868776,23.6153695" id="Fill-37" fill="#1A1A1A"></path>
                                <path d="M15.8402881,24.1362007 C15.7740796,24.8884085 16.2312334,25.8504865 16.8607395,26.2858112 C17.4902455,26.7211359 18.054594,26.4645126 18.1208025,25.7123047 C18.187011,24.9600969 17.7298572,23.9980189 17.1003511,23.5626942 C16.4708451,23.1273695 15.9064966,23.3839929 15.8402881,24.1362007" id="Fill-39" fill="#262626"></path>
                                <path d="M16.5248628,23.3517851 C16.4061079,23.4858111 16.3272883,23.6811357 16.3041679,23.9336033 C16.2390103,24.6858111 16.6951132,25.6489281 17.3256702,26.0842528 C17.5284993,26.2245125 17.7250229,26.292045 17.9005279,26.2951619 C17.6672218,26.5580191 17.2783784,26.5746424 16.8611599,26.2858112 C16.2316538,25.8504865 15.7745,24.8884085 15.8407085,24.1362007 C15.8848475,23.6271098 16.1580888,23.3465903 16.5248628,23.3517851" id="Fill-41" fill="#333333"></path>
                                <path d="M37.3899928,10.1263296 L39.8418085,8.77464123 C40.2274992,8.56788797 40.7456068,8.63022564 41.2941914,9.00944644 C42.3409159,9.73256337 43.0996861,11.3315245 42.9893387,12.5803558 C42.9336395,13.2162 42.6635509,13.6380182 42.2736565,13.804252 L42.2736565,13.8052909 L39.6778637,15.2203559 L39.5969422,14.3850312 C39.5895857,14.3798364 39.5822292,14.3756806 39.5748727,14.3704858 C38.5291991,13.6473688 37.7704289,12.0484077 37.8797254,10.7995764 C37.8965402,10.6136024 37.9312209,10.4463297 37.9827164,10.2977582 L37.3899928,10.1263296 Z" id="Fill-43" fill="#282828"></path>
                                <path d="M36.6306971,11.3684076 C36.5214006,12.6172389 37.2801708,14.2162 38.3258444,14.939317 C39.3715181,15.6624339 40.3078952,15.2354209 40.4182426,13.9865896 C40.5275392,12.7377584 39.768769,11.1387972 38.7230953,10.4156803 C37.6774217,9.69256337 36.7399937,10.1195764 36.6306971,11.3684076" id="Fill-45" fill="#1A1A1A"></path>
                                <path d="M37.3840025,11.8892388 C37.317794,12.6414467 37.7749478,13.6035247 38.4044539,14.0388494 C39.0339599,14.4741741 39.5983084,14.2175507 39.6645169,13.4653428 C39.7307254,12.713135 39.2735716,11.751057 38.6440655,11.3157323 C38.0145595,10.8804076 37.450211,11.137031 37.3840025,11.8892388" id="Fill-47" fill="#262626"></path>
                                <path d="M38.0685772,11.1048232 C37.9498223,11.2378102 37.8699518,11.4341739 37.8478823,11.6866414 C37.7816738,12.4388493 38.2388276,13.4009273 38.8683336,13.8372909 C39.0722137,13.9775507 39.2687373,14.0450831 39.4442423,14.0471611 C39.2109362,14.3110572 38.8220928,14.3276806 38.4048743,14.0388494 C37.7743173,13.6035247 37.3182144,12.6414467 37.3844229,11.8892388 C37.4285619,11.3801479 37.7018032,11.0996284 38.0685772,11.1048232" id="Fill-49" fill="#333333"></path>
                                <path d="M42.7574053,10.326953 L42.7500423,7.31500477 C42.7531951,8.08071911 42.2445458,8.84643344 41.2272472,9.4272127 L41.2346037,12.439161 C42.2519023,11.8594207 42.7595007,11.0926674 42.7574053,10.326953" id="Fill-51" fill="#F2F2F2"></path>
                            </g>
                            <g id="编组" transform="translate(41.227142, 59.777770)">
                                <mask id="mask-2" fill="white">
                                    <use xlink:href="#path-1"></use>
                                </mask>
                                <g id="Clip-54"></g>
                                <path d="M0.000315278483,2.11189625 L0.00767177642,5.1238445 C1.02497035,4.54306524 1.53256871,3.77631194 1.53047335,3.01163657 L1.52311035,-0.000311688333 C1.52521221,0.764363688 1.01761385,1.53111699 0.000315278483,2.11189625" id="Fill-53" fill="#F2F2F2" mask="url(#mask-2)"></path>
                            </g>
                            <path d="M0.429370779,63.3898225 L0.436727277,66.4017707 C0.437778205,67.1570954 0.938020065,67.9113812 1.935351,68.4848877 L1.9279945,65.4729395 C0.930663567,64.8994329 0.431472635,64.1451472 0.429370779,63.3898225" id="Fill-55" fill="#B3B3B3"></path>
                            <g id="编组" transform="translate(0.429056, 63.389199)">
                                <mask id="mask-4" fill="white">
                                    <use xlink:href="#path-3"></use>
                                </mask>
                                <g id="Clip-58"></g>
                                <path d="M0.000315278483,0.000623376665 L0.00767177642,3.01257163 C0.0087227047,3.76789636 0.508964565,4.52218212 1.5062955,5.09568865 L1.498939,2.0837404 C0.501608067,1.51023387 0.00241713504,0.755948103 0.000315278483,0.000623376665" id="Fill-57" fill="#B3B3B3" mask="url(#mask-4)"></path>
                            </g>
                            <g id="编组" transform="translate(1.928415, 61.889563)">
                                <polygon id="Fill-59" fill="#B3B3B3" points="0 3.58327297 0.00735649794 6.59522122 12.8118666 13.9521048 12.8055611 10.9401566"></polygon>
                                <polygon id="Fill-61" fill="#F2F2F2" points="20.1317923 10.9402605 20.1391488 13.9522087 39.3059787 3.01194825 39.2986222 0"></polygon>
                                <path d="M12.8053509,10.9402605 L12.8127074,13.9522087 C14.8199804,15.1064945 18.1177933,15.1064945 20.1387284,13.9522087 L20.1313719,10.9402605 C18.1104368,12.0935073 14.8136748,12.0935073 12.8053509,10.9402605" id="Fill-63" fill="#D9D9D9"></path>
                            </g>
                            <g id="编组" transform="translate(14.733240, 72.830239)">
                                <g>
                                    <mask id="mask-6" fill="white">
                                        <use xlink:href="#path-5"></use>
                                    </mask>
                                    <g id="Clip-66"></g>
                                    <path d="M0.000525464139,-0.000415584444 L0.00788196208,3.01153267 C0.317905804,3.19023398 0.659457494,3.34088334 1.02097682,3.46348075 L1.01467125,0.451532498 C0.652100996,0.328935087 0.310549306,0.178285726 0.000525464139,-0.000415584444" id="Fill-65" fill="#B5B5B5" mask="url(#mask-6)"></path>
                                </g>
                                <g>
                                    <mask id="mask-8" fill="white">
                                        <use xlink:href="#path-7"></use>
                                    </mask>
                                    <g id="Clip-68"></g>
                                    <path d="M1.01446107,0.451844186 L1.02181756,3.46379244 C3.00386829,4.1380782 5.62488342,3.98742884 7.3336928,3.01184436 L7.32738723,-0.000103896111 C5.61752692,0.975480585 2.99756272,1.12612995 1.01446107,0.451844186" id="Fill-67" fill="#D9D9D9" mask="url(#mask-8)"></path>
                                </g>
                            </g>
                            <g id="编组" transform="translate(0.429183, 17.987222)">
                                <path d="M1.52308751,43.2901847 C-0.497847565,44.4434316 -0.509407776,46.3322629 1.49891616,47.4855097 L14.3044772,54.8423933 C16.3128012,55.9966791 19.6095632,55.9966791 21.6304982,54.8423933 L40.7983791,43.9021328 C42.8193142,42.748886 42.8308744,40.8610937 40.8225504,39.7068079 L28.0169894,32.3499243 C26.0086654,31.1966774 22.7119034,31.1966774 20.6899174,32.3499243 L1.52308751,43.2901847 Z" id="Fill-69" fill="#C3C3C3"></path>
                                <path d="M42.3282219,41.3724703 L42.23153,0 C42.2336318,0.765714337 41.7260335,1.53142867 40.7087349,2.11220793 L40.8054203,43.4846783 C41.8227189,42.903899 42.3303172,42.1381847 42.3282219,41.3724703" id="Fill-71" fill="#F2F2F2"></path>
                            </g>
                            <g id="编组" transform="translate(41.137813, 17.987638)">
                                <mask id="mask-10" fill="white">
                                    <use xlink:href="#path-9"></use>
                                </mask>
                                <g id="Clip-74"></g>
                                <path d="M-0.000105092828,2.11200014 L0.0965803087,43.4844705 C1.11387888,42.9036912 1.62147724,42.1369379 1.61938188,41.3722625 L1.52268998,-0.000207792222 C1.52479184,0.764467584 1.01719348,1.53122088 -0.000105092828,2.11200014" id="Fill-73" fill="#F2F2F2" mask="url(#mask-10)"></path>
                            </g>
                            <path d="M0.339411318,21.6000015 L0.43609672,62.9724718 C0.438198576,63.7277965 0.937389508,64.4820823 1.93472044,65.0555888 L1.83803504,23.6831185 C0.840704106,23.1096119 0.341513175,22.3553262 0.339411318,21.6000015" id="Fill-75" fill="#B3B3B3"></path>
                            <g id="编组" transform="translate(0.339727, 21.600105)">
                                <mask id="mask-12" fill="white">
                                    <use xlink:href="#path-11"></use>
                                </mask>
                                <g id="Clip-78"></g>
                                <path d="M-0.000315278483,-0.000103896111 L0.096370123,41.3723664 C0.0984719796,42.1276911 0.597662911,42.8819769 1.59499385,43.4554834 L1.49830844,2.08301313 C0.50097751,1.5095066 0.00178657807,0.75522083 -0.000315278483,-0.000103896111" id="Fill-77" fill="#B3B3B3" mask="url(#mask-12)"></path>
                            </g>
                            <g id="编组" transform="translate(1.838561, 20.099638)">
                                <polygon id="Fill-79" fill="#B3B3B3" points="0 3.58327297 0.0966854015 44.9557433 12.9022465 52.3126269 12.8055611 10.9401566"></polygon>
                                <polygon id="Fill-81" fill="#F2F2F2" points="20.1317923 10.9402605 20.2284777 52.3127308 39.3953076 41.3724703 39.2986222 0"></polygon>
                                <path d="M12.8053509,10.9401566 L12.9020363,52.3126269 C14.9103602,53.4658737 18.2071222,53.4669127 20.2291082,52.3126269 L20.1313719,10.9401566 C18.1104368,12.0944424 14.8136748,12.0944424 12.8053509,10.9401566" id="Fill-83" fill="#D9D9D9"></path>
                            </g>
                            <g id="编组" transform="translate(14.643911, 31.040106)">
                                <g>
                                    <mask id="mask-14" fill="white">
                                        <use xlink:href="#path-13"></use>
                                    </mask>
                                    <g id="Clip-86"></g>
                                    <path d="M0,-0.000311688333 L0.0966854015,41.3721586 C0.406709243,41.5508599 0.748260933,41.7015093 1.11083119,41.8241067 L1.01414579,0.451636394 C0.651575532,0.329038983 0.310023842,0.178389622 0,-0.000311688333" id="Fill-85" fill="#B5B5B5" mask="url(#mask-14)"></path>
                                </g>
                                <g>
                                    <mask id="mask-16" fill="white">
                                        <use xlink:href="#path-15"></use>
                                    </mask>
                                    <g id="Clip-88"></g>
                                    <path d="M1.0139356,0.451948082 L1.110621,41.8244184 C3.09372266,42.4987042 5.71473778,42.3480548 7.42354716,41.3724703 L7.32686176,0 C5.61805238,0.975584481 2.99703726,1.12623384 1.0139356,0.451948082" id="Fill-87" fill="#D9D9D9" mask="url(#mask-16)"></path>
                                </g>
                            </g>
                            <path d="M1.86252167,19.4874818 C-0.158413407,20.6417676 -0.169973618,22.52956 1.83835032,23.6828068 L14.6439114,31.0396904 C16.6522353,32.1939762 19.9489973,32.1939762 21.9699324,31.0396904 L41.1378132,20.0994299 C43.1587483,18.9461831 43.1692576,17.0583908 41.1619846,15.904105 L28.3564235,8.54722135 C26.3480996,7.39397452 23.0513376,7.39397452 21.0293516,8.54722135 L1.86252167,19.4874818 Z" id="Fill-89" fill="#C3C3C3"></path>
                            <g id="编组" transform="translate(0.241990, 13.916988)">
                                <mask id="mask-18" fill="white">
                                    <use xlink:href="#path-17"></use>
                                </mask>
                                <g id="Clip-92"></g>
                                <path d="M0.000735649794,0.000623376665 L0.0974210513,7.14555892 C0.0995229078,7.90088365 0.598713839,8.65516941 1.59604477,9.22763698 L1.49935937,2.0837404 C0.502028438,1.51023387 0.00283750635,0.755948103 0.000735649794,0.000623376665" id="Fill-91" fill="#B5B5B5" mask="url(#mask-18)"></path>
                            </g>
                            <g id="编组" transform="translate(0.242934, 0.000000)">
                                <polygon id="Fill-93" fill="#ABABAB" points="1.49894072 16.0006245 1.59562612 23.144521 10.3782337 28.1907551 10.3782337 21.1019235"></polygon>
                                <g id="Fill-95" fill-rule="nonzero">
                                    <use fill="url(#linearGradient-19)" xlink:href="#path-20"></use>
                                    <use fill="#F1F1F1" xlink:href="#path-20"></use>
                                </g>
                            </g>
                            <g id="编组" transform="translate(41.041128, 13.916988)">
                                <mask id="mask-22" fill="white">
                                    <use xlink:href="#path-21"></use>
                                </mask>
                                <g id="Clip-98"></g>
                                <path d="M-0.000210185655,2.11231183 L0.0964752158,5.6447796 C1.11377379,5.06400034 1.62137215,4.29724704 1.61927679,3.53257167 L1.52258489,0.000103896111 C1.52468674,0.764779272 1.01708839,1.53153257 -0.000210185655,2.11231183" id="Fill-97" fill="#D9D9D9" mask="url(#mask-22)"></path>
                            </g>
                            <polygon id="Fill-99" fill="#D9D9D9" points="21.8737725 26.9694564 21.9704579 30.5019241 41.1372878 19.5616637 41.0406024 16.0291959"></polygon>
                            <g id="编组" transform="translate(14.547226, 26.969456)">
                                <g>
                                    <mask id="mask-24" fill="white">
                                        <use xlink:href="#path-23"></use>
                                    </mask>
                                    <g id="Clip-102"></g>
                                    <path d="M0,0 L0.0966854015,3.53246777 C0.406709243,3.71116908 0.748260933,3.86181844 1.11083119,3.98441585 L1.01414579,0.451948082 C0.651575532,0.329350672 0.310023842,0.178701311 0,0" id="Fill-101" fill="#B3B3B3" mask="url(#mask-24)"></path>
                                </g>
                                <g>
                                    <mask id="mask-26" fill="white">
                                        <use xlink:href="#path-25"></use>
                                    </mask>
                                    <g id="Clip-104"></g>
                                    <path d="M1.01404069,0.452259771 L1.1107261,3.98472754 C3.09382775,4.6590133 5.71379195,4.50732498 7.42260133,3.53277946 L7.32696685,0.000311688333 C5.61710655,0.97589617 2.99714235,1.12654553 1.01404069,0.452259771" id="Fill-103" fill="#B3B3B3" mask="url(#mask-26)"></path>
                                </g>
                            </g>
                            <g id="编组" transform="translate(1.935246, 5.966338)">
                                <path d="M39.1295278,5.86753286 L35.2032598,3.6119483 L8.68623749,18.7475337 L12.6125055,21.0031183 C14.6197785,22.1574041 17.9175915,22.1574041 19.9385266,21.0031183 L39.1053565,10.0628578 C41.1273425,8.90961099 41.1378518,7.02077969 39.1295278,5.86753286" id="Fill-105" fill="url(#linearGradient-27)" fill-rule="nonzero"></path>
                                <polygon id="Fill-107" fill="#D9D9D9" points="35.2036801 0 8.68665786 15.1355854 12.611875 21.0171443 39.1288973 5.88155884"></polygon>
                                <polygon id="Fill-109" fill="#ABABAB" points="12.6119801 21.0031183 8.68676295 15.1361049 8.68676295 22.2249366 12.7086655 24.5355861"></polygon>
                                <polygon id="Fill-111" fill="#515151" points="36.1606554 31.4476904 36.1606554 33.2887295 23.4822567 40.5998988 23.4822567 38.7567818 35.5900014 31.7749632 35.8769048 31.6108073 35.8821594 31.6076904"></polygon>
                                <polygon id="Fill-113" fill="#333333" points="35.8824747 31.6075865 35.8824747 32.9945996 23.482572 40.14473 23.482572 38.7566779 35.5903167 31.7748593 35.8772201 31.6107034"></polygon>
                                <polygon id="Fill-115" fill="#B3B3B3" points="23.4827822 38.9640546 23.4838331 39.3308078 24.7323359 40.715743 24.731285 40.3489897"></polygon>
                                <polygon id="Fill-117" fill="#F2F0ED" points="36.8381889 33.4688854 24.7314951 40.3488858 23.4829924 38.9639507 35.5896861 32.0839502"></polygon>
                                <polygon id="Fill-119" fill="#CACACA" points="24.7310748 40.3489897 24.7321257 40.715743 36.8388195 33.8357425 36.8377685 33.4689893"></polygon>
                                <polygon id="Fill-121" fill="#515151" points="36.1606554 29.1389111 36.1606554 30.9799501 23.4822567 38.2911195 23.4822567 36.4480025 35.5900014 29.4661838 35.8769048 29.3020279 35.8821594 29.2989111"></polygon>
                                <polygon id="Fill-123" fill="#333333" points="35.8824747 29.2988072 35.8824747 30.6858202 23.482572 37.8359506 23.482572 36.4478986 35.5903167 29.4660799 35.8772201 29.3019241"></polygon>
                                <polygon id="Fill-125" fill="#B3B3B3" points="23.4827822 36.6553791 23.4838331 37.0221324 24.7323359 38.4070675 24.731285 38.0403142"></polygon>
                                <polygon id="Fill-127" fill="#F2F0ED" points="36.8381889 31.160106 24.7314951 38.0401065 23.4829924 36.6551713 35.5896861 29.7751708"></polygon>
                                <polygon id="Fill-129" fill="#CACACA" points="24.7310748 38.0402104 24.7321257 38.4069636 36.8388195 31.5269632 36.8377685 31.1602099"></polygon>
                                <polygon id="Fill-131" fill="#515151" points="36.1606554 26.9735083 36.1606554 28.8145474 23.4822567 36.1257167 23.4822567 34.2825997 35.5900014 27.3007811 35.8769048 27.1366252 35.8821594 27.1335083"></polygon>
                                <polygon id="Fill-133" fill="#333333" points="35.8824747 27.1334044 35.8824747 28.5204175 23.482572 35.6715868 23.482572 34.2824958 35.5903167 27.3017161 35.8772201 27.1365213"></polygon>
                                <polygon id="Fill-135" fill="#B3B3B3" points="23.4827822 34.4898725 23.4838331 34.8566257 24.7323359 36.2415609 24.731285 35.8748076"></polygon>
                                <polygon id="Fill-137" fill="#F2F0ED" points="36.8381889 28.9947033 24.7314951 35.8747037 23.4829924 34.4897686 35.5896861 27.6097681"></polygon>
                                <polygon id="Fill-139" fill="#CACACA" points="24.7310748 35.8748076 24.7321257 36.2415609 36.8388195 29.3615604 36.8377685 28.9948071"></polygon>
                                <polygon id="Fill-141" fill="#515151" points="36.1606554 24.8894562 36.1606554 26.7304953 23.4822567 34.0416646 23.4822567 32.1985476 35.5900014 25.2177679 35.8769048 25.0525731 35.8821594 25.0494562"></polygon>
                                <polygon id="Fill-143" fill="#333333" points="35.8824747 25.0494562 35.8824747 26.4364693 23.482572 33.5865997 23.482572 32.1985476 35.5903167 25.2177679 35.8772201 25.0525731"></polygon>
                                <polygon id="Fill-145" fill="#B3B3B3" points="23.4827822 32.4059243 23.4838331 32.7726775 24.7323359 34.1576127 24.731285 33.7908594"></polygon>
                                <polygon id="Fill-147" fill="#F2F0ED" points="36.8381889 26.9107551 24.7314951 33.7907555 23.4829924 32.4058204 35.5896861 25.5258199"></polygon>
                                <polygon id="Fill-149" fill="#CACACA" points="24.7310748 33.7908594 24.7321257 34.1576127 36.8388195 27.2776122 36.8377685 26.910859"></polygon>
                                <polygon id="Fill-151" fill="#515151" points="36.1606554 22.5806768 36.1606554 24.4217159 23.4822567 31.7328853 23.4822567 29.8897682 35.5900014 22.9089886 35.8769048 22.7437937 35.8821594 22.7406769"></polygon>
                                <polygon id="Fill-153" fill="#333333" points="35.8824747 22.7406769 35.8824747 24.1276899 23.482572 31.2778203 23.482572 29.8897682 35.5903167 22.9089886 35.8772201 22.7437937"></polygon>
                                <polygon id="Fill-155" fill="#B3B3B3" points="23.4827822 30.0971449 23.4838331 30.4638982 24.7323359 31.8488333 24.731285 31.48208"></polygon>
                                <polygon id="Fill-157" fill="#F2F0ED" points="36.8381889 24.6019757 24.7314951 31.4819761 23.4829924 30.097041 35.5896861 23.2170405"></polygon>
                                <polygon id="Fill-159" fill="#CACACA" points="24.7310748 31.48208 24.7321257 31.8488333 36.8388195 24.9688329 36.8377685 24.6020796"></polygon>
                                <polygon id="Fill-161" fill="#515151" points="36.1606554 20.4152741 36.1606554 22.2563132 23.4822567 29.5674825 23.4822567 27.7243655 35.5900014 20.7435858 35.8769048 20.578391 35.8821594 20.5752741"></polygon>
                                <polygon id="Fill-163" fill="#333333" points="35.8824747 20.5751702 35.8824747 21.9621833 23.482572 29.1133526 23.482572 27.7242616 35.5903167 20.7434819 35.8772201 20.5782871"></polygon>
                                <polygon id="Fill-165" fill="#B3B3B3" points="23.4827822 27.931846 23.4838331 28.2985993 24.7323359 29.6835345 24.731285 29.3167812"></polygon>
                                <polygon id="Fill-167" fill="#F2F0ED" points="36.8381889 22.436469 24.7314951 29.3164695 23.4829924 27.9315343 35.5896861 21.0515339"></polygon>
                                <polygon id="Fill-169" fill="#CACACA" points="24.7310748 29.3166773 24.7321257 29.6834306 36.8388195 22.8034301 36.8377685 22.4366768"></polygon>
                                <polygon id="Fill-171" fill="#444444" points="6.91510806 24.1975081 0.333144264 20.4406248 0 20.2504949 0 21.6063391 6.91510806 25.5533524"></polygon>
                                <polygon id="Fill-173" fill="#333333" points="6.91510806 24.1975081 0.333144264 20.4406248 0.333144264 21.4598456 6.91510806 25.21569"></polygon>
                                <polygon id="Fill-175" fill="#444444" points="6.91510806 26.0966251 0.333144264 22.3397418 0 22.1496119 0 23.5054561 6.91510806 27.4524694"></polygon>
                                <polygon id="Fill-177" fill="#333333" points="6.91510806 26.0966251 0.333144264 22.3397418 0.333144264 23.3589626 6.91510806 27.114807"></polygon>
                                <polygon id="Fill-179" fill="#444444" points="6.91510806 27.9765214 0.333144264 24.220677 0 24.0295081 0 25.3853524 6.91510806 29.3323656"></polygon>
                                <polygon id="Fill-181" fill="#333333" points="6.91510806 27.9765214 0.333144264 24.220677 0.333144264 25.2388588 6.91510806 28.9947033"></polygon>
                                <polygon id="Fill-183" fill="#444444" points="6.91510806 29.9817163 0.333144264 26.2258719 0 26.0347031 0 27.3915863 6.91510806 31.3385995"></polygon>
                                <polygon id="Fill-185" fill="#333333" points="6.91510806 29.9817163 0.333144264 26.2258719 0.333144264 27.2440538 6.91510806 30.9998982"></polygon>
                                <polygon id="Fill-187" fill="#444444" points="6.91510806 32.0620281 0.333144264 28.3061837 0 28.1150149 0 29.4708591 6.91510806 33.4178724"></polygon>
                                <polygon id="Fill-189" fill="#333333" points="6.91510806 32.0620281 0.333144264 28.3061837 0.333144264 29.3243656 6.91510806 33.08021"></polygon>
                                <polygon id="Fill-191" fill="#444444" points="6.91510806 33.9610412 0.333144264 30.2051968 0 30.014028 0 31.3698722 6.91510806 35.3168855"></polygon>
                                <polygon id="Fill-193" fill="#333333" points="6.91510806 33.9610412 0.333144264 30.2051968 0.333144264 31.2233787 6.91510806 34.9792231"></polygon>
                                <polygon id="Fill-195" fill="#444444" points="6.91510806 35.8411453 0.333144264 32.0842619 0 31.894132 0 33.2499763 6.91510806 37.1969895"></polygon>
                                <polygon id="Fill-197" fill="#333333" points="6.91510806 35.8411453 0.333144264 32.0842619 0.333144264 33.1034827 6.91510806 36.8593272"></polygon>
                                <polygon id="Fill-199" fill="#444444" points="6.91510806 37.8463402 0.333144264 34.0894568 0 33.899327 0 35.2551712 6.91510806 39.2021845"></polygon>
                                <polygon id="Fill-201" fill="#333333" points="6.91510806 37.8463402 0.333144264 34.0894568 0.333144264 35.1086777 6.91510806 38.8645221"></polygon>
                                <polygon id="Fill-203" fill="#444444" points="6.91510806 39.9645741 0.333144264 36.2076907 0 36.0175609 0 37.3734051 6.91510806 41.3204184"></polygon>
                                <polygon id="Fill-205" fill="#333333" points="6.91510806 39.9645741 0.333144264 36.2076907 0.333144264 37.2269116 6.91510806 40.982756"></polygon>
                                <polygon id="Fill-207" fill="#444444" points="6.91510806 41.8444703 0.333144264 38.087587 0 37.8974571 0 39.2533013 6.91510806 43.2003146"></polygon>
                                <polygon id="Fill-209" fill="#333333" points="6.91510806 41.8444703 0.333144264 38.087587 0.333144264 39.1068078 6.91510806 42.8626522"></polygon>
                                <polygon id="Fill-211" fill="#444444" points="6.91510806 43.8496653 0.333144264 40.0938209 0 39.902652 0 41.2584963 6.91510806 45.2065485"></polygon>
                                <polygon id="Fill-213" fill="#333333" points="6.91510806 43.8496653 0.333144264 40.0938209 0.333144264 41.1120028 6.91510806 44.8678472"></polygon>
                                <polygon id="Fill-215" fill="#0F0F0F" points="31.1008562 14.0031178 26.6260035 16.5568842 24.1069285 15.1189621 28.5817811 12.5651957"></polygon>
                                <path d="M25.2381477,15.2241049 C25.3611063,15.1254036 25.4809121,15.0381309 25.6910978,14.9186504 C25.937015,14.7783906 26.2123582,14.8126763 26.4120346,14.926962 C26.6789703,15.0796893 26.6138128,15.4318971 26.5917433,15.542027 L27.0404897,15.2864426 L27.2506753,15.4059231 L26.4151873,15.8817673 L26.215511,15.7674816 C26.2649046,15.623066 26.3731502,15.1659231 26.185034,15.0578711 C26.0767884,14.9965724 25.9695937,15.0007283 25.8298203,15.0796893 L25.408398,15.3207283 L25.2381477,15.2241049 Z" id="Fill-217" fill="#D9D9D9"></path>
                                <path d="M27.1929794,15.1970919 L27.6511841,14.9352737 C27.7573278,14.875014 27.7047814,14.8303387 27.6543369,14.8022867 L27.5460913,14.739949 C27.4924939,14.7098192 27.4210308,14.6786503 27.3211926,14.7357932 L27.1698589,14.822027 C27.1120579,14.8552737 27.0983958,14.8947542 27.1656552,14.9331958 L26.9502149,15.0557932 L26.2523985,14.6163127 L26.9754372,14.2038451 L27.1845719,14.3233256 L26.6811773,14.6111179 L26.9365529,14.7711179 C26.9439094,14.7368322 26.9775391,14.7067023 27.0090669,14.6848841 C27.0647661,14.6454036 27.1519932,14.6028062 27.1866738,14.5830659 C27.3863502,14.4802088 27.5881284,14.5041049 27.7541751,14.5986503 L27.9212726,14.6942348 C28.1440694,14.820988 28.047384,14.9581309 27.9139162,15.033975 C27.7121379,15.1492997 27.6270127,15.196053 27.3716372,15.2989101 L27.1929794,15.1970919 Z" id="Fill-219" fill="#D9D9D9"></path>
                                <path d="M28.3032851,13.6305464 C28.0573679,13.7708061 28.0573679,14.0004165 28.3032851,14.1406763 C28.5502532,14.280936 28.9506569,14.280936 29.197625,14.1406763 C29.4435423,14.0004165 29.4435423,13.7708061 29.197625,13.6305464 C28.9506569,13.4902866 28.5502532,13.4902866 28.3032851,13.6305464 M29.2375603,14.1635334 C28.9685227,14.3172997 28.5323874,14.3172997 28.2633498,14.1635334 C27.9953631,14.0108061 27.9953631,13.7614555 28.2633498,13.6076892 C28.5323874,13.453923 28.9685227,13.453923 29.2375603,13.6076892 C29.505547,13.7614555 29.505547,14.0108061 29.2375603,14.1635334" id="Fill-221" fill="#D9D9D9"></path>
                                <path d="M29.5131137,13.8857152 C29.5131137,13.944936 29.4962989,14.0020789 29.4658219,14.0550659 C29.421683,14.104936 29.362831,14.1516893 29.289266,14.1932477 C29.2167519,14.2358451 29.1347795,14.2690919 29.0475525,14.2940269 C28.9540199,14.3116893 28.8541817,14.3210399 28.7501398,14.3210399 C28.6471488,14.3210399 28.5473106,14.3116893 28.453778,14.2940269 C28.366551,14.2690919 28.2845786,14.2358451 28.2110136,14.1932477 C28.1374486,14.1516893 28.0796475,14.104936 28.0344576,14.0550659 C28.0039807,14.0020789 27.9871659,13.944936 27.9871659,13.8857152 C27.9871659,13.8264944 28.0039807,13.7693516 28.0344576,13.7163646 C28.0796475,13.6664944 28.1374486,13.6197412 28.2110136,13.5781827 C28.2845786,13.5355853 28.366551,13.5023386 28.453778,13.4774035 C28.5473106,13.4597412 28.6471488,13.4503905 28.7501398,13.4503905 C28.8541817,13.4503905 28.9529689,13.4597412 29.0465016,13.4774035 C29.1347795,13.5023386 29.2167519,13.5355853 29.289266,13.5781827 C29.362831,13.6197412 29.421683,13.6664944 29.4668729,13.7163646 C29.4962989,13.7703905 29.5131137,13.8264944 29.5131137,13.8857152 L29.5131137,13.8857152 Z M29.5246739,13.4431178 L29.0496543,13.4732477 L28.7501398,13.2602606 L28.4506252,13.4732477 L27.9756056,13.4431178 L28.0271011,13.7153256 L27.6550725,13.8857152 L28.0271011,14.0571438 L27.9756056,14.3283127 L28.4506252,14.2981828 L28.7501398,14.5111698 L29.0496543,14.2981828 L29.5246739,14.3283127 L29.4731784,14.0571438 L29.846258,13.8857152 L29.4731784,13.7142866 L29.5246739,13.4431178 Z" id="Fill-223" fill="#D9D9D9"></path>
                                <polygon id="Fill-225" fill="#929292" points="25.3120279 14.4311698 25.3120279 15.8067543 25.8732236 16.1267543 25.8732236 14.1101308"></polygon>
                                <polygon id="Fill-227" fill="#929292" points="27.3167787 13.2870658 27.3167787 16.1629102 28.5789436 15.4418712 28.5789436 12.5660268"></polygon>
                                <path d="M18.7104118,18.3897155 L18.7104118,18.3897155 C18.4655455,18.5289363 18.3310267,18.7138714 18.3310267,18.9091961 C18.3310267,19.1045208 18.4655455,19.2884169 18.7104118,19.4286766 C19.2222138,19.7206247 20.0556,19.7206247 20.567402,19.4286766 C20.8122683,19.2884169 20.9467871,19.1045208 20.9467871,18.9091961 C20.9467871,18.7138714 20.8122683,18.5289363 20.567402,18.3897155 C20.3109755,18.243222 19.9757294,18.1704947 19.6394324,18.1704947 C19.3020844,18.1704947 18.9668383,18.243222 18.7104118,18.3897155 M18.6914951,19.4608844 C18.4350686,19.3143909 18.2931932,19.1180273 18.2931932,18.9091961 C18.2931932,18.6993259 18.4350686,18.5040012 18.6914951,18.3575077 C19.2138064,18.0593259 20.0640074,18.0593259 20.5863187,18.3575077 C20.8427452,18.5040012 20.9846206,18.6993259 20.9846206,18.9091961 C20.9846206,19.1180273 20.8427452,19.3143909 20.5863187,19.4608844 C20.3246376,19.6094559 19.982035,19.6842611 19.6394324,19.6842611 C19.2957788,19.6842611 18.9521253,19.6094559 18.6914951,19.4608844" id="Fill-229" fill="#E1E1E1"></path>
                            </g>
                            <g id="编组" transform="translate(20.633152, 24.116469)">
                                <g transform="translate(0.000000, 0.000000)">
                                    <mask id="mask-29" fill="white">
                                        <use xlink:href="#path-28"></use>
                                    </mask>
                                    <g id="Clip-232"></g>
                                    <path d="M0.000630556966,0.00405194832 L0.00588519835,0.726129919 C0.00588519835,0.809246808 0.0395149032,0.891324735 0.105723385,0.967168896 L0.101519672,0.245090926 C0.0342602618,0.169246765 0.000630556966,0.087168837 0.000630556966,0.00405194832" id="Fill-231" fill="#17171E" mask="url(#mask-29)"></path>
                                </g>
                                <g transform="translate(0.000000, 0.000000)">
                                    <mask id="mask-31" fill="white">
                                        <use xlink:href="#path-30"></use>
                                    </mask>
                                    <g id="Clip-234"></g>
                                    <path d="M0.100994207,0.244779237 L0.106248849,0.966857208 C0.149336908,1.01672734 0.207137963,1.06244163 0.278601086,1.10400007 C0.411018049,1.17984424 0.573911932,1.22867541 0.744162313,1.24945463 L0.738907672,0.526337698 C0.567606362,0.505558476 0.405763408,0.456727303 0.273346445,0.380883143 C0.201883322,0.340363659 0.144082267,0.293610409 0.100994207,0.244779237" id="Fill-233" fill="#2A2A2A" mask="url(#mask-31)"></path>
                                </g>
                                <g transform="translate(0.000000, 0.000000)">
                                    <mask id="mask-33" fill="white">
                                        <use xlink:href="#path-32"></use>
                                    </mask>
                                    <g id="Clip-236"></g>
                                    <path d="M0.738907672,0.526649386 L0.744162313,1.24872736 C1.0447278,1.28612996 1.37051557,1.23729878 1.60487257,1.10431176 C1.78983595,0.99833773 1.88126671,0.860155902 1.88126671,0.721974075 L1.87601207,-0.00114285722 C1.877063,0.13703897 1.78458131,0.276259759 1.59961793,0.381194831 C1.36526092,0.515220814 1.03947316,0.563013025 0.738907672,0.526649386" id="Fill-235" fill="#17171E" mask="url(#mask-33)"></path>
                                </g>
                            </g>
                            <g id="编组" transform="translate(17.291410, 23.581196)">
                                <path d="M3.61908171,0.157402608 C3.25230774,0.367272752 3.25020588,0.707013035 3.61487799,0.916883179 C3.97955011,1.12571436 4.57437551,1.12675332 4.94114948,0.916883179 C5.30897438,0.707013035 5.31002531,0.367272752 4.94535319,0.157402608 C4.57963015,-0.052467536 3.9869066,-0.052467536 3.61908171,0.157402608" id="Fill-237" fill="#2A2A2A"></path>
                                <path d="M0.417218526,2.50161056 L0.417218526,2.50161056 C0.172352237,2.64083135 0.037833418,2.82576642 0.037833418,3.02109111 C0.037833418,3.2164158 0.172352237,3.40031192 0.417218526,3.54057167 C0.929020597,3.83251974 1.76240672,3.83251974 2.27420879,3.54057167 C2.51907508,3.40031192 2.6535939,3.2164158 2.6535939,3.02109111 C2.6535939,2.82576642 2.51907508,2.64083135 2.27420879,2.50161056 C2.01778229,2.35511704 1.68253617,2.28238976 1.34518819,2.28238976 C1.00994207,2.28238976 0.673645026,2.35511704 0.417218526,2.50161056 M0.398301817,3.57277946 C0.141875317,3.42628594 0,3.2299223 0,3.02109111 C0,2.81122097 0.141875317,2.61589628 0.398301817,2.46940276 C0.920613171,2.17122093 1.77081415,2.17122093 2.2931255,2.46940276 C2.549552,2.61589628 2.69142732,2.81122097 2.69142732,3.02109111 C2.69142732,3.2299223 2.549552,3.42628594 2.2931255,3.57277946 C2.03144436,3.7213509 1.68884174,3.7961561 1.34518819,3.7961561 C1.00258558,3.7961561 0.65893203,3.7213509 0.398301817,3.57277946" id="Fill-239" fill="#E1E1E1"></path>
                            </g>
                            <g id="编组" transform="translate(17.696858, 25.842184)">
                                <g transform="translate(0.000000, 0.000000)">
                                    <mask id="mask-35" fill="white">
                                        <use xlink:href="#path-34"></use>
                                    </mask>
                                    <g id="Clip-242"></g>
                                    <path d="M2.22044605e-16,0.00509090943 L0.00525464139,0.72716888 C0.00525464139,0.810285769 0.0388843463,0.892363696 0.105092828,0.968207857 L0.0998381863,0.246129887 C0.0336297049,0.170285726 2.22044605e-16,0.0882077981 2.22044605e-16,0.00509090943" id="Fill-241" fill="#17171E" mask="url(#mask-35)"></path>
                                </g>
                                <g transform="translate(0.000000, 0.000000)">
                                    <mask id="mask-37" fill="white">
                                        <use xlink:href="#path-36"></use>
                                    </mask>
                                    <g id="Clip-244"></g>
                                    <path d="M0.100153465,0.245818198 L0.105408106,0.967896169 C0.148496166,1.0177663 0.206297221,1.06348059 0.277760344,1.10503904 C0.410177307,1.1808832 0.572020261,1.22971437 0.74332157,1.25049359 L0.738066929,0.527376659 C0.567816548,0.506597437 0.404922665,0.457766265 0.272505702,0.382961065 C0.201042579,0.34140262 0.143241524,0.29464937 0.100153465,0.245818198" id="Fill-243" fill="#2A2A2A" mask="url(#mask-37)"></path>
                                </g>
                                <g transform="translate(0.000000, 0.000000)">
                                    <mask id="mask-39" fill="white">
                                        <use xlink:href="#path-38"></use>
                                    </mask>
                                    <g id="Clip-246"></g>
                                    <path d="M0.738172022,0.527792243 L0.743426663,1.24987021 C1.04399215,1.28727281 1.36977992,1.23844164 1.60413692,1.10545462 C1.7891003,0.999480587 1.88053106,0.861298759 1.88053106,0.723116932 L1.87527642,7.38226269e-15 C1.87527642,0.138181827 1.78384566,0.277402616 1.59888228,0.382337688 C1.36452527,0.516363671 1.03873751,0.564155882 0.738172022,0.527792243" id="Fill-245" fill="#17171E" mask="url(#mask-39)"></path>
                                </g>
                            </g>
                            <path d="M17.9733573,25.4653524 C17.6065833,25.6752225 17.6044814,26.0149628 17.9691535,26.2248329 C18.3348766,26.4336641 18.9286511,26.4347031 19.295425,26.2248329 C19.6632499,26.0149628 19.6643008,25.6752225 19.2996287,25.4653524 C18.9349566,25.2554822 18.3411821,25.2554822 17.9733573,25.4653524" id="Fill-247" fill="#2A2A2A"></path>
                        </g>
                    </g>
                </g>
            </g>
        </g>
    </g>
</svg>