<?xml version="1.0" encoding="UTF-8"?>
<svg width="42px" height="80px" viewBox="0 0 42 80" version="1.1" xmlns="http://www.w3.org/2000/svg" xmlns:xlink="http://www.w3.org/1999/xlink">
    <title>icon_120kW直流充电桩</title>
    <defs>
        <path d="M0.299140819,3.47454456 C0.464351732,3.37971925 0.598281638,3.14910593 0.598281638,2.9594553 C0.598281638,2.76980467 0.464351732,2.69293356 0.299140819,2.78775888 C0.133929907,2.88258419 0,3.11319751 0,3.30284814 C0,3.49249877 0.133929907,3.56936988 0.299140819,3.47454456 Z" id="path-1"></path>
        <path d="M1.94441532,2.53021424 C2.10962624,2.43538893 2.24355614,2.20477561 2.24355614,2.01512498 C2.24355614,1.82547435 2.10962624,1.74860324 1.94441532,1.84342856 C1.77920441,1.93825387 1.64527451,2.16886719 1.64527451,2.35851782 C1.64527451,2.54816845 1.77920441,2.62503956 1.94441532,2.53021424 Z" id="path-2"></path>
        <path d="M3.44011942,1.67173214 C3.60533033,1.57690682 3.73926024,1.3462935 3.73926024,1.15664287 C3.73926024,0.966992239 3.60533033,0.890121133 3.44011942,0.984946448 C3.27490851,1.07977176 3.1409786,1.31038508 3.1409786,1.50003571 C3.1409786,1.68968634 3.27490851,1.76655745 3.44011942,1.67173214 Z" id="path-3"></path>
        <path d="M5.08539393,0.727401815 C5.25060484,0.6325765 5.38453474,0.401963181 5.38453474,0.21231255 C5.38453474,0.0226619194 5.25060484,-0.0542091871 5.08539393,0.0406161283 C4.92018301,0.135441444 4.78625311,0.366054763 4.78625311,0.555705394 C4.78625311,0.745356024 4.92018301,0.822227131 5.08539393,0.727401815 Z" id="path-4"></path>
        <polygon id="path-5" points="6.85539741e-13 0 12.0601427 6.98489695 12.0601427 65.0182875 6.85539741e-13 58.0333906"></polygon>
        <polygon id="path-6" points="0 0 5.07658804 2.89621552 5.07658804 3.87920072 0 0.982985197"></polygon>
        <linearGradient x1="54.2390154%" y1="44.4496758%" x2="45.7497919%" y2="55.5485828%" id="linearGradient-8">
            <stop stop-color="#424242" offset="0%"></stop>
            <stop stop-color="#696969" offset="100%"></stop>
        </linearGradient>
        <polygon id="path-9" points="0 0 5.07658804 2.89621552 5.07658804 3.87920072 0 0.982985197"></polygon>
        <linearGradient x1="54.2390154%" y1="44.4531012%" x2="45.7497919%" y2="55.5520082%" id="linearGradient-11">
            <stop stop-color="#424242" offset="0%"></stop>
            <stop stop-color="#696969" offset="100%"></stop>
        </linearGradient>
        <polygon id="path-12" points="0 0 5.07658804 2.89509339 5.07658804 3.87807859 0 0.982985197"></polygon>
        <linearGradient x1="54.2390154%" y1="44.4512982%" x2="45.7497919%" y2="55.5469947%" id="linearGradient-14">
            <stop stop-color="#424242" offset="0%"></stop>
            <stop stop-color="#696969" offset="100%"></stop>
        </linearGradient>
        <polygon id="path-15" points="0 0 5.07658804 2.89509339 5.07658804 3.87807859 0 0.982985197"></polygon>
        <linearGradient x1="54.2390154%" y1="44.4546584%" x2="45.7497919%" y2="55.5503549%" id="linearGradient-17">
            <stop stop-color="#424242" offset="0%"></stop>
            <stop stop-color="#696969" offset="100%"></stop>
        </linearGradient>
        <polygon id="path-18" points="0 0 5.07658804 2.89621552 5.07658804 3.87920072 0 0.982985197"></polygon>
        <linearGradient x1="54.2390154%" y1="44.4497096%" x2="45.7497919%" y2="55.5486166%" id="linearGradient-20">
            <stop stop-color="#424242" offset="0%"></stop>
            <stop stop-color="#696969" offset="100%"></stop>
        </linearGradient>
        <polygon id="path-21" points="0 0 5.07658804 2.89621552 5.07658804 3.87920072 0 0.982985197"></polygon>
        <linearGradient x1="54.2395077%" y1="44.453265%" x2="45.7493153%" y2="55.5534388%" id="linearGradient-23">
            <stop stop-color="#424242" offset="0%"></stop>
            <stop stop-color="#696969" offset="100%"></stop>
        </linearGradient>
        <polygon id="path-24" points="0 0 5.07658804 2.89509339 5.07658804 3.87807859 0 0.982985197"></polygon>
        <linearGradient x1="54.2395077%" y1="44.4515262%" x2="45.7493153%" y2="55.548489%" id="linearGradient-26">
            <stop stop-color="#424242" offset="0%"></stop>
            <stop stop-color="#696969" offset="100%"></stop>
        </linearGradient>
        <polygon id="path-27" points="0 0 5.07658804 2.89509339 5.07658804 3.87807859 0 0.982985197"></polygon>
        <linearGradient x1="54.2390154%" y1="44.4563672%" x2="45.7497919%" y2="55.5520637%" id="linearGradient-29">
            <stop stop-color="#424242" offset="0%"></stop>
            <stop stop-color="#696969" offset="100%"></stop>
        </linearGradient>
        <polygon id="path-30" points="0 0 5.07658804 2.89621552 5.07658804 3.87920072 0 0.982985197"></polygon>
        <polygon id="path-32" points="0 0 5.07658804 2.89621552 5.07658804 3.87920072 0 0.982985197"></polygon>
        <polygon id="path-34" points="0 0 5.07658804 2.89509339 5.07658804 3.87807859 0 0.982985197"></polygon>
        <polygon id="path-36" points="0 0 5.07658804 2.89509339 5.07658804 3.87807859 0 0.982985197"></polygon>
        <polygon id="path-38" points="0 0 5.07658804 2.89621552 5.07658804 3.87920072 0 0.982985197"></polygon>
        <polygon id="path-40" points="0 0 5.07658804 2.89621552 5.07658804 3.87920072 0 0.982985197"></polygon>
        <polygon id="path-42" points="0 0 5.07658804 2.89509339 5.07658804 3.87807859 0 0.982985197"></polygon>
        <polygon id="path-44" points="0 0 5.07658804 2.89509339 5.07658804 3.87807859 0 0.982985197"></polygon>
    </defs>
    <g id="光储充及工商储管理系统V1.3" stroke="none" stroke-width="1" fill="none" fill-rule="evenodd">
        <g id="3_2_7.设备监视_示范站站点拓扑_用电设备能量流" transform="translate(-1098.000000, -814.000000)">
            <g id="main" transform="translate(212.000000, 102.000000)">
                <g transform="translate(44.000000, 40.000000)" id="3">
                    <g transform="translate(0.000000, 591.000000)">
                        <g id="编组-1" transform="translate(804.000000, 81.000000)">
                            <g id="icon_120kW直流充电桩" transform="translate(59.000000, 40.000000) scale(-1, 1) translate(-59.000000, -40.000000) translate(38.000000, 0.000000)">
                                <g id="充电桩一拖二" transform="translate(21.000000, 38.518519) scale(-1, 1) translate(-21.000000, -38.518519) translate(4.500000, 0.000000)">
                                    <g id="正视图备份" transform="translate(12.060143, 6.984897)">
                                        <polygon id="矩形" fill="#DEDEDE" points="6.01188793e-15 12.0187495 20.9398573 0 20.9398573 58.0333906 0 70.0521401"></polygon>
                                        <polygon id="矩形备份-78" fill="#3F3F3F" points="3.00594396e-15 66.4465152 20.9398573 54.4277657 20.9398573 58.0333906 0 70.0521401"></polygon>
                                        <path d="M10.4699287,10.4734817 C12.5350651,9.28816529 14.2091889,10.2490541 14.2091889,12.619687 L14.2091889,29.2742399 C14.2091889,31.6448728 12.5350651,34.5275393 10.4699287,35.7128557 C10.263415,35.8313874 10.0608115,35.928457 9.86340124,36.004801 L9.74558852,36.0481262 C8.02710993,36.6472585 6.73066843,35.6528074 6.73066843,33.5666505 L6.73066843,16.9120975 C6.73066843,14.5414647 8.40479226,11.6587982 10.4699287,10.4734817 Z" id="矩形" fill="#272727"></path>
                                        <polygon id="矩形" fill="#777777" points="8.22637253 18.2856689 12.7134848 15.7102226 12.7134848 18.8007582 8.22637253 21.3762045"></polygon>
                                        <g id="编组-54" transform="translate(7.777661, 12.149830)">
                                            <g id="椭圆形">
                                                <use fill="#35E139" xlink:href="#path-1"></use>
                                                <use fill="#22FFFF" xlink:href="#path-1"></use>
                                            </g>
                                            <g id="椭圆形备份-68">
                                                <use fill="#35E139" xlink:href="#path-2"></use>
                                                <use fill="#22FFFF" xlink:href="#path-2"></use>
                                            </g>
                                            <g id="椭圆形备份-69">
                                                <use fill="#35E139" xlink:href="#path-3"></use>
                                                <use fill="#22FFFF" xlink:href="#path-3"></use>
                                            </g>
                                            <g id="椭圆形备份-70">
                                                <use fill="#35E139" xlink:href="#path-4"></use>
                                                <use fill="#22FFFF" xlink:href="#path-4"></use>
                                            </g>
                                        </g>
                                        <g id="刷卡" transform="translate(9.273365, 21.781474)" fill-rule="nonzero">
                                            <path d="M1.68608016,2.47519479 L1.44313295,2.44409188 C1.34049621,2.41200663 1.32624782,2.27587642 1.40183676,2.11358321 C1.43975198,2.03208816 1.51992939,1.91628755 1.65057992,1.88791278 L1.66917528,1.89035863 L1.51437493,1.31153858 C1.50592249,1.27870794 1.47356173,1.27523091 1.44216696,1.30329896 L0.815479095,1.86368779 C0.784084327,1.89175584 0.765488964,1.94094836 0.773941402,1.973779 L1.03910644,2.98107406 C1.04755888,3.0139047 1.07991964,3.01738173 1.11131441,2.98931368 L1.68608016,2.47519479 Z M2.01693271,1.60032105 L1.68487267,1.60696774 L1.78581892,2.00484132 L1.64140299,1.98612907 C1.57764746,1.9777832 1.49626256,2.05045404 1.45979633,2.14842324 C1.42613519,2.23885635 1.44247705,2.31914064 1.49533581,2.33752122 L1.51084863,2.34098944 L1.82590762,2.37902849 C1.86309835,2.38336193 1.89014615,2.40942725 1.90101357,2.45147857 L1.909949,2.48682326 L2.26567587,2.16876489 L2.14879073,1.70969985 C2.13269085,1.64698807 2.0927393,1.6083319 2.03809511,1.60141296 L2.01693271,1.60032105 Z M0.654399786,1.8296975 C0.530269704,1.75747294 0.530269704,1.52412337 0.654399786,1.30968524 L0.707287895,1.34045796 C0.612379097,1.50462894 0.612379097,1.68326976 0.707287895,1.73849204 L0.654399786,1.8296975 Z M0.455888254,2.17307802 C0.222359481,2.03720029 0.222359481,1.59785553 0.455888254,1.19390302 L0.508776363,1.22467575 C0.304227375,1.57849971 0.304227375,1.96285659 0.508776363,2.08159343 L0.455888254,2.17307802 Z M0.257376722,2.51645853 C-0.0857922406,2.31706626 -0.0857922406,1.67200542 0.257376722,1.07839993 L0.310264831,1.10917266 C-0.00368284777,1.65223186 -0.00368284777,2.24258395 0.310264831,2.42525307 L0.257376722,2.51645853 Z M1.73872677,1.20733154 L1.68583866,1.17655882 C1.78074746,1.01238785 1.78074746,0.833747026 1.68583866,0.778524745 L1.73872677,0.687040156 C1.86285685,0.759264716 1.86285685,0.992614286 1.73872677,1.20733154 Z M1.9372383,1.32283463 L1.88435019,1.29206191 C1.98336446,1.12078939 2.03794305,0.937339354 2.03794305,0.775446111 C2.03794305,0.613552869 1.98336446,0.492755261 1.88435019,0.435144231 L1.9372383,0.343659641 C2.05025946,0.409420524 2.1128075,0.5474158 2.1128075,0.732476524 C2.1128075,0.917537248 2.05050096,1.12719471 1.9372383,1.32283463 Z M2.13574983,1.43833772 L2.08286172,1.407565 C2.3968094,0.864505793 2.3968094,0.27415371 2.08286172,0.0914845897 L2.13574983,0 C2.47891879,0.199950527 2.47891879,0.845011361 2.13574983,1.43833772 Z" id="形状" fill="#FFFFFF"></path>
                                            <g id="按钮" transform="translate(0.000000, 8.961574)">
                                                <path d="M1.19656328,0.162307898 C0.536059011,0.541414365 0,1.46445473 0,2.22266766 C0,2.98088059 0.536059011,3.28855711 1.19656092,2.909452 C1.85706519,2.53034553 2.39312655,1.60730382 2.39312655,0.849096287 C2.39312655,0.0908833541 1.85706519,-0.216797217 1.19656328,0.162307898 Z M1.19656328,2.63748437 C0.66528872,2.94241748 0.234525376,2.69792177 0.234525376,2.08805555 C0.234525376,1.47818933 0.665291074,0.736461171 1.19656328,0.431529412 C1.72783783,0.126596302 2.15859882,0.373838122 2.15859882,0.983704342 C2.15626379,1.580036 1.74848041,2.29664561 1.23524868,2.61440813 L1.19656328,2.63748437 Z" id="形状" fill="#CCCFD8"></path>
                                                <path d="M0.552812841,1.9081145 C0.552812841,2.32534773 0.847458084,2.49446385 1.2109237,2.28584723 C1.56266234,2.08396149 1.84995123,1.60230491 1.86811998,1.19329605 L1.86903221,1.15265038 C1.86903221,0.735419843 1.57438697,0.566303725 1.2109237,0.774918992 C0.847460438,0.983534259 0.552812841,1.49088396 0.552812841,1.9081145 Z" id="路径" fill="#DA4648"></path>
                                            </g>
                                        </g>
                                        <g id="LOGO" transform="translate(7.898633, 6.812194)" fill="#C92128" fill-rule="nonzero">
                                            <path d="M1.30220826,2.10546973 C1.30626665,2.11089506 1.30460163,2.11768878 1.30302636,2.12162306 L1.30145739,2.12485141 L0.829249122,2.88620391 L0.821593598,2.903198 L0.821593598,2.903198 L0.818410816,2.91959737 L0.818410816,3.33223903 C0.818393104,3.33814082 0.815303544,3.34499812 0.810707465,3.35032864 L0.802879133,3.35686903 L0.50101938,3.52414409 C0.495300773,3.52731304 0.490304006,3.52689364 0.487608229,3.5236399 L0.485487699,3.5167278 L0.485487699,3.10408613 L0.482261021,3.09123307 L0.482261021,3.09123307 L0.47456875,3.08274942 L0.00469910874,2.84344776 C0.000235564881,2.83853777 -0.000800686944,2.83545564 0.000554101434,2.83111923 L0.00393210521,2.82490721 L0.00393210521,2.82490721 L0.00903765721,2.82027837 L0.255980096,2.68296976 L0.270155634,2.67844271 L0.270155634,2.67844271 L0.282430726,2.67967648 L0.643417316,2.85292734 C0.64570973,2.85387375 0.648611385,2.8536957 0.651723456,2.85241764 L0.657685346,2.84826095 L0.657685346,2.84826095 L0.662819822,2.84217548 L1.02375803,2.26887124 L1.03603804,2.25404249 L1.03603804,2.25404249 L1.05020866,2.24284939 L1.26605548,2.12323824 L1.29710271,2.10649936 L1.30220826,2.10546973 Z M2.05703507,2.04420762 L2.05818461,2.04546766 L2.05730839,2.04952964 L2.03911581,2.09811916 L2.00613619,2.17073666 L2.00613619,2.17073666 L1.96669529,2.24225211 L1.9459419,2.27865891 C1.84040555,2.46966471 1.81698773,2.61141552 1.86339701,2.76945055 C1.8147606,2.78977399 1.76735594,2.80196102 1.72275056,2.80560868 C1.70834508,2.76141099 1.69512932,2.70439627 1.7106924,2.64387352 C1.73085365,2.56483011 1.73021055,2.51635645 1.70834508,2.49151892 C1.69417673,2.47561042 1.67256549,2.47064647 1.64267706,2.47657858 L1.60999868,2.48614091 L1.57909549,2.49620728 C1.5451301,2.50583318 1.5124832,2.5102542 1.48195635,2.50938667 L1.43785631,2.50410851 L1.43152159,2.50267617 L1.43281652,2.46126498 L1.43969145,2.40189891 L1.43969145,2.40189891 L1.45242257,2.34034116 L1.48075181,2.34786812 C1.56647869,2.36566878 1.6704556,2.34366016 1.77763933,2.28443708 C1.85555667,2.24158508 1.932162,2.18047396 2.00133701,2.10637168 L2.05172947,2.04844144 L2.0542342,2.0457603 L2.05703507,2.04420762 Z M1.62517969,2.5720476 L1.63729836,2.57573865 C1.64104122,2.57998061 1.64524711,2.59252186 1.63844103,2.62984391 L1.63109243,2.66273938 L1.62522947,2.69207463 C1.61893095,2.73061926 1.61871424,2.76674314 1.62466141,2.79871146 C1.53348937,2.77644129 1.46962537,2.70865739 1.44396578,2.60692496 C1.4911043,2.60799465 1.54232233,2.59847162 1.59549672,2.57875062 L1.61100923,2.57306864 L1.61100923,2.57306864 L1.62517969,2.5720476 Z M2.25715238,1.6543316 C2.29379537,1.66697652 2.32559267,1.68763516 2.3515437,1.71565747 C2.33511705,1.75457944 2.32177427,1.79343844 2.3117058,1.83160784 L2.29908264,1.88826641 L2.28905346,1.9563438 C2.28031186,2.00515745 2.26441886,2.05617748 2.24197517,2.10725454 L2.21356083,2.1626834 L2.21356083,2.1626834 L2.18113771,2.21691612 L2.1452809,2.277129 C2.12812165,2.30731318 2.11287241,2.33735488 2.10293648,2.3660883 C2.06737591,2.46294477 2.06626009,2.55289031 2.09988175,2.6123293 C2.0516768,2.65711622 2.00103565,2.69539148 1.9497817,2.72577696 C1.90490523,2.59140852 1.91548251,2.48056009 1.99134717,2.33142474 L2.02788646,2.2649853 L2.05041312,2.22534456 C2.13088642,2.07879744 2.15623747,1.97495567 2.16310808,1.91263287 L2.165028,1.88846161 L2.16565502,1.8811479 L2.18728023,1.83926259 L2.20292025,1.80653168 L2.20292025,1.80653168 L2.21721574,1.77365807 L2.23265659,1.73365597 C2.24225122,1.70703276 2.25043701,1.68052995 2.25715238,1.6543316 Z M2.39818468,1.78783641 L2.40725137,1.81125686 C2.47354254,2.0030939 2.37840822,2.30348643 2.17486746,2.53499947 C2.15124969,2.4922075 2.15266686,2.42765124 2.17874215,2.35849727 L2.20699966,2.29957826 L2.20699966,2.29957826 L2.24128384,2.24223536 L2.26771708,2.19887227 C2.28460181,2.16969056 2.29998752,2.14000692 2.3137293,2.1100857 C2.33578399,2.05972729 2.35255953,2.00942087 2.36365785,1.96058238 L2.37599766,1.88860257 L2.38049938,1.85854154 C2.38456776,1.83546791 2.39048791,1.81179938 2.39818468,1.78783641 Z M2.18491593,1.64025683 C2.15105038,1.81013962 2.04096506,1.99175847 1.89678502,2.11561543 C1.77062749,2.22399027 1.63545463,2.27346145 1.53124572,2.25200057 L1.48859707,2.2384252 C1.50409627,2.18875813 1.52731658,2.140465 1.55448288,2.09332427 C1.63412006,2.12346283 1.74536314,2.08823483 1.84846096,2.00022851 C1.92761354,1.93298576 1.99442109,1.84090968 2.03401201,1.74449673 C2.04646333,1.71406313 2.05601763,1.68372312 2.0624532,1.65418073 C2.10543628,1.64258783 2.14662743,1.63790443 2.18491593,1.64025683 Z M3.60036167,0.837714806 L3.60250725,0.844703717 L3.60250725,0.970060262 L3.60127386,0.977044991 L3.59558789,0.987322249 L3.59558789,0.987322249 L3.58681428,0.994962656 L3.2661649,1.17264996 L3.2661649,1.97585363 C3.26612944,1.98222648 3.2627848,1.98962341 3.25782189,1.99536335 L3.2493752,2.00239538 L2.94751545,2.16967044 C2.94135702,2.17308313 2.93597138,2.1726418 2.93304946,2.16915349 L2.93072575,2.16173665 L2.93072575,1.35853298 L2.61007637,1.53622027 C2.6042949,1.53941796 2.59924024,1.53899456 2.59651285,1.53570615 L2.59436728,1.52871927 L2.59436728,1.40336273 C2.59436728,1.39739832 2.59749479,1.39045061 2.60214933,1.38505761 L2.61007637,1.37845139 L3.58679815,0.837202715 C3.59257962,0.833998919 3.59763428,0.834424353 3.60036167,0.837714806 Z M1.98460569,1.68192772 C1.9657041,1.76259908 1.91664977,1.84716482 1.85150213,1.91138759 C1.79938402,1.9627658 1.74156907,1.99658698 1.68892353,2.00745242 L1.65057842,2.01121295 L1.63020672,2.00933995 L1.61125273,2.0045929 C1.71522934,1.85754344 1.85006542,1.7410132 1.98460569,1.68192772 Z M4.23445239,0.480926243 L4.23954809,0.484417488 L4.58745452,1.21521097 L4.59305109,1.23041229 C4.59379316,1.23564481 4.5923695,1.24215329 4.58908349,1.24855088 L4.58314801,1.25799815 L4.58314801,1.25799815 L4.57545497,1.26578687 L4.55695566,1.27770211 L4.32594811,1.40571454 L4.30735203,1.41545381 C4.30429232,1.4168177 4.3013688,1.41729098 4.29886847,1.4168272 L4.29357785,1.41579468 L4.29357785,1.41579468 L4.29011073,1.41199652 L4.08413096,0.980059233 L4.07781892,0.968318853 L4.07328008,0.962441134 C4.06926658,0.958416538 4.06265933,0.958116101 4.05540977,0.961628561 L4.04395713,0.969357619 L4.04395713,0.969357619 L4.03444281,0.981350448 L4.02613667,1.00309123 L3.95546188,1.22759487 L3.9547361,1.22827992 L3.91280712,1.35884382 L3.86272079,1.51716886 L3.84021642,1.59078539 L3.83269224,1.61778745 L3.8193379,1.66029555 L3.81127368,1.6820021 L3.80909234,1.68584028 L3.80643515,1.68942541 L3.80291842,1.6934153 L3.7990322,1.69668911 L3.78053289,1.70797208 L3.54192885,1.8401941 C3.53574325,1.84349698 3.5295935,1.84602804 3.52360695,1.84773485 C3.51951254,1.84845347 3.51604573,1.84744303 3.5137686,1.84486737 C3.51136761,1.84227521 3.51014434,1.83838567 3.51023491,1.83369142 L3.51158456,1.82354532 L3.51158456,1.82354532 L3.51413956,1.81299821 L3.8631266,0.693010808 L3.86827058,0.683845537 L3.86827058,0.683845537 L3.87585193,0.677024066 L4.2269034,0.482489499 L4.23445239,0.480926243 Z M5.1,0.00216307256 L5.1,0.973376321 C5.1,0.975308514 5.0985867,0.977658036 5.09684332,0.97862413 L4.76779817,1.16096393 C4.76605478,1.16193003 4.76464149,1.16114685 4.76464149,1.15921466 L4.76464149,0.188001409 C4.76464149,0.186069219 4.76605478,0.183719696 4.76779817,0.182753601 L5.09684332,0.000413803295 C5.0985867,-0.000552291446 5.1,0.000230883083 5.1,0.00216307256 Z" id="形状结合"></path>
                                        </g>
                                        <g id="LOGO备份-18" transform="translate(8.460980, 43.073106)" fill="#C92128" fill-rule="nonzero">
                                            <g id="组_4">
                                                <path d="M0.836865316,1.45727888 C1.07268213,1.46481953 1.35557219,1.32158061 1.60445644,1.0686158 C1.85334069,0.815650992 2.04074353,0.480886361 2.11295346,0.160268731 C1.59896776,0.389603257 1.08385194,0.847843443 0.686628908,1.42910808 C0.721380429,1.44182642 0.758386925,1.45031603 0.797312495,1.45451391 L0.836865316,1.45727888 Z" id="路径_10"></path>
                                                <path d="M0.205639002,2.34995271 L0.218046097,2.35535491 C0.63084127,2.55142937 1.22663856,2.37154302 1.77745119,1.88453087 C2.32826383,1.39751872 2.74882404,0.678771996 2.87820097,0.00332508763 C2.73192698,-0.00779180741 2.57456395,0.00899705767 2.41035522,0.0532389673 C2.38576931,0.170673405 2.34926891,0.291144474 2.301701,0.411856651 C2.15045135,0.794263448 1.89522572,1.15814902 1.59283821,1.42251121 C1.19897242,1.7685271 0.773989233,1.90384906 0.469750431,1.78012168 C0.365966716,1.9667426 0.277257888,2.15813546 0.205639002,2.34995271 Z" id="路径_11"></path>
                                                <path d="M3.00159629,0.536403086 C2.94959962,0.666964912 2.8896809,0.79705373 2.82249189,0.925254498 C2.8153578,0.937333416 2.80933803,0.949846226 2.8046183,0.962406867 L2.80247687,0.977405233 L2.80247687,0.977405233 L2.80073969,1.01899104 L2.7957281,1.0796418 L2.78707539,1.15106644 C2.78530666,1.16366382 2.78336562,1.17660803 2.78123877,1.18989937 L2.76613977,1.2738153 C2.76029146,1.30317737 2.75359183,1.33393031 2.7459328,1.36607649 L2.71996947,1.4666971 C2.65216833,1.71124222 2.53206197,2.02417173 2.32258523,2.40629596 L2.2782995,2.48574085 C1.86475014,3.2155895 1.78398118,3.70416413 1.97991501,4.31845521 C2.17572105,4.19970075 2.369186,4.04947732 2.55334392,3.87319388 C2.42489871,3.63479756 2.42916148,3.27641258 2.56501396,2.89205493 C2.61421921,2.74421058 2.69753374,2.58801175 2.78663636,2.43324096 L2.86376698,2.30115817 C2.9512198,2.16014141 3.02915192,2.01453768 3.09618503,1.86692209 C3.20336239,1.61376933 3.27143712,1.36050578 3.29592698,1.12380711 L3.31435336,0.996846631 C3.35301415,0.774206389 3.42063855,0.54291871 3.51477094,0.311382205 C3.41562992,0.198531421 3.29415434,0.114758972 3.1541667,0.062700958 C3.12338095,0.187615695 3.08450599,0.314181193 3.03794852,0.44113482 L3.00159629,0.536403086 Z" id="路径_12"></path>
                                                <path d="M3.69295402,0.601140141 C3.66354994,0.696283031 3.64093311,0.790333428 3.62539063,0.882097409 L3.60819268,1.00168666 L3.60819268,1.00168666 C3.57769751,1.28236727 3.4966918,1.58195573 3.37030813,1.8814699 C3.29156135,2.05938728 3.19868379,2.23500612 3.09354392,2.40479338 C2.99901416,2.55301937 2.91844664,2.70828828 2.85461521,2.86525436 C2.7549995,3.13964839 2.74958543,3.39684258 2.83981268,3.56844476 C3.63391916,2.63572066 3.99609799,1.41157921 3.71061616,0.646557489 L3.69295402,0.601140141 Z" id="路径_13"></path>
                                                <path d="M0.762422746,4.05274494 C0.777977681,3.98973941 0.788354035,3.93791947 0.794889642,3.89529669 L0.801979719,3.83801181 L0.801979719,3.83801181 L0.804312047,3.79303134 C0.804360033,3.7864771 0.804251586,3.78037342 0.80400761,3.77468921 L0.801084642,3.74536908 C0.798977215,3.73297731 0.796026295,3.72380157 0.79279628,3.71700298 L0.786131353,3.7063268 C0.74465733,3.68166696 0.68735837,3.68529099 0.626436071,3.71642718 C0.42329335,3.79259598 0.227624519,3.82821462 0.047540673,3.82180659 C0.145568306,4.22838125 0.38954869,4.50140862 0.737854241,4.59430516 C0.712609782,4.45245475 0.716436803,4.29050618 0.748905321,4.1179375 L0.762422746,4.05274494 Z" id="路径_14"></path>
                                                <path d="M0.0242005933,3.41180184 C0.200530688,3.45418234 0.402647835,3.43999134 0.617134412,3.37052986 L0.68183805,3.3480346 C0.862662246,3.28010131 0.985381929,3.28855439 1.05755191,3.37394191 C1.14108483,3.47391535 1.14354168,3.66711363 1.06651942,3.98118653 C1.00706363,4.22166325 1.05755191,4.44947013 1.11258536,4.62625486 C1.28299177,4.61374883 1.46409234,4.5673405 1.64989857,4.48856447 C1.46824738,3.84116284 1.56661815,3.26521596 1.9955125,2.48043508 L2.04453018,2.39236356 C2.18896743,2.14374915 2.30602207,1.88544896 2.39070041,1.62848238 C2.39549127,1.61354222 2.39518416,1.60743688 2.38965625,1.60726155 C2.38490038,1.60874648 2.37997736,1.61198002 2.37555702,1.61641258 L2.36938723,1.62389197 C2.0586171,2.02003101 1.69436318,2.34284237 1.32227755,2.55186799 C0.89005367,2.79583629 0.471479958,2.87473084 0.134146285,2.77719547 L0.0798482571,2.75984681 C0.0343373806,2.94898959 0.00807207667,3.13262448 0.00158996657,3.30648832 L0,3.40580562 L0.0242005933,3.41180184 Z" id="路径_15"></path>
                                            </g>
                                        </g>
                                        <g id="闪电" transform="translate(11.099491, 55.117570) scale(-1, 1) rotate(-4.000000) translate(-11.099491, -55.117570) translate(9.140757, 51.875360)">
                                            <polygon id="三角形" fill="#FBC70E" points="1.95873375 0 3.9174675 6.48442005 0 3.60245558"></polygon>
                                            <path d="M1.95873375,0 L3.9174675,6.48442005 L0,3.60245558 L1.95873375,0 Z M1.90780667,0.512269184 L0.262470322,3.5361704 L3.55118428,5.95485908 L1.90780667,0.512269184 Z" id="三角形备份-2" fill="#04010F" fill-rule="nonzero"></path>
                                            <g id="lightning-b-闪电" transform="translate(0.979367, 0.960655)" fill-rule="nonzero">
                                                <polygon id="矩形" fill="#000000" opacity="0" points="-1.44136295e-12 5.91164346e-13 1.95873375 1.44098223 1.95873375 4.3229467 -1.44033782e-12 2.88196447"></polygon>
                                                <path d="M0.831884169,3.3200681 L0.825636641,3.31411578 L0.825636641,3.31411578 L0.821172344,3.30691913 C0.80867107,3.29239251 0.802203806,3.27848331 0.801756832,3.26504131 L0.91402474,2.37168226 L0.431925658,2.01701629 C0.420027881,2.00826345 0.411691786,1.99511448 0.406921198,1.97759473 C0.399790183,1.95844824 0.400978047,1.94356419 0.410502008,1.9329468 L1.15328101,1.05023401 C1.16280305,1.03621258 1.17351488,1.04070439 1.18541648,1.06336046 C1.19731426,1.07560881 1.20327271,1.09411501 1.20327271,1.11853009 L1.09256409,1.99861984 L1.51752515,2.31125107 C1.52942292,2.32000391 1.53775902,2.33324575 1.54252769,2.35065152 C1.54490534,2.36641367 1.54490534,2.3821716 1.54252769,2.39795345 L0.85688863,3.32270239 C0.849742312,3.32793721 0.841406217,3.32707319 0.831884169,3.3200681 Z" id="路径" fill="#231815"></path>
                                            </g>
                                        </g>
                                    </g>
                                    <g id="侧视图" transform="translate(0.000000, 12.018750)">
                                        <g id="矩形备份-80">
                                            <use fill="#CCCCCD" xlink:href="#path-5"></use>
                                            <use fill="#BCBEC0" xlink:href="#path-5"></use>
                                        </g>
                                        <path d="M5.02430535,43.6923221 L5.05545357,43.6940805 C5.12184677,43.7007776 5.19441272,43.7262977 5.27065953,43.7711242 C5.59907399,43.9642034 5.864894,44.433898 5.864894,44.8199268 C5.864894,44.9961233 5.80918944,45.1247328 5.70941688,45.1833904 C5.66156916,45.2115207 5.60433193,45.2225663 5.54098718,45.2161767 C5.47459398,45.2094796 5.40202802,45.1839595 5.32578122,45.139133 C4.99736676,44.9460538 4.73154675,44.4763592 4.73154675,44.0903304 C4.73154675,43.9141339 4.78725131,43.7855244 4.88702387,43.7268668 C4.93487158,43.6987365 4.99210881,43.6876909 5.05545357,43.6940805 L5.02430535,43.6923221 Z" id="椭圆形备份-171" stroke="#86878D" stroke-width="0.5" fill="#6C727C" fill-rule="nonzero"></path>
                                        <g id="通风口" transform="translate(2.115245, 4.836539)">
                                            <g id="编组">
                                                <g>
                                                    <mask id="mask-7" fill="white">
                                                        <use xlink:href="#path-6"></use>
                                                    </mask>
                                                    <g id="Clip-1297"></g>
                                                    <polygon id="Fill-1296" fill="url(#linearGradient-8)" mask="url(#mask-7)" points="0 0.982985197 5.07658804 3.87920072 5.07658804 2.89621552 0 0"></polygon>
                                                </g>
                                                <g transform="translate(0.000000, 1.939039)">
                                                    <mask id="mask-10" fill="white">
                                                        <use xlink:href="#path-9"></use>
                                                    </mask>
                                                    <g id="Clip-1299"></g>
                                                    <polygon id="Fill-1298" fill="url(#linearGradient-11)" mask="url(#mask-10)" points="0 0.982985197 5.07658804 3.87920072 5.07658804 2.89621552 0 0"></polygon>
                                                </g>
                                                <g transform="translate(0.000000, 3.879201)">
                                                    <mask id="mask-13" fill="white">
                                                        <use xlink:href="#path-12"></use>
                                                    </mask>
                                                    <g id="Clip-1301"></g>
                                                    <polygon id="Fill-1300" fill="url(#linearGradient-14)" mask="url(#mask-13)" points="0 0.982985197 5.07658804 3.87807859 5.07658804 2.89509339 0 0"></polygon>
                                                </g>
                                                <g transform="translate(0.000000, 5.818240)">
                                                    <mask id="mask-16" fill="white">
                                                        <use xlink:href="#path-15"></use>
                                                    </mask>
                                                    <g id="Clip-1303"></g>
                                                    <polygon id="Fill-1302" fill="url(#linearGradient-17)" mask="url(#mask-16)" points="0 0.982985197 5.07658804 3.87807859 5.07658804 2.89509339 0 0"></polygon>
                                                </g>
                                                <g transform="translate(0.000000, 7.757279)">
                                                    <mask id="mask-19" fill="white">
                                                        <use xlink:href="#path-18"></use>
                                                    </mask>
                                                    <g id="Clip-1305"></g>
                                                    <polygon id="Fill-1304" fill="url(#linearGradient-20)" mask="url(#mask-19)" points="0 0.982985197 5.07658804 3.87920072 5.07658804 2.89621552 0 0"></polygon>
                                                </g>
                                                <g transform="translate(0.000000, 9.696319)">
                                                    <mask id="mask-22" fill="white">
                                                        <use xlink:href="#path-21"></use>
                                                    </mask>
                                                    <g id="Clip-1307"></g>
                                                    <polygon id="Fill-1306" fill="url(#linearGradient-23)" mask="url(#mask-22)" points="0 0.982985197 5.07658804 3.87920072 5.07658804 2.89621552 0 0"></polygon>
                                                </g>
                                                <g transform="translate(0.000000, 11.636480)">
                                                    <mask id="mask-25" fill="white">
                                                        <use xlink:href="#path-24"></use>
                                                    </mask>
                                                    <g id="Clip-1309"></g>
                                                    <polygon id="Fill-1308" fill="url(#linearGradient-26)" mask="url(#mask-25)" points="0 0.982985197 5.07658804 3.87807859 5.07658804 2.89509339 0 0"></polygon>
                                                </g>
                                                <g transform="translate(0.000000, 13.575519)">
                                                    <mask id="mask-28" fill="white">
                                                        <use xlink:href="#path-27"></use>
                                                    </mask>
                                                    <g id="Clip-1311"></g>
                                                    <polygon id="Fill-1310" fill="url(#linearGradient-29)" mask="url(#mask-28)" points="0 0.982985197 5.07658804 3.87807859 5.07658804 2.89509339 0 0"></polygon>
                                                </g>
                                            </g>
                                            <g id="编组备份-6" transform="translate(0.000000, 15.561039)">
                                                <g id="编组">
                                                    <mask id="mask-31" fill="white">
                                                        <use xlink:href="#path-30"></use>
                                                    </mask>
                                                    <g id="Clip-1297"></g>
                                                    <polygon id="Fill-1296" fill="url(#linearGradient-8)" mask="url(#mask-31)" points="0 0.982985197 5.07658804 3.87920072 5.07658804 2.89621552 0 0"></polygon>
                                                </g>
                                                <g id="编组" transform="translate(0.000000, 1.939039)">
                                                    <mask id="mask-33" fill="white">
                                                        <use xlink:href="#path-32"></use>
                                                    </mask>
                                                    <g id="Clip-1299"></g>
                                                    <polygon id="Fill-1298" fill="url(#linearGradient-11)" mask="url(#mask-33)" points="0 0.982985197 5.07658804 3.87920072 5.07658804 2.89621552 0 0"></polygon>
                                                </g>
                                                <g id="编组" transform="translate(0.000000, 3.879201)">
                                                    <mask id="mask-35" fill="white">
                                                        <use xlink:href="#path-34"></use>
                                                    </mask>
                                                    <g id="Clip-1301"></g>
                                                </g>
                                                <g id="编组" transform="translate(0.000000, 5.818240)">
                                                    <mask id="mask-37" fill="white">
                                                        <use xlink:href="#path-36"></use>
                                                    </mask>
                                                    <g id="Clip-1303"></g>
                                                </g>
                                                <g id="编组" transform="translate(0.000000, 7.757279)">
                                                    <mask id="mask-39" fill="white">
                                                        <use xlink:href="#path-38"></use>
                                                    </mask>
                                                    <g id="Clip-1305"></g>
                                                </g>
                                                <g id="编组" transform="translate(0.000000, 9.696319)">
                                                    <mask id="mask-41" fill="white">
                                                        <use xlink:href="#path-40"></use>
                                                    </mask>
                                                    <g id="Clip-1307"></g>
                                                </g>
                                                <g id="编组" transform="translate(0.000000, 11.636480)">
                                                    <mask id="mask-43" fill="white">
                                                        <use xlink:href="#path-42"></use>
                                                    </mask>
                                                    <g id="Clip-1309"></g>
                                                </g>
                                                <g id="编组" transform="translate(0.000000, 13.575519)">
                                                    <mask id="mask-45" fill="white">
                                                        <use xlink:href="#path-44"></use>
                                                    </mask>
                                                    <g id="Clip-1311"></g>
                                                </g>
                                            </g>
                                        </g>
                                        <g id="左边枪把" transform="translate(2.611645, 25.937680)" fill-rule="nonzero">
                                            <polygon id="矩形备份-262" fill="#CCCFD1" points="0.117750795 0.828594986 1.62320238 0 1.62320238 4.67712207 0.117750795 5.60697995"></polygon>
                                            <polygon id="矩形" fill="#DBDDDF" transform="translate(3.211293, 1.659787) scale(-1, 1) translate(-3.211293, -1.659787) " points="0.117750568 2.49097875 4.79938421 0 6.3048358 0.828594986 1.62320216 3.31957374"></polygon>
                                            <g id="编组-106" transform="translate(0.000000, 0.680300)">
                                                <g id="枪芯" transform="translate(2.705535, 4.882842) scale(-1, 1) translate(-2.705535, -4.882842) translate(1.411584, 3.329210)">
                                                    <path d="M1.60779931,2.89036529 C1.01738304,3.26343733 0.413927489,3.14121783 0.145725022,2.63140515 C0.442817273,2.78926193 0.840814424,2.75368517 1.22529379,2.50985118 C1.92217759,2.0719786 2.34290376,1.11721428 2.16478,0.377846731 C2.14085471,0.277227399 2.11058922,0.183929137 2.05986761,0.0977099257 C2.29583076,0.205771337 2.47323676,0.435447213 2.54710609,0.758360848 C2.72505042,1.49809143 2.30432423,2.45279524 1.60779931,2.89036529" id="Fill-31" fill="#86878D"></path>
                                                    <path d="M0.145748947,2.63141118 C0.102743243,2.55215001 0.0654197954,2.45891227 0.0407767498,2.35127438 C-0.13710776,1.61184633 0.2835586,0.65714252 0.980262959,0.219209433 C1.37114234,-0.0315825881 1.76279929,-0.0602013157 2.05983173,0.0977159762 C2.11061315,0.183935187 2.14087864,0.27723345 2.16480392,0.377852782 C2.34286787,1.11722033 1.9221417,2.07192414 1.22531771,2.50985724 C0.84083835,2.75369121 0.442781386,2.78926799 0.145748947,2.63141118 Z" id="Fill-33" fill="#5B5B5B"></path>
                                                    <path d="M1.29178814,1.96767453 C1.28066288,1.91896824 1.25386656,1.88429904 1.2182777,1.86802327 C1.1734776,1.84418442 1.11444195,1.84854075 1.05546612,1.8863562 C0.950374296,1.95242734 0.886912471,2.09642855 0.913768605,2.20793873 C0.917477026,2.22415399 0.923099467,2.2382516 0.929559295,2.25017101 C0.970052843,2.32713301 1.06102875,2.34558695 1.15009063,2.28925705 C1.25518245,2.22324643 1.31864428,2.07924521 1.29178814,1.96767453" id="Fill-37" fill="#86878D"></path>
                                                    <path d="M2.10948866,0.836006542 C2.0983634,0.787300251 2.07156708,0.752631053 2.03597822,0.736355286 C1.99117811,0.712516431 1.93214247,0.716872769 1.87316664,0.754688212 C1.76807481,0.820759357 1.70461299,0.964760565 1.73140931,1.07633125 C1.73517754,1.09248601 1.74079999,1.1065836 1.74725981,1.11856354 C1.78775336,1.19546502 1.87872927,1.21391896 1.96779115,1.15758907 C2.07288297,1.09157843 2.13634479,0.947577226 2.10948866,0.836006542" id="Fill-39" fill="#86878D"></path>
                                                    <path d="M0.52999504,1.41516367 C0.51886978,1.36645738 0.492073459,1.33178818 0.456484595,1.31551242 C0.411684494,1.29167356 0.352648847,1.2960299 0.293673016,1.33384534 C0.188581192,1.39991649 0.125119368,1.54391769 0.151975503,1.65542787 C0.155683922,1.67164314 0.161306365,1.68574073 0.167766192,1.69766016 C0.208259741,1.77462215 0.299235644,1.79307609 0.388297527,1.7367462 C0.493389349,1.67073557 0.556851174,1.52673436 0.52999504,1.41516367" id="Fill-41" fill="#86878D"></path>
                                                    <path d="M1.3563266,1.16732428 C1.34520135,1.11861799 1.31840502,1.08394879 1.28281616,1.06767302 C1.23801606,1.04383417 1.17898041,1.04819051 1.12000458,1.08600595 C1.01491276,1.15207709 0.951450932,1.2960783 0.978307069,1.40758848 C0.982015487,1.42380375 0.987637931,1.43790134 0.994097757,1.44982077 C1.03459131,1.52678276 1.12556721,1.5452367 1.21462909,1.48890681 C1.31972091,1.42289617 1.38318274,1.27889497 1.3563266,1.16732428" id="Fill-43" fill="#86878D"></path>
                                                    <path d="M1.29190777,0.36691353 C1.28078251,0.318207239 1.25398619,0.283538039 1.21839732,0.267262272 C1.17359722,0.243423419 1.11456158,0.247779757 1.05558575,0.2855952 C0.950493921,0.351666342 0.887032098,0.495667551 0.913888232,0.60717773 C0.917596651,0.623392994 0.923219094,0.63749059 0.929678922,0.649410019 C0.97017247,0.726372008 1.06114838,0.744825944 1.15021026,0.68849606 C1.25530208,0.622485423 1.3187639,0.478484214 1.29190777,0.36691353" id="Fill-35" fill="#86878D"></path>
                                                </g>
                                                <polygon id="路径-34" fill="#92979C" points="4.5983462 7.56840433 4.72634406 7.54126375 4.79938443 7.39399221 4.6504019 7.39399221"></polygon>
                                                <path d="M0.486845941,0.0491844109 L4.40664408,2.12432898 C4.62354859,2.23915843 4.79938443,2.51842139 4.79938443,2.74808027 L4.79938443,7.41765885 C4.79938443,7.53248828 4.71146651,7.5790321 4.60301426,7.52161739 L4.0151713,7.21041282 L4.0151713,3.8150495 C4.0151713,3.58539062 3.83933545,3.30612766 3.62243092,3.19129821 L3.62243092,3.19129821 L1.27105909,1.9464799 C1.05415457,1.83165046 0.878318719,1.92473811 0.878318719,2.15439699 L0.878318719,2.15439699 L0.878318719,5.54976031 L2.44674501,6.38009827 L0.29047576,5.23855573 C0.182023503,5.18114102 0.0941055771,5.04150953 0.0941055771,4.92668008 L0.0941055771,0.257101505 C0.0941055771,0.0274426244 0.269941427,-0.0656450293 0.486845941,0.0491844109 Z" id="形状结合备份-56" fill="#82878D"></path>
                                                <path d="M0.392740364,0.071379145 L4.3125385,2.14652372 C4.52944301,2.26135317 4.70527886,2.54061612 4.70527886,2.770275 L4.70527886,7.43985359 C4.70527886,7.50535433 4.67667243,7.54863657 4.63196603,7.56307935 C4.59829757,7.57395621 4.55549783,7.56840434 4.50890868,7.54381212 L3.92106572,7.23260755 L3.92106572,3.83724423 C3.92106572,3.60758535 3.74522987,3.32832239 3.52832534,3.21349294 L3.52832534,3.21349294 L1.17695351,1.96867463 C0.960048994,1.85384519 0.784213142,1.94693285 0.784213142,2.17659173 L0.784213142,2.17659173 L0.784213142,5.57195504 L2.35263943,6.402293 L0.196370182,5.26075047 C0.0879179254,5.20333575 0,5.06370426 0,4.94887481 L0,0.279296239 C0,0.0496373585 0.17583585,-0.0434502951 0.392740364,0.071379145 Z" id="形状结合备份-57" fill="#979B9E"></path>
                                                <g id="右" transform="translate(4.799384, 1.810679)" fill="#C8CBCC">
                                                    <polygon id="矩形" points="2.40779284e-17 0.828594986 1.72972806 7.39860763e-17 1.72972806 4.67712207 9.83415856e-13 5.60697995"></polygon>
                                                </g>
                                                <polygon id="路径-33" fill="#92979C" points="0.784213142 5.57195504 0.878318719 5.54976031 0.878318719 5.29983672 0.784213142 5.29983672"></polygon>
                                            </g>
                                        </g>
                                        <polygon id="矩形备份-79" fill="#1E1E1E" points="3.4276987e-13 54.4277657 12.0601427 61.4126627 12.0601427 65.0182875 3.4276987e-13 58.0333906"></polygon>
                                    </g>
                                    <polygon id="矩形备份-82" fill="#F1F1F1" points="0 12.0187495 20.9398573 0 33 6.98489695 12.0601427 19.0036465"></polygon>
                                </g>
                            </g>
                        </g>
                    </g>
                </g>
            </g>
        </g>
    </g>
</svg>