<?xml version="1.0" encoding="UTF-8"?>
<svg width="80px" height="80px" viewBox="0 0 80 80" version="1.1" xmlns="http://www.w3.org/2000/svg" xmlns:xlink="http://www.w3.org/1999/xlink">
    <title>icon_永泰充电堆</title>
    <defs>
        <linearGradient x1="25.7154901%" y1="-43.3%" x2="58.2193726%" y2="93.2%" id="linearGradient-1">
            <stop stop-color="#FFFFFF" offset="0%"></stop>
            <stop stop-color="#B4B4B4" offset="100%"></stop>
        </linearGradient>
        <linearGradient x1="51.4147567%" y1="48.2816441%" x2="56.2909023%" y2="53.5327787%" id="linearGradient-2">
            <stop stop-color="#676767" offset="0%"></stop>
            <stop stop-color="#CDCDCD" offset="100%"></stop>
        </linearGradient>
        <linearGradient x1="54.2390154%" y1="50%" x2="51.7216134%" y2="52.714517%" id="linearGradient-3">
            <stop stop-color="#292929" offset="0%"></stop>
            <stop stop-color="#8E8E8E" offset="100%"></stop>
        </linearGradient>
        <linearGradient x1="54.2390154%" y1="50%" x2="51.7216134%" y2="52.4650445%" id="linearGradient-4">
            <stop stop-color="#292929" offset="0%"></stop>
            <stop stop-color="#8E8E8E" offset="100%"></stop>
        </linearGradient>
        <linearGradient x1="54.2390154%" y1="50%" x2="50%" y2="54.2275091%" id="linearGradient-5">
            <stop stop-color="#A2A2A2" offset="0%"></stop>
            <stop stop-color="#FFFFFF" offset="100%"></stop>
        </linearGradient>
    </defs>
    <g id="光储充及工商储管理系统V1.3" stroke="none" stroke-width="1" fill="none" fill-rule="evenodd">
        <g id="3_2_7.设备监视_示范站站点拓扑_用电设备能量流" transform="translate(-850.000000, -613.000000)">
            <g id="main" transform="translate(212.000000, 102.000000)">
                <g transform="translate(44.000000, 40.000000)" id="1">
                    <g transform="translate(180.000000, 398.000000)">
                        <g id="编组-2" transform="translate(397.000000, 73.000000)">
                            <g id="icon_永泰充电堆" transform="translate(17.000000, 0.000000)">
                                <rect id="BG" x="0" y="0" width="80" height="80"></rect>
                                <g id="480KV永泰充电主机" transform="translate(40.000000, 40.000000) scale(-1, 1) translate(-40.000000, -40.000000) translate(17.000000, 0.000000)" fill-rule="nonzero">
                                    <g id="侧视图备份-3" transform="translate(29.068174, 19.087941)">
                                        <polygon id="矩形备份-188" fill="url(#linearGradient-1)" points="0 8.42019631 14.608108 0 14.608108 50.1628717 0 58.583068"></polygon>
                                        <polygon id="矩形备份-152" fill="#82807F" points="0.275999198 8.45049684 0.431404603 8.5400734 0.431404603 58.7029451 0.275999198 58.6133686"></polygon>
                                        <polygon id="矩形备份-189" fill="url(#linearGradient-2)" points="6.24642199e-15 58.583068 14.608108 50.1628717 14.608108 50.8794841 0 59.2996804"></polygon>
                                        <polygon id="矩形备份-190" fill="#363A3C" points="0 59.2996804 14.608108 50.8794841 14.608108 52.4918621 0 60.9120585"></polygon>
                                    </g>
                                    <polygon id="矩形备份-191" fill="#363A3C" points="29.8378377 26.5146607 45.9999998 17.1986989 45.9999998 18.6319238 29.8378377 27.9478857"></polygon>
                                    <polygon id="顶视图" fill="#5A5E61" transform="translate(23.000000, 13.257330) scale(-1, 1) translate(-23.000000, -13.257330) " points="2.19773938e-07 17.1986989 29.837838 0 46 9.31596188 16.1621623 26.5146607"></polygon>
                                    <g id="正视图备份-4" transform="translate(0.000000, 9.315962)">
                                        <polygon id="矩形" fill="#4B4E50" points="0 0 29.8378377 17.1986989 29.8378377 18.6319238 0 1.43322491"></polygon>
                                        <polygon id="矩形备份-148" fill="#DEDEDE" points="0.777027025 1.88110769 29.0608107 18.184041 29.0608107 68.3469127 0.777027025 52.0439794"></polygon>
                                        <polygon id="矩形" fill="url(#linearGradient-3)" points="15.3851351 12.4511414 27.3513511 19.3485362 27.3513511 20.0651487 15.3851351 13.1677538"></polygon>
                                        <polygon id="矩形备份-153" fill="url(#linearGradient-3)" points="15.3851351 13.52606 27.3513511 20.4234549 27.3513511 21.1400673 15.3851351 14.2426725"></polygon>
                                        <polygon id="矩形备份-154" fill="url(#linearGradient-3)" points="15.3851351 14.6009787 27.3513511 21.4983736 27.3513511 22.214986 15.3851351 15.3175912"></polygon>
                                        <polygon id="矩形备份-155" fill="url(#linearGradient-3)" points="15.3851351 15.6758974 27.3513511 22.5732922 27.3513511 23.2899048 15.3851351 16.3925099"></polygon>
                                        <polygon id="矩形备份-156" fill="url(#linearGradient-3)" points="15.3851351 16.7508161 27.3513511 23.648211 27.3513511 24.3648234 15.3851351 17.4674285"></polygon>
                                        <polygon id="矩形备份-161" fill="url(#linearGradient-3)" points="15.3851351 17.8257347 27.3513511 24.7231296 27.3513511 25.4397419 15.3851351 18.5423472"></polygon>
                                        <polygon id="矩形备份-160" fill="url(#linearGradient-3)" points="15.3851351 18.9006534 27.3513511 25.7980484 27.3513511 26.5146607 15.3851351 19.6172659"></polygon>
                                        <polygon id="矩形备份-159" fill="url(#linearGradient-3)" points="15.3851351 19.9755721 27.3513511 26.8729669 27.3513511 27.5895793 15.3851351 20.6921846"></polygon>
                                        <polygon id="矩形备份-158" fill="url(#linearGradient-3)" points="15.3851351 21.0504908 27.3513511 27.9478857 27.3513511 28.6644981 15.3851351 21.7671032"></polygon>
                                        <polygon id="矩形备份-157" fill="url(#linearGradient-3)" points="15.3851351 22.1254095 27.3513511 29.0228043 27.3513511 29.7394167 15.3851351 22.8420219"></polygon>
                                        <polygon id="矩形备份-171" fill="url(#linearGradient-3)" points="15.3851351 23.2003281 27.3513511 30.0977231 27.3513511 30.8143355 15.3851351 23.9169407"></polygon>
                                        <polygon id="矩形备份-170" fill="url(#linearGradient-3)" points="15.3851351 24.2752469 27.3513511 31.1726417 27.3513511 31.889254 15.3851351 24.9918593"></polygon>
                                        <polygon id="矩形备份-169" fill="url(#linearGradient-3)" points="15.3851351 25.3501655 27.3513511 32.2475604 27.3513511 32.9641728 15.3851351 26.0667781"></polygon>
                                        <polygon id="矩形备份-168" fill="url(#linearGradient-3)" points="15.3851351 26.4250842 27.3513511 33.322479 27.3513511 34.0390914 15.3851351 27.1416966"></polygon>
                                        <polygon id="矩形备份-167" fill="url(#linearGradient-3)" points="15.3851351 27.5000028 27.3513511 34.3973978 27.3513511 35.1140102 15.3851351 28.2166152"></polygon>
                                        <polygon id="矩形备份-166" fill="url(#linearGradient-3)" points="15.3851351 28.5749216 27.3513511 35.4723164 27.3513511 36.1889288 15.3851351 29.291534"></polygon>
                                        <polygon id="矩形备份-165" fill="url(#linearGradient-3)" points="15.3851351 29.6498402 27.3513511 36.5472352 27.3513511 37.2638476 15.3851351 30.3664526"></polygon>
                                        <polygon id="矩形备份-164" fill="url(#linearGradient-3)" points="15.3851351 30.724759 27.3513511 37.6221537 27.3513511 38.3387661 15.3851351 31.4413714"></polygon>
                                        <polygon id="矩形备份-163" fill="url(#linearGradient-3)" points="15.3851351 31.7996775 27.3513511 38.6970723 27.3513511 39.4136849 15.3851351 32.5162899"></polygon>
                                        <polygon id="矩形备份-162" fill="url(#linearGradient-3)" points="15.3851351 32.8745963 27.3513511 39.7719911 27.3513511 40.4886035 15.3851351 33.5912087"></polygon>
                                        <polygon id="矩形备份-181" fill="url(#linearGradient-3)" points="15.3851351 33.9495149 27.3513511 40.8469097 27.3513511 41.5635223 15.3851351 34.6661273"></polygon>
                                        <polygon id="矩形备份-180" fill="url(#linearGradient-3)" points="15.3851351 35.0244337 27.3513511 41.9218285 27.3513511 42.6384409 15.3851351 35.7410461"></polygon>
                                        <polygon id="矩形备份-179" fill="url(#linearGradient-3)" points="15.3851351 36.0993523 27.3513511 42.996747 27.3513511 43.7133596 15.3851351 36.8159647"></polygon>
                                        <polygon id="矩形备份-178" fill="url(#linearGradient-3)" points="15.3851351 37.1742711 27.3513511 44.0716658 27.3513511 44.7882782 15.3851351 37.8908834"></polygon>
                                        <polygon id="矩形备份-177" fill="url(#linearGradient-3)" points="15.3851351 38.2491896 27.3513511 45.1465844 27.3513511 45.863197 15.3851351 38.965802"></polygon>
                                        <polygon id="矩形备份-176" fill="url(#linearGradient-3)" points="15.3851351 39.3241084 27.3513511 46.2215032 27.3513511 46.9381156 15.3851351 40.0407208"></polygon>
                                        <polygon id="矩形备份-175" fill="url(#linearGradient-3)" points="15.3851351 40.399027 27.3513511 47.2964218 27.3513511 48.0130344 15.3851351 41.1156394"></polygon>
                                        <polygon id="矩形备份-186" fill="url(#linearGradient-4)" points="15.3851351 41.4739456 27.3513511 48.3713406 27.3513511 48.7296468 15.3851351 41.832252"></polygon>
                                        <polygon id="矩形备份-151" fill="#DEDEDE" points="0.777027025 1.88110769 13.5202702 9.22638532 13.5202702 59.3892571 0.777027025 52.0439794"></polygon>
                                        <g id="编组-97" transform="translate(5.905405, 43.176005)" fill="#C92128">
                                            <path d="M0.546523054,0.162731196 C0.70052552,0.344046908 0.885269632,0.461632364 1.04780592,0.481786421 C1.2103422,0.501940478 1.33272745,0.422438227 1.37988486,0.266065791 C1.04422148,0.0321365215 0.707820073,-0.0524378704 0.448409703,0.0318844137 C0.468582874,0.0624053621 0.48991961,0.0920664531 0.512265842,0.12066222 L0.546523054,0.162731196 Z" id="路径_10"></path>
                                            <path d="M0.134294555,0.276378142 L0.14239713,0.289202168 C0.411977041,0.726589757 0.801068268,1.05415226 1.16078183,1.14654518 C1.52049539,1.23893809 1.79514633,1.08185865 1.8796372,0.735414622 C1.78411154,0.618721528 1.68134408,0.512045733 1.57410597,0.418263778 C1.55804991,0.476932418 1.53421296,0.528682719 1.50314828,0.572313821 C1.40437321,0.710116262 1.23769563,0.758001909 1.04021852,0.705311248 C0.783000628,0.6377822 0.505461214,0.408730214 0.306775098,0.10000381 C0.238998133,0.144838081 0.181065967,0.204078078 0.134294555,0.276378142 Z" id="路径_11"></path>
                                            <path d="M1.96022172,1.17748982 C1.92626479,1.22427165 1.88713428,1.26481819 1.84325584,1.29868839 C1.83859686,1.30127857 1.83466558,1.30498685 1.83158332,1.30969882 C1.83024292,1.31488307 1.82971588,1.32071616 1.83001896,1.32701273 L1.82708242,1.36764818 C1.81246395,1.51681529 1.7486446,1.7348126 1.52144634,1.89338839 L1.4878657,1.91562398 C1.21779326,2.08523154 1.1650463,2.34541035 1.2930028,2.89502647 C1.42087584,2.9635475 1.54722001,3.00966877 1.66748613,3.0317296 C1.58360374,2.77923767 1.58638758,2.54726578 1.67510737,2.39666766 C1.7060937,2.33860829 1.75779273,2.2991723 1.81362077,2.26512309 L1.87021094,2.23237922 C1.92732286,2.20525496 1.97821719,2.1680003 2.02199382,2.12127416 C2.09198703,2.03532206 2.13644391,1.92005236 2.15243724,1.78305475 L2.16447077,1.71352873 C2.18971857,1.59635426 2.23388135,1.49516756 2.29535541,1.41364296 C2.23061042,1.26544639 2.15127961,1.11962597 2.05985932,0.980770283 C2.03975437,1.03971036 2.0143667,1.09368369 1.9839619,1.14216592 L1.96022172,1.17748982 Z" id="路径_12"></path>
                                            <path d="M2.41171963,1.73703568 C2.39251701,1.77747384 2.37774685,1.82227135 2.36759669,1.8708595 L2.36158996,1.90389347 L2.35636539,1.93646751 C2.33645022,2.09783318 2.28354867,2.23382863 2.20101258,2.33583706 C2.14958623,2.39368555 2.08893163,2.43945737 2.02026901,2.47223169 C1.95853544,2.49879357 1.90592002,2.54041914 1.86423429,2.59567531 C1.79917928,2.70122058 1.79564356,2.86593346 1.85456735,3.04601408 C2.37151625,3.02796348 2.60818274,2.49892267 2.42502083,1.78687068 L2.41171963,1.73703568 Z" id="路径_13"></path>
                                            <path d="M0.497907606,1.81011192 C0.529833697,1.71674229 0.528354679,1.65761352 0.520592966,1.62328276 L0.513392493,1.60053483 L0.513392493,1.60053483 C0.486305729,1.5533364 0.448886084,1.51286038 0.409100183,1.48772699 C0.276435848,1.38577558 0.148652411,1.26280627 0.0310469,1.12391653 C0.095064803,1.464012 0.254398571,1.82563661 0.481862904,2.14709047 C0.46563436,2.03688203 0.467802571,1.93496321 0.488099689,1.84695945 L0.497907606,1.81011192 Z" id="路径_14"></path>
                                            <path d="M0.0158044352,0.837429286 C0.128399543,0.993566922 0.257094986,1.13265426 0.393699536,1.24610853 L0.445280986,1.28743556 C0.563369989,1.37809877 0.643513274,1.47542765 0.690644584,1.58543209 C0.745196572,1.71350566 0.746801041,1.84211328 0.696500901,1.99059214 C0.657672724,2.1039177 0.690644584,2.29115707 0.726584717,2.44831681 C0.837870284,2.56755802 0.956139773,2.67255188 1.07748234,2.75982652 C0.958560351,2.19778204 1.02341361,1.89331995 1.30526761,1.69920932 L1.33520036,1.67951652 C1.42952652,1.62440907 1.50597019,1.54246664 1.56127021,1.437185 C1.56439892,1.43096487 1.56419837,1.42672907 1.56058831,1.42247968 C1.55748244,1.41989713 1.55426742,1.41833693 1.55138067,1.41793944 L1.54735143,1.41823277 C1.34439996,1.44574021 1.10652039,1.38513191 0.863526246,1.24400393 C0.583879911,1.08234223 0.312983128,0.82438769 0.0937575992,0.512049579 L0.0521456835,0.451257578 C0.0224243629,0.54132897 0.00527154869,0.642180062 0.00103834474,0.751415614 L0,0.815395108 L0.0158044352,0.837429286 Z" id="路径_15"></path>
                                        </g>
                                        <path d="M7.06281972,34.9430931 L7.06281972,34.7516601 L6.96944412,34.6972385 C6.9844593,34.6895811 6.99994371,34.6783685 7.01495886,34.6636009 L7.01495886,34.6362534 L6.86199183,34.5471004 L6.88263769,34.5230344 L6.84838433,34.4943195 C6.81131563,34.5383491 6.76392399,34.5643293 6.70620943,34.5711661 L6.72779375,34.6138285 C6.74093201,34.6116406 6.75453951,34.6086325 6.76767779,34.6042568 L6.76767779,34.6146488 L7.03044326,34.7677952 L7.03044326,34.8115512 L6.78034683,34.6657887 L6.78034683,34.6996998 L7.03044326,34.8454623 L7.03044326,34.8892184 L6.76110865,34.7322433 L6.76110865,34.7672483 L7.06281972,34.9430931 Z M6.92721397,34.6726257 L6.79348511,34.5946852 C6.80943873,34.5870278 6.82492313,34.5780031 6.83946907,34.5667907 L6.97366714,34.6450047 C6.95818277,34.6567641 6.94269837,34.6657887 6.92721397,34.6726257 Z M6.97742095,35.0699857 C6.9961899,35.0809248 7.0097974,35.0850269 7.01824344,35.0822922 C7.02856636,35.0790105 7.0351355,35.0571323 7.03842006,35.0169315 L7.00651282,34.9863021 C7.00463594,35.0169315 7.00041292,35.0336135 6.994313,35.0366216 C6.99008998,35.039083 6.9825824,35.0374422 6.97132102,35.0308788 L6.87559933,34.9750898 C6.86339949,34.9679793 6.85729959,34.9567669 6.85729959,34.9419992 L6.85729959,34.8506583 L6.82351545,34.830968 L6.82351545,34.9305131 C6.82351545,34.9633303 6.83759217,34.98849 6.86574561,35.0048986 L6.97742095,35.0699857 Z M7.25660926,35.2409081 L7.25660926,34.8689812 C7.27209366,34.8419071 7.28523192,34.8107308 7.29602408,34.7765464 L7.26458606,34.7412681 C7.24440944,34.813739 7.21203298,34.8703484 7.1679259,34.9102759 L7.17918728,34.9584076 C7.19467168,34.9466482 7.20921762,34.9327009 7.2223559,34.9173864 L7.2223559,35.2209442 L7.25660926,35.2409081 Z M7.58647377,35.0109149 L7.58647377,34.9759101 L7.45274492,34.8979696 L7.443708,34.8600475 L7.43913742,34.843001 L7.43913742,34.843001 L7.40488406,34.8296006 C7.41004552,34.8451888 7.41473776,34.8615974 7.41896078,34.8782793 L7.29602408,34.8066287 L7.29602408,34.8416335 L7.58647377,35.0109149 Z M7.55034351,35.1249544 L7.55034351,35.0215805 L7.32699286,34.8914062 L7.32699286,34.9947799 L7.55034351,35.1249544 Z M7.51749784,35.0757288 L7.35983856,34.983841 L7.35983856,34.9406318 L7.51749784,35.0325195 L7.51749784,35.0757288 Z M7.41943002,35.3319754 C7.446645,35.347837 7.46072172,35.3407267 7.46072172,35.3111912 L7.46072172,35.2225852 L7.56207411,35.2816559 L7.56207411,35.2570431 L7.58741221,35.2718108 L7.58741221,35.178282 L7.29180106,35.0059925 L7.29180106,35.0995212 L7.32323908,35.1178439 L7.32323908,35.1424569 L7.42599914,35.202348 L7.42599914,35.2811089 C7.42599914,35.2931418 7.41989924,35.29615 7.4076994,35.2890397 L7.35936932,35.2586839 L7.35936932,35.2586839 L7.3664077,35.3010727 L7.41943002,35.3319754 Z M7.55503575,35.2436427 L7.32464674,35.1093661 L7.32464674,35.0595937 L7.55503575,35.1938703 L7.55503575,35.2436427 Z" id="急停" fill="#1D2E3D"></path>
                                        <path d="M6.6816237,36.0979539 C6.78233572,36.0399028 6.91993816,36.0679662 7.06623245,36.1522912 C7.25804396,36.2628525 7.4298588,36.4541362 7.55534072,36.6711217 C7.68082263,36.8881072 7.76084331,37.1323017 7.76084331,37.353424 C7.76084331,37.4478084 7.74623902,37.5289494 7.71665504,37.5942332 C7.6928384,37.6467901 7.65935656,37.6879496 7.61567353,37.7131288 C7.57199053,37.7383078 7.51954596,37.7466768 7.46204748,37.7409904 C7.39062541,37.7339271 7.31293805,37.7059837 7.23106478,37.6587915 C7.03925329,37.5482302 6.86743843,37.3569463 6.74195653,37.1399608 C6.6164746,36.9229756 6.53645392,36.6787811 6.53645392,36.4576585 C6.53645392,36.3632741 6.55105821,36.2821331 6.58064221,36.2168493 C6.60445885,36.1642926 6.63794069,36.1231329 6.6816237,36.0979539 Z" id="椭圆形" stroke="#38373E" stroke-width="0.5" fill="#DEDEDE"></path>
                                        <path d="M6.73060848,36.6663706 C6.73060848,36.9384666 6.92194589,37.2693306 7.15797404,37.4053787 C7.3841662,37.535757 7.56931582,37.4399006 7.58435227,37.1922049 L7.58533821,37.1590418 C7.58533821,36.8869475 7.39400065,36.5560836 7.15797404,36.4200364 C6.92194742,36.2839894 6.73060848,36.3942764 6.73060848,36.6663706 Z" id="路径" fill="#DA4648"></path>
                                        <path d="M7.14864861,10.2117274 C9.12269342,11.3495781 10.7229729,14.1168086 10.7229729,16.3925099 L10.7229729,31.2622181 C10.7229729,33.5379194 9.12269342,34.4603296 7.14864861,33.322479 C5.17460381,32.1846284 3.57432432,29.4173979 3.57432432,27.1416966 L3.57432432,12.2719882 C3.57432432,10.0882345 5.04790074,9.15062426 6.91128187,10.0838496 L7.02947728,10.1452835 C7.06904177,10.1665945 7.10876893,10.1887406 7.14864861,10.2117274 Z" id="矩形" fill="#313236"></path>
                                        <polygon id="矩形" fill="#777777" points="5.28378377 18.9115112 9.01351348 21.0613485 9.01351348 23.3903389 5.28378377 21.2405017"></polygon>
                                        <path d="M4.81756755,13.9739428 C4.94630961,14.0481505 5.05067566,13.9879933 5.05067566,13.839578 C5.05067566,13.6911627 4.94630961,13.5106911 4.81756755,13.4364835 C4.6888255,13.3622758 4.58445943,13.422433 4.58445943,13.5708483 C4.58445943,13.7192636 4.6888255,13.8997352 4.81756755,13.9739428 Z" id="椭圆形" fill="#3BFF41"></path>
                                        <path d="M4.75171326,12.9964968 C4.7700912,13.0072079 4.78260385,13.0103985 4.78964221,13.0067522 C4.79668057,13.00265 4.80098178,12.9814557 4.8033279,12.9440807 L4.77673855,12.9181005 L4.77429858,12.9475848 C4.77279707,12.9590489 4.77087323,12.9656396 4.76852711,12.967554 C4.76383487,12.9698329 4.75679651,12.9684656 4.74702102,12.9627682 L4.65786844,12.9108078 C4.64066357,12.9007803 4.63206113,12.8843718 4.63206113,12.862038 L4.63206113,12.8059755 L4.75875162,12.8798139 L4.75875162,12.6528291 L4.63206113,12.5789907 L4.63206113,12.5165471 L4.60351666,12.4999107 L4.60351666,12.5623543 L4.47917228,12.4898832 L4.47917228,12.7556104 L4.50732572,12.7720189 L4.50732572,12.7332765 L4.60351666,12.789339 L4.60351666,12.8504152 C4.60351666,12.8900692 4.61915747,12.9192399 4.65122111,12.9379274 L4.75171326,12.9964968 Z M4.73098919,12.7346439 L4.63206113,12.6769861 L4.63206113,12.6099846 L4.73098919,12.6676424 L4.73098919,12.7346439 Z M4.60351666,12.6603497 L4.50732572,12.6042872 L4.50732572,12.5372857 L4.60351666,12.5933482 L4.60351666,12.6603497 Z M4.60351666,12.7588009 L4.50732572,12.7027384 L4.50732572,12.6343695 L4.60351666,12.690432 L4.60351666,12.7588009 Z M4.73098919,12.8330951 L4.63206113,12.7754373 L4.63206113,12.7070684 L4.73098919,12.7647262 L4.73098919,12.8330951 Z M4.93549267,13.1099892 C4.96364613,13.0671447 4.97850489,12.9964968 4.98006897,12.8989572 L4.98006897,12.7663215 L5.0743048,12.8212445 C5.07156765,12.8342346 5.06804847,12.8463131 5.06335623,12.8577079 L5.00783138,12.8253467 L5.00783138,12.9853299 L5.07469582,13.0243002 L5.07469582,13.145541 C5.07469582,13.1569358 5.07000359,13.1601264 5.06140114,13.1551127 L5.03207464,13.1357415 L5.03207464,13.1357415 L5.03793994,13.1687864 L5.07078562,13.1879297 C5.09111866,13.1997803 5.1016762,13.1936272 5.1016762,13.1690143 L5.1016762,13.040025 L5.16658553,13.0778558 L5.16658553,12.9178726 L5.09033661,12.8734328 C5.09463784,12.8622659 5.09815702,12.8501873 5.10089417,12.8367415 L5.1873096,12.8871066 L5.1873096,12.85748 L4.95269757,12.7207422 L4.95269757,12.8830044 C4.95152451,12.9743909 4.93862085,13.0384297 4.91437759,13.0758047 L4.93549267,13.1099892 Z" id="电源" fill="#FFFFFF"></path>
                                        <path d="M7.14864861,15.3175912 C7.27739068,15.3917988 7.38175673,15.3316416 7.38175673,15.1832263 C7.38175673,15.034811 7.27739068,14.8543395 7.14864861,14.7801318 C7.01990657,14.7059242 6.91554052,14.7660814 6.91554052,14.9144967 C6.91554052,15.062912 7.01990657,15.2433835 7.14864861,15.3175912 Z" id="椭圆形" fill="#3BFF41"></path>
                                        <path d="M7.09899659,13.9939716 L7.09899659,13.9638892 L6.91951839,13.8592848 L6.91951839,13.8893671 L7.09899659,13.9939716 Z M7.09665047,14.2806652 L7.12167576,14.2875021 C7.10525292,14.2241469 7.08648396,14.1653496 7.06536888,14.1111103 L7.04229868,14.1063245 C7.05363828,14.1366347 7.06419582,14.1674007 7.0735803,14.1983946 L7.02954205,14.1831711 L7.02954205,14.1831711 L6.9770953,14.1618218 C6.96764515,14.1577288 6.95783837,14.1533623 6.94767183,14.1487132 C6.96487673,14.1313931 6.98403669,14.0965249 7.0055428,14.0443367 L7.12754106,14.1154403 L7.12754106,14.0839906 L6.89566617,13.9488481 L6.89566617,13.9802978 L6.97778039,14.028156 L6.96788795,14.0507672 L6.94972832,14.0876032 C6.93263929,14.1188334 6.91873636,14.1332162 6.90778779,14.1304815 L6.91482615,14.1632985 C6.98442772,14.1961156 7.04073462,14.2193611 7.08374681,14.2325791 C7.08843905,14.248076 7.09274028,14.2642566 7.09665047,14.2806652 Z M6.80494952,14.1854045 C6.82684663,14.1562338 6.84248744,14.1443832 6.85187192,14.1498527 C6.85500009,14.1516758 6.85830204,14.1552209 6.86166192,14.1605554 L6.86673069,14.1699076 C6.8788523,14.1933809 6.89253801,14.2127521 6.90739677,14.2268816 C6.92303757,14.2410112 6.94337062,14.2555966 6.96800488,14.2704098 L7.03643338,14.3112033 L7.12715005,14.3640752 L7.13418841,14.3353603 L7.10745422,14.3211294 L7.03252318,14.278842 L6.95705631,14.2339464 C6.93437714,14.2198169 6.91678125,14.2059152 6.90505065,14.1926972 C6.89775161,14.1844929 6.89097393,14.1749719 6.8844859,14.1639991 L6.87494211,14.1464342 C6.87181394,14.1405089 6.86907681,14.1357231 6.86594864,14.1311652 L6.86594864,13.9602429 L6.78383444,13.9123847 L6.78383444,13.942467 L6.83975029,13.9750562 L6.83975029,14.1136171 C6.82332745,14.1122498 6.80494952,14.1247841 6.78383444,14.1507643 L6.80494952,14.1854045 Z M7.5044844,14.2357696 L7.5044844,14.2034083 L7.31718579,14.094246 L7.31718579,14.1266072 L7.5044844,14.2357696 Z M7.25657767,14.4477132 L7.25657767,14.2243748 C7.27378257,14.2116126 7.28785929,14.1952041 7.29919886,14.1762886 L7.27378257,14.1478016 C7.25188543,14.1856324 7.21708464,14.2100173 7.16938021,14.2214121 L7.17759163,14.259015 C7.19636059,14.2549129 7.21317445,14.2487597 7.22881526,14.241467 L7.22881526,14.4315326 L7.25657767,14.4477132 Z M7.42041509,14.5413786 C7.44544037,14.555964 7.45834403,14.5502666 7.45834403,14.5238306 L7.45834403,14.3246492 L7.52168927,14.3615684 L7.52168927,14.3292071 L7.30662825,14.2038641 L7.30662825,14.2362254 L7.42979956,14.3080127 L7.42979956,14.4989899 C7.42979956,14.5108405 7.42315221,14.5128916 7.41063958,14.5055989 C7.39343468,14.4955714 7.37583878,14.4844045 7.35706982,14.4720981 L7.36293512,14.5078778 L7.42041509,14.5413786 Z" id="运行" fill="#FFFFFF"></path>
                                        <path d="M9.47972971,16.6612395 C9.60847175,16.7354472 9.7128378,16.67529 9.7128378,16.5268747 C9.7128378,16.3784594 9.60847175,16.1979878 9.47972971,16.1237802 C9.35098764,16.0495725 9.24662159,16.1097297 9.24662159,16.258145 C9.24662159,16.4065603 9.35098764,16.5870319 9.47972971,16.6612395 Z" id="椭圆形" fill="#3BFF41"></path>
                                        <path d="M9.45003223,15.7135338 L9.46567302,15.695302 C9.43360939,15.6556481 9.40623799,15.6109804 9.38277676,15.5608432 C9.41132123,15.5241519 9.42696204,15.4680894 9.42930816,15.391972 L9.45980772,15.4097479 L9.45980772,15.3778424 L9.33429028,15.3046877 C9.34015558,15.2853165 9.34523885,15.2641221 9.34954008,15.2406488 L9.32334173,15.2194545 C9.31161113,15.2910139 9.28893197,15.3406953 9.25608629,15.3680429 L9.27329116,15.4031389 C9.28267564,15.3958462 9.29166909,15.3869583 9.29988053,15.3762471 C9.31356623,15.4357281 9.3307711,15.490879 9.35149517,15.5416999 C9.33038009,15.5631222 9.30261766,15.5747449 9.26781689,15.5767959 L9.28267564,15.6128036 C9.31630337,15.609613 9.34445681,15.5977624 9.36713598,15.5772517 C9.39059718,15.6278447 9.41796859,15.6729682 9.45003223,15.7135338 Z M9.15637617,15.5341793 L9.15637617,15.501818 L9.26586177,15.565629 L9.26586177,15.4070132 L9.21072796,15.3748798 L9.21072796,15.2814423 L9.27720137,15.3201846 L9.27720137,15.2882792 L9.21072796,15.2495368 L9.21072796,15.1606572 L9.18374758,15.1449324 L9.18374758,15.2338119 L9.11297293,15.1925627 L9.11297293,15.2244682 L9.18374758,15.2657174 L9.18374758,15.3591549 L9.12939579,15.3274773 L9.12939579,15.5184545 L9.15637617,15.5341793 Z M9.36635392,15.5234682 C9.34523885,15.4715078 9.32842498,15.41385 9.31591235,15.3500391 L9.32451479,15.3308958 L9.40271881,15.376475 C9.40076369,15.4405139 9.38864209,15.4895116 9.36635392,15.5234682 Z M9.23849037,15.5200497 L9.15637617,15.4721915 L9.15637617,15.3728287 L9.23849037,15.4206869 L9.23849037,15.5200497 Z M9.85121881,15.6643081 L9.85121881,15.6365048 L9.79334782,15.6027761 C9.79882211,15.5918371 9.80351435,15.5795307 9.8066425,15.5649453 L9.84300736,15.5861397 L9.84300736,15.5578805 L9.75229072,15.5050086 L9.74251521,15.462392 L9.74251521,15.462392 L9.71397077,15.451225 C9.71788095,15.4630757 9.72100913,15.4753821 9.72413728,15.4886 L9.640459,15.4398302 L9.640459,15.4680894 L9.67565079,15.4886 L9.68777242,15.5412441 L9.62442716,15.5043249 L9.62442716,15.5321283 L9.85121881,15.6643081 Z M9.54153091,15.7659499 L9.54153091,15.3958462 L9.59861984,15.4291191 C9.58923536,15.462392 9.57672273,15.4983996 9.56029987,15.537142 C9.58454312,15.5900139 9.59705575,15.6324026 9.59705575,15.6638524 C9.59705575,15.6738798 9.59510066,15.6795772 9.59119045,15.6814004 C9.58728027,15.6832235 9.57945986,15.6809446 9.56772926,15.6750193 L9.55247948,15.6643081 L9.55247948,15.6643081 L9.56147293,15.7028226 C9.58649821,15.7169522 9.60370311,15.7215101 9.61347859,15.7162685 C9.62051698,15.7112548 9.62442716,15.6994042 9.62442716,15.6798051 C9.6228631,15.6460764 9.61035044,15.6018645 9.58767127,15.548081 C9.60253005,15.5116176 9.61543371,15.4758379 9.62638228,15.440286 L9.62638228,15.4143058 L9.5141595,15.3488996 L9.5141595,15.7499972 L9.54153091,15.7659499 Z M9.75502787,15.8899255 L9.75502787,15.8352304 L9.85434696,15.8931161 L9.85434696,15.8648569 L9.75502787,15.8069713 L9.75502787,15.77461 L9.82932167,15.8179103 L9.82932167,15.6807167 L9.64945245,15.5758844 L9.64945245,15.713078 L9.72609237,15.7577456 L9.72609237,15.7901069 L9.62481819,15.7310818 L9.62481819,15.7593409 L9.72609237,15.8183661 L9.72609237,15.8730612 L9.75502787,15.8899255 Z" id="故障" fill="#FFFFFF"></path>
                                        <path d="M5.21071871,23.9130222 C5.10659891,23.8767594 5.0072148,23.8805676 4.92664247,23.92701 C4.87288231,23.9579976 4.83084936,24.0063469 4.80299193,24.0678207 C4.77629021,24.126744 4.76287852,24.1967792 4.76287852,24.2752469 L4.76287852,28.2166152 L4.7796693,28.3737308 C4.80354279,28.4888113 4.84706513,28.59927 4.906681,28.7023588 C4.99798426,28.8602418 5.12166695,28.9921018 5.25630709,29.0697092 L8.98603684,31.2195466 L9.07973403,31.2633367 L9.17689175,31.2871497 C9.25377161,31.2953547 9.31684608,31.2831645 9.37065474,31.2521489 C9.42441496,31.2211612 9.46644792,31.1728119 9.49430531,31.1113382 C9.52100704,31.0524149 9.53441873,30.9823797 9.53441873,30.903912 L9.53441873,26.9625434 L9.51770989,26.8054385 C9.45836407,26.5207443 9.26679818,26.2396067 9.04099013,26.1094496 L5.31126041,23.9596122 L5.21071871,23.9130222 Z M5.18536247,23.984925 L5.27279495,24.0255191 L9.00252466,26.1753565 C9.21203727,26.2961208 9.38849234,26.5609952 9.4414909,26.8136601 L9.45775206,26.9625434 L9.45775206,30.903912 C9.45775206,30.9731182 9.44603965,31.0323004 9.42440035,31.0800524 C9.40284534,31.1276184 9.37144645,31.163614 9.3321893,31.186242 C9.29293216,31.20887 9.24600866,31.2180201 9.19397021,31.2128737 L9.11215775,31.1942953 L9.0245023,31.1536397 L5.29477259,29.0038024 C5.169065,28.9313437 5.0555032,28.8067972 4.97315231,28.6643948 C4.91825172,28.5694597 4.87717098,28.4664992 4.85588388,28.3654688 L4.83954519,28.2166152 L4.83954519,24.2752469 C4.83954519,24.2060406 4.8512576,24.1468584 4.87289688,24.0991065 C4.89445191,24.0515404 4.92585078,24.0155449 4.96510795,23.9929169 C5.00463207,23.9701349 5.05164416,23.9610454 5.10373006,23.9662714 L5.18536247,23.984925 Z" id="矩形" fill="#979797"></path>
                                        <path d="M6.63085487,25.3111541 L6.63085487,25.2834058 L6.55084079,25.2367485 L6.55084079,25.1339632 L6.61756732,25.1728723 L6.61756732,25.1459058 L6.55084079,25.1069967 L6.55084079,25.0132 L6.62536654,25.0566571 L6.62536654,25.0289089 L6.53928642,24.9787144 L6.55112966,24.9793673 L6.53985343,24.9329574 C6.53755327,24.9245525 6.53504981,24.9157974 6.53235379,24.9066695 L6.51271135,24.9026413 C6.5202217,24.9265614 6.52657659,24.9501989 6.53235379,24.9746719 L6.4546506,24.9293622 L6.4546506,24.9571102 L6.52975405,25.000904 L6.52975405,25.0947007 L6.46273866,25.0556231 L6.46273866,25.0825896 L6.52975405,25.1216672 L6.52975405,25.2244527 L6.44742912,25.1764479 L6.44742912,25.2041959 L6.63085487,25.3111541 Z M7.05836683,25.3189157 L7.05836683,25.2942942 L6.98644084,25.2523533 L6.99770636,25.2280475 L7.04479044,25.255503 L7.04479044,25.2312721 L6.94311193,25.171982 L6.93415728,25.1394031 L6.93415728,25.1394031 L6.9119151,25.1311232 C6.91480369,25.1394515 6.91769228,25.1485614 6.92029202,25.1586754 L6.82121324,25.1009013 L6.82121324,25.125132 L6.86771961,25.1522506 L6.87696311,25.1885152 L6.80763683,25.1480902 L6.80763683,25.1727117 L7.05836683,25.3189157 Z M7.02543686,25.4384546 L7.02543686,25.3227722 L6.84056681,25.214972 L6.84056681,25.3306544 L7.02543686,25.4384546 Z M6.97257558,25.5174508 C6.98355225,25.5238512 6.99135145,25.5256635 6.99655092,25.5240055 C7.0023281,25.521121 7.00637214,25.5070648 7.00839416,25.4812775 L6.98875171,25.4612257 C6.98759627,25.4800927 6.9852854,25.4908607 6.98181908,25.4927476 C6.97950821,25.4945267 6.97517532,25.4935635 6.9688204,25.4898577 L6.90815993,25.4544858 C6.89891643,25.4490958 6.89429467,25.4405386 6.89429467,25.4295955 L6.89429467,25.3838698 L6.87291906,25.3714054 L6.87291906,25.4229934 C6.87291906,25.4472241 6.88245143,25.4648981 6.90209389,25.4763519 L6.97257558,25.5174508 Z M7.35098146,25.7427941 C7.36802415,25.7527319 7.37668994,25.7468421 7.37668994,25.7249562 L7.37668994,25.6991622 L7.46623636,25.7513779 L7.46623636,25.7001806 L7.49772206,25.7185403 L7.49772206,25.6954819 L7.46623636,25.6771221 L7.46623636,25.6243616 L7.37668994,25.5721459 L7.37668994,25.5479152 L7.46219234,25.5977727 L7.46219234,25.5215632 L7.37668994,25.4717054 L7.37668994,25.4474747 L7.48992284,25.5135023 L7.48992284,25.4892716 L7.37668994,25.4232439 L7.37668994,25.3997947 L7.35589207,25.3876673 L7.35589207,25.4111163 L7.24265916,25.3450889 L7.24265916,25.3693196 L7.35589207,25.4353472 L7.35589207,25.459578 L7.27038966,25.4097203 L7.27038966,25.48593 L7.35589207,25.5357877 L7.35589207,25.5600185 L7.26085732,25.5046023 L7.26085732,25.5272698 L7.35589207,25.582686 L7.35589207,25.612779 L7.23485995,25.5422036 L7.23485995,25.5652618 L7.35589207,25.6358373 L7.35589207,25.664367 L7.26085732,25.6089511 L7.26085732,25.6316186 L7.35589207,25.6870345 L7.35589207,25.7061847 C7.35589207,25.7159553 7.35184803,25.7186777 7.34404883,25.7141299 L7.31111886,25.6929739 L7.31111886,25.6929739 L7.31545175,25.7220762 L7.35098146,25.7427941 Z M7.80449077,25.9200888 L7.80449077,25.7621979 L7.89721466,25.8162665 L7.89721466,25.9741573 L7.91743483,25.985948 L7.91743483,25.802263 L7.85619662,25.7665541 L7.86226268,25.7282736 L7.86226268,25.7282736 L7.93130009,25.7685303 L7.93130009,25.741173 L7.77127195,25.6478584 L7.77127195,25.6752159 L7.84175366,25.7163146 C7.84030936,25.7299327 7.83828733,25.7428231 7.83539875,25.7544267 L7.78455947,25.7247816 L7.78455947,25.9084666 L7.80449077,25.9200888 Z M7.6739263,25.8666224 C7.70743402,25.8740457 7.73689767,25.8779386 7.7623173,25.8783008 L7.7623173,25.8501618 C7.75105178,25.8498458 7.73920854,25.8488021 7.72678758,25.8474217 L7.72678758,25.6707715 L7.76029528,25.6903102 L7.76029528,25.6629529 L7.67103772,25.6109056 L7.67103772,25.6382629 L7.705412,25.6583071 L7.705412,25.843946 L7.66786026,25.835337 L7.6739263,25.8666224 Z M7.76029528,25.9845969 C7.79495842,25.9915216 7.81980034,25.9876388 7.83510988,25.9735078 C7.85070829,25.9572001 7.85879635,25.9283059 7.85995179,25.8867711 L7.85995179,25.8195502 L7.83915392,25.8074228 L7.83915392,25.8746437 C7.83828733,25.9081397 7.83164357,25.9320137 7.81951147,25.9460435 C7.80622395,25.958618 7.78253747,25.9612205 7.74902978,25.9537971 L7.76029528,25.9845969 Z" id="注意事项" fill="#FFFFFF"></path>
                                        <polygon id="矩形备份-172" fill="#A2A2A2" points="5.12837836 24.9918593 9.01351348 27.2312731 9.01351348 27.4104263 5.12837836 25.1710125"></polygon>
                                        <polygon id="矩形备份-173" fill="#A2A2A2" points="5.12837836 25.3501655 8.70270266 27.4104263 8.70270266 27.5895793 5.12837836 25.5293187"></polygon>
                                        <polygon id="矩形备份-174" fill="#A2A2A2" points="5.12837836 25.7084716 8.54729727 27.679156 8.54729727 27.858309 5.12837836 25.8876249"></polygon>
                                        <polygon id="矩形备份-183" fill="#A2A2A2" points="5.12837836 26.0667781 9.01351348 28.3061919 9.01351348 28.4853449 5.12837836 26.245931"></polygon>
                                        <polygon id="矩形备份-184" fill="#A2A2A2" points="5.12837836 26.4250842 8.54729727 28.3957684 8.54729727 28.5749216 5.12837836 26.6042372"></polygon>
                                        <polygon id="矩形备份-185" fill="#A2A2A2" points="5.12837836 26.7833904 9.01351348 29.0228043 9.01351348 29.2019575 5.12837836 26.9625434"></polygon>
                                        <g id="LOGO" transform="translate(4.662162, 6.135603)" fill="#C92128">
                                            <path d="M1.50892465,0.953780943 C1.56535157,1.01715502 1.63304233,1.05987165 1.69259607,1.06968784 C1.75214981,1.07950403 1.7969921,1.05533611 1.8142707,1.00411085 C1.69128272,0.919736215 1.56802432,0.885132467 1.47297564,0.908295171 L1.49030215,0.931574696 L1.50892465,0.953780943 Z" id="路径_10"></path>
                                            <path d="M1.35788299,0.983805603 L1.36085179,0.988234726 C1.45962662,1.13916916 1.60219071,1.25577329 1.73399075,1.29342757 C1.86579079,1.33108185 1.96642365,1.28395727 1.99738134,1.17008644 C1.96238048,1.12936789 1.9247262,1.0918504 1.88543386,1.05854564 C1.87955087,1.0777958 1.87081695,1.09459154 1.85943476,1.1085431 C1.82324331,1.15259446 1.76217218,1.16537923 1.68981602,1.14405149 C1.59557068,1.11663887 1.49387947,1.03499792 1.42108033,0.92830188 C1.39624667,0.941954715 1.37502016,0.960597112 1.35788299,0.983805603 Z" id="路径_11"></path>
                                            <path d="M2.02690773,1.3189809 C2.01861312,1.32894535 2.00947602,1.33794222 1.99954263,1.34593036 L1.98405111,1.35715088 C1.98234405,1.35792547 1.98090362,1.35908663 1.97977427,1.36059853 L1.97920108,1.36634002 C1.97677268,1.4136487 1.95871565,1.49020943 1.87591311,1.54327537 L1.85383518,1.55602185 C1.7548799,1.60740974 1.73555327,1.69313058 1.78243688,1.87877498 C1.82928991,1.90405277 1.87558277,1.92183481 1.9196486,1.93148086 C1.88891386,1.84571798 1.88993387,1.76844708 1.92244105,1.71993883 C1.93455142,1.69992551 1.95529661,1.6874245 1.97730222,1.67669737 L1.99392753,1.66889497 C2.0148535,1.66094217 2.03350132,1.64949408 2.0495412,1.63475314 C2.07005777,1.61289991 2.08458611,1.58448074 2.09257711,1.55076236 L2.10174515,1.50155381 L2.10174515,1.50155381 C2.11099601,1.46297691 2.12717737,1.43008981 2.14970165,1.40408673 C2.12597889,1.35345374 2.09691187,1.30333478 2.06341522,1.25530695 C2.05727647,1.27135983 2.04979354,1.28619308 2.04102276,1.29970848 L2.02690773,1.3189809 Z" id="路径_12"></path>
                                            <path d="M2.19233781,1.51410237 C2.18530191,1.52721573 2.17989009,1.54186669 2.17617104,1.55786926 L2.17205588,1.57952451 C2.1647589,1.63293346 2.14537561,1.67725689 2.11513415,1.70968646 C2.10257233,1.72188817 2.08850771,1.73222257 2.07307279,1.7406056 L2.04890922,1.7517061 C2.02628987,1.75938334 2.00701144,1.77225561 1.99173767,1.78987974 C1.96790134,1.82382145 1.96660584,1.87865834 1.98819568,1.93980839 C2.1735853,1.94356382 2.26059358,1.77902772 2.20127884,1.54621502 L2.19233781,1.51410237 Z" id="路径_13"></path>
                                            <path d="M1.49111181,1.50198117 C1.50599993,1.46314434 1.50106172,1.44176426 1.49678488,1.43241761 C1.49016886,1.42158466 1.48186989,1.41166022 1.47275306,1.40354057 L1.45857253,1.39282674 C1.40996395,1.35631416 1.36314375,1.31288866 1.32005276,1.26435035 C1.3435091,1.37893578 1.40188943,1.50251444 1.48523299,1.61400152 C1.47979648,1.58013136 1.47999458,1.54886415 1.48575228,1.5216291 L1.49111181,1.50198117 Z" id="路径_14"></path>
                                            <path d="M1.30986084,1.12613129 L1.30867709,1.16091808 L1.31446788,1.16856406 C1.35159752,1.21733695 1.39350552,1.26175485 1.43800394,1.29961831 L1.47182927,1.32675258 C1.51509741,1.35922459 1.54446213,1.3931952 1.56173117,1.43076173 C1.58171917,1.47449276 1.58230705,1.51739255 1.56387694,1.56592671 C1.54965019,1.60296178 1.56173117,1.6660034 1.57489973,1.71907504 C1.61567507,1.76094337 1.65900934,1.7981957 1.70346959,1.82960021 C1.66121096,1.64570637 1.68228602,1.54586505 1.77779965,1.48588662 L1.79789818,1.47440934 C1.83245955,1.45783818 1.86046872,1.43198117 1.8807308,1.39794138 C1.88187717,1.39592764 1.88180368,1.39451188 1.88048095,1.39302661 L1.87792058,1.39155131 L1.87563092,1.39135866 C1.80126894,1.39665927 1.71410921,1.37192218 1.62507549,1.32024771 C1.5283047,1.2643199 1.43439346,1.17991057 1.35659021,1.07947737 L1.32778341,1.04053288 C1.31825469,1.06630798 1.31225177,1.09501759 1.30986084,1.12613129 Z" id="路径_15"></path>
                                            <path d="M1.19355519,0.68967467 C1.19224077,0.685807299 1.1892201,0.681981737 1.18580007,0.679853122 L1.1574187,0.663087868 L0.960105537,0.54935544 C0.951130953,0.544665576 0.942596311,0.543242432 0.935926088,0.545323537 L0.605979789,0.680506181 C0.603249891,0.681457344 0.599574603,0.680631536 0.595836214,0.678227004 C0.592991356,0.676198034 0.590338856,0.673422808 0.588243277,0.670282755 L0.258252748,0.15470878 C0.251590995,0.144929902 0.243051401,0.13650933 0.234073297,0.130866341 L0.00833453446,0.00115531064 C0.00491450353,-0.0006587248 0.00189383208,-0.000315427381 0.000579417819,0.00203667305 C-0.000659041711,0.00444812354 0.000288232509,0.00818108227 0.00154512161,0.0113111778 L0.0043685147,0.0169685036 L0.433892868,0.700075997 C0.439847295,0.710139068 0.443362711,0.720572756 0.443874262,0.72970059 L0.443874262,1.08936477 C0.443874262,1.09707798 0.450230949,1.10699479 0.458072319,1.1115146 L0.734012929,1.27056834 C0.741844218,1.27505845 0.748186702,1.27247548 0.748210985,1.26478618 L0.748210985,0.905122001 C0.748694006,0.89657455 0.752184055,0.890177409 0.758118663,0.886961583 L1.18978083,0.700246885 C1.18982506,0.700272381 1.19603211,0.697352996 1.19355519,0.68967467 Z" id="路径_16"></path>
                                            <path d="M4.35848478,2.50820049 L4.65927652,2.68157856 C4.6608702,2.68249717 4.66216214,2.68473123 4.66216214,2.68656845 L4.66216214,3.53253692 C4.66216214,3.53437414 4.6608702,3.53511882 4.65927652,3.53420021 L4.35848478,3.36082214 C4.35689109,3.35990353 4.35559914,3.3576695 4.35559914,3.35583228 L4.35559914,2.50986381 C4.35559914,2.50802658 4.35689109,2.50728188 4.35848478,2.50820049 Z" id="矩形_2"></path>
                                            <path d="M3.29325138,2.01758195 L3.29325138,1.90831946 C3.29325138,1.90052145 3.28681872,1.89048611 3.27889115,1.88591663 L2.38603544,1.37126952 C2.37810786,1.36670003 2.3716752,1.36931973 2.3716752,1.37711772 L2.3716752,1.48638022 C2.3716752,1.49417822 2.37810786,1.50420557 2.38603544,1.50878306 L2.6791523,1.67773729 L2.6791523,2.37782072 C2.67920094,2.38615505 2.68605589,2.39682467 2.69450036,2.40169211 L2.97044097,2.56074583 C2.97888544,2.56561326 2.9857404,2.56284613 2.98578904,2.55456786 L2.98578904,1.85448444 L3.27890589,2.02343864 C3.28484724,2.0268513 3.2899459,2.02623377 3.29212391,2.02242432 L3.29325138,2.01758195 Z" id="路径_17"></path>
                                            <path d="M4.19874232,3.24487444 L4.1936263,3.22597269 L3.87559282,2.23764672 C3.87354406,2.23193104 3.86907278,2.22634124 3.86403385,2.22319619 L3.54312536,2.03822271 C3.53806951,2.0355521 3.53357779,2.0359702 3.53149268,2.03930547 L3.21247137,2.6630544 C3.21054898,2.66714859 3.20935366,2.67189453 3.208902,2.67715871 C3.20881921,2.68114763 3.20993743,2.6857732 3.21213228,2.69045735 C3.21421389,2.69500204 3.217383,2.69938395 3.22112586,2.7028926 C3.22659838,2.70745084 3.23222008,2.71145546 3.23787454,2.71482355 L3.45599089,2.84054704 C3.46060562,2.84320701 3.46828703,2.84722854 3.47290176,2.8493954 L3.47645429,2.85046665 L3.47966905,2.85054062 C3.48141761,2.85048579 3.48292356,2.84994655 3.48409212,2.84895687 L3.4914639,2.83818133 L3.50367132,2.81461699 L3.5064892,2.8075939 L3.51749314,2.7843071 L3.61523616,2.59837132 L3.61589962,2.59850721 L3.68050594,2.47420231 L3.68809886,2.46364128 L3.68809886,2.46364128 C3.69291742,2.46110611 3.70008444,2.46259621 3.7072655,2.46762626 C3.71389257,2.47188619 3.71993249,2.47882084 3.72360137,2.48638203 L3.72775049,2.49608897 L3.73384352,2.51369967 L3.92181391,3.09720146 L3.92498331,3.10401347 L3.92498331,3.10401347 L3.92981966,3.11025652 C3.93210529,3.11318589 3.9347778,3.11572588 3.93757478,3.11762715 L3.95457412,3.12791874 L4.16574623,3.24963954 C4.17140945,3.25278629 4.17705863,3.25555805 4.18265711,3.25793681 C4.18773537,3.25967876 4.19217932,3.25922951 4.19511542,3.25667734 C4.19811926,3.25441971 4.19942069,3.2501846 4.19874232,3.24487444 Z" id="路径_18"></path>
                                        </g>
                                        <polygon id="矩形备份-152" fill="#82807F" points="13.5202702 9.22638532 13.6756756 9.31596188 13.6756756 59.4788336 13.5202702 59.3892571"></polygon>
                                        <path d="M12.9763513,31.4861596 C13.1909214,31.609839 13.3648648,31.910625 13.3648648,32.1579837 L13.3648648,36.6368117 C13.3648648,36.8841704 13.1909214,36.9844325 12.9763513,36.8607531 C12.7617812,36.7370735 12.5878378,36.4362877 12.5878378,36.1889288 L12.5878378,31.7101011 C12.5878378,31.4627421 12.7617812,31.3624802 12.9763513,31.4861596 Z" id="矩形" fill="#37363D"></path>
                                        <polygon id="矩形备份-182" fill="#777777" points="12.7432432 36.1889288 13.2094594 36.4576585 13.2094594 36.6368117 12.7432432 36.368082"></polygon>
                                        <path d="M14.2195945,32.202772 C14.4341646,32.3264516 14.608108,32.6272374 14.608108,32.8745963 L14.608108,37.353424 C14.608108,37.600783 14.4341646,37.7010449 14.2195945,37.5773655 C14.0050244,37.4536861 13.831081,37.1529001 13.831081,36.9055414 L13.831081,32.4267134 C13.831081,32.1793547 14.0050244,32.0790926 14.2195945,32.202772 Z" id="矩形" fill="#37363D"></path>
                                        <polygon id="矩形备份-182" fill="#777777" points="13.9864864 36.9055414 14.4527027 37.1742711 14.4527027 37.353424 13.9864864 37.0846943"></polygon>
                                        <polygon id="矩形备份-149" fill="url(#linearGradient-5)" points="0.777027025 52.0439794 29.0608107 68.3469127 29.0608107 69.0635251 0.777027025 52.7605918"></polygon>
                                        <polygon id="矩形备份-150" fill="#4B4E50" points="0.777027025 52.7605918 29.0608107 69.0635251 29.0608107 70.6759031 0.777027025 54.3729697"></polygon>
                                    </g>
                                </g>
                            </g>
                        </g>
                    </g>
                </g>
            </g>
        </g>
    </g>
</svg>