<?xml version="1.0" encoding="UTF-8"?>
<svg width="20px" height="70px" viewBox="0 0 20 70" version="1.1" xmlns="http://www.w3.org/2000/svg" xmlns:xlink="http://www.w3.org/1999/xlink">
    <title>icon_华为充电终端</title>
    <defs>
        <linearGradient x1="50%" y1="-1.55512473e-13%" x2="36.3839603%" y2="79.0535053%" id="linearGradient-1">
            <stop stop-color="#B4B4B4" offset="0%"></stop>
            <stop stop-color="#D3D8DB" offset="16.5865385%"></stop>
            <stop stop-color="#A6A8AA" offset="34.5461431%"></stop>
            <stop stop-color="#B2B5B6" offset="100%"></stop>
        </linearGradient>
    </defs>
    <g id="光储充及工商储管理系统V1.3" stroke="none" stroke-width="1" fill="none" fill-rule="evenodd">
        <g id="3_2_7.设备监视_示范站站点拓扑_用电设备能量流" transform="translate(-387.000000, -819.000000)" fill-rule="nonzero">
            <g id="main" transform="translate(212.000000, 102.000000)">
                <g transform="translate(44.000000, 40.000000)" id="3">
                    <g transform="translate(0.000000, 591.000000)">
                        <g id="华为充电终端" transform="translate(0.000000, 81.000000)">
                            <g id="华为2#充电终端" transform="translate(102.000000, 0.000000)">
                                <g id="icon_华为充电终端" transform="translate(29.000000, 5.000000)">
                                    <polygon id="矩形备份-195" fill="#61686C" transform="translate(6.387835, 66.494788) scale(-1, 1) translate(-6.387835, -66.494788) " points="2.78586849 67.1958308 9.98980157 62.9895768 9.98980157 65.793746 2.78586849 70"></polygon>
                                    <path d="M2.00109252,4.95001041 L10.0054626,0.276395045 C11.1106355,-0.368896576 12.0065552,0.15421564 12.0065552,1.44479889 L12.0065552,54.7240142 C12.0065552,56.0145974 11.1106355,57.5839339 10.0054626,58.2292255 L2.00109252,62.9028409 C0.895919642,63.5481325 0,63.0250203 0,61.7344371 L0,8.45522192 C0,7.16463868 0.895919642,5.59530204 2.00109252,4.95001041 Z" id="矩形" fill="#7AA2B9"></path>
                                    <path d="M11.4290346,0.139717871 L19.3761476,4.44431097 L20,59.017004 L9.02514448,67.4722258 L0.677350504,63.0914389 C0.261975421,62.9057845 0,62.4323187 0,61.7344371 L0,8.45522192 L0.000565994438,8.40968089 L0,8.36023094 C0.044385114,7.08767891 0.923216818,5.57936369 2.00109252,4.95001041 L10.0054626,0.276395045 C10.5624296,-0.0488084521 11.0662505,-0.0772615333 11.4290346,0.139717871 Z" id="形状结合备份-55" fill="url(#linearGradient-1)"></path>
                                    <path d="M3.58286487,57.75 L3.61844073,57.7520583 C3.69427153,57.7598976 3.77715254,57.7897703 3.86423762,57.8422422 C4.23933529,58.0682522 4.54294089,58.6180557 4.54294089,59.0699239 C4.54294089,59.2761717 4.47931807,59.4267163 4.36536312,59.4953783 C4.31071399,59.5283064 4.24534064,59.5412358 4.1729916,59.5337564 C4.09716079,59.5259171 4.01427979,59.4960444 3.92719471,59.4435725 C3.55209703,59.2175625 3.24849144,58.667759 3.24849144,58.2158908 C3.24849144,58.009643 3.31211425,57.8590985 3.42606921,57.7904364 C3.48071834,57.7575084 3.54609169,57.7445789 3.61844073,57.7520583 L3.58286487,57.75 Z" id="椭圆形备份-171" stroke="#86878D" stroke-width="0.5" fill="#6C727C"></path>
                                    <g id="华为充电终端" transform="translate(1.670734, 4.034624)">
                                        <g id="侧边元素" transform="translate(1.758534, 26.967758) scale(-1, 1) translate(-1.758534, -26.967758) translate(-0.000000, 15.111671)">
                                            <g id="按钮" transform="translate(0.757987, 21.098090)">
                                                <path d="M1.00054626,0.139088264 C0.44325376,0.464481862 0,1.24090682 0,1.89169402 C0,2.0451837 0.0250234825,2.18083937 0.0757693431,2.2942743 C0.125185065,2.40473591 0.198529009,2.49158045 0.293053218,2.54677152 C0.387577418,2.6019626 0.498617497,2.62277674 0.617917607,2.61082544 C0.740428954,2.59855244 0.869107528,2.55264078 1.00054626,2.47589595 C1.55783877,2.15050234 2.00109252,1.37407738 2.00109252,0.723290185 C2.00109252,0.56980051 1.97606904,0.434144841 1.92532318,0.320709907 C1.87590746,0.210248302 1.80256352,0.123403761 1.70803931,0.0682126858 C1.51249044,-0.0459649667 1.26119859,-0.0131021912 1.00054626,0.139088264 Z M1.5665407,0.316068569 C1.60710096,0.339751012 1.64139465,0.380357225 1.6674858,0.438680172 C1.70040724,0.512271239 1.71809531,0.608160608 1.71809531,0.723290185 C1.71809531,1.27182821 1.32878051,1.95377105 0.859047654,2.22804006 C0.760458053,2.28560485 0.669500501,2.3180579 0.5900211,2.32602002 C0.527031487,2.33233023 0.475112082,2.32259808 0.43455183,2.29891564 C0.393991568,2.27523319 0.35969788,2.23462698 0.333606727,2.17630404 C0.300685281,2.10271297 0.282997219,2.0068236 0.282997219,1.89169402 C0.282997219,1.34315599 0.672312013,0.661213161 1.14204487,0.386944148 C1.30855585,0.289721224 1.44777969,0.265226896 1.54197948,0.303948071 L1.5665407,0.316068569 Z" id="椭圆形" fill="#38373E"></path>
                                                <path d="M0.462252881,1.62412732 C0.462252881,1.97903928 0.708630323,2.1228951 1.01255421,1.94543912 C1.30381272,1.77537824 1.5422224,1.37193993 1.56158421,1.02624452 L1.56285377,0.981505207 C1.56285377,0.626595541 1.31647613,0.482740064 1.01255421,0.660194897 C0.708632289,0.837649731 0.462252881,1.26921765 0.462252881,1.62412732 Z" id="路径" fill="#DA4648"></path>
                                            </g>
                                            <g id="编组-99" stroke-width="0.5">
                                                <path d="M1.77975848,0.243087264 C2.25950309,-0.0370274394 2.69515861,-0.0687842951 3.01079638,0.115511224 C3.16964617,0.208260906 3.29718067,0.355430996 3.38445654,0.550523375 C3.47019473,0.742178529 3.51706739,0.979632674 3.51706739,1.25747234 L3.51706739,1.25747234 L3.51706739,11.0720646 C3.51706739,11.6459827 3.31727557,12.2816704 2.99525875,12.8457308 C2.67324194,13.4097912 2.22877563,13.9026175 1.7373089,14.1895766 C1.49938479,14.3284964 1.27260794,14.4061713 1.06561764,14.4269073 C0.85491508,14.4480151 0.665120779,14.4099023 0.506270996,14.3171526 C0.190633224,14.1328571 0,13.7354209 0,13.1751915 L0,13.1751915 L0,3.36059925 C0,2.21276303 0.796825013,0.817005373 1.77975848,0.243087264 Z" id="矩形" stroke="#8F9495" fill="#C4C6C8"></path>
                                                <path d="M1.82928299,10.6117906 C2.10222422,10.4524249 2.35375378,10.4198763 2.53677604,10.5267399 C2.62347528,10.5773621 2.69185471,10.6586311 2.7393473,10.7647938 C2.79078316,10.8797711 2.81769059,11.0224248 2.81769059,11.188905 C2.81769059,11.5532655 2.68926968,11.9562723 2.48498396,12.3141092 C2.28069823,12.6719461 1.99979937,12.9859237 1.68778439,13.168104 C1.41484316,13.3274697 1.1633136,13.3600182 0.980291338,13.2531546 C0.893592103,13.2025324 0.825212668,13.1212635 0.777720078,13.0151008 C0.726284218,12.9001235 0.699376783,12.7574698 0.699376783,12.5909896 C0.699376783,12.2266291 0.827797695,11.8236222 1.03208342,11.4657853 C1.23636915,11.1079485 1.51726801,10.7939708 1.82928299,10.6117906 Z" id="矩形备份-196" stroke="#767F84" fill="#3C3C3C"></path>
                                            </g>
                                        </g>
                                        <g id="主体" transform="translate(0.004670, 0.000000)">
                                            <path d="M16.6230411,0.00652928603 C16.3819821,0.0306782048 16.123355,0.121325743 15.8577837,0.27638828 L7.85341366,4.95000364 L7.78026606,4.99424399 C6.70471863,5.66749378 5.85232113,7.1949352 5.85232113,8.45521516 L5.85232113,61.7344303 L5.85425217,61.8367419 C5.86455625,62.1051815 5.91528809,62.3416019 6.00385981,62.539591 C6.10429732,62.7641042 6.2521903,62.9358445 6.43842757,63.0445852 C6.81326501,63.2634466 7.3179284,63.215495 7.85341366,62.9028341 L15.8577837,58.2292186 L15.9309313,58.1849783 C17.0064787,57.5117286 17.8588763,55.9842872 17.8588763,54.7240074 L17.8588763,1.44479212 L17.8569452,1.34248056 C17.8466412,1.07404096 17.7959093,0.837620615 17.7073376,0.63963156 C17.6069001,0.415118205 17.4590071,0.243377854 17.2727698,0.134637125 C17.0865326,0.0258963854 16.8655187,-0.0177617525 16.6230411,0.00652928603 Z M17.2303203,0.20899389 C17.4006496,0.308446309 17.5366439,0.466369305 17.6299864,0.675022644 C17.7138069,0.862391194 17.7622132,1.08797375 17.7720859,1.34496973 L17.7739849,1.44561471 L17.7739849,54.7240074 C17.7739849,55.9543691 16.9369437,57.454279 15.8868002,58.1116325 L15.8147691,58.1551977 L7.81096407,62.8284774 C7.29963289,63.127035 6.82643934,63.1719965 6.48087715,62.9702285 C6.31054771,62.870776 6.17455345,62.7128531 6.08121103,62.5041999 C5.99739046,62.3168313 5.94898422,62.0912488 5.93911154,61.8342527 L5.93721251,61.7336077 L5.93721251,8.45521516 C5.93721251,7.22485332 6.77425369,5.72494339 7.8243972,5.06758974 L7.89642828,5.02402457 L15.9002333,0.350745045 C16.15585,0.20149481 16.403069,0.114845768 16.63141,0.0919709116 C16.8317199,0.0719041768 17.0145551,0.101394541 17.17234,0.17804431 L17.2303203,0.20899389 Z" id="矩形备份-205" fill="#646667"></path>
                                            <path d="M8.31913247,5.20837606 L16.3235026,0.534760694 C17.4286755,-0.110530929 18.3245951,0.412581288 18.3245951,1.70316453 L18.3245951,54.9823795 C18.3245951,56.272963 17.4286755,57.8422995 16.3235026,58.4875912 L8.31913247,63.1612066 C7.21395959,63.8064982 6.31803995,63.283386 6.31803995,61.9928028 L6.31803995,8.71358758 C6.31803995,7.42300433 7.21395959,5.85366767 8.31913247,5.20837606 Z" id="矩形备份-202" fill="#858E93"></path>
                                            <polygon id="矩形" fill="#80888C" points="8.31913247 63.1612066 16.3235026 58.4875912 16.3235026 61.2917604 8.31913247 65.9653758"></polygon>
                                            <line x1="0" y1="63.4376016" x2="7.34973956" y2="63.4376016" id="路径-23" fill="#D8D8D8"></line>
                                        </g>
                                    </g>
                                    <g id="编组-98" transform="translate(9.706805, 5.227713)">
                                        <path d="M2.00109252,3.08056427 L6.8037146,0.276395045 C7.90888748,-0.368896577 8.80480712,0.15421564 8.80480712,1.44479889 L8.80480712,54.7240141 C8.80480712,56.0145974 7.90888748,57.5839339 6.8037146,58.2292255 L2.00109252,61.0333947 C0.895919639,61.6786863 0,61.155574 0,59.8649908 L0,6.58577579 C0,5.29519255 0.895919639,3.72585588 2.00109252,3.08056427 Z" id="矩形备份-193" fill="#6B7885"></path>
                                        <path d="M2.28408974,3.08056427 L7.08671182,0.276395045 C8.1918847,-0.368896577 9.08780434,0.15421564 9.08780434,1.44479889 L9.08780434,54.7240141 C9.08780434,56.0145974 8.1918847,57.5839339 7.08671182,58.2292255 L2.28408974,61.0333947 C1.17891686,61.6786863 0.282997219,61.155574 0.282997219,59.8649908 L0.282997219,6.58577579 C0.282997219,5.29519255 1.17891686,3.72585588 2.28408974,3.08056427 Z" id="矩形备份-203" fill="#DEDEDE"></path>
                                        <g id="LOGO" transform="translate(2.484199, 6.982801)">
                                            <path d="M3.04298481,0.00717249071 C2.77642351,0.0338761854 2.49232052,0.134038113 2.20120179,0.304017366 C0.980805556,1.01658594 0,2.73461291 0,4.15975005 C0,4.84107797 0.227184592,5.35713042 0.644717078,5.60092053 C1.06224957,5.84471064 1.61775615,5.78565824 2.20120178,5.44499427 C3.42159801,4.73242571 4.40240356,3.01439873 4.40240356,1.58926159 C4.40240356,0.90793367 4.17521897,0.391881221 3.75768649,0.148091113 C3.55196543,0.027974086 3.30834429,-0.0194108321 3.04298481,0.00717249071 Z M3.61618788,0.395946996 C3.93480688,0.581983205 4.11940634,1.00130305 4.11940634,1.58926159 C4.11940634,2.91214956 3.19253975,4.53569441 2.05970317,5.19713839 C1.5562131,5.49111766 1.10483469,5.53910086 0.786215689,5.35306465 C0.467596686,5.16702844 0.282997219,4.74770859 0.282997219,4.15975005 C0.282997219,2.83686208 1.20986381,1.21331724 2.34270039,0.551873252 C2.60074999,0.401202501 2.84692013,0.314413992 3.07088132,0.291977909 C3.25622021,0.273410931 3.42249853,0.299684049 3.56420887,0.3682551 L3.61618788,0.395946996 Z" id="椭圆形" fill="#595D69"></path>
                                            <path d="M2.20120178,4.97763273 C3.19585737,4.39687028 4.00218505,2.98446729 4.00218505,1.82294237 C4.00218505,0.661417444 3.19585737,0.19061644 2.20120178,0.771378916 C1.20654619,1.35214136 0.400218519,2.76454435 0.400218519,3.92606927 C0.400218519,5.0875942 1.20654619,5.5583952 2.20120178,4.97763273 Z" id="椭圆形备份-170" fill="#C92128"></path>
                                            <g transform="translate(0.610171, 1.264486)" fill="#FFFFFF" id="形状">
                                                <path d="M0.798298415,1.8647472 L0.800369121,1.8670532 C0.801476431,1.87053304 0.799995626,1.87619975 0.7988766,1.87959794 L0.797838133,1.88243692 L0.508375964,2.57053565 L0.503683152,2.58593889 L0.503683152,2.58593889 L0.501732117,2.60086757 L0.501732117,2.97773184 C0.50172126,2.98312165 0.499827368,2.98933701 0.497009987,2.99413486 L0.492211244,2.99998813 L0.307172173,3.14813044 C0.303666686,3.15093693 0.300603682,3.15047726 0.298951179,3.14746428 L0.297651302,3.14111897 L0.297651302,2.7642547 L0.295673358,2.75246655 L0.295673358,2.75246655 L0.29095802,2.74460049 L0.00190157147,2.51765628 C0.00077961659,2.51605222 -0.000718764358,2.51277065 0.000388543574,2.50751778 L0.00245924916,2.50189617 L0.00245924916,2.50189617 L0.00558893632,2.49774697 L0.156963869,2.37613068 L0.165653429,2.37221354 L0.165653429,2.37221354 L0.173178022,2.37352859 L0.394461656,2.53729428 C0.395866901,2.53819379 0.397645602,2.53807567 0.399553294,2.53695616 L0.403207915,2.5332513 L0.403207915,2.5332513 L0.406355329,2.5277722 L0.627609305,2.00971084 L0.635136912,1.99635612 L0.635136912,1.99635612 L0.643823458,1.98635082 L0.79516873,1.86560926 L0.798298415,1.8647472 Z M1.26100484,1.82037321 L1.26170951,1.82154163 L1.26117239,1.82523798 L1.24588314,1.88401603 L1.2273086,1.94241033 L1.2273086,1.94241033 L1.20562685,1.9998611 L1.18646392,2.05031837 C1.12728263,2.21444034 1.11482643,2.33966555 1.14230533,2.47976547 C1.11249136,2.49758088 1.08343245,2.50798425 1.0560895,2.51063156 C1.04725898,2.47004503 1.03915777,2.41777098 1.04869789,2.36273444 C1.06105667,2.29085356 1.06066245,2.24657286 1.04725898,2.22355348 C1.03799483,2.20782392 1.02353958,2.20333727 1.00327259,2.21002427 L0.986972955,2.21713348 L0.958716305,2.22925509 C0.940205871,2.23541913 0.922409802,2.23774135 0.905686293,2.23617499 L0.881450226,2.23090319 L0.877567065,2.22949789 L0.878984916,2.17986219 L0.883265809,2.13144406 L0.883265809,2.13144406 L0.8903793,2.0815584 L0.915327329,2.09113232 C0.966370038,2.10459984 1.02716158,2.08543613 1.08973614,2.03548905 C1.13749923,1.99754744 1.18445805,1.9429097 1.22764823,1.87505918 L1.25928792,1.82174832 L1.26100484,1.82037321 Z M0.99627887,2.29582461 L1.00370757,2.29938149 C1.00600193,2.30331306 1.00858013,2.31483144 1.00440803,2.34881316 L0.999903357,2.37874379 L0.995629154,2.41200286 C0.992446563,2.44466086 0.992543419,2.47537073 0.995961161,2.50282801 C0.940072995,2.48109048 0.900924561,2.41820423 0.885195312,2.32489881 C0.91409108,2.32659869 0.94548757,2.31868684 0.978083302,2.30149122 L0.98759242,2.29653979 L0.98759242,2.29653979 L0.99627887,2.29582461 Z M1.38367612,1.46736981 C1.40613816,1.47948035 1.4256298,1.49883548 1.4415377,1.52482615 C1.43146822,1.56012153 1.42328913,1.5954067 1.41711719,1.63011227 L1.40937924,1.68166476 L1.40217536,1.75204152 C1.39663933,1.79392699 1.38727058,1.83737979 1.37437254,1.88079007 L1.35695464,1.9309773 L1.35695464,1.9309773 L1.33707937,1.98001061 L1.3099472,2.0480918 C1.30155525,2.07079364 1.29421784,2.09330827 1.28914227,2.11504973 C1.26734374,2.20296306 1.26665975,2.28509291 1.28726972,2.33989398 C1.25772024,2.38005843 1.22667738,2.41423845 1.19525887,2.44120335 C1.16774974,2.31779686 1.17423357,2.21672156 1.22073837,2.08168024 L1.24313684,2.02156171 L1.26393425,1.96654685 C1.2954439,1.87842317 1.31166875,1.80812722 1.31978919,1.75549224 L1.32374636,1.72602924 L1.32758853,1.67311715 L1.34573993,1.62039186 L1.35919509,1.57573779 L1.37290887,1.52133419 L1.38367612,1.46736981 Z M1.47012848,1.59146224 L1.47838091,1.62553887 C1.51355249,1.8019681 1.45508127,2.06698287 1.33323573,2.27041892 C1.3187581,2.23097494 1.31962683,2.17203765 1.3356109,2.10927946 L1.35293266,2.0559023 L1.35293266,2.0559023 L1.37394875,2.00405701 L1.39015225,1.96485904 C1.40050254,1.93846642 1.40993393,1.91159241 1.41835759,1.88447621 C1.43187704,1.83882228 1.4421604,1.79313488 1.44896364,1.74870105 L1.4565279,1.68315138 L1.45928744,1.65576578 C1.46178135,1.6347551 1.46541038,1.6132295 1.47012848,1.59146224 Z M1.31535679,1.45279532 L1.33939541,1.45340752 C1.31863594,1.60804154 1.25115398,1.77222512 1.16277208,1.88313207 C1.07439017,1.99403902 0.97879015,2.03450054 0.910563343,1.98777967 C0.922055116,1.94391061 0.936289095,1.90016077 0.952941949,1.85752394 C1.00175928,1.88627073 1.06995094,1.85580319 1.13314958,1.77700846 C1.18166986,1.71680979 1.22262267,1.63374161 1.24689178,1.54629516 C1.2545244,1.51869121 1.26038115,1.4911283 1.26432614,1.46424604 L1.29028327,1.45641544 L1.29028327,1.45641544 L1.31535679,1.45279532 Z M2.20705917,0.742156264 L2.2083744,0.74857212 L2.2083744,0.863059836 L2.20706088,0.871573915 L2.20360964,0.87964524 L2.20360964,0.87964524 L2.19875466,0.88556244 L2.00219761,1.04292605 L2.00219761,1.77648931 C2.00217588,1.78230906 2.00012562,1.78901336 1.99708337,1.79417951 L1.99190558,1.80047231 L1.80686651,1.94861462 C1.80309141,1.95163697 1.79979003,1.95115131 1.79799891,1.94792063 L1.79657448,1.94111123 L1.79657448,1.20754796 L1.60001742,1.36491157 C1.5964734,1.36774333 1.59337491,1.36727913 1.59170302,1.364234 L1.5903878,1.35782001 L1.5903878,1.24333229 C1.5903878,1.23788502 1.59230495,1.23158766 1.59515817,1.22673364 L1.60001742,1.22082177 L2.19874478,0.741480559 C2.2022888,0.738643209 2.20538729,0.739109279 2.20705917,0.742156264 Z M1.21660586,1.48839337 C1.20501925,1.56178037 1.1749491,1.63826167 1.13501381,1.69591698 C1.10306557,1.74204122 1.06762519,1.77204332 1.03535364,1.7811593 L1.01184821,1.7840057 L0.999360418,1.78198267 L0.987741684,1.77735652 C1.05147901,1.64465136 1.13413311,1.54029258 1.21660586,1.48839337 Z M2.59575477,0.426027129 L2.59887842,0.429293823 L2.81214396,1.10206073 L2.81557464,1.11602988 C2.81602951,1.1208201 2.81515683,1.12674244 2.81314251,1.13253494 C2.81117365,1.13855876 2.80819364,1.1440993 2.80478827,1.1480675 L2.79913455,1.15364078 L2.79913455,1.15364078 L2.79344826,1.15866594 L2.64044203,1.28064609 L2.63524163,1.28177029 L2.63199849,1.28074616 L2.63199849,1.28074616 L2.62987316,1.27722414 L2.49973895,0.868758993 L2.49695666,0.863321282 C2.4944964,0.85958408 2.49044617,0.859208361 2.48600222,0.862305095 C2.48118677,0.865226898 2.47638073,0.871841909 2.47314953,0.879995474 L2.47039621,0.889866324 L2.47039621,0.889866324 L2.4680579,0.899723862 L2.3717027,1.34861521 L2.34129091,1.49677485 L2.33634757,1.51647569 L2.33338156,1.52318118 L2.32884358,1.52970155 L2.16557865,1.6606696 L2.16000877,1.6634271 C2.15749891,1.66402061 2.15537377,1.66304461 2.1539779,1.66065734 C2.15250609,1.65825311 2.15175623,1.65468204 2.15180888,1.65039636 L2.15263869,1.6411505 L2.15263869,1.6411505 L2.15420529,1.63155704 L2.36813324,0.614028455 L2.37128649,0.605736729 L2.37128649,0.605736729 L2.37593383,0.599622975 L2.59112727,0.427339071 L2.59575477,0.426027129 Z M3.12633271,0.00185699544 L3.12633271,0.889246272 C3.12633271,0.890905053 3.12549289,0.892922118 3.12445695,0.893751511 L2.92263479,1.05533036 C2.92159882,1.05615975 2.92075902,1.0554874 2.92075902,1.05382861 L2.92075902,0.166439335 L2.92263479,0.161934098 L3.12445695,0.000355249717 C3.12549289,-0.000474141603 3.12633271,0.000198212793 3.12633271,0.00185699544 Z"></path>
                                            </g>
                                        </g>
                                    </g>
                                </g>
                            </g>
                        </g>
                    </g>
                </g>
            </g>
        </g>
    </g>
</svg>