<?xml version="1.0" encoding="UTF-8"?>
<svg width="67px" height="80px" viewBox="0 0 67 80" version="1.1" xmlns="http://www.w3.org/2000/svg" xmlns:xlink="http://www.w3.org/1999/xlink">
    <title>icon_空调</title>
    <defs>
        <path d="M60.5385107,17.8271236 L46.4252109,25.9934138 C39.450044,30.0295748 35.1537698,37.4877471 35.1537698,45.5600691 L35.1537698,45.5600691 L35.1537698,62.2248946 C35.1537698,63.7753711 36.8280777,64.7441392 38.1686403,63.968901 L38.1686403,63.968901 L52.3288208,55.7757626 C59.3240794,51.7284149 63.6237022,44.2400386 63.6003572,36.1453432 L63.6003572,36.1453432 L63.5533813,19.5666552 C63.5500327,18.3931705 62.5878637,17.5541681 61.5397469,17.5541681 L61.5397469,17.5541681 C61.2048853,17.5541681 60.8622103,17.6403057 60.5385107,17.8271236" id="path-1"></path>
        <path d="M60.5385107,17.8271236 L46.4252109,25.9934138 C39.450044,30.0295748 35.1537698,37.4877471 35.1537698,45.5600691 L35.1537698,45.5600691 L35.1537698,62.2248946 C35.1537698,63.7753711 36.8280777,64.7441392 38.1686403,63.968901 L38.1686403,63.968901 L52.3288208,55.7757626 C59.3240794,51.7284149 63.6237022,44.2400386 63.6003572,36.1453432 L63.6003572,36.1453432 L63.5533813,19.5666552 C63.5500327,18.3931705 62.5878637,17.5541681 61.5397469,17.5541681 L61.5397469,17.5541681 C61.2048853,17.5541681 60.8622103,17.6403057 60.5385107,17.8271236 L60.5385107,17.8271236 Z" id="path-3"></path>
        <path d="M60.5385107,17.8271236 L46.4252109,25.9934138 C39.450044,30.0295748 35.1537698,37.4877471 35.1537698,45.5600691 L35.1537698,45.5600691 L35.1537698,62.2248946 C35.1537698,63.7753711 36.8280777,64.7441392 38.1686403,63.968901 L38.1686403,63.968901 L52.3288208,55.7757626 C59.3240794,51.7284149 63.6237022,44.2400386 63.6003572,36.1453432 L63.6003572,36.1453432 L63.5533813,19.5666552 C63.5500327,18.3931705 62.5878637,17.5541681 61.5397469,17.5541681 L61.5397469,17.5541681 C61.2048853,17.5541681 60.8622103,17.6403057 60.5385107,17.8271236" id="path-5"></path>
        <path d="M60.5385107,17.8271236 L46.4252109,25.9934138 C39.450044,30.0295748 35.1537698,37.4877471 35.1537698,45.5600691 L35.1537698,45.5600691 L35.1537698,62.2248946 C35.1537698,63.7753711 36.8280777,64.7441392 38.1686403,63.968901 L38.1686403,63.968901 L52.3288208,55.7757626 C59.3240794,51.7284149 63.6237022,44.2400386 63.6003572,36.1453432 L63.6003572,36.1453432 L63.5533813,19.5666552 C63.5500327,18.3931705 62.5878637,17.5541681 61.5397469,17.5541681 L61.5397469,17.5541681 C61.2048853,17.5541681 60.8622103,17.6403057 60.5385107,17.8271236" id="path-7"></path>
        <path d="M60.5385107,17.8271236 L46.4252109,25.9934138 C39.450044,30.0295748 35.1537698,37.4877471 35.1537698,45.5600691 L35.1537698,45.5600691 L35.1537698,62.2248946 C35.1537698,63.7753711 36.8280777,64.7441392 38.1686403,63.968901 L38.1686403,63.968901 L52.3288208,55.7757626 C59.3240794,51.7284149 63.6237022,44.2400386 63.6003572,36.1453432 L63.6003572,36.1453432 L63.5533813,19.5666552 C63.5500327,18.3931705 62.5878637,17.5541681 61.5397469,17.5541681 L61.5397469,17.5541681 C61.2048853,17.5541681 60.8622103,17.6403057 60.5385107,17.8271236" id="path-9"></path>
        <path d="M60.5385107,17.8271236 L46.4252109,25.9934138 C39.450044,30.0295748 35.1537698,37.4877471 35.1537698,45.5600691 L35.1537698,45.5600691 L35.1537698,62.2248946 C35.1537698,63.7753711 36.8280777,64.7441392 38.1686403,63.968901 L38.1686403,63.968901 L52.3288208,55.7757626 C59.3240794,51.7284149 63.6237022,44.2400386 63.6003572,36.1453432 L63.6003572,36.1453432 L63.5533813,19.5666552 C63.5500327,18.3931705 62.5878637,17.5541681 61.5397469,17.5541681 L61.5397469,17.5541681 C61.2048853,17.5541681 60.8622103,17.6403057 60.5385107,17.8271236" id="path-11"></path>
        <path d="M60.5385107,17.8271236 L46.4252109,25.9934138 C39.450044,30.0295748 35.1537698,37.4877471 35.1537698,45.5600691 L35.1537698,45.5600691 L35.1537698,62.2248946 C35.1537698,63.7753711 36.8280777,64.7441392 38.1686403,63.968901 L38.1686403,63.968901 L52.3288208,55.7757626 C59.3240794,51.7284149 63.6237022,44.2400386 63.6003572,36.1453432 L63.6003572,36.1453432 L63.5533813,19.5666552 C63.5500327,18.3931705 62.5878637,17.5541681 61.5397469,17.5541681 L61.5397469,17.5541681 C61.2048853,17.5541681 60.8622103,17.6403057 60.5385107,17.8271236" id="path-13"></path>
        <path d="M60.5385107,17.8271236 L46.4252109,25.9934138 C39.450044,30.0295748 35.1537698,37.4877471 35.1537698,45.5600691 L35.1537698,45.5600691 L35.1537698,62.2248946 C35.1537698,63.7753711 36.8280777,64.7441392 38.1686403,63.968901 L38.1686403,63.968901 L52.3288208,55.7757626 C59.3240794,51.7284149 63.6237022,44.2400386 63.6003572,36.1453432 L63.6003572,36.1453432 L63.5533813,19.5666552 C63.5500327,18.3931705 62.5878637,17.5541681 61.5397469,17.5541681 L61.5397469,17.5541681 C61.2048853,17.5541681 60.8622103,17.6403057 60.5385107,17.8271236" id="path-15"></path>
        <path d="M60.5385107,17.8271236 L46.4252109,25.9934138 C39.450044,30.0295748 35.1537698,37.4877471 35.1537698,45.5600691 L35.1537698,45.5600691 L35.1537698,62.2248946 C35.1537698,63.7753711 36.8280777,64.7441392 38.1686403,63.968901 L38.1686403,63.968901 L52.3288208,55.7757626 C59.3240794,51.7284149 63.6237022,44.2400386 63.6003572,36.1453432 L63.6003572,36.1453432 L63.5533813,19.5666552 C63.5500327,18.3931705 62.5878637,17.5541681 61.5397469,17.5541681 L61.5397469,17.5541681 C61.2048853,17.5541681 60.8622103,17.6403057 60.5385107,17.8271236" id="path-17"></path>
        <path d="M60.5385107,17.8271236 L46.4252109,25.9934138 C39.450044,30.0295748 35.1537698,37.4877471 35.1537698,45.5600691 L35.1537698,45.5600691 L35.1537698,62.2248946 C35.1537698,63.7753711 36.8280777,64.7441392 38.1686403,63.968901 L38.1686403,63.968901 L52.3288208,55.7757626 C59.3240794,51.7284149 63.6237022,44.2400386 63.6003572,36.1453432 L63.6003572,36.1453432 L63.5533813,19.5666552 C63.5500327,18.3931705 62.5878637,17.5541681 61.5397469,17.5541681 L61.5397469,17.5541681 C61.2048853,17.5541681 60.8622103,17.6403057 60.5385107,17.8271236" id="path-19"></path>
        <path d="M60.5385107,17.8271236 L46.4252109,25.9934138 C39.450044,30.0295748 35.1537698,37.4877471 35.1537698,45.5600691 L35.1537698,45.5600691 L35.1537698,62.2248946 C35.1537698,63.7753711 36.8280777,64.7441392 38.1686403,63.968901 L38.1686403,63.968901 L52.3288208,55.7757626 C59.3240794,51.7284149 63.6237022,44.2400386 63.6003572,36.1453432 L63.6003572,36.1453432 L63.5533813,19.5666552 C63.5500327,18.3931705 62.5878637,17.5541681 61.5397469,17.5541681 L61.5397469,17.5541681 C61.2048853,17.5541681 60.8622103,17.6403057 60.5385107,17.8271236 L60.5385107,17.8271236 Z" id="path-21"></path>
        <path d="M60.5385107,17.8271236 L46.4252109,25.9934138 C39.450044,30.0295748 35.1537698,37.4877471 35.1537698,45.5600691 L35.1537698,45.5600691 L35.1537698,62.2248946 C35.1537698,63.7753711 36.8280777,64.7441392 38.1686403,63.968901 L38.1686403,63.968901 L52.3288208,55.7757626 C59.3240794,51.7284149 63.6237022,44.2400386 63.6003572,36.1453432 L63.6003572,36.1453432 L63.5533813,19.5666552 C63.5500327,18.3931705 62.5878637,17.5541681 61.5397469,17.5541681 L61.5397469,17.5541681 C61.2048853,17.5541681 60.8622103,17.6403057 60.5385107,17.8271236 L60.5385107,17.8271236 Z" id="path-23"></path>
        <path d="M60.5385107,17.8271236 L46.4252109,25.9934138 C39.450044,30.0295748 35.1537698,37.4877471 35.1537698,45.5600691 L35.1537698,45.5600691 L35.1537698,62.2248946 C35.1537698,63.7753711 36.8280777,64.7441392 38.1686403,63.968901 L38.1686403,63.968901 L52.3288208,55.7757626 C59.3240794,51.7284149 63.6237022,44.2400386 63.6003572,36.1453432 L63.6003572,36.1453432 L63.5533813,19.5666552 C63.5500327,18.3931705 62.5878637,17.5541681 61.5397469,17.5541681 L61.5397469,17.5541681 C61.2048853,17.5541681 60.8622103,17.6403057 60.5385107,17.8271236" id="path-25"></path>
        <path d="M60.5385107,17.8271236 L46.4252109,25.9934138 C39.450044,30.0295748 35.1537698,37.4877471 35.1537698,45.5600691 L35.1537698,45.5600691 L35.1537698,62.2248946 C35.1537698,63.7753711 36.8280777,64.7441392 38.1686403,63.968901 L38.1686403,63.968901 L52.3288208,55.7757626 C59.3240794,51.7284149 63.6237022,44.2400386 63.6003572,36.1453432 L63.6003572,36.1453432 L63.5533813,19.5666552 C63.5500327,18.3931705 62.5878637,17.5541681 61.5397469,17.5541681 L61.5397469,17.5541681 C61.2048853,17.5541681 60.8622103,17.6403057 60.5385107,17.8271236 L60.5385107,17.8271236 Z" id="path-27"></path>
        <path d="M60.5385107,17.8271236 L46.4252109,25.9934138 C39.450044,30.0295748 35.1537698,37.4877471 35.1537698,45.5600691 L35.1537698,45.5600691 L35.1537698,62.2248946 C35.1537698,63.7753711 36.8280777,64.7441392 38.1686403,63.968901 L38.1686403,63.968901 L52.3288208,55.7757626 C59.3240794,51.7284149 63.6237022,44.2400386 63.6003572,36.1453432 L63.6003572,36.1453432 L63.5533813,19.5666552 C63.5500327,18.3931705 62.5878637,17.5541681 61.5397469,17.5541681 L61.5397469,17.5541681 C61.2048853,17.5541681 60.8622103,17.6403057 60.5385107,17.8271236" id="path-29"></path>
        <path d="M60.5385107,17.8271236 L46.4252109,25.9934138 C39.450044,30.0295748 35.1537698,37.4877471 35.1537698,45.5600691 L35.1537698,45.5600691 L35.1537698,62.2248946 C35.1537698,63.7753711 36.8280777,64.7441392 38.1686403,63.968901 L38.1686403,63.968901 L52.3288208,55.7757626 C59.3240794,51.7284149 63.6237022,44.2400386 63.6003572,36.1453432 L63.6003572,36.1453432 L63.5533813,19.5666552 C63.5500327,18.3931705 62.5878637,17.5541681 61.5397469,17.5541681 L61.5397469,17.5541681 C61.2048853,17.5541681 60.8622103,17.6403057 60.5385107,17.8271236" id="path-31"></path>
        <path d="M60.5385107,17.8271236 L46.4252109,25.9934138 C39.450044,30.0295748 35.1537698,37.4877471 35.1537698,45.5600691 L35.1537698,45.5600691 L35.1537698,62.2248946 C35.1537698,63.7753711 36.8280777,64.7441392 38.1686403,63.968901 L38.1686403,63.968901 L52.3288208,55.7757626 C59.3240794,51.7284149 63.6237022,44.2400386 63.6003572,36.1453432 L63.6003572,36.1453432 L63.5533813,19.5666552 C63.5500327,18.3931705 62.5878637,17.5541681 61.5397469,17.5541681 L61.5397469,17.5541681 C61.2048853,17.5541681 60.8622103,17.6403057 60.5385107,17.8271236 L60.5385107,17.8271236 Z" id="path-33"></path>
        <path d="M60.5385107,17.8271236 L46.4252109,25.9934138 C39.450044,30.0295748 35.1537698,37.4877471 35.1537698,45.5600691 L35.1537698,45.5600691 L35.1537698,62.2248946 C35.1537698,63.7753711 36.8280777,64.7441392 38.1686403,63.968901 L38.1686403,63.968901 L52.3288208,55.7757626 C59.3240794,51.7284149 63.6237022,44.2400386 63.6003572,36.1453432 L63.6003572,36.1453432 L63.5533813,19.5666552 C63.5500327,18.3931705 62.5878637,17.5541681 61.5397469,17.5541681 L61.5397469,17.5541681 C61.2048853,17.5541681 60.8622103,17.6403057 60.5385107,17.8271236 L60.5385107,17.8271236 Z" id="path-35"></path>
        <path d="M60.5385107,17.8271236 L46.4252109,25.9934138 C39.450044,30.0295748 35.1537698,37.4877471 35.1537698,45.5600691 L35.1537698,45.5600691 L35.1537698,62.2248946 C35.1537698,63.7753711 36.8280777,64.7441392 38.1686403,63.968901 L38.1686403,63.968901 L52.3288208,55.7757626 C59.3240794,51.7284149 63.6237022,44.2400386 63.6003572,36.1453432 L63.6003572,36.1453432 L63.5533813,19.5666552 C63.5500327,18.3931705 62.5878637,17.5541681 61.5397469,17.5541681 L61.5397469,17.5541681 C61.2048853,17.5541681 60.8622103,17.6403057 60.5385107,17.8271236 L60.5385107,17.8271236 Z" id="path-37"></path>
        <path d="M60.5385107,17.8271236 L46.4252109,25.9934138 C39.450044,30.0295748 35.1537698,37.4877471 35.1537698,45.5600691 L35.1537698,45.5600691 L35.1537698,62.2248946 C35.1537698,63.7753711 36.8280777,64.7441392 38.1686403,63.968901 L38.1686403,63.968901 L52.3288208,55.7757626 C59.3240794,51.7284149 63.6237022,44.2400386 63.6003572,36.1453432 L63.6003572,36.1453432 L63.5533813,19.5666552 C63.5500327,18.3931705 62.5878637,17.5541681 61.5397469,17.5541681 L61.5397469,17.5541681 C61.2048853,17.5541681 60.8622103,17.6403057 60.5385107,17.8271236 L60.5385107,17.8271236 Z" id="path-39"></path>
        <path d="M60.5385107,17.8271236 L46.4252109,25.9934138 C39.450044,30.0295748 35.1537698,37.4877471 35.1537698,45.5600691 L35.1537698,45.5600691 L35.1537698,62.2248946 C35.1537698,63.7753711 36.8280777,64.7441392 38.1686403,63.968901 L38.1686403,63.968901 L52.3288208,55.7757626 C59.3240794,51.7284149 63.6237022,44.2400386 63.6003572,36.1453432 L63.6003572,36.1453432 L63.5533813,19.5666552 C63.5500327,18.3931705 62.5878637,17.5541681 61.5397469,17.5541681 L61.5397469,17.5541681 C61.2048853,17.5541681 60.8622103,17.6403057 60.5385107,17.8271236 L60.5385107,17.8271236 Z" id="path-41"></path>
        <path d="M60.5385107,17.8271236 L46.4252109,25.9934138 C39.450044,30.0295748 35.1537698,37.4877471 35.1537698,45.5600691 L35.1537698,45.5600691 L35.1537698,62.2248946 C35.1537698,63.7753711 36.8280777,64.7441392 38.1686403,63.968901 L38.1686403,63.968901 L52.3288208,55.7757626 C59.3240794,51.7284149 63.6237022,44.2400386 63.6003572,36.1453432 L63.6003572,36.1453432 L63.5533813,19.5666552 C63.5500327,18.3931705 62.5878637,17.5541681 61.5397469,17.5541681 L61.5397469,17.5541681 C61.2048853,17.5541681 60.8622103,17.6403057 60.5385107,17.8271236 L60.5385107,17.8271236 Z" id="path-43"></path>
        <path d="M60.5385107,17.8271236 L46.4252109,25.9934138 C39.450044,30.0295748 35.1537698,37.4877471 35.1537698,45.5600691 L35.1537698,45.5600691 L35.1537698,62.2248946 C35.1537698,63.7753711 36.8280777,64.7441392 38.1686403,63.968901 L38.1686403,63.968901 L52.3288208,55.7757626 C59.3240794,51.7284149 63.6237022,44.2400386 63.6003572,36.1453432 L63.6003572,36.1453432 L63.5533813,19.5666552 C63.5500327,18.3931705 62.5878637,17.5541681 61.5397469,17.5541681 L61.5397469,17.5541681 C61.2048853,17.5541681 60.8622103,17.6403057 60.5385107,17.8271236" id="path-45"></path>
        <path d="M60.5385107,17.8271236 L46.4252109,25.9934138 C39.450044,30.0295748 35.1537698,37.4877471 35.1537698,45.5600691 L35.1537698,45.5600691 L35.1537698,62.2248946 C35.1537698,63.7753711 36.8280777,64.7441392 38.1686403,63.968901 L38.1686403,63.968901 L52.3288208,55.7757626 C59.3240794,51.7284149 63.6237022,44.2400386 63.6003572,36.1453432 L63.6003572,36.1453432 L63.5533813,19.5666552 C63.5500327,18.3931705 62.5878637,17.5541681 61.5397469,17.5541681 L61.5397469,17.5541681 C61.2048853,17.5541681 60.8622103,17.6403057 60.5385107,17.8271236" id="path-47"></path>
        <path d="M60.5385107,17.8271236 L46.4252109,25.9934138 C39.450044,30.0295748 35.1537698,37.4877471 35.1537698,45.5600691 L35.1537698,45.5600691 L35.1537698,62.2248946 C35.1537698,63.7753711 36.8280777,64.7441392 38.1686403,63.968901 L38.1686403,63.968901 L52.3288208,55.7757626 C59.3240794,51.7284149 63.6237022,44.2400386 63.6003572,36.1453432 L63.6003572,36.1453432 L63.5533813,19.5666552 C63.5500327,18.3931705 62.5878637,17.5541681 61.5397469,17.5541681 L61.5397469,17.5541681 C61.2048853,17.5541681 60.8622103,17.6403057 60.5385107,17.8271236" id="path-49"></path>
        <path d="M60.5385107,17.8271236 L46.4252109,25.9934138 C39.450044,30.0295748 35.1537698,37.4877471 35.1537698,45.5600691 L35.1537698,45.5600691 L35.1537698,62.2248946 C35.1537698,63.7753711 36.8280777,64.7441392 38.1686403,63.968901 L38.1686403,63.968901 L52.3288208,55.7757626 C59.3240794,51.7284149 63.6237022,44.2400386 63.6003572,36.1453432 L63.6003572,36.1453432 L63.5533813,19.5666552 C63.5500327,18.3931705 62.5878637,17.5541681 61.5397469,17.5541681 L61.5397469,17.5541681 C61.2048853,17.5541681 60.8622103,17.6403057 60.5385107,17.8271236" id="path-51"></path>
        <path d="M60.5385107,17.8271236 L46.4252109,25.9934138 C39.450044,30.0295748 35.1537698,37.4877471 35.1537698,45.5600691 L35.1537698,45.5600691 L35.1537698,62.2248946 C35.1537698,63.7753711 36.8280777,64.7441392 38.1686403,63.968901 L38.1686403,63.968901 L52.3288208,55.7757626 C59.3240794,51.7284149 63.6237022,44.2400386 63.6003572,36.1453432 L63.6003572,36.1453432 L63.5533813,19.5666552 C63.5500327,18.3931705 62.5878637,17.5541681 61.5397469,17.5541681 L61.5397469,17.5541681 C61.2048853,17.5541681 60.8622103,17.6403057 60.5385107,17.8271236" id="path-53"></path>
        <path d="M60.5385107,17.8271236 L46.4252109,25.9934138 C39.450044,30.0295748 35.1537698,37.4877471 35.1537698,45.5600691 L35.1537698,45.5600691 L35.1537698,62.2248946 C35.1537698,63.7753711 36.8280777,64.7441392 38.1686403,63.968901 L38.1686403,63.968901 L52.3288208,55.7757626 C59.3240794,51.7284149 63.6237022,44.2400386 63.6003572,36.1453432 L63.6003572,36.1453432 L63.5533813,19.5666552 C63.5500327,18.3931705 62.5878637,17.5541681 61.5397469,17.5541681 L61.5397469,17.5541681 C61.2048853,17.5541681 60.8622103,17.6403057 60.5385107,17.8271236" id="path-55"></path>
        <path d="M60.5385107,17.8271236 L46.4252109,25.9934138 C39.450044,30.0295748 35.1537698,37.4877471 35.1537698,45.5600691 L35.1537698,45.5600691 L35.1537698,62.2248946 C35.1537698,63.7753711 36.8280777,64.7441392 38.1686403,63.968901 L38.1686403,63.968901 L52.3288208,55.7757626 C59.3240794,51.7284149 63.6237022,44.2400386 63.6003572,36.1453432 L63.6003572,36.1453432 L63.5533813,19.5666552 C63.5500327,18.3931705 62.5878637,17.5541681 61.5397469,17.5541681 L61.5397469,17.5541681 C61.2048853,17.5541681 60.8622103,17.6403057 60.5385107,17.8271236" id="path-57"></path>
        <path d="M60.5385107,17.8271236 L46.4252109,25.9934138 C39.450044,30.0295748 35.1537698,37.4877471 35.1537698,45.5600691 L35.1537698,45.5600691 L35.1537698,62.2248946 C35.1537698,63.7753711 36.8280777,64.7441392 38.1686403,63.968901 L38.1686403,63.968901 L52.3288208,55.7757626 C59.3240794,51.7284149 63.6237022,44.2400386 63.6003572,36.1453432 L63.6003572,36.1453432 L63.5533813,19.5666552 C63.5500327,18.3931705 62.5878637,17.5541681 61.5397469,17.5541681 L61.5397469,17.5541681 C61.2048853,17.5541681 60.8622103,17.6403057 60.5385107,17.8271236" id="path-59"></path>
        <path d="M60.5385107,17.8271236 L46.4252109,25.9934138 C39.450044,30.0295748 35.1537698,37.4877471 35.1537698,45.5600691 L35.1537698,45.5600691 L35.1537698,62.2248946 C35.1537698,63.7753711 36.8280777,64.7441392 38.1686403,63.968901 L38.1686403,63.968901 L52.3288208,55.7757626 C59.3240794,51.7284149 63.6237022,44.2400386 63.6003572,36.1453432 L63.6003572,36.1453432 L63.5533813,19.5666552 C63.5500327,18.3931705 62.5878637,17.5541681 61.5397469,17.5541681 L61.5397469,17.5541681 C61.2048853,17.5541681 60.8622103,17.6403057 60.5385107,17.8271236" id="path-61"></path>
        <path d="M60.5385107,17.8271236 L46.4252109,25.9934138 C39.450044,30.0295748 35.1537698,37.4877471 35.1537698,45.5600691 L35.1537698,45.5600691 L35.1537698,62.2248946 C35.1537698,63.7753711 36.8280777,64.7441392 38.1686403,63.968901 L38.1686403,63.968901 L52.3288208,55.7757626 C59.3240794,51.7284149 63.6237022,44.2400386 63.6003572,36.1453432 L63.6003572,36.1453432 L63.5533813,19.5666552 C63.5500327,18.3931705 62.5878637,17.5541681 61.5397469,17.5541681 L61.5397469,17.5541681 C61.2048853,17.5541681 60.8622103,17.6403057 60.5385107,17.8271236" id="path-63"></path>
        <path d="M60.5385107,17.8271236 L46.4252109,25.9934138 C39.450044,30.0295748 35.1537698,37.4877471 35.1537698,45.5600691 L35.1537698,45.5600691 L35.1537698,62.2248946 C35.1537698,63.7753711 36.8280777,64.7441392 38.1686403,63.968901 L38.1686403,63.968901 L52.3288208,55.7757626 C59.3240794,51.7284149 63.6237022,44.2400386 63.6003572,36.1453432 L63.6003572,36.1453432 L63.5533813,19.5666552 C63.5500327,18.3931705 62.5878637,17.5541681 61.5397469,17.5541681 L61.5397469,17.5541681 C61.2048853,17.5541681 60.8622103,17.6403057 60.5385107,17.8271236" id="path-65"></path>
        <path d="M60.5385107,17.8271236 L46.4252109,25.9934138 C39.450044,30.0295748 35.1537698,37.4877471 35.1537698,45.5600691 L35.1537698,45.5600691 L35.1537698,62.2248946 C35.1537698,63.7753711 36.8280777,64.7441392 38.1686403,63.968901 L38.1686403,63.968901 L52.3288208,55.7757626 C59.3240794,51.7284149 63.6237022,44.2400386 63.6003572,36.1453432 L63.6003572,36.1453432 L63.5533813,19.5666552 C63.5500327,18.3931705 62.5878637,17.5541681 61.5397469,17.5541681 L61.5397469,17.5541681 C61.2048853,17.5541681 60.8622103,17.6403057 60.5385107,17.8271236 L60.5385107,17.8271236 Z" id="path-67"></path>
        <path d="M60.5385107,17.8271236 L46.4252109,25.9934138 C39.450044,30.0295748 35.1537698,37.4877471 35.1537698,45.5600691 L35.1537698,45.5600691 L35.1537698,62.2248946 C35.1537698,63.7753711 36.8280777,64.7441392 38.1686403,63.968901 L38.1686403,63.968901 L52.3288208,55.7757626 C59.3240794,51.7284149 63.6237022,44.2400386 63.6003572,36.1453432 L63.6003572,36.1453432 L63.5533813,19.5666552 C63.5500327,18.3931705 62.5878637,17.5541681 61.5397469,17.5541681 L61.5397469,17.5541681 C61.2048853,17.5541681 60.8622103,17.6403057 60.5385107,17.8271236 L60.5385107,17.8271236 Z" id="path-69"></path>
        <path d="M60.5385107,17.8271236 L46.4252109,25.9934138 C39.450044,30.0295748 35.1537698,37.4877471 35.1537698,45.5600691 L35.1537698,45.5600691 L35.1537698,62.2248946 C35.1537698,63.7753711 36.8280777,64.7441392 38.1686403,63.968901 L38.1686403,63.968901 L52.3288208,55.7757626 C59.3240794,51.7284149 63.6237022,44.2400386 63.6003572,36.1453432 L63.6003572,36.1453432 L63.5533813,19.5666552 C63.5500327,18.3931705 62.5878637,17.5541681 61.5397469,17.5541681 L61.5397469,17.5541681 C61.2048853,17.5541681 60.8622103,17.6403057 60.5385107,17.8271236" id="path-71"></path>
        <path d="M60.5385107,17.8271236 L46.4252109,25.9934138 C39.450044,30.0295748 35.1537698,37.4877471 35.1537698,45.5600691 L35.1537698,45.5600691 L35.1537698,62.2248946 C35.1537698,63.7753711 36.8280777,64.7441392 38.1686403,63.968901 L38.1686403,63.968901 L52.3288208,55.7757626 C59.3240794,51.7284149 63.6237022,44.2400386 63.6003572,36.1453432 L63.6003572,36.1453432 L63.5533813,19.5666552 C63.5500327,18.3931705 62.5878637,17.5541681 61.5397469,17.5541681 L61.5397469,17.5541681 C61.2048853,17.5541681 60.8622103,17.6403057 60.5385107,17.8271236" id="path-73"></path>
        <path d="M60.5385107,17.8271236 L46.4252109,25.9934138 C39.450044,30.0295748 35.1537698,37.4877471 35.1537698,45.5600691 L35.1537698,45.5600691 L35.1537698,62.2248946 C35.1537698,63.7753711 36.8280777,64.7441392 38.1686403,63.968901 L38.1686403,63.968901 L52.3288208,55.7757626 C59.3240794,51.7284149 63.6237022,44.2400386 63.6003572,36.1453432 L63.6003572,36.1453432 L63.5533813,19.5666552 C63.5500327,18.3931705 62.5878637,17.5541681 61.5397469,17.5541681 L61.5397469,17.5541681 C61.2048853,17.5541681 60.8622103,17.6403057 60.5385107,17.8271236" id="path-75"></path>
        <path d="M60.5385107,17.8271236 L46.4252109,25.9934138 C39.450044,30.0295748 35.1537698,37.4877471 35.1537698,45.5600691 L35.1537698,45.5600691 L35.1537698,62.2248946 C35.1537698,63.7753711 36.8280777,64.7441392 38.1686403,63.968901 L38.1686403,63.968901 L52.3288208,55.7757626 C59.3240794,51.7284149 63.6237022,44.2400386 63.6003572,36.1453432 L63.6003572,36.1453432 L63.5533813,19.5666552 C63.5500327,18.3931705 62.5878637,17.5541681 61.5397469,17.5541681 L61.5397469,17.5541681 C61.2048853,17.5541681 60.8622103,17.6403057 60.5385107,17.8271236" id="path-77"></path>
        <path d="M60.5385107,17.8271236 L46.4252109,25.9934138 C39.450044,30.0295748 35.1537698,37.4877471 35.1537698,45.5600691 L35.1537698,45.5600691 L35.1537698,62.2248946 C35.1537698,63.7753711 36.8280777,64.7441392 38.1686403,63.968901 L38.1686403,63.968901 L52.3288208,55.7757626 C59.3240794,51.7284149 63.6237022,44.2400386 63.6003572,36.1453432 L63.6003572,36.1453432 L63.5533813,19.5666552 C63.5500327,18.3931705 62.5878637,17.5541681 61.5397469,17.5541681 L61.5397469,17.5541681 C61.2048853,17.5541681 60.8622103,17.6403057 60.5385107,17.8271236" id="path-79"></path>
        <path d="M60.5385107,17.8271236 L46.4252109,25.9934138 C39.450044,30.0295748 35.1537698,37.4877471 35.1537698,45.5600691 L35.1537698,45.5600691 L35.1537698,62.2248946 C35.1537698,63.7753711 36.8280777,64.7441392 38.1686403,63.968901 L38.1686403,63.968901 L52.3288208,55.7757626 C59.3240794,51.7284149 63.6237022,44.2400386 63.6003572,36.1453432 L63.6003572,36.1453432 L63.5533813,19.5666552 C63.5500327,18.3931705 62.5878637,17.5541681 61.5397469,17.5541681 L61.5397469,17.5541681 C61.2048853,17.5541681 60.8622103,17.6403057 60.5385107,17.8271236" id="path-81"></path>
        <path d="M60.5385107,17.8271236 L46.4252109,25.9934138 C39.450044,30.0295748 35.1537698,37.4877471 35.1537698,45.5600691 L35.1537698,45.5600691 L35.1537698,62.2248946 C35.1537698,63.7753711 36.8280777,64.7441392 38.1686403,63.968901 L38.1686403,63.968901 L52.3288208,55.7757626 C59.3240794,51.7284149 63.6237022,44.2400386 63.6003572,36.1453432 L63.6003572,36.1453432 L63.5533813,19.5666552 C63.5500327,18.3931705 62.5878637,17.5541681 61.5397469,17.5541681 L61.5397469,17.5541681 C61.2048853,17.5541681 60.8622103,17.6403057 60.5385107,17.8271236" id="path-83"></path>
    </defs>
    <g id="光储充及工商储管理系统V1.3" stroke="none" stroke-width="1" fill="none" fill-rule="evenodd">
        <g id="3_2_7.设备监视_示范站站点拓扑_用电设备能量流" transform="translate(-1439.000000, -814.000000)">
            <g id="main" transform="translate(212.000000, 102.000000)">
                <g transform="translate(44.000000, 40.000000)" id="空调">
                    <g transform="translate(1178.000000, 672.000000)">
                        <g id="icon_空调" transform="translate(5.000000, 0.000000)">
                            <polygon id="Fill-251" fill="#B3B3B3" points="16.1532766 80 0.116755075 70.660225 0.000669723179 29.4204591 16.0360751 38.7602341"></polygon>
                            <polygon id="Fill-255" fill="#F1F1F1" points="16.0365216 38.7607934 0 29.4210184 50.8465001 0 66.8830217 9.33977501"></polygon>
                            <polygon id="Fill-257" fill="#FAFAFA" points="66.8824636 9.33966314 16.0370797 38.7606815 0.000558102649 29.4209065 0.65688682 29.0405588 16.1274923 38.0492075 66.3154313 9.00853685"></polygon>
                            <polygon id="Fill-259" fill="#D9D9D9" points="66.8827984 9.33988687 67 50.5796528 16.1534999 79.9995525 16.0362983 38.7609053"></polygon>
                            <path d="M36.0463992,66.3800821 C34.6355157,66.3800821 33.4869404,65.2289708 33.4869404,63.814972 L33.4869404,32.9061226 C33.4869404,31.993288 33.9769545,31.1430989 34.7649955,30.6866815 L61.1643671,15.4123627 C61.5561551,15.1852727 61.9970562,15.065575 62.4390735,15.065575 C63.8466084,15.065575 64.9940675,16.2133304 64.9985323,17.6228544 L65.0856039,48.4824823 C65.0878287,49.3975543 64.5989308,50.2499808 63.8075412,50.7075168 L37.3211056,66.0332944 C36.9293175,66.2603844 36.4884165,66.3800821 36.0463992,66.3800821 Z" id="Fill-261" fill="#979797"></path>
                            <path d="M36.7978286,65.4728408 L63.2842642,50.1470631 C63.9595684,49.7566473 64.3747968,49.0328679 64.3725733,48.2520363 L64.2855003,17.3924084 C64.2810355,15.7155222 62.4694343,14.6706846 61.0194836,15.509687 L34.6212282,30.7851245 C33.9470402,31.1744216 33.5329281,31.894845 33.5329281,32.6734393 L33.5329281,63.5834073 C33.5329281,65.2625309 35.3467617,66.3129619 36.7978286,65.4728408" id="Fill-263" fill="#B7B7B7"></path>
                            <path d="M61.4481064,17.574416 C62.0296494,17.574416 62.6547244,18.0162906 62.7138833,18.7378327 L63.5476886,19.4202214 C63.5476886,17.3495634 62.4638533,16.8316192 61.4481064,16.8316192 C61.1132449,16.8316192 60.7694536,16.9166381 60.4457541,17.1045747 L45.7855137,25.5919232 C38.8103467,29.6269655 34.5140725,37.0862564 34.5140725,45.1574598 L34.5140725,62.5964049 C34.5140725,63.7721269 35.4773577,64.6144854 36.5277069,64.6144854 C36.8625685,64.6144854 37.2052435,64.5283478 37.528943,64.3415299 L38.3069381,63.8895873 L38.0959753,63.104281 L37.1583629,63.6982947 C36.9596783,63.8135177 36.7475993,63.8716886 36.5277069,63.8716886 C35.9160264,63.8716886 35.2552328,63.3839485 35.2552328,62.5964049 L35.2552328,45.1574598 C35.2552328,41.327134 36.2653986,37.5493858 38.1763421,34.2325295 C40.0872856,30.9156733 42.8465451,28.1503213 46.1560938,26.2351584 L60.8163342,17.7478099 C61.016135,17.6325869 61.228214,17.574416 61.4481064,17.574416" id="Fill-265" fill="#D9D9D9"></path>
                            <path d="M60.2124672,44.9588959 C59.9389969,45.5529096 59.6409701,46.1357366 59.3139219,46.7051396 C58.9757117,47.2957973 58.6084802,47.8674376 58.2166921,48.4222979 L59.118586,48.4222979 C59.510374,47.8361149 59.8764894,47.2331518 60.2124672,46.6145273 L60.2124672,44.9588959 Z" id="Fill-267" fill="#D9D9D9"></path>
                            <mask id="mask-2" fill="white">
                                <use xlink:href="#path-1"></use>
                            </mask>
                            <g id="Clip-270"></g>
                            <path d="M61.568545,34.0620442 C61.568545,26.4058674 56.2051785,23.3026771 49.5894297,27.1307655 C42.9736809,30.9588539 37.6114306,40.2684248 37.6114306,47.9246016 C37.6114306,55.5796598 42.9747971,58.6828501 49.5905459,54.8547617 C56.2051785,51.027792 61.568545,41.718221 61.568545,34.0620442" id="Fill-269" fill="#333333" mask="url(#mask-2)"></path>
                            <mask id="mask-4" fill="white">
                                <use xlink:href="#path-3"></use>
                            </mask>
                            <g id="Clip-272"></g>
                            <path d="M49.4377374,42.720773 L50.7180249,39.4083914 L48.1429393,40.8984597 L49.4377374,42.720773 Z M57.433116,36.3812707 C58.0023807,37.1061688 58.1854384,38.3210443 57.9979159,39.6321254 C57.6273357,42.2106595 56.2064064,44.920078 55.5657045,45.8642354 C54.3881079,47.5992924 53.4917951,48.4338202 52.800864,48.8331853 C52.1668594,49.2001091 51.7069828,49.2001091 51.3631915,49.1956344 C50.8742936,49.1889224 50.3731174,48.9159669 50.0840203,48.5311445 C49.8797547,48.2604264 49.7257184,47.8297384 49.679954,47.4079999 C49.5158718,45.9201689 50.3876281,44.0508715 50.2581483,43.6201836 C50.2034542,43.4389591 49.9969563,43.4244164 49.7681342,43.4714005 C49.6553974,44.7142428 48.9533043,46.9101918 47.8917931,48.7067756 C47.2477426,49.7963601 46.3536622,50.7494669 45.4540007,51.3020898 C45.4138173,51.3267006 45.3725177,51.3513113 45.3323343,51.3748034 C44.2987282,51.9732918 43.2662383,52.0963454 42.487127,51.7842365 C40.8965344,51.145476 40.1866279,49.1889224 40.0738911,48.3253092 C39.6787544,45.2825271 40.8117028,43.7499493 41.4881232,42.8572507 C41.9479998,42.2475756 42.6210716,41.6401379 43.1780581,41.3067742 C43.6033323,41.0595482 44.0509306,40.9074091 44.3980705,40.8794423 C45.6671959,40.7776434 46.2599009,41.9914002 46.7041506,41.8593972 C46.7309395,41.8515665 46.7577285,41.8392611 46.7856336,41.8235997 C46.9485996,41.7285128 47.119379,41.5047788 47.2711829,41.2586714 C46.4440748,41.0338188 45.4484197,40.0079985 45.0890015,38.5604396 C44.8713415,37.6834024 44.9885431,36.5032057 45.4115849,35.343145 C45.9161097,33.9582317 46.8157711,32.5968104 47.8136587,31.6112622 C48.6005834,30.8315493 49.4154133,30.2453663 50.1565736,29.815797 C51.2638493,29.1759178 52.208159,28.8861823 52.6591059,28.8380795 C55.3112097,28.5517 55.4060872,30.0708538 55.4473867,30.9736204 C55.4752919,31.5911262 55.3045125,32.4715194 55.0366232,33.1885868 C54.8457521,33.6964629 54.5332146,34.2882393 54.2206771,34.7390633 C53.1145177,36.3286932 51.6511725,36.9853524 51.3364026,37.5480434 C51.2046904,37.7840827 51.208039,38.0559195 51.2582682,38.2964335 C51.8197195,37.6901145 52.6490601,37.0300992 53.5286298,36.5211044 C54.1246835,36.1754354 54.7430612,35.9002426 55.3179069,35.7592902 C56.1796174,35.5478616 56.9564963,35.7749516 57.433116,36.3812707 L57.433116,36.3812707 Z" id="Fill-271" fill="#4D4D4D" mask="url(#mask-4)"></path>
                            <mask id="mask-6" fill="white">
                                <use xlink:href="#path-5"></use>
                            </mask>
                            <g id="Clip-274"></g>
                            <path d="M61.5400818,17.5546156 C61.2052202,17.5546156 60.8614289,17.6407531 60.5377294,17.827571 L46.4244296,25.9938613 C39.4503788,30.0300223 35.1529884,37.4881945 35.1529884,45.5593979 L35.1529884,62.2242234 C35.1529884,63.3999455 36.1162736,64.2423039 37.1666228,64.2423039 C37.5014844,64.2423039 37.8452756,64.1561663 38.1689752,63.9693484 L52.3291556,55.7750914 C59.323298,51.7277437 63.6229209,44.2393674 63.6006833,36.1457907 L63.5537161,19.5671027 C63.5503675,18.3924993 62.5881985,17.5546156 61.5400818,17.5546156 M61.5400818,18.3153111 C62.1417164,18.3153111 62.7924641,18.7941018 62.7946965,19.5693401 L62.8416693,36.148028 C62.8527392,39.9850658 61.8492706,43.772882 59.9394434,47.0986877 C58.0284999,50.4256119 55.2658918,53.197676 51.9496458,55.1173135 L37.7894654,63.3104519 C37.5930132,63.4245562 37.3842828,63.4816084 37.1666228,63.4816084 C36.5627557,63.4816084 35.912008,63.0005803 35.912008,62.2242234 L35.912008,45.5593979 C35.912008,41.7324281 36.9210576,37.9580359 38.8297687,34.643417 C40.739596,31.3287981 43.4966231,28.5656834 46.8039394,26.6516392 L60.9172392,18.4853489 C61.1136913,18.3723633 61.3224217,18.3153111 61.5400818,18.3153111" id="Fill-273" fill="#F2F2F2" mask="url(#mask-6)"></path>
                            <mask id="mask-8" fill="white">
                                <use xlink:href="#path-7"></use>
                            </mask>
                            <g id="Clip-276"></g>
                            <path d="M50.124985,39.1324156 C49.9329977,39.1324156 49.7175701,39.1984171 49.4898642,39.3304201 C49.0913789,39.5608661 48.7152177,39.9602313 48.4305854,40.4535647 C48.145953,40.9468981 47.9896843,41.472673 47.9896843,41.9346837 C47.9896843,42.3709649 48.1303261,42.6920232 48.3848209,42.8396876 C48.6393157,42.987352 48.9864556,42.9481986 49.363733,42.7289393 C49.7622183,42.4984933 50.1383795,42.1002468 50.4230118,41.6069134 C50.9878117,40.6258399 51.0090196,39.5328994 50.4698924,39.2196718 C50.3683178,39.161501 50.2522324,39.1324156 50.124985,39.1324156 M48.7286122,43.1808819 C48.5578328,43.1808819 48.3993316,43.1406098 48.2575735,43.0589469 C47.9215957,42.8642983 47.7374219,42.4649332 47.7374219,41.9346837 C47.7374219,41.4290449 47.9059689,40.8585232 48.2118091,40.327155 C48.5176494,39.7957868 48.9272967,39.3628616 49.363733,39.1111608 C49.8224934,38.8449174 50.2600458,38.8068826 50.5960236,39.0004125 C51.2769089,39.395303 51.2981168,40.5956358 50.6417881,41.7333231 C50.3359478,42.2646913 49.9263005,42.6964979 49.4898642,42.9493173 C49.2242073,43.102575 48.9641315,43.1808819 48.7286122,43.1808819" id="Fill-275" fill="#EFEFEF" mask="url(#mask-8)"></path>
                            <mask id="mask-10" fill="white">
                                <use xlink:href="#path-9"></use>
                            </mask>
                            <g id="Clip-278"></g>
                            <path d="M48.4151817,40.3323009 C47.7789447,41.4353094 47.758853,42.6210995 48.3694173,42.9734805 C48.6529335,43.137925 49.0402567,43.0954156 49.4588337,42.8526642 C49.8997348,42.5976074 50.3149631,42.1579702 50.6286168,41.6131779 C51.2648539,40.5090507 51.2860618,39.3232606 50.6754975,38.9708796 C50.0649332,38.6173799 49.0514187,39.2281737 48.4151817,40.3323009 M48.7533919,43.3258616 C48.5681019,43.3258616 48.39509,43.2822334 48.2421699,43.1938585 C47.4998934,42.7631706 47.4786855,41.4509708 48.1964055,40.2058912 C48.9141255,38.9596929 50.0582359,38.3209324 50.8016287,38.7516203 C51.5450214,39.1811896 51.5651131,40.494508 50.8473931,41.7395876 C50.5114153,42.3224146 50.063817,42.795612 49.5849649,43.0730422 C49.2947515,43.2408426 49.0112354,43.3258616 48.7533919,43.3258616" id="Fill-277" fill="#EFEFEF" mask="url(#mask-10)"></path>
                            <mask id="mask-12" fill="white">
                                <use xlink:href="#path-11"></use>
                            </mask>
                            <g id="Clip-280"></g>
                            <path d="M47.5975613,39.8594391 C46.5114936,41.7455166 46.4902857,43.7792585 47.5517969,44.3934082 C48.0540893,44.6842624 48.7316259,44.6126675 49.4582756,44.190929 C50.2083655,43.7568851 50.9138073,43.0096136 51.4462372,42.0867109 C51.9786672,41.1626896 52.2711163,40.1760227 52.2711163,39.3079349 C52.2722291,38.4655764 51.9954102,37.8424773 51.4931178,37.5516231 C50.9908255,37.2607689 50.3132888,37.3323638 49.585523,37.7541024 C48.835433,38.1870276 48.1299913,38.9354178 47.5975613,39.8594391 M48.237147,44.8229775 C47.9413526,44.8229775 47.6678823,44.7525013 47.4245495,44.6126675 C46.2436043,43.9291602 46.2223964,41.7399232 47.3787851,39.7330294 C47.9324229,38.7709733 48.6713508,37.9901417 49.4582756,37.5348431 C50.2675244,37.0661204 51.0354737,36.9945255 51.619249,37.3323638 C52.2030244,37.6702021 52.5244915,38.3716082 52.5244915,39.3079349 C52.5244915,40.2196508 52.2197675,41.2510645 51.6650135,42.2131206 C51.1113756,43.174058 50.3724477,43.9548896 49.585523,44.4101883 C49.1122519,44.6842624 48.6534916,44.8229775 48.237147,44.8229775" id="Fill-279" fill="#EFEFEF" mask="url(#mask-12)"></path>
                            <mask id="mask-14" fill="white">
                                <use xlink:href="#path-13"></use>
                            </mask>
                            <g id="Clip-282"></g>
                            <path d="M46.7620817,39.3762856 C46.0064107,40.6873667 45.5911823,42.0879414 45.5911823,43.319597 C45.5911823,44.5277605 45.9907838,45.4238151 46.7163173,45.8433163 C48.2377051,46.7237095 50.7346563,45.2548959 52.2817169,42.5700882 C53.8287774,39.8841617 53.8499853,36.9812133 52.3285975,36.1008201 C50.8060935,35.2204269 48.3091422,36.6903592 46.7620817,39.3762856 M47.6963455,46.3467178 C47.2978602,46.3467178 46.9228152,46.2549868 46.5901861,46.0625756 C45.7820534,45.5960902 45.3378037,44.6217288 45.3378037,43.319597 C45.3378037,42.0443133 45.7664265,40.5978731 46.5433054,39.2498759 C48.1606869,36.4420144 50.8127907,34.9318101 52.4547287,35.8815608 C54.0966667,36.8324302 54.1178746,39.8897551 52.5004931,42.6964979 C51.211276,44.9338377 49.2657302,46.3467178 47.6963455,46.3467178" id="Fill-281" fill="#EFEFEF" mask="url(#mask-14)"></path>
                            <mask id="mask-16" fill="white">
                                <use xlink:href="#path-15"></use>
                            </mask>
                            <g id="Clip-284"></g>
                            <path d="M51.8643677,34.3080397 C49.9478432,34.3080397 47.5357236,36.0878436 45.9216907,38.8901117 C44.9416624,40.5904899 44.4025353,42.4083285 44.4025353,44.0080265 C44.4025353,45.581995 44.9260356,46.7521237 45.8759263,47.3025093 C46.825817,47.8517762 48.098291,47.7208919 49.4589453,46.9333482 C50.8408075,46.1334993 52.1423028,44.7564166 53.1212149,43.0560384 C55.1326169,39.5657883 55.1538248,35.791396 53.1692117,34.642522 C52.7763075,34.4154321 52.3354064,34.3080397 51.8643677,34.3080397 M47.1785379,47.889811 C46.65727,47.889811 46.1750693,47.767876 45.7486789,47.5217686 C44.7173052,46.9243989 44.1491567,45.6770819 44.1502712,44.0080265 C44.1502712,42.3647004 44.7016783,40.502115 45.7029145,38.763702 C47.7835211,35.1515168 51.1890635,33.2050312 53.2953429,34.4232627 C55.4005061,35.6414943 55.4205978,39.5713816 53.3399911,43.1835667 C52.338755,44.9208611 51.0048896,46.3315038 49.5850765,47.1526075 C48.7378767,47.642585 47.918582,47.889811 47.1785379,47.889811" id="Fill-283" fill="#EFEFEF" mask="url(#mask-16)"></path>
                            <mask id="mask-18" fill="white">
                                <use xlink:href="#path-17"></use>
                            </mask>
                            <g id="Clip-286"></g>
                            <path d="M52.5489364,32.3257567 C51.6425777,32.3257567 50.6335281,32.6322722 49.5854114,33.23971 C47.7939019,34.276717 46.1084318,36.0609955 44.8381902,38.2636565 C43.570181,40.4663175 42.8714365,42.8211177 42.8714365,44.894013 C42.8714365,46.9422976 43.5534379,48.4648073 44.7924258,49.1818748 C46.0314137,49.8989422 47.6889786,49.7289043 49.4592802,48.7053214 C51.2507897,47.6683144 52.9351435,45.8851546 54.2042689,43.6824935 C55.4733943,41.4798325 56.1721402,39.1250323 56.1721402,37.0510183 C56.1732551,35.0027337 55.4901374,33.480224 54.2511495,32.7631566 C53.7466247,32.4711838 53.171779,32.3257567 52.5489364,32.3257567 M46.4946389,49.8720941 C45.8271481,49.8720941 45.2110028,49.716599 44.6662946,49.4011341 C43.3458237,48.6370825 42.6180579,47.0362659 42.6180579,44.894013 C42.6180579,42.7763709 43.3290806,40.3779426 44.619414,38.1372468 L44.7288021,38.201011 L44.619414,38.1372468 C45.9108635,35.896551 47.6298197,34.0787124 49.4592802,33.0204507 C51.3099486,31.9487649 53.0568099,31.7798458 54.3772807,32.5438973 C55.6988678,33.3079488 56.4255175,34.9087655 56.4255175,37.0510183 C56.4255175,39.1686605 55.7144947,41.5682074 54.4230451,43.8100219 C53.1327118,46.049599 51.4148719,47.8663189 49.5854114,48.9245807 C48.4971112,49.5543918 47.4445296,49.8720941 46.4946389,49.8720941" id="Fill-285" fill="#EFEFEF" mask="url(#mask-18)"></path>
                            <mask id="mask-20" fill="white">
                                <use xlink:href="#path-19"></use>
                            </mask>
                            <g id="Clip-288"></g>
                            <path d="M43.9442214,37.7469429 C42.4373442,40.3635118 41.6068875,43.1613052 41.6068875,45.625735 C41.6068875,48.0644354 42.4206012,49.878918 43.898457,50.7335818 C46.9736026,52.5133856 51.9976426,49.5824704 55.098461,44.2005495 C58.1992793,38.81751 58.2204872,32.9892398 55.1453416,31.2105547 C53.6674858,30.3547722 51.6929186,30.5561328 49.585523,31.775483 C47.4558033,33.0082572 45.4522148,35.1292553 43.9442214,37.7469429 M45.9120913,51.5032267 C45.1396773,51.5032267 44.4163762,51.3264768 43.7723258,50.9539597 C42.212987,50.0511931 41.3535089,48.1584037 41.3535089,45.625735 C41.3535089,43.1176771 42.1962439,40.2751369 43.7254451,37.6205332 C45.2546464,34.9636922 47.2917211,32.8102526 49.4582756,31.5562237 C51.6482704,30.2887707 53.712134,30.0885287 55.2714728,30.9912953 C58.4682848,32.8404567 58.4883765,38.8231033 55.3172372,44.3269592 C52.7856836,48.7222133 48.9727263,51.502108 45.9120913,51.5032267" id="Fill-287" fill="#EFEFEF" mask="url(#mask-20)"></path>
                            <mask id="mask-22" fill="white">
                                <use xlink:href="#path-21"></use>
                            </mask>
                            <g id="Clip-290"></g>
                            <path d="M42.980713,37.1897334 L43.0901011,37.2534976 C39.5193603,43.4520475 39.4992686,50.1640669 43.0443367,52.2168262 C43.7486622,52.624022 44.541168,52.8164333 45.3872516,52.8175519 C48.8017236,52.8175519 53.0890682,49.6640215 55.9521348,44.6948898 C57.687834,41.6811931 58.644422,38.4583051 58.644422,35.6202395 C58.644422,32.8079034 57.7056933,30.7159907 55.9990154,29.7282052 C54.2934537,28.7415383 52.0152787,28.9719843 49.5852997,30.3781524 C47.1329967,31.7977445 44.8269165,34.2386822 43.0901011,37.2534976 L42.980713,37.1897334 Z M45.3705085,53.064778 C44.4853577,53.064778 43.6560172,52.8622987 42.9182055,52.4360855 C39.2514711,50.3139687 39.2302632,43.4464542 42.8713249,37.1259692 C44.6293482,34.0742377 46.9689145,31.5997399 49.4591685,30.1588931 C51.9706305,28.7057409 54.3381019,28.4741762 56.1262628,29.5089459 C57.9133075,30.5437155 58.8978006,32.7139351 58.8978006,35.6202395 C58.8966844,38.5019332 57.9289344,41.769568 56.170911,44.8212995 C53.26208,49.8698567 48.8843228,53.064778 45.3705085,53.064778 L45.3705085,53.064778 Z" id="Fill-289" fill="#EFEFEF" mask="url(#mask-22)"></path>
                            <mask id="mask-24" fill="white">
                                <use xlink:href="#path-23"></use>
                            </mask>
                            <g id="Clip-292"></g>
                            <path d="M41.9801465,36.6112692 L42.0895347,36.6750334 C40.0870623,40.1507408 38.9842515,43.8680809 38.9842515,47.1424277 C38.9842515,50.3921637 40.0714355,52.810728 42.0437702,53.95289 C42.8586001,54.42385 43.7750047,54.6475843 44.7528005,54.6475843 C48.6985863,54.6487027 53.6478406,51.0085508 56.9518083,45.2742489 C58.9553968,41.7963042 60.0593238,38.0778454 60.0593238,34.80238 C60.0593238,31.5515252 58.9732561,29.1329609 56.9998051,27.9919176 C55.0263541,26.8497556 52.3932258,27.1159991 49.5848533,28.7414264 C46.7552728,30.3791592 44.0931232,33.1970887 42.0895347,36.6750334 L41.9801465,36.6112692 Z M44.7371736,54.8959287 C43.7191944,54.8959287 42.7659551,54.6632454 41.917639,54.1721493 C39.8627051,52.9830032 38.7319891,50.4872507 38.7319891,47.1424277 C38.7319891,43.8244527 39.845962,40.0623658 41.8707584,36.547505 C43.8955548,33.0315255 46.5911906,30.1822733 49.4587221,28.5221671 C52.3485776,26.8497556 55.0710023,26.5835122 57.1259363,27.7726583 C59.1808702,28.9606857 60.3127024,31.457557 60.311587,34.80238 C60.311587,38.1214736 59.1964971,41.8857978 57.1705845,45.4006586 C53.8208524,51.2155048 48.7800692,54.8959287 44.7371736,54.8959287 L44.7371736,54.8959287 Z" id="Fill-291" fill="#EFEFEF" mask="url(#mask-24)"></path>
                            <mask id="mask-26" fill="white">
                                <use xlink:href="#path-25"></use>
                            </mask>
                            <g id="Clip-294"></g>
                            <path d="M54.8487658,25.6607214 C53.2369654,25.6607214 51.4454559,26.204395 49.5847416,27.2816741 C46.4180672,29.1140554 43.4389152,32.2675858 41.197575,36.1583198 C38.957351,40.047935 37.7228279,44.2082684 37.7228279,47.873031 C37.7228279,51.5131828 38.9406079,54.2214827 41.1518106,55.501241 C42.0648665,56.0292532 43.0917754,56.2798355 44.187889,56.2798355 C48.6058296,56.2809539 54.1466727,52.2089955 57.8435447,45.7911863 C60.0860011,41.8993337 61.3205249,37.7378817 61.3205249,34.0720004 C61.3216404,30.4318485 60.1038604,27.72243 57.8915415,26.4426717 C56.9885314,25.9202528 55.9616225,25.6607214 54.8487658,25.6607214 M44.1722621,56.52818 C43.0370813,56.52818 41.9722215,56.2686486 41.0256794,55.7205003 C38.7329937,54.3937578 37.4694493,51.6071511 37.4694493,47.873031 C37.4705655,44.1646402 38.7162506,39.9595601 40.9787988,36.0319101 L41.0881869,36.0956742 L40.9787988,36.0319101 C43.2424631,32.1020227 46.253985,28.9171695 49.4586104,27.0624148 C52.68556,25.1942361 55.724987,24.8966699 58.0187889,26.2234124 C60.3114746,27.5501549 61.5739028,30.3378803 61.5739028,34.0720004 C61.5727866,37.7815098 60.3259853,41.9877086 58.0634371,45.917596 C54.3196845,52.4148308 48.6873126,56.52818 44.1722621,56.52818" id="Fill-293" fill="#EFEFEF" mask="url(#mask-26)"></path>
                            <mask id="mask-28" fill="white">
                                <use xlink:href="#path-27"></use>
                            </mask>
                            <g id="Clip-296"></g>
                            <path d="M40.1838373,35.5725842 L40.2932255,35.6363484 C35.1810052,44.5107567 35.1597973,54.1268432 40.2485773,57.0711824 C41.2598593,57.6562467 42.3995049,57.9347955 43.6150524,57.9347955 C48.5118451,57.9347955 54.6520905,53.4243185 58.7474477,46.3140526 C63.8619004,37.4362883 63.8842245,27.8179644 58.7965608,24.8736253 C53.7077808,21.9292861 45.4076782,26.7574654 40.2932255,35.6363484 L40.1838373,35.5725842 Z M43.5994256,58.1831402 C42.3436946,58.1831402 41.1683304,57.8956421 40.1213299,57.2904417 C34.9131159,54.276745 34.891908,44.5051634 40.0744492,35.50882 C45.2592229,26.5102393 53.7133618,21.6406692 58.922692,24.654366 C64.1309059,27.6680627 64.1509976,37.4418816 58.9673402,46.4404623 C54.8251023,53.6301537 48.5933281,58.1831402 43.5994256,58.1831402 L43.5994256,58.1831402 Z" id="Fill-295" fill="#EFEFEF" mask="url(#mask-28)"></path>
                            <mask id="mask-30" fill="white">
                                <use xlink:href="#path-29"></use>
                            </mask>
                            <g id="Clip-298"></g>
                            <path d="M55.8318079,22.8118048 C53.918632,22.8118048 51.7922609,23.4572773 49.585523,24.7347983 C45.8306083,26.9083739 42.2989348,30.6458501 39.64125,35.2581261 C36.9846813,39.8692834 35.5224524,44.801499 35.5224524,49.1464129 C35.5224524,53.4667161 36.9690545,56.682892 39.5954855,58.2031644 C40.6793209,58.8296196 41.9004495,59.1283044 43.2019449,59.1283044 C48.443645,59.1283044 55.0158618,54.3012438 59.4003162,46.6920512 C64.874187,37.1889503 64.8953949,26.8938312 59.448313,23.7414195 C58.3745235,23.1205577 57.1545111,22.8118048 55.8318079,22.8118048 M43.186318,59.3766492 C41.8446392,59.3766492 40.587792,59.0690149 39.4693543,58.4224237 C36.7614403,56.8551672 35.2690738,53.5606843 35.2690738,49.1464129 C35.2690738,44.7578709 36.7446972,39.7809085 39.4224737,35.1317164 L39.5318618,35.1954806 L39.4224737,35.1317164 C42.1013664,30.4814056 45.6665262,26.7103694 49.4582756,24.515539 C53.2734653,22.3072846 56.865414,21.9549036 59.5744442,23.5221602 C65.1431925,26.7439295 65.162168,37.1945437 59.6190924,46.8184609 C55.1899898,54.5070791 48.5251279,59.3755305 43.186318,59.3766492" id="Fill-297" fill="#EFEFEF" mask="url(#mask-30)"></path>
                            <mask id="mask-32" fill="white">
                                <use xlink:href="#path-31"></use>
                            </mask>
                            <g id="Clip-300"></g>
                            <path d="M56.2933587,21.4740993 C54.239541,21.4740993 51.9546687,22.1676746 49.5849649,23.5391639 C45.5543475,25.8715907 41.7625981,29.8842596 38.9106936,34.8366113 C36.058789,39.7856069 34.4882882,45.0802716 34.4882882,49.7440064 C34.4882882,54.3842491 36.0431622,57.8387018 38.8649292,59.4708412 C40.0291313,60.1453991 41.3406725,60.4653387 42.7392778,60.4653387 C48.3683011,60.4653387 55.424951,55.2836597 60.1308726,47.1151321 C62.9827771,42.1627805 64.5543948,36.8658785 64.5543948,32.201025 C64.5555104,27.5607822 63.0006364,24.1063296 60.1788694,22.4730715 C59.0247131,21.8052256 57.7142881,21.4740993 56.2933587,21.4740993 M42.7236509,60.7136834 C41.2848623,60.7136834 39.9376025,60.3847945 38.738798,59.6912191 C35.8344318,58.0109769 34.2360258,54.4782174 34.2360258,49.7440064 C34.2360258,45.0366434 35.8176887,39.697232 38.6908011,34.7090829 L38.8013055,34.7728471 L38.6908011,34.7090829 C41.566146,29.7198151 45.3902654,25.6747048 49.4588337,23.3199046 C53.5497261,20.9516805 57.4017506,20.57357 60.3050006,22.2538122 C63.2093668,23.9340544 64.8077728,27.466814 64.8077728,32.201025 C64.8066566,36.9095066 63.2238775,42.2511554 60.3496488,47.2415418 C55.5979628,55.489495 48.4497841,60.7125648 42.7236509,60.7136834" id="Fill-299" fill="#EFEFEF" mask="url(#mask-32)"></path>
                            <mask id="mask-34" fill="white">
                                <use xlink:href="#path-33"></use>
                            </mask>
                            <g id="Clip-302"></g>
                            <path d="M37.9938425,34.306138 L38.1032307,34.3699022 C35.0370147,39.6925336 33.3481961,45.387682 33.3470799,50.4049166 C33.3470799,55.3975403 35.0202716,59.1137617 38.0585825,60.8723108 C39.312081,61.5972089 40.7229645,61.9417592 42.2287255,61.9417592 C48.2841392,61.9417592 55.8754515,56.3685458 60.9374425,47.5813937 C64.0058909,42.2554063 65.6958257,36.5591392 65.6958257,31.540786 C65.6958257,26.5481622 64.0237502,22.8297035 60.9854394,21.0722731 C54.6911577,17.4298839 44.4254175,23.3946318 38.1032307,34.3699022 L37.9938425,34.306138 Z M42.2119824,62.190104 C40.6671542,62.190104 39.219436,61.8366043 37.931335,61.0915701 C34.8126574,59.2871556 33.0948175,55.4915086 33.0948175,50.4049166 C33.0948175,45.3440539 34.7959144,39.6041587 37.8844544,34.2423738 C44.275846,23.1474057 54.6967387,17.1401484 61.1126868,20.8530138 C64.2313644,22.6574283 65.9492043,26.4530753 65.9480887,31.540786 C65.9480887,36.6027673 64.245875,42.3448999 61.1562188,47.7078034 C56.0484633,56.5743811 48.3656222,62.190104 42.2119824,62.190104 L42.2119824,62.190104 Z" id="Fill-301" fill="#EFEFEF" mask="url(#mask-34)"></path>
                            <mask id="mask-36" fill="white">
                                <use xlink:href="#path-35"></use>
                            </mask>
                            <g id="Clip-304"></g>
                            <path d="M37.113603,33.7971432 L37.2229912,33.8609074 C30.4174874,45.6740615 30.3973957,58.4761199 37.178343,62.4004139 C38.5289514,63.1812455 40.0481068,63.5526439 41.6710693,63.5526439 C48.1930569,63.5526439 56.3670283,57.5520986 61.8174588,48.0915072 C68.6251949,36.2738784 68.6464028,23.468464 61.8665718,19.54417 C58.5927417,17.6502618 54.2317276,18.0887804 49.5849649,20.7780629 C44.9169943,23.4796507 40.5269589,28.1266055 37.2229912,33.8609074 L37.113603,33.7971432 Z M41.6543262,63.8009886 C39.9934127,63.8009886 38.4363063,63.4206409 37.0522118,62.6196732 C30.1507144,58.6260217 30.1295065,45.6684682 37.0042149,33.733379 C40.3293905,27.9610423 44.7529121,23.2827648 49.4588337,20.5588036 C54.1870793,17.822537 58.6385061,17.3840184 61.992703,19.3249107 C68.8942004,23.3185622 68.9131759,36.2794717 62.036235,48.2179169 C56.5400401,57.7579338 48.2745399,63.8009886 41.6543262,63.8009886 L41.6543262,63.8009886 Z" id="Fill-303" fill="#EFEFEF" mask="url(#mask-36)"></path>
                            <mask id="mask-38" fill="white">
                                <use xlink:href="#path-37"></use>
                            </mask>
                            <g id="Clip-306"></g>
                            <path d="M45.4680649,64.2407378 C44.6677457,60.8064212 44.4255291,57.5745838 44.7280208,54.3606452 C45.0863227,50.5582862 46.2449438,46.7122991 48.1715141,42.9278388 L48.3969876,43.0430618 C44.8351765,50.036986 43.9823956,56.7545988 45.7147462,64.1825669 L45.4680649,64.2407378 Z" id="Fill-305" fill="#EFEFEF" mask="url(#mask-38)"></path>
                            <mask id="mask-40" fill="white">
                                <use xlink:href="#path-39"></use>
                            </mask>
                            <g id="Clip-308"></g>
                            <path d="M50.3039127,61.9268809 C48.6552775,59.3483468 47.6652034,56.7295406 47.2767639,53.9205605 C46.8180036,50.6014669 47.2265347,46.9445349 48.4923115,43.0549197 L48.7334119,43.1332266 C46.3994266,50.3072567 46.9653427,56.2362071 50.5171079,61.7904032 L50.3039127,61.9268809 Z" id="Fill-307" fill="#EFEFEF" mask="url(#mask-40)"></path>
                            <mask id="mask-42" fill="white">
                                <use xlink:href="#path-41"></use>
                            </mask>
                            <g id="Clip-310"></g>
                            <path d="M55.0937729,58.1920896 C52.7062098,56.6483251 51.0307856,54.8237745 49.9737392,52.6121641 C48.7247055,49.9989512 48.3541253,46.7794193 48.8720446,43.0441805 L49.1220745,43.0788592 C48.1721838,49.9374244 50.1132649,54.6716354 55.2310662,57.9795423 L55.0937729,58.1920896 Z" id="Fill-309" fill="#EFEFEF" mask="url(#mask-42)"></path>
                            <mask id="mask-44" fill="white">
                                <use xlink:href="#path-43"></use>
                            </mask>
                            <g id="Clip-312"></g>
                            <path d="M59.5065789,53.2757591 C56.5452863,52.8786313 54.3017136,51.978102 52.6463812,50.5204752 C50.6852084,48.7943675 49.5544925,46.2314948 49.2843708,42.9012145 L49.5366332,42.8799597 C50.0277635,48.9521 53.2067162,52.1749879 59.5400651,53.0240584 L59.5065789,53.2757591 Z" id="Fill-311" fill="#EFEFEF" mask="url(#mask-44)"></path>
                            <mask id="mask-46" fill="white">
                                <use xlink:href="#path-45"></use>
                            </mask>
                            <g id="Clip-314"></g>
                            <path d="M58.2164689,48.1669055 C57.0745908,48.1669055 56.0432171,48.0360212 55.1111857,47.7753711 C52.5707024,47.063897 50.752404,45.335552 49.7065196,42.6384389 L49.9431552,42.546708 C50.9711802,45.2024303 52.6845554,46.8323324 55.1792742,47.531501 C57.2732754,48.1176841 59.886312,48.0304278 63.1679556,47.2652576 L63.224882,47.5124837 C61.3518896,47.9487649 59.6909761,48.1669055 58.2164689,48.1669055" id="Fill-313" fill="#EFEFEF" mask="url(#mask-46)"></path>
                            <mask id="mask-48" fill="white">
                                <use xlink:href="#path-47"></use>
                            </mask>
                            <g id="Clip-316"></g>
                            <path d="M55.8316962,44.6401868 C53.5111054,44.6401868 51.5945809,43.8481685 50.1200737,42.2753186 L50.3042476,42.1019248 C52.0220875,43.9343061 54.2634278,44.6547295 57.1566319,44.3034672 C59.5888433,44.009257 62.4396316,42.9554699 65.8708467,41.0828165 L65.9925131,41.3054318 C62.5322767,43.1937466 59.652467,44.2576017 57.1878857,44.5551679 C56.7213119,44.6122201 56.2692487,44.6401868 55.8316962,44.6401868" id="Fill-315" fill="#EFEFEF" mask="url(#mask-48)"></path>
                            <mask id="mask-50" fill="white">
                                <use xlink:href="#path-49"></use>
                            </mask>
                            <g id="Clip-318"></g>
                            <path d="M53.4480398,42.3572053 C52.4010392,42.3572053 51.4176624,42.1793368 50.5012578,41.8235997 L50.5916704,41.5875604 C52.888821,42.4791403 55.515252,42.2408636 58.619419,40.8581876 C61.2235259,39.6992456 64.1156139,37.7471666 67.459765,34.892321 L67.6238471,35.0847323 C64.2607206,37.9563579 61.3485409,39.9207422 58.7221099,41.0897523 C56.8267933,41.9343481 55.0620727,42.3572053 53.4480398,42.3572053" id="Fill-317" fill="#EFEFEF" mask="url(#mask-50)"></path>
                            <mask id="mask-52" fill="white">
                                <use xlink:href="#path-51"></use>
                            </mask>
                            <g id="Clip-320"></g>
                            <path d="M50.8096653,41.3026352 L50.7985033,41.0498158 C53.4885581,40.9368301 56.4040863,39.7163612 59.463605,37.4219693 C62.0598986,35.474365 64.7934854,32.7571158 67.8206341,29.1136079 L68.0148539,29.2758151 C64.9754268,32.9338656 62.2273294,35.6645389 59.615409,37.6244485 C56.4710586,39.9837234 53.5901327,41.1862935 50.8096653,41.3026352" id="Fill-319" fill="#EFEFEF" mask="url(#mask-52)"></path>
                            <mask id="mask-54" fill="white">
                                <use xlink:href="#path-53"></use>
                            </mask>
                            <g id="Clip-322"></g>
                            <path d="M51.0130379,40.7550463 L50.9237415,40.5178882 C56.3161293,38.485265 61.550016,33.1290735 66.9245445,24.1416795 L67.1410884,24.2714453 C64.6307426,28.4686947 62.2342498,31.7810763 59.8120843,34.3965265 C56.9412043,37.4974795 53.9810278,39.6363763 51.0130379,40.7550463" id="Fill-321" fill="#EFEFEF" mask="url(#mask-54)"></path>
                            <mask id="mask-56" fill="white">
                                <use xlink:href="#path-55"></use>
                            </mask>
                            <g id="Clip-324"></g>
                            <path d="M51.0986509,40.2284883 L50.9568928,40.0192971 C56.4899225,36.2449048 60.8989334,29.9837094 64.8324409,20.3172828 L65.0657278,20.4134884 C63.2552428,24.8646759 61.3699721,28.5316758 59.3027599,31.6259168 C56.8538054,35.2906794 54.0945459,38.1857971 51.0986509,40.2284883" id="Fill-323" fill="#EFEFEF" mask="url(#mask-56)"></path>
                            <mask id="mask-58" fill="white">
                                <use xlink:href="#path-57"></use>
                            </mask>
                            <g id="Clip-326"></g>
                            <path d="M51.0669507,39.7625623 L50.8883578,39.5835751 C56.1077338,34.351556 59.5378327,27.4627867 61.6842955,17.9048711 L61.9309769,17.9608046 C60.942019,22.3627707 59.6974501,26.1371629 58.1247168,29.4998846 C56.2628863,33.4812308 53.8887177,36.9345648 51.0669507,39.7625623" id="Fill-325" fill="#EFEFEF" mask="url(#mask-58)"></path>
                            <mask id="mask-60" fill="white">
                                <use xlink:href="#path-59"></use>
                            </mask>
                            <g id="Clip-328"></g>
                            <path d="M50.9245229,39.3882554 L50.7191411,39.2405909 C55.2665615,32.910038 57.4833452,25.8646549 57.6954242,17.0707908 L57.9488028,17.0763842 C57.8505768,21.1315626 57.3304251,24.7582904 56.3593265,28.1612842 C55.2107512,32.1896145 53.3824069,35.9662441 50.9245229,39.3882554" id="Fill-327" fill="#EFEFEF" mask="url(#mask-60)"></path>
                            <mask id="mask-62" fill="white">
                                <use xlink:href="#path-61"></use>
                            </mask>
                            <g id="Clip-330"></g>
                            <path d="M50.6840922,39.1301782 L50.4586188,39.0149552 C54.0215461,32.021031 54.8732107,25.3045369 53.1408601,17.8765688 L53.3875415,17.8183979 C54.1878607,21.2515959 54.4300772,24.4834332 54.1275856,27.6984905 C53.7692837,31.5008495 52.6106626,35.3468366 50.6840922,39.1301782" id="Fill-329" fill="#EFEFEF" mask="url(#mask-62)"></path>
                            <mask id="mask-64" fill="white">
                                <use xlink:href="#path-63"></use>
                            </mask>
                            <g id="Clip-332"></g>
                            <path d="M50.3630716,39.0036567 L50.1230875,38.9253498 C52.4570727,31.750201 51.8900404,25.8223692 48.3382752,20.2692918 L48.5514704,20.1316954 C50.2001056,22.7102295 51.1901797,25.3290358 51.5786192,28.1380159 C52.0373795,31.4571095 51.6288484,35.1129227 50.3630716,39.0036567" id="Fill-331" fill="#EFEFEF" mask="url(#mask-64)"></path>
                            <mask id="mask-66" fill="white">
                                <use xlink:href="#path-65"></use>
                            </mask>
                            <g id="Clip-334"></g>
                            <path d="M49.9841199,39.0140603 L49.7340899,38.9793815 C50.6839806,32.1208163 48.7428996,27.3866053 43.6250983,24.0798171 L43.7612753,23.8672698 C46.1499547,25.4099156 47.8242626,27.2344662 48.8813091,29.4460766 C50.1303428,32.0592895 50.500923,35.2788215 49.9841199,39.0140603" id="Fill-333" fill="#EFEFEF" mask="url(#mask-66)"></path>
                            <mask id="mask-68" fill="white">
                                <use xlink:href="#path-67"></use>
                            </mask>
                            <g id="Clip-336"></g>
                            <path d="M49.3194196,39.1778336 C48.8271731,33.1056933 45.6493366,29.8828053 39.3148715,29.0348536 L39.3483577,28.7831528 C42.3096503,29.1802806 44.553223,30.0808099 46.2096717,31.5384368 C48.1708444,33.2634258 49.3015604,35.8274172 49.571682,39.1576975 L49.3194196,39.1778336 Z" id="Fill-335" fill="#EFEFEF" mask="url(#mask-68)"></path>
                            <mask id="mask-70" fill="white">
                                <use xlink:href="#path-69"></use>
                            </mask>
                            <g id="Clip-338"></g>
                            <path d="M48.9126744,39.5111972 C47.8835331,36.8554748 46.1712742,35.2255728 43.6754392,34.5275228 C41.5825542,33.9413397 38.9695176,34.028596 35.6867578,34.7937662 L35.6298313,34.5465402 C38.9550069,33.7713019 41.6082269,33.6851643 43.7435277,34.2836527 C46.2851271,34.9951268 48.1034256,36.7223531 49.1481937,39.4194663 L48.9126744,39.5111972 Z" id="Fill-337" fill="#EFEFEF" mask="url(#mask-70)"></path>
                            <mask id="mask-72" fill="white">
                                <use xlink:href="#path-71"></use>
                            </mask>
                            <g id="Clip-340"></g>
                            <path d="M32.9842015,40.9758717 L32.8636514,40.7532564 C36.3238878,38.8649416 39.2036975,37.8010865 41.6682788,37.5035203 C44.6061311,37.1477833 46.9836484,37.9140722 48.7349745,39.7833696 L48.5508007,39.9567634 C46.8340769,38.1243821 44.5927367,37.4039587 41.6984163,37.7541024 C39.266205,38.0494312 36.4154166,39.1032183 32.9842015,40.9758717" id="Fill-339" fill="#EFEFEF" mask="url(#mask-72)"></path>
                            <mask id="mask-74" fill="white">
                                <use xlink:href="#path-73"></use>
                            </mask>
                            <g id="Clip-342"></g>
                            <path d="M31.3956181,47.1668147 L31.231536,46.9744034 C34.5946625,44.1027778 37.5068422,42.1383935 40.1332732,40.9682647 C43.2586481,39.5766394 46.0246048,39.330532 48.3541253,40.2355359 L48.2625965,40.4715753 C45.9665622,39.5788767 43.3401311,39.8171534 40.2359641,41.1998294 C37.6318572,42.3598901 34.7397692,44.3108504 31.3956181,47.1668147" id="Fill-341" fill="#EFEFEF" mask="url(#mask-74)"></path>
                            <mask id="mask-76" fill="white">
                                <use xlink:href="#path-75"></use>
                            </mask>
                            <g id="Clip-344"></g>
                            <path d="M31.0351955,52.9454159 L30.8409757,52.7832088 C33.8804028,49.1251582 36.6285002,46.3933663 39.2404206,44.4345753 C42.384771,42.0753005 45.2645806,40.8727303 48.045048,40.7563887 L48.0562101,41.0092081 C45.3661553,41.1221937 42.4506271,42.3426626 39.3911083,44.6370545 C36.795931,46.5846588 34.0623442,49.301908 31.0351955,52.9454159" id="Fill-343" fill="#EFEFEF" mask="url(#mask-76)"></path>
                            <mask id="mask-78" fill="white">
                                <use xlink:href="#path-77"></use>
                            </mask>
                            <g id="Clip-346"></g>
                            <path d="M31.9308386,57.9170087 L31.7142948,57.787243 C34.2246405,53.5899935 36.6222495,50.2776119 39.0432988,47.6621617 C41.9141788,44.5612087 44.8743553,42.4223119 47.8423452,41.303642 L47.9305254,41.5408 C42.5392538,43.5734232 37.3064833,48.9296147 31.9308386,57.9170087" id="Fill-345" fill="#EFEFEF" mask="url(#mask-78)"></path>
                            <mask id="mask-80" fill="white">
                                <use xlink:href="#path-79"></use>
                            </mask>
                            <g id="Clip-348"></g>
                            <path d="M34.0235003,61.7411817 L33.7890972,61.6460948 C35.6006984,57.1937886 37.4859691,53.5267886 39.5520651,50.4325477 C42.0010196,46.7677851 44.7613953,43.8737861 47.7561741,41.8299762 L47.8990484,42.0402861 C42.3649025,45.8146783 37.9558916,52.0747551 34.0235003,61.7411817" id="Fill-347" fill="#EFEFEF" mask="url(#mask-80)"></path>
                            <mask id="mask-82" fill="white">
                                <use xlink:href="#path-81"></use>
                            </mask>
                            <g id="Clip-350"></g>
                            <path d="M37.1716457,64.1540408 L36.9249643,64.0981074 C37.912806,59.6961413 39.1584912,55.9206304 40.7301082,52.5579086 C42.5919387,48.5776811 44.9672235,45.1243472 47.7878743,42.2963496 L47.9664672,42.4753368 C42.7470912,47.707356 39.3169923,54.5961252 37.1716457,64.1540408" id="Fill-349" fill="#EFEFEF" mask="url(#mask-82)"></path>
                            <mask id="mask-84" fill="white">
                                <use xlink:href="#path-83"></use>
                            </mask>
                            <g id="Clip-352"></g>
                            <path d="M41.1600705,64.988233 L40.9078081,64.981521 C41.004918,60.9263426 41.5250696,57.3007334 42.4961683,53.8966209 C43.6447435,49.8694093 45.4730878,46.091661 47.9309719,42.6707685 L48.1352374,42.8184329 C43.5889332,49.1489859 41.3721495,56.1943689 41.1600705,64.988233" id="Fill-351" fill="#EFEFEF" mask="url(#mask-84)"></path>
                            <path d="M51.846062,39.3701329 C51.846062,37.8867766 50.8068748,37.2849322 49.5243549,38.0266104 C48.241835,38.7682885 47.2026479,40.5727031 47.2026479,42.057178 C47.2026479,43.5405343 48.241835,44.1423787 49.5243549,43.4007006 C50.8068748,42.6579038 51.846062,40.8534892 51.846062,39.3701329" id="Fill-353" fill="#B7B7B7" mask="url(#mask-84)"></path>
                            <path d="M52.0524483,39.5119803 C52.0524483,38.0700148 51.0422825,37.4860691 49.7965974,38.2064925 C48.5509123,38.9269159 47.5407465,40.6809903 47.5407465,42.1229558 C47.5407465,43.5638026 48.5509123,44.148867 49.7965974,43.4273249 C51.0422825,42.7069015 52.0524483,40.9539458 52.0524483,39.5119803" id="Fill-355" fill="#D9D9D9" mask="url(#mask-84)"></path>
                            <polygon id="Fill-357" fill="#B3B3B3" mask="url(#mask-84)" points="19.6108342 75.8548805 18.479002 75.195984 18.3684977 39.6770959 19.5003299 40.3359925"></polygon>
                            <polygon id="Fill-359" fill="#FFFFFF" mask="url(#mask-84)" points="19.5001066 40.3365518 18.3682744 39.6776553 29.804914 33.0596041 30.9367461 33.7185007"></polygon>
                            <polygon id="Fill-361" fill="#E7E7E7" mask="url(#mask-84)" points="30.9371926 33.7188363 31.047697 69.2366057 19.6110574 75.8546568 19.5005531 40.3368874"></polygon>
                            <path d="M54.1900931,5.48047571 L54.1811635,5.48606906 L9.26617831,31.4750082 C8.95029221,31.6573514 8.43460536,31.6573514 8.11871926,31.4750082 L4.76898715,29.5363533 L4.7589413,29.5307599 C4.4430552,29.3472981 4.4430552,29.0486132 4.7589413,28.86627 L49.6828561,2.8717375 C49.997626,2.68827564 50.514429,2.68827564 50.8291989,2.8717375 L54.1900931,4.81486712 C54.5059792,4.99944766 54.5059792,5.29701385 54.1900931,5.48047571" id="Fill-363" fill="#D9D9D9" mask="url(#mask-84)"></path>
                            <path d="M54.1812751,5.48550973 L9.26628993,31.4744489 C8.95040383,31.6567921 8.43471698,31.6567921 8.11883088,31.4744489 L4.76909877,29.5369126 L49.6829677,3.54685479 C49.9977376,3.36339293 50.5145407,3.36339293 50.8293106,3.54685479 L54.1812751,5.48550973 Z" id="Fill-365" fill="#E7E7E7" mask="url(#mask-84)"></path>
                            <path d="M61.4264521,9.96734882 L61.4175224,9.97294217 L16.5025373,35.9618813 C16.1866512,36.1442245 15.6709643,36.1442245 15.3550782,35.9618813 L12.0053461,34.0232264 L11.9953003,34.017633 C11.6794142,33.8352898 11.6794142,33.5354863 11.9953003,33.3531431 L56.9192151,7.35861061 C57.233985,7.17514875 57.750788,7.17514875 58.0655579,7.35861061 L61.4264521,9.3028589 C61.7423382,9.48632076 61.7423382,9.78388696 61.4264521,9.96734882" id="Fill-367" fill="#D9D9D9" mask="url(#mask-84)"></path>
                            <path d="M61.4175224,9.9724947 L16.5036535,35.9614339 C16.1866512,36.1448957 15.6709643,36.1448957 15.3550782,35.9614339 L12.0053461,34.0238976 L56.9192151,8.03383976 C57.233985,7.8503779 57.750788,7.8503779 58.0655579,8.03383976 L61.4175224,9.9724947 Z" id="Fill-369" fill="#E7E7E7" mask="url(#mask-84)"></path>
                            <path d="M23.6946423,41.2303691 L23.58725,40.8992428 L23.4731457,41.3578975 L23.6946423,41.2303691 Z M23.4832137,40.6833395 L23.6901676,40.5636418 L23.9989205,41.4843072 L23.8053906,41.5961741 L23.7382704,41.3914576 L23.4261615,41.5715634 L23.356804,41.8557056 L23.1610368,41.9675726 L23.4832137,40.6833395 Z" id="Fill-371" fill="#5CA6FF" mask="url(#mask-84)"></path>
                            <path d="M24.0716518,40.6438505 L24.253995,40.5386955 L24.253995,41.3363071 L24.0716518,41.4414621 L24.0716518,40.6438505 Z M24.0649398,40.3966244 C24.0649398,40.3731323 24.0750079,40.3529963 24.0962626,40.3406909 L24.2327403,40.2612654 C24.2528764,40.2500787 24.2618257,40.2612654 24.2618257,40.2825201 L24.2618257,40.4156418 C24.2618257,40.4380152 24.250639,40.4559139 24.2327403,40.4671006 L24.0962626,40.5454075 C24.0783639,40.5565942 24.0649398,40.5498822 24.0649398,40.5297461 L24.0649398,40.3966244 Z" id="Fill-373" fill="#5CA6FF" mask="url(#mask-84)"></path>
                            <path d="M24.3699987,40.4713516 L24.5229189,40.3829766 L24.5519402,40.4668769 C24.599937,40.3863327 24.6635607,40.293483 24.7495085,40.2442616 C24.7796461,40.2263629 24.8075512,40.2118201 24.8265267,40.2084641 L24.8265267,40.4120621 C24.8075512,40.4198927 24.7651354,40.4422661 24.7260682,40.4657582 C24.6512825,40.5093863 24.5965884,40.5541331 24.5519402,40.6548134 L24.5519402,41.1638082 L24.3699987,41.2689632 L24.3699987,40.4713516 Z" id="Fill-375" fill="#5CA6FF" mask="url(#mask-84)"></path>
                            <path d="M20.7857519,44.0344271 C20.9185803,43.9572388 21.014574,43.9169667 21.1172649,43.892356 L21.1172649,44.0579191 C21.1150325,44.0579191 20.9554151,44.129514 20.8281677,44.2033462 C20.6953393,44.2805344 20.6439938,44.3454173 20.6439938,44.6776623 C20.6439938,44.9237696 20.6797124,45.0222126 20.8292839,44.936075 C20.9654609,44.8566494 21.1172649,44.7570878 21.1172649,44.7570878 L21.1172649,44.922651 C21.0313171,45.0020765 20.9219289,45.0781461 20.7857519,45.1542156 C20.5457677,45.291812 20.4631686,45.1284862 20.4631686,44.7805799 C20.4631686,44.4281989 20.5279085,44.1832102 20.7857519,44.0344271" id="Fill-377" fill="#5CA6FF" mask="url(#mask-84)"></path>
                            <path d="M21.5011532,44.5708293 C21.6040708,44.5115398 21.6342749,44.4779797 21.6342749,44.2676697 C21.6342749,44.0439358 21.6096641,44.0338677 21.5011532,44.0965132 C21.3937609,44.1580401 21.3680314,44.1983122 21.3680314,44.4220462 C21.3680314,44.6278814 21.4038289,44.6267628 21.5011532,44.5708293 M21.5011532,43.9275941 C21.7394299,43.7899977 21.8166181,43.8459312 21.8166181,44.1625148 C21.8166181,44.4589623 21.7427859,44.5999147 21.5011532,44.7397484 C21.2628765,44.8773448 21.1856882,44.812462 21.1856882,44.5272012 C21.1856882,44.2005495 21.2673512,44.0618345 21.5011532,43.9275941" id="Fill-379" fill="#5CA6FF" mask="url(#mask-84)"></path>
                            <path d="M21.9232767,43.6901005 L22.0694996,43.6050816 L22.1052182,43.6699644 C22.1643771,43.5860642 22.2179549,43.5055199 22.3239944,43.4451118 C22.4836118,43.3522622 22.5293762,43.4540611 22.5293762,43.6062002 L22.5293762,44.1375684 L22.3474347,44.2416047 L22.3474347,43.7079992 C22.3474347,43.6285736 22.3172972,43.6173869 22.2715328,43.644235 C22.1989794,43.6867445 22.158796,43.7314913 22.1052182,43.8097982 L22.1052182,44.3825571 L21.9232767,44.4877121 L21.9232767,43.6901005 Z" id="Fill-381" fill="#5CA6FF" mask="url(#mask-84)"></path>
                            <path d="M22.899888,43.7522985 C22.9681269,43.7131451 23.021823,43.6616863 23.0609765,43.6102274 L23.0609765,43.215337 C23.0139923,43.2209303 22.9625335,43.242185 22.899888,43.2779825 C22.8428358,43.3115426 22.8092757,43.3685947 22.8092757,43.5721927 C22.8092757,43.7500612 22.8405985,43.7858586 22.899888,43.7522985 M22.8529039,43.1403861 C22.9110747,43.106826 22.9983309,43.0755032 23.0620951,43.0721472 L23.0620951,42.6504087 L23.2433197,42.5452537 L23.2433197,43.7243318 L23.0934179,43.811588 L23.0609765,43.7489425 C23.018467,43.814944 22.9345668,43.9122683 22.8529039,43.9592524 C22.682866,44.0576954 22.6269325,43.933523 22.6269325,43.6851783 C22.6269325,43.4301216 22.6616113,43.2511344 22.8529039,43.1403861" id="Fill-383" fill="#5CA6FF" mask="url(#mask-84)"></path>
                            <path d="M23.3556061,42.8612779 L23.5379493,42.756123 L23.5379493,43.5537346 L23.3556061,43.6588896 L23.3556061,42.8612779 Z M23.3488941,42.6140519 C23.3488941,42.5905598 23.3589622,42.5704238 23.3802169,42.5581184 L23.5166946,42.4786928 C23.5368307,42.4675061 23.54578,42.4786928 23.54578,42.4999476 L23.54578,42.6330693 C23.54578,42.6554427 23.5345933,42.6733414 23.5166946,42.6845281 L23.3802169,42.762835 C23.3623182,42.7740217 23.3488941,42.7673097 23.3488941,42.7471736 L23.3488941,42.6140519 Z" id="Fill-385" fill="#5CA6FF" mask="url(#mask-84)"></path>
                            <path d="M23.6141045,42.7537738 L23.725725,42.6463815 L23.7558626,42.4058674 L23.9076665,42.3186112 L23.9076665,42.5412265 L24.0617028,42.4517329 L24.0617028,42.6128214 L23.9076665,42.7011963 L23.9076665,43.0211359 C23.9076665,43.1385962 23.9311068,43.1497829 23.9657092,43.1453082 C23.9657092,43.1453082 24.0438435,43.1318842 24.0527732,43.1262908 L24.0527732,43.2560565 L23.894272,43.3466688 C23.7926974,43.4059583 23.725725,43.3712795 23.725725,43.1598509 L23.725725,42.8063512 L23.6141045,42.8712341 L23.6141045,42.7537738 Z" id="Fill-387" fill="#5CA6FF" mask="url(#mask-84)"></path>
                            <path d="M24.1450982,42.404525 L24.3274413,42.29937 L24.3274413,43.0969817 L24.1450982,43.2021367 L24.1450982,42.404525 Z M24.1383861,42.157299 C24.1383861,42.1338069 24.1484542,42.1136708 24.1697089,42.1013655 L24.3061866,42.0219399 C24.325204,42.0107532 24.335272,42.0219399 24.335272,42.0431946 L24.335272,42.1763164 C24.335272,42.1986898 24.3240853,42.2165885 24.3061866,42.2277752 L24.1697089,42.3060821 C24.1518102,42.3172688 24.1383861,42.3105567 24.1383861,42.2904207 L24.1383861,42.157299 Z" id="Fill-389" fill="#5CA6FF" mask="url(#mask-84)"></path>
                            <path d="M24.748306,42.6920232 C24.8512236,42.6327337 24.8814277,42.5991736 24.8814277,42.3888636 C24.8814277,42.1662483 24.856817,42.1550616 24.748306,42.2177071 C24.6409137,42.279234 24.6151843,42.3195061 24.6151843,42.5432401 C24.6151843,42.7490753 24.6509817,42.7479567 24.748306,42.6920232 M24.748306,42.048788 C24.9865827,41.9111916 25.0637709,41.9671251 25.0637709,42.2837087 C25.0637709,42.5801562 24.9899387,42.7211086 24.748306,42.8609423 C24.5100293,42.9985387 24.4328411,42.9336559 24.4328411,42.6483951 C24.4328411,42.3217434 24.514504,42.1830284 24.748306,42.048788" id="Fill-391" fill="#5CA6FF" mask="url(#mask-84)"></path>
                            <path d="M25.1704296,41.8111825 L25.3166525,41.7261636 L25.352371,41.7910464 C25.4115299,41.7071462 25.466224,41.626602 25.5711473,41.5661938 C25.7307646,41.4733442 25.776529,41.5751432 25.776529,41.7272823 L25.776529,42.2586505 L25.5945876,42.3626868 L25.5945876,41.8290812 C25.5945876,41.7496557 25.56445,41.738469 25.5186856,41.765317 C25.4461323,41.8078265 25.4059489,41.8525733 25.352371,41.9308802 L25.352371,42.5036392 L25.1704296,42.6087941 L25.1704296,41.8111825 Z" id="Fill-393" fill="#5CA6FF" mask="url(#mask-84)"></path>
                            <path d="M25.880909,41.4001832 L26.0632522,41.2950282 L26.0632522,42.0926399 L25.880909,42.1977948 L25.880909,41.4001832 Z M25.874197,41.1529571 C25.874197,41.1294651 25.884265,41.109329 25.9055198,41.0970236 L26.0419975,41.0175981 C26.0621335,41.0064114 26.0710829,41.0175981 26.0710829,41.0388528 L26.0710829,41.1719745 C26.0710829,41.1943479 26.0598962,41.2122466 26.0419975,41.2234333 L25.9055198,41.3017402 C25.887621,41.3129269 25.874197,41.3062149 25.874197,41.2849602 L25.874197,41.1529571 Z" id="Fill-395" fill="#5CA6FF" mask="url(#mask-84)"></path>
                            <path d="M26.1792559,41.2275724 L26.3254788,41.1425535 L26.3611974,41.2074364 C26.4203563,41.1235361 26.4739341,41.0429919 26.5799736,40.9825837 C26.739591,40.8897341 26.7853554,40.9915331 26.7853554,41.1436722 L26.7853554,41.6739217 L26.6034139,41.7790767 L26.6034139,41.2454711 C26.6034139,41.1660456 26.5732764,41.1548589 26.527512,41.181707 C26.4549586,41.2242164 26.4147752,41.2689632 26.3611974,41.3472701 L26.3611974,41.9200291 L26.1792559,42.0251841 L26.1792559,41.2275724 Z" id="Fill-397" fill="#5CA6FF" mask="url(#mask-84)"></path>
                            <path d="M27.1506161,41.6998748 L27.2580084,41.6372293 C27.3240099,41.6003132 27.3318406,41.5589224 27.3318406,41.5119383 L27.3318406,41.4537675 C27.3318406,41.4090207 27.3150606,41.3900033 27.2636018,41.4190887 L27.123768,41.5007516 C27.0980386,41.5152943 27.0689532,41.526481 27.0689532,41.526481 L27.0689532,41.6596027 C27.0689532,41.7379096 27.1047506,41.7256043 27.1506161,41.6998748 M27.1506161,41.0711824 L27.2233296,41.0286729 C27.2926872,40.9895195 27.3117046,40.9257553 27.3105859,40.8541604 C27.3094672,40.7724975 27.2859751,40.7534801 27.222211,40.7903962 L27.1517348,40.8306683 C27.0779025,40.8731778 27.0655972,40.9358233 27.0655972,40.9951128 C27.0655972,41.068945 27.0857332,41.1080985 27.1506161,41.0711824 M26.9604422,41.2770176 C26.90339,41.2680683 26.8843727,41.1796933 26.8843727,41.1002678 C26.8843727,40.9100939 26.9671542,40.7680228 27.123768,40.6785292 L27.5432692,40.4357779 L27.5432692,40.5610689 L27.4671997,40.6326638 C27.4783864,40.6595118 27.4929291,40.6785292 27.4929291,40.7736162 C27.4929291,40.8888392 27.4515383,41.065589 27.2568897,41.1785747 L27.0969199,41.2703056 C27.0756652,41.282611 27.0443425,41.3016284 27.0443425,41.3363071 C27.0443425,41.3709859 27.0678345,41.3631552 27.0969199,41.3463752 L27.3083485,41.2233215 C27.4336396,41.1517266 27.5130651,41.180812 27.5130651,41.3419005 L27.5130651,41.4280381 C27.5130651,41.5432611 27.4671997,41.6864508 27.2960432,41.7848938 L27.1013946,41.8978794 C26.9783409,41.9683556 26.8854913,41.9482196 26.8854913,41.7904871 L26.8854913,41.6886881 L26.9470182,41.5812958 C26.9101021,41.5790585 26.879898,41.5421424 26.879898,41.4660728 C26.879898,41.4034273 26.9045087,41.3307138 26.9604422,41.2770176" id="Fill-399" fill="#5CA6FF" mask="url(#mask-84)"></path>
                            <path d="M25.1151774,39.0345319 C24.5180076,39.3802009 23.9453942,39.7773288 23.4163129,40.203542 C23.5390955,40.1274724 23.6629943,40.0536402 23.7880093,39.9809267 C26.4892261,38.4181448 28.6792209,38.238039 28.6792209,39.5793242 C28.6792209,40.9194907 26.4892261,43.2731722 23.7891255,44.8359541 C22.7387763,45.4433918 21.7665615,45.8416383 20.9707071,46.0228628 C21.83465,46.3685318 23.3671999,46.0441175 25.1151774,45.03284 C27.8163942,43.4700581 30.0052728,40.8602012 30.0052728,39.2045698 C30.0052728,37.5478196 27.8163942,37.4717501 25.1151774,39.0345319" id="Fill-401" fill="#5CA6FF" mask="url(#mask-84)"></path>
                            <polygon id="Fill-403" fill="#B3B3B3" mask="url(#mask-84)" points="10.5979229 73.8221455 2.58022018 69.1516986 2.55454745 60.3947506 10.5733663 65.0651975"></polygon>
                            <polygon id="Fill-405" fill="#E7E7E7" mask="url(#mask-84)" points="10.5730315 65.0649737 2.5553288 60.3956456 3.58223768 58.4581093 11.5999404 63.1285561"></polygon>
                            <polygon id="Fill-407" fill="#B3B3B3" mask="url(#mask-84)" points="11.5999404 63.1285561 3.58223768 58.459228 3.56326218 51.7360219 11.5809649 56.4064687"></polygon>
                            <polygon id="Fill-409" fill="#E7E7E7" mask="url(#mask-84)" points="11.5808532 56.4061331 3.56315056 51.7356863 4.41704762 48.9009767 12.4358665 53.5714236"></polygon>
                            <polygon id="Fill-411" fill="#FFFFFF" mask="url(#mask-84)" points="12.43542 53.5711998 4.41771734 48.9018717 4.83071331 48.6613576 12.8495322 53.3318045"></polygon>
                            <polygon id="Fill-413" fill="#D9D9D9" mask="url(#mask-84)" points="12.8494206 53.3316926 12.9041146 72.487796 10.5980345 73.8223692 10.573478 65.0654212 11.6003868 63.1290036 11.5802951 56.4057975 12.4353084 53.571088"></polygon>
                            <path d="M13.2206705,41.6915967 C13.2206705,41.8168877 13.1938815,41.9198054 13.1458847,41.9969936 C13.0833772,42.1010299 12.9818025,42.158082 12.8579037,42.158082 C12.7708397,42.158082 12.6714974,42.1301153 12.5688066,42.0685884 L3.13687176,36.6117167 C2.77968606,36.4047627 2.48612407,35.8957679 2.48612407,35.4818601 C2.48612407,35.1865312 2.63457937,35.0153747 2.84777459,35.0153747 L2.86228526,35.0153747 C2.94488445,35.0176121 3.03864569,35.0466975 3.13687176,35.1037496 L12.5688066,40.5617401 C12.9271085,40.7675754 13.2206705,41.2776888 13.2206705,41.6915967" id="Fill-415" fill="#6E6E6E" mask="url(#mask-84)"></path>
                            <path d="M13.2206705,44.1163137 C13.2206705,44.2416047 13.1938815,44.3445224 13.1458847,44.4217106 C13.0833772,44.5257469 12.9818025,44.5816804 12.8579037,44.5816804 C12.7708397,44.5816804 12.6714974,44.5537136 12.5688066,44.4944241 L3.13687176,39.0364337 C2.77968606,38.8283611 2.48612407,38.3204849 2.48612407,37.9054584 C2.48612407,37.6112482 2.63457937,37.4400917 2.84777459,37.4400917 L2.86228526,37.4400917 C2.94488445,37.4423291 3.03864569,37.4714145 3.13687176,37.5284667 L12.5688066,42.9853384 C12.9271085,43.1922924 13.2206705,43.7024058 13.2206705,44.1163137" id="Fill-417" fill="#6E6E6E" mask="url(#mask-84)"></path>
                            <path d="M13.2206705,46.7272893 C13.2206705,46.8525803 13.1938815,46.9554979 13.1458847,47.0326861 C13.0833772,47.1367224 12.9818025,47.1926559 12.8579037,47.1926559 C12.7708397,47.1926559 12.6714974,47.1646892 12.5688066,47.1053997 L3.13687176,41.6474092 C2.77968606,41.4393366 2.48612407,40.9314605 2.48612407,40.516434 C2.48612407,40.2222238 2.63457937,40.0510673 2.84777459,40.0510673 L2.86228526,40.0510673 C2.94488445,40.0533046 3.03864569,40.08239 3.13687176,40.1394422 L12.5688066,45.596314 C12.9271085,45.8032679 13.2206705,46.3133814 13.2206705,46.7272893" id="Fill-419" fill="#6E6E6E" mask="url(#mask-84)"></path>
                            <path d="M13.2206705,41.6915967 C13.2206705,41.8168877 13.1938815,41.9198054 13.1458847,41.9969936 C13.0632855,41.9947562 12.9695243,41.9667895 12.870182,41.9097373 L3.4393634,36.4517469 C3.07994529,36.2436743 2.7874995,35.7357981 2.7874995,35.3207716 C2.7874995,35.1954806 2.81428843,35.0925629 2.86228526,35.0153747 C2.94488445,35.0176121 3.03864569,35.0466975 3.13687176,35.1037496 L12.5688066,40.5617401 C12.9271085,40.7675754 13.2206705,41.2776888 13.2206705,41.6915967" id="Fill-421" fill="#979797" mask="url(#mask-84)"></path>
                            <path d="M13.2206705,44.1163137 C13.2206705,44.2416047 13.1938815,44.3445224 13.1458847,44.4217106 C13.0610531,44.4183546 12.9684081,44.3903878 12.870182,44.3333357 L3.4393634,38.8764639 C3.07994529,38.6683913 2.7874995,38.1593965 2.7874995,37.7454886 C2.7874995,37.6201976 2.81428843,37.51728 2.86228526,37.4400917 C2.94488445,37.4423291 3.03864569,37.4714145 3.13687176,37.5284667 L12.5688066,42.9853384 C12.9271085,43.1922924 13.2206705,43.7024058 13.2206705,44.1163137" id="Fill-423" fill="#979797" mask="url(#mask-84)"></path>
                            <path d="M13.2206705,46.7272893 C13.2206705,46.8525803 13.1938815,46.9554979 13.1458847,47.0326861 C13.0610531,47.0293301 12.9684081,47.0013634 12.870182,46.9443112 L3.4393634,41.4874394 C3.07994529,41.2793668 2.7874995,40.770372 2.7874995,40.3564642 C2.7874995,40.2311731 2.81428843,40.1282555 2.86228526,40.0510673 C2.94488445,40.0533046 3.03864569,40.08239 3.13687176,40.1394422 L12.5688066,45.596314 C12.9271085,45.8032679 13.2206705,46.3133814 13.2206705,46.7272893" id="Fill-425" fill="#979797" mask="url(#mask-84)"></path>
                        </g>
                    </g>
                </g>
            </g>
        </g>
    </g>
</svg>