<?xml version="1.0" encoding="UTF-8"?>
<svg width="38px" height="80px" viewBox="0 0 38 80" version="1.1" xmlns="http://www.w3.org/2000/svg" xmlns:xlink="http://www.w3.org/1999/xlink">
    <title>icon_永泰充电终端</title>
    <defs>
        <linearGradient x1="45.7497919%" y1="0%" x2="45.7497919%" y2="100%" id="linearGradient-1">
            <stop stop-color="#424242" offset="0%"></stop>
            <stop stop-color="#828282" offset="100%"></stop>
        </linearGradient>
    </defs>
    <g id="光储充及工商储管理系统V1.3" stroke="none" stroke-width="1" fill="none" fill-rule="evenodd">
        <g id="3_2_7.设备监视_示范站站点拓扑_用电设备能量流" transform="translate(-962.000000, -814.000000)" fill-rule="nonzero">
            <g id="main" transform="translate(212.000000, 102.000000)">
                <g transform="translate(44.000000, 40.000000)" id="3">
                    <g transform="translate(0.000000, 591.000000)">
                        <g id="编组-2" transform="translate(504.000000, 81.000000)">
                            <g id="永泰3#-充电终端" transform="translate(182.000000, 0.000000)">
                                <g id="icon_永泰充电终端" transform="translate(20.000000, 0.000000)">
                                    <g id="侧视图" transform="translate(5.649852, 9.326425)">
                                        <polygon id="矩形" fill="#BCBEC0" points="6.00013866e-13 0 8.40570173 4.76683939 8.40570173 70.6735752 6.00013866e-13 65.9067359"></polygon>
                                        <g id="编组-104" transform="translate(2.591795, 5.688377)">
                                            <g id="编组-103" transform="translate(0.325937, 0.000000)" fill="url(#linearGradient-1)">
                                                <polygon id="矩形" points="0 0 2.7409897 1.55440415 2.7409897 2.16022319 0 0.605819051"></polygon>
                                                <polygon id="矩形备份-255" points="0 1.2116381 2.7409897 2.76604226 2.7409897 3.37186131 0 1.81745715"></polygon>
                                                <polygon id="矩形备份-256" points="0 2.4232762 2.7409897 3.97768036 2.7409897 4.5834994 0 3.02909525"></polygon>
                                                <polygon id="矩形备份-257" points="0 3.63491432 2.7409897 5.18931845 2.7409897 5.7951375 0 4.24073337"></polygon>
                                                <polygon id="矩形备份-258" points="0 4.84655242 2.7409897 6.40095655 2.7409897 7.00677562 0 5.45237147"></polygon>
                                                <polygon id="矩形备份-259" points="0 6.05819051 2.7409897 7.61259467 2.7409897 8.21841372 0 6.66400956"></polygon>
                                                <polygon id="矩形备份-260" points="0 7.26982861 2.7409897 8.82423277 2.7409897 9.43005182 0 7.87564769"></polygon>
                                            </g>
                                            <path d="M0.192965675,18.9183747 L0.359617849,18.5154731 L1.07885355,18.9233487 L1.24550572,19.5152659 L1.44066418,19.6259394 L0.824489702,17.5007581 L0.616174485,17.3826234 L0,18.8089446 L0.192965675,18.9183747 Z M1.02184096,18.7194109 L0.416630434,18.3761985 L0.717042905,17.6586855 L0.725814071,17.6636596 L1.02184096,18.7194109 Z M2.02833238,20.1979602 L2.02833238,18.9594109 L2.05269292,19.0158941 L2.05269292,19.0158941 L2.10449763,19.1404019 L2.10449763,19.1404019 L2.16041382,19.2802982 L2.22044149,19.4355832 L2.25199713,19.5189964 L2.25199713,19.5189964 L2.34628718,19.413297 C2.23884038,19.175784 2.13358638,18.9594109 2.02833238,18.7604472 L2.02833238,18.5863539 L2.28269622,18.7306026 L2.28269622,18.5589964 L2.02833238,18.4147477 L2.02833238,17.9297736 L1.87264416,17.8414835 L1.87264416,18.3264576 L1.56126773,18.1498773 L1.56126773,18.3214835 L1.87264416,18.4980638 C1.80247482,18.7815871 1.68844965,19.0079084 1.52618306,19.1695664 L1.59415961,19.4045923 C1.70818478,19.2653177 1.80028203,19.0937114 1.87264416,18.8910172 L1.87264416,20.10967 L2.02833238,20.1979602 Z M3.18612641,20.8222089 C3.29576601,20.884385 3.36812814,20.9030379 3.4075984,20.8856286 C3.44231758,20.8638669 3.46790017,20.7764748 3.48561509,20.6270505 L3.49531006,20.5299809 L3.49531006,20.5299809 L3.34839302,20.3919498 C3.33962184,20.5312244 3.32207952,20.618271 3.3001516,20.6555767 C3.28041646,20.6866648 3.22778947,20.6792037 3.14446338,20.6319498 L2.73660413,20.4006545 C2.66862756,20.3621052 2.63573569,20.2986856 2.63573569,20.2116389 L2.63573569,19.2491519 L3.11376431,19.5202399 L3.11376431,19.948012 C3.11376431,20.0077011 3.08306521,20.0201363 3.02605263,19.9878047 C2.99535355,19.9703954 2.96246166,19.950499 2.9276511,19.9285819 L2.81773742,19.8572348 L2.81773742,19.8572348 L2.85501486,20.0425197 C2.92956978,20.0897736 3.00412471,20.1370275 3.08306521,20.1817944 C3.20586156,20.2439705 3.26725971,20.214126 3.26725971,20.0897736 L3.26725971,19.4481156 L2.48662585,19.0054213 C2.63573569,18.9208617 2.7651104,18.7828306 2.87475,18.588841 C3.00193192,18.9668721 3.19709037,19.3361985 3.45803259,19.6930897 L3.54355148,19.5923643 C3.26287414,19.204385 3.06333009,18.8275975 2.9493049,18.4644886 L2.80458066,18.3824161 C2.66862756,18.6460431 2.4734691,18.8114317 2.22129805,18.8823125 L2.30462414,19.0787892 C2.36602231,19.0638669 2.42522768,19.0402399 2.48224027,19.0079084 L2.48224027,20.1842814 C2.48224027,20.3434524 2.54583123,20.4591 2.67739875,20.5337115 L3.18612641,20.8222089 Z" id="A枪" fill="#3F4143"></path>
                                        </g>
                                        <polygon id="矩形备份-79" fill="#1E1E1E" points="0 61.5544043 8.40570173 66.3212436 8.40570173 70.6735752 0 65.9067359"></polygon>
                                    </g>
                                    <g id="正面备份" transform="translate(14.055554, 4.766839)">
                                        <polygon id="矩形" fill="#DEDEDE" points="1.46896461e-14 9.32642487 16.4459382 0 16.4459382 65.9067359 0 75.2331607"></polygon>
                                        <polygon id="矩形备份-252" fill="#3F3F3F" points="3.67241152e-15 70.6735752 16.4459382 61.3471503 16.4459382 65.9067359 0 75.2331607"></polygon>
                                        <g id="面板" transform="translate(4.020118, 9.280743)">
                                            <path d="M4.20285088,0.563816526 C4.2497432,0.537224074 4.29645618,0.511604348 4.34297787,0.486950604 L4.48195734,0.415880573 C6.67300447,-0.663724303 8.40570173,0.420953326 8.40570173,2.94723621 L8.40570173,22.2218476 C8.40570173,24.8545003 6.52402132,28.0557803 4.20285088,29.3721067 C1.88168043,30.688433 0,29.6213396 0,26.9886869 L0,7.71407561 C0,5.08142289 1.88168043,1.88014287 4.20285088,0.563816526 Z" id="矩形" fill="#313236"></path>
                                            <polygon id="矩形" fill="#A3A1A4" points="1.27912853 12.7917958 7.12657322 9.47573363 7.12657322 13.2063036 1.27912853 16.5223658"></polygon>
                                            <g id="编组-54" transform="translate(1.176798, 3.662808)" fill="#35E139">
                                                <path d="M0.33622807,3.85729452 C0.521921704,3.75198842 0.672456138,3.49618899 0.672456138,3.28595053 C0.672456138,3.07571207 0.521921704,2.99064761 0.33622807,3.09595372 C0.150534434,3.20125982 0,3.45705922 0,3.66729768 C0,3.87753614 0.150534434,3.96260063 0.33622807,3.85729452 Z" id="椭圆形"></path>
                                                <path d="M2.18548245,2.80858986 C2.37117609,2.70328376 2.52171053,2.44748433 2.52171053,2.23724587 C2.52171053,2.02700742 2.37117609,1.94194294 2.18548245,2.04724905 C1.99978882,2.15255516 1.84925438,2.40835457 1.84925438,2.61859302 C1.84925438,2.82883148 1.99978882,2.91389596 2.18548245,2.80858986 Z" id="椭圆形备份-68"></path>
                                                <path d="M3.8666228,1.85522198 C4.05231644,1.74991587 4.20285088,1.49411646 4.20285088,1.283878 C4.20285088,1.07363954 4.05231644,0.988575064 3.8666228,1.09388117 C3.68092917,1.19918728 3.53039473,1.45498669 3.53039473,1.66522515 C3.53039473,1.87546361 3.68092917,1.96052809 3.8666228,1.85522198 Z" id="椭圆形备份-69"></path>
                                                <path d="M5.71587718,0.806517315 C5.90157081,0.701211205 6.05210525,0.445411793 6.05210525,0.235173335 C6.05210525,0.0249348773 5.90157081,-0.0601296001 5.71587718,0.0451765077 C5.53018354,0.150482615 5.3796491,0.406282027 5.3796491,0.616520486 C5.3796491,0.826758944 5.53018354,0.911823423 5.71587718,0.806517315 Z" id="椭圆形备份-70"></path>
                                            </g>
                                            <g id="刷卡" transform="translate(2.857939, 23.460998)" fill="#FFFFFF">
                                                <path d="M1.89511909,2.74440217 L1.62205148,2.71019764 C1.50668991,2.67474543 1.49067501,2.5238535 1.57563541,2.34385678 C1.61825133,2.25347203 1.70836907,2.1250098 1.85521756,2.09340697 L1.87611836,2.0960973 L1.70212597,1.45461762 C1.69262561,1.41823255 1.65625279,1.41441468 1.62096572,1.44556522 L0.916581571,2.06749682 C0.881294504,2.09864736 0.860393702,2.15320108 0.869894065,2.18958615 L1.16793406,3.3059298 C1.17743443,3.34231487 1.21380725,3.34613273 1.24909432,3.3149822 L1.89511909,2.74440217 Z M2.26699049,1.77418086 L1.89376189,1.7819247 L2.00722339,2.2228759 L1.84490288,2.20229567 C1.77324299,2.19311591 1.68176805,2.27376772 1.64078076,2.38241337 C1.59979348,2.49105902 1.62476586,2.58643455 1.69642576,2.5956143 L2.05228226,2.63763822 C2.09408386,2.64240001 2.12448502,2.67126429 2.13669978,2.71786828 L2.14674302,2.75703976 L2.54657263,2.40405167 L2.41519617,1.8952843 C2.39738299,1.82686891 2.35359225,1.78431984 2.29364346,1.77574975 L2.26699049,1.77418086 Z M0.735531773,2.02999887 C0.596012138,1.95007427 0.596012138,1.69139306 0.735531773,1.45353585 L0.794976908,1.48758933 C0.68830139,1.6696895 0.68830139,1.86772296 0.794976908,1.92883263 L0.735531773,2.02999887 Z M0.512408932,2.41088016 C0.24992744,2.26051617 0.24992744,1.77347763 0.512408932,1.32540926 L0.571854067,1.35946273 C0.341945253,1.751928 0.341945253,2.17800936 0.571854067,2.30940448 L0.512408932,2.41088016 Z M0.28928609,2.79176144 C-0.0964286968,2.57111199 -0.0964286968,1.85602555 0.28928609,1.19759209 L0.348731228,1.23164557 C-0.00413944416,1.83401256 -0.00413944416,2.48845126 0.348731228,2.6905952 L0.28928609,2.79176144 Z M1.95429278,1.33884444 L1.89484765,1.30479097 C2.00152317,1.12269079 2.00152317,0.92465733 1.89484765,0.863547663 L1.95429278,0.762071992 C2.09381242,0.841996596 2.09381242,1.1006778 1.95429278,1.33884444 Z M2.17741563,1.46666161 L2.11797049,1.43260813 C2.22926047,1.24263085 2.29060568,1.03920436 2.29060568,0.859736539 C2.29060568,0.680268715 2.22926047,0.546419468 2.11797049,0.48266638 L2.17741563,0.381190711 C2.30444907,0.453962528 2.37475176,0.606867349 2.37475176,0.812017636 C2.37475176,1.01716792 2.3047205,1.24965556 2.17741563,1.46666161 Z M2.40053847,1.59447878 L2.34109333,1.5604253 C2.693964,0.958058306 2.693964,0.303619607 2.34109333,0.10147567 L2.40053847,0 C2.78625325,0.2212683 2.78625325,0.936354746 2.40053847,1.59447878 Z" id="形状"></path>
                                            </g>
                                        </g>
                                        <g id="LOGO备份-30" transform="translate(5.299247, 4.720784)" fill="#C92128">
                                            <path d="M1.49699811,2.47354641 C1.49932809,2.47873304 1.49553147,2.48758654 1.49346414,2.4917024 L1.49226419,2.49392777 L0.950858594,3.40556605 C0.945896335,3.41452217 0.942296764,3.42379896 0.940268908,3.43272046 L0.938432043,3.44575177 L0.938432043,3.94504624 C0.938411739,3.952187 0.934869431,3.96042153 0.929599848,3.96677804 L0.920624353,3.97453285 L0.574530114,4.17080147 C0.567153926,4.17498449 0.560825194,4.17369083 0.558121839,4.16826527 L0.556722424,4.16151222 L0.556722424,3.66221775 C0.556294685,3.65428554 0.554192481,3.64756551 0.550625724,3.64249428 L0.544203412,3.63617856 L0.00547914203,3.33707753 L0.00193794484,3.33349133 C0.000361511101,3.33104577 -0.000826592918,3.32729536 0.000726725956,3.32207584 L0.00459974191,3.31462797 L0.00459974191,3.31462797 L0.0104534608,3.30913083 L0.293582809,3.14800561 C0.301089906,3.14418146 0.308352564,3.14236561 0.314835888,3.14261886 L0.323909512,3.1445582 L0.737795023,3.3615257 C0.740423371,3.36271745 0.743750228,3.36256096 0.747318347,3.36107773 L0.754153888,3.35616931 L0.754153888,3.35616931 L0.760040769,3.34891024 L1.1738708,2.6625486 C1.17944816,2.65390142 1.1860648,2.6461639 1.19319137,2.63987625 L1.20419751,2.63159971 L1.45167449,2.49125652 L1.48727138,2.47163339 C1.4915609,2.46941917 1.49534953,2.47016431 1.49699811,2.47354641 Z M2.35856411,2.41170151 C2.35967013,2.41174327 2.36007976,2.41258134 2.35980394,2.41447709 L2.35887748,2.41814668 L2.33801898,2.47657013 C2.32292994,2.51549329 2.30550541,2.55429534 2.28593271,2.59255908 L2.25498596,2.64949883 L2.22977769,2.6958098 C2.1099812,2.92343753 2.08354812,3.09389359 2.13655036,3.28530758 C2.08078678,3.30891061 2.02643544,3.32269367 1.97529361,3.32620099 C1.95877714,3.2724293 1.94362476,3.20317322 1.96146844,3.13025721 C1.98458412,3.03502468 1.98384678,2.97635872 1.95877714,2.94586115 C1.94072762,2.92415329 1.9121428,2.9186079 1.87171059,2.92912126 L1.84601908,2.93735551 L1.81058733,2.94890786 C1.76385614,2.96205646 1.71930178,2.96617468 1.67851234,2.96111573 L1.64865099,2.95559852 L1.64138798,2.95373668 L1.64287267,2.90365565 C1.64487187,2.87245126 1.64888452,2.84030383 1.6548786,2.80747006 L1.66535179,2.75773676 L1.69783239,2.76741996 C1.79612168,2.79070054 1.91533534,2.76618288 2.03822577,2.69670106 C2.1339422,2.642843 2.22793179,2.56359193 2.31156652,2.46663498 L2.35248104,2.4167166 L2.35535281,2.41352334 L2.35856411,2.41170151 Z M1.86715068,3.04225629 L1.87731926,3.04632305 L1.88109641,3.05475257 C1.88370447,3.06523362 1.88412714,3.08560888 1.87609091,3.12527655 L1.8702039,3.15146743 L1.86348179,3.18684383 C1.85626028,3.23335466 1.85601182,3.27705998 1.86283048,3.31586234 C1.75829811,3.28706304 1.68507548,3.20374721 1.65565574,3.08013007 C1.70970194,3.08238218 1.76842545,3.07190004 1.82939201,3.04911816 C1.84310487,3.04210538 1.85620605,3.03978806 1.86715068,3.04225629 Z M2.58800659,1.94401948 C2.63001924,1.96006431 2.66647611,1.98570725 2.69623,2.0201414 C2.67504196,2.07274824 2.65832889,2.12533795 2.64640168,2.17683646 L2.6360813,2.22793147 L2.62458244,2.31010101 C2.61455986,2.36898768 2.59633789,2.43039875 2.57060531,2.49174572 C2.55719347,2.52155053 2.54232786,2.55107562 2.52613104,2.58008996 L2.50085274,2.62319959 L2.45327002,2.70737956 C2.43625762,2.73949316 2.42131809,2.77138346 2.41119192,2.80210826 C2.3704203,2.9185816 2.36914097,3.02739261 2.40768954,3.09999665 C2.35242065,3.15320916 2.29435855,3.19849309 2.23559386,3.23421795 C2.18131412,3.0617376 2.19779307,2.92218359 2.29826782,2.72798734 L2.32514408,2.67824922 L2.35097179,2.63074181 C2.43127348,2.47783688 2.46370296,2.36322473 2.47595622,2.28644979 L2.47933137,2.2622589 L2.48310122,2.21660704 L2.51705132,2.14675311 L2.54221764,2.08759248 L2.55992119,2.03950387 C2.57092181,2.00748486 2.58030715,1.97558291 2.58800659,1.94401948 Z M2.74970576,2.10842526 L2.76049525,2.13816527 C2.83572743,2.37167208 2.72662608,2.7324367 2.49366365,3.00795155 C2.46658493,2.95569358 2.46820978,2.87760961 2.49810614,2.79446344 C2.5108774,2.76276222 2.525881,2.7313027 2.5428703,2.70056442 L2.56981267,2.65505783 L2.60011945,2.6031258 C2.61947845,2.56815912 2.6371188,2.53255469 2.65287428,2.49662937 C2.68321817,2.42404698 2.70484611,2.35140075 2.71696941,2.28163717 L2.72426745,2.22990103 L2.72942883,2.1936188 C2.73409339,2.16578248 2.74088108,2.13726396 2.74970576,2.10842526 Z M2.47165605,1.9243862 L2.50518462,1.92552133 C2.46635642,2.13039059 2.34013921,2.34791176 2.17483105,2.49484856 C2.02133062,2.63128986 1.85618932,2.68725722 1.73419017,2.64632696 L1.70682729,2.63515396 L1.70310372,2.63349255 C1.72459775,2.57537194 1.75122077,2.5174093 1.78236801,2.46092122 C1.8736752,2.49900686 2.00121982,2.45864146 2.11942559,2.35424904 C2.21017718,2.27449391 2.28677469,2.16443973 2.33216726,2.04858495 C2.34644319,2.01201343 2.35739758,1.97549628 2.36477622,1.9398809 C2.38941713,1.9333039 2.4135444,1.92880791 2.43699887,1.92640923 L2.47165605,1.9243862 Z M4.12909357,0.984881485 L4.13050955,0.991709399 L4.13050955,1.14339023 L4.12909543,1.15181666 C4.1272743,1.15753686 4.12382505,1.16324965 4.11951996,1.16767966 L4.11251695,1.17320315 L3.74487966,1.38168877 L3.74487966,2.35356144 C3.74483901,2.36127183 3.74100424,2.37015412 3.73531408,2.37699859 L3.7256296,2.38533569 L3.37953537,2.58160433 C3.37159186,2.58610906 3.36476975,2.58473163 3.36182944,2.57891131 L3.36028531,2.57166334 L3.36028531,1.59979067 L2.99264802,1.80827629 C2.98519073,1.81249695 2.97878812,1.811191 2.9760529,1.80570727 L2.97463692,1.79888092 L2.97463692,1.64720009 C2.97463692,1.63998318 2.97822272,1.63164004 2.98355933,1.62520911 L2.99264802,1.61737668 L4.11249845,0.982314032 C4.11995573,0.978085042 4.12635835,0.979395161 4.12909357,0.984881485 Z M2.27552094,1.97187287 C2.25384952,2.06910077 2.19760677,2.17042821 2.12291241,2.24681374 C2.05755485,2.31365107 1.98438353,2.35493606 1.9196998,2.36241032 L1.89254537,2.36351945 L1.8691884,2.3608392 L1.84745689,2.35471018 C1.96667022,2.17889369 2.12126517,2.04063234 2.27552094,1.97187287 Z M4.85740602,0.565164692 L4.86090227,0.568708593 L5.25979087,1.46003427 L5.26620756,1.47854152 C5.26705837,1.48488791 5.26542609,1.49273422 5.26165854,1.5004085 L5.25485328,1.51171906 L5.25485328,1.51171906 L5.24603292,1.52098706 L5.2248227,1.53502856 L4.95996335,1.68522923 L4.93864219,1.69663585 C4.93513412,1.69822398 4.93178219,1.69873725 4.92891546,1.69812527 L4.92284954,1.69676843 L4.92284954,1.69676843 L4.91887435,1.69210223 L4.67547334,1.15094084 L4.67026937,1.14373661 C4.66566774,1.13878532 4.65809227,1.13828754 4.64978036,1.14239029 C4.64077362,1.14626129 4.63178448,1.15502529 4.62574089,1.16582767 L4.62059112,1.17890522 L4.62059112,1.17890522 L4.61621757,1.19196513 L4.53518612,1.46217747 L4.53435397,1.46299163 L4.46293586,1.69706775 L4.40305261,1.89929465 L4.39442583,1.93181414 L4.37911456,1.9829774 L4.36986859,2.00907836 L4.36432103,2.01796223 L4.35583325,2.02660085 L4.33462306,2.0398773 L4.06105403,2.1950172 C4.053962,2.19888799 4.04691106,2.20182561 4.04004724,2.20376921 C4.03535283,2.20455553 4.031378,2.20326247 4.02876718,2.20009966 C4.02601433,2.19691438 4.02461181,2.19218319 4.02471565,2.18650524 L4.02626309,2.17425572 L4.02626309,2.17425572 L4.02919249,2.16154567 L4.42932004,0.813457139 C4.43106349,0.808269391 4.4341485,0.803264837 4.43789036,0.799339176 L4.44391014,0.794371814 L4.84640464,0.56611881 C4.85061797,0.563952111 4.85451486,0.563675115 4.85740602,0.565164692 Z M5.84744469,0.00253799527 L5.84744469,1.17795802 C5.84744469,1.18022511 5.8458243,1.18298188 5.84382542,1.18411542 L5.46656205,1.39805995 C5.4645632,1.3991935 5.46294278,1.39827458 5.46294278,1.39600749 L5.46294278,0.220587462 C5.46294278,0.218320369 5.4645632,0.215563605 5.46656205,0.214430058 L5.84382542,0.00048552731 C5.8458243,-0.000648019442 5.84744469,0.000270901762 5.84744469,0.00253799527 Z" id="形状结合"></path>
                                        </g>
                                        <g id="按钮" transform="translate(7.126573, 43.272748)">
                                            <path d="M1.09639588,0.146940785 C0.491184129,0.490153914 0,1.32580195 0,2.01222821 C0,2.69865446 0.491184129,2.97720056 1.09639372,2.63398864 C1.70160547,2.29077551 2.19279176,1.45512626 2.19279176,0.76870489 C2.19279176,0.0822786293 1.70160547,-0.196271122 1.09639588,0.146940785 Z M1.09639588,2.38777058 C0.609595687,2.66383299 0.214892652,2.44248584 0.214892652,1.89036101 C0.214892652,1.33823618 0.609597842,0.666733929 1.09639588,0.390672734 C1.58319607,0.114610319 1.97789695,0.338443587 1.97789695,0.890568419 C1.97577036,1.42716818 1.60662601,2.07134223 1.14038245,2.36160899 L1.09639588,2.38777058 Z" id="形状" fill="#3F3F3F"></path>
                                            <path d="M0.408225381,1.78362196 C0.408225381,2.22430708 0.723201732,2.40292889 1.1117472,2.18258633 C1.48689212,1.96984317 1.79345652,1.46296082 1.81415283,1.03160544 L1.81526651,0.98569464 C1.81526651,0.545012374 1.50029016,0.366390561 1.1117472,0.586731695 C0.723204249,0.807072829 0.408225381,1.34293969 0.408225381,1.78362196 Z" id="路径" fill="#DA4648"></path>
                                        </g>
                                        <g id="LOGO备份-31" transform="translate(6.395643, 50.624934)" fill="#C92128">
                                            <path d="M2.29376217,1.5454 C2.29906826,1.54556858 2.29936304,1.55143894 2.29476444,1.56580407 C2.21348413,1.81288032 2.10112676,2.06123884 1.9624856,2.30028439 L1.9624856,2.30028439 L1.91543495,2.38496614 C1.50375162,3.13954174 1.40932835,3.69332114 1.58369009,4.31580507 C1.40534005,4.39154911 1.23150683,4.43617125 1.06793863,4.44819593 C1.01511361,4.27821543 0.966651363,4.05917655 1.02372125,3.82795548 C1.0976527,3.52597089 1.09529444,3.34020856 1.01511361,3.24408297 C0.945839717,3.16198191 0.82804463,3.15385418 0.654476697,3.2191728 L0.654476697,3.2191728 L0.592369539,3.24080225 C0.386490054,3.30759025 0.192483629,3.32123505 0.0232294521,3.28048571 L0.0232294521,3.28048571 L0,3.2747203 L0.0015261631,3.17922559 C0.00774815379,3.01205357 0.0329594621,2.83548656 0.076644041,2.65362365 L0.076644041,2.65362365 L0.128763153,2.67030459 C0.452560026,2.76408594 0.854336869,2.68822793 1.26921612,2.45364969 C1.62637039,2.25266921 1.97600723,1.94228247 2.27430653,1.56139034 L2.27430653,1.56139034 L2.28022873,1.55419882 C2.28447169,1.54993687 2.28919715,1.54682778 2.29376217,1.5454 Z M0.601297934,3.57338641 C0.659775492,3.54344862 0.714775114,3.53996407 0.754584834,3.56367478 C0.755657103,3.5649574 0.756739738,3.56643422 0.757812671,3.56813513 L0.757812671,3.56813513 L0.763973339,3.58126871 L0.768938063,3.60121436 C0.771635208,3.61710079 0.772892986,3.63848456 0.771427247,3.66727753 L0.771427247,3.66727753 L0.76702549,3.71626294 C0.76138763,3.7621132 0.750491042,3.82103403 0.731827625,3.89675969 L0.731827625,3.89675969 L0.718852638,3.95944307 C0.687687041,4.12536978 0.684013594,4.28108517 0.708245024,4.41747593 C0.373916561,4.32815487 0.139726822,4.06563597 0.045632922,3.67470989 C0.218490216,3.68087129 0.406307089,3.64662356 0.601297934,3.57338641 Z M3.02759373,0.0602876742 C3.16196381,0.110342038 3.27856473,0.190890188 3.37372734,0.299397481 C3.28337238,0.522022428 3.21846167,0.744408122 3.18135228,0.958479212 L3.18135228,0.958479212 L3.16366532,1.08055314 C3.14015821,1.30814157 3.07481524,1.5516573 2.9719388,1.79506652 C2.90759564,1.93700056 2.83279084,2.07700019 2.74884741,2.21258938 L2.74884741,2.21258938 L2.67481193,2.33958846 C2.58928491,2.48840231 2.50931369,2.63858924 2.46208298,2.78074323 C2.3316821,3.15030744 2.32759039,3.49489861 2.45088125,3.72411935 C2.27411337,3.89361785 2.08841194,4.03805936 1.90046336,4.1522431 C1.71239213,3.56159535 1.78991993,3.09182535 2.18687404,2.3900677 L2.18687404,2.3900677 L2.22938263,2.31368055 C2.50226428,1.81504356 2.61714572,1.43894671 2.66295838,1.18344248 L2.66295838,1.18344248 L2.67523334,1.10676329 L2.68353885,1.0380877 L2.68834932,0.979771312 L2.69001679,0.93978609 L2.69207229,0.925364994 C2.69660262,0.913287797 2.70238083,0.901256588 2.70922863,0.889642575 L2.70922863,0.889642575 L2.77137207,0.765821363 C2.81121934,0.682937659 2.84787238,0.599448687 2.88114579,0.515757583 L2.88114579,0.515757583 L2.91603925,0.424156076 C2.96072841,0.30208874 2.99804337,0.180394595 3.02759373,0.0602876742 Z M3.54476015,0.578002986 L3.56171353,0.621672276 C3.83573932,1.35724924 3.48809429,2.53427497 2.72585435,3.43109964 C2.63924781,3.26610223 2.64444462,3.01880713 2.74006288,2.75497419 C2.80133283,2.60404955 2.87866728,2.45475675 2.96940367,2.3122358 C3.07032439,2.14898345 3.15947489,1.98012396 3.23506165,1.80905441 C3.3563737,1.52106817 3.43412875,1.23301051 3.46340017,0.963132951 L3.46340017,0.963132951 L3.47107926,0.906633038 L3.479908,0.848146549 C3.49482678,0.759914453 3.51653602,0.669483942 3.54476015,0.578002986 L3.54476015,0.578002986 Z M2.69163194,8.65592893e-05 L2.76270219,0.00319710904 C2.63851699,0.652646886 2.23483336,1.34372992 1.70612418,1.81199756 C1.17741501,2.28026521 0.605526357,2.45322795 0.209296166,2.26470016 L0.209296166,2.26470016 L0.197386953,2.25950588 C0.266131858,2.07507144 0.351280904,1.89104506 0.450899901,1.71160696 C0.74292996,1.83057222 1.15085908,1.70045864 1.5289195,1.36776048 C1.81917255,1.11357327 2.06415628,0.763693211 2.20933647,0.396004788 C2.25499553,0.279938676 2.29003121,0.164104392 2.31363052,0.0511898639 C2.47124975,0.00865077183 2.62229798,-0.00749191019 2.76270219,0.00319710904 L2.69163194,8.65592893e-05 Z M2.02816314,0.154100182 C1.9588509,0.462377627 1.77896832,0.784257574 1.5400715,1.02748608 C1.30117468,1.27071458 1.02963666,1.4084404 0.803282902,1.40118998 L0.803282902,1.40118998 L0.765317288,1.39853143 C0.727953756,1.39449512 0.692432286,1.38633227 0.659075303,1.37410344 C1.04035824,0.815210976 1.53480308,0.374607899 2.02816314,0.154100182 Z" id="形状结合"></path>
                                        </g>
                                        <path d="M14.0897955,27.4941139 C14.2251198,27.417372 14.348846,27.4054609 14.4386665,27.4563976 C14.5284871,27.5073345 14.5798483,27.618537 14.5798483,27.7720208 L14.5798483,27.7720208 L14.5798483,32.9533678 C14.5798483,33.1189924 14.5201238,33.3023163 14.4244781,33.4650373 C14.3288325,33.627758 14.1970606,33.7702244 14.0510321,33.8530365 C13.9157077,33.9297783 13.7919816,33.9416895 13.702161,33.8907528 C13.6123405,33.8398158 13.5609793,33.7286133 13.5609793,33.5751295 L13.5609793,33.5751295 L13.5609793,28.3937825 C13.5609793,28.0625336 13.7977384,27.6597382 14.0897955,27.4941139 Z" id="矩形" stroke="#3F3F3F" stroke-width="0.2" fill="#D8D8D8"></path>
                                        <path d="M14.0704138,33.0569949 C14.2722547,32.9425317 14.4358791,32.6641595 14.4358791,32.4352332 C14.4358791,32.2063069 14.2722547,32.1135162 14.0704138,32.2279792 C13.8685729,32.3424425 13.7049485,32.6208147 13.7049485,32.8497409 C13.7049485,33.0786672 13.8685729,33.1714579 14.0704138,33.0569949 Z" id="椭圆形" fill="#3F4143"></path>
                                    </g>
                                    <polygon id="顶视图" fill="#F1F1F1" points="5.64985247 9.32642487 22.0957906 0 30.5014923 4.76683939 14.0555542 14.0932643"></polygon>
                                    <g id="左边枪把" transform="translate(5.996043, 38.772028)">
                                        <polygon id="矩形备份-262" fill="#CCCFD1" points="0.129342013 0.94763407 1.78298809 5.985691e-13 1.78298809 5.34905508 0.129342013 6.41249986"></polygon>
                                        <polygon id="矩形" fill="#DBDDDF" transform="translate(3.527408, 1.898238) scale(-1, 1) translate(-3.527408, -1.898238) " points="0.129341764 2.84884217 5.27182868 0 6.92547477 0.94763407 1.78298784 3.79647624"></polygon>
                                        <g id="编组-106" transform="translate(0.000000, 0.778034)">
                                            <path d="M3.01726033,18.0882148 L3.05617795,18.090403 C3.13913181,18.0987371 3.22979812,18.1304955 3.3250634,18.1862796 C3.7353953,18.426556 4.06751962,19.0110647 4.06751962,19.4914561 C4.06751962,19.7107229 3.99792049,19.8707703 3.87326135,19.9437664 C3.81347884,19.978773 3.74196475,19.9925186 3.66281971,19.9845671 C3.57986585,19.976233 3.48919954,19.9444746 3.39393426,19.8886905 C2.98360236,19.6484142 2.65147804,19.0639054 2.65147804,18.583514 C2.65147804,18.3642472 2.72107717,18.2041998 2.84573631,18.1312037 C2.90551882,18.0961971 2.97703291,18.0824515 3.05617795,18.090403 L3.01726033,18.0882148 Z" id="椭圆形备份-171" stroke="#86878D" stroke-width="0.5" fill="#6C727C"></path>
                                            <g id="枪芯" transform="translate(2.971864, 5.584329) scale(-1, 1) translate(-2.971864, -5.584329) translate(1.550538, 3.807497)">
                                                <path d="M1.76606877,3.30560608 C1.11753277,3.73227506 0.454673915,3.59249705 0.160069983,3.00944274 C0.486407568,3.18997783 0.923582986,3.14928998 1.34590995,2.87042588 C2.11139398,2.36964686 2.57353584,1.2777175 2.37787783,0.432129619 C2.35159737,0.317054934 2.31835259,0.210353091 2.26263802,0.111747303 C2.52182903,0.235333224 2.71669863,0.498005204 2.79783955,0.867309831 C2.99330046,1.7133129 2.5311586,2.80517307 1.76606877,3.30560608" id="Fill-31" fill="#86878D"></path>
                                                <path d="M0.160096263,3.00944965 C0.11285714,2.91880152 0.071859626,2.81216889 0.0447907544,2.68906733 C-0.15060445,1.84341026 0.311471701,0.751550096 1.07675863,0.250701888 C1.50611562,-0.036119862 1.93632671,-0.068850064 2.2625986,0.111754222 C2.31837887,0.210360011 2.35162365,0.317061854 2.37790411,0.432136539 C2.57349642,1.27772442 2.11135456,2.36958459 1.34593622,2.87043281 C0.923609267,3.14929688 0.486368148,3.18998476 0.160096263,3.00944965 Z" id="Fill-33" fill="#5B5B5B"></path>
                                                <path d="M1.41894991,2.25035808 C1.4067295,2.19465446 1.37729538,2.15500455 1.3382032,2.13639055 C1.28899304,2.10912691 1.22414601,2.1141091 1.15936468,2.15735725 C1.04392777,2.23292042 0.974218859,2.39760939 1.00371867,2.52513954 C1.00779214,2.54368435 1.01396805,2.55980727 1.02106378,2.57343908 C1.06554345,2.66145772 1.16547489,2.68256283 1.2633039,2.61814036 C1.37874081,2.5426464 1.44844972,2.37795743 1.41894991,2.25035808" id="Fill-37" fill="#86878D"></path>
                                                <path d="M2.31714369,0.956110398 C2.30492328,0.900406778 2.27548916,0.860756872 2.23639698,0.842142867 C2.18718682,0.814879231 2.12233979,0.819861417 2.05755846,0.86310957 C1.94212155,0.938672745 1.87241264,1.10336171 1.90184675,1.23096106 C1.90598592,1.24943667 1.91216183,1.26555958 1.91925756,1.2792606 C1.96373723,1.36721004 2.06366867,1.38831514 2.16149768,1.32389269 C2.27693459,1.24839871 2.3466435,1.08370975 2.31714369,0.956110398" id="Fill-39" fill="#86878D"></path>
                                                <path d="M0.582166989,1.61847143 C0.569946574,1.56276781 0.540512462,1.5231179 0.501420282,1.5045039 C0.452210123,1.47724026 0.387363092,1.48222245 0.322581765,1.5254706 C0.207144853,1.60103377 0.137435939,1.76572274 0.166935753,1.89325289 C0.171009224,1.9117977 0.177185131,1.92792061 0.184280855,1.94155243 C0.22876053,2.02957107 0.32869197,2.05067617 0.426520977,1.98625372 C0.541957887,1.91075975 0.611666802,1.74607078 0.582166989,1.61847143" id="Fill-41" fill="#86878D"></path>
                                                <path d="M1.48984144,1.3350265 C1.47762103,1.27932287 1.44818692,1.23967297 1.40909474,1.22105896 C1.35988458,1.19379533 1.29503755,1.19877751 1.23025622,1.24202567 C1.11481931,1.31758884 1.04511039,1.4822778 1.07461021,1.60980796 C1.07868368,1.62835277 1.08485959,1.64447568 1.09195531,1.6581075 C1.13643499,1.74612614 1.23636643,1.76723123 1.33419543,1.70280879 C1.44963234,1.62731481 1.51934126,1.46262585 1.48984144,1.3350265" id="Fill-43" fill="#86878D"></path>
                                                <path d="M1.41908131,0.419625713 C1.4068609,0.363922093 1.37742678,0.324272184 1.3383346,0.305658179 C1.28912445,0.278394546 1.22427742,0.283376732 1.15949609,0.326624885 C1.04405918,0.402188057 0.974350262,0.566877022 1.00385008,0.694407175 C1.00792355,0.712951985 1.01409945,0.729074895 1.02119518,0.742706714 C1.06567485,0.830725354 1.16560629,0.851830452 1.2634353,0.787408003 C1.37887221,0.711914029 1.44858112,0.547225063 1.41908131,0.419625713" id="Fill-35" fill="#86878D"></path>
                                            </g>
                                            <polygon id="路径-34" fill="#92979C" points="5.05100078 8.65570987 5.19159857 8.62467017 5.27182893 8.45624105 5.10818077 8.45624105"></polygon>
                                            <path d="M0.534770355,0.056250429 L4.84042778,2.42951811 C5.07868406,2.56084439 5.27182893,2.88022731 5.27182893,3.14287985 L5.27182893,8.48330773 C5.27182893,8.61463399 5.1752565,8.66786447 5.05612836,8.60220134 L4.41041899,8.24628794 L4.41041899,4.36313391 C4.41041899,4.10048137 4.21727411,3.78109844 3.97901781,3.64977216 L3.97901781,3.64977216 L1.39618031,2.22611855 C1.15792403,2.09479228 0.96477915,2.20125326 0.96477915,2.4639058 L0.96477915,2.4639058 L0.96477915,6.34705983 L2.68759906,7.29668727 L0.319069776,5.99114643 C0.199941634,5.9254833 0.103369195,5.76579182 0.103369195,5.63446554 L0.103369195,0.294037678 C0.103369195,0.0313851355 0.296514073,-0.075075842 0.534770355,0.056250429 Z" id="形状结合备份-56" fill="#82878D"></path>
                                            <path d="M0.43140116,0.0816337424 L4.73705859,2.45490142 C4.97531486,2.5862277 5.16845974,2.90561063 5.16845974,3.16826317 L5.16845974,8.50869104 C5.16845974,8.58360187 5.13703734,8.6331022 5.0879301,8.64961988 C5.05094736,8.66205936 5.00393449,8.65570988 4.95275916,8.62758466 L4.30704979,8.27167126 L4.30704979,4.38851722 C4.30704979,4.12586468 4.11390492,3.80648176 3.87564861,3.67515547 L3.87564861,3.67515547 L1.29281112,2.25150186 C1.05455484,2.12017559 0.861409956,2.22663657 0.861409956,2.48928911 L0.861409956,2.48928911 L0.861409956,6.37244314 L2.58422987,7.32207059 L0.21570058,6.01652974 C0.0965724394,5.95086661 0,5.79117514 0,5.65984885 L0,0.319420991 C0,0.0567684489 0.193144879,-0.0496925286 0.43140116,0.0816337424 Z" id="形状结合备份-57" fill="#979B9E"></path>
                                            <g id="右" transform="translate(5.271829, 2.070808)" fill="#C8CBCC">
                                                <polygon id="矩形" points="3.3041274e-17 0.94763407 2.37364352 8.46151954e-17 2.37364352 5.34905508 1.34950616e-12 6.41249986"></polygon>
                                            </g>
                                            <polygon id="路径-33" fill="#92979C" points="0.861409956 6.37244314 0.96477915 6.34705983 0.96477915 6.06123128 0.861409956 6.06123128"></polygon>
                                        </g>
                                    </g>
                                </g>
                            </g>
                        </g>
                    </g>
                </g>
            </g>
        </g>
    </g>
</svg>