<?xml version="1.0" encoding="UTF-8"?>
<svg width="50px" height="80px" viewBox="0 0 50 80" version="1.1" xmlns="http://www.w3.org/2000/svg" xmlns:xlink="http://www.w3.org/1999/xlink">
    <title>icon_照明</title>
    <defs>
        <path d="M3.76680265,1.49533336 C4.3202033,1.0537584 4.59773958,0.526879202 4.59941149,2.77555756e-17 L4.59941149,2.77555756e-17 M3.32207584,1.79807982 L0,8.00856388 C0.422992042,7.76268692 0.636995921,7.4365236 0.636995921,7.11036029 L0.636995921,7.11036029 L3.76680265,1.49533336 C3.63305022,1.60238183 3.48592256,1.70273977 3.32207584,1.79807982" id="path-1"></path>
        <path d="M1.53480907,5.20523199 C2.3975122,5.70367645 3.80525647,5.70367645 4.66127199,5.20523199 L4.66127199,5.20523199 L6.25125393,0.00167263239 C4.5392229,0.996888904 1.72540627,0.996888904 0,0 L0,0" id="path-3"></path>
        <path d="M1.53480907,5.20523199 C2.3975122,5.70367645 3.80525647,5.70367645 4.66127199,5.20523199 L4.66127199,5.20523199 L6.25125393,0.00167263239 C4.5392229,0.996888904 1.72540627,0.996888904 0,0 L0,0" id="path-5"></path>
        <path d="M0,1.8231693 C-0.00666189954,3.78851236 1.29073662,5.75720068 3.88887746,7.25755194 L3.88887746,7.25755194 C9.04670532,10.2365102 17.3844971,10.2381829 22.5088868,7.25922457 L22.5088868,7.25922457 C25.0551986,5.7789449 26.3308623,3.84036396 26.3358781,1.90178303 L26.3358781,1.90178303 L26.3408938,0.0769410899 C26.3358781,2.01719466 25.0618862,3.9557756 22.5139025,5.43438263 L22.5139025,5.43438263 C17.3895128,8.41501355 9.05339294,8.41334092 3.89389317,5.43438263 L3.89389317,5.43438263 C1.29575233,3.93235875 0,1.96534306 0.00336953228,0 L0.00336953228,0" id="path-7"></path>
        <path d="M0,1.8231693 C-0.00666189954,3.78851236 1.29073662,5.75720068 3.88887746,7.25755194 L3.88887746,7.25755194 C9.04670532,10.2365102 17.3844971,10.2381829 22.5088868,7.25922457 L22.5088868,7.25922457 C25.0551986,5.7789449 26.3308623,3.84036396 26.3358781,1.90178303 L26.3358781,1.90178303 L26.3408938,0.0769410899 C26.3358781,2.01719466 25.0618862,3.9557756 22.5139025,5.43438263 L22.5139025,5.43438263 C17.3895128,8.41501355 9.05339294,8.41334092 3.89389317,5.43438263 L3.89389317,5.43438263 C1.29575233,3.93235875 0,1.96534306 0.00336953228,0 L0.00336953228,0" id="path-9"></path>
        <path d="M0,1.8231693 C-0.00666189954,3.78851236 1.29073662,5.75720068 3.88887746,7.25755194 L3.88887746,7.25755194 C9.04670532,10.2365102 17.3844971,10.2381829 22.5088868,7.25922457 L22.5088868,7.25922457 C25.0551986,5.7789449 26.3308623,3.84036396 26.3358781,1.90178303 L26.3358781,1.90178303 L26.3408938,0.0769410899 C26.3358781,2.01719466 25.0618862,3.9557756 22.5139025,5.43438263 L22.5139025,5.43438263 C17.3895128,8.41501355 9.05339294,8.41334092 3.89389317,5.43438263 L3.89389317,5.43438263 C1.29575233,3.93235875 0,1.96534306 0.00336953228,0 L0.00336953228,0" id="path-11"></path>
        <path d="M0,1.82484194 C-0.00666189954,3.79018499 1.29073662,5.75887331 3.88887746,7.25922457 L3.88887746,7.25922457 C9.04670532,10.2381829 17.3844971,10.2398555 22.5088868,7.2608972 L22.5088868,7.2608972 C25.0551986,5.78061754 26.3308623,3.8420366 26.3358781,1.90345566 L26.3358781,1.90345566 L26.3408938,0.0786137223 C26.3358781,2.01886729 25.0618862,3.95744823 22.5139025,5.4377279 L22.5139025,5.4377279 C17.3895128,8.41668618 9.05339294,8.41334092 3.89389317,5.43438263 L3.89389317,5.43438263 C1.29575233,3.93403138 0,1.96701569 0.00336953228,0 L0.00336953228,0" id="path-13"></path>
        <path d="M0,1.82484194 C-0.00666189954,3.79018499 1.29073662,5.75887331 3.88887746,7.25922457 L3.88887746,7.25922457 C9.04670532,10.2381829 17.3844971,10.2398555 22.5088868,7.2608972 L22.5088868,7.2608972 C25.0551986,5.78061754 26.3308623,3.8420366 26.3358781,1.90345566 L26.3358781,1.90345566 L26.3408938,0.0786137223 C26.3358781,2.01886729 25.0618862,3.95744823 22.5139025,5.4377279 L22.5139025,5.4377279 C17.3895128,8.41668618 9.05339294,8.41334092 3.89389317,5.43438263 L3.89389317,5.43438263 C1.29575233,3.93403138 0,1.96701569 0.00336953228,0 L0.00336953228,0" id="path-15"></path>
        <path d="M0,1.82484194 C-0.00666189954,3.79018499 1.29073662,5.75887331 3.88887746,7.25922457 L3.88887746,7.25922457 C9.04670532,10.2381829 17.3844971,10.2398555 22.5088868,7.2608972 L22.5088868,7.2608972 C25.0551986,5.78061754 26.3308623,3.8420366 26.3358781,1.90345566 L26.3358781,1.90345566 L26.3408938,0.0786137223 C26.3358781,2.01886729 25.0618862,3.95744823 22.5139025,5.4377279 L22.5139025,5.4377279 C17.3895128,8.41668618 9.05339294,8.41334092 3.89389317,5.43438263 L3.89389317,5.43438263 C1.29575233,3.93403138 0,1.96701569 0.00336953228,0 L0.00336953228,0" id="path-17"></path>
        <path d="M0,1.82484194 C-0.00666189954,3.79018499 1.29073662,5.75887331 3.88887746,7.25922457 L3.88887746,7.25922457 C9.04670532,10.2381829 17.3844971,10.2415281 22.5088868,7.2608972 L22.5088868,7.2608972 C25.0551986,5.78061754 26.3308623,3.84370923 26.3358781,1.90345566 L26.3358781,1.90345566 L26.3408938,0.0786137223 C26.3358781,2.01886729 25.0618862,3.9557756 22.5139025,5.4377279 L22.5139025,5.4377279 C17.3895128,8.41668618 9.05339294,8.41501355 3.89389317,5.43438263 L3.89389317,5.43438263 C1.29575233,3.93570401 0,1.96701569 0.00336953228,0 L0.00336953228,0" id="path-19"></path>
        <path d="M0,1.82484194 C-0.00666189954,3.79018499 1.29073662,5.75887331 3.88887746,7.25922457 L3.88887746,7.25922457 C9.04670532,10.2381829 17.3844971,10.2415281 22.5088868,7.2608972 L22.5088868,7.2608972 C25.0551986,5.78061754 26.3308623,3.84370923 26.3358781,1.90345566 L26.3358781,1.90345566 L26.3408938,0.0786137223 C26.3358781,2.01886729 25.0618862,3.9557756 22.5139025,5.4377279 L22.5139025,5.4377279 C17.3895128,8.41668618 9.05339294,8.41501355 3.89389317,5.43438263 L3.89389317,5.43438263 C1.29575233,3.93570401 0,1.96701569 0.00336953228,0 L0.00336953228,0" id="path-21"></path>
        <path d="M0,1.82484194 C-0.00666189954,3.79018499 1.29073662,5.75887331 3.88887746,7.25922457 L3.88887746,7.25922457 C9.04670532,10.2381829 17.3844971,10.2415281 22.5088868,7.2608972 L22.5088868,7.2608972 C25.0551986,5.78061754 26.3308623,3.84370923 26.3358781,1.90345566 L26.3358781,1.90345566 L26.3408938,0.0786137223 C26.3358781,2.01886729 25.0618862,3.9557756 22.5139025,5.4377279 L22.5139025,5.4377279 C17.3895128,8.41668618 9.05339294,8.41501355 3.89389317,5.43438263 L3.89389317,5.43438263 C1.29575233,3.93570401 0,1.96701569 0.00336953228,0 L0.00336953228,0" id="path-23"></path>
        <path d="M0,1.82484194 C-0.00666189954,3.79018499 1.29073662,5.75720068 3.88887746,7.25922457 L3.88887746,7.25922457 C9.04670532,10.2381829 17.3844971,10.2415281 22.5088868,7.2608972 L22.5088868,7.2608972 C25.0551986,5.78061754 26.3308623,3.84370923 26.3358781,1.90345566 L26.3358781,1.90345566 L26.3408938,0.0786137223 C26.3358781,2.01886729 25.0618862,3.9557756 22.5139025,5.4377279 L22.5139025,5.4377279 C17.3895128,8.41668618 9.05339294,8.41501355 3.89389317,5.43605526 L3.89389317,5.43605526 C1.29575233,3.93570401 0,1.96534306 0.00336953228,0 L0.00336953228,0" id="path-25"></path>
        <path d="M0,1.82484194 C-0.00666189954,3.79018499 1.29073662,5.75720068 3.88887746,7.25922457 L3.88887746,7.25922457 C9.04670532,10.2381829 17.3844971,10.2415281 22.5088868,7.2608972 L22.5088868,7.2608972 C25.0551986,5.78061754 26.3308623,3.84370923 26.3358781,1.90345566 L26.3358781,1.90345566 L26.3408938,0.0786137223 C26.3358781,2.01886729 25.0618862,3.9557756 22.5139025,5.4377279 L22.5139025,5.4377279 C17.3895128,8.41668618 9.05339294,8.41501355 3.89389317,5.43605526 L3.89389317,5.43605526 C1.29575233,3.93570401 0,1.96534306 0.00336953228,0 L0.00336953228,0" id="path-27"></path>
        <path d="M0,1.82484194 C-0.00666189954,3.79018499 1.29073662,5.75720068 3.88887746,7.25922457 L3.88887746,7.25922457 C9.04670532,10.2381829 17.3844971,10.2415281 22.5088868,7.2608972 L22.5088868,7.2608972 C25.0551986,5.78061754 26.3308623,3.84370923 26.3358781,1.90345566 L26.3358781,1.90345566 L26.3408938,0.0786137223 C26.3358781,2.01886729 25.0618862,3.9557756 22.5139025,5.4377279 L22.5139025,5.4377279 C17.3895128,8.41668618 9.05339294,8.41501355 3.89389317,5.43605526 L3.89389317,5.43605526 C1.29575233,3.93570401 0,1.96534306 0.00336953228,0 L0.00336953228,0" id="path-29"></path>
        <path d="M0,1.8231693 C-0.00666189954,3.78851236 1.29073662,5.75552805 3.88887746,7.25755194 L3.88887746,7.25755194 C9.04670532,10.2381829 17.3844971,10.2381829 22.5088868,7.25922457 L22.5088868,7.25922457 C25.0551986,5.7789449 26.3308623,3.84036396 26.3358781,1.90011039 L26.3358781,1.90011039 L26.3408938,0.0769410899 C26.3358781,2.01719466 25.0618862,3.95410297 22.5139025,5.43605526 L22.5139025,5.43605526 C17.3895128,8.41501355 9.05339294,8.41334092 3.89389317,5.43438263 L3.89389317,5.43438263 C1.29575233,3.93235875 0,1.96367042 0.00336953228,0 L0.00336953228,0" id="path-31"></path>
        <path d="M0,1.8231693 C-0.00666189954,3.78851236 1.29073662,5.75552805 3.88887746,7.25755194 L3.88887746,7.25755194 C9.04670532,10.2381829 17.3844971,10.2381829 22.5088868,7.25922457 L22.5088868,7.25922457 C25.0551986,5.7789449 26.3308623,3.84036396 26.3358781,1.90011039 L26.3358781,1.90011039 L26.3408938,0.0769410899 C26.3358781,2.01719466 25.0618862,3.95410297 22.5139025,5.43605526 L22.5139025,5.43605526 C17.3895128,8.41501355 9.05339294,8.41334092 3.89389317,5.43438263 L3.89389317,5.43438263 C1.29575233,3.93235875 0,1.96367042 0.00336953228,0 L0.00336953228,0" id="path-33"></path>
        <path d="M0,1.8231693 C-0.00666189954,3.78851236 1.29073662,5.75552805 3.88887746,7.25755194 L3.88887746,7.25755194 C9.04670532,10.2381829 17.3844971,10.2381829 22.5088868,7.25922457 L22.5088868,7.25922457 C25.0551986,5.7789449 26.3308623,3.84036396 26.3358781,1.90011039 L26.3358781,1.90011039 L26.3408938,0.0769410899 C26.3358781,2.01719466 25.0618862,3.95410297 22.5139025,5.43605526 L22.5139025,5.43605526 C17.3895128,8.41501355 9.05339294,8.41334092 3.89389317,5.43438263 L3.89389317,5.43438263 C1.29575233,3.93235875 0,1.96367042 0.00336953228,0 L0.00336953228,0" id="path-35"></path>
        <path d="M0,1.82149667 C-0.00666189954,3.78851236 1.29073662,5.75720068 3.88887746,7.2558793 L3.88887746,7.2558793 C9.04670532,10.2365102 17.3844971,10.2381829 22.5088868,7.25922457 L22.5088868,7.25922457 C25.0551986,5.7789449 26.3308623,3.84036396 26.3358781,1.90011039 L26.3358781,1.90011039 L26.3408938,0.0769410899 C26.3358781,2.01552203 25.0618862,3.95410297 22.5139025,5.43438263 L22.5139025,5.43438263 C17.3895128,8.41334092 9.05339294,8.41334092 3.89389317,5.43271 L3.89389317,5.43271 C1.29575233,3.93235875 0,1.96367042 0.00336953228,0 L0.00336953228,0" id="path-37"></path>
        <path d="M0,1.82149667 C-0.00666189954,3.78851236 1.29073662,5.75720068 3.88887746,7.2558793 L3.88887746,7.2558793 C9.04670532,10.2365102 17.3844971,10.2381829 22.5088868,7.25922457 L22.5088868,7.25922457 C25.0551986,5.7789449 26.3308623,3.84036396 26.3358781,1.90011039 L26.3358781,1.90011039 L26.3408938,0.0769410899 C26.3358781,2.01552203 25.0618862,3.95410297 22.5139025,5.43438263 L22.5139025,5.43438263 C17.3895128,8.41334092 9.05339294,8.41334092 3.89389317,5.43271 L3.89389317,5.43271 C1.29575233,3.93235875 0,1.96367042 0.00336953228,0 L0.00336953228,0" id="path-39"></path>
        <path d="M0,1.82149667 C-0.00666189954,3.78851236 1.29073662,5.75720068 3.88887746,7.2558793 L3.88887746,7.2558793 C9.04670532,10.2365102 17.3844971,10.2381829 22.5088868,7.25922457 L22.5088868,7.25922457 C25.0551986,5.7789449 26.3308623,3.84036396 26.3358781,1.90011039 L26.3358781,1.90011039 L26.3408938,0.0769410899 C26.3358781,2.01552203 25.0618862,3.95410297 22.5139025,5.43438263 L22.5139025,5.43438263 C17.3895128,8.41334092 9.05339294,8.41334092 3.89389317,5.43271 L3.89389317,5.43271 C1.29575233,3.93235875 0,1.96367042 0.00336953228,0 L0.00336953228,0" id="path-41"></path>
        <path d="M0,1.82484194 C-0.00666189954,3.79018499 1.29073662,5.75887331 3.88887746,7.25922457 L3.88887746,7.25922457 C9.04670532,10.2381829 17.3844971,10.2398555 22.5088868,7.2608972 L22.5088868,7.2608972 C25.0551986,5.7789449 26.3308623,3.8420366 26.3358781,1.90178303 L26.3358781,1.90178303 L26.3408938,0.0786137223 C26.3358781,2.01886729 25.0618862,3.9557756 22.5139025,5.43605526 L22.5139025,5.43605526 C17.3895128,8.41668618 9.05339294,8.41334092 3.89389317,5.43438263 L3.89389317,5.43438263 C1.29575233,3.93403138 0,1.96534306 0.00336953228,0 L0.00336953228,0" id="path-43"></path>
        <path d="M0,1.82484194 C-0.00666189954,3.79018499 1.29073662,5.75887331 3.88887746,7.25922457 L3.88887746,7.25922457 C9.04670532,10.2381829 17.3844971,10.2398555 22.5088868,7.2608972 L22.5088868,7.2608972 C25.0551986,5.7789449 26.3308623,3.8420366 26.3358781,1.90178303 L26.3358781,1.90178303 L26.3408938,0.0786137223 C26.3358781,2.01886729 25.0618862,3.9557756 22.5139025,5.43605526 L22.5139025,5.43605526 C17.3895128,8.41668618 9.05339294,8.41334092 3.89389317,5.43438263 L3.89389317,5.43438263 C1.29575233,3.93403138 0,1.96534306 0.00336953228,0 L0.00336953228,0" id="path-45"></path>
        <path d="M0,1.82484194 C-0.00666189954,3.79018499 1.29073662,5.75887331 3.88887746,7.25922457 L3.88887746,7.25922457 C9.04670532,10.2381829 17.3844971,10.2398555 22.5088868,7.2608972 L22.5088868,7.2608972 C25.0551986,5.7789449 26.3308623,3.8420366 26.3358781,1.90178303 L26.3358781,1.90178303 L26.3408938,0.0786137223 C26.3358781,2.01886729 25.0618862,3.9557756 22.5139025,5.43605526 L22.5139025,5.43605526 C17.3895128,8.41668618 9.05339294,8.41334092 3.89389317,5.43438263 L3.89389317,5.43438263 C1.29575233,3.93403138 0,1.96534306 0.00336953228,0 L0.00336953228,0" id="path-47"></path>
        <path d="M0,1.82484194 C-0.00666189954,3.78851236 1.29073662,5.75887331 3.88887746,7.25922457 L3.88887746,7.25922457 C9.04670532,10.2381829 17.3844971,10.2398555 22.5088868,7.2608972 L22.5088868,7.2608972 C25.0551986,5.7789449 26.3308623,3.8420366 26.3358781,1.90345566 L26.3358781,1.90345566 L26.3408938,0.0786137223 C26.3358781,2.01886729 25.0618862,3.9557756 22.5139025,5.43605526 L22.5139025,5.43605526 C17.3895128,8.41668618 9.05339294,8.41334092 3.89389317,5.43438263 L3.89389317,5.43438263 C1.29575233,3.93403138 0,1.96534306 0.00336953228,0 L0.00336953228,0" id="path-49"></path>
        <path d="M0,1.82484194 C-0.00666189954,3.78851236 1.29073662,5.75887331 3.88887746,7.25922457 L3.88887746,7.25922457 C9.04670532,10.2381829 17.3844971,10.2398555 22.5088868,7.2608972 L22.5088868,7.2608972 C25.0551986,5.7789449 26.3308623,3.8420366 26.3358781,1.90345566 L26.3358781,1.90345566 L26.3408938,0.0786137223 C26.3358781,2.01886729 25.0618862,3.9557756 22.5139025,5.43605526 L22.5139025,5.43605526 C17.3895128,8.41668618 9.05339294,8.41334092 3.89389317,5.43438263 L3.89389317,5.43438263 C1.29575233,3.93403138 0,1.96534306 0.00336953228,0 L0.00336953228,0" id="path-51"></path>
        <path d="M0,1.82484194 C-0.00666189954,3.78851236 1.29073662,5.75887331 3.88887746,7.25922457 L3.88887746,7.25922457 C9.04670532,10.2381829 17.3844971,10.2398555 22.5088868,7.2608972 L22.5088868,7.2608972 C25.0551986,5.7789449 26.3308623,3.8420366 26.3358781,1.90345566 L26.3358781,1.90345566 L26.3408938,0.0786137223 C26.3358781,2.01886729 25.0618862,3.9557756 22.5139025,5.43605526 L22.5139025,5.43605526 C17.3895128,8.41668618 9.05339294,8.41334092 3.89389317,5.43438263 L3.89389317,5.43438263 C1.29575233,3.93403138 0,1.96534306 0.00336953228,0 L0.00336953228,0" id="path-53"></path>
        <path d="M24.9983281,0 C11.1917341,0 0,11.2049644 0,25.0108721 L0,25.0108721 C0,29.40655 1.1335518,33.5463152 3.13147863,37.1307664 L3.13147863,37.1307664 C3.73002073,38.2213227 4.4121581,39.2650453 5.1695312,40.2468805 L5.1695312,40.2468805 L5.17789072,40.2535711 C6.19273724,41.3424548 7.49347957,42.3527247 9.05336722,43.2492557 L9.05336722,43.2492557 C13.3284291,45.7197337 19.0179228,47.074566 25.0652043,47.074566 L25.0652043,47.074566 C31.1208453,47.074566 36.7952919,45.7197337 41.0436033,43.2492557 L41.0436033,43.2492557 C42.4245971,42.4447195 43.5932589,41.5615696 44.5429011,40.6115144 L44.5429011,40.6115144 C45.4524176,39.4774696 46.2616197,38.2547754 46.9588043,36.9651758 L46.9588043,36.9651758 C48.8965425,33.4191951 50,29.34299 50,25.0108721 L50,25.0108721 C50,11.2049644 38.8082659,0 24.9983281,0 Z" id="path-55"></path>
        <radialGradient cx="29.7028263%" cy="34.705833%" fx="29.7028263%" fy="34.705833%" r="77.3292207%" gradientTransform="translate(0.297028,0.347058),scale(0.941491,1.000000),rotate(44.998620),scale(1.000000,0.979314),translate(-0.297028,-0.347058)" id="radialGradient-57">
            <stop stop-color="#F8F8F8" offset="0%"></stop>
            <stop stop-color="#D8D9DC" offset="63.3908707%"></stop>
            <stop stop-color="#CFD1D4" offset="100%"></stop>
            <stop stop-color="#CED0D4" offset="100%"></stop>
        </radialGradient>
    </defs>
    <g id="光储充及工商储管理系统V1.3" stroke="none" stroke-width="1" fill="none" fill-rule="evenodd">
        <g id="3_2_7.设备监视_示范站站点拓扑_用电设备能量流" transform="translate(-1604.000000, -814.000000)">
            <g id="main" transform="translate(212.000000, 102.000000)">
                <g transform="translate(44.000000, 40.000000)" id="照明">
                    <g transform="translate(1336.000000, 672.000000)">
                        <g id="icon_照明" transform="translate(12.000000, 0.000000)">
                            <path d="M32.8883836,70.6108453 L28.9276399,77.7212056 C28.925968,78.0473689 28.7136361,78.3735323 28.2873002,78.6194092 L31.609376,72.4089252 C32.4603758,71.913826 32.8867117,71.263172 32.8883836,70.6108453" id="Fill-1" fill="#1B1B1E"></path>
                            <g id="编组" transform="translate(28.288638, 70.610176)">
                                <mask id="mask-2" fill="white">
                                    <use xlink:href="#path-1"></use>
                                </mask>
                                <g id="Clip-4"></g>
                                <path d="M4.59974587,0.000669052957 L0.639002207,7.11102934 C0.637330302,7.21305991 0.617267438,7.31509049 0.575469805,7.41544843 L4.47268107,0.60783461 C4.55627633,0.408791356 4.59974587,0.204730204 4.59974587,0.000669052957" id="Fill-3" fill="#1B1B1E" mask="url(#mask-2)"></path>
                            </g>
                            <g id="编组" transform="translate(17.109104, 70.584083)" fill="#1B1B1E">
                                <path d="M15.6527166,0.634763992 L11.7538335,7.44070518 C11.6618787,7.65982002 11.4712815,7.86555381 11.178698,8.03616231 L14.5007739,1.82400562 C15.0859407,1.48446125 15.4688071,1.07132105 15.6527166,0.634763992" id="Fill-5"></path>
                                <path d="M1.30074713,1.82484194 L4.57768152,8.035326 C4.14465805,7.78443114 3.88718463,7.30773091 3.72835363,7.0183655 C2.63659947,5.04131402 0,0 0,0 C-0.00166710095,0.660689794 0.433028278,1.32305222 1.30074713,1.82484194" id="Fill-9"></path>
                                <polygon id="Fill-11" points="14.5009411 1.82467467 11.1788652 8.03515873 9.44677134 9.04208343 11.0367533 3.83852407"></polygon>
                                <polygon id="Fill-13" points="4.78549935 3.83752049 6.32030842 9.04275248 4.5781831 8.03582779 1.3012487 1.82534373"></polygon>
                                <path d="M11.037422,3.83852407 L9.4474401,9.04208343 C8.58975268,9.54052788 7.18368032,9.54052788 6.32097718,9.04208343 L4.78616812,3.83685144 C6.51157439,4.83374034 9.32539101,4.83374034 11.037422,3.83852407" id="Fill-15"></path>
                            </g>
                            <g id="编组" transform="translate(21.895272, 74.420433)">
                                <g>
                                    <mask id="mask-4" fill="white">
                                        <use xlink:href="#path-3"></use>
                                    </mask>
                                    <g id="Clip-18"></g>
                                    <path d="M6.25125393,0.00217442211 L4.66127199,5.20573378 C4.22156089,5.46164654 3.63973785,5.58542134 3.05958671,5.58040344 L3.04955527,0.748168468 C4.20985755,0.759876894 5.37517555,0.512327301 6.25125393,0.00217442211" id="Fill-17" fill="#1B1B1E" mask="url(#mask-4)"></path>
                                </g>
                                <g>
                                    <mask id="mask-6" fill="white">
                                        <use xlink:href="#path-5"></use>
                                    </mask>
                                    <g id="Clip-20"></g>
                                    <path d="M3.05005684,0.748168468 L3.06008828,5.58040344 C2.50668762,5.57371291 1.95663078,5.44993811 1.53531064,5.20573378 L-0.00117033371,0.000501789716 C0.841469939,0.487237815 1.94325553,0.736460041 3.05005684,0.748168468" id="Fill-19" fill="#1B1B1E" mask="url(#mask-6)"></path>
                                </g>
                            </g>
                            <g id="编组" transform="translate(11.827712, 57.119309)">
                                <path d="M19.7605976,11.6666945 C21.4860039,12.6635834 21.4943634,14.2944 19.7823324,15.2896163 L16.3181446,17.3034657 C14.6061136,18.298682 11.792297,18.298682 10.0668907,17.3017931 L6.58264005,15.2896163 C4.85723377,14.2927274 4.84720234,12.6619108 6.56090528,11.6666945 L10.0234212,9.65284515 C11.7371241,8.65762888 14.5509407,8.65762888 16.276347,9.65451778 L19.7605976,11.6666945 Z" id="Fill-21" fill="#1B1B1E"></path>
                                <path d="M25.2288983,9.17564313 L24.0017198,14.1232897 C23.5419459,15.1017797 22.6809146,16.028418 21.4186261,16.8195731 L22.3582369,12.1713277 C23.7609655,11.2931957 24.7172953,10.2628542 25.2288983,9.17564313" id="Fill-23" fill="#646370"></path>
                                <path d="M22.3579025,12.1704914 L21.4182918,16.8187368 C21.3246651,16.877279 21.2276946,16.9358211 21.130724,16.9926906 C19.1528601,18.141789 16.6165797,18.7723715 14.0234546,18.8844378 L14.1421599,14.4653431 C17.0228527,14.3415683 19.8416851,13.6407353 22.0368967,12.3628441 C22.1472425,12.2992841 22.2542444,12.2357241 22.3579025,12.1704914" id="Fill-25" fill="#646370"></path>
                                <path d="M14.1414911,14.4648413 L14.0244577,18.883936 C12.2405348,18.9608771 10.4298613,18.7919413 8.75628413,18.3771284 L8.28982255,13.9028368 C10.1489812,14.3628107 12.1602833,14.5501455 14.1414911,14.4648413" id="Fill-27" fill="#646370"></path>
                                <path d="M8.28965536,13.902335 L8.75611694,18.3782993 C7.47376557,18.0604991 6.27166566,17.5988526 5.22338104,16.9933596 C3.0047627,15.7121232 2.09691812,14.0194193 1.9029771,12.3518048 C1.74916182,11.0387883 0.674099593,7.20678754 0.674099593,7.20678754 C0.667439084,9.07177266 1.89796139,10.940103 4.3623498,12.3635132 C5.5276678,13.037584 6.86352014,13.5494096 8.28965536,13.902335" id="Fill-29" fill="#646370"></path>
                                <path d="M21.9798847,2.12131603 C26.8768954,4.9497374 26.9036459,9.53442277 22.0384014,12.3628441 C17.173157,15.1912655 9.25835729,15.1912655 4.36301857,12.3645168 C-0.533992067,9.53609541 -0.559070646,4.9497374 4.30450188,2.12131603 C9.16974631,-0.707105342 17.0828741,-0.707105342 21.9798847,2.12131603" id="Fill-31" fill="#646370"></path>
                                <path d="M26.3425544,5.72383167 L26.3375387,7.54700097 C26.332523,9.48725454 25.0568593,11.4258355 22.5105475,12.9061151 C17.3861577,15.8850734 9.04836599,15.8834008 3.89053813,12.9044425 C1.29239729,11.4040913 -0.00500122891,9.43540294 0,7.47005988 L0.00503020291,5.64521794 C0,7.610561 1.297413,9.57924932 3.89555384,11.0796006 C9.0533817,14.0602315 17.3911735,14.0619041 22.5155632,11.0812732 C25.061875,9.60099354 26.3375387,7.66408524 26.3425544,5.72383167" id="Fill-33" fill="#938FA3"></path>
                                <path d="M26.3425544,5.72383167 L26.3375387,7.54700097 C26.332523,9.48725454 25.0568593,11.4258355 22.5105475,12.9061151 C17.3861577,15.8850734 9.04836599,15.8834008 3.89053813,12.9044425 C1.29239729,11.4040913 -0.00500122891,9.43540294 0,7.47005988 L0.00503020291,5.64521794 C0,7.610561 1.297413,9.57924932 3.89555384,11.0796006 C9.0533817,14.0602315 17.3911735,14.0619041 22.5155632,11.0812732 C25.061875,9.60099354 26.3375387,7.66408524 26.3425544,5.72383167" id="Fill-35" fill="#AFB5BB"></path>
                            </g>
                            <g id="编组" transform="translate(11.828704, 62.765530)">
                                <g>
                                    <mask id="mask-8" fill="white">
                                        <use xlink:href="#path-7"></use>
                                    </mask>
                                    <g id="Clip-38"></g>
                                    <path d="M26.3415625,0.0776101428 L26.3365468,1.90077945 C26.3348749,2.50627237 26.209482,3.11009266 25.96204,3.7005319 L25.9670557,1.87568996 C26.2144977,1.28692336 26.3398906,0.681430435 26.3415625,0.0776101428" id="Fill-37" fill="#AFB5BB" mask="url(#mask-8)"></path>
                                </g>
                                <g>
                                    <mask id="mask-10" fill="white">
                                        <use xlink:href="#path-9"></use>
                                    </mask>
                                    <g id="Clip-40"></g>
                                    <path d="M25.9667214,1.87635901 L25.9617057,3.69952832 C25.4133207,5.00418158 24.2630499,6.24025692 22.5092212,7.26056267 C19.8876737,8.78433078 16.4234859,9.52865219 12.9760172,9.49185428 L12.9810329,7.66868498 C16.4285016,7.70381026 19.8926894,6.96116148 22.5142369,5.43572074 C24.2680656,4.41541498 25.4183364,3.18101228 25.9667214,1.87635901" id="Fill-39" fill="#AFB5BB" mask="url(#mask-10)"></path>
                                </g>
                                <g>
                                    <mask id="mask-12" fill="white">
                                        <use xlink:href="#path-11"></use>
                                    </mask>
                                    <g id="Clip-42"></g>
                                    <path d="M12.9810329,7.66835045 L12.9760172,9.49151975 C9.68570752,9.45806711 6.40710122,8.71207306 3.88921184,7.25855551 C1.291071,5.75653163 -0.00632751848,3.78784331 -0.00132628956,1.82417288 L0.00370391334,-0.000669052954 C-0.00132628956,1.964674 1.29608671,3.93336233 3.89422755,5.43371358 C6.41378885,6.88890376 9.69072324,7.63322517 12.9810329,7.66835045" id="Fill-41" fill="#AFB5BB" mask="url(#mask-12)"></path>
                                </g>
                            </g>
                            <g id="编组" transform="translate(11.827712, 55.172365)">
                                <path d="M22.4545387,2.23672766 C27.6123665,5.21568595 27.6441327,10.0479209 22.5147273,13.0285518 C17.3903375,16.0091828 9.05421766,16.0058375 3.89471789,13.0268792 C-1.26645378,10.0462483 -1.29320427,5.21735858 3.83118549,2.23672766 C8.95891905,-0.745575887 17.293367,-0.745575887 22.4545387,2.23672766" id="Fill-43" fill="#646370"></path>
                                <path d="M26.3425544,7.67077577 L26.3375387,9.49394507 C26.332523,11.4341986 25.0568593,13.3727796 22.5105475,14.8530592 C17.3861577,17.8320175 9.04836599,17.8303449 3.89053813,14.8513866 C1.29239729,13.3510354 -0.00500122891,11.382347 0,9.41700398 L0.00503020291,7.59216204 C0,9.5575051 1.297413,11.5261934 3.89555384,13.0265447 C9.0533817,16.0071756 17.3911735,16.0088482 22.5155632,13.0282173 C25.061875,11.5479376 26.3375387,9.61102934 26.3425544,7.67077577" id="Fill-45" fill="#938FA3"></path>
                                <path d="M26.3425544,5.22020205 L26.3375387,7.04337136 C26.332523,8.98362493 25.0568593,10.9205332 22.5105475,12.4024855 C17.3861577,15.3814438 9.04836599,15.3797712 3.89053813,12.4008129 C1.29239729,10.9004616 -0.00500122891,8.93177332 0,6.96643027 L0.00503020291,5.14158833 C0,7.10693139 1.297413,9.07561971 3.89555384,10.575971 C9.0533817,13.5566019 17.3911735,13.5582745 22.5155632,10.5793162 C25.061875,9.09736393 26.3375387,7.16045563 26.3425544,5.22020205" id="Fill-47" fill="#938FA3"></path>
                                <path d="M26.3425544,5.22020205 L26.3375387,7.04337136 C26.332523,8.98362493 25.0568593,10.9205332 22.5105475,12.4024855 C17.3861577,15.3814438 9.04836599,15.3797712 3.89053813,12.4008129 C1.29239729,10.9004616 -0.00500122891,8.93177332 0,6.96643027 L0.00503020291,5.14158833 C0,7.10693139 1.297413,9.07561971 3.89555384,10.575971 C9.0533817,13.5566019 17.3911735,13.5582745 22.5155632,10.5793162 C25.061875,9.09736393 26.3375387,7.16045563 26.3425544,5.22020205" id="Fill-49" fill="#AFB5BB"></path>
                            </g>
                            <g id="编组" transform="translate(11.828704, 60.313451)">
                                <g>
                                    <mask id="mask-14" fill="white">
                                        <use xlink:href="#path-13"></use>
                                    </mask>
                                    <g id="Clip-52"></g>
                                    <path d="M26.3415625,0.079115512 L26.3365468,1.90228482 C26.3348749,2.50777774 26.209482,3.11159803 25.96204,3.70203727 L25.9670557,1.87886796 C26.2144977,1.28842873 26.3398906,0.682935804 26.3415625,0.079115512" id="Fill-51" fill="#AFB5BB" mask="url(#mask-14)"></path>
                                </g>
                                <g>
                                    <mask id="mask-16" fill="white">
                                        <use xlink:href="#path-15"></use>
                                    </mask>
                                    <g id="Clip-54"></g>
                                    <path d="M25.9667214,1.87803165 L25.9617057,3.70120095 C25.4133207,5.00585421 24.2630499,6.24192955 22.5092212,7.26056267 C19.8876737,8.78600341 16.4234859,9.53032483 12.9760172,9.49352691 L12.9810329,7.67035761 C16.4285016,7.70548289 19.8926894,6.96283411 22.5142369,5.43739337 C24.2680656,4.41708761 25.4183364,3.18268491 25.9667214,1.87803165" id="Fill-53" fill="#AFB5BB" mask="url(#mask-16)"></path>
                                </g>
                                <g>
                                    <mask id="mask-18" fill="white">
                                        <use xlink:href="#path-17"></use>
                                    </mask>
                                    <g id="Clip-56"></g>
                                    <path d="M12.9810329,7.66985582 L12.9760172,9.49302512 C9.68570752,9.45957248 6.40710122,8.71525106 3.88921184,7.26006088 C1.291071,5.758037 -0.00632751848,3.79102131 -0.00132628956,1.82567825 L0.00370391334,0.000836316195 C-0.00132628956,1.96617937 1.29608671,3.93486769 3.89422755,5.43521895 C6.41378885,6.89040913 9.69072324,7.63473054 12.9810329,7.66985582" id="Fill-55" fill="#AFB5BB" mask="url(#mask-18)"></path>
                                </g>
                            </g>
                            <g id="编组" transform="translate(11.827712, 52.721791)">
                                <path d="M22.4545387,2.23672766 C27.6123665,5.21568595 27.6441327,10.0479209 22.5147273,13.0285518 C17.3903375,16.0091828 9.05421766,16.0058375 3.89471789,13.0268792 C-1.26645378,10.0462483 -1.29320427,5.21568595 3.83118549,2.23672766 C8.95891905,-0.745575887 17.293367,-0.745575887 22.4545387,2.23672766" id="Fill-57" fill="#646370"></path>
                                <path d="M26.3425544,7.67077577 L26.3375387,9.49394507 C26.332523,11.4341986 25.0568593,13.3711069 22.5105475,14.8530592 C17.3861577,17.8320175 9.04836599,17.8303449 3.89053813,14.8513866 C1.29239729,13.3510354 -0.00500122891,11.382347 0,9.41700398 L0.00503020291,7.59216204 C0,9.5575051 1.297413,11.5261934 3.89555384,13.0265447 C9.0533817,16.0071756 17.3911735,16.0088482 22.5155632,13.0298899 C25.061875,11.5479376 26.3375387,9.61102934 26.3425544,7.67077577" id="Fill-59" fill="#938FA3"></path>
                                <path d="M26.3425544,5.22020205 L26.3375387,7.04337136 C26.332523,8.98362493 25.0568593,10.9222059 22.5105475,12.4024855 C17.3861577,15.3814438 9.04836599,15.3797712 3.89053813,12.4008129 C1.29239729,10.9004616 -0.00500122891,8.93177332 0,6.96643027 L0.00503020291,5.14158833 C0,7.10693139 1.297413,9.07561971 3.89555384,10.575971 C9.0533817,13.5566019 17.3911735,13.5582745 22.5155632,10.5793162 C25.061875,9.09736393 26.3375387,7.16045563 26.3425544,5.22020205" id="Fill-61" fill="#938FA3"></path>
                                <path d="M26.3425544,5.22020205 L26.3375387,7.04337136 C26.332523,8.98362493 25.0568593,10.9222059 22.5105475,12.4024855 C17.3861577,15.3814438 9.04836599,15.3797712 3.89053813,12.4008129 C1.29239729,10.9004616 -0.00500122891,8.93177332 0,6.96643027 L0.00503020291,5.14158833 C0,7.10693139 1.297413,9.07561971 3.89555384,10.575971 C9.0533817,13.5566019 17.3911735,13.5582745 22.5155632,10.5793162 C25.061875,9.09736393 26.3375387,7.16045563 26.3425544,5.22020205" id="Fill-63" fill="#AFB5BB"></path>
                            </g>
                            <g id="编组" transform="translate(11.828704, 57.863045)">
                                <g>
                                    <mask id="mask-20" fill="white">
                                        <use xlink:href="#path-19"></use>
                                    </mask>
                                    <g id="Clip-66"></g>
                                    <path d="M26.3415625,0.0789482488 L26.3365468,1.90211755 C26.3348749,2.50761048 26.209482,3.11143077 25.96204,3.70187 L25.9670557,1.8787007 C26.2144977,1.28826147 26.3398906,0.682768541 26.3415625,0.0789482488" id="Fill-65" fill="#AFB5BB" mask="url(#mask-20)"></path>
                                </g>
                                <g>
                                    <mask id="mask-22" fill="white">
                                        <use xlink:href="#path-21"></use>
                                    </mask>
                                    <g id="Clip-68"></g>
                                    <path d="M25.9667214,1.87786438 L25.9617057,3.70103369 C25.4133207,5.00568695 24.2630499,6.24176229 22.5092212,7.26206804 C19.8876737,8.78583615 16.4234859,9.53015756 12.9760172,9.49335965 L12.9810329,7.67019035 C16.4285016,7.70531563 19.8926894,6.96266685 22.5142369,5.43722611 C24.2680656,4.41692035 25.4183364,3.18251765 25.9667214,1.87786438" id="Fill-67" fill="#AFB5BB" mask="url(#mask-22)"></path>
                                </g>
                                <g>
                                    <mask id="mask-24" fill="white">
                                        <use xlink:href="#path-23"></use>
                                    </mask>
                                    <g id="Clip-70"></g>
                                    <path d="M12.9810329,7.66968856 L12.9760172,9.49285786 C9.68570752,9.45940521 6.40710122,8.71341117 3.88921184,7.25989362 C1.291071,5.75786974 -0.00632751848,3.78918141 -0.00132628956,1.82383836 L0.00370391334,0.000669052957 C-0.00132628956,1.96601211 1.29608671,3.93470043 3.89422755,5.43505168 C6.41378885,6.89024186 9.69072324,7.63456328 12.9810329,7.66968856" id="Fill-69" fill="#AFB5BB" mask="url(#mask-24)"></path>
                                </g>
                            </g>
                            <g id="编组" transform="translate(11.827712, 50.271385)">
                                <path d="M22.4545387,2.23672766 C27.6123665,5.21568595 27.6441327,10.0479209 22.5147273,13.0285518 C17.3903375,16.0091828 9.05421766,16.0058375 3.89471789,13.0268792 C-1.26645378,10.0462483 -1.29320427,5.21568595 3.83118549,2.23672766 C8.95891905,-0.745575887 17.293367,-0.745575887 22.4545387,2.23672766" id="Fill-71" fill="#646370"></path>
                                <path d="M26.3425544,7.6706085 L26.3375387,9.49377781 C26.332523,11.4340314 25.0568593,13.3726123 22.5105475,14.852892 C17.3861577,17.8318503 9.04836599,17.8301776 3.89053813,14.8512193 C1.29239729,13.3508681 -0.00500122891,11.3821798 0,9.41683672 L0.00503020291,7.59199478 C0,9.55733784 1.297413,11.5260262 3.89555384,13.0263774 C9.0533817,16.0070083 17.3911735,16.008681 22.5155632,13.0297227 C25.061875,11.5477704 26.3375387,9.61086207 26.3425544,7.6706085" id="Fill-73" fill="#938FA3"></path>
                                <path d="M26.3425544,5.22020205 L26.3375387,7.04337136 C26.332523,8.98362493 25.0568593,10.9205332 22.5105475,12.4024855 C17.3861577,15.3814438 9.04836599,15.3797712 3.89053813,12.4008129 C1.29239729,10.9004616 -0.00500122891,8.93177332 0,6.96643027 L0.00503020291,5.14158833 C0,7.10693139 1.297413,9.07561971 3.89555384,10.575971 C9.0533817,13.5566019 17.3911735,13.5582745 22.5155632,10.5776436 C25.061875,9.09736393 26.3375387,7.16045563 26.3425544,5.22020205" id="Fill-75" fill="#938FA3"></path>
                                <path d="M26.3425544,5.22020205 L26.3375387,7.04337136 C26.332523,8.98362493 25.0568593,10.9205332 22.5105475,12.4024855 C17.3861577,15.3814438 9.04836599,15.3797712 3.89053813,12.4008129 C1.29239729,10.9004616 -0.00500122891,8.93177332 0,6.96643027 L0.00503020291,5.14158833 C0,7.10693139 1.297413,9.07561971 3.89555384,10.575971 C9.0533817,13.5566019 17.3911735,13.5582745 22.5155632,10.5776436 C25.061875,9.09736393 26.3375387,7.16045563 26.3425544,5.22020205" id="Fill-77" fill="#AFB5BB"></path>
                            </g>
                            <g id="编组" transform="translate(11.828704, 55.412638)">
                                <g>
                                    <mask id="mask-26" fill="white">
                                        <use xlink:href="#path-25"></use>
                                    </mask>
                                    <g id="Clip-80"></g>
                                    <path d="M26.3415625,0.0789482488 L26.3365468,1.90211755 C26.3348749,2.50761048 26.209482,3.11143077 25.96204,3.70187 L25.9670557,1.87702807 C26.2144977,1.28826147 26.3398906,0.682768541 26.3415625,0.0789482488" id="Fill-79" fill="#AFB5BB" mask="url(#mask-26)"></path>
                                </g>
                                <g>
                                    <mask id="mask-28" fill="white">
                                        <use xlink:href="#path-27"></use>
                                    </mask>
                                    <g id="Clip-82"></g>
                                    <path d="M25.9667214,1.87769712 L25.9617057,3.70086642 C25.4133207,5.00551969 24.2630499,6.24159502 22.5092212,7.26190078 C19.8876737,8.78566889 16.4234859,9.5299903 12.9760172,9.49319239 L12.9810329,7.67002308 C16.4285016,7.70514836 19.8926894,6.96249958 22.5142369,5.43705884 C24.2680656,4.41842572 25.4183364,3.18235038 25.9667214,1.87769712" id="Fill-81" fill="#AFB5BB" mask="url(#mask-28)"></path>
                                </g>
                                <g>
                                    <mask id="mask-30" fill="white">
                                        <use xlink:href="#path-29"></use>
                                    </mask>
                                    <g id="Clip-84"></g>
                                    <path d="M12.9810329,7.66968856 L12.9760172,9.49285786 C9.68570752,9.45940521 6.40710122,8.7150838 3.88921184,7.25989362 C1.291071,5.75786974 -0.00632751848,3.78918141 -0.00132628956,1.82551099 L0.00370391334,0.000669052957 C-0.00132628956,1.96601211 1.29608671,3.93470043 3.89422755,5.43505168 C6.41378885,6.89024186 9.69072324,7.63456328 12.9810329,7.66968856" id="Fill-83" fill="#AFB5BB" mask="url(#mask-30)"></path>
                                </g>
                            </g>
                            <g id="编组" transform="translate(11.827712, 47.822065)">
                                <path d="M22.4545387,2.23547319 C27.6123665,5.21443147 27.6441327,10.0466664 22.5147273,13.0272974 C17.3903375,16.0079283 9.05421766,16.004583 3.89471789,13.0256247 C-1.26645378,10.0449938 -1.29320427,5.21443147 3.83118549,2.23547319 C8.95891905,-0.745157729 17.293367,-0.745157729 22.4545387,2.23547319" id="Fill-85" fill="#646370"></path>
                                <path d="M26.3425544,7.66952129 L26.3375387,9.4926906 C26.332523,11.4329442 25.0568593,13.3698525 22.5105475,14.8518048 C17.3861577,17.8307631 9.04836599,17.8290904 3.89053813,14.8501321 C1.29239729,13.3497809 -0.00500122891,11.3810926 0,9.41574951 L0.00503020291,7.59090757 C0,9.55625063 1.297413,11.5249389 3.89555384,13.0252902 C9.0533817,16.0059211 17.3911735,16.0075938 22.5155632,13.0269628 C25.061875,11.5466832 26.3375387,9.60977486 26.3425544,7.66952129" id="Fill-87" fill="#938FA3"></path>
                                <path d="M26.3425544,5.21894758 L26.3375387,7.04211688 C26.332523,8.98237045 25.0568593,10.9192788 22.5105475,12.4012311 C17.3861577,15.3801893 9.04836599,15.3785167 3.89053813,12.3995584 C1.29239729,10.8992072 -0.00500122891,8.93051885 0,6.96517579 L0.00503020291,5.14033386 C0,7.10567691 1.297413,9.07436524 3.89555384,10.5747165 C9.0533817,13.5553474 17.3911735,13.55702 22.5155632,10.5780618 C25.061875,9.09610946 26.3375387,7.15920115 26.3425544,5.21894758" id="Fill-89" fill="#938FA3"></path>
                                <path d="M26.3425544,5.21894758 L26.3375387,7.04211688 C26.332523,8.98237045 25.0568593,10.9192788 22.5105475,12.4012311 C17.3861577,15.3801893 9.04836599,15.3785167 3.89053813,12.3995584 C1.29239729,10.8992072 -0.00500122891,8.93051885 0,6.96517579 L0.00503020291,5.14033386 C0,7.10567691 1.297413,9.07436524 3.89555384,10.5747165 C9.0533817,13.5553474 17.3911735,13.55702 22.5155632,10.5780618 C25.061875,9.09610946 26.3375387,7.15920115 26.3425544,5.21894758" id="Fill-91" fill="#AFB5BB"></path>
                            </g>
                            <g id="编组" transform="translate(11.828704, 52.963905)">
                                <g>
                                    <mask id="mask-32" fill="white">
                                        <use xlink:href="#path-31"></use>
                                    </mask>
                                    <g id="Clip-94"></g>
                                    <path d="M26.3415625,0.0771083531 L26.3365468,1.90027766 C26.3348749,2.50577058 26.209482,3.10959087 25.96204,3.70003011 L25.9670557,1.8768608 C26.2144977,1.28642157 26.3398906,0.680928646 26.3415625,0.0771083531" id="Fill-93" fill="#AFB5BB" mask="url(#mask-32)"></path>
                                </g>
                                <g>
                                    <mask id="mask-34" fill="white">
                                        <use xlink:href="#path-33"></use>
                                    </mask>
                                    <g id="Clip-96"></g>
                                    <path d="M25.9667214,1.87602449 L25.9617057,3.69919379 C25.4133207,5.00384705 24.2630499,6.23992239 22.5092212,7.25855551 C19.8876737,8.78399625 16.4234859,9.52831767 12.9760172,9.49151975 L12.9810329,7.66835045 C16.4285016,7.70347573 19.8926894,6.95915432 22.5142369,5.43538621 C24.2680656,4.41508045 25.4183364,3.18067775 25.9667214,1.87602449" id="Fill-95" fill="#AFB5BB" mask="url(#mask-34)"></path>
                                </g>
                                <g>
                                    <mask id="mask-36" fill="white">
                                        <use xlink:href="#path-35"></use>
                                    </mask>
                                    <g id="Clip-98"></g>
                                    <path d="M12.9810329,7.6676814 L12.9760172,9.4908507 C9.68570752,9.45739805 6.40710122,8.71140401 3.88921184,7.25788646 C1.291071,5.75586258 -0.00632751848,3.78717425 -0.00132628956,1.82350383 L0.00370391334,-0.00133810591 C-0.00132628956,1.96400495 1.29608671,3.93269327 3.89422755,5.43304453 C6.41378885,6.8882347 9.69072324,7.63255612 12.9810329,7.6676814" id="Fill-97" fill="#AFB5BB" mask="url(#mask-36)"></path>
                                </g>
                            </g>
                            <g id="编组" transform="translate(11.827712, 45.370404)">
                                <path d="M22.4545387,2.23672766 C27.6123665,5.21568595 27.6441327,10.0479209 22.5147273,13.0285518 C17.3903375,16.0091828 9.05421766,16.0058375 3.89471789,13.0268792 C-1.26645378,10.0445757 -1.29320427,5.21568595 3.83118549,2.23672766 C8.95891905,-0.745575887 17.293367,-0.745575887 22.4545387,2.23672766" id="Fill-99" fill="#646370"></path>
                                <path d="M26.3425544,7.6706085 L26.3375387,9.49377781 C26.332523,11.4340314 25.0568593,13.3709397 22.5105475,14.852892 C17.3861577,17.8318503 9.04836599,17.8301776 3.89053813,14.8512193 C1.29239729,13.3508681 -0.00500122891,11.3821798 0,9.41683672 L0.00503020291,7.59199478 C0,9.55733784 1.297413,11.5260262 3.89555384,13.0263774 C9.0533817,16.0070083 17.3911735,16.008681 22.5155632,13.0297227 C25.061875,11.5477704 26.3375387,9.61086207 26.3425544,7.6706085" id="Fill-101" fill="#938FA3"></path>
                                <path d="M26.3425544,5.22003479 L26.3375387,7.04320409 C26.332523,8.98345767 25.0568593,10.9220386 22.5105475,12.4023183 C17.3861577,15.3812766 9.04836599,15.3796039 3.89053813,12.4006456 C1.29239729,10.9002944 -0.00500122891,8.93160606 0,6.966263 L0.00503020291,5.14142107 C0,7.10676413 1.297413,9.07545245 3.89555384,10.5758037 C9.0533817,13.5564346 17.3911735,13.5581072 22.5155632,10.579149 C25.061875,9.09719667 26.3375387,7.16028836 26.3425544,5.22003479" id="Fill-103" fill="#938FA3"></path>
                                <path d="M26.3425544,5.22003479 L26.3375387,7.04320409 C26.332523,8.98345767 25.0568593,10.9220386 22.5105475,12.4023183 C17.3861577,15.3812766 9.04836599,15.3796039 3.89053813,12.4006456 C1.29239729,10.9002944 -0.00500122891,8.93160606 0,6.966263 L0.00503020291,5.14142107 C0,7.10676413 1.297413,9.07545245 3.89555384,10.5758037 C9.0533817,13.5564346 17.3911735,13.5581072 22.5155632,10.579149 C25.061875,9.09719667 26.3375387,7.16028836 26.3425544,5.22003479" id="Fill-105" fill="#AFB5BB"></path>
                            </g>
                            <g id="编组" transform="translate(11.828704, 50.513498)">
                                <g>
                                    <mask id="mask-38" fill="white">
                                        <use xlink:href="#path-37"></use>
                                    </mask>
                                    <g id="Clip-108"></g>
                                    <path d="M26.3415625,0.0769410899 L26.3365468,1.90011039 C26.3348749,2.50560332 26.209482,3.10942361 25.96204,3.69986284 L25.9670557,1.87669354 C26.2144977,1.28625431 26.3398906,0.680761382 26.3415625,0.0769410899" id="Fill-107" fill="#AFB5BB" mask="url(#mask-38)"></path>
                                </g>
                                <g>
                                    <mask id="mask-40" fill="white">
                                        <use xlink:href="#path-39"></use>
                                    </mask>
                                    <g id="Clip-110"></g>
                                    <path d="M25.9667214,1.87585722 L25.9617057,3.69902653 C25.4133207,5.00367979 24.2630499,6.23975513 22.5092212,7.26006088 C19.8876737,8.78382899 16.4234859,9.5281504 12.9760172,9.49135249 L12.9810329,7.66818319 C16.4285016,7.70330847 19.8926894,6.95898705 22.5142369,5.43521895 C24.2680656,4.41658582 25.4183364,3.18051049 25.9667214,1.87585722" id="Fill-109" fill="#AFB5BB" mask="url(#mask-40)"></path>
                                </g>
                                <g>
                                    <mask id="mask-42" fill="white">
                                        <use xlink:href="#path-41"></use>
                                    </mask>
                                    <g id="Clip-112"></g>
                                    <path d="M12.9810329,7.6676814 L12.9760172,9.4908507 C9.68570752,9.45739805 6.40710122,8.71140401 3.88921184,7.25788646 C1.291071,5.75586258 -0.00632751848,3.78717425 -0.00132628956,1.8218312 L0.00370391334,-0.00133810591 C-0.00132628956,1.96400495 1.29608671,3.93269327 3.89422755,5.43304453 C6.41378885,6.8882347 9.69072324,7.63255612 12.9810329,7.6676814" id="Fill-111" fill="#AFB5BB" mask="url(#mask-42)"></path>
                                </g>
                            </g>
                            <g id="编组" transform="translate(11.827712, 42.919831)">
                                <path d="M22.4545387,2.23672766 C27.6123665,5.21568595 27.6441327,10.0479209 22.5147273,13.0285518 C17.3903375,16.0091828 9.05421766,16.0058375 3.89471789,13.0268792 C-1.26645378,10.0462483 -1.29320427,5.21568595 3.83118549,2.23672766 C8.95891905,-0.745575887 17.293367,-0.745575887 22.4545387,2.23672766" id="Fill-113" fill="#646370"></path>
                                <path d="M26.3425544,7.6706085 L26.3375387,9.49377781 C26.332523,11.4340314 25.0568593,13.3726123 22.5105475,14.852892 C17.3861577,17.8318503 9.04836599,17.8301776 3.89053813,14.8512193 C1.29239729,13.3508681 -0.00500122891,11.3821798 0,9.41683672 L0.00503020291,7.59199478 C0,9.55733784 1.297413,11.5260262 3.89555384,13.0263774 C9.0533817,16.0070083 17.3911735,16.008681 22.5155632,13.0297227 C25.061875,11.5477704 26.3375387,9.61086207 26.3425544,7.6706085" id="Fill-115" fill="#938FA3"></path>
                                <path d="M26.3425544,5.22003479 L26.3375387,7.04320409 C26.332523,8.98345767 25.0568593,10.9220386 22.5105475,12.4023183 C17.3861577,15.3812766 9.04836599,15.3796039 3.89053813,12.4006456 C1.29239729,10.9002944 -0.00500122891,8.93160606 0,6.966263 L0.00503020291,5.14142107 C0,7.10676413 1.297413,9.07545245 3.89555384,10.5758037 C9.0533817,13.5564346 17.3911735,13.5581072 22.5155632,10.579149 C25.061875,9.09719667 26.3375387,7.16028836 26.3425544,5.22003479" id="Fill-117" fill="#938FA3"></path>
                                <path d="M26.3425544,5.22003479 L26.3375387,7.04320409 C26.332523,8.98345767 25.0568593,10.9220386 22.5105475,12.4023183 C17.3861577,15.3812766 9.04836599,15.3796039 3.89053813,12.4006456 C1.29239729,10.9002944 -0.00500122891,8.93160606 0,6.966263 L0.00503020291,5.14142107 C0,7.10676413 1.297413,9.07545245 3.89555384,10.5758037 C9.0533817,13.5564346 17.3911735,13.5581072 22.5155632,10.579149 C25.061875,9.09719667 26.3375387,7.16028836 26.3425544,5.22003479" id="Fill-119" fill="#AFB5BB"></path>
                            </g>
                            <g id="编组" transform="translate(11.828704, 48.061419)">
                                <g>
                                    <mask id="mask-44" fill="white">
                                        <use xlink:href="#path-43"></use>
                                    </mask>
                                    <g id="Clip-122"></g>
                                    <path d="M26.3415625,0.078446459 L26.3365468,1.90161576 C26.3348749,2.50710869 26.209482,3.11092898 25.96204,3.70136821 L25.9670557,1.87819891 C26.2144977,1.28775968 26.3398906,0.682266751 26.3415625,0.078446459" id="Fill-121" fill="#AFB5BB" mask="url(#mask-44)"></path>
                                </g>
                                <g>
                                    <mask id="mask-46" fill="white">
                                        <use xlink:href="#path-45"></use>
                                    </mask>
                                    <g id="Clip-124"></g>
                                    <path d="M25.9667214,1.87752986 L25.9617057,3.70069916 C25.4133207,5.00535242 24.2630499,6.24142776 22.5092212,7.26006088 C19.8876737,8.78550162 16.4234859,9.52982304 12.9760172,9.49302512 L12.9810329,7.66985582 C16.4285016,7.7049811 19.8926894,6.96065969 22.5142369,5.43689158 C24.2680656,4.41658582 25.4183364,3.18218312 25.9667214,1.87752986" id="Fill-123" fill="#AFB5BB" mask="url(#mask-46)"></path>
                                </g>
                                <g>
                                    <mask id="mask-48" fill="white">
                                        <use xlink:href="#path-47"></use>
                                    </mask>
                                    <g id="Clip-126"></g>
                                    <path d="M12.9810329,7.66918677 L12.9760172,9.49235607 C9.68570752,9.45890342 6.40710122,8.71290938 3.88921184,7.25939183 C1.291071,5.75736795 -0.00632751848,3.78867962 -0.00132628956,1.8250092 L0.00370391334,0.000167263241 C-0.00132628956,1.96551032 1.29608671,3.93419864 3.89422755,5.43454989 C6.41378885,6.88974007 9.69072324,7.63406149 12.9810329,7.66918677" id="Fill-125" fill="#AFB5BB" mask="url(#mask-48)"></path>
                                </g>
                            </g>
                            <g id="编组" transform="translate(11.827712, 40.469090)">
                                <path d="M22.4545387,2.23672766 C27.6123665,5.21568595 27.6441327,10.0479209 22.5147273,13.0285518 C17.3903375,16.0091828 9.05421766,16.0058375 3.89471789,13.0268792 C-1.26645378,10.0462483 -1.29320427,5.21568595 3.83118549,2.23672766 C8.95891905,-0.745575887 17.293367,-0.745575887 22.4545387,2.23672766" id="Fill-127" fill="#646370"></path>
                                <path d="M26.3425544,7.67077577 L26.3375387,9.49394507 C26.332523,11.4341986 25.0568593,13.3727796 22.5105475,14.8530592 C17.3861577,17.8320175 9.04836599,17.8303449 3.89053813,14.8513866 C1.29239729,13.3510354 -0.00500122891,11.382347 0,9.41700398 L0.00503020291,7.59216204 C0,9.5575051 1.297413,11.5261934 3.89555384,13.0265447 C9.0533817,16.0071756 17.3911735,16.0088482 22.5155632,13.0298899 C25.061875,11.5479376 26.3375387,9.61102934 26.3425544,7.67077577" id="Fill-129" fill="#938FA3"></path>
                                <path d="M26.3425544,5.22020205 L26.3375387,7.04337136 C26.332523,8.98362493 25.0568593,10.9205332 22.5105475,12.4024855 C17.3861577,15.3814438 9.04836599,15.3797712 3.89053813,12.4008129 C1.29239729,10.9004616 -0.00500122891,8.93177332 0,6.96643027 L0.00503020291,5.14158833 C0,7.10693139 1.297413,9.07561971 3.89555384,10.575971 C9.0533817,13.5566019 17.3911735,13.5582745 22.5155632,10.5793162 C25.061875,9.09736393 26.3375387,7.16045563 26.3425544,5.22020205" id="Fill-131" fill="#938FA3"></path>
                                <path d="M26.3425544,5.22020205 L26.3375387,7.04337136 C26.332523,8.98362493 25.0568593,10.9205332 22.5105475,12.4024855 C17.3861577,15.3814438 9.04836599,15.3797712 3.89053813,12.4008129 C1.29239729,10.9004616 -0.00500122891,8.93177332 0,6.96643027 L0.00503020291,5.14158833 C0,7.10693139 1.297413,9.07561971 3.89555384,10.575971 C9.0533817,13.5566019 17.3911735,13.5582745 22.5155632,10.5793162 C25.061875,9.09736393 26.3375387,7.16045563 26.3425544,5.22020205" id="Fill-133" fill="#AFB5BB"></path>
                            </g>
                            <g id="编组" transform="translate(11.828704, 45.611013)">
                                <g>
                                    <mask id="mask-50" fill="white">
                                        <use xlink:href="#path-49"></use>
                                    </mask>
                                    <g id="Clip-136"></g>
                                    <path d="M26.3415625,0.0782791958 L26.3365468,1.9014485 C26.3348749,2.50694142 26.209482,3.11076172 25.96204,3.70120095 L25.9670557,1.87803165 C26.2144977,1.28759241 26.3398906,0.682099488 26.3415625,0.0782791958" id="Fill-135" fill="#AFB5BB" mask="url(#mask-50)"></path>
                                </g>
                                <g>
                                    <mask id="mask-52" fill="white">
                                        <use xlink:href="#path-51"></use>
                                    </mask>
                                    <g id="Clip-138"></g>
                                    <path d="M25.9667214,1.87719533 L25.9617057,3.70036463 C25.4133207,5.0050179 24.2630499,6.24109323 22.5092212,7.25972636 C19.8876737,8.7851671 16.4234859,9.52948851 12.9760172,9.4926906 L12.9810329,7.66952129 C16.4285016,7.70464657 19.8926894,6.96032516 22.5142369,5.43655705 C24.2680656,4.4162513 25.4183364,3.18184859 25.9667214,1.87719533" id="Fill-137" fill="#AFB5BB" mask="url(#mask-52)"></path>
                                </g>
                                <g>
                                    <mask id="mask-54" fill="white">
                                        <use xlink:href="#path-53"></use>
                                    </mask>
                                    <g id="Clip-140"></g>
                                    <path d="M12.9810329,7.6690195 L12.9760172,9.49218881 C9.68570752,9.45873616 6.40710122,8.71274211 3.88921184,7.25922457 C1.291071,5.75720068 -0.00632751848,3.78851236 -0.00132628956,1.82484194 L0.00370391334,0 C-0.00132628956,1.96534306 1.29608671,3.93403138 3.89422755,5.43438263 C6.41378885,6.88957281 9.69072324,7.63389422 12.9810329,7.6690195" id="Fill-139" fill="#AFB5BB" mask="url(#mask-54)"></path>
                                </g>
                            </g>
                            <g id="编组" transform="translate(1.903321, 20.982086)">
                                <path d="M32.3789304,19.2733249 C37.5367583,22.2522831 37.5685245,27.0845181 32.439119,30.065149 C27.3147292,33.0457799 18.9786094,33.0424347 13.8191096,30.0634764 C8.65793796,27.0828455 8.63118748,22.2522831 13.7555772,19.2733249 C18.8833108,16.2910213 27.2177587,16.2910213 32.3789304,19.2733249" id="Fill-141" fill="#646370"></path>
                                <path d="M36.2669462,24.7072057 L36.2619305,26.530375 C36.2569148,28.4706286 34.981251,30.4075369 32.4349392,31.8894892 C27.3105495,34.8684475 18.9727577,34.8667748 13.8149299,31.8878165 C11.216789,30.3874653 9.91939051,28.418777 9.92439174,26.4534339 L9.92942194,24.628592 C9.92439174,26.593935 11.2218047,28.5626234 13.8199456,30.0629746 C18.9777734,33.0436055 27.3155652,33.0452782 32.4399549,30.0663199 C34.9862667,28.5843676 36.2619305,26.6474593 36.2669462,24.7072057" id="Fill-143" fill="#938FA3"></path>
                                <path d="M45.7150502,16.1070317 C45.5294688,16.6389288 45.2836987,17.1691533 44.97774,17.6876694 C44.8590347,17.8800221 44.7386575,18.0723748 44.6266399,18.258037 C44.5998894,18.2981802 44.5731389,18.3383234 44.5463884,18.3784665 C44.2805555,18.8166962 44.0163945,19.2549259 43.7572491,19.6864651 C40.8230553,24.5738969 38.2065235,29.3760245 36.8790307,35.2202021 L36.8589679,35.2202021 C36.6332606,37.0400261 35.5716008,38.8866123 33.4800472,40.1477771 C27.5849091,43.6887398 18.6769977,43.6753588 12.775172,40.1477771 C10.6635556,38.8866123 9.58852045,37.0400261 9.34275037,35.2202021 L9.33104704,35.2202021 C7.88317704,28.8708895 5.03425041,23.7442712 1.70883076,18.3918476 C1.68208027,18.3583949 1.65532979,18.3182518 1.63693883,18.2781086 C1.48312354,18.0339043 1.33098016,17.7880273 1.17214916,17.5404777 C1.15208629,17.5153882 1.14539867,17.4953166 1.13202343,17.475245 C0.886253349,17.0303248 0.673921375,16.5854046 0.506730845,16.1337939 C15.4100947,16.1271033 30.8116864,16.1137223 45.7150502,16.1070317" id="Fill-145" fill="#DEDEDE"></path>
                                <path d="M45.7150502,16.1070317 C45.5294688,16.6389288 45.2836987,17.1691533 44.97774,17.6876694 C44.8590347,17.8800221 44.7386575,18.0723748 44.6266399,18.258037 C44.5998894,18.2981802 44.5731389,18.3383234 44.5463884,18.3784665 C44.2354141,18.8233867 43.8893297,19.2616164 43.4981038,19.6864651 C42.4565068,20.8221825 41.1139669,21.884304 39.4754997,22.8410497 C30.4873367,28.0613354 15.8615092,28.068026 6.81984527,22.8410497 C4.55106977,21.5263607 2.84405446,20.0126284 1.70883076,18.3918476 C1.68208027,18.3583949 1.65532979,18.3182518 1.63693883,18.2781086 C1.48312354,18.0339043 1.33098016,17.7880273 1.17214916,17.5404777 C1.15208629,17.5153882 1.14539867,17.4953166 1.13202343,17.475245 C0.886253349,17.0303248 0.673921375,16.5854046 0.506730845,16.1337939 C-1.05984442,11.8568728 1.00495863,7.23371692 6.71451524,3.92023216 C15.7026781,-1.30674405 30.3201462,-1.30674405 39.3684977,3.92023216 C45.1048048,7.22702639 47.2214369,11.8434918 45.7150502,16.1070317" id="Fill-147" fill="#F1F1F1"></path>
                                <path d="M45.5202733,13.4070685 C45.5202733,14.2835279 45.3681299,15.1466062 45.0554836,15.9829224 C44.5906939,17.2658315 43.7748041,18.4952163 42.6395804,19.629261 C41.6899382,20.5793162 40.5212764,21.4624661 39.1402826,22.2670023 C34.8919713,24.7374803 29.2158528,26.0923126 23.1618837,26.0923126 C17.1146022,26.0923126 11.4251084,24.7374803 7.15004657,22.2670023 C5.59015892,21.3704713 4.28941659,20.3602014 3.27289817,19.2713177 L3.26621055,19.2646272 C2.34499073,18.282792 1.66118146,17.2390693 1.22815798,16.1501857 C0.856995006,15.2402736 0.671398742,14.3035995 0.671398742,13.3468538 C0.664725896,10.033369 2.92848568,6.88547486 7.04471653,4.49361054 C11.2930279,2.02480514 16.9691464,0.661609741 23.0231155,0.661609741 C29.070397,0.661609741 34.7598907,2.02480514 39.0416402,4.49361054 C43.2163878,6.90554645 45.5135857,10.0735122 45.5202733,13.4070685" id="Fill-149" fill="#F1F1F1"></path>
                            </g>
                            <g id="编组">
                                <mask id="mask-56" fill="white">
                                    <use xlink:href="#path-55"></use>
                                </mask>
                                <g id="Clip-152"></g>
                                <path d="M24.9983281,0 C11.1917341,0 0,11.2049644 0,25.0108721 L0,25.0108721 C0,29.40655 1.1335518,33.5463152 3.13147863,37.1307664 L3.13147863,37.1307664 C3.73002073,38.2213227 4.4121581,39.2650453 5.1695312,40.2468805 L5.1695312,40.2468805 L5.17789072,40.2535711 C6.19273724,41.3424548 7.49347957,42.3527247 9.05336722,43.2492557 L9.05336722,43.2492557 C13.3284291,45.7197337 19.0179228,47.074566 25.0652043,47.074566 L25.0652043,47.074566 C31.1208453,47.074566 36.7952919,45.7197337 41.0436033,43.2492557 L41.0436033,43.2492557 C42.4245971,42.4447195 43.5932589,41.5615696 44.5429011,40.6115144 L44.5429011,40.6115144 C45.4524176,39.4774696 46.2616197,38.2547754 46.9588043,36.9651758 L46.9588043,36.9651758 C48.8965425,33.4191951 50,29.34299 50,25.0108721 L50,25.0108721 C50,11.2049644 38.8082659,0 24.9983281,0 Z" id="Fill-151" fill="url(#radialGradient-57)" mask="url(#mask-56)"></path>
                            </g>
                        </g>
                    </g>
                </g>
            </g>
        </g>
    </g>
</svg>