<?xml version="1.0" encoding="UTF-8"?>
<svg width="70px" height="90px" viewBox="0 0 70 90" version="1.1" xmlns="http://www.w3.org/2000/svg" xmlns:xlink="http://www.w3.org/1999/xlink">
    <title>icon_负载</title>
    <defs>
        <path d="M0,0 L0,44.7798895 C0,45.4703881 1.15054588,46.0287162 2.5696346,46.0287162 L2.5696346,46.0287162 C3.98625962,46.0287162 5.13803735,45.4703881 5.13803735,44.7798895 L5.13803735,44.7798895 L5.13803735,0 L0,0 Z" id="path-1"></path>
        <linearGradient x1="0.0113770326%" y1="50.0002201%" x2="99.9597062%" y2="50.0002201%" id="linearGradient-3">
            <stop stop-color="#C1C3C3" offset="0%"></stop>
            <stop stop-color="#EDEDED" offset="100%"></stop>
        </linearGradient>
        <linearGradient x1="54.7846451%" y1="2.81441537e-12%" x2="54.7846451%" y2="100%" id="linearGradient-4">
            <stop stop-color="#F5F5F5" offset="0%"></stop>
            <stop stop-color="#D3D3D3" offset="100%"></stop>
        </linearGradient>
        <linearGradient x1="100%" y1="50%" x2="0%" y2="50%" id="linearGradient-5">
            <stop stop-color="#6E6E6E" offset="0%"></stop>
            <stop stop-color="#B4B4B4" offset="100%"></stop>
        </linearGradient>
        <path d="M0,0 L0,44.7798895 C0,45.4691529 1.15054588,46.0287162 2.57086645,46.0287162 L2.57086645,46.0287162 C3.98872331,46.0287162 5.1392692,45.4691529 5.1392692,44.7798895 L5.1392692,44.7798895 L5.1392692,0 L0,0 Z" id="path-6"></path>
        <linearGradient x1="0.0113770326%" y1="50.0002201%" x2="99.9597062%" y2="50.0002201%" id="linearGradient-8">
            <stop stop-color="#C1C3C3" offset="0%"></stop>
            <stop stop-color="#EDEDED" offset="100%"></stop>
        </linearGradient>
        <linearGradient x1="54.7846451%" y1="2.81441537e-12%" x2="54.7846451%" y2="100%" id="linearGradient-9">
            <stop stop-color="#F5F5F5" offset="0%"></stop>
            <stop stop-color="#D3D3D3" offset="100%"></stop>
        </linearGradient>
        <linearGradient x1="100%" y1="50%" x2="0%" y2="50%" id="linearGradient-10">
            <stop stop-color="#6E6E6E" offset="0%"></stop>
            <stop stop-color="#B4B4B4" offset="100%"></stop>
        </linearGradient>
        <path d="M0,0 L0,44.7798895 C0,45.4703881 1.15054588,46.0287162 2.57086645,46.0287162 L2.57086645,46.0287162 C3.98995516,46.0287162 5.1392692,45.4703881 5.1392692,44.7798895 L5.1392692,44.7798895 L5.1392692,0 L0,0 Z" id="path-11"></path>
        <linearGradient x1="50%" y1="0%" x2="50%" y2="100%" id="linearGradient-13">
            <stop stop-color="#D7D7D7" offset="0%"></stop>
            <stop stop-color="#A3A2A2" offset="100%"></stop>
        </linearGradient>
        <linearGradient x1="50%" y1="0%" x2="50%" y2="100%" id="linearGradient-14">
            <stop stop-color="#E4E4E4" offset="0%"></stop>
            <stop stop-color="#BFBFBF" offset="100%"></stop>
        </linearGradient>
        <linearGradient x1="50%" y1="0%" x2="50%" y2="100%" id="linearGradient-15">
            <stop stop-color="#D7D7D7" offset="0%"></stop>
            <stop stop-color="#A3A2A2" offset="100%"></stop>
        </linearGradient>
        <linearGradient x1="50%" y1="0%" x2="50%" y2="100%" id="linearGradient-16">
            <stop stop-color="#E4E4E4" offset="0%"></stop>
            <stop stop-color="#BFBFBF" offset="100%"></stop>
        </linearGradient>
        <linearGradient x1="50%" y1="0%" x2="50%" y2="100%" id="linearGradient-17">
            <stop stop-color="#E4E4E4" offset="0%"></stop>
            <stop stop-color="#BFBFBF" offset="100%"></stop>
        </linearGradient>
        <linearGradient x1="80.4889501%" y1="100%" x2="65.645211%" y2="17.3290635%" id="linearGradient-18">
            <stop stop-color="#E4E4E4" offset="0%"></stop>
            <stop stop-color="#FAFAFA" offset="100%"></stop>
        </linearGradient>
        <linearGradient x1="97.276657%" y1="41.5992256%" x2="34.057667%" y2="64.3797111%" id="linearGradient-19">
            <stop stop-color="#EEEEEE" offset="0%"></stop>
            <stop stop-color="#EFEFEF" offset="100%"></stop>
        </linearGradient>
        <polygon id="path-20" points="54.8184608 29.8480535 40.4292462 22.3242119 5.72316507 40.3278224 20.4486742 47.8924269"></polygon>
        <linearGradient x1="-0.000165477256%" y1="49.9998988%" x2="99.9999936%" y2="49.9998988%" id="linearGradient-21">
            <stop stop-color="#FFFFFF" offset="0%"></stop>
            <stop stop-color="#CDCDCD" offset="100%"></stop>
        </linearGradient>
        <linearGradient x1="-0.000165477256%" y1="49.9998988%" x2="99.9999936%" y2="49.9998988%" id="linearGradient-22">
            <stop stop-color="#FFFFFF" offset="0%"></stop>
            <stop stop-color="#CDCDCD" offset="100%"></stop>
        </linearGradient>
        <linearGradient x1="110.020327%" y1="100%" x2="80.7990497%" y2="17.3290635%" id="linearGradient-23">
            <stop stop-color="#E4E4E4" offset="0%"></stop>
            <stop stop-color="#FAFAFA" offset="100%"></stop>
        </linearGradient>
        <linearGradient x1="-22.8223914%" y1="21.9019944%" x2="67.4589159%" y2="50%" id="linearGradient-24">
            <stop stop-color="#E4E4E4" offset="0%"></stop>
            <stop stop-color="#BFBFBF" offset="100%"></stop>
        </linearGradient>
        <linearGradient x1="-22.9166599%" y1="21.9019944%" x2="67.4815164%" y2="50%" id="linearGradient-25">
            <stop stop-color="#E4E4E4" offset="0%"></stop>
            <stop stop-color="#BFBFBF" offset="100%"></stop>
        </linearGradient>
        <linearGradient x1="-22.8823399%" y1="21.9019944%" x2="67.4732883%" y2="50%" id="linearGradient-26">
            <stop stop-color="#E4E4E4" offset="0%"></stop>
            <stop stop-color="#BFBFBF" offset="100%"></stop>
        </linearGradient>
        <linearGradient x1="-22.8695028%" y1="21.9019944%" x2="67.4702107%" y2="50%" id="linearGradient-27">
            <stop stop-color="#E4E4E4" offset="0%"></stop>
            <stop stop-color="#BFBFBF" offset="100%"></stop>
        </linearGradient>
        <linearGradient x1="-22.92949%" y1="21.9019944%" x2="67.4845924%" y2="50%" id="linearGradient-28">
            <stop stop-color="#E4E4E4" offset="0%"></stop>
            <stop stop-color="#BFBFBF" offset="100%"></stop>
        </linearGradient>
        <linearGradient x1="-22.8951698%" y1="21.9019944%" x2="67.4763643%" y2="50%" id="linearGradient-29">
            <stop stop-color="#E4E4E4" offset="0%"></stop>
            <stop stop-color="#BFBFBF" offset="100%"></stop>
        </linearGradient>
        <linearGradient x1="-22.9638628%" y1="21.9019944%" x2="67.4928332%" y2="50%" id="linearGradient-30">
            <stop stop-color="#E4E4E4" offset="0%"></stop>
            <stop stop-color="#BFBFBF" offset="100%"></stop>
        </linearGradient>
        <linearGradient x1="-22.7881767%" y1="21.9019944%" x2="67.450713%" y2="50%" id="linearGradient-31">
            <stop stop-color="#E4E4E4" offset="0%"></stop>
            <stop stop-color="#BFBFBF" offset="100%"></stop>
        </linearGradient>
        <linearGradient x1="58.5765133%" y1="109.5%" x2="24.9160041%" y2="-13.1%" id="linearGradient-32">
            <stop stop-color="#DBDBDB" offset="0%"></stop>
            <stop stop-color="#4D4D4D" offset="100%"></stop>
        </linearGradient>
        <linearGradient x1="58.578026%" y1="109.5%" x2="24.9115799%" y2="-13.1%" id="linearGradient-33">
            <stop stop-color="#DBDBDB" offset="0%"></stop>
            <stop stop-color="#4D4D4D" offset="100%"></stop>
        </linearGradient>
        <linearGradient x1="58.5891266%" y1="109.5%" x2="24.8791135%" y2="-13.1%" id="linearGradient-34">
            <stop stop-color="#DBDBDB" offset="0%"></stop>
            <stop stop-color="#4D4D4D" offset="100%"></stop>
        </linearGradient>
        <linearGradient x1="58.5709702%" y1="109.5%" x2="24.9322161%" y2="-13.1%" id="linearGradient-35">
            <stop stop-color="#DBDBDB" offset="0%"></stop>
            <stop stop-color="#4D4D4D" offset="100%"></stop>
        </linearGradient>
        <linearGradient x1="58.5876156%" y1="109.5%" x2="24.8835329%" y2="-13.1%" id="linearGradient-36">
            <stop stop-color="#DBDBDB" offset="0%"></stop>
            <stop stop-color="#4D4D4D" offset="100%"></stop>
        </linearGradient>
        <linearGradient x1="-22.8352355%" y1="21.9019944%" x2="67.4619952%" y2="50%" id="linearGradient-37">
            <stop stop-color="#E4E4E4" offset="0%"></stop>
            <stop stop-color="#BFBFBF" offset="100%"></stop>
        </linearGradient>
        <linearGradient x1="-23.0840173%" y1="21.9019944%" x2="67.5216398%" y2="50%" id="linearGradient-38">
            <stop stop-color="#E4E4E4" offset="0%"></stop>
            <stop stop-color="#BFBFBF" offset="100%"></stop>
        </linearGradient>
        <linearGradient x1="-22.7753257%" y1="21.9019944%" x2="67.4476321%" y2="50%" id="linearGradient-39">
            <stop stop-color="#E4E4E4" offset="0%"></stop>
            <stop stop-color="#BFBFBF" offset="100%"></stop>
        </linearGradient>
        <linearGradient x1="50%" y1="0%" x2="50%" y2="100%" id="linearGradient-40">
            <stop stop-color="#E4E4E4" offset="0%"></stop>
            <stop stop-color="#BFBFBF" offset="100%"></stop>
        </linearGradient>
        <linearGradient x1="142.113997%" y1="66.4425552%" x2="-16.3678485%" y2="48.359473%" id="linearGradient-41">
            <stop stop-color="#E2E2E2" offset="0%"></stop>
            <stop stop-color="#E7E7E7" offset="100%"></stop>
        </linearGradient>
        <linearGradient x1="50%" y1="0%" x2="50%" y2="100%" id="linearGradient-42">
            <stop stop-color="#BFBFBF" offset="0%"></stop>
            <stop stop-color="#E4E4E4" offset="100%"></stop>
        </linearGradient>
        <linearGradient x1="-0.000165477256%" y1="49.9998988%" x2="99.9999936%" y2="49.9998988%" id="linearGradient-43">
            <stop stop-color="#EFEFEF" offset="0%"></stop>
            <stop stop-color="#CDCDCD" offset="100%"></stop>
        </linearGradient>
        <linearGradient x1="100%" y1="92.4245757%" x2="-33.8573177%" y2="23.4653576%" id="linearGradient-44">
            <stop stop-color="#C1C0C0" offset="0%"></stop>
            <stop stop-color="#949494" offset="100%"></stop>
        </linearGradient>
        <linearGradient x1="50%" y1="0%" x2="50%" y2="100%" id="linearGradient-45">
            <stop stop-color="#E4E4E4" offset="0%"></stop>
            <stop stop-color="#BFBFBF" offset="100%"></stop>
        </linearGradient>
        <linearGradient x1="50%" y1="0%" x2="50%" y2="100%" id="linearGradient-46">
            <stop stop-color="#E4E4E4" offset="0%"></stop>
            <stop stop-color="#BFBFBF" offset="100%"></stop>
        </linearGradient>
        <linearGradient x1="54.1919786%" y1="124.598228%" x2="37.7395895%" y2="-29.111734%" id="linearGradient-47">
            <stop stop-color="#DBDBDB" offset="0%"></stop>
            <stop stop-color="#4D4D4D" offset="100%"></stop>
        </linearGradient>
        <linearGradient x1="114.227483%" y1="3.968509e-12%" x2="40.3588992%" y2="68.738142%" id="linearGradient-48">
            <stop stop-color="#ACACAC" offset="0%"></stop>
            <stop stop-color="#E5E5E5" offset="100%"></stop>
        </linearGradient>
        <linearGradient x1="85.5531504%" y1="5.74032626%" x2="-22.8246805%" y2="94.2596737%" id="linearGradient-49">
            <stop stop-color="#B9B9B9" offset="0%"></stop>
            <stop stop-color="#4D4D4D" offset="100%"></stop>
        </linearGradient>
        <linearGradient x1="85.5531504%" y1="5.94128458%" x2="-22.8246805%" y2="94.0587154%" id="linearGradient-50">
            <stop stop-color="#B9B9B9" offset="0%"></stop>
            <stop stop-color="#4D4D4D" offset="100%"></stop>
        </linearGradient>
        <linearGradient x1="85.5531504%" y1="5.8293362%" x2="-22.8246805%" y2="94.1706638%" id="linearGradient-51">
            <stop stop-color="#B9B9B9" offset="0%"></stop>
            <stop stop-color="#4D4D4D" offset="100%"></stop>
        </linearGradient>
        <linearGradient x1="-0.000165477256%" y1="49.9998988%" x2="99.9999936%" y2="49.9998988%" id="linearGradient-52">
            <stop stop-color="#FFFFFF" offset="0%"></stop>
            <stop stop-color="#CDCDCD" offset="100%"></stop>
        </linearGradient>
    </defs>
    <g id="光储充及工商储管理系统V1.3" stroke="none" stroke-width="1" fill="none" fill-rule="evenodd">
        <g id="3_2_7.设备监视_示范站站点拓扑_用电设备能量流" transform="translate(-1598.000000, -416.000000)">
            <g id="main" transform="translate(212.000000, 102.000000)">
                <g transform="translate(44.000000, 40.000000)" id="其他用电设备">
                    <g transform="translate(1333.000000, 274.000000)">
                        <g id="icon_负载" transform="translate(9.000000, 0.000000)">
                            <g id="编组" transform="translate(3.146386, 15.033213)">
                                <mask id="mask-2" fill="white">
                                    <use xlink:href="#path-1"></use>
                                </mask>
                                <g id="Clip-278"></g>
                                <path d="M0,6 L0,44.7798895 C0,45.4703881 1.15054588,46.0287162 2.5696346,46.0287162 C3.98625962,46.0287162 5.13803735,45.4703881 5.13803735,44.7798895 L5.13803735,6 L0,6 Z" id="Fill-277" fill="url(#linearGradient-3)" fill-rule="nonzero" mask="url(#mask-2)"></path>
                            </g>
                            <g id="编组" transform="translate(3.146263, 19.784757)">
                                <path d="M5.13803735,1.24882677 C5.13803735,1.93685498 3.98625962,2.49518307 2.5696346,2.49518307 C1.15054588,2.49518307 0,1.93685498 0,1.24882677 C0,0.557092854 1.15054588,0 2.5696346,0 C3.98625962,0 5.13803735,0.557092854 5.13803735,1.24882677" id="Fill-279" fill="url(#linearGradient-4)"></path>
                                <path d="M4.42775388,1.2716787 C4.42775388,1.77071531 3.59625659,2.0227041 2.56889549,2.0227041 C1.54646178,2.0227041 0.711268944,1.77071531 0.711268944,1.2716787 C0.711268944,0.770171606 1.54646178,0.473714212 2.56889549,0.473714212 C3.59625659,0.473714212 4.42775388,0.770171606 4.42775388,1.2716787" id="Fill-281" fill="url(#linearGradient-5)"></path>
                            </g>
                            <g id="编组" transform="translate(10.808479, 11.124916)">
                                <mask id="mask-7" fill="white">
                                    <use xlink:href="#path-6"></use>
                                </mask>
                                <g id="Clip-284"></g>
                                <path d="M0,6 L0,44.7798895 C0,45.4691529 1.15054588,46.0287162 2.57086645,46.0287162 C3.98872331,46.0287162 5.1392692,45.4691529 5.1392692,44.7798895 L5.1392692,6 L0,6 Z" id="Fill-283" fill="url(#linearGradient-8)" fill-rule="nonzero" mask="url(#mask-7)"></path>
                            </g>
                            <g id="编组" transform="translate(10.808603, 15.877572)">
                                <path d="M5.1392692,1.24759154 C5.1392692,1.93809022 3.98749147,2.49641831 2.57086645,2.49641831 C1.14931404,2.49641831 0,1.93809022 0,1.24759154 C0,0.557092854 1.14931404,0 2.57086645,0 C3.98749147,0 5.1392692,0.557092854 5.1392692,1.24759154" id="Fill-285" fill="url(#linearGradient-9)"></path>
                                <path d="M4.42652204,1.26809651 C4.42652204,1.77207408 3.59748844,2.02159238 2.57012734,2.02159238 C1.54522993,2.02159238 0.711268944,1.77207408 0.711268944,1.26809651 C0.711268944,0.769059891 1.54522993,0.470132018 2.57012734,0.470132018 C3.59748844,0.470132018 4.42652204,0.769059891 4.42652204,1.26809651" id="Fill-287" fill="url(#linearGradient-10)"></path>
                            </g>
                            <g id="编组" transform="translate(23.481730, 5.829446)">
                                <mask id="mask-12" fill="white">
                                    <use xlink:href="#path-11"></use>
                                </mask>
                                <g id="Clip-290"></g>
                                <path d="M0,6 L0,44.7798895 C0,45.4703881 1.15054588,46.0287162 2.57086645,46.0287162 C3.98995516,46.0287162 5.1392692,45.4703881 5.1392692,44.7798895 L5.1392692,6 L0,6 Z" id="Fill-289" fill="url(#linearGradient-8)" fill-rule="nonzero" mask="url(#mask-12)"></path>
                            </g>
                            <g id="编组">
                                <path d="M28.6212455,11.8295695 C28.6212455,12.5213034 27.4706996,13.0783962 26.0528428,13.0783962 C24.6325222,13.0783962 23.4819763,12.5213034 23.4819763,11.8295695 C23.4819763,11.140306 24.6325222,10.5819779 26.0528428,10.5819779 C27.4706996,10.5819779 28.6212455,11.140306 28.6212455,11.8295695" id="Fill-291" fill="url(#linearGradient-9)"></path>
                                <path d="M27.9084983,11.8500744 C27.9084983,12.354052 27.0794647,12.6035703 26.0521036,12.6035703 C25.0272062,12.6035703 24.1932453,12.354052 24.1932453,11.8500744 C24.1932453,11.3510378 25.0272062,11.05211 26.0521036,11.05211 C27.0794647,11.05211 27.9084983,11.3510378 27.9084983,11.8500744" id="Fill-293" fill="url(#linearGradient-10)"></path>
                                <path d="M3.93550749,17.2822856 L5.12670435,17.9752548 C5.13779098,18.0580158 5.15503685,18.1346006 5.19691968,18.1951274 C5.48640392,18.6101677 5.70197729,18.9955623 5.75741044,19.634181 C5.77022166,19.7646222 5.81456818,19.8602791 5.87972801,19.9217842 L5.93233284,19.9615193 L4.73867228,19.262374 C4.64628369,19.2080235 4.57976391,19.1030281 4.56621358,18.9412118 C4.50954858,18.2988874 4.29397521,17.9159633 4.00449097,17.500923 C3.96137629,17.4416315 3.94536227,17.3613409 3.93550749,17.2822856 Z M6.16247281,2.72026752 L6.22699084,2.72227479 C6.2774966,2.72598051 6.32677052,2.73586242 6.37234889,2.75068529 L6.4345572,2.77539007 L6.4345572,2.77539007 L6.49306998,2.80380057 L7.68549869,3.50047545 C7.5995773,3.44952183 7.50049054,3.42080252 7.39187621,3.41535975 L7.28022075,3.41771443 C7.12500792,3.43130206 6.95624476,3.4893583 6.77885868,3.59188315 C6.60393628,3.69193752 6.44010052,3.82904906 6.28611954,3.98963015 C6.27503291,4.00198254 6.26517813,4.02051113 6.25409149,4.03409876 C6.11858823,4.18109222 5.9966353,4.34537902 5.89316008,4.52201822 C5.88330529,4.53807633 5.87714605,4.55042872 5.86852312,4.56525159 C5.64555866,4.95805764 5.50635985,5.39903801 5.5075917,5.79678502 C5.5075917,5.86472317 5.53469235,5.90548606 5.54085159,5.96477754 C5.31049605,6.12288815 5.09245898,6.32052642 4.88550854,6.53669327 C4.8534805,6.56757424 4.8226843,6.59845522 4.79188811,6.63304192 C4.59848799,6.84673829 4.42110191,7.08019849 4.26342538,7.32724632 C4.21661516,7.39889019 4.17103679,7.47053406 4.12915397,7.54341317 C4.08603929,7.61876276 4.04415647,7.69040663 4.00473733,7.76575621 C3.94314494,7.88557441 3.8827844,8.00786309 3.82981494,8.13015176 C3.81626461,8.16350322 3.80025059,8.19561944 3.78670027,8.22897089 C3.72018048,8.38831674 3.66474733,8.54889783 3.61793711,8.70947892 C3.60561863,8.74530086 3.59822755,8.78112279 3.58837276,8.81570949 C3.55264918,8.95035055 3.52308483,9.08252114 3.50091157,9.21592697 C3.49352048,9.25668986 3.48612939,9.29621751 3.47997015,9.33450993 C3.45779689,9.50126721 3.44301472,9.66431878 3.44301472,9.82242939 C3.44301472,9.94224759 3.46149244,10.0472429 3.47504276,10.1522382 C3.48243385,10.2140002 3.4836657,10.2831736 3.49598418,10.3424651 C3.51569374,10.4338728 3.54895363,10.5116928 3.57851798,10.5944539 C3.5969957,10.6463339 3.60931418,10.7056254 3.63148744,10.7525645 C3.66967472,10.8303845 3.72018048,10.894617 3.7669907,10.9613199 L3.77114819,10.96518 L3.77438179,10.9699666 L4.60464723,11.4554155 C4.38414647,11.7308739 4.18335527,12.0322722 3.9985781,12.3423172 C3.95053603,12.4201373 3.90742136,12.5041336 3.86307483,12.5856594 C3.69800722,12.8821167 3.54156255,13.1859856 3.41960961,13.4960306 C3.27794711,13.8530147 3.16831265,14.2137045 3.09193808,14.5719239 C3.08577884,14.5966287 3.08331515,14.6238039 3.07838776,14.6509792 C3.00817243,14.9968462 2.96505776,15.3414779 2.96752145,15.6749925 C2.96752145,15.7754586 2.97792372,15.8676898 2.98960346,15.95864 L3.00694058,16.0949738 L3.02683264,16.3124674 L3.04266417,16.4149007 C3.06853297,16.5396599 3.1128795,16.6458904 3.15229863,16.7545915 C3.18063113,16.8373525 3.19910885,16.9262897 3.23360059,16.9991688 C3.28657004,17.1091051 3.35678537,17.1992776 3.42330515,17.2919205 C3.46149244,17.3438005 3.48982494,17.4092682 3.53293961,17.4562073 C3.60931418,17.542674 3.69280609,17.6198079 3.78305035,17.6861448 L3.92009274,17.7751201 L2.73100667,17.0856356 C2.58688047,17.0004041 2.4563046,16.8929383 2.34174275,16.7644734 C2.27029557,16.6854181 2.21732612,16.5828932 2.15819742,16.4865446 C2.12124198,16.4272531 2.07689546,16.3766083 2.04363557,16.3099054 C1.99682535,16.209851 1.967261,16.0900328 1.93153742,15.9763908 C1.90566861,15.8923945 1.87117687,15.817045 1.85146731,15.7256373 C1.8280622,15.615701 1.8255985,15.4921771 1.81204818,15.3711236 C1.7997297,15.2648931 1.77878828,15.1673092 1.77632459,15.0511967 C1.77632459,15.0277271 1.77632459,15.0042576 1.77509274,14.9795528 C1.77509274,14.7930317 1.78617937,14.6077458 1.80835263,14.4162838 L1.84284437,14.1791179 L1.84284437,14.1791179 L1.88842274,13.9419519 L1.89704568,13.8838957 C1.89827752,13.875249 1.89950937,13.8690728 1.90074122,13.8628966 C1.93769666,13.6874927 1.98327503,13.5108535 2.03994003,13.3366848 L2.12693928,13.0689467 L2.12693928,13.0689467 L2.22594905,12.8030614 C2.2271809,12.7993557 2.2271809,12.7981205 2.22841275,12.79565 C2.30725101,12.5967765 2.39471221,12.402844 2.48956449,12.2126171 C2.54499764,12.1026808 2.61028558,11.9989208 2.66818243,11.8926902 C2.7137608,11.8086939 2.75687547,11.7284034 2.80491754,11.6456424 C2.83201819,11.602409 2.85172775,11.5567051 2.87882841,11.514707 C2.97573377,11.3607139 3.0786615,11.2111127 3.18542165,11.0659035 L3.34816243,10.8513836 L2.92563863,10.6068062 C2.82339525,10.5462795 2.73100667,10.4684595 2.64847286,10.3770518 C2.63369069,10.3609937 2.6238359,10.3362889 2.61028558,10.3189955 C2.54622949,10.2399402 2.48586895,10.1547087 2.43905873,10.0546543 C2.42304471,10.0237734 2.41565362,9.98301048 2.40333514,9.94718854 C2.36514786,9.85207513 2.32819242,9.75696171 2.30478731,9.64579019 C2.29123699,9.582793 2.29000514,9.50620817 2.28261405,9.43703478 C2.27152742,9.35180328 2.25428155,9.27151273 2.2530497,9.17763456 C2.25181786,9.16281169 2.25181786,9.14181262 2.25181786,9.12575451 C2.25058601,8.9960544 2.25920894,8.86141333 2.27275927,8.72924275 C2.27768666,8.69836177 2.28507775,8.66995127 2.28877329,8.64030553 C2.29493253,8.59583692 2.30355546,8.55136831 2.3121784,8.50442922 C2.32203318,8.4500787 2.32819242,8.39572818 2.3405109,8.33890718 C2.35406123,8.26973378 2.37623449,8.20056039 2.39348036,8.131387 L2.40780059,8.07580124 L2.40780059,8.07580124 L2.42304471,8.02021548 L2.43659503,7.96462972 C2.47601416,7.83863532 2.52159253,7.71387617 2.57086645,7.58664654 C2.57702569,7.57182367 2.58564862,7.55453032 2.59180786,7.53723697 C2.60782188,7.5001798 2.62506775,7.46682834 2.64108177,7.42977117 C2.67680536,7.34824538 2.7112971,7.26424912 2.75194808,7.17901762 C2.7704258,7.14319569 2.79383091,7.10860899 2.81354047,7.07031658 C2.85419145,6.99373175 2.89730612,6.9196174 2.9404208,6.84303257 C2.96998515,6.79485825 2.9946221,6.7429782 3.0254183,6.69356864 C3.03773678,6.67256957 3.05744634,6.65527622 3.06976482,6.63427716 C3.22867319,6.38969981 3.40236374,6.15747485 3.59330016,5.94624895 C3.62902374,5.90548606 3.66721103,5.87213461 3.70539831,5.83137171 C3.9086532,5.62138106 4.12299473,5.42621327 4.35088658,5.27057314 C4.34595919,5.23186898 4.33281948,5.20085076 4.32424217,5.16507457 L4.31639484,5.10628634 C4.31639484,5.02970151 4.32132223,4.95558716 4.32871332,4.88023757 C4.33733625,4.80735846 4.35088658,4.73694983 4.36566875,4.66160024 L4.38738007,4.57219981 L4.38738007,4.57219981 L4.41371082,4.48002009 L4.41740636,4.46519722 C4.41863821,4.46025626 4.41863821,4.45778579 4.41987006,4.45284483 C4.44081147,4.38490668 4.46544843,4.31449804 4.49254908,4.24408941 C4.52457712,4.16873983 4.55783702,4.092155 4.5960243,4.01804065 C4.61819756,3.9723368 4.64653006,3.92663295 4.67239887,3.88092911 C4.6834855,3.86116528 4.69334028,3.84140145 4.70442691,3.82163763 C4.71920908,3.79816808 4.73029571,3.7734633 4.74507789,3.751229 C4.83377093,3.61041173 4.93724615,3.48194686 5.04688061,3.36089343 C5.06412648,3.33989436 5.07890865,3.31395434 5.09738637,3.29419051 C5.23288963,3.15090277 5.37824768,3.02614362 5.53099681,2.92855973 C5.54824268,2.91867781 5.56918409,2.90632542 5.58642996,2.89767875 C5.64432681,2.86556253 5.69852812,2.83591679 5.75272942,2.81244725 C5.81185812,2.78774246 5.86975497,2.7667434 5.92765182,2.75068529 L6.00495027,2.73400956 L6.00495027,2.73400956 L6.08040095,2.72474527 L6.09518312,2.72474527 L6.16247281,2.72026752 Z M8.73715799,4.73089716 L8.83000852,4.7321324 C8.86203656,4.73707336 8.88913721,4.74448479 8.91870156,4.74819051 C8.93964298,4.75313147 8.96058439,4.75560194 8.9815258,4.76177814 C9.00616276,4.76795433 9.03203156,4.76918957 9.05666852,4.77660101 C9.125652,4.79636484 9.18724439,4.82477534 9.24883678,4.86306775 L9.24883678,4.86306775 L10.4412655,5.55727215 C10.3636591,5.5115683 10.2761979,5.48192256 10.186273,5.45968826 C10.1554768,5.45227682 10.1246806,5.44733586 10.0951163,5.44239491 C10.0113506,5.42880728 9.9263531,5.42386632 9.83519636,5.42880728 C9.82410973,5.43004252 9.8130231,5.42880728 9.79947277,5.42880728 C9.6947657,5.43992443 9.58513124,5.46586445 9.47180124,5.50168639 C9.44223689,5.5115683 9.41267255,5.52021497 9.38187635,5.5338026 C9.2673145,5.57580074 9.14905711,5.62644554 9.02833602,5.69685417 C8.89036906,5.77590948 8.76225689,5.88461052 8.63168101,5.99207633 C8.58117525,6.0353097 8.52697395,6.06742591 8.47770003,6.11312976 C8.31263242,6.26506418 8.15865144,6.43676242 8.01575709,6.62081305 L8.01575709,6.62081305 L6.82332838,5.92413817 C6.96622273,5.74008754 7.12143556,5.57085978 7.28527132,5.41892536 C7.33577708,5.37322152 7.39121024,5.33987006 7.44294785,5.29663669 C7.54642307,5.20893471 7.64866644,5.11752701 7.75953274,5.04958886 C7.78293785,5.03353075 7.80880666,5.01747264 7.83713916,5.00264977 C7.92460035,4.95200497 8.00836601,4.9087716 8.09213166,4.8741849 C8.1241597,4.85936203 8.1549559,4.85318584 8.1857521,4.84083344 C8.21901199,4.82848105 8.25227188,4.81612866 8.28553177,4.80624675 C8.31016873,4.79636484 8.33726938,4.78524768 8.36313819,4.77907149 C8.44444014,4.75560194 8.5257421,4.74448479 8.60334851,4.73707336 L8.60334851,4.73707336 L8.6415358,4.73707336 C8.70559189,4.73089716 8.76964797,4.72842668 8.83000852,4.7321324 Z" id="形状结合" fill="url(#linearGradient-13)" fill-rule="nonzero"></path>
                                <path d="M6.77885868,3.59188315 C7.48470749,3.18178375 8.05382119,3.50788688 8.05628489,4.32314472 C8.05628489,4.79871179 7.84933445,5.3323351 7.53521325,5.78319739 C7.7631051,5.9697185 7.9331001,6.24888254 8.01563391,6.62068953 C8.31127739,6.23776539 8.65619479,5.9128975 9.02821284,5.69673065 C10.1245574,5.06181773 11.0139516,5.57073625 11.0164272,6.82573923 C11.0201108,8.06344885 10.1652084,9.56179393 9.09473262,10.2189412 C9.38421686,10.6154529 9.56529849,11.1564877 9.56653034,11.8531625 C9.56899404,13.3663305 8.80155283,15.1067824 7.69658532,16.3580797 L7.67071651,16.4593693 C7.26667042,17.372211 7.04124227,18.2689947 6.86508802,19.1682488 C6.7948727,19.5338795 6.58915411,19.7932798 6.37481258,19.9180389 C6.09271943,20.083561 5.7933804,20.0119171 5.75765681,19.6339339 C5.70222366,18.9953153 5.48665029,18.6099207 5.19716605,18.1948803 C5.15528322,18.1343536 5.13803735,18.0577688 5.12695072,17.976243 C3.87292962,18.1664698 2.97244884,17.3055081 2.96750616,15.6749925 C2.96382591,14.272996 3.63025559,12.6733613 4.60464723,11.4554155 C3.91727614,11.3850069 3.44547841,10.8093855 3.44301472,9.82242939 C3.43931918,8.43402059 4.3644369,6.76397727 5.54085159,5.96477754 C5.53469235,5.90548606 5.5075917,5.86472317 5.5075917,5.79678502 C5.50512801,4.98276242 6.07793725,3.99704158 6.77885868,3.59188315" id="Fill-301" fill="url(#linearGradient-14)" fill-rule="nonzero"></path>
                                <path d="M11.3614558,14.5621655 L12.5526527,15.2538994 C12.5649712,15.3391309 12.5809852,15.4144805 12.622868,15.4762425 C12.9123523,15.8912828 13.1291575,16.274207 13.1845906,16.9152961 C13.1964164,17.0467255 13.2413542,17.140999 13.3061592,17.2012786 L13.3582812,17.240164 L12.1658525,16.5422539 C12.072232,16.4903738 12.0069441,16.382908 11.9921619,16.2210917 C11.9354969,15.5812378 11.7199236,15.1958432 11.4316712,14.7808028 C11.3885565,14.7202761 11.3713106,14.6412208 11.3614558,14.5621655 Z M13.5884212,0.000147404993 L13.6529392,0.0021546686 C13.7046768,0.00709562518 13.7527189,0.0169775383 13.7982972,0.0318004081 L13.8611215,0.0555787616 L13.8611215,0.0555787616 L13.9202502,0.0849156913 L15.111447,0.77912009 C15.0255256,0.729092905 14.9264389,0.701300024 14.8178246,0.695741448 L14.7061691,0.697594307 C14.5521881,0.712417177 14.3821931,0.769238177 14.204807,0.870527787 C14.0745391,0.947421424 13.9491216,1.04307525 13.8301136,1.15384147 L13.7132997,1.26951003 L13.6800398,1.31397864 C13.5457684,1.46220734 13.4238155,1.62402366 13.3191084,1.80313334 C13.3104855,1.81795621 13.3030944,1.83154384 13.2957033,1.84636671 C13.0727389,2.23793752 12.93354,2.67891789 12.9347719,3.0766649 C12.9347719,3.14583829 12.9606407,3.18660118 12.9680318,3.24465742 C12.7364444,3.40153279 12.5184073,3.59917106 12.3114569,3.81657315 C12.2806607,3.8499246 12.2486326,3.88080558 12.2178365,3.9129218 C12.0244363,4.12538293 11.8482821,4.35884313 11.6893737,4.60589096 C11.6437954,4.67753483 11.5969851,4.75041394 11.5563342,4.82329305 C11.5119876,4.8974074 11.4701048,4.97028651 11.4306857,5.04563609 C11.3690933,5.16545429 11.3087327,5.28650773 11.2557633,5.41003164 C11.242213,5.4433831 11.2261989,5.47549932 11.2126486,5.50885077 C11.1473607,5.66819662 11.0906957,5.82877771 11.0438855,5.99059404 C11.0327988,6.02518074 11.0241759,6.06100267 11.0143211,6.09682461 C10.9785975,6.22899519 10.9490332,6.36240102 10.9268599,6.49580685 C10.9207007,6.5353345 10.9133096,6.57609739 10.9059185,6.61438981 C10.8837452,6.77991185 10.8689631,6.94296342 10.8689631,7.10230927 C10.8689631,7.22212747 10.8874408,7.32588755 10.9009911,7.43211812 C10.909614,7.49511532 10.9108459,7.56428871 10.9231644,7.62234495 C10.9416421,7.71498789 10.974902,7.79280795 11.0044663,7.87433373 C11.022944,7.92621378 11.0364944,7.98550526 11.0574358,8.03367958 C11.0956231,8.11149965 11.1473607,8.17449685 11.1941709,8.24119976 L11.1970965,8.2455231 L11.1990983,8.24984643 L12.0305956,8.73406018 C11.8100948,9.01198899 11.6105355,9.3121521 11.4245264,9.62096188 C11.3764844,9.70001719 11.3333697,9.78401345 11.2890232,9.86553924 C11.1789781,10.0631775 11.0733129,10.2635607 10.9785975,10.4674209 L10.845558,10.7759105 C10.740235,11.0427221 10.6522348,11.3130079 10.5820773,11.5820777 L10.5178864,11.8505685 L10.505568,11.9308591 C10.4353526,12.276726 10.392238,12.622593 10.3934698,12.9536371 C10.3934698,13.1068067 10.4168749,13.2365069 10.4341208,13.3760889 C10.4452074,13.4823194 10.4476711,13.5971967 10.4698444,13.6947806 C10.4944813,13.8195397 10.5388278,13.9245351 10.578247,14.0357066 C10.6065795,14.1159971 10.626289,14.2061696 10.6595489,14.2778135 C10.7112865,14.388985 10.7839656,14.4791574 10.8492535,14.5718004 C10.8874408,14.6249157 10.9157733,14.6891481 10.958888,14.7348519 C11.0352625,14.8213187 11.1193019,14.8990015 11.2099112,14.9660704 L11.3470411,15.056 L10.156955,14.3655154 C10.0128288,14.2802839 9.88225294,14.1752886 9.76769109,14.0443533 C9.69624392,13.965298 9.64327446,13.8627731 9.58291392,13.7664245 C9.54719033,13.7058977 9.50284381,13.6577234 9.46958392,13.5897853 C9.4227737,13.4897309 9.39320935,13.3699127 9.35748576,13.2562707 C9.33161696,13.1722744 9.29712522,13.0956896 9.27741565,13.0042819 C9.26961395,12.9680482 9.2640022,12.9300303 9.25953105,12.8910059 L9.23799652,12.6510035 C9.22690989,12.5447729 9.20473663,12.4459538 9.20227294,12.3310766 C9.20227294,12.3088423 9.20227294,12.2841375 9.20104109,12.2594327 C9.20104109,12.0741468 9.21335957,11.8863905 9.23430098,11.6949284 C9.2527787,11.5392883 9.2811112,11.3787072 9.31437109,11.2205966 C9.31806663,11.202068 9.31929848,11.1835394 9.32299402,11.1625403 C9.32422587,11.1575994 9.32545772,11.1489527 9.32668957,11.1427765 C9.363645,10.9686078 9.40922337,10.7894981 9.46588837,10.6153294 L9.55304161,10.3480545 L9.55304161,10.3480545 L9.65312925,10.0817061 L9.65559294,10.0755299 C9.7344312,9.87789163 9.82066055,9.68272384 9.91674468,9.49126177 C9.97094599,9.38256073 10.0362339,9.28003588 10.0941308,9.17257008 C10.140941,9.08733857 10.1828238,9.00704803 10.2320977,8.92552225 C10.2579665,8.88228888 10.2789079,8.83658503 10.3047768,8.79582214 C10.4016821,8.6410055 10.5046098,8.4922278 10.61137,8.34692708 L10.7741108,8.13126348 L10.351587,7.88545089 C10.2493436,7.82615941 10.156955,7.74833934 10.0756531,7.65693165 C10.0608709,7.64087354 10.0497843,7.61740399 10.0362339,7.59887541 C9.97217784,7.51858486 9.91181729,7.4345886 9.86377523,7.33453423 C9.84899305,7.30365325 9.84160197,7.26289036 9.82928349,7.22706842 C9.7910962,7.13319025 9.75414077,7.03684159 9.73073566,6.92443483 L9.71733931,6.82360844 L9.71733931,6.82360844 L9.7085624,6.7181499 L9.68502042,6.54869338 L9.67899805,6.45751444 C9.6777662,6.44145633 9.6777662,6.42292774 9.6777662,6.40439915 C9.67653435,6.27469904 9.68515729,6.14376369 9.69993946,6.00912263 C9.70363501,5.97947689 9.71102609,5.94859591 9.71472164,5.92018541 C9.72088088,5.8757168 9.72950381,5.83001295 9.73812675,5.78554434 C9.74798153,5.72995858 9.75414077,5.67437282 9.76645925,5.62125754 C9.78124142,5.55208414 9.80218283,5.47920503 9.8194287,5.41126688 C9.83051533,5.37420971 9.83790642,5.33715253 9.84899305,5.29886012 C9.85392044,5.28156677 9.85884784,5.26427342 9.86377523,5.24574484 C9.90319436,5.1185152 9.94877273,4.99375605 9.99681479,4.86652642 C10.002974,4.85170355 10.011597,4.8344102 10.0177562,4.81711685 C10.0337702,4.78253016 10.0510161,4.74670822 10.0670301,4.70965105 C10.1027537,4.62689002 10.1372454,4.54289376 10.1778964,4.4588975 C10.1963741,4.42307557 10.2210111,4.38725363 10.2394888,4.3514317 C10.2801398,4.27361163 10.3232545,4.19826204 10.3663691,4.12538293 C10.3959335,4.07350289 10.4205705,4.02285808 10.4513666,3.97468376 C10.4636851,3.95244945 10.4833947,3.9351561 10.4957132,3.91539228 C10.6546215,3.66957969 10.8295439,3.43735473 11.0192485,3.22612883 C11.0549721,3.18660118 11.0931594,3.15201449 11.1313467,3.11248683 C11.3346016,2.90249618 11.5489431,2.70485792 11.7768349,2.55168826 C11.7727288,2.51216061 11.7593153,2.48141688 11.7504643,2.4455492 L11.7423432,2.38616622 C11.7423432,2.31081663 11.7472706,2.2342318 11.7546617,2.16011745 C11.7632846,2.0860031 11.7768349,2.01682971 11.7916171,1.9439506 L11.8137904,1.85192529 L11.8137904,1.85192529 L11.8396592,1.75989997 L11.8433547,1.7450771 C11.8445866,1.74137138 11.8445866,1.73643043 11.8470503,1.73395995 C11.8667598,1.6660218 11.8926286,1.59437793 11.9184974,1.52396929 C11.9505255,1.44861971 11.9837854,1.37203488 12.0219726,1.29915577 C12.0453778,1.25221668 12.0724784,1.20651283 12.0983472,1.16080899 C12.1094338,1.14104516 12.1205205,1.12128133 12.1316071,1.10151751 C12.1451574,1.0792832 12.1562441,1.05334318 12.1710262,1.03110888 C12.2597193,0.889056374 12.3631945,0.760591503 12.472829,0.639538067 C12.4900748,0.618539002 12.504857,0.59259898 12.5233347,0.572835153 C12.658838,0.430782652 12.804196,0.304788259 12.9569452,0.208439606 C12.974191,0.201028171 12.9951324,0.18744054 13.0136102,0.176323388 C13.0702752,0.14420717 13.1244765,0.117031909 13.1774459,0.0923271261 C13.2378065,0.0676223432 13.2969352,0.0453880386 13.3536002,0.0318004081 L13.4313606,0.01450706 L13.4313606,0.01450706 L13.5063493,0.00462514689 L13.5211315,0.00462514689 L13.5884212,0.000147404993 Z M16.1637223,2.00972709 L16.2565728,2.013124 C16.2886008,2.01559447 16.3144696,2.02547639 16.344034,2.0291821 C16.3662072,2.03165258 16.3871487,2.03782878 16.4080901,2.04276973 C16.4314952,2.04771069 16.4585958,2.04894593 16.4820009,2.0575926 C16.5509844,2.07859167 16.6138087,2.10700217 16.6741692,2.14158887 L16.6741692,2.14158887 L17.8678298,2.8370285 C17.7902234,2.7925599 17.7027622,2.76291416 17.6116054,2.74067985 C17.5820411,2.73326842 17.5512449,2.72709222 17.5204487,2.7233865 C17.4379149,2.70979887 17.3516855,2.70238744 17.2617606,2.70979887 C17.2494421,2.70979887 17.2383555,2.70732839 17.226037,2.70979887 C17.12133,2.71968079 17.0116955,2.74685605 16.8983655,2.78144274 C16.8688012,2.79132466 16.8392368,2.80120657 16.8084406,2.81232372 C16.6938788,2.85555709 16.5756214,2.9062019 16.4549003,2.97661053 C16.3169333,3.05813631 16.1875893,3.16436688 16.0582453,3.27183268 C16.0077395,3.31383081 15.9523064,3.34718227 15.9030325,3.39288612 C15.7391967,3.54605577 15.5839839,3.71651878 15.4423214,3.90056941 L15.4423214,3.90056941 L14.2486608,3.20512977 C14.392787,3.0198439 14.5479998,2.85061614 14.7118356,2.69868172 C14.7623414,2.65174263 14.8165427,2.61839118 14.8695121,2.57515781 C14.9729873,2.49116154 15.0752307,2.39851861 15.186097,2.32810998 C15.2095021,2.31328711 15.2353709,2.297229 15.2637034,2.28240613 C15.3511646,2.23052608 15.4349303,2.18729271 15.5186959,2.15394126 C15.550724,2.13911839 15.5815202,2.13170695 15.6123164,2.1205898 C15.6455763,2.10947265 15.6788362,2.09588502 15.7108642,2.0860031 C15.736733,2.07859167 15.7638337,2.06623928 15.7884706,2.05882784 C15.8697726,2.03782878 15.9510745,2.02300591 16.0286809,2.01682971 L16.0286809,2.01682971 L16.0500843,2.01621209 L16.0500843,2.01621209 L16.0681001,2.01559447 C16.1321562,2.00941828 16.1962122,2.0069478 16.2565728,2.013124 Z" id="形状结合" fill="url(#linearGradient-15)" fill-rule="nonzero"></path>
                                <path d="M14.204807,0.870527787 C14.9106558,0.460428391 15.4810014,0.786531525 15.4834651,1.60178936 C15.4834651,2.07859167 15.2765146,2.61345022 14.9623934,3.06184203 C15.1890534,3.24836314 15.3590485,3.52999766 15.4415823,3.90056941 C15.7372257,3.51888051 16.0821431,3.19277738 16.455393,2.97661053 C17.5517376,2.34293285 18.4398999,2.85061614 18.4436074,4.10685434 C18.447291,5.34332873 17.5911567,6.84290905 16.520681,7.50005627 C16.8101652,7.89409756 16.9912468,8.43636755 16.9924787,9.13304242 C16.9949424,10.6449751 16.2275012,12.3878976 15.1225337,13.6367243 L15.0966649,13.738014 C14.6926188,14.6533262 14.4671906,15.5488745 14.2910364,16.4481286 C14.220821,16.8137594 14.0151025,17.0731596 13.8007609,17.199154 C13.5186678,17.3622056 13.2205606,17.291797 13.184837,16.915049 C13.128172,16.2751952 12.9125986,15.8910358 12.6231144,15.4759954 C12.5812316,15.4142335 12.5639857,15.3388839 12.5528991,15.2548876 C11.298878,15.4463497 10.3983972,14.585388 10.393463,12.9536371 C10.3910061,11.5528759 11.0562039,9.95200598 12.0305956,8.73406018 C11.3432245,8.66612203 10.8714268,8.08926535 10.8689631,7.10230927 C10.8652675,5.71513571 11.7903853,4.04385715 12.9680318,3.24465742 C12.9606407,3.18660118 12.9347719,3.14583829 12.9347719,3.0766649 C12.9310764,2.26387754 13.5038856,1.27568623 14.204807,0.870527787" id="Fill-309" fill="url(#linearGradient-16)" fill-rule="nonzero"></path>
                                <polygon id="Fill-311" fill="url(#linearGradient-17)" fill-rule="nonzero" points="0 75.5530135 20.2170868 86.0661339 20.2170868 49.362238 0 38.8503528"></polygon>
                                <polygon id="Fill-313" fill="url(#linearGradient-18)" fill-rule="nonzero" points="60.6414056 64.9232866 20.2170868 86.0656398 20.2170868 49.3617439 60.6414056 28.2206259"></polygon>
                                <polygon id="Fill-315" fill="url(#linearGradient-19)" fill-rule="nonzero" points="60.6414056 28.2207494 20.2170868 49.3618674 0 38.8252775 40.4267825 17.7113348"></polygon>
                                <path d="M20.6436757,46.6949861 L20.2544118,46.9025063 L20.6436757,46.6949861 Z" id="Fill-317" fill="#D0F1FF"></path>
                                <g id="Fill-319">
                                    <use fill="#B9B9B9" xlink:href="#path-20"></use>
                                    <use fill="#E5E5E5" xlink:href="#path-20"></use>
                                </g>
                                <polygon id="Fill-321" fill="#D2D2D2" points="2.83361959 38.8504764 5.96251311 40.4488758 40.4296157 22.3242119 40.4296157 19.1768225"></polygon>
                                <polygon id="Fill-323" fill="#CACBCC" points="40.4296157 19.1771931 40.4296157 22.3245824 54.8188304 29.8484241 58.0056207 28.2203789"></polygon>
                                <polygon id="Fill-325" fill="#CACBCC" points="12.8123262 41.7311776 17.8444247 44.3770598 17.8444247 41.6138299 12.8123262 38.9654771"></polygon>
                                <polygon id="Fill-327" fill="#D7D7D7" points="22.4908315 41.9278277 17.8455333 44.3760716 17.8455333 41.6140769 22.4908315 39.1683034"></polygon>
                                <polygon id="Fill-329" fill="url(#linearGradient-21)" points="22.4908315 39.1678093 17.8455333 41.6135828 12.812203 38.9516425 17.4599649 36.5206918"></polygon>
                                <polygon id="Fill-331" fill="#CACBCC" points="21.0208675 37.3691776 26.0517341 40.0150598 26.0517341 37.2518299 21.0208675 34.6059476"></polygon>
                                <polygon id="Fill-333" fill="#D7D7D7" points="30.6987569 37.5682981 26.0522268 40.0140716 26.0522268 37.2520769 30.6987569 34.8050682"></polygon>
                                <polygon id="Fill-335" fill="url(#linearGradient-22)" points="30.6987569 34.8046976 26.0522268 37.2517063 21.0213602 34.589766 25.6691222 32.1575801"></polygon>
                                <polygon id="Fill-337" fill="url(#linearGradient-23)" fill-rule="nonzero" points="68.8933079 75.1513138 40.4622597 89.9988883 40.4622597 76.7027741 54.6790156 61.0028846 68.8933079 61.8527291"></polygon>
                                <polygon id="Fill-339" fill="url(#linearGradient-24)" fill-rule="nonzero" points="49.4760599 74.5940974 46.4826697 76.2307893 46.4826697 74.0493569 49.4760599 72.4101946"></polygon>
                                <polygon id="Fill-341" fill="#CDCDCD" points="48.8215792 74.238225 49.4756904 74.5877977 49.4756904 72.4100711 48.8215792 72.7682904"></polygon>
                                <polygon id="Fill-343" fill="#B2B2B2" points="46.4824233 76.2310363 46.4824233 75.4688938 48.8217023 74.2385956 49.4758135 74.5943444"></polygon>
                                <polygon id="Fill-345" fill="url(#linearGradient-25)" fill-rule="nonzero" points="25.5939794 53.3356317 22.6005892 54.9710883 22.6005892 52.7921265 25.5939794 51.1529642"></polygon>
                                <polygon id="Fill-347" fill="#CDCDCD" points="24.9407305 52.9822298 25.5936099 53.3280968 25.5936099 51.1540759 24.9407305 51.51106"></polygon>
                                <polygon id="Fill-349" fill="#B2B2B2" points="22.6003428 54.9713354 22.6003428 54.2104281 24.9408537 52.9826004 25.5937331 53.3358788"></polygon>
                                <polygon id="Fill-351" fill="url(#linearGradient-26)" fill-rule="nonzero" points="31.1751125 50.4441839 28.1804903 52.0845815 28.1804903 49.9031492 31.1751125 48.2639868"></polygon>
                                <polygon id="Fill-353" fill="#CDCDCD" points="30.5219867 50.0918937 31.1748661 50.4377607 31.1748661 48.264975 30.5219867 48.6194887"></polygon>
                                <polygon id="Fill-355" fill="#B2B2B2" points="28.1803672 52.084705 28.1803672 51.3188568 30.5221099 50.0922643 31.1749893 50.4443075"></polygon>
                                <polygon id="Fill-357" fill="url(#linearGradient-27)" fill-rule="nonzero" points="36.4327622 47.5948578 33.439372 49.2327849 33.439372 47.0501173 36.4327622 45.4134255"></polygon>
                                <polygon id="Fill-359" fill="#CDCDCD" points="35.7807452 47.2426911 36.4323927 47.5885581 36.4323927 45.4145372 35.7807452 45.7715213"></polygon>
                                <polygon id="Fill-361" fill="#B2B2B2" points="33.4391256 49.233032 33.4391256 48.4696542 35.7808683 47.2430617 36.4325159 47.5951048"></polygon>
                                <polygon id="Fill-363" fill="url(#linearGradient-28)" fill-rule="nonzero" points="42.0151271 44.7058805 39.020505 46.3438076 39.020505 44.16114 42.0151271 42.5244482"></polygon>
                                <polygon id="Fill-365" fill="#CDCDCD" points="41.3607695 44.352355 42.0148807 44.698222 42.0148807 42.5254364 41.3607695 42.8811852"></polygon>
                                <polygon id="Fill-367" fill="#B2B2B2" points="39.0209977 46.3439311 39.0209977 45.5793181 41.3602768 44.3527256 42.0156198 44.706004"></polygon>
                                <polygon id="Fill-369" fill="url(#linearGradient-29)" fill-rule="nonzero" points="47.3070222 41.9724198 44.3111683 43.6128174 44.3111683 41.4301498 47.3070222 39.7909875"></polygon>
                                <polygon id="Fill-371" fill="#CDCDCD" points="46.6538965 41.6201296 47.3067759 41.9672318 47.3067759 39.7919756 46.6538965 40.150195"></polygon>
                                <polygon id="Fill-373" fill="#B2B2B2" points="44.3110451 43.6129409 44.3110451 42.8470926 46.6540197 41.6205002 47.3068991 41.9725433"></polygon>
                                <polygon id="Fill-375" fill="url(#linearGradient-25)" fill-rule="nonzero" points="52.8859379 39.0820837 49.8925477 40.7200108 49.8925477 38.541049 52.8859379 36.9018866"></polygon>
                                <polygon id="Fill-377" fill="#CDCDCD" points="52.232689 38.729917 52.8855684 39.0782545 52.8855684 36.9029983 52.232689 37.257512"></polygon>
                                <polygon id="Fill-379" fill="#B2B2B2" points="49.8929172 40.7202579 49.8929172 39.9593506 52.2321963 38.7302876 52.8863075 39.0823308"></polygon>
                                <polygon id="Fill-381" fill="url(#linearGradient-30)" fill-rule="nonzero" points="58.2072742 36.2292989 55.213884 37.8659908 55.213884 35.6870289 58.2072742 34.0491018"></polygon>
                                <polygon id="Fill-383" fill="#CDCDCD" points="57.5552572 35.8770087 58.2069047 36.2228757 58.2069047 34.05009 57.5552572 34.4058389"></polygon>
                                <polygon id="Fill-385" fill="#B2B2B2" points="55.2136376 37.8662378 55.2136376 37.1053305 57.5553804 35.8775028 58.2070279 36.229546"></polygon>
                                <polygon id="Fill-387" fill="url(#linearGradient-25)" fill-rule="nonzero" points="25.5939794 60.8182164 22.6005892 62.4561435 22.6005892 60.2759464 25.5939794 58.6380193"></polygon>
                                <polygon id="Fill-389" fill="#CDCDCD" points="24.9407305 60.4648144 25.5936099 60.8119166 25.5936099 58.6378957 24.9407305 58.9961151"></polygon>
                                <polygon id="Fill-391" fill="#B2B2B2" points="22.6003428 62.4563905 22.6003428 61.694248 24.9408537 60.465185 25.5937331 60.8184634"></polygon>
                                <polygon id="Fill-393" fill="url(#linearGradient-31)" fill-rule="nonzero" points="31.1751125 57.9292391 28.1804903 59.5684014 28.1804903 57.3882043 31.1751125 55.7453362"></polygon>
                                <polygon id="Fill-395" fill="#CDCDCD" points="30.5219867 57.5757136 31.1748661 57.9215806 31.1748661 55.7463244 30.5219867 56.1045438"></polygon>
                                <polygon id="Fill-397" fill="#B2B2B2" points="28.1803672 59.5685249 28.1803672 58.8014414 30.5221099 57.5760842 31.1749893 57.9293626"></polygon>
                                <polygon id="Fill-399" fill="url(#linearGradient-27)" fill-rule="nonzero" points="36.4327622 55.0786777 33.439372 56.7166048 33.439372 54.5351725 36.4327622 52.8972453"></polygon>
                                <polygon id="Fill-401" fill="#CDCDCD" points="35.7807452 54.7240405 36.4323927 55.072378 36.4323927 52.8971218 35.7807452 53.2553412"></polygon>
                                <polygon id="Fill-403" fill="#B2B2B2" points="33.4391256 56.7168518 33.4391256 55.9559445 35.7808683 54.7244111 36.4325159 55.0789247"></polygon>
                                <polygon id="Fill-405" fill="url(#linearGradient-32)" fill-rule="nonzero" points="13.8818165 53.2463239 16.8752068 54.884251 16.8752068 52.7028187 13.8818165 51.0636564"></polygon>
                                <polygon id="Fill-407" fill="#AEB0B2" points="14.5326017 52.892922 13.8821861 53.2400242 13.8821861 51.0647681 14.5326017 51.4229874"></polygon>
                                <polygon id="Fill-409" fill="#BCBCBC" points="16.87533 54.8844981 16.87533 54.1211203 14.5323554 52.8932926 13.8819397 53.246571"></polygon>
                                <polygon id="Fill-411" fill="url(#linearGradient-33)" fill-rule="nonzero" points="8.30056031 50.3573466 11.2951824 51.9952737 11.2951824 49.8150766 8.30056031 48.1734438"></polygon>
                                <polygon id="Fill-413" fill="#AEB0B2" points="8.95257738 50.0027095 8.30092987 50.3498117 8.30092987 48.1745555 8.95257738 48.5315396"></polygon>
                                <polygon id="Fill-415" fill="#BCBCBC" points="11.2954288 51.9953973 11.2954288 51.2307842 8.95245419 50.0029565 8.30080668 50.3574701"></polygon>
                                <polygon id="Fill-417" fill="url(#linearGradient-34)" fill-rule="nonzero" points="3.04180188 47.5056735 6.03642398 49.1436006 6.03642398 46.9634035 3.04180188 45.3242412"></polygon>
                                <polygon id="Fill-419" fill="#AEB0B2" points="3.6949276 47.1533833 3.04204825 47.5004855 3.04204825 45.3252294 3.6949276 45.6822135"></polygon>
                                <polygon id="Fill-421" fill="#BCBCBC" points="6.03654717 49.1438477 6.03654717 48.3817051 3.69480442 47.1538774 3.04192506 47.5059206"></polygon>
                                <polygon id="Fill-423" fill="url(#linearGradient-35)" fill-rule="nonzero" points="13.8818165 68.0451065 16.8752068 69.6842688 16.8752068 67.5028365 13.8818165 65.8624389"></polygon>
                                <polygon id="Fill-425" fill="#AEB0B2" points="14.5326017 67.6917046 13.8821861 68.040042 13.8821861 65.8635506 14.5326017 66.2205348"></polygon>
                                <polygon id="Fill-427" fill="#BCBCBC" points="16.87533 69.6845159 16.87533 68.9199029 14.5323554 67.6920752 13.8819397 68.0453535"></polygon>
                                <polygon id="Fill-429" fill="url(#linearGradient-34)" fill-rule="nonzero" points="8.30056031 65.1560057 11.2951824 66.7939328 11.2951824 64.6137357 8.30056031 62.9745733"></polygon>
                                <polygon id="Fill-431" fill="#AEB0B2" points="8.95257738 64.8013685 8.30092987 65.1497059 8.30092987 62.9744498 8.95257738 63.3301987"></polygon>
                                <polygon id="Fill-433" fill="#BCBCBC" points="11.2954288 66.7941798 11.2954288 66.0295668 8.95245419 64.8017391 8.30080668 65.1562527"></polygon>
                                <polygon id="Fill-435" fill="url(#linearGradient-34)" fill-rule="nonzero" points="3.04180188 62.3043326 6.03642398 63.9422597 6.03642398 61.7632978 3.04180188 60.1229002"></polygon>
                                <polygon id="Fill-437" fill="#AEB0B2" points="3.6949276 61.9521659 3.04204825 62.2992681 3.04204825 60.124012 3.6949276 60.4809961"></polygon>
                                <polygon id="Fill-439" fill="#BCBCBC" points="6.03654717 63.9425067 6.03654717 63.1803642 3.69480442 61.9525365 3.04192506 62.3045796"></polygon>
                                <polygon id="Fill-441" fill="url(#linearGradient-36)" fill-rule="nonzero" points="13.8818165 60.7301438 16.8752068 62.3668357 16.8752068 60.1866386 13.8818165 58.5487115"></polygon>
                                <polygon id="Fill-443" fill="#AEB0B2" points="14.5326017 60.3755067 13.8821861 60.7250793 13.8821861 58.548588 14.5326017 58.9068073"></polygon>
                                <polygon id="Fill-445" fill="#BCBCBC" points="16.87533 62.3670827 16.87533 61.6061754 14.5323554 60.3758772 13.8819397 60.7303909"></polygon>
                                <polygon id="Fill-447" fill="url(#linearGradient-34)" fill-rule="nonzero" points="8.30056031 57.8411665 11.2951824 59.4790936 11.2951824 57.296426 8.30056031 55.6597342"></polygon>
                                <polygon id="Fill-449" fill="#AEB0B2" points="8.95257738 57.4865293 8.30092987 57.8348668 8.30092987 55.6596106 8.95257738 56.0165948"></polygon>
                                <polygon id="Fill-451" fill="#BCBCBC" points="11.2954288 59.4792171 11.2954288 58.7158393 8.95245419 57.4867764 8.30080668 57.84129"></polygon>
                                <polygon id="Fill-453" fill="url(#linearGradient-34)" fill-rule="nonzero" points="3.04180188 54.9906051 6.03642398 56.627297 6.03642398 54.4470999 3.04180188 52.8079376"></polygon>
                                <polygon id="Fill-455" fill="#AEB0B2" points="3.6949276 54.6372032 3.04204825 54.9843054 3.04204825 52.8090493 3.6949276 53.1647981"></polygon>
                                <polygon id="Fill-457" fill="#BCBCBC" points="6.03654717 56.627544 6.03654717 55.8641662 3.69480442 54.6375738 3.04192506 54.9908522"></polygon>
                                <polygon id="Fill-459" fill="url(#linearGradient-37)" fill-rule="nonzero" points="42.0151271 52.1897004 39.020505 53.8276275 39.020505 51.6461951 42.0151271 50.0057976"></polygon>
                                <polygon id="Fill-461" fill="#CDCDCD" points="41.3607695 51.8350632 42.0148807 52.1809302 42.0148807 50.0069093 41.3607695 50.3638934"></polygon>
                                <polygon id="Fill-463" fill="#B2B2B2" points="39.0209977 53.827751 39.0209977 53.063138 41.3602768 51.8353103 42.0156198 52.1898239"></polygon>
                                <polygon id="Fill-465" fill="url(#linearGradient-38)" fill-rule="nonzero" points="47.3070222 49.4574749 44.3111683 51.0929315 44.3111683 48.9152049 47.3070222 47.2760426"></polygon>
                                <polygon id="Fill-467" fill="#CDCDCD" points="46.6538965 49.1039495 47.3067759 49.4522869 47.3067759 47.2757955 46.6538965 47.6315444"></polygon>
                                <polygon id="Fill-469" fill="#B2B2B2" points="44.3110451 51.0931786 44.3110451 50.3322713 46.6540197 49.1044436 47.3068991 49.457722"></polygon>
                                <polygon id="Fill-471" fill="url(#linearGradient-39)" fill-rule="nonzero" points="52.8859379 46.5659036 49.8925477 48.2063012 49.8925477 46.0248688 52.8859379 44.3844713"></polygon>
                                <polygon id="Fill-473" fill="#CDCDCD" points="52.232689 46.2137369 52.8855684 46.5596039 52.8855684 44.385583 52.232689 44.7413319"></polygon>
                                <polygon id="Fill-475" fill="#B2B2B2" points="49.8929172 48.2065482 49.8929172 47.4419352 52.2321963 46.2141075 52.8863075 46.5661506"></polygon>
                                <polygon id="Fill-477" fill="url(#linearGradient-25)" fill-rule="nonzero" points="58.2072742 43.7142305 55.213884 45.3496871 55.213884 43.16949 58.2072742 41.5315629"></polygon>
                                <polygon id="Fill-479" fill="#CDCDCD" points="57.5552572 43.3595933 58.2069047 43.7066955 58.2069047 41.5326747 57.5552572 41.8884235"></polygon>
                                <polygon id="Fill-481" fill="#B2B2B2" points="55.2136376 45.3500577 55.2136376 44.5891504 57.5553804 43.3600874 58.2070279 43.7146011"></polygon>
                                <polygon id="Fill-483" fill="url(#linearGradient-27)" fill-rule="nonzero" points="53.7057327 72.3515207 50.7123424 73.9869774 50.7123424 71.8067803 53.7057327 70.1676179"></polygon>
                                <polygon id="Fill-485" fill="#CDCDCD" points="53.0524838 71.9981188 53.7053631 72.3439858 53.7053631 70.1687296 53.0524838 70.5257137"></polygon>
                                <polygon id="Fill-487" fill="#B2B2B2" points="50.712096 73.9873479 50.712096 73.2264406 53.0526069 71.9986129 53.7054863 72.3518913"></polygon>
                                <polygon id="Fill-489" fill="url(#linearGradient-31)" fill-rule="nonzero" points="57.8968486 70.152548 54.9022265 71.7917103 54.9022265 69.610278 57.8968486 67.9686452"></polygon>
                                <polygon id="Fill-491" fill="#CDCDCD" points="57.2435997 69.801493 57.896479 70.1461248 57.896479 67.9696334 57.2435997 68.3266175"></polygon>
                                <polygon id="Fill-493" fill="#B2B2B2" points="54.9021033 71.7918339 54.9021033 71.0272208 57.243846 69.8018636 57.8967254 70.1526715"></polygon>
                                <polygon id="Fill-495" fill="url(#linearGradient-39)" fill-rule="nonzero" points="62.1252895 67.9088596 59.1318992 69.548022 59.1318992 67.3665896 62.1252895 65.7261921"></polygon>
                                <polygon id="Fill-497" fill="#CDCDCD" points="61.4745043 67.5540989 62.1249199 67.9024364 62.1249199 65.7271802 61.4745043 66.0853996"></polygon>
                                <polygon id="Fill-499" fill="#B2B2B2" points="59.131776 69.5481455 59.131776 68.7822972 61.4747506 67.5544695 62.1251663 67.9089831"></polygon>
                                <polygon id="Fill-501" fill="url(#linearGradient-40)" fill-rule="nonzero" points="40.4627524 76.7026506 26.5970731 69.4394444 26.5970731 82.7380291 40.4627524 90"></polygon>
                                <polygon id="Fill-503" fill="url(#linearGradient-41)" fill-rule="nonzero" points="70 61.0968863 55.4752821 59.87647 39.4230729 76.4583203 39.4230729 78.5471097 55.4752821 61.9207908 70 62.6520524"></polygon>
                                <polygon id="Fill-505" fill="#B6B6B6" fill-rule="nonzero" points="25.3346755 71.1162816 39.4233192 78.5474803 39.4233192 76.4586909 25.3346755 69.0299627"></polygon>
                                <polygon id="Fill-507" fill="url(#linearGradient-42)" fill-rule="nonzero" points="39.4233192 76.4589379 25.3346755 69.0289745 40.8140754 53.7280672 55.4755285 59.8758524"></polygon>
                                <polygon id="Fill-509" fill="url(#linearGradient-43)" points="70 61.0968863 55.4752821 59.87647 40.8150609 53.7274496 55.0293532 54.5797646"></polygon>
                                <polygon id="Fill-511" fill="#BABABA" fill-rule="nonzero" points="52.4780731 75.4276368 52.4780731 83.6950924 58.4574625 80.5822897 58.4574625 72.3123636"></polygon>
                                <polygon id="Fill-513" fill="url(#linearGradient-44)" fill-rule="nonzero" points="36.1771538 79.0741862 36.1771538 81.4730207 30.1989962 78.2885741 30.1989962 75.9663246"></polygon>
                                <polygon id="Fill-515" fill="url(#linearGradient-45)" fill-rule="nonzero" points="30.766139 76.8739783 32.8319478 77.9548125 32.8319478 79.1085259 30.766139 78.0128688"></polygon>
                                <polygon id="Fill-517" fill="url(#linearGradient-46)" fill-rule="nonzero" points="35.5353611 79.3710142 35.5353611 80.5457266 33.4720159 79.4500695 33.4720159 78.29018"></polygon>
                            </g>
                            <g id="编组" transform="translate(4.717484, 59.691061)">
                                <polygon id="Fill-525" fill="url(#linearGradient-47)" fill-rule="nonzero" points="2.26943328 19.498991 2.26943328 10.8387294 8.06404553 13.2882086 8.08375509 16.4603027"></polygon>
                                <polygon id="Fill-527" fill="url(#linearGradient-48)" fill-rule="nonzero" points="8.08338554 16.4603027 8.06367597 22.5166803 2.26906373 19.498991"></polygon>
                                <polygon id="Fill-529" fill="#AEB0B2" points="2.92268219 19.1454656 2.26980283 19.4925678 2.26980283 10.8384823 2.92268219 11.1806436"></polygon>
                                <polygon id="Fill-531" fill="#CDCDCD" fill-rule="nonzero" points="53.739978 19.976658 47.7605886 23.0919311 47.7605886 24.0047729 53.739978 20.890735"></polygon>
                                <polygon id="Fill-533" fill="#CDCDCD" fill-rule="nonzero" points="53.739978 18.1189819 47.7605886 21.2317845 47.7605886 22.1470967 53.739978 19.0305884"></polygon>
                                <polygon id="Fill-535" fill="#CDCDCD" fill-rule="nonzero" points="53.739978 16.275758 47.7605886 19.3897959 47.7605886 20.3051081 53.739978 17.189835"></polygon>
                                <polygon id="Fill-537" fill="#CDCDCD" fill-rule="nonzero" points="53.739978 14.4530391 47.7605886 17.5646065 47.7605886 18.481154 53.739978 15.3671161"></polygon>
                                <polygon id="Fill-539" fill="#CDCDCD" fill-rule="nonzero" points="53.739978 12.6206854 47.7605886 15.7359585 47.7605886 16.6488002 53.739978 13.5347624"></polygon>
                                <polygon id="Fill-541" fill="#E7E7E7" points="28.3915059 8.82331321 26.0546905 7.62142552 33.3275202 0 35.5830336 1.21547532"></polygon>
                                <polygon id="Fill-543" fill="url(#linearGradient-49)" fill-rule="nonzero" opacity="0.32" points="28.3571373 8.2804256 26.7594307 7.46022681 33.3251797 0.602179083 34.9204226 1.39396737"></polygon>
                                <polygon id="Fill-545" fill="#E7E7E7" points="32.0316163 10.6882773 29.6960327 9.48515434 36.9368344 1.88472789 39.2256077 3.08043938"></polygon>
                                <polygon id="Fill-547" fill="url(#linearGradient-50)" fill-rule="nonzero" opacity="0.32" points="31.9986027 10.1453897 30.4008961 9.32519087 36.9321533 2.48690697 38.5594243 3.25893143"></polygon>
                                <polygon id="Fill-549" fill="#E7E7E7" points="35.8011938 12.647243 33.4643785 11.4465906 40.6867024 3.84492888 42.948375 5.0949909"></polygon>
                                <polygon id="Fill-551" fill="url(#linearGradient-51)" fill-rule="nonzero" opacity="0.32" points="35.7452679 12.1055907 34.1463294 11.2829214 40.7083829 4.45822512 42.2826844 5.27224772"></polygon>
                                <polygon id="Fill-553" fill="#DEDFE0" points="8.06416871 13.2877145 5.75568586 14.4562508 5.75568586 12.9060256 8.06416871 11.7325484"></polygon>
                                <polygon id="Fill-555" fill="#BEBEBE" points="0 11.4325089 5.75519312 14.4563743 5.75519312 12.9049139 0 9.87857801"></polygon>
                                <polygon id="Fill-557" fill="url(#linearGradient-52)" points="0 9.87882506 5.75519312 12.905161 8.06367597 11.7279781 2.30478731 8.70658311"></polygon>
                            </g>
                        </g>
                    </g>
                </g>
            </g>
        </g>
    </g>
</svg>