<?xml version="1.0" encoding="UTF-8"?>
<svg width="80px" height="80px" viewBox="0 0 80 80" version="1.1" xmlns="http://www.w3.org/2000/svg" xmlns:xlink="http://www.w3.org/1999/xlink">
    <title>icon_负载_充电桩@2x</title>
    <defs>
        <path d="M13.731035,14.6045429 L13.7458575,23.8109104 C13.7464751,24.2397075 14.2028239,24.507287 14.5679854,24.2928884 L21.8508356,20.0231322 C22.2616937,19.7817244 22.5146719,19.3353398 22.5138506,18.8527336 L22.499028,9.64636615 C22.4984105,9.21756898 22.0420616,8.94998949 21.6769002,9.16438808 L14.3942558,13.433935 C13.9831919,13.6753427 13.7302137,14.1217273 13.731035,14.6045429" id="path-1"></path>
        <polygon id="path-2" points="0 0 17.1516888 0 17.1516888 46.761002 0 46.761002"></polygon>
    </defs>
    <g id="光储充及工商储管理系统V1.3" stroke="none" stroke-width="1" fill="none" fill-rule="evenodd">
        <g id="3_2_7.设备监视_示范站站点拓扑_用电设备能量流" transform="translate(-679.000000, -415.000000)">
            <g id="main" transform="translate(212.000000, 102.000000)">
                <g transform="translate(44.000000, 40.000000)" id="充电桩">
                    <g transform="translate(423.000000, 273.000000)" id="icon_负载_充电桩">
                        <rect id="矩形" x="0" y="0" width="80" height="80"></rect>
                        <g id="编组" transform="translate(0.000000, 1.000000)">
                            <path d="M16.5171228,52.9925891 L37.1532717,40.7875726 C37.3978105,40.6428954 37.3969871,40.2834009 37.1520367,40.13998 L22.3407682,31.5085525 C21.8695988,31.2323887 21.289128,31.2336449 20.8191937,31.5116931 L0.182838825,43.7169189 C-0.0614941015,43.8613867 -0.0608765793,44.2208812 0.18427971,44.3645115 L14.9955482,52.9959391 C15.4667176,53.2718935 16.0469826,53.2706373 16.5171228,52.9925891" id="Fill-2" fill="#0C1218" opacity="0.300000012"></path>
                            <g transform="translate(5.442707, 0.000000)">
                                <polygon id="Fill-4" fill="#CACBCC" points="12.4480113 50.1351207 12.4552157 51.290235 30.1155255 40.9365001 30.1085269 39.7815952"></polygon>
                                <polygon id="Fill-6" fill="#CACBCC" points="12.4480113 50.1351207 0 42.7528162 0.00720442495 43.9079305 12.4552157 51.290235"></polygon>
                                <polygon id="Fill-8" fill="#F2F2F2" points="17.6605362 32.3993116 30.1085475 39.7816161 12.4480319 50.1351417 2.05840734e-05 42.7528372"></polygon>
                                <path d="M21.7687258,4.02705035 C22.8792364,3.37485152 23.7818479,3.89828557 23.7855531,5.19744889 L23.8880617,40.0954253 L12.4593737,46.7610439 L12.3568536,11.8630675 C12.3531599,10.5639042 13.2512429,8.98313333 14.3617535,8.3309345 L21.7687258,4.02705035 Z" id="Fill-10" fill="#FEFEFE"></path>
                                <g id="Fill-12">
                                    <use fill="#8DC6DB" xlink:href="#path-1"></use>
                                    <use fill="#CECECE" xlink:href="#path-1"></use>
                                </g>
                                <g transform="translate(6.047136, 0.000000)">
                                    <mask id="mask-3" fill="white">
                                        <use xlink:href="#path-2"></use>
                                    </mask>
                                    <g id="Clip-15"></g>
                                    <path d="M2.00489997,4.58436106 L9.41187218,0.280476903 C9.97052387,-0.0476115614 10.4766862,-0.0781801101 10.8420535,0.137893467 L17.1516888,3.88442504 C16.7863216,3.66835146 16.2801592,3.69892001 15.7215076,4.02700848 L8.31453534,8.33089263 C7.20423053,8.98309146 6.3061475,10.5638623 6.3096468,11.8630256 L6.41236131,46.761002 L0.102725939,43.0144704 L0,8.11649404 C-0.00369370952,6.81733072 0.894389321,5.23655988 2.00489997,4.58436106" id="Fill-14" fill="#DBDBDB" mask="url(#mask-3)"></path>
                                </g>
                                <g transform="translate(16.522925, 26.225906)">
                                    <path d="M3.94762484,0.465210974 C3.94865405,0.465839094 3.36921244,0.135447521 3.36921244,0.135447521 C3.01063792,-0.0766479575 2.51394428,-0.0467075297 1.96579046,0.275309099 C0.876687248,0.914736138 -0.00369348067,2.46556655 0,3.73876754 C0.00165837786,4.37128525 0.221290419,4.81620419 0.575336445,5.02536844 L1.15663062,5.35680688 C1.14448602,5.3494788 1.13254725,5.34131323 1.12060849,5.33356641 C1.4816531,5.56994923 1.99316727,5.55005873 2.5600526,5.21715467 C3.64956749,4.57730889 4.52953654,3.02689723 4.52604765,1.75369624 C4.52418468,1.11929417 4.3033176,0.6737471 3.94762484,0.465210974 L3.94762484,0.465210974 Z" id="Fill-16" fill="#C4BFB3"></path>
                                    <path d="M2.54731106,0.625298044 C3.08764293,0.307887635 3.57733799,0.276690965 3.93261906,0.482505235 C4.28769429,0.688528878 4.50856137,1.13156346 4.51042322,1.76282493 C4.51206066,2.39450514 4.29448703,3.09465053 3.94167605,3.71649018 C3.58865922,4.33812046 3.10040505,4.88102626 2.56007318,5.19843667 C2.01994715,5.51563771 1.53004626,5.54704375 1.17476518,5.34143886 C0.819689955,5.13520584 0.599028711,4.69238063 0.597370237,4.06070042 C0.595529419,3.42943895 0.812897211,2.72908419 1.16570819,2.10724453 C1.51872502,1.48561425 2.00718503,0.94249908 2.54731106,0.625298044" id="Fill-18" fill="#DDDAD3"></path>
                                </g>
                                <g transform="translate(18.136352, 27.679450)">
                                    <path d="M3.71584264,1.04780379 C3.71646016,1.04822254 1.99089746,0.0800789141 1.99089746,0.0800789141 C1.77888153,-0.0453358849 1.48555851,-0.0275391271 1.16156523,0.162572121 C0.518107163,0.540491507 -0.00205231891,1.45671047 0,2.20919927 C0.00103529178,2.58272181 0.130714941,2.84569507 0.340054946,2.96943488 L2.06685269,3.93820663 C2.05944242,3.93380978 2.05244384,3.92899419 2.04544525,3.92438797 C2.25890207,4.06404017 2.56107624,4.05231525 2.89597908,3.85550405 C3.53964299,3.47758466 4.05959663,2.5613657 4.05754431,1.80908628 C4.05650902,1.43430749 3.926006,1.17091548 3.71584264,1.04780379 L3.71584264,1.04780379 Z" id="Fill-20" fill="#C4BFB3"></path>
                                    <path d="M2.88842472,1.14239879 C3.20768367,0.954800028 3.49709571,0.936375149 3.70705324,1.05802122 C3.91680493,1.1796673 4.04730794,1.4415937 4.04834327,1.81448812 C4.04936634,2.18780128 3.9207159,2.60152356 3.7124051,2.96876489 C3.50368261,3.33621559 3.21529978,3.65697598 2.89604083,3.84457474 C2.57678188,4.03196413 2.28736984,4.05038901 2.07741231,3.92895231 C1.86766063,3.80709687 1.73736346,3.54558921 1.7363281,3.17227605 C1.73530505,2.79938163 1.86354381,2.38544998 2.07206046,2.01799927 C2.28078294,1.65075794 2.56937162,1.32978818 2.88842472,1.14239879" id="Fill-22" fill="#DDDAD3"></path>
                                </g>
                                <path d="M14.614423,39.6662303 C14.5843703,39.6662303 14.5549351,39.6503179 14.5388795,39.6216337 C14.515002,39.5793402 14.5294108,39.5253219 14.5711965,39.5010345 L21.6899917,35.3533431 C21.7317774,35.3290557 21.7846784,35.3435025 21.8085559,35.3862147 C21.8324335,35.4285082 21.8180246,35.4825266 21.7764448,35.5068139 L14.6576496,39.6545054 C14.6438582,39.6624616 14.6290377,39.6662303 14.614423,39.6662303" id="Fill-24" fill="#CECECE"></path>
                                <path d="M14.614423,41.2538686 C14.5843703,41.2538686 14.5549351,41.2379562 14.5388795,41.209272 C14.515002,41.1669785 14.5294108,41.1129601 14.5711965,41.0886728 L21.6899917,36.9409814 C21.7317774,36.916694 21.7846784,36.9311408 21.8085559,36.973853 C21.8324335,37.0161465 21.8180246,37.0701649 21.7764448,37.0944522 L14.6576496,41.2421437 C14.6438582,41.2500999 14.6290377,41.2538686 14.614423,41.2538686" id="Fill-26" fill="#CECECE"></path>
                                <path d="M14.614423,42.8413185 C14.5843703,42.8413185 14.5549351,42.8254061 14.5388795,42.7967219 C14.515002,42.7544284 14.5294108,42.7002006 14.5711965,42.6761227 L21.6899917,38.5284312 C21.7317774,38.5041439 21.7846784,38.5185907 21.8085559,38.5613029 C21.8324335,38.6035964 21.8180246,38.6576148 21.7764448,38.6819021 L14.6576496,42.8295935 C14.6438582,42.8375497 14.6290377,42.8413185 14.614423,42.8413185" id="Fill-28" fill="#CECECE"></path>
                                <polygon id="Fill-30" fill="#FEFEFE" points="18.5693436 12.4998145 16.6325883 17.9299194 17.8585756 17.3878511 17.6729073 20.957462 19.6123385 15.4285328 18.4194915 16.0051477"></polygon>
                            </g>
                            <path d="M30.3916719,32.1734184 L30.3916719,45.0576429 L30.4388094,45.0848615 L35.298297,47.9141272 C35.4769667,48.0183953 35.5391306,48.2512188 35.4368278,48.4331644 C35.3382301,48.6082008 35.1000724,48.674991 34.9267545,48.5738635 L29.8321969,45.6078768 C29.7163085,45.5402491 29.6442643,45.4137874 29.6442643,45.277904 L29.6442643,32.3938888 L26.391981,30.5030357 C26.2131054,30.398977 26.1505299,30.1663629 26.2528327,29.9844172 C26.3022345,29.8962709 26.3827182,29.8330401 26.4792575,29.8062402 C26.5119862,29.7972372 26.5451265,29.792631 26.5782669,29.792631 C26.6422833,29.792631 26.7054764,29.8095902 26.7624943,29.8428806 L30.2033277,31.8434456 C30.3196277,31.9108639 30.3916719,32.0373255 30.3916719,32.1734184" id="Fill-32" fill="#5E5E5A"></path>
                            <path d="M59.1808834,77.7905704 L79.8172382,65.585554 C80.0615711,65.4408768 80.0607478,65.0813823 79.8157973,64.9379613 L44.8749538,44.8209251 C44.4037844,44.5449707 43.8233136,44.5462269 43.3533793,44.8242751 L22.7170244,57.0292916 C22.4726915,57.1739687 22.4735149,57.5334632 22.7184653,57.6770935 L57.6593088,77.7939204 C58.1304782,78.0698749 58.7107432,78.0686186 59.1808834,77.7905704" id="Fill-34" fill="#0C1218" opacity="0.300000012"></path>
                            <polygon id="Fill-36" fill="#CECBC4" points="57.9765917 65.4442268 50.7268818 69.7018393 46.1996211 67.04426 54.0921716 62.2730539"></polygon>
                            <polygon id="Fill-38" fill="#CECBC4" points="37.2104955 53.2558555 29.9607856 57.5134681 29.1378344 55.1927708 33.3260754 50.0846826"></polygon>
                            <path d="M54.9542325,64.6292609 C55.5804,64.2590883 56.4478127,64.3112224 57.404972,64.8733905 C59.1227128,65.8821526 60.542602,68.1881937 60.797227,70.2630863 C60.8246038,70.4858598 60.838601,70.7061209 60.838003,70.9215663 C60.8348958,72.0264309 60.4516204,72.8034164 59.8332749,73.1687734 L56.8913995,74.9293962 C57.509745,74.5638298 57.8930204,73.7868443 57.896108,72.6821891 C57.8967255,72.4667436 57.8827283,72.2464826 57.8553515,72.0237091 C57.6007265,69.9488165 56.1806315,67.642566 54.4630966,66.6338039 C53.5059372,66.0718451 52.6385245,66.0197111 52.012357,66.3898837 L54.9542325,64.6292609 Z" id="Fill-40" fill="#353534"></path>
                            <path d="M33.0760201,53.2080764 C33.7021875,52.8379039 34.5696003,52.8900379 35.5267596,53.4522061 C37.2445003,54.4609682 38.6643896,56.7672186 38.9190145,58.8421112 C38.9463914,59.0646753 38.9603885,59.2849364 38.9597906,59.5003819 C38.9566834,60.6052464 38.573408,61.382232 37.9550625,61.7475889 L36.1442817,62.8300505 C36.7624214,62.4644842 37.1456968,61.6874987 37.1487844,60.5828435 C37.1494019,60.367398 37.1354048,60.147137 37.1082338,59.9243634 C36.8536088,57.8494708 35.4335138,55.5432204 33.715773,54.5344583 C32.7586137,53.9724995 31.8914068,53.9203655 31.2650335,54.290538 L33.0760201,53.2080764 Z" id="Fill-42" fill="#353534"></path>
                            <path d="M50.6339035,33.2394233 L62.1204328,40.0922219 C62.859401,40.5249971 63.4975072,41.1152214 63.9913191,41.8224855 L68.553161,47.3290117 C74.1429714,50.4564255 75.2059328,54.7919251 75.2059328,54.7919251 C76.6437302,56.0929727 77.2416974,58.0922814 77.474915,59.9760159 C77.6517321,61.4033159 77.644116,62.8655812 77.4794435,64.2941375 C77.4172796,64.8345308 77.2186433,65.2287813 76.7380052,65.5066201 L61.5337868,74.2992653 C60.6054452,74.8358899 59.467146,74.8323306 58.5423037,74.2894248 L58.1703496,74.0710481 C58.2652421,73.7362596 58.3177315,73.3556184 58.3189665,72.9303806 C58.3195841,72.688554 58.3039402,72.4412838 58.2732699,72.1912917 C57.9873572,69.8615914 56.392915,67.2722678 54.4643934,66.1395566 C52.5358717,65.0070546 50.9321667,65.7182968 50.6343152,67.7052525 C50.6024099,67.9183948 50.5853251,68.1466121 50.5847076,68.3884386 C50.5834726,68.8143046 50.6339035,69.2558735 50.7269435,69.7018393 L37.4423956,61.9047657 C37.5255553,61.5865178 37.5706344,61.2278608 37.5716636,60.8310978 C37.5724869,60.5892712 37.5566372,60.342001 37.5259669,60.0917995 C37.2400542,57.7623086 35.6458179,55.1727757 33.7170904,54.0402738 C31.7885687,52.9077718 30.1850696,53.619014 29.8872181,55.6059697 C29.8551069,55.819112 29.838228,56.0473293 29.8374046,56.2891558 C29.8363754,56.6865469 29.879602,57.0977567 29.9609091,57.513154 L29.7198696,57.3718268 C29.3950529,57.1810874 29.1696574,56.8515334 29.1085227,56.475289 C27.9381124,49.2887488 30.019162,49.0640909 30.019162,49.0640909 L31.5374431,45.6079605 C32.354219,40.3470296 34.1020125,39.6075219 34.1020125,39.6075219 L45.8038512,32.9228503 L50.6339035,33.2394233 Z" id="Fill-44" fill="#EFEDE8"></path>
                            <path d="M50.0433259,32.8870893 L62.1204123,40.0922637 C62.8593804,40.525039 63.4974866,41.1152633 63.9912985,41.8225273 L68.5531404,47.3290536 C69.6012813,47.9155091 70.4901015,48.5442581 71.242861,49.1790789 C71.7444948,49.602223 72.1858173,50.0280889 72.5732095,50.4457893 C73.4447391,51.3854581 74.0437355,52.2834616 74.4473892,53.0168974 C74.4922625,53.0983437 74.5346656,53.1779057 74.5748046,53.2551645 C75.0564719,54.1822709 75.2059122,54.7917576 75.2059122,54.7917576 C75.206118,54.7921763 76.2182368,56.9432809 74.4056035,58.5307517 C73.1287736,59.6490162 66.3485863,63.5037939 62.4497574,65.6860952 C60.7357218,66.6454451 58.6554955,66.6307889 56.9540162,65.649036 L54.1702264,64.042931 C52.0895885,62.8423827 49.5091693,64.3710195 49.5091693,66.8041503 L49.5091693,68.9868703 L37.442375,61.9048076 C37.5255347,61.5865597 37.5706138,61.2279027 37.571643,60.8311396 C37.5724664,60.5893131 37.5566166,60.3418335 37.5259464,60.0918414 C37.2400336,57.7621411 35.6457973,55.1728175 33.7170698,54.0403156 C31.7885482,52.9078137 30.185049,53.6190559 29.8871975,55.6060116 C29.8550863,55.8191539 29.8382074,56.0471618 29.837384,56.2891977 C29.8363548,56.6865888 29.8795814,57.0977986 29.9608885,57.5131959 L29.719849,57.3716593 C29.4547262,57.2160947 29.2579424,56.9675682 29.1603739,56.677167 C29.138349,56.6116331 29.1196175,56.5446335 29.1085021,56.4751215 C29.0113453,55.8790348 28.9384777,55.3350821 28.8831065,54.8309104 C28.7114353,53.2683551 28.7239916,52.126222 28.8330872,51.2956368 C28.8367923,51.2675808 28.8407033,51.2401528 28.8446143,51.2129342 C29.1369081,49.1612821 30.0191414,49.0641328 30.0191414,49.0641328 L31.5374225,45.6080024 C32.3541984,40.3470714 34.1019919,39.6073544 34.1019919,39.6073544 L40.533485,35.9146319 L45.8396469,32.867827 L50.0433259,32.8870893 Z" id="Fill-46" fill="#FEFEFE"></path>
                            <path d="M28.7512861,52.6879923 C28.7512861,52.6840142 28.7512861,52.6806643 28.7512861,52.6766862 C28.7512861,52.140271 28.7819564,51.684674 28.8332107,51.2954484 C28.861205,51.0816779 28.8951688,50.8867511 28.9342785,50.7119241 C29.0452266,50.2165461 29.1942553,49.8698234 29.3463716,49.6271594 C29.3970084,49.5461318 29.4478511,49.4768291 29.4980762,49.417367 C29.5480955,49.3581143 29.5970856,49.3084927 29.6440173,49.2674555 C29.6746875,49.2402369 29.7039169,49.217834 29.7323229,49.1975247 C29.7687568,49.171353 29.8035438,49.1491594 29.8348316,49.1322001 C29.8904086,49.1022597 29.9365169,49.0850911 29.9686281,49.0756693 C29.9900355,49.0693881 30.0054736,49.0662475 30.0132955,49.0649912 C30.0172065,49.0643631 30.0192649,49.0641537 30.0192649,49.0641537 L31.5373402,45.607814 C32.3541161,40.3470924 34.1019096,39.6073754 34.1019096,39.6073754 L34.2007131,39.5506351 L48.9862515,48.237756 C49.3458553,48.4488046 49.660174,48.7289465 49.914799,49.0626881 C50.7354859,50.1384498 52.8323853,52.7374045 54.9735404,58.5163258 C54.9735404,58.5163258 56.8872415,61.3451728 59.2321789,66.3703491 C58.4429856,66.2985339 57.6653194,66.0596386 56.9539339,65.649057 L54.1701441,64.0427426 C52.0895061,62.8424036 49.509087,64.3710404 49.509087,66.8041712 L49.509087,68.9868912 L37.4422927,61.9048285 C37.5254523,61.5865806 37.5705315,61.2279236 37.5717665,60.8311606 C37.572384,60.5893341 37.5567401,60.3418544 37.5260699,60.0918623 C37.2401571,57.762162 35.6457149,55.1728385 33.7171933,54.0403366 C31.7886717,52.9076253 30.1849667,53.6190768 29.8871152,55.6060325 C29.8552099,55.8191748 29.8381251,56.0471827 29.8375076,56.2892186 C29.8362725,56.6866098 29.8794991,57.0978196 29.9608061,57.5132168 L29.7197667,57.3716802 C29.6386654,57.3241524 29.5635336,57.2678309 29.495812,57.2041813 C29.2926472,57.013442 29.1543222,56.7575874 29.1084197,56.4751424 C28.8523539,54.9031653 28.7519036,53.6643015 28.7512861,52.6879923" id="Fill-48" fill="#EFEDE8"></path>
                            <path d="M64.5859106,45.5584018 L68.601657,43.2000173 C68.9542622,42.9929468 69.400319,43.2100673 69.4645413,43.618974 C69.5310278,44.0427462 69.4668055,44.6038675 68.9719645,45.1930448 C67.9442018,46.4164149 66.1863221,46.8161091 66.1863221,46.8161091 L64.5859106,45.5584018 Z" id="Fill-50" fill="#FEFEFE"></path>
                            <path d="M54.4438916,73.5064512 C55.7892665,74.2966272 56.8833099,73.6624345 56.8876454,72.0898292 C56.8919552,70.5180615 55.8051163,68.6033397 54.4597414,67.813373 C53.114984,67.0236157 52.0211464,67.6575991 52.0166051,69.2293668 C52.0122953,70.8019721 53.0991342,72.7166939 54.4438916,73.5064512 M57.8552898,72.0236672 C57.8826666,72.2464407 57.8966637,72.4667018 57.8960658,72.6821472 C57.889871,74.9061138 56.3425664,75.8022329 54.4405982,74.6852246 C52.53863,73.5682164 51.0014115,70.8608061 51.0075682,68.6368395 C51.0082043,68.421394 51.0234365,68.2183016 51.0518425,68.0283997 C51.3171712,66.2585645 52.7452941,65.6252093 54.4630348,66.6339714 C56.1807756,67.6425242 57.6008706,69.9487746 57.8552898,72.0236672" id="Fill-52" fill="#5E5E5A"></path>
                            <path d="M54.4597619,67.8132893 C55.8051368,68.6034653 56.8919758,70.5181871 56.887666,72.0899549 C56.8833305,73.6625601 55.7892871,74.2965435 54.4439122,73.5063674 C53.0991548,72.7166101 52.0123159,70.8020977 52.0166257,69.2294925 C52.0209612,67.6575153 53.1150046,67.023532 54.4597619,67.8132893" id="Fill-54" fill="#C4BFB3"></path>
                            <path d="M54.4581976,68.3990957 C55.5267167,69.0265885 56.3900126,70.5472691 56.386524,71.795764 C56.3830141,73.0446776 55.5141604,73.5482212 54.4456413,72.9207285 C53.3775338,72.2934451 52.5144437,70.7727645 52.5177278,69.5238508 C52.5212364,68.2753559 53.3900901,67.7718124 54.4581976,68.3990957" id="Fill-56" fill="#898984"></path>
                            <path d="M54.3030554,69.9645823 C54.7246172,70.2120619 55.0654894,70.8121267 55.0642577,71.3049922 C55.0628135,71.7982765 54.719677,71.9965533 54.2981152,71.7490737 C53.8765535,71.5013847 53.5356812,70.9013199 53.5369129,70.4080356 C53.5383572,69.9153795 53.8814936,69.7171027 54.3030554,69.9645823" id="Fill-58" fill="#353534"></path>
                            <path d="M33.6966504,61.4071265 C35.0420253,62.1973025 36.1360687,61.5631098 36.1404042,59.9905046 C36.144714,58.4187368 35.0580809,56.504015 33.7125001,55.7140484 C32.3677428,54.9242911 31.2739052,55.5582744 31.2693639,57.1300422 C31.2650541,58.7026474 32.351893,60.6173692 33.6966504,61.4071265 M37.1080485,59.9243425 C37.1354254,60.147116 37.1494225,60.3673771 37.1488246,60.5828225 C37.1426298,62.8067891 35.595531,63.7026989 33.693357,62.5859 C31.7913888,61.4688917 30.2541703,58.761272 30.260327,56.5375148 C30.2609631,56.3220693 30.2761953,56.1189769 30.3046013,55.9288657 C30.56993,54.1592398 31.9980528,53.5258846 33.7157936,54.5344374 C35.4335343,55.5431995 36.8536294,57.8494499 37.1080485,59.9243425" id="Fill-60" fill="#5E5E5A"></path>
                            <path d="M33.7125207,55.7139646 C35.0578956,56.5041406 36.1447346,58.4188624 36.1404248,59.9906302 C36.1360893,61.5632355 35.0420459,62.1972188 33.696671,61.4070427 C32.3519136,60.6172854 31.2650746,58.702773 31.2693845,57.1301678 C31.2739258,55.5581906 32.3677633,54.9242073 33.7125207,55.7139646" id="Fill-62" fill="#C4BFB3"></path>
                            <path d="M33.7109563,56.2997501 C34.7794755,56.9272429 35.6427714,58.4479235 35.6392827,59.6964184 C35.6357728,60.945332 34.7669192,61.4488756 33.6984,60.8213828 C32.6302926,60.1940995 31.7672025,58.6734189 31.7706912,57.4245052 C31.7739952,56.1760103 32.6428489,55.6724668 33.7109563,56.2997501" id="Fill-64" fill="#898984"></path>
                            <path d="M33.5558348,57.8652367 C33.9773966,58.1127163 34.3182688,58.7127811 34.3170371,59.2056466 C34.3155928,59.6989309 33.9724564,59.8972077 33.5508946,59.6497281 C33.1293328,59.4020391 32.7882548,58.8019743 32.7896911,58.30869 C32.7911365,57.8160339 33.134273,57.6177571 33.5558348,57.8652367" id="Fill-66" fill="#353534"></path>
                            <path d="M63.9912162,41.8224645 L68.553058,47.3289908 C69.0785694,47.6229513 69.5637359,47.92759 70.012057,48.2383004 C70.9718922,50.0483354 70.1538813,51.709715 68.218361,52.7408801 L60.7531359,57.1092514 C59.6949088,57.7285785 58.5387015,58.155282 57.3361801,58.370518 L57.3361801,58.370518 C56.5513094,58.5110077 55.7590285,58.5576981 54.9735404,58.5162421 C52.8323853,52.7373208 50.7354859,50.138366 49.914799,49.0626043 C49.8719841,49.0064922 49.8252583,48.9543582 49.77915,48.9013867 L63.2732437,40.9768045 C63.5367199,41.2353809 63.778171,41.5171978 63.9912162,41.8224645" id="Fill-68" fill="#EFEDE8"></path>
                            <path d="M48.9861898,48.2376932 L34.1961229,39.5532942 L46.0529596,32.7153611 C47.76082,31.9603598 49.1675355,32.3703134 49.7790882,32.7293891 L62.120474,40.0922219 C62.5403891,40.3382359 62.9263404,40.6365933 63.273182,40.9768254 L49.7790882,48.9014076 C49.5508109,48.6390625 49.2854822,48.4133577 48.9861898,48.2376932" id="Fill-70" fill="#FEFEFE"></path>
                            <path d="M69.5559757,49.0912676 C69.5985848,49.696148 69.3521934,50.2947472 68.9835327,50.7714909 C68.614872,51.2480253 68.136704,51.6223853 67.6433038,51.9626174 L60.299113,56.260011 C59.2579707,56.8692882 58.1204949,57.2890824 56.9377342,57.5007591 C56.8088779,57.5237902 56.6798158,57.5443088 56.5505478,57.5623149 C55.96102,57.6445988 55.3912529,57.3010166 55.1635931,56.7417797 C53.6601325,53.0446603 52.1262075,51.3726026 51.3232229,50.1220139 C51.0397803,49.680445 51.1797519,49.0885457 51.6286905,48.824735 L63.8589223,41.6423823 C63.9037956,41.7018444 63.948463,41.7613065 63.9912779,41.8224436 L68.5531198,47.3291792 C68.5531198,47.3291792 69.4829023,48.0529838 69.5559757,49.0912676" id="Fill-72" fill="#5E5E5A"></path>
                            <polygon id="Fill-74" fill="#CECBC4" points="72.5727361 66.5297034 66.6809573 69.9368403 66.6809573 68.978956 72.5727361 65.571819"></polygon>
                            <path d="M62.802589,71.221829 L66.2524793,69.2267078 L66.2524793,70.1845921 L63.207066,71.9456336 C63.1432553,71.9826928 63.0736812,72.0002801 63.0053421,72.0002801 C62.8629003,72.0002801 62.7243695,71.9244869 62.6490318,71.7896503 C62.5372603,71.5896985 62.6060111,71.3355189 62.802589,71.221829" id="Fill-76" fill="#CECBC4"></path>
                            <path d="M73.0012347,65.3241301 L75.7656754,63.7255625 C75.9620475,63.6118726 76.2121439,63.6818034 76.3237096,63.8815458 C76.4354811,64.0814976 76.3667303,64.3356772 76.1701524,64.4493671 L73.0012347,66.2820144 L73.0012347,65.3241301 Z" id="Fill-78" fill="#CECBC4"></path>
                            <path d="M58.4211459,60.6679957 C58.7366997,60.7031705 59.0510185,60.7513264 59.3626613,60.813301 C60.8638576,61.1114491 62.3263559,61.7462699 63.4467469,62.8052816 C63.5959814,62.9463995 63.7406874,63.0967297 63.8415494,63.2770004 C63.9424113,63.4570617 63.9965474,63.6712509 63.9543501,63.874134 C63.9068009,64.1025606 63.7400699,64.2930906 63.5393752,64.4067805 C63.3388864,64.5204703 63.1069039,64.5646482 62.8775973,64.5788856 C62.0202707,64.6314384 61.1847633,64.2836688 60.4486769,63.8337249 C59.5186886,63.2656942 58.6325443,62.6415515 57.8258545,61.8377661 C57.5755522,61.5884022 57.0117545,60.9784968 57.5815216,60.6945862 C57.7439299,60.613768 57.9341268,60.6229804 58.1142374,60.6380553 C58.2167461,60.6466396 58.3190489,60.6566895 58.4211459,60.6679957" id="Fill-80" fill="#E0DDD7"></path>
                            <path d="M59.2828363,62.5132892 C59.4061349,62.6234197 59.6642591,62.8461933 59.8227565,62.9663737 C60.2906324,63.3208432 60.7714763,63.6349037 61.2893715,63.8834302 C61.7434562,64.1011787 62.2500301,64.2479496 62.7461063,64.1698533 C63.1264999,64.1099724 63.4784875,63.849721 63.3562181,63.4152708 C63.3000236,63.2155283 63.1608753,63.0503325 63.0091707,62.9108897 C62.223065,62.188132 61.2768153,61.7526348 60.2620205,61.5271394 C59.8256382,61.6925446 59.4606826,62.0756983 59.2828363,62.5132892" id="Fill-82" fill="#FEFEFE"></path>
                            <path d="M72.7366058,54.0695442 C72.7112874,53.6813655 72.6828814,52.7929932 72.7983581,52.4219832 C72.8298517,52.3206463 72.89922,52.2036065 73.0031696,52.2155408 C73.0713028,52.2232876 73.1190579,52.2852622 73.1577559,52.3428399 C74.1807843,53.864358 74.45517,55.8439856 74.0449294,57.639155 C73.9475668,58.0643929 73.5980492,58.8721563 73.0095506,58.6188142 C72.6075437,58.4458716 72.5902531,57.7310701 72.6178358,57.3933504 C72.7320774,55.9985034 72.8220297,55.3800137 72.7366058,54.0695442" id="Fill-84" fill="#E0DDD7"></path>
                            <path d="M73.6372207,54.2982639 C73.9782988,55.1003743 74.0083515,56.4979432 73.7883078,57.4606431 C73.729849,57.716707 73.519274,58.2028726 73.1650221,58.0504486 C72.9229534,57.9461805 72.8856963,57.5349707 72.918425,57.212326 C73.0979181,55.450447 72.9960269,54.5356936 72.9960269,54.5356936 L73.6372207,54.2982639 Z" id="Fill-86" fill="#FEFEFE"></path>
                            <path d="M30.019162,49.0641537 L31.0158427,46.7953812 L32.8675858,47.9092488 C33.1660548,48.0844945 33.3307274,48.4257735 33.2848249,48.7731244 L33.1506167,49.7877489 C33.0956573,50.2029368 32.6535114,50.4380634 32.2869091,50.247324 L30.0179269,49.0643631 C30.0181328,49.0643631 30.019162,49.0641537 30.019162,49.0641537" id="Fill-88" fill="#F2CF3D"></path>
                            <path d="M49.5091487,68.9869331 L49.5091487,66.8042131 C49.5091487,64.3710823 52.0895679,62.8422361 54.1702058,64.0427844 L56.9539956,65.6490989 C57.6653811,66.0594711 58.4430473,66.2985758 59.2322406,66.370391 L59.5163008,66.9015719 C59.9234537,67.6634825 60.1148856,68.5254737 60.0685714,69.391443 L59.7865697,74.6865018 C59.3551275,74.6483958 58.9298606,74.5169092 58.5422626,74.2893201 L58.1705142,74.0711528 C58.2654068,73.736155 58.3176903,73.3555137 58.3189254,72.9304853 C58.3195429,72.6886587 58.303899,72.4411791 58.2732287,72.191187 C57.987316,69.8614867 56.3930797,67.2721632 54.4643522,66.1396612 C52.5358306,65.00695 50.9323314,65.7184015 50.6344799,67.7051478 C50.6023687,67.9184995 50.5854898,68.1465074 50.5846664,68.3885433 C50.5836372,68.8141999 50.6338624,69.2559782 50.7269024,69.7017347 L44.8727925,66.2652854 L49.5091487,68.9869331 Z" id="Fill-90" fill="#E0DDD7"></path>
                            <polygon id="Fill-92" fill="#CECBC4" points="41.4627941 64.2644692 41.1068955 64.0555143 41.022295 43.5586744 41.3781935 43.7678386"></polygon>
                            <path d="M31.3642899,46.0019808 L31.5374019,45.6079396 C32.3541779,40.3470086 34.1019714,39.6072916 34.1019714,39.6072916 L34.1960406,39.5532732 L48.9861075,48.2376723 C49.3457112,48.4489303 49.6602358,48.7288628 49.9148608,49.0626043 C50.7355477,50.138366 52.832447,52.7373208 54.9736021,58.5164515 C53.3274939,58.4295614 51.7128794,57.9505146 50.266025,57.1008764 L31.3642899,46.0019808 Z" id="Fill-94" fill="#E0DDD7"></path>
                            <path d="M42.2954403,45.2008126 L46.5450219,47.7455396 C47.5620808,48.3548168 48.3697998,49.2685233 48.8572306,50.3620817 L51.9191112,56.3826202 C52.075756,56.7341585 51.7287085,57.095328 51.3773384,56.9498133 C50.8971121,56.750699 50.426766,56.5128506 49.9823559,56.2517617 L41.5756154,51.3149411 C41.8798479,47.7388396 42.1385897,46.1310596 42.2954403,45.2008126" id="Fill-96" fill="#5E5E5A"></path>
                            <path d="M34.0960431,44.6769598 L35.1981143,42.1362109 C35.3844002,41.634133 35.9704287,41.4239218 36.4251308,41.6963169 L41.8041603,44.9066427 C41.668923,45.6796501 41.3906263,47.2880582 41.0660155,51.0157462 L34.4122145,47.1094625 C34.1036592,46.8923421 33.933429,46.6574249 33.8976127,46.3295458 C33.8370955,45.7730307 33.9046113,45.1932751 34.0960431,44.6769598" id="Fill-98" fill="#5E5E5A"></path>
                            <path d="M51.9190494,56.3826202 C52.0756942,56.7341585 51.7286468,57.095328 51.3772767,56.9498133 C50.8970503,56.750699 50.4269101,56.5128506 49.9822942,56.2519711 L49.0465423,55.7023653 C49.2402384,53.5952292 49.358391,52.7338661 49.5000094,51.8036191 L51.9190494,56.3826202 Z" id="Fill-100" fill="#353534"></path>
                            <path d="M49.7700106,55.3914664 C49.7700106,54.9002759 50.0501599,54.5020473 50.3955606,54.5020473 C50.7409613,54.5020473 51.0211105,54.9002759 51.0211105,55.3914664 C51.0211105,55.8826569 50.7409613,56.2808856 50.3955606,56.2808856 C50.0501599,56.2808856 49.7700106,55.8826569 49.7700106,55.3914664" id="Fill-102" fill="#E0DDD7"></path>
                            <path d="M50.4032796,56.1951052 L47.7800456,57.7356763 C47.5427112,57.8751191 47.2388903,57.7739917 47.128148,57.5189746 C47.0060845,57.2377858 46.9943516,56.9168161 47.1096224,56.6324867 C47.2226289,56.3529729 47.4529647,56.0049939 47.9109602,55.6390088 C48.5008997,55.1679182 48.9576603,54.7933488 49.3648132,54.5247224 C49.6727509,54.32163 50.0803155,54.3762765 50.3347346,54.645531 L50.3888707,54.70269 L50.4032796,56.1951052 Z" id="Fill-104" fill="#FEFEFE"></path>
                            <path d="M71.504608,64.0861038 L67.7924766,66.2328116 C67.2651127,66.5376596 66.6249481,66.5632031 66.0757651,66.3010674 L65.26043,65.9120512 L72.5727155,61.6835415 L72.4308912,62.700888 C72.34979,63.2835747 72.0076827,63.7952839 71.504608,64.0861038" id="Fill-106" fill="#CECBC4"></path>
                        </g>
                    </g>
                </g>
            </g>
        </g>
    </g>
</svg>