<?xml version="1.0" encoding="UTF-8"?>
<svg width="26px" height="80px" viewBox="0 0 26 80" version="1.1" xmlns="http://www.w3.org/2000/svg" xmlns:xlink="http://www.w3.org/1999/xlink">
    <title>iocn_交流充电桩</title>
    <defs>
        <linearGradient x1="49.0258745%" y1="12.9250487%" x2="36.2830622%" y2="100%" id="linearGradient-1">
            <stop stop-color="#E5E5E5" offset="0%"></stop>
            <stop stop-color="#F1F1F1" offset="28.653878%"></stop>
            <stop stop-color="#DFDFDF" offset="54.1937158%"></stop>
            <stop stop-color="#D3D3D3" offset="100%"></stop>
        </linearGradient>
        <path d="M1.94611753,0.243909261 C1.72538141,0.416080504 1.52825892,0.613360053 1.35834344,0.83011135 L1.35834344,0.83011135 C1.02313254,1.25592773 0.791616285,1.75706903 0.686894962,2.2966414 L0.686894962,2.2966414 C0.686894962,2.2966414 0.173041806,4.69935259 0.0339267157,5.59454057 L0.0339267157,5.59454057 C0.0149331425,5.71700762 0.00312632672,5.81129187 0.000559627639,5.86765745 L0.000559627639,5.86765745 C-0.000467051994,5.88456713 4.62878224e-05,5.89737749 0.00107296746,5.90352646 L0.00107296746,5.90352646 C0.0426534926,6.0721108 0.352197402,6.2745145 0.593467116,6.33805389 L0.593467116,6.33805389 C0.66584803,6.35701322 0.731042187,6.36367461 0.781349489,6.35342632 L0.781349489,6.35342632 C0.793669644,6.35086425 0.80547646,6.34625252 0.817796616,6.34112837 L0.817796616,6.34112837 L1.26696896,6.18894129 C1.42045756,6.13769985 1.54057908,6.01728246 1.5924264,5.86355814 L1.5924264,5.86355814 L2.4820443,3.64531614 C2.60986592,3.26664189 2.80852842,2.91768767 3.06725169,2.61792524 L3.06725169,2.61792524 L3.06776503,2.61792524 C3.16940632,2.49955751 3.28028772,2.388876 3.40092257,2.28741794 L3.40092257,2.28741794 C3.44455646,2.17981092 3.46868343,2.04914524 3.46868343,1.8984954 L3.46868343,1.8984954 C3.46868343,1.69762895 3.42607622,1.48497697 3.35112861,1.27437465 L3.35112861,1.27437465 C3.24435393,0.977686702 3.07289843,0.687147729 2.8624291,0.452461927 L2.8624291,0.452461927 C2.73050077,0.304374162 2.58317224,0.177295387 2.42711694,0.0845483783 L2.42711694,0.0845483783 C2.4214702,0.0814738918 2.41531012,0.0778869909 2.40915005,0.07430009 L2.40915005,0.07430009 C2.35832941,0.0450924684 2.3080221,0.0199841621 2.25925482,0 L2.25925482,0 L1.94611753,0.243909261 Z" id="path-2"></path>
    </defs>
    <g id="光储充及工商储管理系统V1.3" stroke="none" stroke-width="1" fill="none" fill-rule="evenodd">
        <g id="3_2_7.设备监视_示范站站点拓扑_用电设备能量流" transform="translate(-1344.000000, -814.000000)">
            <g id="main" transform="translate(212.000000, 102.000000)">
                <g transform="translate(44.000000, 40.000000)" id="3">
                    <g transform="translate(0.000000, 591.000000)">
                        <g id="编组-1" transform="translate(804.000000, 81.000000)">
                            <g id="7kW交流充电桩" transform="translate(248.000000, 0.000000)">
                                <g id="iocn_交流充电桩" transform="translate(49.500000, 40.000000) scale(-1, 1) translate(-49.500000, -40.000000) translate(37.000000, 0.000000)">
                                    <g id="底座" transform="translate(0.000000, 67.339895)">
                                        <polygon id="矩形备份-269" fill="#E6E7E8" transform="translate(9.998282, 5.830312) scale(-1, 1) translate(-9.998282, -5.830312) " points="0 8.32901671 14.28326 0 19.9965639 3.33160668 5.71330398 11.6606234"></polygon>
                                        <polygon id="矩形备份-274" fill="#A7A9AC" points="-2.05924327e-13 3.33160668 14.28326 11.6606234 14.28326 12.6601054 -2.05924327e-13 4.33108869"></polygon>
                                        <polygon id="矩形备份-273" fill="#BCBEC0" points="14.28326 11.6606234 19.9965639 8.32901671 19.9965639 9.32849871 14.28326 12.6601054"></polygon>
                                    </g>
                                    <polygon id="矩形备份-276" fill="#DEDEDE" points="6.47269039 23.7632086 12.1859944 27.0948153 12.1859944 75.4031122 6.47269039 72.0715055"></polygon>
                                    <polygon id="矩形备份-275" fill="#BCBEC0" points="12.1454422 27.0574715 13.8594334 26.0579895 13.8594334 74.3662864 12.1454422 75.3657684"></polygon>
                                    <polygon id="矩形备份-271" fill="#BCBEC0" points="14.7565656 9.86375519 20.4698695 6.53214851 20.4230288 24.4367365 14.7097248 27.7683432"></polygon>
                                    <polygon id="矩形备份-270" fill="#D2D6D9" transform="translate(11.827481, 4.931878) scale(-1, 1) translate(-11.827481, -4.931878) " points="3.18509205 6.53214851 14.7565656 -1.33601376e-13 20.4698695 3.33160668 8.89839604 9.86375519"></polygon>
                                    <path d="M4.00310949,7.0997905 L14.3839794,1.13237038 C14.6365066,0.987205648 14.9473841,0.98816997 15.1990059,1.13489854 L15.9348853,1.5640129 L15.9348853,1.5640129 L16.3256912,10.6298484 L15.1830304,22.5135568 L4.75620857,28.4533016 L3.78232232,28.1255996 C3.45195516,28.0144347 3.2291578,27.7051083 3.22839496,27.3565405 L3.187157,8.51356707 C3.18588001,7.93007007 3.49723778,7.39058974 4.00310949,7.0997905 Z" id="矩形备份-277" fill="url(#linearGradient-1)" transform="translate(9.755392, 14.675497) scale(-1, 1) translate(-9.755392, -14.675497) "></path>
                                    <g id="按钮" transform="translate(17.371639, 15.505399)" fill-rule="nonzero">
                                        <path d="M0.73077144,0.0984197673 C0.327384789,0.328301094 0,0.888011259 0,1.34777227 C0,1.80753656 0.327384789,1.99410443 0.73077144,1.76422311 C1.13415665,1.5343426 1.46154288,0.974631617 1.46154288,0.514870603 C1.46154288,0.0551095881 1.13415665,-0.13146074 0.73077144,0.0984197673 Z M0.73077144,1.5993091 C0.406308639,1.78421343 0.143230575,1.63595693 0.143230575,1.26614827 C0.143230575,0.896339604 0.406310076,0.446572931 0.73077144,0.261669419 C1.05523424,0.0767650872 1.31831087,0.226686765 1.31831087,0.596495428 C1.31692609,0.947629634 1.08205201,1.36753622 0.781451361,1.5679828 L0.73077144,1.5993091 Z" id="形状" fill="#3F3F3F"></path>
                                        <path d="M0.272090999,1.19465533 C0.272090999,1.48982259 0.482029513,1.60946201 0.741003427,1.46187838 C0.984742003,1.32297704 1.18504586,0.996871863 1.20776764,0.712904312 L1.20991418,0.660210188 C1.20991418,0.365044837 0.999975664,0.245405419 0.741003427,0.392988094 C0.48203119,0.54057077 0.272090999,0.89948998 0.272090999,1.19465533 Z" id="路径" fill="#DA4648"></path>
                                    </g>
                                    <g id="充电枪左边" transform="translate(9.932670, 19.466667)">
                                        <path d="M9.94994783,6.61914694 C11.5976377,14.2885306 11.9822986,19.0034826 11.9822986,28.2498919 C11.9822986,37.4963013 10.0638943,47.4076283 7.20724228,49.5803465 C4.35059029,51.7530647 7.8053293,53.4384406 11.5976377,53.4384406 C15.3899461,53.4384406 15.3899461,52.1214413 14.7469422,51.2048346 C14.1039383,50.2882279 12.1314577,49.5803465 9.45451517,47.8732279 C6.77757266,46.1661094 -1.8573362,32.4357631 0.360358317,5.85237174" id="充电线" stroke="#6C727C" stroke-width="1.33292174"></path>
                                        <g id="充电枪头" transform="translate(8.928571, 3.636364) scale(-1, 1) translate(-8.928571, -3.636364) translate(7.142857, 0.000000)">
                                            <path d="M1.24753922,0.226230591 L1.24753922,3.41139859 C1.24753922,3.62763747 1.42310144,3.90382884 1.63973084,4.02885796 L1.88562061,4.17028433 L2.77677854,4.68372358 L3.17923695,4.91635972 C3.39586635,5.04087642 3.57142857,4.96708875 3.57142857,4.75084987 L3.57142857,1.56516945 C3.57142857,1.55594599 3.57142857,1.54569771 3.57040189,1.53596183 C3.55551504,1.32484709 3.3861129,1.06710264 3.17923695,0.947710086 L1.63973084,0.0607207353 C1.42310144,-0.0643083817 1.24753922,0.00999170832 1.24753922,0.226230591" id="Fill-209" fill="#86878D"></path>
                                            <path d="M1.35036119,1.59196873 C1.35036119,1.64218534 1.35344123,1.69342678 1.35806128,1.74466822 C1.36114132,1.77490067 1.36524804,1.80513312 1.3698681,1.83536557 C1.37859488,1.89275599 1.39040169,1.95065882 1.40477521,2.00856165 C1.4858829,2.33138273 1.65117832,2.65881554 1.86575436,2.92988276 C1.90682155,2.98214903 1.94994209,3.03134082 1.99408932,3.07899536 C2.10753742,3.20043757 2.23176565,3.30548253 2.36164063,3.38695642 C2.37755416,3.39669229 2.39346769,3.40642817 2.40938123,3.41565163 C2.65835104,3.55861525 2.88678726,3.5924346 3.06748287,3.53248211 L3.06748287,3.53248211 C3.21635142,3.4822655 3.33236622,3.36953433 3.40064041,3.20197482 L3.40115375,3.20197482 C3.44478764,3.09385538 3.46891461,2.96370211 3.46891461,2.81253986 C3.46891461,2.61269824 3.42630741,2.39902143 3.35135979,2.18893152 C3.24509845,1.89173116 3.07312961,1.60221702 2.86266029,1.36650639 C2.73021861,1.21841862 2.58289009,1.09185226 2.42734812,0.999105251 C2.42118804,0.99551835 2.41554131,0.992443864 2.40938123,0.988856963 C2.35856059,0.959649342 2.30825328,0.934541035 2.259486,0.914556873 C1.74563285,0.701904891 1.35036119,0.980658332 1.35036119,1.59196873" id="Fill-215" fill="#686868"></path>
                                            <g id="充电枪" transform="translate(0.000000, 0.914506)">
                                                <g id="编组" transform="translate(0.000180, 0.000000)">
                                                    <mask id="mask-3" fill="white">
                                                        <use xlink:href="#path-2"></use>
                                                    </mask>
                                                    <use id="Clip-220" fill="#D8D8D8" xlink:href="#path-2"></use>
                                                    <path d="M1.94611753,0.243909261 C1.72538141,0.416080504 1.52825892,0.613360053 1.35834344,0.83011135 L1.35834344,0.83011135 C1.02313254,1.25592773 0.791616285,1.75706903 0.686894962,2.2966414 L0.686894962,2.2966414 C0.686894962,2.2966414 0.173041806,4.69935259 0.0339267157,5.59454057 L0.0339267157,5.59454057 C0.0149331425,5.71700762 0.00312632672,5.81129187 0.000559627639,5.86765745 L0.000559627639,5.86765745 C-0.000467051994,5.88456713 4.62878224e-05,5.89737749 0.00107296746,5.90352646 L0.00107296746,5.90352646 C0.0426534926,6.0721108 0.352197402,6.2745145 0.593467116,6.33805389 L0.593467116,6.33805389 C0.66584803,6.35701322 0.731042187,6.36367461 0.781349489,6.35342632 L0.781349489,6.35342632 C0.793669644,6.35086425 0.80547646,6.34625252 0.817796616,6.34112837 L0.817796616,6.34112837 L1.26696896,6.18894129 C1.42045756,6.13769985 1.54057908,6.01728246 1.5924264,5.86355814 L1.5924264,5.86355814 L2.4820443,3.64531614 C2.60986592,3.26664189 2.80852842,2.91768767 3.06725169,2.61792524 L3.06725169,2.61792524 L3.06776503,2.61792524 C3.16940632,2.49955751 3.28028772,2.388876 3.40092257,2.28741794 L3.40092257,2.28741794 C3.44455646,2.17981092 3.46868343,2.04914524 3.46868343,1.8984954 L3.46868343,1.8984954 C3.46868343,1.69762895 3.42607622,1.48497697 3.35112861,1.27437465 L3.35112861,1.27437465 C3.24435393,0.977686702 3.07289843,0.687147729 2.8624291,0.452461927 L2.8624291,0.452461927 C2.73050077,0.304374162 2.58317224,0.177295387 2.42711694,0.0845483783 L2.42711694,0.0845483783 C2.4214702,0.0814738918 2.41531012,0.0778869909 2.40915005,0.07430009 L2.40915005,0.07430009 C2.35832941,0.0450924684 2.3080221,0.0199841621 2.25925482,0 L2.25925482,0 L1.94611753,0.243909261 Z" id="Fill-219" mask="url(#mask-3)"></path>
                                                </g>
                                                <g id="编组" transform="translate(0.000000, 0.084600)">
                                                    <path d="M2.07612102,0.767545551 C2.66646181,1.12162391 2.3620513,1.45264362 2.00836016,2.05524297 C1.65466903,2.65732991 1.01042756,3.44234879 0.802011595,3.35933766 C0.594108969,3.27632652 0.717310525,2.22895146 0.978600492,1.56691204 C1.23989046,0.905385028 1.53762755,0.598448794 1.65672239,0.598448794 C1.77581723,0.598448794 2.07612102,0.767545551 2.07612102,0.767545551" id="Fill-221" fill="#7EA82F"></path>
                                                    <path d="M0.00156081913,5.81908057 C0.0426280045,5.98766491 0.352685254,6.1900686 0.593954967,6.25360799 C0.665822542,6.27256732 0.731016698,6.2787163 0.78183734,6.26846801 C0.793644156,6.26590594 0.805964312,6.26231903 0.817771127,6.25668248 L1.26694347,6.1044954 C1.42043207,6.05274154 1.54055359,5.93232415 1.59240091,5.77911224 L2.48201881,3.56087024 C2.60984043,3.18219599 2.80850294,2.83272936 3.0672262,2.53347935 L3.06773954,2.53347935 C3.16938083,2.41511162 3.28026223,2.3044301 3.40089708,2.20297205 L3.40089708,2.20297205 C3.44453097,2.09485261 3.46865794,1.96469935 3.46865794,1.81353709 C3.46865794,1.61318306 3.42605074,1.40001866 3.35110312,1.18992875 C3.18272766,1.32623099 3.00408541,1.47995531 2.84187002,1.65315138 C2.6416675,1.86682819 2.46559194,2.11073745 2.3618973,2.38795365 C2.34187704,2.44175716 2.32442349,2.49709792 2.31004997,2.55346351 C2.08110042,3.45685012 2.12268094,3.99693491 1.87319779,4.67178469 C1.6232013,5.34663448 1.43121221,5.61667687 1.20226265,5.75707842 C0.973313092,5.89747997 0.770543864,5.93334898 0.650935687,5.9128524 C0.563154578,5.89747997 0.193036571,5.78526122 0.0344145674,5.50958226 C0.0154209942,5.63256172 0.0036141784,5.72684597 0.000534139501,5.78321156 C-0.000492540132,5.80063365 0,5.81241918 0.00156081913,5.81908057" id="Fill-223" fill="#7EA82F"></path>
                                                    <path d="M1.8159604,0.575441387 C2.00846283,0.637955945 2.27899292,0.824474792 2.27899292,0.824474792 C2.27899292,0.824474792 2.54644296,0.61182281 2.86266029,0.367401135 C2.73021861,0.219313369 2.58289009,0.0927470089 2.42734812,0 C2.15835806,0.233660973 1.89604141,0.470396432 1.8159604,0.575441387" id="Fill-225" fill="#EBECEB"></path>
                                                    <path d="M1.67042856,0.746741525 C1.97021902,0.841025777 2.24793586,1.02190807 2.24793586,1.15667306 C2.24793586,1.28528907 1.62936138,2.47460293 1.10267473,2.9142545 C1.02670043,2.9783063 0.907092256,2.93731314 0.891692061,2.83944199 C0.887585343,2.81382127 0.886558663,2.78666331 0.885018643,2.76104259 C0.879885245,2.67290731 0.966639674,1.84228354 1.2248496,1.33345603 C1.48305953,0.824628516 1.61396118,0.728807021 1.67042856,0.746741525" id="Fill-227" fill="#EBEBEB"></path>
                                                    <polygon id="Fill-229" fill="#7EA82F" points="0.603503088 3.97879544 0.679990721 4.67721629 0.461307959 4.56141063"></polygon>
                                                    <polygon id="Fill-231" fill="#7EA82F" points="0.541799642 4.60414599 0.329790298 4.48782792 0.430404902 5.25337505"></polygon>
                                                </g>
                                            </g>
                                        </g>
                                    </g>
                                    <g id="面板备份" transform="translate(3.185092, 1.564013)">
                                        <path d="M0.856995597,0.118217634 L11.1409428,6.11510966 C11.6142484,6.391109 11.9979384,7.062334 11.9979384,7.61433267 L11.9979384,26.2713301 C11.9979384,26.8233288 11.6142484,27.0470704 11.1409428,26.7710711 L0.856995597,20.7741791 C0.383689998,20.4981797 0,19.8269547 0,19.2749561 L0,0.617958636 C0,0.0659599669 0.383689998,-0.157781701 0.856995597,0.118217634 Z" id="矩形" fill="#25272B"></path>
                                        <path d="M4.36950587,20.623053 L4.36950587,20.4268656 L3.7292699,19.951038 L3.7292699,20.1472253 L4.36950587,20.623053 Z M4.1837119,21.4795427 L4.1837119,21.1442672 L4.41218827,21.6127744 L4.63815391,21.744542 L4.1837119,20.795815 L4.1837119,20.5000698 L3.59117979,20.1545458 L3.59117979,20.347805 L3.99289648,20.5820586 L3.99289648,21.1764771 L3.85229564,21.0944883 L3.85229564,21.2862835 L4.1837119,21.4795427 Z M4.5000638,21.1354827 L4.63313245,20.7709255 L4.43980629,20.658191 L4.30171618,21.01982 L4.5000638,21.1354827 Z M3.68909823,21.1911179 L3.93766043,20.6464783 L3.53092229,20.4092966 L3.53092229,20.6054839 L3.67654459,20.6904009 L3.49326135,21.0769193 L3.68909823,21.1911179 Z M5.05399227,21.5053465 L5.19208238,21.4658162 L5.55864886,21.6795726 L5.68669605,21.8742959 L5.94530117,22.0250966 L5.81976471,21.8318374 L5.92772607,21.8947931 L5.92772607,21.7191029 L5.30004374,21.3530816 L5.32264031,21.3135514 L5.8875544,21.6429705 L5.8875544,21.4731366 L5.36783343,21.170071 L5.38289781,21.1261485 L5.90764023,21.4321422 L5.90764023,21.2623084 L5.42055875,20.9782759 L5.4331124,20.9241047 L5.23727551,20.8099061 L5.22472187,20.8640773 L4.80291934,20.618111 L4.80291934,20.7879448 L5.1845502,21.0104858 L5.16697509,21.0529442 L4.82300518,20.8523646 L4.82300518,21.0221984 L5.10922832,21.1891041 L5.08412102,21.2271703 L4.78283351,21.0514801 L4.78283351,21.2271703 L4.93347727,21.3150154 L4.78283351,21.3472253 L5.05399227,21.5053465 Z M5.90010804,22.5067806 L5.90010804,22.2857038 L5.79214668,22.1641847 L5.89257586,22.0382734 L5.67665314,21.9123621 L5.61137418,21.9738537 L5.44817677,21.7937712 L5.44817677,21.6590754 L5.2623828,21.5507331 L5.2623828,21.6297937 L5.0816103,21.6327219 L5.03641717,21.5390204 L4.80291934,21.4028605 L4.90836997,21.634186 L4.80543007,21.6415064 L4.80543007,21.859655 L5.2623828,21.8494064 L5.2623828,21.9489642 L5.11676051,21.8640473 L5.11676051,22.0236326 L5.44817677,22.2168918 L5.44817677,22.0075276 L5.90010804,22.5067806 Z M6.91601071,23.0728318 L6.97626821,22.9249592 L7.06163301,23.1577487 L7.25244844,23.2690192 L7.06414374,22.7448767 L7.19721239,22.4125294 L7.19721239,22.2104857 L7.2323626,22.2309829 L7.2323626,22.0318674 L6.98631113,21.888387 L6.99384332,21.8400722 L6.81809227,21.7375863 L6.75281331,22.3085794 L6.92103217,22.4066731 L6.96120384,22.0728617 L7.02397207,22.1094639 L7.02397207,22.2910104 L6.93860727,22.5106231 L6.78294206,22.4198499 L6.86579613,22.6497112 L6.73272747,22.9659536 L6.91601071,23.0728318 Z M6.49922965,22.1694913 L6.49922965,21.9528068 L6.72519529,22.0845744 L6.72519529,21.9205969 L6.49922965,21.7888293 L6.49922965,21.5516475 L6.3234786,21.4491615 L6.3234786,21.6863433 L6.07240567,21.5399348 L6.07240567,21.7039123 L6.3234786,21.8503208 L6.3234786,22.0670054 L6.49922965,22.1694913 Z M6.31594641,21.6380285 L6.23560307,21.4272003 L6.06236275,21.3261784 L6.14521682,21.5384707 L6.31594641,21.6380285 Z M6.67749143,21.8488567 L6.75532404,21.7302659 L6.58710517,21.6321722 L6.50927257,21.750763 L6.67749143,21.8488567 Z M6.23309234,22.0142983 L6.31343568,21.888387 L6.14521682,21.7902933 L6.06236275,21.9147406 L6.23309234,22.0142983 Z M6.74779185,22.3144358 L6.6749807,22.0992153 L6.50927257,22.0025857 L6.58208372,22.2178061 L6.74779185,22.3144358 Z M6.72519529,22.973274 L6.72519529,22.7990479 L6.58459444,22.6643521 L6.71264164,22.6365344 L6.71264164,22.4022809 L6.39377902,22.2163421 L6.42139704,22.1680273 L6.25066745,22.0684695 L6.2205387,22.1153202 L6.08495932,22.0362596 L6.08495932,22.2002371 L6.15023828,22.2383033 L6.07993786,22.3495738 L6.2632211,22.5296562 L6.04980911,22.5677225 L6.30841422,22.7185232 L6.43395069,22.6950978 L6.72519529,22.973274 Z M6.42139704,22.5135513 L6.30088204,22.3934963 L6.33603225,22.3466456 L6.54944423,22.4710928 L6.54944423,22.4886619 L6.42139704,22.5135513 Z M7.95199921,22.7677524 L7.86914515,22.4295488 L7.69088337,22.3255987 L7.72101212,22.4544382 L7.5904542,22.3783058 L7.66075462,22.2289691 L7.47747138,22.1220909 L7.32682762,22.4031952 L7.95199921,22.7677524 Z M8.45163434,23.2992152 L8.49180601,23.0591053 L8.32609788,22.9624757 L8.31354423,23.0342158 L8.1478361,22.9375862 L8.1478361,22.8965919 L8.45163434,22.9009841 L8.45163434,22.693084 L8.1478361,22.6828355 L8.1478361,22.5130016 L7.97710651,22.4134438 L7.97710651,23.0225032 L8.45163434,23.2992152 Z M7.52768596,23.4295188 L7.52768596,23.1908729 L7.74360868,23.3167842 L7.74360868,23.3694913 L7.64066878,23.3094638 L7.64066878,23.4954026 L7.91433827,23.6549879 L7.91433827,22.7897137 L7.35695637,22.4646868 L7.35695637,23.329961 L7.52768596,23.4295188 Z M8.46167726,23.9741584 L8.49431674,23.7194076 L8.32107642,23.6183857 L8.30852277,23.7047668 L8.1478361,23.6110653 L8.1478361,23.5407892 L8.45414507,23.5671428 L8.45414507,23.3563145 L8.1478361,23.3358173 L8.1478361,23.1659835 L7.97710651,23.0664257 L7.97710651,23.69159 L8.46167726,23.9741584 Z" id="永泰数能" fill="#48A8FF" fill-rule="nonzero"></path>
                                        <g id="编组-67" transform="translate(4.284978, 15.137523)" fill="#FFFFFF" fill-rule="nonzero">
                                            <g id="刷卡" transform="translate(0.360840, 1.058250)">
                                                <path d="M1.90672821,3.2061117 L1.63198784,2.87172898 C1.51591959,2.71111568 1.49980659,2.55434253 1.58528744,2.4827526 C1.62816441,2.44675221 1.7188342,2.42835905 1.86658225,2.56212096 L1.88761109,2.58778146 L1.71255286,1.80383077 C1.7029943,1.75977348 1.66639866,1.7159135 1.63089543,1.7054727 L0.922196366,1.49716776 C0.886693138,1.48672695 0.865664302,1.51380296 0.875222864,1.55786025 L1.1750886,2.91686967 C1.18464716,2.96092697 1.22124279,3.00478694 1.25674602,3.01522775 L1.90672821,3.2061117 Z M2.28087762,2.72474735 L1.9053627,2.31791685 L2.01951924,2.84999165 L1.85620438,2.65099501 C1.78410552,2.56305689 1.69207023,2.53589901 1.65083186,2.59052878 C1.6095935,2.64515856 1.63471886,2.76072196 1.70681772,2.84866008 L2.06485413,3.28207134 C2.1069118,3.3328222 2.1374992,3.39313294 2.14978878,3.44961514 L2.15989354,3.49684156 L2.56217243,3.61511762 L2.42999118,3.00069637 C2.41243464,2.91960029 2.36979732,2.83372219 2.31136629,2.7603256 L2.28087762,2.72474735 Z M0.740037493,1.26181204 C0.599663188,1.03343342 0.599663188,0.795121436 0.740037493,0.730741194 L0.799846778,0.828046482 C0.692517787,0.87748902 0.692517787,1.05992882 0.799846778,1.23454516 L0.740037493,1.26181204 Z M0.515547847,1.36522807 C0.251458445,0.935572264 0.251458445,0.486884387 0.515547847,0.365228066 L0.575357132,0.462533354 C0.344039942,0.569092717 0.344039942,0.961623344 0.575357132,1.33767426 L0.515547847,1.36522807 Z M0.2910582,1.46864037 C-0.0970194001,0.837551852 -0.0970194001,0.178773146 0.2910582,0 L0.350867486,0.0973052877 C-0.00416480183,0.260855668 -0.00416480183,0.863762186 0.350867486,1.44137348 L0.2910582,1.46864037 Z M1.96626439,1.97686339 L1.90645511,1.87955811 C2.0137841,1.83011557 2.0137841,1.64767577 1.90645511,1.47305943 L1.96626439,1.44550748 C2.1066387,1.6738861 2.1066387,1.91219809 1.96626439,1.97686339 Z M2.19075404,2.34209332 L2.13094475,2.24478617 C2.24291648,2.1932049 2.30463747,2.07383746 2.30463747,1.90850139 C2.30463747,1.74316532 2.24291648,1.55181499 2.13094475,1.36964527 L2.19075404,1.34209332 C2.31856566,1.55003339 2.38929902,1.76887396 2.38929902,1.95787019 C2.38929902,2.14686642 2.31883876,2.28337258 2.19075404,2.34209332 Z M2.41524369,2.70731953 L2.3554344,2.61001424 C2.71046669,2.44646386 2.71046669,1.84355734 2.3554344,1.26594604 L2.41524369,1.23839409 C2.80332129,1.87005274 2.80332129,2.52883144 2.41524369,2.70731953 Z" id="形状"></path>
                                            </g>
                                            <path d="M3.21749224,1.78251311 L0.210490147,0.02903591 C0.0942396487,-0.0387534002 0,0.0162006936 0,0.151779314 L0,3.65873372 C0,3.79431234 0.0942396487,3.95917462 0.210490147,4.02696393 L3.21749224,5.78044113 C3.33374274,5.84823044 3.42798239,5.79327635 3.42798239,5.65769773 L3.42798239,2.15074332 C3.42798239,2.0151647 3.33374274,1.85030242 3.21749224,1.78251311 Z M3.21749224,1.8526522 C3.30052831,1.90107314 3.36784235,2.01883191 3.36784235,2.11567378 L3.36784235,5.62262818 C3.36784235,5.71947005 3.30052831,5.75872298 3.21749224,5.71030204 L0.210490147,3.95682484 C0.127454077,3.9084039 0.0601400419,3.79064513 0.0601400419,3.69380326 L0.0601400419,0.186848858 C0.0601400419,0.0900069864 0.127454077,0.0507540622 0.210490147,0.099174998 L3.21749224,1.8526522 Z" id="矩形"></path>
                                        </g>
                                        <polygon id="矩形" fill="#777777" points="3.99931279 8.61381467 7.99862557 10.9459394 7.99862557 13.6112247 3.99931279 11.2791"></polygon>
                                        <path d="M4.49922689,5.40714324 C4.61755329,5.47614308 4.71347578,5.42020766 4.71347578,5.28220799 C4.71347578,5.14420832 4.61755329,4.97640207 4.49922689,4.90740224 C4.38090049,4.83840241 4.28497799,4.89433782 4.28497799,5.03233749 C4.28497799,5.17033716 4.38090049,5.33814341 4.49922689,5.40714324 Z" id="椭圆形" fill="#35E139"></path>
                                        <path d="M5.92755288,6.24004491 C6.04587928,6.30904475 6.14180178,6.25310933 6.14180178,6.11510966 C6.14180178,5.97710999 6.04587928,5.80930374 5.92755288,5.74030391 C5.80922648,5.67130408 5.71330398,5.72723949 5.71330398,5.86523916 C5.71330398,6.00323883 5.80922648,6.17104508 5.92755288,6.24004491 Z" id="椭圆形备份-172" fill="#35E139"></path>
                                        <path d="M7.35587888,7.07294658 C7.47420528,7.14194642 7.57012778,7.086011 7.57012778,6.94801133 C7.57012778,6.81001167 7.47420528,6.64220541 7.35587888,6.57320558 C7.23755248,6.50420575 7.14162998,6.56014116 7.14162998,6.69814083 C7.14162998,6.8361405 7.23755248,7.00394675 7.35587888,7.07294658 Z" id="椭圆形备份-173" fill="#35E139"></path>
                                    </g>
                                </g>
                            </g>
                        </g>
                    </g>
                </g>
            </g>
        </g>
    </g>
</svg>